<?xml version="1.0" encoding="UTF-8" standalone="no"?>
<svg
   width="930"
   height="600"
   viewBox="0 0 930 600"
   fill="none"
   version="1.1"
   id="svg615"
   sodipodi:docname="Сценарій3_негативний.svg"
   inkscape:version="1.1 (c68e22c387, 2021-05-23)"
   xmlns:inkscape="http://www.inkscape.org/namespaces/inkscape"
   xmlns:sodipodi="http://sodipodi.sourceforge.net/DTD/sodipodi-0.dtd"
   xmlns="http://www.w3.org/2000/svg"
   xmlns:svg="http://www.w3.org/2000/svg">
  <sodipodi:namedview
     id="namedview617"
     pagecolor="#ffffff"
     bordercolor="#666666"
     borderopacity="1.0"
     inkscape:pageshadow="2"
     inkscape:pageopacity="0.0"
     inkscape:pagecheckerboard="0"
     showgrid="false"
     inkscape:zoom="0.76527778"
     inkscape:cx="432.52269"
     inkscape:cy="376.9873"
     inkscape:window-width="1857"
     inkscape:window-height="1057"
     inkscape:window-x="-8"
     inkscape:window-y="-8"
     inkscape:window-maximized="1"
     inkscape:current-layer="svg615" />
  <g
     id="g2261"
     transform="translate(-473.47428,-114.05547)">
    <path
       d="m 1497.1233,615.635 c 10.88,46.616 -25.09,91.08 -72.97,90.999 l -170.38,-0.243 -15.84,-0.041 -514.44002,-1.665 -169.694,-0.568 c 0,0 -64.158,-112.886 -25.907,-226.543 3.776,-11.207 8.527,-22.455 14.456,-33.541 9.908,-18.597 23.064,-36.87 39.997,-54.25 72.807,-74.634 139.97,-84.786 195.032,-79.71 43.977,4.06 14.611,1.665 39.95,0 57.133,-3.736 -32.456,-161.085 136.547,-196.575 33.703,-7.065 100.48902,14.775 245.71902,90.968 89.15,46.772 210,-58.266 262.04,72.594 3.8,9.543 15.03,55.624 0,85.669 -13.66,27.321 -25.7,35.46 -41.42,62.016 -50.15,84.746 -9.13,123.443 50.15,157.065 2.44,1.381 4.88,2.802 7.27,4.264 10.64,6.335 16.57,17.055 19.49,29.561 z"
       fill="#1c468a"
       id="path4" />
    <path
       d="m 1427.2433,705.537 c 39.88,0 71.8,-32.729 71.8,-72.604 l -187.65,-89.74 v -46.779 h -3.49 v -97.252 h -53.96 v 97.252 h -63.92 v -62.655 h -97.33 v -117.15 h -61.32 v 152.355 h -19.12 V 339.227 h -49.21802 v 129.737 h -113.414 v 118.652 h -57.579 v -80.238 h -53.641 v 80.238 h -15.512 V 420.562 h -59.123 v 167.054 h -21.237 v 118.53 z"
       fill="#046b9e"
       id="path6" />
    <path
       d="m 908.77328,438.799 c -0.65,-2.437 -1.015,-5.117 -1.015,-7.878 0,-12.385 7.187,-22.455 16.039,-22.455 1.3,0 2.558,0.203 3.777,0.609 1.421,-33.541 16.12,-59.894 34.028,-59.894 17.054,0 31.185,23.917 33.744,55.143 12.66702,8.609 21.39702,26.272 21.39702,46.616 0,9.705 -1.99,18.801 -5.44,26.597 11.78,7.269 19.29,18.192 19.29,30.414 0,21.847 -23.88,39.551 -53.31702,39.551 -22.05,0 -40.972,-9.908 -49.093,-24.079 -2.274,0.527 -4.589,0.812 -6.985,0.812 -20.059,0 -36.302,-19.735 -36.302,-44.058 -0.04,-19.004 9.908,-35.206 23.877,-41.378 z"
       fill="#046a0e"
       id="path8" />
    <path
       d="m 908.77028,438.8 c 0,0 35.328,-13.766 62.209,10.476 26.922,24.242 45.64402,-13.969 36.66402,-31.714 5.65,9.056 9.06,20.71 9.06,33.46 0,9.705 -1.99,18.801 -5.44,26.597 11.77,7.269 19.29,18.192 19.29,30.414 0,21.847 -23.88,39.551 -53.32002,39.551 -22.05,0 -40.972,-9.908 -49.093,-24.08 -2.274,0.528 -4.589,0.813 -6.985,0.813 -20.059,0 -36.302,-19.735 -36.302,-44.058 0,-19.085 9.949,-35.287 23.917,-41.459 z"
       fill="#1e5704"
       id="path10" />
    <path
       d="m 950.27328,697.827 c 1.381,0 2.518,-0.366 2.518,-1.747 V 423.571 c 0,-1.38 -1.137,-2.517 -2.518,-2.517 -1.381,0 -2.518,1.137 -2.518,2.517 V 696.08 c 0,1.34 1.137,1.747 2.518,1.747 z"
       fill="#7a3909"
       id="path12" />
    <path
       d="m 950.27128,520.337 c 7.146,0 13.156,-2.559 17.948,-7.553 13.319,-14.009 12.06,-42.678 11.979,-43.896 -0.082,-1.38 -1.259,-2.477 -2.64,-2.395 -1.38,0.081 -2.436,1.258 -2.396,2.639 0,0.284 1.219,27.734 -10.638,40.2 -3.817,4.02 -8.528,5.969 -14.294,5.969 -1.38,0 -2.517,1.137 -2.517,2.518 0,1.381 1.177,2.518 2.558,2.518 z"
       fill="#7a3909"
       id="path14" />
    <path
       d="m 949.90828,577.389 c 0.163,0 0.325,0 0.488,0 1.38,-0.082 2.436,-1.259 2.355,-2.68 -0.081,-1.381 -1.259,-2.437 -2.68,-2.355 -0.975,0.04 -1.909,-0.366 -2.924,-1.259 -3.127,-2.802 -9.014,-12.588 -13.603,-46.941 -2.639,-19.857 -3.573,-38.373 -3.573,-38.576 -0.082,-1.381 -1.259,-2.477 -2.64,-2.396 -1.38,0.081 -2.477,1.259 -2.395,2.639 0,0.203 0.933,18.923 3.613,38.982 1.584,11.817 3.452,21.847 5.564,29.724 2.761,10.355 5.928,16.974 9.664,20.303 1.949,1.706 3.979,2.559 6.131,2.559 z"
       fill="#7a3909"
       id="path16" />
    <path
       d="m 794.79528,386.821 c 7.512,-14.699 11.004,-31.145 10.639,-47.672 -0.894,-39.55 11.004,-94.085 40.2,-94.085 35.165,0 37.926,68.909 26.963,107.688 -2.193,7.716 0.852,15.999 7.634,20.222 0.527,0.325 0.893,0.528 1.096,0.528 8.852,0 16.039,9.624 16.039,21.522 0,2.68 -0.365,5.197 -1.015,7.552 13.969,5.888 23.917,21.441 23.917,39.713 0,23.349 -16.242,42.231 -36.302,42.231 -16.08,0 -29.724,-12.182 -34.474,-29.033 -6.294,5.563 -13.888,8.811 -22.09,8.811 -21.522,0 -38.982,-22.415 -38.982,-50.068 0,-10.11 2.355,-19.531 6.375,-27.409 z"
       fill="#036a0e"
       id="path18" />
    <path
       d="m 817.73928,392.344 c 36.383,-4.914 41.824,34.718 41.824,34.718 43.124,-19.613 62.25,11.167 62.25,11.167 l 1.055,9.218 c -0.974,22.333 -19.491,37.073 -38.901,37.073 -16.08,0 -29.723,-12.182 -34.474,-29.033 -6.294,5.563 -13.888,8.811 -22.09,8.811 -12.954,0 -24.405,-8.081 -31.47,-20.547 -0.244,-0.771 -14.293,-46.535 21.806,-51.407 z"
       fill="#1e5704"
       id="path20" />
    <path
       d="m 847.94928,697.827 c 1.381,0 2.721,0.893 2.721,-0.488 V 424.83 c 0,-1.381 -1.137,-2.518 -2.518,-2.518 -1.381,0 -2.518,1.137 -2.518,2.518 v 272.509 c 0,1.34 0.934,0.488 2.315,0.488 z"
       fill="#7a3909"
       id="path22" />
    <path
       d="m 848.15228,521.594 c 7.756,0 14.415,-4.588 19.816,-13.603 4.061,-6.781 7.39,-16.202 9.948,-27.937 4.305,-19.776 4.954,-39.835 4.954,-40.038 0.041,-1.381 -1.055,-2.558 -2.436,-2.599 -1.381,-0.04 -2.558,1.056 -2.599,2.436 0,0.204 -0.609,19.816 -4.832,39.145 -3.736,17.136 -11.085,37.52 -24.851,37.52 -1.381,0 -2.518,1.137 -2.518,2.518 0,1.421 1.137,2.558 2.518,2.558 z"
       fill="#7a3909"
       id="path24" />
    <path
       d="m 847.90628,578.645 c 0.122,0 0.284,0 0.406,0 1.381,-0.081 2.437,-1.259 2.355,-2.68 -0.081,-1.38 -1.299,-2.436 -2.68,-2.355 -0.325,0 -0.852,-0.041 -1.583,-0.771 -3.127,-3.005 -8.731,-15.471 -11.005,-65.092 -1.299,-28.587 -0.812,-55.834 -0.812,-56.118 0.041,-1.381 -1.096,-2.518 -2.477,-2.559 -1.38,-0.04 -2.517,1.097 -2.558,2.477 0,0.285 -0.487,27.694 0.812,56.443 0.772,16.933 1.99,31.023 3.655,41.906 2.192,14.253 5.076,22.943 8.893,26.556 1.827,1.787 3.695,2.193 4.994,2.193 z"
       fill="#7a3909"
       id="path26" />
    <path
       d="m 829.63328,464.258 c 0.65,-2.964 1.015,-6.131 1.015,-9.501 0,-14.903 -7.187,-27.004 -16.039,-27.004 -1.3,0 -2.558,0.285 -3.777,0.772 -1.421,-40.322 -16.12,-72.036 -34.028,-72.036 -17.054,0 -31.185,28.75 -33.744,66.351 -12.669,10.355 -21.399,31.592 -21.399,56.077 0,11.695 1.99,22.618 5.441,31.958 -11.776,8.73 -19.288,21.886 -19.288,36.586 0,26.272 23.877,47.55 53.316,47.55 22.049,0 40.972,-11.938 49.093,-28.952 2.274,0.649 4.589,0.974 6.985,0.974 20.059,0 36.302,-23.714 36.302,-52.991 0.081,-22.861 -9.908,-42.393 -23.877,-49.784 z"
       fill="#036a0e"
       id="path28" />
    <path
       d="m 716.38328,521.717 c 5.725,-7.878 8.04,-17.664 6.537,-27.288 -0.771,-4.954 -1.177,-10.151 -1.177,-15.511 0,-2.924 0.122,-5.848 0.365,-8.649 49.256,3.37 47.307,52.788 47.307,52.788 0,0 40.769,-17.177 54.331,7.025 13.603,24.161 -13.441,36.058 -13.441,36.058 -8.121,17.014 -27.043,28.952 -49.093,28.952 -29.439,0 -53.316,-21.277 -53.316,-47.55 0,-9.542 3.127,-18.394 8.487,-25.825 z"
       fill="#1e5704"
       id="path30" />
    <path
       d="m 777.37528,697.42 c 1.38,0 2.517,-10e-4 2.517,-1.381 V 484.317 c 0,-1.38 -1.137,-2.517 -2.517,-2.517 -1.381,0 -2.518,1.137 -2.518,2.517 v 211.722 c 0,1.38 1.137,1.381 2.518,1.381 z"
       fill="#7a3909"
       id="path32" />
    <path
       d="m 777.37628,554.972 c 7.147,0 13.157,-2.558 17.948,-7.553 13.319,-14.009 12.06,-42.677 11.979,-43.895 -0.081,-1.381 -1.259,-2.477 -2.639,-2.396 -1.381,0.081 -2.437,1.259 -2.396,2.64 0,0.284 1.218,27.734 -10.639,40.159 -3.817,4.02 -8.527,5.97 -14.293,5.97 -1.381,0 -2.518,1.136 -2.518,2.517 0.041,1.462 1.178,2.558 2.558,2.558 z"
       fill="#7a3909"
       id="path34" />
    <path
       d="m 775.34228,637.282 c 0.162,0 0.325,0 0.487,0 1.381,-0.081 2.437,-1.259 2.355,-2.68 -0.081,-1.38 -1.299,-2.436 -2.68,-2.355 -0.974,0.041 -1.908,-0.365 -2.923,-1.259 -3.127,-2.802 -9.015,-12.588 -13.603,-46.941 -2.64,-19.856 -3.574,-38.373 -3.574,-38.576 -0.081,-1.38 -1.258,-2.477 -2.639,-2.395 -1.381,0.081 -2.477,1.258 -2.396,2.639 0,0.203 0.934,18.922 3.614,38.982 1.584,11.816 3.452,21.846 5.563,29.724 2.761,10.354 5.929,16.973 9.664,20.303 1.95,1.705 3.98,2.558 6.132,2.558 z"
       fill="#7a3909"
       id="path36" />
    <path
       d="m 1266.0033,174.404 h 5.03 l -0.04,-0.406 -1.5,-13.359 c -0.04,-0.447 -0.41,-0.772 -0.85,-0.772 -0.04,0 -0.12,0 -0.16,0 -0.29,0.041 -0.53,0.163 -0.74,0.325 -0.24,0.203 -0.4,0.528 -0.44,0.853 z"
       fill="#a2c5f9"
       id="path38" />
    <path
       d="m 1270.5533,171.359 h 0.16 l -1.26,-10.72 c -0.04,-0.447 -0.41,-0.772 -0.85,-0.772 -0.04,0 -0.13,0 -0.17,0 -0.04,0.041 -0.08,0.081 -0.12,0.122 -0.2,0.244 -0.36,0.568 -0.36,0.893 l -0.08,7.716 c 0,1.502 1.17,2.72 2.68,2.761 z"
       fill="#afcdfb"
       id="path40" />
    <path
       d="m 1272.5033,233.892 h -9.71 v 426.975 h 9.71 z"
       fill="#a2c5f9"
       id="path42" />
    <path
       d="m 1272.4933,233.892 h -4.46 v 426.975 h 4.46 z"
       fill="#afcdfb"
       id="path44" />
    <path
       d="m 1283.0933,592.73 h -30.9 v 112.967 h 30.9 z"
       fill="#a2c5f9"
       id="path46" />
    <path
       d="m 1283.0533,592.73 h -18.39 v 112.967 h 18.39 z"
       fill="#afcdfb"
       id="path48" />
    <path
       d="m 1250.7733,180.821 c 0,5.279 7.96,9.542 17.75,9.542 0.73,0 1.5,-0.04 2.19,-0.081 8.77,-0.568 15.55,-4.588 15.55,-9.461 0,-4.873 -6.78,-8.893 -15.55,-9.461 -0.73,-0.041 -1.46,-0.082 -2.19,-0.082 -9.83,0 -17.75,4.305 -17.75,9.543 z"
       fill="#a2c5f9"
       id="path50" />
    <path
       d="m 1252.2433,242.338 h 30.9 l 10.88,-52.301 h -51 z"
       fill="#afcdfb"
       id="path52" />
    <path
       d="m 1296.7833,186.099 h -56.52 v 5.035 h 56.52 z"
       fill="#a2c5f9"
       id="path54" />
    <path
       d="m 1278.0233,592.731 h -19.74 l 2.89,-8.73 c 0.24,-0.772 0.97,-1.3 1.78,-1.3 h 9.26 c 1.02,0 1.91,0.609 2.28,1.543 z"
       fill="#a2c5f9"
       id="path56" />
    <path
       d="m 1259.8233,180.373 h 0.13 c 0.32,-4.061 4.63,-7.512 10.76,-9.015 8.48,0.569 15.1,4.345 15.51,9.015 h 2.88 l 4.02,5.726 h 3.62 v 5.035 h -35.53 v -5.035 h -5.24 z"
       fill="#afcdfb"
       id="path58" />
    <path
       d="m 1290.3633,192.597 h -43.57 l 8.52,46.981 h 25.02 z"
       fill="#388eca"
       id="path60" />
    <path
       d="m 1285.0833,181.389 c 0,0 -3.33,-7.227 -9.86,-7.024 0,0 4.18,3.695 3.77,7.024 -0.36,3.33 6.09,0 6.09,0 z"
       fill="#c7dcf9"
       id="path62" />
    <path
       d="m 1243.8733,186.1 h 49.3 l -4.02,-5.726 h -41.46 z"
       fill="#a2c5f9"
       id="path64" />
    <path
       d="m 1287.4933,194.219 h -9.99 l -2.93,43.895 h 2.93 z"
       fill="#d2e4f9"
       id="path66" />
    <path
       d="m 1338.1033,667.042 c -32.28,10.964 -91.73,39.145 -160.03,20.019 -68.3,-19.125 -149.15,-2.477 -250.70202,18.233 -0.487,0.081 -0.974,0.203 -1.502,0.284 l 563.73402,-0.812 c -43.36,-48.931 -101.84,-54.575 -151.5,-37.724 z"
       fill="#1e5704"
       id="path68" />
    <path
       d="m 922.29128,690.284 c -55.468,17.298 -113.779,-3.574 -220.452,-20.263 -106.673,-16.689 -149.228,35.856 -149.228,35.856 l 518.74202,-0.041 c -16.08,-16.04 -93.55302,-32.81 -149.06202,-15.552 z"
       fill="#1e5704"
       id="path70" />
    <path
       d="M 1523.5633,715.865 H 474.73928 c -0.69,0 -1.265,-2.127 -1.265,-4.68 v -3.12 c 0,-2.553 0.575,-4.68 1.265,-4.68 H 1523.5933 c 0.69,0 1.27,2.127 1.27,4.68 v 3.12 c -0.04,2.694 -0.61,4.68 -1.3,4.68 z"
       fill="#283250"
       id="path72" />
    <path
       d="m 1146.5433,713.335 h 8.56 v -57.064 c 0,-21.631 17.56,-39.228 39.14,-39.228 21.58,0 39.14,17.597 39.14,39.228 v 57.064 h 8.56 v -57.064 c 0,-26.351 -21.41,-47.802 -47.7,-47.802 -26.29,0 -47.7,21.451 -47.7,47.802 z"
       fill="#242945"
       id="path74" />
    <path
       d="m 901.19028,646.681 c 2.355,0 4.263,-1.912 4.263,-4.272 V 535.481 c 0,-2.36 -1.908,-4.272 -4.263,-4.272 -2.355,0 -4.263,1.912 -4.263,4.272 v 106.898 c 0,2.36 1.908,4.302 4.263,4.302 z"
       fill="#242945"
       id="path76" />
    <path
       d="m 1164.6333,646.681 c 2.36,0 4.27,-1.912 4.27,-4.272 V 535.481 c 0,-2.36 -1.91,-4.272 -4.27,-4.272 -2.35,0 -4.26,1.912 -4.26,4.272 v 106.898 c -0.03,2.36 1.91,4.302 4.26,4.302 z"
       fill="#242945"
       id="path78" />
    <path
       d="m 882.14128,629.533 h 307.08202 c 2.15,0 3.91,-1.763 3.91,-3.914 v -18.583 c 0,-2.151 -1.76,-3.914 -3.91,-3.914 H 882.14128 c -2.146,0 -3.905,1.763 -3.905,3.914 v 18.583 c 0,2.151 1.759,3.914 3.905,3.914 z"
       fill="#1b3764"
       id="path80" />
    <path
       d="m 893.32628,647.757 h 337.43702 c 2.95,0 5.36,-2.39 5.36,-5.377 0,-2.958 -2.38,-5.378 -5.36,-5.378 H 893.32628 Z"
       fill="#1b3764"
       id="path82" />
    <path
       d="m 879.96928,598.402 h 307.08402 c 2.15,0 3.91,-1.763 3.91,-3.914 v -18.583 c 0,-2.151 -1.76,-3.914 -3.91,-3.914 H 879.96928 c -2.146,0 -3.905,1.763 -3.905,3.914 v 18.583 c 0,2.181 1.759,3.914 3.905,3.914 z"
       fill="#1b3764"
       id="path84" />
    <path
       d="m 877.04728,566.165 h 307.08602 c 2.15,0 3.9,-1.763 3.9,-3.914 v -18.583 c 0,-2.151 -1.75,-3.914 -3.9,-3.914 H 877.04728 c -2.146,0.03 -3.905,1.763 -3.905,3.914 v 18.583 c 0,2.151 1.759,3.914 3.905,3.914 z"
       fill="#1b3764"
       id="path86" />
    <path
       d="m 888.82228,713.335 h 8.556 v -57.064 c 0,-21.631 17.558,-39.228 39.142,-39.228 21.583,0 39.172,17.597 39.172,39.228 v 57.064 h 8.555 v -57.064 c 0,-26.351 -21.404,-47.802 -47.697,-47.802 -26.294,0 -47.698,21.451 -47.698,47.802 v 57.064 z"
       fill="#242945"
       id="path88" />
    <g
       clip-path="url(#clip2)"
       id="g218"
       transform="translate(-1.3067151)">
      <path
         d="m 929.784,542.718 c 0,0 -7.139,-6.117 -4.563,-15.068 2.502,-8.951 14.498,-15.814 28.776,-12.979 14.279,2.834 25.686,18.126 26.79,28.047 z"
         fill="#e8ad3a"
         id="path198" />
      <path
         d="m 977.477,522.653 c 0,0 3.385,-3.431 8.905,-3.431 l -2.208,9.175 z"
         fill="#9b6f17"
         id="path200" />
      <path
         d="m 969.601,522.951 -3.9,-5.892 c 0,0 -6.182,5.072 -3.975,11.263 2.208,6.191 7.875,-5.371 7.875,-5.371 z"
         fill="#9b6f17"
         id="path202" />
      <path
         d="m 963.122,524.891 c 0,0 -7.728,5.743 -6.918,12.009 0.81,6.266 9.273,7.31 21.27,6.713 11.996,-0.596 10.23,-8.801 9.788,-11.188 -0.368,-2.387 -8.979,-19.469 -24.14,-7.534 z"
         fill="#e8ad3a"
         id="path204" />
      <path
         d="m 964.227,528.919 c 0,0 0.809,2.685 4.268,2.834 3.459,0.15 3.386,-2.536 3.386,-2.536 0,0 -3.607,3.73 -7.654,-0.298 z"
         fill="#9b6f17"
         id="path206" />
      <path
         d="m 969.23,533.544 c 0,0 1.767,-1.492 4.932,-1.044 3.164,0.447 4.121,2.387 4.342,3.133 0.221,0.746 -1.104,3.729 -5.078,3.133 -3.975,-0.523 -6.256,-3.506 -4.196,-5.222 z"
         fill="#ffd068"
         id="path208" />
      <path
         d="m 975.562,529.366 c 0,0 0.81,2.686 4.269,2.835 3.459,0.149 3.386,-2.536 3.386,-2.536 0,0 -3.533,3.804 -7.655,-0.299 z"
         fill="#9b6f17"
         id="path210" />
      <path
         d="m 972.693,533.17 c 0,0 1.767,-0.149 2.429,0.373 0.736,0.522 -1.398,2.014 -1.398,2.014 0,0 -2.355,-1.865 -1.031,-2.387 z"
         fill="#9b6f17"
         id="path212" />
      <path
         d="m 960.252,527.576 c 0,0 -10.23,9.473 2.134,15.142 0,0 -8.243,-4.923 -2.134,-15.142 z"
         fill="#cc9533"
         id="path214" />
      <path
         d="m 943.4,540.555 c 8.096,-1.193 10.23,-2.387 11.334,0.821 1.104,3.207 -18.473,7.832 -24.95,1.342 -6.55,-6.489 -4.931,-13.352 -4.931,-13.352 0,0 3.459,13.352 18.547,11.189 z"
         fill="#9b6f17"
         id="path216" />
    </g>
    <path
       d="m 1073.2833,514.965 -62.51,-2.031 c -5.65,-0.189 -10.47,4.648 -10.64,10.67 -0.13,5.512 3.61,10.148 8.67,10.781 l 62.03,7.076 c 7.27,0.891 13.86,-5.281 14.07,-13.14 0.07,-7.148 -5.05,-13.145 -11.62,-13.356 z"
       fill="#1a1a1a"
       id="path220" />
    <path
       d="m 955.71828,603.772 15.528,-27.046 9.897,6.062 -15.385,26.999 z"
       fill="#ffffff"
       id="path222" />
    <path
       d="m 969.99928,606.469 -3.044,10.293 -33.406,-20.014 0.162,-0.302 c 1.133,-2.118 3.313,-3.341 5.486,-3.237 l 19.163,2.559 c 0.695,0.017 1.406,0.443 1.58,1.213 0.803,3.544 0.939,8.552 9.228,8.191 0.695,0.017 1.066,0.639 0.831,1.297 z"
       fill="#1a1a1a"
       id="path224" />
    <path
       d="m 933.62628,596.798 33.407,20.014 -1.295,2.419 -33.407,-20.014 z"
       fill="#ffffff"
       id="path226" />
    <path
       d="m 954.36928,601.526 -0.668,8.434 -1.243,-0.037 0.668,-8.434 z"
       fill="#ffffff"
       id="path228" />
    <path
       d="m 949.82228,600.894 -0.496,6.268 -1.243,-0.037 0.497,-6.268 z"
       fill="#ffffff"
       id="path230" />
    <path
       d="m 1017.7033,529.596 -42.16502,69.142 -15.104,-9.049 40.81902,-71.677 c 2.98,-5.137 9.19,-6.875 13.97,-3.746 4.81,3.283 6.01,10.258 2.48,15.33 z"
       fill="#1a1a1a"
       id="path232" />
    <path
       d="m 1085.1433,515.859 -61.25,16.42 c -5.6,1.463 -8.97,7.318 -7.55,12.981 1.25,5.147 6.13,8.24 11.24,7.329 l 62.17,-11.605 c 7.28,-1.309 12.01,-8.85 10.12,-16.167 -1.65,-6.666 -8.21,-10.611 -14.73,-8.958 z"
       fill="#1a1a1a"
       id="path234" />
    <path
       d="m 1017.4233,629.749 0.14,-27.35 11.54,-0.194 -0.03,27.254 z"
       fill="#ffffff"
       id="path236" />
    <path
       d="m 1031.0733,625.018 2.46,9.105 -38.66602,0.94 0.011,-0.3 c -0.029,-2.105 1.174,-4.067 3.164,-4.999 l 17.77102,-7.189 c 0.63,-0.278 1.45,-0.349 1.95,0.169 2.4,2.189 5.05,5.89 11.99,1.726 0.53,-0.382 1.24,-0.057 1.32,0.548 z"
       fill="#1a1a1a"
       id="path238" />
    <path
       d="m 994.82528,635.059 38.69802,-0.989 0.07,2.403 -38.70102,0.989 z"
       fill="#ffffff"
       id="path240" />
    <path
       d="m 1015.1933,628.714 3.56,6.559 -1.09,0.56 -3.56,-6.56 z"
       fill="#ffffff"
       id="path242" />
    <path
       d="m 1010.9233,630.351 2.65,4.876 -1.1,0.559 -2.64,-4.876 z"
       fill="#ffffff"
       id="path244" />
    <path
       d="m 1034.6033,545.483 -2.51,71.157 -17.53,0.483 0.08,-72.344 c -0.02,-5.211 4.66,-9.455 10.22,-9.359 5.77,0.103 10.24,4.77 9.74,10.063 z"
       fill="#1a1a1a"
       id="path246" />
    <path
       d="m 1055.8033,445.346 -0.14,5.974 -0.09,2.295 -0.28,7.003 -0.09,2.181 -0.28,7.002 -0.09,2.181 -0.18,7.007 -0.09,2.296 -0.28,7.002 -0.09,2.181 -0.28,7.003 -0.09,2.181 -0.28,7.002 -0.09,2.181 -0.18,7.007 43.72,1.764 0.7,-6.986 0.19,-2.177 0.69,-6.986 0.19,-2.176 0.7,-6.986 0.29,-2.173 0.7,-6.986 0.19,-2.292 0.69,-6.985 0.2,-2.177 0.69,-6.986 0.19,-2.177 0.69,-6.986 0.2,-2.291 0.63,-5.494 -3.02,-1.617 -4.65,-2.372 -9.89,-5.113 -8.03,-0.094 -8.12,-0.558 -8.53,4.37 -4.1,2.02 z"
       fill="#d2d2d1"
       id="path248" />
    <path
       d="m 1077.9333,448.653 c 4.94,0.199 9.13,-4.116 9.36,-9.626 l 0.85,-21.122 -17.9,-0.722 -0.86,21.237 c -0.22,5.395 3.61,10.034 8.55,10.233 z"
       fill="#de8678"
       id="path250" />
    <path
       d="m 1087.8133,420.995 c 0,0 -5.29,13.699 -10.93,12.897 -8.61,-1.152 -6.69,-13.033 -6.69,-13.033 0,0 3.02,7.021 8.37,7.237 5.86,0.236 9.25,-7.101 9.25,-7.101 z"
       fill="#b36f64"
       id="path252" />
    <path
       d="m 1091.7433,413.106 2.36,-12.323 c 1.39,-6.383 -4.85,-10.084 -8.76,-10.242 l -13.38,-0.539 c -4.11,-0.166 -9.08,2.967 -7.32,10.397 l 0.79,11.07 z"
       fill="#1a1a1a"
       id="path254" />
    <path
       d="m 1068.3933,414.923 c -2.57,2.426 -7.74,-7.326 -5.27,-9.871 2.47,-2.545 4.46,1.675 4.46,1.675 l 0.27,3.69 0.58,3.473 0.16,1.041 z"
       fill="#e88e85"
       id="path256" />
    <path
       d="m 1089.2533,416.109 c 2.9,2.302 8.55,-7.588 5.67,-10.12 -2.89,-2.531 -4.82,1.876 -4.82,1.876 l -1.06,3.406 0.15,3.801 -0.24,1.025 z"
       fill="#de8678"
       id="path258" />
    <path
       d="m 1090.1533,411.662 c 0.1,0.004 0.21,-0.106 0.21,-0.106 1.36,-2.935 3.08,-2.176 3.08,-2.176 0.1,0.004 0.31,0.013 0.31,-0.217 0.01,-0.115 0.02,-0.344 -0.19,-0.353 0,0 -2.13,-0.89 -3.81,2.491 -0.1,0.111 -0.01,0.345 0.09,0.349 0.21,0.008 0.21,0.008 0.31,0.012 z"
       fill="#d26665"
       id="path260" />
    <path
       d="m 1091.7333,413.336 c 0.1,0.004 0.1,0.004 0.21,-0.107 0.44,-0.557 0.67,-1.237 0.59,-1.816 -0.16,-1.156 -1.17,-1.771 -1.26,-1.89 -0.1,-0.119 -0.31,-0.013 -0.42,0.098 -0.11,0.111 -0.01,0.344 0.08,0.463 0,0 0.91,0.612 0.98,1.419 0.08,0.464 -0.14,0.915 -0.47,1.361 -0.11,0.111 -0.12,0.34 -0.02,0.459 0.21,0.009 0.21,0.009 0.31,0.013 z"
       fill="#d26665"
       id="path262" />
    <path
       d="m 1065.3033,402.036 c -0.26,6.314 0.25,11.738 0.92,15.56 0.56,3.817 2.49,7.114 5.28,9.411 l 0.5,0.366 c 3,2.305 6.91,2.578 10.19,0.525 3.27,-2.052 5.58,-5.524 6.46,-9.512 1.53,-7.297 1.96,-15.443 1.96,-15.443 0,0 1.77,-15.681 -11.83,-15.885 -13.69,-0.208 -13.48,14.978 -13.48,14.978 z"
       fill="#de8678"
       id="path264" />
    <path
       d="m 1065.8133,384.119 c 4.46,-3.269 13.01,-0.51 17.54,2.088 -0.04,-1.612 0.78,-1.349 0.78,-1.349 8.13,2.743 5.68,9.888 5.68,9.888 0,0 0,0 -0.11,-0.004 0.74,2.099 1.69,6.622 0.35,14.501 0,0 -1.82,-8.697 -1.71,-13.867 -3.68,1.692 -13.83,5.536 -20.21,2.864 -0.8,4.337 -2.78,10.007 -2.78,10.007 -0.51,-5.195 -0.05,-8.856 0.57,-11.361 -0.4,-0.361 -0.8,-0.722 -1.09,-1.079 0,0 -5.28,-7.111 0.98,-11.688 z"
       fill="#1a1a1a"
       id="path266" />
    <path
       d="m 1098.3033,403.484 -0.43,0.442 c 0,0 -3.55,3.596 -11.33,-2.697 -7.78,-6.293 -17.36,0.311 -22.09,0.121 -10.18,-0.526 -3.88,-14.7 1.7,-17.58 5.57,-2.879 18.21,-2.465 23.32,1.075 3.21,2.2 4.57,6.739 8.56,10.004 2.59,2.174 2.74,6.32 0.27,8.635 z"
       fill="#1a1a1a"
       id="path268" />
    <path
       d="m 985.68128,518.414 c 0.624,-2.179 0.241,-3.4 0.241,-3.4 1.383,-1.243 1.583,-3.477 0.421,-5.051 l -0.876,-1.035 c -1.146,-1.461 -3.045,-1.653 -4.342,-0.539 l -0.102,0.015 c 0,0 -4.408,1.907 -8.441,6.431 -5.195,5.85 -5.041,11.283 -3.235,12.998 1.687,1.615 8.142,-4.88 10.499,-7.307 l -1.024,3.745 c -0.138,0.484 0.045,1.038 0.4,1.335 0.354,0.297 0.982,0.324 1.341,-0.076 l 2.818,-2.841 c 1.06,-1.312 1.9,-2.709 2.3,-4.275 z"
       fill="#de8678"
       id="path270" />
    <path
       d="m 985.90828,514.9 37.04502,-26.776 c 3.31,-2.33 3.83,-7.396 1.27,-10.743 -2.41,-3.021 -6.43,-3.49 -9.19,-1.005 l -33.93802,31.786 z"
       fill="#de8678"
       id="path272" />
    <path
       d="m 1054.6433,445.535 c -9.58,7.537 -31.94,25.087 -41.8,32.795 -2.74,2.153 -3.43,6.259 -1.65,9.549 1.91,3.496 5.9,4.614 8.98,2.629 l 44.65,-29.358 c 3.95,-2.966 4.66,-9.18 1.64,-13.521 -2.98,-4.114 -8.18,-5.004 -11.82,-2.094 z"
       fill="#de8678"
       id="path274" />
    <path
       d="m 1066.4633,463.762 c 4.01,-4.849 3.6,-12.603 -0.95,-17.241 -4.03,-4.149 -9.95,-4.434 -14.03,-1.091 l -17.78,13.528 12.66,20.409 17.51,-13.244 c 0.93,-0.643 1.83,-1.398 2.59,-2.361 z"
       fill="#d2d2d1"
       id="path276" />
    <path
       d="m 1053.5433,506.657 -0.09,2.181 44.24,1.785 0.19,-2.177 z"
       fill="#1a1a1a"
       id="path278" />
    <path
       d="m 1053.9133,497.474 -0.09,2.181 44.75,1.806 0.19,-2.177 z"
       fill="#1a1a1a"
       id="path280" />
    <path
       d="m 1054.2833,488.289 -0.09,2.181 45.27,1.827 0.29,-2.173 z"
       fill="#1a1a1a"
       id="path282" />
    <path
       d="m 1054.6533,478.993 -0.09,2.296 45.89,1.851 0.19,-2.291 z"
       fill="#1a1a1a"
       id="path284" />
    <path
       d="m 1054.9233,469.805 -0.09,2.181 46.5,1.876 0.19,-2.176 z"
       fill="#1a1a1a"
       id="path286" />
    <path
       d="m 1055.2933,460.618 -0.09,2.181 47.02,1.897 0.19,-2.176 z"
       fill="#1a1a1a"
       id="path288" />
    <path
       d="m 1055.6633,451.322 -0.09,2.296 47.53,1.918 0.2,-2.292 z"
       fill="#1a1a1a"
       id="path290" />
    <path
       d="m 1112.4633,540.017 c 1.81,-0.922 2.97,-0.75 2.97,-0.75 0.86,-1.565 2.74,-2.167 4.35,-1.189 l 1.1,0.683 c 1.42,0.85 2,2.665 1.22,4.18 l -0.03,0.14 c 0,0 -0.94,4.705 -4.26,9.345 -4.28,6.026 -9.07,6.868 -10.77,5.34 -1.65,-1.438 2.92,-8.816 4.62,-11.576 l -3.11,1.54 c -0.35,0.202 -0.86,0.136 -1.15,-0.172 -0.34,-0.398 -0.37,-0.857 -0.12,-1.239 l 2.04,-3.192 c 0.73,-1.375 1.76,-2.441 3.14,-3.11 z"
       fill="#de8778"
       id="path292" />
    <path
       d="m 1115.4333,539.266 17.3,-40.989 c 1.55,-3.629 5.81,-4.997 9.18,-3.001 3.04,1.829 4.11,5.74 2.39,8.871 l -22.25,38.703 z"
       fill="#de8778"
       id="path294" />
    <path
       d="m 1108.4933,449.433 c 7.97,10.794 26.44,35.564 34.61,46.506 2.18,2.985 2.08,7.15 -0.38,9.487 -2.64,2.438 -6.78,2.035 -9.44,-0.945 l -38.07,-44.259 c -3.31,-4.326 -2.73,-10.353 1.24,-13.158 3.74,-2.803 8.99,-1.71 12.04,2.369 z"
       fill="#de8778"
       id="path296" />
    <path
       d="m 1093.2133,460.044 c -3.2,-5.983 -1.71,-12.924 3.37,-15.441 4.49,-2.309 10.2,-0.419 13.69,4.206 l 15.15,18.989 -16.54,12.132 -13.49,-16.901 c -0.84,-0.843 -1.55,-1.888 -2.18,-2.985 z"
       fill="#d2d2d1"
       id="path298" />
    <path
       d="m 1071.6333,419.038 c 0,0 0.13,1.979 4.94,2.44 0,0 4.03,0.405 4.25,-1.726 0,0 -4.59,-5.817 -9.19,-0.714 z"
       fill="#ffffff"
       id="path300" />
    <path
       d="m 1061.8433,623.476 c -1.64,-1.379 -3.3,-2.945 -3.81,-4.995 -0.22,-0.886 -0.21,-1.811 -0.09,-2.715 0.21,-1.698 0.8,-3.332 1.69,-4.785 l -9.27,-7.868 c -0.7,0.661 -1.79,0.734 -2.58,0.113 l -1.52,-1.204 c -0.86,-0.669 -1,-1.897 -0.33,-2.725 l 4.36,-5.487 c 0.67,-0.847 1.9,-0.982 2.74,-0.305 l 1.53,1.204 c 0.84,0.663 0.98,1.859 0.35,2.705 l 10.18,8.638 c 2.41,-1.367 4.98,-2.283 7.68,-1.54 1.67,0.453 4.95,2.448 6.14,3.799 0.46,0.523 0.64,1.294 1,1.885 0.21,0.327 1.38,2.019 1.84,1.925 -1.67,0.35 -3.38,0.458 -5.07,0.326 2.49,1.593 4.89,3.35 7.17,5.227 -4.03,-0.136 -7.98,-1.129 -11.9,-2.124 -0.92,2.765 -1.05,5.771 -0.37,8.605 -1.56,-0.09 -3.12,-0.29 -4.66,-0.607 -0.34,1.169 -0.49,2.389 -0.46,3.615 -1.57,-1.195 -3.11,-2.424 -4.62,-3.687 z"
       fill="#72935c"
       id="path302" />
    <path
       d="m 1058.0433,618.467 c -0.22,-0.885 -0.21,-1.811 -0.09,-2.715 0.21,-1.697 0.8,-3.332 1.69,-4.785 l -9.27,-7.868 c -0.7,0.662 -1.79,0.734 -2.58,0.114 l -1.52,-1.204 c -0.74,-0.584 -0.95,-1.591 -0.54,-2.397 0.06,0.03 0.11,0.067 0.17,0.11 0.4,0.306 0.51,1.016 0.96,1.372 0.49,0.393 1.12,0.634 1.74,0.598 1.46,-0.066 2.68,-1.119 3.52,-2.3 -0.42,0.864 -0.82,1.894 -0.37,2.744 0.15,0.271 0.37,0.482 0.58,0.699 1.6,1.587 3.23,3.166 4.83,4.753 0.74,0.725 1.51,1.48 2.48,1.869 0.97,0.389 2.19,0.325 2.9,-0.408 -0.6,1.288 -1.19,2.595 -1.48,3.987 -0.28,1.398 -0.23,2.9 0.44,4.161 0.48,0.908 1.27,1.638 2.14,2.171 2,1.2 4.5,1.352 6.75,0.776 0.25,-0.074 0.51,-0.147 0.77,-0.234 -0.05,1.422 0.08,2.85 0.42,4.226 -1.57,-0.091 -3.13,-0.291 -4.67,-0.607 -0.33,1.169 -0.49,2.389 -0.45,3.615 -1.58,-1.183 -3.12,-2.412 -4.62,-3.681 -1.63,-1.38 -3.3,-2.932 -3.8,-4.996 z"
       fill="#557c4c"
       id="path304" />
    <path
       opacity="0.22"
       d="m 1069.8133,605.88 c 1.41,-0.103 2.86,0.3 4.03,1.125 0.54,0.385 1.03,0.855 1.37,1.434 0.23,0.384 0.38,0.892 0.12,1.249 -0.2,0.271 -0.59,0.362 -0.93,0.285 -0.34,-0.072 -0.62,-0.28 -0.89,-0.508 -0.86,-0.72 -1.66,-1.642 -2.76,-1.872 -1.23,-0.257 -2.42,0.467 -3.59,0.883 -0.25,0.092 -0.53,0.167 -0.8,0.093 -1.21,-0.386 0.37,-1.639 0.77,-1.866 0.82,-0.479 1.74,-0.757 2.68,-0.823 z"
       fill="#ffffff"
       id="path306" />
    <path
       opacity="0.22"
       d="m 1051.6133,593.839 c 0.33,0.007 0.66,0.297 0.65,0.638 0,0.36 -0.32,0.609 -0.57,0.843 -1.07,0.965 -1.66,2.349 -2.65,3.394 -0.13,0.133 -0.28,0.267 -0.45,0.331 -0.19,0.058 -0.41,0.022 -0.51,-0.135 -0.07,-0.345 0.13,-0.68 0.33,-0.964 0.35,-0.52 2.56,-4.398 3.2,-4.107 z"
       fill="#ffffff"
       id="path308" />
    <path
       d="m 1094.1033,630.256 c 1.99,-1.288 3.92,-2.669 5.75,-4.169 -2.16,-0.268 -4.36,0.506 -6.51,0.135 -1.25,-0.218 -2.54,-0.813 -3.74,-0.429 0.35,-0.784 0.87,-1.51 1.5,-2.092 -0.49,-0.689 -1.36,-1.113 -2.21,-1.056 0.78,-1.77 1.69,-3.481 2.73,-5.106 -1.53,-0.278 -3.04,-0.66 -4.51,-1.134 l 14.69,-6.602 c 1.09,-0.483 2.37,-0.003 2.87,1.071 l 5.82,12.647 c 0.49,1.087 0.02,2.351 -1.06,2.84 l -13.45,6.03 c -0.54,-0.777 -1.13,-1.533 -1.88,-2.135 z"
       fill="#72935c"
       id="path310" />
    <path
       d="m 1096.0233,632.389 c -0.56,-0.783 -1.15,-1.539 -1.9,-2.141 1.12,-0.722 2.21,-1.475 3.27,-2.253 1.07,0.025 2.14,0.069 3.18,-0.174 1.11,-0.253 2.13,-0.798 3.11,-1.379 1.21,-0.713 2.45,-1.568 3.02,-2.854 0.82,-1.862 -0.03,-4.003 -0.62,-5.967 -0.75,-2.492 -1.21,-5.277 -3.1,-7.116 -0.3,-0.292 -0.65,-0.561 -1.03,-0.76 1.06,-0.405 2.27,0.091 2.75,1.127 l 5.82,12.647 c 0.5,1.087 0.02,2.351 -1.06,2.84 z"
       fill="#557c4c"
       id="path312" />
    <path
       opacity="0.22"
       d="m 1092.9733,615.618 c 1.47,-0.786 3.13,-1.2 4.59,-2.005 0.55,-0.303 1.08,-0.663 1.69,-0.75 0.61,-0.086 1.35,0.234 1.48,0.84 0.11,0.522 -0.29,1.032 -0.77,1.274 -0.48,0.237 -1.03,0.276 -1.57,0.347 -1.29,0.201 -2.54,0.709 -3.6,1.474 -0.33,0.244 -0.67,0.513 -1.08,0.612 -0.5,0.121 -1,-0.137 -1.24,-0.572 -0.3,-0.561 -0.01,-0.951 0.5,-1.22 z"
       fill="#ffffff"
       id="path314" />
    <path
       opacity="0.22"
       d="m 1102.5133,612.007 c 0.42,0.126 0.7,0.521 0.81,0.934 0.08,0.318 0.07,0.659 -0.1,0.942 -0.17,0.27 -0.52,0.443 -0.84,0.346 -1.01,-0.311 -1.32,-2.651 0.13,-2.222 z"
       fill="#ffffff"
       id="path316" />
    <g
       clip-path="url(#clip3)"
       id="g418"
       transform="translate(-1.3067151)">
      <path
         d="m 1175.85,700.102 c 0,0 7.26,2.249 8.69,3.468 1.41,1.215 4.59,7.452 4.59,7.452 0,0 5.45,-3.65 10.81,-4.054 5.36,-0.405 10.04,-1.178 10.04,-1.178 l 8.36,-6.767 -9.74,-5.586 -19.7,1.177 z"
         fill="#f4dfc6"
         id="path318" />
      <path
         d="m 1180.55,701.707 c 0,0 7.16,2.358 8.08,3.122 0.92,0.765 4.18,4.18 4.4,4.085 0.21,-0.094 3.93,-1.423 3.93,-1.423 l 7.65,-0.965 2.3,-0.285 1.64,-4.51 8.65,-1.791 1.13,-0.915 -3.07,-1.962 z"
         fill="#dbc8b9"
         id="path320" />
      <path
         d="m 1175.85,700.101 19.22,-10.056 c 0,0 9.32,0.269 13.48,1.296 4.15,1.031 14.07,5.878 14.07,5.878 0,0 -14.4,4.184 -14.61,4.246 -0.23,0.058 -3.06,5.605 -5.1,6.612 -2.04,1.007 -4.26,2 -4.26,2 0,0 -8.21,-5.41 -12.29,-6.6 -4.11,-1.188 -10.51,-3.376 -10.51,-3.376 z"
         fill="#ffe9cc"
         id="path322" />
      <path
         d="m 1195.76,690.734 -4.72,2.536 10.57,1.445 4.14,-3.213 z"
         fill="#fffae3"
         id="path324" />
      <path
         d="m 1190.67,693.538 -12.97,6.313 4.27,1.077 12.09,-6.794 z"
         fill="#d8c5b2"
         id="path326" />
      <path
         d="m 1183.35,701.38 12.43,-7.113 4.12,0.532 -12.38,7.93 z"
         fill="#d8c5b2"
         id="path328" />
      <path
         d="m 1189.62,703.407 12.08,-7.954 6.05,-3.543 3.32,1.08 c 0,0 -5.06,2.325 -6.91,3.832 -1.85,1.511 -5.74,3.868 -7.3,5.05 -1.56,1.182 -4.25,3.139 -4.25,3.139 z"
         fill="#d8c5b2"
         id="path330" />
      <path
         d="m 1199.59,702.636 4.47,-4.678 c 0,0 6.68,-4.548 7.98,-4.2 1.29,0.354 6.05,2.727 6.05,2.727 l -10.83,3.524 -3.32,4.54 z"
         fill="#d8c5b2"
         id="path332" />
      <path
         d="m 1193.74,705.455 4.88,3.369 c 0,0 2.59,-1.336 3.5,-1.931 0.92,-0.596 1.46,-1.181 1.46,-1.181 l -4.92,-3.142 z"
         fill="#fffae3"
         id="path334" />
      <path
         d="m 1188.32,694.473 c 0.06,0.018 9.76,2.019 9.76,2.019 l 0.8,-0.385 -9.89,-2.026 z"
         fill="#ffe9cc"
         id="path336" />
      <path
         d="m 1189.38,694.164 c 0.06,-0.032 8.72,1.783 8.72,1.783 l 1.79,-1.151 -9.23,-1.262 z"
         fill="#d8c5b2"
         id="path338" />
      <path
         d="m 1187.41,694.712 c 0.07,0.033 4.43,0.904 4.43,0.904 l -0.52,0.187 -4.28,-1.016 z"
         fill="#ffe9cc"
         id="path340" />
      <path
         d="m 1185.04,696.024 c 0.06,0.032 4.42,0.904 4.42,0.904 l -0.51,0.187 -4.29,-1.017 z"
         fill="#ffe9cc"
         id="path342" />
      <path
         d="m 1192.26,695.783 c 0.07,0.037 5.9,1.216 5.9,1.216 l -0.74,0.135 -5.69,-1.317 z"
         fill="#ffe9cc"
         id="path344" />
      <path
         d="m 1190.03,697.48 c 0.08,0.036 5.9,1.216 5.9,1.216 l -0.73,0.134 -5.69,-1.317 z"
         fill="#ffe9cc"
         id="path346" />
      <path
         d="m 1189.42,697.911 c 0.08,0.036 5.91,1.216 5.91,1.216 l -0.74,0.134 -5.7,-1.314 z"
         fill="#ffe9cc"
         id="path348" />
      <path
         d="m 1186.36,699.374 c 0.07,0.037 5.9,1.216 5.9,1.216 l -0.74,0.135 -5.69,-1.317 z"
         fill="#ffe9cc"
         id="path350" />
      <path
         d="m 1186.06,699.736 c 0.08,0.036 5.91,1.215 5.91,1.215 l -0.74,0.135 -5.69,-1.31 z"
         fill="#ffe9cc"
         id="path352" />
      <path
         d="m 1185.19,700.24 c 0.07,0.037 5.9,1.216 5.9,1.216 l -0.74,0.135 -5.69,-1.317 z"
         fill="#ffe9cc"
         id="path354" />
      <path
         d="m 1184.7,696.393 c 0.07,0.032 4.43,0.904 4.43,0.904 l -0.52,0.187 -4.28,-1.017 z"
         fill="#ffe9cc"
         id="path356" />
      <path
         d="m 1182.76,697.342 c 0.07,0.032 4.43,0.904 4.43,0.904 l -0.52,0.187 -4.28,-1.017 z"
         fill="#ffe9cc"
         id="path358" />
      <path
         d="m 1181.26,698.01 c 0.07,0.032 4.43,0.904 4.43,0.904 l -0.52,0.187 -4.28,-1.017 z"
         fill="#ffe9cc"
         id="path360" />
      <path
         d="m 1179.74,698.862 c 0.06,0.033 4.87,0.938 4.87,0.938 l -0.58,0.18 -4.71,-1.046 z"
         fill="#ffe9cc"
         id="path362" />
      <path
         d="m 1205.87,692.523 c 0.08,0.029 3.68,1.562 3.68,1.562 l 0.3,-0.368 -3.58,-1.435 z"
         fill="#ffe9cc"
         id="path364" />
      <path
         d="m 1203.89,693.669 c 0.07,0.029 3.56,1.773 3.56,1.773 l 0.35,-0.329 -3.46,-1.639 z"
         fill="#ffe9cc"
         id="path366" />
      <path
         d="m 1203.18,694.048 c 0.08,0.029 3.56,1.773 3.56,1.773 l 0.35,-0.329 -3.45,-1.639 z"
         fill="#ffe9cc"
         id="path368" />
      <path
         d="m 1200.84,695.476 c 0.08,0.03 3.56,1.774 3.56,1.774 l 0.36,-0.329 -3.46,-1.639 z"
         fill="#ffe9cc"
         id="path370" />
      <path
         d="m 1198.75,696.706 c 0.12,0.035 3.75,1.845 3.75,1.845 l -0.12,0.167 -3.84,-1.918 z"
         fill="#ffe9cc"
         id="path372" />
      <path
         d="m 1197.8,697.168 c 0.12,0.035 3.76,1.845 3.76,1.845 l -0.13,0.167 -3.84,-1.918 z"
         fill="#ffe9cc"
         id="path374" />
      <path
         d="m 1196.28,698.308 c 0.12,0.036 3.76,1.846 3.76,1.846 l -0.13,0.167 -3.84,-1.918 z"
         fill="#ffe9cc"
         id="path376" />
      <path
         d="m 1195.83,698.664 c 0.12,0.035 3.75,1.845 3.75,1.845 l -0.12,0.167 -3.84,-1.918 z"
         fill="#ffe9cc"
         id="path378" />
      <path
         d="m 1193.13,700.467 c 0.12,0.035 3.75,1.845 3.75,1.845 l -0.12,0.167 -3.84,-1.918 z"
         fill="#ffe9cc"
         id="path380" />
      <path
         d="m 1192.59,700.905 c 0.11,0.035 3.75,1.845 3.75,1.845 l -0.13,0.168 -3.84,-1.919 z"
         fill="#ffe9cc"
         id="path382" />
      <path
         d="m 1190.41,702.411 c 0.11,0.035 3.75,1.845 3.75,1.845 l -0.13,0.168 -3.84,-1.919 z"
         fill="#ffe9cc"
         id="path384" />
      <path
         d="m 1209.67,694.314 c 0,0 7.1,3.113 7.04,3.157 -0.05,0.043 -0.95,0.654 -1.02,0.649 -0.08,-0.004 -7.08,-3.194 -7.08,-3.194 z"
         fill="#ffe9cc"
         id="path386" />
      <path
         d="m 1207.08,695.488 c 0.2,0.065 6.41,2.82 6.41,2.82 l -0.32,0.134 -6.32,-2.732 z"
         fill="#ffe9cc"
         id="path388" />
      <path
         d="m 1209.17,699.912 0.57,-0.23 -4.89,-2.662 z"
         fill="#ffe9cc"
         id="path390" />
      <path
         d="m 1201.84,699.647 c 0.09,0.02 5.1,2.072 5.1,2.072 l 0.31,-0.314 -5.17,-1.961 z"
         fill="#ffe9cc"
         id="path392" />
      <path
         d="m 1200.38,700.938 5.78,2.84 0.22,-0.555 -5.62,-2.594 z"
         fill="#ffe9cc"
         id="path394" />
      <path
         d="m 1195.43,704.978 c 0.02,-0.174 0.18,-0.307 0.4,-0.358 0.39,-0.077 0.95,0.088 1.26,-0.065 0.19,-0.096 0.24,-0.286 0.39,-0.413 0.11,-0.093 0.26,-0.155 0.45,-0.162 0.22,-0.016 0.47,0.031 0.68,0.008 0.33,-0.034 0.6,-0.218 0.96,-0.108 0.12,0.04 0.25,0.13 0.28,0.221 0.03,0.098 -0.07,0.163 -0.11,0.243 -0.09,0.145 0.02,0.344 0.02,0.511 -0.01,0.203 -0.19,0.36 -0.46,0.395 -0.17,0.021 -0.37,-0.004 -0.51,0.051 -0.3,0.097 -0.24,0.414 -0.38,0.624 -0.15,0.237 -0.56,0.324 -0.98,0.324 -0.33,0.002 -0.68,-0.044 -1.01,-0.178 -0.57,-0.197 -1.05,-0.715 -0.99,-1.093 z"
         fill="#ea9c5c"
         id="path396" />
      <path
         d="m 1198.03,706.813 c 0.02,-0.12 0.12,-0.218 0.29,-0.251 0.28,-0.055 0.67,0.061 0.88,-0.047 0.14,-0.067 0.17,-0.201 0.27,-0.292 0.07,-0.066 0.19,-0.102 0.32,-0.116 0.16,-0.005 0.33,0.019 0.47,0.01 0.24,-0.022 0.43,-0.15 0.68,-0.071 0.09,0.027 0.18,0.093 0.19,0.155 0.02,0.068 -0.05,0.114 -0.07,0.17 -0.05,0.1 0.02,0.24 0.01,0.358 0,0.142 -0.13,0.252 -0.32,0.277 -0.12,0.018 -0.25,-10e-4 -0.36,0.039 -0.2,0.067 -0.16,0.298 -0.25,0.439 -0.12,0.164 -0.39,0.226 -0.69,0.227 -0.23,0 -0.48,-0.033 -0.71,-0.128 -0.41,-0.145 -0.74,-0.504 -0.71,-0.77 z"
         fill="#ea9c5c"
         id="path398" />
      <path
         d="m 1198.53,704.376 c -0.11,0.107 -0.27,0.184 -0.43,0.249 -0.79,0.371 -1.51,0.81 -2.14,1.304 -0.07,0.053 -0.13,0.11 -0.24,0.119 -0.11,0.015 -0.25,-0.033 -0.31,-0.112 -0.12,-0.164 0.38,-0.231 0.5,-0.288 0.23,-0.09 0.43,-0.195 0.63,-0.312 0.4,-0.23 0.77,-0.483 1.19,-0.69 0.26,-0.103 0.51,-0.205 0.8,-0.27 z"
         fill="#ad7145"
         id="path400" />
      <path
         d="m 1199.77,706.795 c -0.06,0.057 -0.15,0.101 -0.24,0.139 -0.43,0.203 -0.83,0.443 -1.19,0.715 -0.03,0.026 -0.07,0.06 -0.13,0.064 -0.05,0.011 -0.13,-0.012 -0.17,-0.057 -0.06,-0.089 0.22,-0.126 0.28,-0.158 0.12,-0.05 0.25,-0.107 0.35,-0.173 0.22,-0.122 0.43,-0.267 0.66,-0.378 0.14,-0.066 0.29,-0.115 0.44,-0.152 z"
         fill="#ad7145"
         id="path402" />
      <path
         d="m 1194.93,705.637 c 0.18,0.061 0.37,0.115 0.54,0.203 0.28,0.145 0.46,0.373 0.66,0.564 0.25,0.229 0.54,0.435 0.87,0.601 0.3,0.153 0.63,0.276 0.93,0.422 0.5,0.248 0.94,0.587 1.25,0.956 -0.29,-0.135 -0.42,-0.418 -0.72,-0.539 -0.19,-0.072 -0.39,-0.059 -0.58,-0.124 -0.27,-0.094 -0.43,-0.314 -0.65,-0.47 -0.3,-0.199 -0.69,-0.269 -0.97,-0.478 -0.12,-0.093 -0.2,-0.205 -0.34,-0.281 -0.12,-0.071 -0.26,-0.101 -0.4,-0.152 -0.18,-0.06 -0.34,-0.152 -0.49,-0.257 -0.13,-0.097 -0.23,-0.206 -0.37,-0.293 -0.21,-0.134 -0.47,-0.21 -0.64,-0.363 0.06,-0.032 0.18,-0.114 0.26,-0.109 0.1,0.005 0.05,0.002 0.13,0.05 0.17,0.114 0.31,0.197 0.52,0.27 z"
         fill="#ea9c5c"
         id="path404" />
      <path
         d="m 1196.88,691.62 c -0.05,0.068 -0.02,0.159 0.01,0.25 0.03,0.091 0.07,0.186 0.04,0.263 -0.03,0.091 -0.15,0.141 -0.29,0.154 -0.13,0.014 -0.28,0.005 -0.41,0.012 -0.33,0.008 -0.62,0.11 -0.81,0.277 -0.07,0.067 -0.13,0.149 -0.13,0.245 0.02,0.23 0.38,0.454 0.71,0.517 0.34,0.062 0.63,0.005 0.9,-0.05 0.28,-0.056 0.58,-0.109 0.91,-0.04 0.19,0.04 0.37,0.119 0.56,0.173 0.32,0.097 0.65,0.127 0.94,0.077 0.28,-0.044 0.52,-0.202 0.44,-0.424 -0.06,-0.15 -0.24,-0.3 -0.25,-0.447 0,-0.135 0.16,-0.193 0.31,-0.256 0.14,-0.06 0.29,-0.154 0.24,-0.286 -0.05,-0.113 -0.21,-0.216 -0.38,-0.247 -0.17,-0.031 -0.31,-0.015 -0.44,0.017 -0.29,0.065 -0.58,0.18 -0.92,0.106 -0.21,-0.048 -0.42,-0.149 -0.61,-0.168 -0.1,-0.013 -0.18,0.004 -0.29,-0.021 -0.19,-0.039 -0.37,-0.364 -0.53,-0.152 z"
         fill="#98dbed"
         id="path406" />
      <path
         d="m 1197.84,692.584 c -0.13,0.078 -0.16,0.24 -0.02,0.366 0.09,0.073 0.21,0.12 0.33,0.148 0.16,0.045 0.31,0.079 0.47,0.106 0.23,0.043 0.5,0.048 0.62,-0.066 0.12,-0.115 0.03,-0.334 -0.18,-0.468 -0.32,-0.201 -0.99,-0.215 -1.22,-0.086 z"
         fill="#ea9c5c"
         id="path408" />
      <path
         d="m 1201.02,691.575 c -0.16,0.006 -0.29,0.058 -0.33,0.163 -0.06,0.161 0.15,0.39 0.07,0.554 -0.08,0.17 -0.44,0.198 -0.42,0.393 0.01,0.075 0.09,0.151 0.17,0.213 0.2,0.158 0.5,0.24 0.73,0.207 0.22,-0.03 0.37,-0.15 0.59,-0.168 0.21,-0.017 0.46,0.055 0.67,0.046 0.24,-0.014 0.39,-0.13 0.49,-0.271 0.11,-0.171 0.12,-0.431 -0.13,-0.607 -0.17,-0.121 -0.41,-0.156 -0.63,-0.204 -0.41,-0.111 -0.81,-0.341 -1.21,-0.326 z"
         fill="#98dbed"
         id="path410" />
      <path
         d="m 1193.66,692.362 c 0,0.032 0,0.064 0.03,0.102 0.08,0.076 0.23,0.063 0.34,0.127 0.07,0.043 0.1,0.109 0.1,0.159 0.01,0.058 0,0.111 0.02,0.158 0.01,0.018 0.02,0.041 0.05,0.061 0.02,0.015 0.06,0.021 0.08,0.022 0.24,0.018 0.44,-0.074 0.49,-0.225 0.03,-0.116 -0.01,-0.25 0.06,-0.349 0.1,-0.13 0.38,-0.146 0.46,-0.291 0.03,-0.037 0.02,-0.095 -0.03,-0.137 -0.04,-0.031 -0.09,-0.059 -0.14,-0.069 -0.33,-0.08 -0.68,0.078 -0.96,0.129 -0.27,0.041 -0.47,0.1 -0.5,0.313 z"
         fill="#98dbed"
         id="path412" />
      <path
         d="m 1201.81,692.539 c 0.14,0.051 0.27,0.069 0.41,0.081 0.09,0.013 0.19,0.026 0.27,0.009 0.09,-0.016 0.15,-0.062 0.14,-0.131 -0.03,-0.173 -0.59,-0.377 -0.79,-0.389 -0.36,-0.014 -0.39,0.284 -0.03,0.43 z"
         fill="#ea9c5c"
         id="path414" />
      <path
         d="m 1194.27,692.187 c -0.08,-0.008 -0.18,-0.028 -0.25,-0.015 -0.08,0.01 -0.14,0.049 -0.14,0.106 0,0.058 0.06,0.118 0.13,0.161 0.07,0.044 0.16,0.06 0.24,0.068 0.09,0.009 0.17,-0.008 0.23,-0.04 0.06,-0.036 0.08,-0.099 0.04,-0.162 -0.04,-0.063 -0.15,-0.119 -0.23,-0.109 z"
         fill="#ea9c5c"
         id="path416" />
    </g>
    <g
       clip-path="url(#clip4)"
       id="g432"
       transform="translate(-1.3067151)">
      <path
         d="m 789.666,698.072 c 0.767,1.304 2.174,2.092 3.563,2.706 3.969,1.699 8.39,2.305 12.652,1.703 1.381,-0.192 2.755,-0.501 4.137,-0.36 0.109,2.153 -1.368,4.147 -3.206,5.269 -1.838,1.123 -4.011,1.557 -6.14,1.971 -3.61,0.699 -7.198,1.399 -10.808,2.098 -0.281,0.055 -0.595,0.142 -0.71,0.396 -0.104,0.244 0.049,0.539 0.226,0.727 0.584,0.6 1.493,0.748 2.34,0.807 9.556,0.667 19.054,-4.042 25.222,-11.364 -1.006,2.052 -0.105,4.65 1.591,6.188 1.696,1.539 3.986,2.226 6.23,2.665 4.434,0.864 9.063,0.962 13.447,-0.131 0.238,-0.057 0.499,-0.134 0.675,-0.301 0.42,-0.394 0.239,-1.163 -0.224,-1.522 -0.462,-0.359 -1.072,-0.433 -1.65,-0.516 -3.767,-0.532 -7.439,-1.737 -10.792,-3.555 -1.957,-1.063 -3.935,-2.503 -4.507,-4.639 -0.3,-1.117 -0.18,-2.295 -0.415,-3.431 -0.246,-1.126 -1.039,-2.302 -2.177,-2.361 -0.504,-0.027 -0.993,0.161 -1.461,0.35 -6.72,2.704 -13.864,5.18 -21.072,4.375 -1.532,-0.168 -3.07,-0.498 -4.491,-1.125 -0.584,-0.266 -1.399,-1.045 -1.976,-1.149 -0.673,-0.141 -0.751,0.684 -0.454,1.199 z"
         fill="#ffeeb6"
         id="path420" />
      <path
         d="m 838.725,707.797 c -0.525,-0.404 -1.187,-0.555 -1.829,-0.661 -2.64,-0.484 -5.377,-0.584 -7.862,-1.611 -2.484,-1.027 -4.717,-3.314 -4.616,-5.997 0.052,-1.406 0.735,-2.738 0.787,-4.144 0.031,-1.053 -0.379,-2.087 -1.043,-2.904 0.017,-0.204 0.045,-0.418 0.083,-0.642 0.153,-0.79 0.562,-1.551 1.241,-1.98 0.678,-0.429 1.656,-0.43 2.22,0.126 0.22,0.212 0.373,0.485 0.592,0.718 0.208,0.222 0.525,0.404 0.818,0.317 0.314,-0.087 0.55,-0.434 0.861,-0.413 -0.058,-0.969 -0.416,-1.926 -1.028,-2.688 -0.083,-0.11 -0.187,-0.221 -0.303,-0.3 -0.169,-0.091 -0.362,-0.119 -0.555,-0.125 -1.727,-0.089 -3.493,0.402 -4.919,1.387 -0.79,0.533 -1.527,1.121 -2.316,1.654 -0.033,0.032 -0.066,0.041 -0.099,0.072 -0.545,-0.093 -1.104,-0.111 -1.581,0.046 -1.107,0.35 -2.104,1.016 -3.037,1.685 -1.076,0.781 -2.101,1.661 -3.209,2.41 -3.301,2.289 -7.386,3.434 -11.409,3.206 -3.959,-0.225 -7.869,-1.729 -11.767,-1.114 0.024,0.667 0.6,1.169 1.137,1.542 2.928,2.03 6.476,3.08 10.023,3.4 3.559,0.31 5.363,-0.384 8.854,-1.076 -4.759,3.262 -7.295,4.727 -13.186,7.34 -2.558,1.131 -8.069,2.177 -7.48,3.711 0.52,0.597 1.387,0.701 2.17,0.737 4.208,0.181 8.42,-0.563 12.434,-1.851 2.56,-0.819 5.063,-1.877 7.247,-3.428 3.699,-2.642 6.243,-6.578 8.603,-10.467 -0.93,1.668 -1.682,3.481 -1.867,5.388 -0.185,1.907 0.25,3.942 1.486,5.411 1.609,1.934 4.242,2.632 6.725,2.992 3.788,0.554 7.667,0.562 11.465,0.041 0.777,-0.103 1.665,-0.332 1.954,-1.043 0.255,-0.615 -0.079,-1.346 -0.594,-1.739 z"
         fill="#efce65"
         id="path422" />
      <path
         d="m 839.345,708.656 c -0.108,-0.337 -0.335,-0.645 -0.608,-0.869 -0.526,-0.404 -1.188,-0.555 -1.829,-0.661 -2.64,-0.484 -5.378,-0.584 -7.862,-1.611 -2.485,-1.027 -4.717,-3.314 -4.617,-5.997 0.052,-1.406 0.736,-2.738 0.788,-4.144 0.031,-1.053 -0.38,-2.087 -1.043,-2.904 0.016,-0.204 0.044,-0.418 0.083,-0.642 0.152,-0.79 0.561,-1.551 1.24,-1.98 0.679,-0.429 1.657,-0.43 2.221,0.126 0.219,0.211 0.372,0.485 0.591,0.718 0.209,0.222 0.526,0.404 0.818,0.317 0.315,-0.087 0.55,-0.434 0.861,-0.413 10e-4,-0.021 10e-4,-0.021 0.002,-0.043 -0.566,-0.115 -1.077,-0.303 -1.244,-0.814 -0.06,-0.174 -0.076,-0.368 -0.146,-0.531 -0.171,-0.404 -0.66,-0.57 -1.1,-0.617 -0.942,-0.095 -1.908,0.207 -2.624,0.818 -0.507,0.434 -0.889,1.002 -1.397,1.459 -0.497,0.446 -1.205,0.777 -1.833,0.574 0.749,0.465 1.307,1.235 1.529,2.092 0.414,1.636 -0.397,3.297 -0.843,4.927 -0.314,1.172 -0.446,2.403 -0.364,3.62 0.051,0.83 0.209,1.684 0.704,2.366 0.693,0.936 1.885,1.319 3.016,1.593 3.928,0.923 7.999,0.98 11.976,1.669 0.375,0.066 0.759,0.143 1.065,0.357 0.305,0.214 0.508,0.629 0.379,0.98 0.057,-0.117 0.158,-0.253 0.237,-0.39 z"
         fill="#dbba5e"
         id="path424" />
      <path
         d="m 817.38,694.43 c -5.099,4.939 -12.468,7.063 -19.587,6.863 3.575,0.46 7.253,0.741 10.721,-0.263 3.48,-1.015 6.322,-4.147 8.866,-6.6 z"
         fill="#dbba5e"
         id="path426" />
      <path
         d="m 819.858,694.211 c -0.555,1.314 -1.459,2.456 -2.404,3.533 -5.315,6.102 -12.328,10.71 -20.051,13.145 1.835,-0.639 3.755,-1.232 5.439,-2.23 1.575,-0.937 3.119,-1.908 4.642,-2.922 3.036,-2.04 5.961,-4.288 8.531,-6.912 0.709,-0.729 1.408,-1.491 2.054,-2.265 0.579,-0.691 1.431,-1.512 1.789,-2.349 z"
         fill="#dbba5e"
         id="path428" />
      <path
         opacity="0.34"
         d="m 818.108,691.531 c -1.113,0.587 -1.907,1.625 -2.917,2.365 -0.373,0.268 -0.778,0.502 -1.172,0.747 -0.065,0.041 -0.131,0.081 -0.144,0.156 -0.014,0.118 0.134,0.187 0.242,0.191 0.3,0.031 0.604,-0.088 0.867,-0.251 0.601,-0.335 1.108,-0.792 1.658,-1.204 0.549,-0.412 1.151,-0.768 1.841,-0.853 0.302,-0.033 0.613,-0.012 0.905,-0.099 0.293,-0.088 0.569,-0.326 0.567,-0.638 -0.047,-0.958 -1.323,-0.698 -1.847,-0.414 z"
         fill="#ffffff"
         id="path430" />
    </g>
    <g
       clip-path="url(#clip5)"
       id="g448"
       transform="translate(-1.3067151)">
      <path
         d="m 1331.79,693.825 c -1.67,-0.634 -3.66,-0.386 -5.14,0.62 0.37,0.179 0.73,0.359 1.09,0.552 -1.28,0.868 -1.84,2.646 -1.24,4.066 -1.3,-0.551 -2.72,-0.785 -4.12,-1.006 -0.41,1.296 -0.65,2.647 -0.73,4.012 -0.02,0.234 -0.02,0.496 0.1,0.703 0.11,0.193 0.32,0.303 0.53,0.413 0.95,0.497 1.9,1.007 2.85,1.503 0.11,0.069 0.25,0.138 0.28,0.276 0.03,0.124 -0.06,0.234 -0.13,0.331 -0.72,1.006 -1.44,2.012 -2.16,3.005 -0.12,0.165 -0.24,0.331 -0.27,0.524 -0.03,0.193 0.03,0.4 0.1,0.593 0.42,1.089 1.2,2.04 2.19,2.688 1.01,0.661 2.19,0.992 3.37,1.323 1.67,0.469 3.34,0.938 4.99,1.406 0.44,0.124 0.95,0.235 1.33,0 0.25,-0.165 0.41,-0.441 0.55,-0.717 0.54,-0.978 1.25,-1.874 2.1,-2.633 0.11,-0.096 0.22,-0.193 0.28,-0.33 0.15,-0.345 -0.13,-0.731 -0.38,-1.007 -0.72,-0.772 -1.43,-1.558 -2.15,-2.33 -0.13,-0.137 -0.26,-0.317 -0.19,-0.482 0.06,-0.138 0.23,-0.179 0.37,-0.221 0.68,-0.165 1.4,-0.331 2.08,-0.151 0.34,0.082 0.65,0.248 0.98,0.372 0.79,0.276 1.68,0.262 2.44,-0.055 1.83,-0.745 2.59,-2.799 3.17,-4.632 0.07,-0.221 0.11,-0.483 -0.06,-0.634 -0.07,-0.069 -0.18,-0.083 -0.28,-0.097 -0.56,-0.055 -1.12,0.221 -1.7,0.262 -0.58,0.028 -1.27,-0.427 -1.07,-0.951 0.06,-0.179 0.21,-0.304 0.35,-0.428 0.75,-0.648 1.5,-1.309 2.25,-1.957 0.33,-0.276 0.65,-0.565 0.85,-0.938 0.58,-1.102 -0.18,-2.453 -1.17,-3.239 -0.4,-0.317 -0.88,-0.69 -0.82,-1.186 0.01,-0.179 0.11,-0.345 0.21,-0.51 0.41,-0.689 0.8,-1.365 1.21,-2.054 -1.15,-0.662 -2.67,-0.193 -3.72,0.634 -1.04,0.827 -1.79,1.944 -2.8,2.812 -0.43,-0.606 -0.87,-1.213 -1.06,-1.93 -0.18,-0.716 -0.08,-1.544 0.47,-2.054 0.58,-0.537 1.5,-0.579 2.15,-1.034 -0.28,0.193 -2.15,-0.262 -2.6,-0.275 -0.6,-0.014 -2,-0.221 -2.48,0.193 -0.41,0.358 -0.54,1.544 -0.75,2.026 -0.34,0.882 -0.76,1.737 -1.27,2.537 z"
         fill="#ffe9cc"
         id="path434" />
      <path
         d="m 1343.26,694.68 c -0.39,-0.317 -0.88,-0.69 -0.82,-1.186 0.02,-0.179 0.11,-0.345 0.21,-0.51 0.41,-0.689 0.81,-1.365 1.22,-2.054 -1.16,-0.662 -2.67,-0.193 -3.72,0.634 -1.05,0.827 -1.8,1.944 -2.8,2.812 -0.44,-0.606 -0.88,-1.213 -1.06,-1.93 -0.19,-0.717 -0.09,-1.544 0.46,-2.054 0.46,-0.413 1.11,-0.537 1.67,-0.772 -1.24,-0.083 -3.04,0.11 -3.7,0.896 -0.19,0.221 -0.23,0.51 -0.27,0.786 -0.24,1.792 -0.41,3.819 0.75,5.239 -1.59,-0.083 -3.17,-0.166 -4.75,-0.248 0.67,0.675 1.41,1.295 2.19,1.847 0.27,0.193 0.55,0.372 0.88,0.413 0.31,0.028 0.62,-0.082 0.91,-0.193 1.02,-0.386 2.03,-0.799 3.02,-1.254 0.27,1.048 -0.6,2.013 -1.46,2.688 -0.32,0.262 -0.68,0.51 -1.09,0.62 -1.14,0.318 -2.25,-0.551 -3.41,-0.799 -0.11,0.648 -0.22,1.296 -0.34,1.944 -0.05,0.331 -0.11,0.675 0.03,0.965 0.17,0.413 0.65,0.634 1.1,0.634 0.46,0 0.9,-0.166 1.31,-0.345 1.3,-0.579 2.53,-1.337 3.93,-1.64 0.15,-0.028 0.34,-0.042 0.42,0.082 0.07,0.097 0.03,0.235 -0.01,0.359 -0.64,1.654 -1.66,3.171 -2.94,4.411 -0.61,0.593 -1.35,1.131 -2.2,1.227 -0.24,0.028 -0.49,0.014 -0.69,-0.11 -0.18,-0.11 -0.31,-0.29 -0.42,-0.469 -0.82,-1.254 -1.6,-2.55 -2.68,-3.598 -1.07,-1.061 -2.5,-1.861 -4.01,-1.861 -0.22,0 -0.49,0.069 -0.49,0.276 0,0.138 0.13,0.234 0.23,0.303 0.92,0.634 1.87,1.337 2.24,2.371 -0.89,-0.331 -1.79,-0.648 -2.66,-0.979 -0.13,0.4 0.32,0.731 0.72,0.924 0.97,0.483 1.95,0.951 2.91,1.434 -1.86,1.158 -3.38,2.867 -4.28,4.825 2.15,-1.144 4.71,-1.544 7.11,-1.075 -0.82,1.02 -1.8,1.93 -2.87,2.702 0.68,0.151 1.37,-0.138 2.06,-0.29 1.36,-0.317 2.83,-0.124 4.06,0.524 0.15,0.069 0.3,0.165 0.34,0.317 0.03,0.11 0,0.234 -0.04,0.345 -0.15,0.413 -0.45,0.772 -0.62,1.171 -0.11,0.262 -0.17,0.566 -0.13,0.841 0.43,0.124 0.91,0.221 1.28,-0.013 0.25,-0.166 0.41,-0.442 0.55,-0.717 0.53,-0.979 1.24,-1.875 2.09,-2.633 0.11,-0.097 0.23,-0.193 0.28,-0.331 0.16,-0.345 -0.12,-0.731 -0.38,-1.007 -0.72,-0.772 -1.43,-1.557 -2.15,-2.329 -0.13,-0.138 -0.25,-0.317 -0.18,-0.483 0.05,-0.138 0.22,-0.179 0.37,-0.22 0.67,-0.166 1.4,-0.331 2.07,-0.152 0.34,0.083 0.66,0.248 0.98,0.372 0.79,0.276 1.68,0.262 2.45,-0.055 1.64,-0.662 2.42,-2.399 2.98,-4.081 -0.46,-0.055 -0.92,0.18 -1.37,0.331 -1.32,0.414 -2.94,-0.138 -3.55,-1.351 -0.59,-1.213 0.16,-2.936 1.51,-3.184 0.44,-0.083 0.88,-0.014 1.33,-0.069 0.71,-0.069 1.35,-0.414 1.97,-0.731 0.23,-0.124 0.45,-0.234 0.66,-0.358 0.53,-1.117 -0.24,-2.427 -1.2,-3.212 z"
         fill="#edd9c0"
         id="path436" />
      <path
         d="m 1336.99,696.237 c 0.98,-0.524 2.01,-0.979 3.07,-1.323 -0.75,1.943 -1.35,3.915 -1.85,5.927 0.62,-1.805 2.15,-3.184 2.86,-4.962 0.04,-0.124 0.1,-0.249 0.08,-0.373 -0.01,-0.124 -0.05,-0.234 -0.11,-0.344 -0.23,-0.483 -0.47,-0.952 -0.69,-1.434 -0.55,0.455 -1.15,0.855 -1.8,1.186 -0.44,0.22 -0.93,0.413 -1.4,0.262 -0.25,-0.083 -0.47,-0.262 -0.66,-0.442 -0.61,-0.565 -1.15,-1.199 -1.6,-1.888 0.36,0.551 0.49,1.254 0.86,1.819 0.37,0.538 0.81,1.09 1.24,1.572 z"
         fill="#dbc8b9"
         id="path438" />
      <path
         d="m 1331.83,708.851 c 1.98,-1.751 3.98,-3.502 5.96,-5.252 -1.35,1.433 -2.69,2.881 -4.03,4.315 -0.22,0.22 -0.43,0.468 -0.47,0.772 -0.09,0.661 0.73,1.185 0.65,1.847 -0.75,-0.676 -1.7,-1.158 -2.7,-1.351 -0.24,-0.041 -0.51,-0.083 -0.7,-0.248 -0.12,-0.111 -0.19,-0.248 -0.26,-0.4 -0.43,-0.731 -1.14,-1.296 -1.96,-1.544 -1.09,1.075 -2.37,1.958 -3.77,2.592 1.09,-0.993 2.18,-1.903 3.32,-2.813 0.3,-0.234 0.6,-0.579 0.95,-0.523 0.25,0.041 0.79,0.689 1,0.868 0.67,0.593 1.33,1.172 2.01,1.737 z"
         fill="#dbc8b9"
         id="path440" />
      <path
         d="m 1328.85,697.603 c 0.65,1.144 1.19,2.344 1.6,3.584 0.17,-0.606 0.35,-1.213 0.52,-1.819 -0.78,-0.552 -1.27,-1.393 -1.75,-2.206 -0.37,-0.62 -0.72,-1.268 -1.12,-1.875 -0.34,0.772 0.38,1.682 0.75,2.316 z"
         fill="#fffae3"
         id="path442" />
      <path
         d="m 1332.37,704.936 c -0.3,-0.262 -0.65,-0.469 -1.02,-0.606 0.57,0.689 1.08,1.433 1.5,2.233 1.32,-1.406 3.04,-2.826 4.1,-4.412 -0.63,0.124 -4.16,3.226 -4.58,2.785 z"
         fill="#fffae3"
         id="path444" />
      <path
         d="m 1323.63,702.386 c 0.18,-0.772 0.51,-1.502 0.97,-2.15 -0.36,0.082 -0.68,-0.235 -0.9,-0.524 -0.48,-0.607 -1.15,-1.53 -1.02,-0.166 0.04,0.469 0.25,0.952 0.41,1.393 0.11,0.303 0.61,1.144 0.54,1.447 z"
         fill="#fffae3"
         id="path446" />
    </g>
    <g
       clip-path="url(#clip6)"
       id="g482"
       transform="translate(-1.3067151)">
      <path
         d="m 1146.23,706.627 0.65,-12.496 20.68,1.146 -0.66,12.496 z"
         fill="#ff1206"
         id="path450" />
      <path
         d="m 1167.56,695.274 1.52,1.071 -0.27,5.265 -1.58,-0.094 z"
         fill="#ced5d0"
         id="path452" />
      <path
         d="m 1166.9,707.769 1.64,-0.903 0.27,-5.255 -1.58,-0.094 z"
         fill="#ced5d0"
         id="path454" />
      <path
         d="m 1146.88,694.129 -1.08,0.891 -0.29,5.296 1.05,0.061 z"
         fill="#ced5d0"
         id="path456" />
      <path
         d="m 1146.23,706.618 -0.98,-1 0.27,-5.302 1.04,0.061 z"
         fill="#ced5d0"
         id="path458" />
      <path
         d="m 1145.25,705.593 0.56,-10.551 c 0.01,-0.272 -0.2,-0.502 -0.48,-0.527 -0.27,-0.015 -0.5,0.194 -0.52,0.47 l -0.56,10.551 c -0.01,0.272 0.2,0.502 0.47,0.527 0.27,0.015 0.51,-0.198 0.53,-0.47 z"
         fill="#ced5d0"
         id="path460" />
      <path
         opacity="0.33"
         d="m 1144.66,706.052 c -0.03,-0.012 -0.06,-0.014 -0.07,-0.02 -0.21,-0.068 -0.36,-0.273 -0.33,-0.497 l 0.16,-3.118 c -0.02,0.271 0.19,0.502 0.47,0.527 0.08,0.006 0.15,-0.015 0.22,-0.041 l 0.42,-7.872 c 0,-0.23 -0.13,-0.429 -0.34,-0.496 0.05,-0.007 0.1,-0.014 0.14,-0.006 0.27,0.015 0.48,0.245 0.47,0.528 l -0.38,7.428 -0.17,3.118 c -0.01,0.272 -0.24,0.481 -0.52,0.47 -0.03,-0.012 -0.05,-0.019 -0.07,-0.021 z"
         fill="#777589"
         id="path462" />
      <path
         opacity="0.48"
         d="m 1151.32,695.497 c 0.4,-0.065 0.83,-0.039 1.24,0.007 2.39,0.201 4.77,0.406 7.16,0.608 0.48,0.045 1.05,0.149 1.2,0.554 0.14,0.351 -0.16,0.712 -0.52,0.848 -0.36,0.136 -0.78,0.095 -1.17,0.056 -2.27,-0.214 -4.56,-0.318 -6.84,-0.327 -0.39,-0.003 -0.79,-0.001 -1.13,-0.162 -0.78,-0.34 -0.82,-1.434 0.06,-1.584 z"
         fill="#ffffff"
         id="path464" />
      <path
         opacity="0.48"
         d="m 1147.77,695.798 c -0.06,-0.036 -0.03,-0.086 0,-0.126 0.24,-0.239 0.88,-0.35 1.39,-0.218 0.5,0.131 0.8,0.452 0.65,0.718 -0.16,0.267 -0.75,0.423 -1.28,0.337 -0.53,-0.086 -0.93,-0.388 -0.86,-0.671 z"
         fill="#ffffff"
         id="path466" />
      <path
         d="m 1165.49,698.892 c 0.19,0.009 0.38,-0.003 0.54,-0.059 0.17,-0.046 0.32,-0.13 0.44,-0.231 0.12,-0.101 0.22,-0.245 0.29,-0.413 0.07,-0.168 0.12,-0.364 0.13,-0.584 0.01,-0.208 -0.02,-0.399 -0.06,-0.57 -0.06,-0.167 -0.13,-0.325 -0.25,-0.454 -0.11,-0.118 -0.24,-0.217 -0.41,-0.298 -0.17,-0.07 -0.35,-0.109 -0.55,-0.129 -0.11,-0.003 -0.2,-0.004 -0.3,-10e-4 -0.09,0.01 -0.17,0.019 -0.25,0.04 -0.08,0.02 -0.15,0.036 -0.22,0.063 -0.06,0.026 -0.11,0.049 -0.17,0.071 l -0.01,0.639 0.08,0.005 c 0.04,-0.028 0.07,-0.057 0.12,-0.09 0.05,-0.033 0.11,-0.071 0.17,-0.108 0.07,-0.027 0.14,-0.058 0.22,-0.089 0.08,-0.021 0.15,-0.026 0.24,-0.025 0.09,0.013 0.19,0.025 0.27,0.067 0.09,0.028 0.16,0.085 0.23,0.159 0.07,0.073 0.12,0.166 0.15,0.278 0.03,0.113 0.05,0.245 0.04,0.402 -0.01,0.167 -0.04,0.295 -0.1,0.407 -0.05,0.111 -0.11,0.186 -0.18,0.254 -0.08,0.057 -0.16,0.103 -0.25,0.128 -0.09,0.025 -0.18,0.035 -0.26,0.033 -0.08,-0.005 -0.17,-0.022 -0.25,-0.049 -0.08,-0.032 -0.15,-0.064 -0.22,-0.111 -0.06,-0.041 -0.11,-0.081 -0.15,-0.116 -0.05,-0.045 -0.09,-0.079 -0.12,-0.103 l -0.07,-0.01 -0.03,0.633 c 0.07,0.036 0.13,0.061 0.19,0.087 0.06,0.025 0.12,0.051 0.18,0.076 0.09,0.027 0.17,0.059 0.24,0.065 0.09,0.016 0.19,0.024 0.32,0.033 z"
         fill="#ededc3"
         id="path468" />
      <path
         d="m 1161.59,697.301 c -0.02,0.413 0.09,0.762 0.31,1.013 0.22,0.263 0.55,0.403 0.97,0.423 0.42,0.026 0.75,-0.086 1,-0.315 0.26,-0.233 0.39,-0.553 0.42,-0.982 0.02,-0.428 -0.08,-0.766 -0.31,-1.024 -0.23,-0.262 -0.56,-0.402 -0.97,-0.422 -0.43,-0.026 -0.76,0.086 -1.01,0.315 -0.25,0.243 -0.39,0.579 -0.41,0.992 z m 0.87,0.719 c -0.07,-0.089 -0.11,-0.186 -0.14,-0.288 -0.02,-0.117 -0.03,-0.238 -0.03,-0.38 0.01,-0.156 0.03,-0.291 0.08,-0.398 0.04,-0.107 0.1,-0.192 0.16,-0.256 0.06,-0.063 0.13,-0.116 0.22,-0.141 0.07,-0.031 0.16,-0.041 0.25,-0.039 0.08,10e-4 0.16,0.022 0.24,0.064 0.07,0.032 0.14,0.095 0.2,0.157 0.05,0.067 0.09,0.164 0.13,0.277 0.03,0.112 0.04,0.249 0.03,0.405 -0.01,0.157 -0.03,0.292 -0.08,0.399 -0.04,0.107 -0.1,0.192 -0.15,0.266 -0.07,0.064 -0.13,0.117 -0.22,0.142 -0.08,0.031 -0.16,0.04 -0.25,0.039 -0.09,-0.001 -0.18,-0.028 -0.24,-0.065 -0.09,-0.053 -0.15,-0.105 -0.2,-0.182 z"
         fill="#ededc3"
         id="path470" />
      <path
         d="m 1159.12,698.49 1.88,0.106 0.14,-2.627 -0.67,-0.039 -0.11,2.121 -1.21,-0.068 z"
         fill="#ededc3"
         id="path472" />
      <path
         d="m 1156.29,698.329 0.7,0.04 0.21,-0.519 0.97,0.055 0.16,0.542 0.68,0.034 -0.83,-2.683 -0.77,-0.046 z m 1.09,-0.959 0.37,-0.927 0.28,0.964 z"
         fill="#ededc3"
         id="path474" />
      <path
         d="m 1148,706.722 c 0.12,-0.505 0.33,-1.009 0.56,-1.459 0.57,-1.111 1.33,-2.136 1.64,-3.351 0.38,-1.54 -0.05,-3.16 0.05,-4.747 0.03,-0.506 0.33,-1.691 0.8,-2.799 l 2.67,0.148 c -0.73,1.027 -1.24,2.148 -1.27,3.441 -0.03,1.482 0.5,2.973 0.17,4.412 -0.28,1.191 -1.1,2.164 -1.75,3.191 -0.25,0.396 -0.48,0.835 -0.65,1.284 z"
         fill="#ededc3"
         id="path476" />
      <path
         d="m 1150.98,706.882 c 0.18,-0.569 0.44,-1.121 0.77,-1.622 0.41,-0.641 0.92,-1.206 1.24,-1.896 0.44,-0.964 0.43,-2.061 0.34,-3.116 -0.08,-1.055 -0.24,-2.115 -0.09,-3.153 0.13,-0.85 0.47,-1.664 0.98,-2.356 0.05,-0.07 0.1,-0.129 0.15,-0.199 l 1.17,0.06 c -0.27,0.315 -0.54,0.626 -0.74,0.978 -0.79,1.301 -0.76,2.934 -0.59,4.446 0.13,1.152 0.31,2.34 -0.04,3.437 -0.3,0.932 -0.95,1.697 -1.45,2.536 -0.18,0.302 -0.34,0.621 -0.46,0.963 z"
         fill="#ededc3"
         id="path478" />
      <path
         opacity="0.33"
         d="m 1145.25,705.593 0.17,-3.197 0.99,0.869 20.67,1.151 1.61,-0.59 -0.15,3.04 -1.64,0.903 -20.67,-1.15 z"
         fill="#777589"
         id="path480" />
    </g>
  </g>
  <defs
     id="defs613">
    <filter
       id="filter0_d"
       x="306.78101"
       y="585.45001"
       width="178"
       height="79"
       filterUnits="userSpaceOnUse"
       color-interpolation-filters="sRGB">
      <feFlood
         flood-opacity="0"
         result="BackgroundImageFix"
         id="feFlood486" />
      <feColorMatrix
         in="SourceAlpha"
         type="matrix"
         values="0 0 0 0 0 0 0 0 0 0 0 0 0 0 0 0 0 0 127 0"
         result="hardAlpha"
         id="feColorMatrix488" />
      <feOffset
         id="feOffset490" />
      <feGaussianBlur
         stdDeviation="5"
         id="feGaussianBlur492" />
      <feComposite
         in2="hardAlpha"
         operator="out"
         id="feComposite494" />
      <feColorMatrix
         type="matrix"
         values="0 0 0 0 0 0 0 0 0 0 0 0 0 0 0 0 0 0 0.35 0"
         id="feColorMatrix496" />
      <feBlend
         mode="normal"
         in2="BackgroundImageFix"
         result="effect1_dropShadow"
         id="feBlend498" />
      <feBlend
         mode="normal"
         in="SourceGraphic"
         in2="effect1_dropShadow"
         result="shape"
         id="feBlend500" />
    </filter>
    <filter
       id="filter1_d"
       x="315.78101"
       y="593.45001"
       width="160"
       height="62"
       filterUnits="userSpaceOnUse"
       color-interpolation-filters="sRGB">
      <feFlood
         flood-opacity="0"
         result="BackgroundImageFix"
         id="feFlood503" />
      <feColorMatrix
         in="SourceAlpha"
         type="matrix"
         values="0 0 0 0 0 0 0 0 0 0 0 0 0 0 0 0 0 0 127 0"
         result="hardAlpha"
         id="feColorMatrix505" />
      <feOffset
         id="feOffset507" />
      <feGaussianBlur
         stdDeviation="2"
         id="feGaussianBlur509" />
      <feComposite
         in2="hardAlpha"
         operator="out"
         id="feComposite511" />
      <feColorMatrix
         type="matrix"
         values="0 0 0 0 0 0 0 0 0 0 0 0 0 0 0 0 0 0 0.25 0"
         id="feColorMatrix513" />
      <feBlend
         mode="normal"
         in2="BackgroundImageFix"
         result="effect1_dropShadow"
         id="feBlend515" />
      <feBlend
         mode="normal"
         in="SourceGraphic"
         in2="effect1_dropShadow"
         result="shape"
         id="feBlend517" />
    </filter>
    <filter
       id="filter2_d"
       x="311.242"
       y="475.64001"
       width="56.621101"
       height="51.9785"
       filterUnits="userSpaceOnUse"
       color-interpolation-filters="sRGB">
      <feFlood
         flood-opacity="0"
         result="BackgroundImageFix"
         id="feFlood520" />
      <feColorMatrix
         in="SourceAlpha"
         type="matrix"
         values="0 0 0 0 0 0 0 0 0 0 0 0 0 0 0 0 0 0 127 0"
         result="hardAlpha"
         id="feColorMatrix522" />
      <feOffset
         id="feOffset524" />
      <feGaussianBlur
         stdDeviation="5"
         id="feGaussianBlur526" />
      <feComposite
         in2="hardAlpha"
         operator="out"
         id="feComposite528" />
      <feColorMatrix
         type="matrix"
         values="0 0 0 0 0 0 0 0 0 0 0 0 0 0 0 0 0 0 0.3 0"
         id="feColorMatrix530" />
      <feBlend
         mode="normal"
         in2="BackgroundImageFix"
         result="effect1_dropShadow"
         id="feBlend532" />
      <feBlend
         mode="normal"
         in="SourceGraphic"
         in2="effect1_dropShadow"
         result="shape"
         id="feBlend534" />
    </filter>
    <linearGradient
       id="paint0_linear"
       x1="385.543"
       y1="623.43799"
       x2="385.543"
       y2="168.411"
       gradientUnits="userSpaceOnUse"
       gradientTransform="translate(-1.3067151)">
      <stop
         stop-color="#004AC2"
         id="stop537" />
      <stop
         offset="1"
         stop-color="#0083C2"
         id="stop539" />
    </linearGradient>
    <linearGradient
       id="paint1_linear"
       x1="385.543"
       y1="619.289"
       x2="385.543"
       y2="167.10001"
       gradientUnits="userSpaceOnUse"
       gradientTransform="translate(-1.3067151)">
      <stop
         stop-color="#001D69"
         id="stop542" />
      <stop
         offset="1"
         stop-color="#004E83"
         id="stop544" />
    </linearGradient>
    <linearGradient
       id="paint2_linear"
       x1="158.534"
       y1="205.168"
       x2="619.54401"
       y2="205.168"
       gradientUnits="userSpaceOnUse"
       gradientTransform="translate(-1.3067151)">
      <stop
         stop-color="#007EC6"
         id="stop547" />
      <stop
         offset="1"
         stop-color="#91D1FF"
         id="stop549" />
    </linearGradient>
    <linearGradient
       id="paint3_linear"
       x1="167.48801"
       y1="595.039"
       x2="624.72498"
       y2="595.039"
       gradientUnits="userSpaceOnUse"
       gradientTransform="translate(-1.3067151)">
      <stop
         stop-color="#122B86"
         id="stop552" />
      <stop
         offset="1"
         stop-color="#0C3A95"
         id="stop554" />
    </linearGradient>
    <linearGradient
       id="paint4_linear"
       x1="439.84399"
       y1="599.69"
       x2="439.84399"
       y2="654.09698"
       gradientUnits="userSpaceOnUse"
       gradientTransform="translate(-1.3067151)">
      <stop
         stop-color="white"
         id="stop557" />
      <stop
         offset="0.2"
         stop-color="#FCFCFC"
         id="stop559" />
      <stop
         offset="0.37"
         stop-color="#F1F1F1"
         id="stop561" />
      <stop
         offset="0.53"
         stop-color="#E0E0E0"
         id="stop563" />
      <stop
         offset="0.68"
         stop-color="#C8C8C8"
         id="stop565" />
      <stop
         offset="0.82"
         stop-color="#ABABAB"
         id="stop567" />
      <stop
         offset="1"
         stop-color="white"
         id="stop569" />
    </linearGradient>
    <radialGradient
       id="paint5_radial"
       cx="0"
       cy="0"
       r="1"
       gradientUnits="userSpaceOnUse"
       gradientTransform="matrix(114.726,0,0,100.417,443.01928,673.032)">
      <stop
         offset="0.17"
         stop-color="#858585"
         id="stop572" />
      <stop
         offset="0.36"
         stop-color="#575757"
         id="stop574" />
      <stop
         offset="0.55"
         stop-color="#313131"
         id="stop576" />
      <stop
         offset="0.73"
         stop-color="#161616"
         id="stop578" />
      <stop
         offset="0.88"
         stop-color="#060606"
         id="stop580" />
      <stop
         offset="1"
         id="stop582" />
    </radialGradient>
    <radialGradient
       id="paint6_radial"
       cx="0"
       cy="0"
       r="1"
       gradientUnits="userSpaceOnUse"
       gradientTransform="matrix(0,44.002,-113.523,0,379.84528,511.238)">
      <stop
         offset="0.15625"
         stop-color="#2B448C"
         id="stop585" />
      <stop
         offset="0.648308"
         stop-color="#1E3679"
         id="stop587" />
      <stop
         offset="1"
         stop-color="#071D59"
         id="stop589" />
    </radialGradient>
    <clipPath
       id="clip0">
      <rect
         width="1440"
         height="753"
         fill="#ffffff"
         id="rect592"
         x="0"
         y="0" />
    </clipPath>
    <clipPath
       id="clip1">
      <rect
         width="193"
         height="61"
         fill="#ffffff"
         transform="translate(87,13)"
         id="rect595"
         x="0"
         y="0" />
    </clipPath>
    <clipPath
       id="clip2">
      <rect
         width="63"
         height="32"
         fill="#ffffff"
         transform="translate(924.633,514)"
         id="rect598"
         x="0"
         y="0" />
    </clipPath>
    <clipPath
       id="clip3">
      <rect
         width="42.709499"
         height="25.436399"
         fill="#ffffff"
         transform="rotate(20.7653,-1268.2332,3568.8528)"
         id="rect601"
         x="0"
         y="0" />
    </clipPath>
    <clipPath
       id="clip4">
      <rect
         width="43.547699"
         height="45.725101"
         fill="#ffffff"
         transform="rotate(46.7741,-370.67841,1278.8538)"
         id="rect604"
         x="0"
         y="0" />
    </clipPath>
    <clipPath
       id="clip5">
      <rect
         width="23"
         height="26"
         fill="#ffffff"
         transform="translate(1321.63,689)"
         id="rect607"
         x="0"
         y="0" />
    </clipPath>
    <clipPath
       id="clip6">
      <rect
         width="20.5375"
         height="26.5"
         fill="#ffffff"
         transform="matrix(-0.38216,-0.924096,-0.924096,0.38216,1172.8,705.332)"
         id="rect610"
         x="0"
         y="0" />
    </clipPath>
  </defs>
</svg>
