<?xml version="1.0" encoding="UTF-8" standalone="no"?>
<svg
   width="930"
   height="600"
   viewBox="0 0 930 600"
   fill="none"
   version="1.1"
   id="svg799"
   sodipodi:docname="Сценарій 3_позитивний.svg"
   inkscape:version="1.1 (c68e22c387, 2021-05-23)"
   xmlns:inkscape="http://www.inkscape.org/namespaces/inkscape"
   xmlns:sodipodi="http://sodipodi.sourceforge.net/DTD/sodipodi-0.dtd"
   xmlns="http://www.w3.org/2000/svg"
   xmlns:svg="http://www.w3.org/2000/svg">
  <sodipodi:namedview
     id="namedview801"
     pagecolor="#ffffff"
     bordercolor="#666666"
     borderopacity="1.0"
     inkscape:pageshadow="2"
     inkscape:pageopacity="0.0"
     inkscape:pagecheckerboard="0"
     showgrid="false"
     inkscape:zoom="0.76527778"
     inkscape:cx="476.951"
     inkscape:cy="376.9873"
     inkscape:window-width="1857"
     inkscape:window-height="1057"
     inkscape:window-x="-8"
     inkscape:window-y="-8"
     inkscape:window-maximized="1"
     inkscape:current-layer="svg799" />
  <g
     id="g2517"
     transform="translate(-535.29699,-116.607)">
    <path
       d="m 1490.81,623.656 c 10.16,43.513 -23.42,85.018 -68.11,84.942 l -159.04,-0.228 -14.79,-0.038 -480.196,-1.554 -158.399,-0.53 c 0,0 -59.888,-105.372 -24.183,-211.464 3.525,-10.461 7.96,-20.961 13.494,-31.308 9.248,-17.36 21.529,-34.417 37.335,-50.639 67.961,-69.667 130.654,-79.144 182.051,-74.406 41.049,3.791 13.638,1.554 37.29,0 53.33,-3.487 -30.296,-150.362 127.459,-183.49 31.459,-6.595 103.059,0 238.619,71.123 83.22,43.658 186.77,-40.598 235.35,81.552 3.54,8.907 14.02,51.922 0,79.967 -12.76,25.502 -24,33.1 -38.67,57.889 -46.81,79.104 -8.52,115.226 46.81,146.61 2.28,1.289 4.55,2.615 6.79,3.98 9.93,5.913 15.46,15.92 18.19,27.594 z"
       fill="#1c468a"
       id="path4" />
    <path
       d="m 1425.58,707.573 c 37.23,0 67.02,-30.55 67.02,-67.772 l -175.15,-83.767 v -43.665 h -3.26 V 421.59 h -50.38 v 90.779 h -59.66 V 453.884 H 1113.3 V 344.532 h -57.24 v 142.215 h -17.85 V 365.645 H 992.271 V 486.747 H 886.406 v 110.754 h -53.747 v -74.898 h -50.071 v 74.898 H 768.109 V 441.565 h -55.188 v 155.936 h -19.823 v 110.64 z"
       fill="#046b9e"
       id="path6" />
    <path
       d="m 785.303,446.964 c -0.606,-2.274 -0.948,-4.776 -0.948,-7.354 0,-11.56 6.709,-20.96 14.972,-20.96 1.213,0 2.388,0.189 3.525,0.568 1.327,-31.308 15.048,-55.907 31.764,-55.907 15.919,0 29.11,22.325 31.498,51.473 11.825,8.035 19.975,24.523 19.975,43.513 0,9.059 -1.858,17.549 -5.079,24.827 10.992,6.785 18.004,16.981 18.004,28.39 0,20.392 -22.287,36.918 -49.768,36.918 -20.581,0 -38.244,-9.249 -45.825,-22.477 -2.123,0.493 -4.283,0.758 -6.519,0.758 -18.725,0 -33.886,-18.421 -33.886,-41.125 -0.038,-17.739 9.248,-32.863 22.287,-38.624 z"
       fill="#69b708"
       id="path8" />
    <path
       d="m 785.302,446.964 c 0,0 32.976,-12.849 58.068,9.779 25.13,22.629 42.604,-13.039 34.227,-29.602 5.269,8.452 8.453,19.33 8.453,31.232 0,9.059 -1.858,17.55 -5.08,24.827 10.992,6.785 18.005,16.981 18.005,28.39 0,20.392 -22.288,36.918 -49.768,36.918 -20.581,0 -38.245,-9.249 -45.825,-22.477 -2.123,0.493 -4.283,0.758 -6.52,0.758 -18.724,0 -33.885,-18.421 -33.885,-41.125 0,-17.815 9.286,-32.938 22.325,-38.7 z"
       fill="#5fa73e"
       id="path10" />
    <path
       d="m 824.041,688.75 c 1.289,0 2.35,-0.341 2.35,-1.63 V 432.749 c 0,-1.288 -1.061,-2.35 -2.35,-2.35 -1.288,0 -2.35,1.062 -2.35,2.35 V 687.12 c 0,1.251 1.062,1.63 2.35,1.63 z"
       fill="#7a3909"
       id="path12" />
    <path
       d="m 824.04,523.075 c 6.671,0 12.281,-2.388 16.754,-7.05 12.432,-13.077 11.257,-39.837 11.181,-40.974 -0.076,-1.289 -1.175,-2.312 -2.464,-2.236 -1.288,0.075 -2.274,1.175 -2.236,2.463 0,0.266 1.137,25.888 -9.931,37.525 -3.562,3.752 -7.959,5.572 -13.342,5.572 -1.288,0 -2.35,1.061 -2.35,2.35 0,1.288 1.1,2.35 2.388,2.35 z"
       fill="#7a3909"
       id="path14" />
    <path
       d="m 823.701,576.329 c 0.152,0 0.304,0 0.455,0 1.289,-0.076 2.274,-1.175 2.199,-2.502 -0.076,-1.288 -1.175,-2.274 -2.502,-2.198 -0.91,0.038 -1.781,-0.341 -2.729,-1.175 -2.919,-2.615 -8.415,-11.75 -12.698,-43.817 -2.464,-18.535 -3.335,-35.819 -3.335,-36.008 -0.076,-1.289 -1.175,-2.312 -2.464,-2.236 -1.289,0.075 -2.312,1.175 -2.236,2.463 0,0.19 0.871,17.663 3.373,36.388 1.478,11.03 3.222,20.392 5.193,27.745 2.577,9.666 5.534,15.844 9.021,18.952 1.819,1.592 3.714,2.388 5.723,2.388 z"
       fill="#7a3909"
       id="path16" />
    <path
       d="m 678.908,398.446 c 7.012,-13.721 10.272,-29.072 9.931,-44.498 -0.834,-36.918 10.272,-87.823 37.524,-87.823 32.825,0 35.402,64.322 25.168,100.52 -2.047,7.202 0.796,14.934 7.126,18.876 0.493,0.304 0.834,0.493 1.023,0.493 8.263,0 14.972,8.983 14.972,20.089 0,2.502 -0.341,4.852 -0.947,7.05 13.039,5.496 22.325,20.013 22.325,37.07 0,21.794 -15.161,39.419 -33.886,39.419 -15.01,0 -27.745,-11.371 -32.18,-27.101 -5.875,5.193 -12.963,8.226 -20.62,8.226 -20.088,0 -36.387,-20.923 -36.387,-46.736 0,-9.438 2.198,-18.231 5.951,-25.585 z"
       fill="#69b708"
       id="path18" />
    <path
       d="m 700.324,403.602 c 33.961,-4.587 39.04,32.407 39.04,32.407 40.254,-18.307 58.106,10.424 58.106,10.424 l 0.986,8.604 c -0.91,20.847 -18.194,34.606 -36.312,34.606 -15.01,0 -27.745,-11.371 -32.18,-27.101 -5.875,5.193 -12.963,8.225 -20.619,8.225 -12.092,0 -22.78,-7.543 -29.376,-19.179 -0.227,-0.72 -13.342,-43.438 20.355,-47.986 z"
       fill="#5fa73e"
       id="path20" />
    <path
       d="m 728.524,688.75 c 1.289,0 2.539,0.834 2.539,-0.455 V 433.924 c 0,-1.288 -1.061,-2.35 -2.35,-2.35 -1.288,0 -2.35,1.062 -2.35,2.35 v 254.371 c 0,1.251 0.872,0.455 2.161,0.455 z"
       fill="#7a3909"
       id="path22" />
    <path
       d="m 728.713,524.249 c 7.24,0 13.456,-4.283 18.497,-12.698 3.791,-6.33 6.899,-15.123 9.287,-26.077 4.017,-18.459 4.624,-37.184 4.624,-37.373 0.038,-1.289 -0.986,-2.388 -2.274,-2.426 -1.289,-0.038 -2.388,0.985 -2.426,2.274 0,0.19 -0.569,18.497 -4.511,36.539 -3.487,15.995 -10.347,35.023 -23.197,35.023 -1.288,0 -2.35,1.061 -2.35,2.35 0,1.327 1.062,2.388 2.35,2.388 z"
       fill="#7a3909"
       id="path24" />
    <path
       d="m 728.486,577.503 c 0.113,0 0.265,0 0.379,0 1.288,-0.076 2.274,-1.175 2.198,-2.502 -0.076,-1.288 -1.213,-2.274 -2.502,-2.198 -0.303,0 -0.796,-0.038 -1.478,-0.72 -2.919,-2.805 -8.149,-14.441 -10.272,-60.76 -1.213,-26.684 -0.758,-52.117 -0.758,-52.382 0.038,-1.289 -1.023,-2.35 -2.312,-2.388 -1.289,-0.038 -2.35,1.023 -2.388,2.312 0,0.265 -0.455,25.85 0.758,52.686 0.72,15.806 1.857,28.958 3.411,39.116 2.047,13.305 4.738,21.416 8.301,24.789 1.706,1.668 3.45,2.047 4.663,2.047 z"
       fill="#7a3909"
       id="path26" />
    <path
       d="m 711.43,470.729 c 0.606,-2.767 0.947,-5.723 0.947,-8.869 0,-13.911 -6.709,-25.206 -14.972,-25.206 -1.213,0 -2.388,0.265 -3.525,0.72 -1.326,-37.638 -15.048,-67.241 -31.763,-67.241 -15.92,0 -29.11,26.836 -31.498,61.934 -11.826,9.666 -19.975,29.489 -19.975,52.345 0,10.916 1.857,21.112 5.079,29.83 -10.992,8.15 -18.004,20.43 -18.004,34.151 0,24.524 22.287,44.386 49.767,44.386 20.582,0 38.245,-11.144 45.826,-27.026 2.122,0.607 4.283,0.91 6.519,0.91 18.724,0 33.886,-22.136 33.886,-49.464 0.076,-21.34 -9.249,-39.572 -22.287,-46.47 z"
       fill="#8cd334"
       id="path28" />
    <path
       d="m 605.719,524.363 c 5.344,-7.354 7.505,-16.488 6.102,-25.471 -0.72,-4.625 -1.099,-9.476 -1.099,-14.48 0,-2.729 0.114,-5.458 0.341,-8.073 45.977,3.146 44.158,49.275 44.158,49.275 0,0 38.055,-16.034 50.715,6.557 12.698,22.553 -12.546,33.658 -12.546,33.658 -7.581,15.882 -25.244,27.026 -45.826,27.026 -27.48,0 -49.767,-19.862 -49.767,-44.386 0,-8.907 2.918,-17.17 7.922,-24.106 z"
       fill="#5fa73e"
       id="path30" />
    <path
       d="m 662.651,688.371 c 1.289,0 2.35,0 2.35,-1.289 V 489.453 c 0,-1.289 -1.061,-2.35 -2.35,-2.35 -1.289,0 -2.35,1.061 -2.35,2.35 v 197.629 c 0,1.289 1.061,1.289 2.35,1.289 z"
       fill="#7a3909"
       id="path32" />
    <path
       d="m 662.65,555.405 c 6.671,0 12.28,-2.388 16.753,-7.05 12.432,-13.077 11.257,-39.837 11.182,-40.974 -0.076,-1.289 -1.175,-2.312 -2.464,-2.236 -1.289,0.075 -2.274,1.175 -2.236,2.463 0,0.266 1.137,25.888 -9.931,37.487 -3.563,3.752 -7.96,5.572 -13.342,5.572 -1.289,0 -2.35,1.061 -2.35,2.35 0.038,1.364 1.099,2.388 2.388,2.388 z"
       fill="#7a3909"
       id="path34" />
    <path
       d="m 660.752,632.236 c 0.152,0 0.303,0 0.455,0 1.289,-0.076 2.274,-1.175 2.198,-2.501 -0.075,-1.289 -1.212,-2.275 -2.501,-2.199 -0.91,0.038 -1.782,-0.341 -2.729,-1.175 -2.919,-2.615 -8.415,-11.75 -12.698,-43.816 -2.464,-18.535 -3.336,-35.819 -3.336,-36.009 -0.075,-1.289 -1.175,-2.312 -2.463,-2.236 -1.289,0.076 -2.312,1.175 -2.237,2.464 0,0.189 0.872,17.663 3.374,36.387 1.478,11.03 3.222,20.392 5.193,27.745 2.577,9.666 5.534,15.844 9.021,18.952 1.819,1.592 3.714,2.388 5.723,2.388 z"
       fill="#7a3909"
       id="path36" />
    <path
       d="m 1050.11,203.684 h 4.7 l -0.04,-0.379 -1.4,-12.471 c -0.04,-0.417 -0.38,-0.72 -0.8,-0.72 -0.03,0 -0.11,0 -0.15,0 -0.26,0.038 -0.49,0.152 -0.68,0.303 -0.23,0.19 -0.38,0.493 -0.42,0.796 z"
       fill="#a2c5f9"
       id="path38" />
    <path
       d="m 1054.35,200.841 h 0.15 l -1.17,-10.007 c -0.04,-0.417 -0.38,-0.72 -0.8,-0.72 -0.03,0 -0.11,0 -0.15,0 -0.04,0.038 -0.07,0.076 -0.11,0.114 -0.19,0.227 -0.34,0.531 -0.34,0.834 l -0.08,7.202 c 0,1.402 1.1,2.539 2.5,2.577 z"
       fill="#afcdfb"
       id="path40" />
    <path
       d="m 1056.18,259.212 h -9.06 v 398.556 h 9.06 z"
       fill="#a2c5f9"
       id="path42" />
    <path
       d="M 1056.17,259.212 H 1052 v 398.556 h 4.17 z"
       fill="#afcdfb"
       id="path44" />
    <path
       d="m 1066.07,594.166 h -28.85 v 105.448 h 28.85 z"
       fill="#a2c5f9"
       id="path46" />
    <path
       d="m 1066.03,594.166 h -17.17 v 105.448 h 17.17 z"
       fill="#afcdfb"
       id="path48" />
    <path
       d="m 1035.9,209.673 c 0,4.927 7.43,8.907 16.56,8.907 0.68,0 1.4,-0.038 2.05,-0.075 8.19,-0.531 14.52,-4.284 14.52,-8.832 0,-4.548 -6.33,-8.301 -14.52,-8.832 -0.68,-0.037 -1.37,-0.075 -2.05,-0.075 -9.17,0 -16.56,4.017 -16.56,8.907 z"
       fill="#a2c5f9"
       id="path50" />
    <path
       d="m 1037.26,267.096 h 28.85 l 10.16,-48.82 h -47.61 z"
       fill="#afcdfb"
       id="path52" />
    <path
       d="m 1078.84,214.6 h -52.76 v 4.7 h 52.76 z"
       fill="#a2c5f9"
       id="path54" />
    <path
       d="m 1061.33,594.167 h -18.42 l 2.69,-8.149 c 0.23,-0.721 0.91,-1.213 1.67,-1.213 h 8.64 c 0.95,0 1.78,0.568 2.12,1.44 z"
       fill="#a2c5f9"
       id="path56" />
    <path
       d="m 1044.35,209.255 h 0.11 c 0.3,-3.79 4.32,-7.012 10.05,-8.414 7.92,0.53 14.1,4.056 14.47,8.414 h 2.7 l 3.75,5.345 h 3.37 v 4.7 h -33.16 v -4.7 h -4.89 z"
       fill="#afcdfb"
       id="path58" />
    <path
       d="m 1072.85,220.665 h -40.67 l 7.96,43.855 h 23.35 z"
       fill="#fcc13f"
       id="path60" />
    <path
       d="m 1035.17,220.95 h 36.31 l 406.62,489.2 H 561.715 Z"
       fill="url(#paint0_linear)"
       id="path62"
       style="fill:url(#paint0_linear)" />
    <path
       d="m 1067.93,210.204 c 0,0 -3.11,-6.747 -9.22,-6.558 0,0 3.91,3.45 3.53,6.558 -0.34,3.108 5.69,0 5.69,0 z"
       fill="#c7dcf9"
       id="path64" />
    <path
       d="m 1029.45,214.6 h 46.02 l -3.75,-5.344 h -38.7 z"
       fill="#a2c5f9"
       id="path66" />
    <path
       d="m 1070.16,222.18 h -9.32 l -2.73,40.973 h 2.73 z"
       fill="#d2e4f9"
       id="path68" />
    <path
       d="m 1342.38,671.641 c -30.13,10.234 -85.62,36.539 -149.38,18.686 -63.75,-17.852 -139.22,-2.312 -234.016,17.019 -0.454,0.076 -0.909,0.189 -1.402,0.265 l 526.218,-0.758 c -40.48,-45.674 -95.06,-50.942 -141.42,-35.212 z"
       fill="#5fa73e"
       id="path70" />
    <path
       d="M 905.242,693.094 C 853.466,709.241 799.036,689.759 699.464,674.18 599.891,658.602 560.168,707.649 560.168,707.649 l 484.222,-0.038 c -15.01,-14.972 -87.334,-30.626 -139.148,-14.517 z"
       fill="#5fa73e"
       id="path72" />
    <path
       d="m 1204.97,499.544 c 2.69,0 16.45,-17.567 24.68,-28.354 4.06,-5.343 6.96,-11.454 8.53,-17.967 l 2.35,-9.751 20.48,1.336 c 0,0 -7.23,24.479 -9.86,27.084 -0.04,0.033 -0.07,0.066 -0.1,0.1 -7.07,6.178 -32.91,28.854 -35.57,30.958 -3.65,2.872 -7.51,6.546 -7.51,10.92 0,4.375 -15.9,1.47 -15.9,-1.937 0.03,-3.406 9.01,-12.389 12.9,-12.389 z"
       fill="#ff8a63"
       id="path74" />
    <path
       d="m 1270.02,410.878 c 0,0 8.02,6.579 2.56,24.345 -5.46,17.767 -15.02,34.999 -15.02,34.999 0,0 -15.94,-5.276 -25.22,-14.46 0.03,0 10.65,-58.443 37.68,-44.884 z"
       fill="#d6007e"
       id="path76" />
    <path
       d="m 1262.14,591.684 -9.66,7.882 c 0,0 -7.65,-7.982 -17.61,-18.736 4.5,-2.938 9.25,-5.643 13.99,-8.349 7.54,11.222 13.28,19.203 13.28,19.203 z"
       fill="#ffba94"
       id="path78" />
    <path
       d="m 1250.7,594.457 c 0,0 6.11,2.137 7.17,0.701 1.09,-1.403 -0.31,-6.579 1.85,-6.88 2.15,-0.3 13.31,7.08 13.65,9.285 0.3,2.204 1.5,5.076 0.37,6.512 -1.12,1.436 -26.31,23.41 -30.78,25.781 -4.51,2.338 -8.67,-3.373 -4.54,-7.313 4.13,-3.941 2.01,-28.287 12.28,-28.086 z"
       fill="#352e73"
       id="path80" />
    <path
       d="m 1273.63,607.013 c 0.62,-0.701 0.65,-1.77 0,-2.505 -0.71,-0.801 -1.94,-0.901 -2.76,-0.2 l -16.45,13.926 c -0.82,0.701 -0.92,1.904 -0.21,2.705 0.72,0.802 1.95,0.902 2.77,0.2 l 16.45,-13.926 c 0.07,-0.066 0.14,-0.133 0.2,-0.2 z"
       fill="#2d255d"
       id="path82" />
    <path
       d="m 1240.42,648.559 c 0.35,0 0.65,-0.167 0.82,-0.468 l 20.04,-31.659 c 0.27,-0.434 0.14,-1.035 -0.31,-1.302 -0.44,-0.267 -1.06,-0.134 -1.33,0.3 l -20.03,31.66 c -0.28,0.434 -0.14,1.035 0.3,1.302 0.17,0.134 0.34,0.167 0.51,0.167 z"
       fill="#000000"
       id="path84" />
    <path
       d="m 1265.07,599.901 c 1.98,-2.104 4.2,-3.674 6.25,-4.809 1.16,1.002 2.28,2.371 2.56,2.872 1.26,2.338 0.95,4.675 -0.14,6.111 -1.13,1.436 -26.32,23.411 -30.79,25.782 -2.42,1.269 -4.78,0.167 -5.73,-1.703 0.92,-0.234 2.01,-0.702 3.24,-1.537 4.17,-2.805 18.98,-20.705 24.61,-26.716 z"
       fill="#f3ffff"
       id="path86" />
    <path
       d="m 1285.07,494.734 c 0,0 -85.91,15.696 -89.29,38.907 -2.15,14.661 45.43,61.448 45.43,61.448 l 15.36,-10.787 c 0,0 -22.7,-35.366 -25.29,-40.075 -4.34,-7.781 54.81,-5.811 58.09,-9.017 3.24,-3.239 -4.3,-40.476 -4.3,-40.476 z"
       fill="#2ba14c"
       id="path88" />
    <path
       opacity="0.32"
       d="m 1285.07,494.734 c 0,0 -8.97,1.637 -21.26,4.642 -3.28,10.387 -7.34,26.918 -9.9,38.84 5.97,-0.401 12.36,-0.701 17.99,-1.002 5.01,-3.907 9.01,-7.447 10.07,-8.483 1.91,-1.87 3.78,-13.759 5.05,-23.477 -1.03,-6.045 -1.95,-10.52 -1.95,-10.52 z"
       fill="#2ba14c"
       id="path90" />
    <path
       d="m 1198.13,647.921 c 1.61,0 2.94,-1.269 2.94,-2.872 0,-38.105 -31.68,-69.13 -70.66,-69.13 -16.69,0 -32.9,5.811 -45.63,16.331 -1.23,1.035 -1.4,2.838 -0.34,4.041 1.06,1.202 2.9,1.369 4.13,0.334 11.67,-9.652 26.52,-14.995 41.84,-14.995 35.74,0 64.79,28.42 64.79,63.385 0,1.603 1.29,2.906 2.93,2.906 z"
       fill="#fc008b"
       id="path92" />
    <path
       d="m 1263.91,645.05 c 0,-33.73 28.06,-61.182 62.53,-61.182 34.47,0 62.56,27.452 62.56,61.182 0,33.73 -28.05,61.181 -62.56,61.181 -34.51,0 -62.53,-27.451 -62.53,-61.181 z m 7.85,0 c 0,29.522 24.54,53.533 54.71,53.533 30.18,0 54.72,-24.011 54.72,-53.533 0,-29.522 -24.54,-53.534 -54.72,-53.534 -30.17,0 -54.71,24.012 -54.71,53.534 z"
       fill="#2d2861"
       id="path94" />
    <path
       d="m 1269.16,645.05 c 0,-30.924 25.7,-56.071 57.31,-56.071 31.6,0 57.3,25.147 57.3,56.071 0,30.925 -25.7,56.072 -57.3,56.072 -31.61,0 -57.31,-25.147 -57.31,-56.072 z m 2.94,0 c 0,29.322 24.37,53.2 54.37,53.2 29.96,0 54.37,-23.845 54.37,-53.2 0,-29.321 -24.37,-53.199 -54.37,-53.199 -29.97,0 -54.37,23.878 -54.37,53.199 z"
       fill="#7271b3"
       id="path96" />
    <g
       opacity="0.57"
       id="g100">
      <path
         opacity="0.57"
         d="m 1277.94,645.051 c 0,-26.183 21.77,-47.489 48.53,-47.489 26.76,0 48.54,21.306 48.54,47.489 0,26.182 -21.78,47.489 -48.54,47.489 -26.76,0 -48.53,-21.307 -48.53,-47.489 z m 1.94,0 c 0,25.147 20.89,45.585 46.59,45.585 25.7,0 46.59,-20.438 46.59,-45.585 0,-25.148 -20.89,-45.586 -46.59,-45.586 -25.7,0 -46.59,20.438 -46.59,45.586 z"
         fill="#f3ffff"
         id="path98" />
    </g>
    <g
       opacity="0.57"
       id="g104">
      <path
         opacity="0.57"
         d="m 1326.47,686.561 c 23.42,0 42.43,-18.635 42.43,-41.511 0,-6.679 -1.57,-13.058 -4.68,-18.969 -0.24,-0.468 -0.82,-0.668 -1.33,-0.401 -0.48,0.234 -0.68,0.802 -0.41,1.303 2.97,5.644 4.47,11.722 4.47,18.1 0,21.841 -18.16,39.608 -40.48,39.608 -5.87,0 -11.53,-1.202 -16.83,-3.573 -0.47,-0.234 -1.05,0 -1.29,0.467 -0.24,0.468 0,1.035 0.48,1.269 5.56,2.471 11.5,3.707 17.64,3.707 z"
         fill="#f3ffff"
         id="path102" />
    </g>
    <path
       d="m 1296.2,618.266 c 0.27,0 0.51,-0.1 0.71,-0.301 7.61,-7.981 18.4,-12.523 29.56,-12.523 0.55,0 0.99,-0.434 0.99,-0.969 0,-0.534 -0.44,-0.968 -0.99,-0.968 -11.71,0 -22.97,4.776 -30.99,13.125 -0.38,0.4 -0.34,1.001 0.03,1.335 0.21,0.234 0.45,0.301 0.69,0.301 z"
       fill="#f3ffff"
       id="path106" />
    <path
       d="m 1282.75,597.327 c 0.68,0 1.33,-0.234 1.88,-0.668 11.67,-9.652 26.52,-14.995 41.84,-14.995 12.94,0 25.4,3.707 36.08,10.72 1.33,0.868 3.17,0.534 4.06,-0.768 0.89,-1.303 0.55,-3.106 -0.78,-3.974 -11.64,-7.648 -25.26,-11.689 -39.36,-11.689 -16.69,0 -32.9,5.811 -45.63,16.331 -1.23,1.035 -1.4,2.839 -0.34,4.041 0.58,0.668 1.4,1.002 2.25,1.002 z"
       fill="#fc008b"
       id="path108" />
    <path
       d="m 1243.63,643.747 c 0.85,0 1.67,-0.434 2.15,-1.235 l 53.89,-94.311 c 0.65,-1.168 0.24,-2.605 -0.96,-3.239 -1.19,-0.635 -2.66,-0.234 -3.31,0.935 l -53.89,94.31 c -0.65,1.169 -0.24,2.605 0.96,3.24 0.34,0.2 0.75,0.3 1.16,0.3 z"
       fill="#fc008b"
       id="path110" />
    <path
       d="m 1238.98,648.422 c 90.76,-1.536 88.34,0.201 89.63,-2.27 0.93,-1.737 3.42,3.606 -43.89,-76.177 l -102.63,-18.534 c -1.57,-0.268 -2.97,0.935 -2.87,2.504 0.07,1.203 -0.85,-0.801 59.76,94.477 z m -52.32,-91.304 94.99,17.165 40.62,68.429 -80.56,0.901 z"
       fill="#fc008b"
       id="path112" />
    <path
       d="m 1182.09,551.441 4.95,0.902 -4.48,7.547 c -3.48,-5.51 -3.34,-5.477 -3.37,-5.978 -0.07,-1.536 1.36,-2.772 2.9,-2.471 z"
       fill="#d6007e"
       id="path114" />
    <path
       d="m 1295.36,545.864 c 0.65,-1.169 2.15,-1.57 3.32,-0.935 1.19,0.634 1.6,2.104 0.95,3.239 l -3.07,5.343 -5.05,-0.968 z"
       fill="#d6007e"
       id="path116" />
    <path
       d="m 1326.47,638.673 c 0.41,0 0.72,-0.301 0.75,-0.701 0.03,-0.401 -0.31,-0.768 -0.72,-0.768 l -86.11,-3.908 c -0.41,-0.033 -0.79,0.301 -0.79,0.702 -0.03,0.4 0.31,0.768 0.72,0.768 l 86.11,3.907 z"
       fill="#352e73"
       id="path118" />
    <path
       d="m 1239.14,656.804 h 0.03 l 87.34,-3.907 c 0.41,-0.034 0.75,-0.368 0.72,-0.769 -0.03,-0.4 -0.38,-0.734 -0.79,-0.701 l -87.34,3.907 c -0.41,0.034 -0.75,0.368 -0.71,0.768 0.03,0.401 0.34,0.702 0.75,0.702 z"
       fill="#352e73"
       id="path120" />
    <path
       d="m 1254.38,644.616 c 0.28,7.949 -6.38,14.427 -14.47,14.16 -7.34,-0.234 -13.34,-6.078 -13.58,-13.291 -0.27,-7.949 6.38,-14.427 14.5,-14.194 7.34,0.267 13.32,6.112 13.55,13.325 z"
       fill="#352e73"
       id="path122" />
    <path
       d="m 1228.1,651.796 8.16,-19.871 c 1.3,-0.4 2.66,-0.601 4.09,-0.601 4.13,0 7.85,1.737 10.41,4.542 -0.54,3.206 -1.36,6.145 -2.49,6.713 -2.62,1.335 -5.01,7.714 -6.52,11.521 -0.58,1.47 -1.19,3.139 -1.77,4.676 -5.09,-0.101 -9.52,-2.906 -11.88,-6.98 z"
       fill="#352e73"
       id="path124" />
    <path
       d="m 1220.32,678.645 c 0.34,0 0.64,-0.167 0.81,-0.468 l 20.04,-31.659 c 0.27,-0.434 0.14,-1.035 -0.31,-1.302 -0.44,-0.267 -1.06,-0.134 -1.33,0.3 l -20.03,31.659 c -0.28,0.435 -0.14,1.036 0.3,1.303 0.17,0.1 0.34,0.167 0.52,0.167 z"
       fill="#000000"
       id="path126" />
    <path
       d="m 1219.5,681.918 c 0.95,0.067 1.81,-0.568 2.01,-1.536 0.21,-1.036 -0.44,-2.037 -1.5,-2.271 l -21.26,-4.342 c -1.06,-0.2 -2.09,0.434 -2.33,1.47 -0.2,1.035 0.45,2.037 1.51,2.271 l 21.26,4.308 c 0.14,0.067 0.24,0.1 0.31,0.1 z"
       fill="#352e73"
       id="path128" />
    <path
       d="m 1310.98,542.49 h -19.05 c -1.39,0 -2.55,1.136 -2.55,2.505 v 3.006 c 0,1.369 1.16,2.504 2.55,2.504 H 1316 c 1.87,0 3.17,-1.937 2.32,-3.573 -1.37,-2.638 -4.13,-4.442 -7.34,-4.442 z"
       fill="#352e73"
       id="path130" />
    <path
       d="m 1235.13,663.35 -12.22,-2.805 c 0,0 1.95,-10.787 4.71,-25.047 5.12,1.737 10.14,3.841 15.23,5.911 -4.64,12.657 -7.72,21.941 -7.72,21.941 z"
       fill="#ff8a63"
       id="path132" />
    <path
       d="m 1225.99,656.069 c 0,0 1.94,6.045 3.72,6.045 1.81,0 5.18,-4.208 6.72,-2.705 1.54,1.503 2.22,14.661 0.61,16.23 -1.6,1.57 -3.24,4.208 -5.08,4.208 -1.84,0 -34.95,-6.479 -39.56,-8.583 -4.61,-2.104 -2.46,-8.783 3.24,-7.948 5.7,0.902 24.34,-15.395 30.35,-7.247 z"
       fill="#352e73"
       id="path134" />
    <path
       d="m 1230.18,670.597 c 2.91,0.267 5.53,1.069 7.68,2.004 -0.13,1.503 -0.54,3.206 -0.82,3.74 -1.16,2.405 -3.24,3.573 -5.08,3.573 -1.84,0 -34.95,-6.478 -39.56,-8.582 -2.49,-1.136 -3,-3.64 -2.05,-5.544 0.75,0.568 1.81,1.136 3.18,1.603 4.84,1.57 28.36,2.371 36.65,3.206 z"
       fill="#f3ffff"
       id="path136" />
    <path
       d="m 1272.89,495.035 27.92,-9.651 c 0,0 20.72,18.067 16.93,30.123 -3.79,12.056 -34.58,42.179 -49.36,67.093 -8.77,14.761 -21.6,57.741 -28.36,76.176 -5.09,-2.071 -15.56,-7.615 -20.68,-9.351 4.77,-24.68 20.34,-73.772 24.47,-81.687 6.52,-12.456 29.08,-72.703 29.08,-72.703 z"
       fill="#8cd334"
       id="path138" />
    <path
       opacity="0.32"
       d="m 1272.07,497.206 c 5.43,-4.175 23.01,-5.811 34.2,-6.412 5.84,6.278 13.96,16.798 11.47,24.746 -0.03,0.067 -0.03,0.134 -0.07,0.167 -11.81,-1.569 -43.92,-6.612 -47.03,-14.694 0.58,-1.536 1.09,-2.805 1.43,-3.807 z"
       fill="#2ba14c"
       id="path140" />
    <path
       d="m 1245.34,416.621 c -0.71,1.937 -1.39,3.908 -1.91,5.778 -2.45,8.616 -3.58,26.951 0,33.162 3.59,6.212 22.5,44.049 27.85,45.819 5.36,1.737 40.89,9.118 50.59,2.472 6.41,-4.375 -22.19,-74.373 -30.17,-90.336 -3.32,-6.646 -11.23,-10.053 -18.91,-11.221 -1.74,-0.268 -24.03,5.176 -27.45,14.326 z"
       fill="#fc008b"
       id="path142" />
    <path
       d="m 1247.39,387.065 1.92,15.162 c 0,0 1.05,11.989 1.57,12.39 4.95,3.841 21.91,-12.323 21.91,-12.323 l -11.78,-20.138 z"
       fill="#ff8a63"
       id="path144" />
    <path
       opacity="0.68"
       d="m 1263.67,386.832 -2.66,-4.676 -13.58,4.909 1.91,15.162 c 1.77,-0.501 3.34,-1.135 4.6,-2.004 3.62,-2.404 7.27,-7.681 9.73,-13.391 z"
       fill="#ff4900"
       id="path146" />
    <path
       d="m 1248.59,353.002 c 0,0 -0.69,-0.267 -4.58,4.942 -2.76,3.707 -4.44,8.149 -6.18,12.39 -2.56,6.312 -4.71,13.192 -2.76,19.938 1.02,3.54 15.6,4.508 21.47,1.469 5.87,-3.072 11.33,-12.891 10.95,-19.871 -0.3,-6.979 -16.28,-20.238 -18.9,-18.868 z"
       fill="#ff8a63"
       id="path148" />
    <path
       opacity="0.68"
       d="m 1240.8,363.454 c 0.92,-1.937 1.94,-3.774 3.24,-5.477 1.13,-1.503 1.98,-2.538 2.63,-3.273 4.26,1.67 9.96,4.175 13.34,5.677 0.92,0.902 1.81,1.837 2.63,2.772 l -2.56,13.292 -2.83,-6.512 c 0,0 -2.6,-4.809 -8.53,-6.012 -3.11,-0.701 -5.94,-0.668 -7.92,-0.467 z"
       fill="#ff4900"
       id="path150" />
    <path
       d="m 1258.21,387.032 c 0.89,1.871 2.39,2.371 6.97,2.472 5.87,0.1 11.67,-4.242 13.17,-12.19 4.54,-24.312 -19.01,-30.257 -25.09,-32.561 -2.25,-0.868 -4.02,-0.167 -5.39,1.102 -2.15,2.004 -5.05,2.972 -7.95,2.505 -1.26,-0.201 -4.68,-0.267 -5.6,1.636 -2.63,5.444 -2.7,11.121 7.24,11.121 22.49,0 14.91,22.309 16.65,25.915 z"
       fill="#2d2861"
       id="path152" />
    <path
       d="m 1257.26,373.24 c 0,0 3.89,-6.746 5.01,-2.571 1.13,4.141 0.11,12.456 -4.19,9.952 -4.31,-2.472 -0.82,-7.381 -0.82,-7.381 z"
       fill="#ff8a63"
       id="path154" />
    <path
       d="m 1326.47,655.269 c 5.77,0 10.45,-4.575 10.45,-10.219 0,-5.644 -4.68,-10.219 -10.45,-10.219 -5.77,0 -10.44,4.575 -10.44,10.219 0,5.644 4.67,10.219 10.44,10.219 z"
       fill="#352e73"
       id="path156" />
    <path
       d="m 1335.38,644.481 c 0.34,5.277 -4.09,9.618 -9.49,9.284 -4.43,-0.267 -8.05,-3.807 -8.32,-8.148 -0.35,-5.277 4.09,-9.618 9.48,-9.284 4.44,0.267 8.06,3.807 8.33,8.148 z"
       fill="#adeff7"
       id="path158" />
    <path
       d="m 1323.99,644.615 c -0.28,1.703 1.19,3.14 2.93,2.839 1.06,-0.167 1.88,-1.002 2.05,-2.004 0.27,-1.703 -1.2,-3.139 -2.94,-2.872 -1.02,0.2 -1.87,1.035 -2.04,2.037 z"
       fill="#f3ffff"
       id="path160" />
    <g
       opacity="0.57"
       id="g164">
      <path
         opacity="0.57"
         d="m 1131.45,686.561 c 23.42,0 42.43,-18.635 42.43,-41.511 0,-6.679 -1.57,-13.058 -4.68,-18.969 -0.24,-0.468 -0.82,-0.668 -1.33,-0.401 -0.48,0.234 -0.68,0.802 -0.41,1.303 2.97,5.644 4.47,11.722 4.47,18.1 0,21.841 -18.16,39.608 -40.48,39.608 -5.87,0 -11.53,-1.202 -16.82,-3.573 -0.48,-0.234 -1.06,0 -1.3,0.467 -0.24,0.468 0,1.035 0.48,1.269 5.56,2.471 11.5,3.707 17.64,3.707 z"
         fill="#f3ffff"
         id="path162" />
    </g>
    <path
       d="m 1068.91,645.05 c 0,-33.73 28.06,-61.182 62.57,-61.182 34.47,0 62.56,27.452 62.56,61.182 0,33.73 -28.06,61.181 -62.56,61.181 -34.51,0 -62.57,-27.451 -62.57,-61.181 z m 7.82,0 c 0,29.522 24.54,53.533 54.71,53.533 30.18,0 54.72,-24.011 54.72,-53.533 0,-29.522 -24.54,-53.534 -54.72,-53.534 -30.17,0 -54.71,24.012 -54.71,53.534 z"
       fill="#2d2861"
       id="path166" />
    <path
       d="m 1074.13,645.05 c 0,-30.924 25.7,-56.071 57.31,-56.071 31.61,0 57.31,25.147 57.31,56.071 0,30.925 -25.7,56.072 -57.31,56.072 -31.61,0 -57.31,-25.147 -57.31,-56.072 z m 2.94,0 c 0,29.322 24.37,53.2 54.37,53.2 29.97,0 54.37,-23.845 54.37,-53.2 0,-29.321 -24.37,-53.199 -54.37,-53.199 -29.97,0 -54.37,23.878 -54.37,53.199 z"
       fill="#7271b3"
       id="path168" />
    <g
       opacity="0.57"
       id="g172">
      <path
         opacity="0.57"
         d="m 1082.91,645.051 c 0,-26.183 21.78,-47.489 48.54,-47.489 26.75,0 48.53,21.306 48.53,47.489 0,26.182 -21.78,47.489 -48.53,47.489 -26.76,0 -48.54,-21.307 -48.54,-47.489 z m 1.95,0 c 0,25.147 20.88,45.585 46.59,45.585 25.7,0 46.58,-20.438 46.58,-45.585 0,-25.148 -20.88,-45.586 -46.58,-45.586 -25.67,0 -46.59,20.438 -46.59,45.586 z"
         fill="#f3ffff"
         id="path170" />
    </g>
    <path
       d="m 1130.42,647.456 c 0.86,0 1.71,-0.434 2.15,-1.236 l 65.78,-117.186 c 0.61,-1.136 0.95,-2.405 0.95,-3.674 v -7.581 c 0,-1.503 1.03,-2.237 1.47,-2.471 0.44,-0.234 1.6,-0.735 2.93,0.033 l 11.47,6.713 c 1.16,0.668 2.67,0.3 3.35,-0.835 0.68,-1.136 0.3,-2.605 -0.86,-3.273 l -11.46,-6.712 c -2.43,-1.437 -5.36,-1.47 -7.85,-0.101 -2.46,1.37 -3.96,3.841 -3.96,6.613 v 7.614 c 0,0.468 -0.14,0.935 -0.38,1.369 l -65.8,117.153 c -0.65,1.169 -0.21,2.605 0.95,3.24 0.45,0.234 0.85,0.334 1.26,0.334 z"
       fill="#fc008b"
       id="path174" />
    <path
       d="m 1131.45,655.269 c 5.77,0 10.45,-4.575 10.45,-10.219 0,-5.644 -4.68,-10.219 -10.45,-10.219 -5.77,0 -10.44,4.575 -10.44,10.219 0,5.644 4.71,10.219 10.44,10.219 z"
       fill="#352e73"
       id="path176" />
    <path
       d="m 1140.36,644.481 c 0.34,5.277 -4.1,9.618 -9.49,9.284 -4.44,-0.267 -8.06,-3.807 -8.33,-8.148 -0.34,-5.277 4.1,-9.618 9.49,-9.284 4.44,0.267 8.06,3.807 8.33,8.148 z"
       fill="#adeff7"
       id="path178" />
    <path
       d="m 1128.95,644.615 c -0.27,1.703 1.2,3.14 2.94,2.839 1.06,-0.167 1.88,-1.002 2.05,-2.004 0.27,-1.703 -1.2,-3.139 -2.94,-2.872 -1.02,0.2 -1.87,1.035 -2.05,2.037 z"
       fill="#f3ffff"
       id="path180" />
    <path
       d="m 1274.49,402.493 c 18.94,-11.488 47.34,7.481 45.98,11.889 21.84,18.168 25.66,32.595 32.63,46.254 6.92,13.625 -2.84,19.303 -15.94,25.381 -13.11,6.111 -21.2,-8.349 -27.45,-21.374 -6.24,-13.024 -35.97,-59.177 -35.22,-62.15 z"
       fill="#fcc13f"
       id="path182" />
    <path
       d="m 1320.46,414.384 c -10.55,5.811 -25.33,11.889 -35.94,-8.282 9.97,21.44 22.46,15.228 27.44,14.226 4.98,-1.002 8.5,-5.944 8.5,-5.944 z"
       fill="#fcc13f"
       id="path184" />
    <path
       d="m 1339.07,445.576 c 4.36,6.412 12.86,20.238 9.25,24.012 -3.59,3.774 -14.27,9.184 -18.13,3.64 -3.86,-5.544 -9.76,-19.102 -9.76,-19.102 12.22,-2.104 18.64,-8.55 18.64,-8.55 z"
       fill="#fcc13f"
       id="path186" />
    <path
       d="m 1340.78,456.23 c -3.55,2.938 -10.45,6.679 -14.13,5.209 -1.81,-0.734 -3.59,-2.137 -4.51,-3.606 -0.75,-1.804 -0.85,-3.373 -0.78,-2.839 12.18,-2.137 18.29,-8.249 18.29,-8.249 0.99,2.572 4.68,6.546 1.13,9.485 z"
       fill="#ffb9ab"
       id="path188" />
    <path
       d="m 1339.92,455.395 c -3.55,2.938 -10.44,6.679 -14.13,5.209 -1.81,-0.734 -3.21,-2.337 -4.13,-3.807 -0.71,-1.603 -1.19,-2.671 -1.19,-2.671 12.18,-2.138 18.6,-8.55 18.6,-8.55 1.06,2.572 4.4,6.88 0.85,9.819 z"
       fill="#fee2bf"
       id="path190" />
    <path
       d="m 1282.31,405.4 c -17.92,-5.544 -27.62,6.278 -25.29,22.742 12.69,37.838 65.46,52.8 65.46,52.8 l -6.45,-12.991 c 0,0 -21.81,-2.004 -44.06,-25.482 -15.33,-16.163 -11.68,-21.406 -6.25,-26.282 8.77,-7.882 17.06,-2.639 17.06,-2.639 z"
       fill="#fcc13f"
       id="path192" />
    <path
       opacity="0.5"
       d="m 1281.59,423.234 c 0,0 8.23,6.913 2.77,24.713 -5.46,17.767 -8.67,26.85 -15.22,34.632 -0.79,0.935 -5.98,1.169 -6.46,1.636 -0.03,0.033 -0.06,0.067 -0.1,0.1 -0.65,0.568 -1.43,1.236 -2.32,2.037 -3.72,-6.345 -7.64,-13.625 -10.82,-19.636 5.63,-13.426 24.88,-49.794 32.15,-43.482 z"
       fill="#d6007e"
       id="path194" />
    <path
       d="m 1213.26,506.089 c 2.69,0 16.45,-17.566 24.67,-28.353 4.07,-5.343 6.97,-11.455 8.54,-17.967 l 2.35,-9.751 20.48,1.335 c 0,0 -7.23,24.48 -9.86,27.085 -0.04,0.033 -0.07,0.066 -0.11,0.1 -7.06,6.178 -32.9,28.854 -35.56,30.958 -3.65,2.872 -7.51,6.545 -7.51,10.92 0,4.375 -15.9,1.47 -15.9,-1.937 0.03,-3.406 9.01,-12.39 12.9,-12.39 z"
       fill="#ff8a63"
       id="path196" />
    <path
       d="m 1219.71,498.841 c 1.77,-3.406 23.41,-37.336 24.3,-41.077 l 2.35,-9.751 20.48,1.336 c 0,0 -19.45,11.187 -22.46,16.23 -4.84,3.406 -19.86,33.93 -24.67,33.262 z"
       fill="#ef7352"
       id="path198" />
    <path
       d="m 1278.31,417.456 c 0,0 8.02,6.579 2.56,24.345 -5.46,17.767 -15.01,34.999 -15.01,34.999 0,0 -15.94,-5.276 -25.23,-14.46 0.04,0 10.65,-58.443 37.68,-44.884 z"
       fill="#d6007e"
       id="path200" />
    <path
       d="m 1243.84,383.687 -7.8,-1.875 c 0,0 -0.52,3.024 2.87,3.954 4.14,1.111 4.93,-2.079 4.93,-2.079 z"
       fill="#ffffff"
       id="path202" />
    <path
       d="M 1515.49,717.214 H 536.478 c -0.644,0 -1.181,-1.986 -1.181,-4.369 v -2.912 c 0,-2.383 0.537,-4.369 1.181,-4.369 h 979.042 c 0.65,0 1.19,1.986 1.19,4.369 v 2.912 c -0.04,2.516 -0.58,4.369 -1.22,4.369 z"
       fill="#283250"
       id="path204" />
    <path
       d="m 918.605,706.743 h 7.987 v -53.266 c 0,-20.191 16.39,-36.617 36.537,-36.617 20.146,0 36.536,16.426 36.536,36.617 v 53.266 h 7.985 v -53.266 c 0,-24.597 -19.978,-44.621 -44.521,-44.621 -24.544,0 -44.524,20.024 -44.524,44.621 z"
       fill="#242945"
       id="path206" />
    <path
       d="m 689.585,644.526 c 2.198,0 3.979,-1.785 3.979,-3.988 v -99.811 c 0,-2.203 -1.781,-3.988 -3.979,-3.988 -2.199,0 -3.98,1.785 -3.98,3.988 v 99.783 c 0,2.203 1.781,4.016 3.98,4.016 z"
       fill="#242945"
       id="path208" />
    <path
       d="m 935.495,644.526 c 2.199,0 3.979,-1.785 3.979,-3.988 v -99.811 c 0,-2.203 -1.78,-3.988 -3.979,-3.988 -2.198,0 -3.979,1.785 -3.979,3.988 v 99.783 c -0.028,2.203 1.781,4.016 3.979,4.016 z"
       fill="#242945"
       id="path210" />
    <path
       d="m 671.802,628.519 h 286.645 c 2.003,0 3.645,-1.645 3.645,-3.653 V 607.52 c 0,-2.008 -1.642,-3.654 -3.645,-3.654 H 671.802 c -2.004,0 -3.646,1.646 -3.646,3.654 v 17.346 c 0,2.008 1.642,3.653 3.646,3.653 z"
       fill="#1b3764"
       id="path212" />
    <path
       d="m 682.242,645.53 h 314.973 c 2.755,0 5.005,-2.231 5.005,-5.02 0,-2.761 -2.222,-5.02 -5.005,-5.02 H 682.242 Z"
       fill="#1b3764"
       id="path214" />
    <path
       d="m 669.774,599.459 h 286.645 c 2.004,0 3.646,-1.645 3.646,-3.653 V 578.46 c 0,-2.008 -1.642,-3.653 -3.646,-3.653 H 669.774 c -2.003,0 -3.645,1.645 -3.645,3.653 v 17.346 c 0,2.036 1.642,3.653 3.645,3.653 z"
       fill="#1b3764"
       id="path216" />
    <path
       d="m 667.048,569.369 h 286.645 c 2.003,0 3.645,-1.646 3.645,-3.654 v -17.346 c 0,-2.008 -1.642,-3.653 -3.645,-3.653 H 667.048 c -2.004,0.028 -3.646,1.645 -3.646,3.653 v 17.346 c 0,2.008 1.642,3.654 3.646,3.654 z"
       fill="#1b3764"
       id="path218" />
    <path
       d="m 678.039,706.743 h 7.986 v -53.266 c 0,-20.191 16.39,-36.617 36.537,-36.617 20.147,0 36.565,16.426 36.565,36.617 v 53.266 h 7.986 v -53.266 c 0,-24.597 -19.98,-44.621 -44.523,-44.621 -24.543,0 -44.523,20.024 -44.523,44.621 v 53.266 z"
       fill="#242945"
       id="path220" />
    <path
       d="m 951.188,520.994 0.075,1.933 0.076,1.402 0.379,9.021 0.038,0.759 0.19,4.51 h 12.432 l 0.265,-4.51 0.038,-0.759 0.569,-9.021 0.076,-1.402 0.151,-2.54 -0.038,-0.075 c 0,0 -2.88,-0.531 -4.624,0.568 -1.744,1.099 -3.639,-1.061 -5.231,-0.417 -1.592,0.645 -1.705,1.441 -2.956,0.91 -0.303,-0.19 -0.834,-0.303 -1.44,-0.379 z"
       fill="#e37970"
       id="path222" />
    <path
       opacity="0.2"
       d="m 951.156,519.668 0.038,1.327 0.114,1.933 0.038,1.44 0.417,8.983 0.038,0.796 0.189,4.511 h 12.395 l 0.303,-4.511 0.038,-0.796 0.568,-8.983 0.076,-1.44 0.19,-2.54 0.038,-0.72 z"
       fill="#e37970"
       id="path224" />
    <path
       opacity="0.2"
       d="m 951.078,519.667 c 0,-0.076 0,-0.151 0,-0.227 0,-3.98 3.222,-7.24 7.24,-7.24 3.98,0 7.239,3.222 7.239,7.24 0,0.076 0,0.151 0,0.227 z"
       fill="#e37970"
       id="path226" />
    <path
       d="m 959.566,537.52 0.644,-0.076 c -0.038,-0.379 -2.047,-27.139 -2.388,-28.92 -0.341,-1.971 -2.236,-2.54 -2.312,-2.577 h -0.038 l -10.12,-1.782 -0.114,0.606 10.083,1.782 c 0.189,0.038 1.592,0.569 1.857,2.047 0.303,1.781 2.35,28.806 2.388,28.92 z"
       fill="#80bdcc"
       id="path228" />
    <path
       d="m 951.305,522.928 0.038,1.44 0.417,8.983 h 12.963 l 0.568,-8.983 0.076,-1.44 z"
       fill="#163560"
       id="path230" />
    <path
       d="m 971.543,701.567 c 0.683,3.488 5.686,2.919 11.22,1.555 5.534,-1.365 4.245,0.265 12.129,-0.607 7.888,-0.872 10.308,-3.828 10.538,-5.003 0.23,-1.024 -3.68,-1.403 -7.885,-1.895 -0.53,-0.076 -1.061,-0.114 -1.592,-0.19 -4.738,-0.606 -8.187,-3.639 -12.47,-6.14 -4.056,-2.388 -10.158,-12.054 -10.158,-12.054 l -10.841,0.872 c 0,0 5.686,8.642 7.884,12.395 1.289,2.198 1.213,5.117 1.062,7.391 -0.038,1.175 -0.114,2.464 0.113,3.676 z"
       fill="#e49963"
       id="path232" />
    <path
       d="m 982.761,703.122 c 5.533,-1.364 4.245,0.265 12.129,-0.606 7.88,-0.872 10.31,-3.829 10.54,-5.004 0.22,-1.023 -3.68,-1.402 -7.887,-1.895 l -0.038,0.076 c 0,0 -4.738,3.373 -11.333,3.525 -5.345,0.114 -11.03,-1.402 -14.745,-1.327 -0.075,1.213 -0.151,2.464 0.076,3.715 0.758,3.449 5.724,2.881 11.258,1.516 z"
       fill="#c65447"
       id="path234" />
    <path
       d="m 947.43,542.41 c 0,0 2.577,-6.329 5.42,-6.595 2.843,-0.265 11.864,-1.668 12.508,-0.379 0.644,1.289 0,5.951 -1.933,7.619 -1.933,1.668 -13.949,4.397 -13.949,4.397 z"
       fill="#e49963"
       id="path236" />
    <path
       d="m 875.427,687.384 c -0.74,1.061 -0.747,2.124 -0.235,3.246 0.969,2.067 3.737,4.179 6.941,6.25 0.391,0.255 0.782,0.51 1.096,0.736 0.08,0.065 0.16,0.131 0.239,0.196 0.076,0.03 0.12,0.099 0.196,0.128 3.003,2.273 2.007,2.955 7.477,7.626 6.192,5.333 10.121,5.062 11.157,4.413 0.898,-0.563 -1.324,-3.461 -3.769,-6.777 -0.126,-0.171 -0.249,-0.305 -0.339,-0.48 -0.336,-0.443 -0.636,-0.89 -0.972,-1.334 -2.875,-3.97 -2.451,-6.025 -2.438,-12.325 -0.021,-5.125 5.155,-29.211 5.155,-29.211 l -10.992,-0.804 c 0,0 -1.463,18.929 -4.777,22.143 -1.775,1.71 -3.913,1.954 -5.654,3.258 -0.138,0.087 -0.24,0.17 -0.375,0.293 -0.949,0.787 -1.934,1.579 -2.71,2.642 z"
       fill="#e49963"
       id="path238" />
    <path
       d="m 875.427,687.384 c -0.74,1.06 -0.747,2.123 -0.235,3.245 1.15,2.05 3.846,4.169 6.941,6.25 0.394,0.291 0.745,0.513 1.064,0.776 0.079,0.065 0.159,0.131 0.238,0.196 0.076,0.03 0.12,0.099 0.196,0.128 3.003,2.273 2.007,2.955 7.477,7.626 6.193,5.333 10.122,5.062 11.157,4.413 0.898,-0.563 -1.323,-3.461 -3.769,-6.777 -1.127,-0.293 -6.443,-1.866 -10.767,-6.428 -3.828,-3.987 -6.619,-9.357 -9.253,-12.361 -0.139,0.086 -0.24,0.169 -0.375,0.292 -0.913,0.784 -1.898,1.576 -2.674,2.64 z"
       fill="#c65447"
       id="path240" />
    <path
       d="m 920.956,612.529 -22.643,60.367 c 0,0 -3.464,0.317 -6.742,-0.641 -3.059,-0.884 -6.515,-3.192 -6.515,-3.192 0,0 5.758,-58.013 16.003,-70.047 10.207,-12.07 19.897,13.513 19.897,13.513 z"
       fill="#274989"
       id="path242" />
    <path
       d="m 837.628,606.847 c 0,0 51.36,-24.069 82.062,-17.853 15.426,3.109 59.887,94.229 59.887,94.229 0,0 -1.023,1.364 -3.79,2.388 -2.578,0.947 -8.794,0.909 -8.794,0.909 0,0 -40.557,-34.757 -45.37,-44.915 -4.814,-10.158 -6.747,-19.786 -11.599,-18.838 -4.814,0.947 -62.275,23.651 -75.314,10.158 -13.039,-13.532 -9.628,-31.081 -9.628,-31.081 z"
       fill="#3d5daf"
       id="path244" />
    <path
       d="m 878.636,501.285 c 1.062,-2.199 2.275,-6.141 2.843,-13.153 -0.076,0.683 -1.289,9.514 -4.7,14.517 -13.948,9.173 -40.708,39.761 -40.178,45.56 0,0 -9.438,-15.995 -9.589,-16.071 0,0 -17.398,-22.097 3.222,-34.757 10.461,-6.444 10.423,-14.707 9.968,-21.871 -0.455,-7.163 6.103,-38.093 27.063,-30.019 0,0 3.374,-1.479 4.89,-1.289 0,0 -1.213,0.227 -1.857,0.872 2.425,-0.152 8.755,1.44 11.977,7.353 3.715,6.709 8.187,37.979 -3.639,48.858 z"
       fill="#163560"
       id="path246" />
    <path
       d="m 875.983,503.104 c 0.076,0.038 -6.746,3.563 -11.863,2.16 -4.814,-1.326 -7.96,-7.543 -7.884,-7.58 2.047,-0.417 2.615,-3.222 2.577,-15.238 l 0.91,0.19 15.502,3.07 c 0,0 -0.341,4.89 -0.379,9.476 0.038,3.866 0.266,7.505 1.137,7.922 z"
       fill="#e49963"
       id="path248" />
    <path
       d="m 875.224,485.706 c 0,0 -0.341,4.889 -0.379,9.476 -8.68,-0.228 -13.266,-8.149 -15.161,-12.546 z"
       fill="#d68d5d"
       id="path250" />
    <path
       d="m 858.129,480.93 c 0,0 -4.548,-7.201 -5.647,-13.342 -0.796,-4.397 1.44,-20.657 17.776,-18.307 0,0 4.738,0.455 9.211,3.487 3.563,2.388 8.68,7.581 2.956,21.756 l -1.478,4.776 z"
       fill="#163560"
       id="path252" />
    <path
       d="m 875.077,491.62 c 0,0 -20.165,-3.829 -17.588,-16.375 2.578,-12.508 1.706,-21.453 14.707,-19.52 13.001,1.933 14.517,7.202 14.669,11.598 0.151,4.397 -6.444,24.979 -11.788,24.297 z"
       fill="#e49963"
       id="path254" />
    <path
       d="m 881.445,457.318 c 0,0 -8.566,13.569 -17.436,13.986 -8.907,0.417 -12.091,-2.615 -12.091,-2.615 0,0 5.648,-6.482 8.869,-15.2 -0.037,0 17.929,-4.055 20.658,3.829 z"
       fill="#163560"
       id="path256" />
    <path
       d="m 879.812,458.227 c 0,0 3.45,4.131 3.791,7.543 0.341,3.411 0.455,10.044 2.426,10.234 0,0 5.192,-9.135 1.705,-15.73 -3.714,-7.05 -7.922,-2.047 -7.922,-2.047 z"
       fill="#163560"
       id="path258" />
    <path
       d="m 830.274,558.368 c -2.009,-8.49 4.852,-24.978 12.053,-38.624 6.52,-12.356 13.305,-22.401 13.911,-22.022 17.208,10.196 18.762,1.706 18.762,1.706 0,0 15.617,2.085 20.051,9.703 6.141,10.537 12.774,42.149 19.331,41.694 2.995,-0.227 33.279,-11.598 33.279,-11.598 0,0 5.042,4.738 4.094,10.499 0,0 -14.934,10.007 -27.556,16.374 -6.671,3.374 -12.735,5.724 -15.578,5.079 -5.762,-1.364 -14.745,-14.706 -19.596,-22.552 l -0.038,-0.038 c -6.216,35.099 2.236,43.096 -2.047,46.773 -4.511,3.904 -10.954,-1.857 -25.092,4.283 -9.287,4.018 -22.174,9.855 -30.854,10.878 -4.548,0.531 -7.96,-0.265 -9.059,-3.335 -3.259,-8.907 12.205,-32.635 8.339,-48.82 z"
       fill="#fcc13f"
       id="path260" />
    <path
       d="m 872.195,483.091 c 0,0 0.038,1.667 4.056,2.236 0,0 3.373,0.493 3.639,-1.289 0,0 -2.995,-1.895 -7.695,-0.947 z"
       fill="#ffffff"
       id="path262" />
    <path
       d="m 821.898,607.188 c 1.099,3.07 4.511,3.866 9.059,3.335 5.989,-2.615 31.953,-12.66 31.65,-19.482 -0.417,-10.083 -5.004,-10.424 -1.782,-22.856 2.577,-10.007 -21.378,-28.58 -25.206,-32.635 -7.202,13.645 -7.391,14.289 -5.382,22.78 3.904,16.223 -11.561,39.95 -8.339,48.858 z"
       fill="#e4ad0c"
       id="path264" />
    <path
       d="m 888.984,548.627 c 4.852,7.846 13.835,21.188 19.597,22.552 2.842,0.683 8.869,-1.705 15.578,-5.079 -4.89,1.251 -9.628,1.213 -14.214,0.796 -5.003,-0.493 -6.444,-6.595 -14.327,-15.768 -5.117,-5.951 -6.368,-4.434 -6.634,-2.501 z"
       fill="#4a75cb"
       id="path266" />
    <path
       d="m 864.956,567.958 c 0,0 4.359,-3.374 8.452,-2.578 4.094,0.796 6.103,3.639 5.951,4.928 -0.151,1.289 -2.35,4.927 -5.458,5.231 -3.146,0.341 -12.053,-1.934 -12.053,-1.934 z"
       fill="#e49963"
       id="path268" />
    <path
       d="m 856.238,497.723 c 0,0 -16.716,1.023 -22.515,9.097 -8.149,11.371 -22.325,57.802 -18.459,68.416 l 50.905,-0.228 c 0,0 1.25,-5.761 -0.493,-8.566 -1.706,-2.805 -29.603,-7.278 -30.892,-8.566 -1.288,-1.289 16.109,-25.093 16.109,-28.959 -0.037,-3.866 5.345,-31.194 5.345,-31.194 z"
       fill="#f0b60e"
       id="path270" />
    <path
       d="m 880.536,551.926 h 61.517 l -11.105,38.775 h -61.632 z"
       fill="#1c468a"
       id="path272" />
    <path
       d="m 930.759,589.185 h -80.583 v 1.516 h 80.583 z"
       fill="#163560"
       id="path274" />
    <path
       d="m 906.457,570.689 c 0.379,-1.364 1.819,-2.463 3.184,-2.463 1.364,0 2.16,1.099 1.743,2.463 -0.379,1.365 -1.819,2.464 -3.184,2.464 -1.364,0 -2.122,-1.099 -1.743,-2.464 z"
       fill="#163560"
       id="path276" />
    <g
       filter="url(#filter0_d)"
       id="g342">
      <circle
         cx="1336.45"
         cy="463.18201"
         r="3.4070101"
         fill="#ffffff"
         id="circle340" />
    </g>
    <path
       d="m 723.502,491.962 c 1.044,0 1.846,3.742 1.846,3.742 0,0 3.813,-0.4 4.134,0.601 0.321,1 -2.97,2.901 -2.97,2.901 0,0 1.545,3.503 0.703,4.103 -0.843,0.62 -3.693,-1.941 -3.693,-1.941 0,0 -2.849,2.561 -3.692,1.941 -0.843,-0.62 0.682,-4.103 0.682,-4.103 0,0 -3.311,-1.921 -2.99,-2.901 0.321,-0.981 4.134,-0.601 4.134,-0.601 0,0 0.803,-3.742 1.846,-3.742 z"
       fill="#00d6c2"
       id="path390" />
    <path
       d="m 723.502,491.762 c 1.044,0 1.846,3.742 1.846,3.742 0,0 3.813,-0.4 4.134,0.6 0.321,1.001 -2.97,2.902 -2.97,2.902 0,0 1.545,3.502 0.703,4.103 -0.843,0.62 -3.693,-1.941 -3.693,-1.941 0,0 -2.849,2.561 -3.692,1.941 -0.863,-0.601 0.682,-4.103 0.682,-4.103 0,0 -3.311,-1.921 -2.99,-2.902 0.321,-0.98 4.134,-0.6 4.134,-0.6 0,0 0.803,-3.742 1.846,-3.742 z"
       fill="url(#paint8_linear)"
       id="path392"
       style="fill:url(#paint8_linear)" />
    <path
       d="m 723.503,491.763 c 1.003,0 1.766,3.562 1.766,3.562 0,0 3.632,-0.38 3.933,0.56 0.301,0.941 -2.849,2.762 -2.849,2.762 0,0 1.485,3.322 0.662,3.902 -0.803,0.581 -3.512,-1.841 -3.512,-1.841 0,0 -2.709,2.422 -3.512,1.841 -0.803,-0.58 0.662,-3.902 0.662,-3.902 0,0 -3.15,-1.821 -2.829,-2.762 0.301,-0.94 3.933,-0.56 3.933,-0.56 0,0 0.763,-3.562 1.746,-3.562 z"
       fill="url(#paint9_radial)"
       id="path394"
       style="fill:url(#paint9_radial)" />
    <path
       d="m 726.352,498.407 c 0,0 1.485,3.202 0.683,3.762 -0.803,0.561 -3.512,-1.781 -3.512,-1.781 0,0 -2.709,2.342 -3.512,1.781 -0.803,-0.56 0.682,-3.762 0.682,-3.762 0,0 -3.191,-1.761 -2.87,-2.662 0.322,-0.9 3.934,-0.54 3.934,-0.54 0,0 0.762,-3.442 1.746,-3.442 1.003,0 1.766,3.422 1.766,3.422 0,0 3.09,-0.3 3.812,0.36 0.061,0.06 0.101,0.12 0.121,0.18 0.321,0.921 -2.85,2.682 -2.85,2.682 z"
       fill="url(#paint10_linear)"
       id="path396"
       style="fill:url(#paint10_linear)" />
    <path
       d="m 726.352,498.326 c 0,0 1.485,3.202 0.683,3.762 -0.803,0.561 -3.512,-2.021 -3.512,-2.021 0,0 -2.729,2.582 -3.532,2.021 -0.803,-0.56 0.682,-3.762 0.682,-3.762 0,0 -3.17,-1.761 -2.849,-2.662 0.321,-0.9 3.933,-0.54 3.933,-0.54 0,0 0.762,-3.442 1.746,-3.442 1.003,0 1.766,3.422 1.766,3.422 0,0 3.09,-0.3 3.813,0.36 0.06,0.06 0.1,0.12 0.12,0.18 0.321,0.921 -2.85,2.682 -2.85,2.682 z"
       fill="url(#paint11_linear)"
       id="path398"
       style="fill:url(#paint11_linear)" />
    <path
       d="m 729.082,495.544 c -0.04,0.06 -0.1,0.1 -0.18,0.16 -1.526,1.081 -4.415,0.881 -7.586,0.18 -3.05,-0.68 -3.472,-0.2 -3.492,-0.16 0.321,-0.9 3.933,-0.54 3.933,-0.54 0,0 0.763,-3.422 1.746,-3.422 1.004,0 1.766,3.422 1.766,3.422 0,0 3.091,-0.3 3.813,0.36 z"
       fill="url(#paint12_linear)"
       id="path400"
       style="fill:url(#paint12_linear)" />
    <path
       d="m 722.539,492.922 c 0,0 0.482,-1.021 0.803,-1.001 0.321,0.02 0.02,0.801 -0.081,0.881 -0.1,0.08 -0.622,0.2 -0.722,0.12 z"
       fill="#ffffff"
       id="path402" />
    <path
       d="m 727.198,501.268 c -0.08,-0.14 -0.241,0.981 -0.16,0.901 0.08,-0.06 0.461,-0.381 0.16,-0.901 z"
       fill="#ffffff"
       id="path404" />
    <path
       d="m 838.053,182.14 c 1.043,0 1.846,3.742 1.846,3.742 0,0 3.813,-0.4 4.134,0.6 0.321,1.001 -2.97,2.902 -2.97,2.902 0,0 1.545,3.502 0.702,4.103 -0.842,0.62 -3.692,-1.941 -3.692,-1.941 0,0 -2.85,2.561 -3.693,1.941 -0.842,-0.621 0.683,-4.103 0.683,-4.103 0,0 -3.311,-1.921 -2.99,-2.902 0.321,-0.98 4.134,-0.6 4.134,-0.6 0,0 0.802,-3.742 1.846,-3.742 z"
       fill="#00d6c2"
       id="path406" />
    <path
       d="m 838.053,181.939 c 1.043,0 1.846,3.743 1.846,3.743 0,0 3.813,-0.4 4.134,0.6 0.321,1.001 -2.97,2.902 -2.97,2.902 0,0 1.545,3.502 0.702,4.103 -0.842,0.62 -3.692,-1.942 -3.692,-1.942 0,0 -2.85,2.562 -3.693,1.942 -0.862,-0.601 0.683,-4.103 0.683,-4.103 0,0 -3.311,-1.921 -2.99,-2.902 0.321,-0.98 4.134,-0.6 4.134,-0.6 0,0 0.802,-3.743 1.846,-3.743 z"
       fill="url(#paint13_linear)"
       id="path408"
       style="fill:url(#paint13_linear)" />
    <path
       d="m 838.054,181.94 c 1.003,0 1.766,3.563 1.766,3.563 0,0 3.632,-0.381 3.933,0.56 0.301,0.941 -2.85,2.762 -2.85,2.762 0,0 1.485,3.322 0.663,3.902 -0.803,0.581 -3.512,-1.841 -3.512,-1.841 0,0 -2.709,2.422 -3.512,1.841 -0.803,-0.58 0.662,-3.902 0.662,-3.902 0,0 -3.151,-1.821 -2.829,-2.762 0.301,-0.941 3.933,-0.56 3.933,-0.56 0,0 0.762,-3.563 1.746,-3.563 z"
       fill="url(#paint14_radial)"
       id="path410"
       style="fill:url(#paint14_radial)" />
    <path
       d="m 840.903,188.585 c 0,0 1.485,3.202 0.682,3.762 -0.802,0.56 -3.512,-1.781 -3.512,-1.781 0,0 -2.709,2.341 -3.511,1.781 -0.803,-0.56 0.682,-3.762 0.682,-3.762 0,0 -3.191,-1.762 -2.87,-2.662 0.321,-0.901 3.934,-0.54 3.934,-0.54 0,0 0.762,-3.443 1.745,-3.443 1.004,0 1.766,3.423 1.766,3.423 0,0 3.091,-0.301 3.813,0.36 0.06,0.06 0.101,0.12 0.121,0.18 0.321,0.92 -2.85,2.682 -2.85,2.682 z"
       fill="url(#paint15_linear)"
       id="path412"
       style="fill:url(#paint15_linear)" />
    <path
       d="m 840.903,188.504 c 0,0 1.485,3.202 0.682,3.762 -0.802,0.56 -3.511,-2.021 -3.511,-2.021 0,0 -2.73,2.581 -3.532,2.021 -0.803,-0.56 0.682,-3.762 0.682,-3.762 0,0 -3.171,-1.762 -2.85,-2.662 0.321,-0.901 3.934,-0.54 3.934,-0.54 0,0 0.762,-3.443 1.746,-3.443 1.003,0 1.766,3.423 1.766,3.423 0,0 3.09,-0.301 3.812,0.36 0.061,0.06 0.101,0.12 0.121,0.18 0.321,0.92 -2.85,2.682 -2.85,2.682 z"
       fill="url(#paint16_linear)"
       id="path414"
       style="fill:url(#paint16_linear)" />
    <path
       d="m 843.633,185.722 c -0.04,0.06 -0.1,0.1 -0.181,0.16 -1.525,1.081 -4.415,0.88 -7.585,0.18 -3.051,-0.68 -3.472,-0.2 -3.492,-0.16 0.321,-0.901 3.933,-0.54 3.933,-0.54 0,0 0.763,-3.423 1.746,-3.423 1.004,0 1.766,3.423 1.766,3.423 0,0 3.091,-0.301 3.813,0.36 z"
       fill="url(#paint17_linear)"
       id="path416"
       style="fill:url(#paint17_linear)" />
    <path
       d="m 837.09,183.1 c 0,0 0.481,-1.021 0.803,-1.001 0.321,0.02 0.02,0.8 -0.081,0.88 -0.1,0.081 -0.622,0.201 -0.722,0.121 z"
       fill="#ffffff"
       id="path418" />
    <path
       d="m 841.749,191.446 c -0.08,-0.14 -0.241,0.98 -0.161,0.9 0.081,-0.06 0.462,-0.38 0.161,-0.9 z"
       fill="#ffffff"
       id="path420" />
    <path
       d="m 1334.28,282.505 c 1.05,0 1.85,3.742 1.85,3.742 0,0 3.81,-0.4 4.13,0.601 0.32,1 -2.97,2.901 -2.97,2.901 0,0 1.55,3.503 0.71,4.103 -0.85,0.62 -3.7,-1.941 -3.7,-1.941 0,0 -2.85,2.561 -3.69,1.941 -0.84,-0.62 0.68,-4.103 0.68,-4.103 0,0 -3.31,-1.921 -2.99,-2.901 0.32,-0.981 4.14,-0.601 4.14,-0.601 0,0 0.8,-3.742 1.84,-3.742 z"
       fill="#00d6c2"
       id="path422" />
    <path
       d="m 1334.28,282.305 c 1.05,0 1.85,3.742 1.85,3.742 0,0 3.81,-0.4 4.13,0.6 0.32,1.001 -2.97,2.902 -2.97,2.902 0,0 1.55,3.502 0.71,4.103 -0.85,0.62 -3.7,-1.941 -3.7,-1.941 0,0 -2.85,2.561 -3.69,1.941 -0.86,-0.601 0.68,-4.103 0.68,-4.103 0,0 -3.31,-1.921 -2.99,-2.902 0.32,-0.98 4.14,-0.6 4.14,-0.6 0,0 0.8,-3.742 1.84,-3.742 z"
       fill="url(#paint18_linear)"
       id="path424"
       style="fill:url(#paint18_linear)" />
    <path
       d="m 1334.28,282.306 c 1.01,0 1.77,3.562 1.77,3.562 0,0 3.63,-0.38 3.93,0.56 0.3,0.941 -2.85,2.762 -2.85,2.762 0,0 1.49,3.322 0.67,3.902 -0.81,0.581 -3.52,-1.841 -3.52,-1.841 0,0 -2.7,2.422 -3.51,1.841 -0.8,-0.58 0.66,-3.902 0.66,-3.902 0,0 -3.15,-1.821 -2.82,-2.762 0.3,-0.94 3.93,-0.56 3.93,-0.56 0,0 0.76,-3.562 1.74,-3.562 z"
       fill="url(#paint19_radial)"
       id="path426"
       style="fill:url(#paint19_radial)" />
    <path
       d="m 1337.13,288.95 c 0,0 1.49,3.202 0.69,3.762 -0.81,0.561 -3.52,-1.781 -3.52,-1.781 0,0 -2.71,2.342 -3.51,1.781 -0.8,-0.56 0.68,-3.762 0.68,-3.762 0,0 -3.19,-1.761 -2.87,-2.662 0.33,-0.9 3.94,-0.54 3.94,-0.54 0,0 0.76,-3.442 1.74,-3.442 1.01,0 1.77,3.422 1.77,3.422 0,0 3.09,-0.3 3.81,0.36 0.06,0.06 0.1,0.12 0.12,0.18 0.32,0.921 -2.85,2.682 -2.85,2.682 z"
       fill="url(#paint20_linear)"
       id="path428"
       style="fill:url(#paint20_linear)" />
    <path
       d="m 1337.13,288.869 c 0,0 1.49,3.202 0.69,3.762 -0.81,0.56 -3.52,-2.021 -3.52,-2.021 0,0 -2.73,2.581 -3.53,2.021 -0.8,-0.56 0.68,-3.762 0.68,-3.762 0,0 -3.17,-1.761 -2.85,-2.662 0.33,-0.9 3.94,-0.54 3.94,-0.54 0,0 0.76,-3.442 1.74,-3.442 1.01,0 1.77,3.422 1.77,3.422 0,0 3.09,-0.3 3.81,0.36 0.06,0.06 0.1,0.12 0.12,0.18 0.32,0.921 -2.85,2.682 -2.85,2.682 z"
       fill="url(#paint21_linear)"
       id="path430"
       style="fill:url(#paint21_linear)" />
    <path
       d="m 1339.86,286.087 c -0.04,0.06 -0.1,0.1 -0.18,0.16 -1.52,1.081 -4.41,0.881 -7.58,0.18 -3.05,-0.68 -3.47,-0.2 -3.49,-0.16 0.32,-0.9 3.93,-0.54 3.93,-0.54 0,0 0.76,-3.422 1.74,-3.422 1.01,0 1.77,3.422 1.77,3.422 0,0 3.09,-0.3 3.81,0.36 z"
       fill="url(#paint22_linear)"
       id="path432"
       style="fill:url(#paint22_linear)" />
    <path
       d="m 1333.32,283.465 c 0,0 0.48,-1.021 0.8,-1.001 0.32,0.02 0.02,0.801 -0.08,0.881 -0.1,0.08 -0.62,0.2 -0.72,0.12 z"
       fill="#ffffff"
       id="path434" />
    <path
       d="m 1337.98,291.811 c -0.08,-0.14 -0.24,0.981 -0.16,0.901 0.08,-0.061 0.46,-0.381 0.16,-0.901 z"
       fill="#ffffff"
       id="path436" />
    <path
       d="m 1328.27,619.989 c 0.83,0 1.47,2.977 1.47,2.977 0,0 3.03,-0.318 3.29,0.478 0.25,0.796 -2.36,2.308 -2.36,2.308 0,0 1.22,2.786 0.55,3.264 -0.67,0.494 -2.93,-1.544 -2.93,-1.544 0,0 -2.27,2.038 -2.94,1.544 -0.67,-0.494 0.54,-3.264 0.54,-3.264 0,0 -2.63,-1.528 -2.38,-2.308 0.26,-0.78 3.29,-0.478 3.29,-0.478 0,0 0.64,-2.977 1.47,-2.977 z"
       fill="#00d6c2"
       id="path438" />
    <path
       d="m 1328.27,619.829 c 0.83,0 1.47,2.977 1.47,2.977 0,0 3.03,-0.318 3.29,0.478 0.25,0.796 -2.36,2.308 -2.36,2.308 0,0 1.22,2.786 0.55,3.264 -0.67,0.493 -2.93,-1.544 -2.93,-1.544 0,0 -2.27,2.037 -2.94,1.544 -0.69,-0.478 0.54,-3.264 0.54,-3.264 0,0 -2.63,-1.528 -2.38,-2.308 0.26,-0.78 3.29,-0.478 3.29,-0.478 0,0 0.64,-2.977 1.47,-2.977 z"
       fill="url(#paint23_linear)"
       id="path440"
       style="fill:url(#paint23_linear)" />
    <path
       d="m 1328.27,619.829 c 0.8,0 1.41,2.834 1.41,2.834 0,0 2.89,-0.303 3.13,0.446 0.24,0.748 -2.27,2.197 -2.27,2.197 0,0 1.18,2.642 0.53,3.104 -0.64,0.462 -2.8,-1.465 -2.8,-1.465 0,0 -2.15,1.927 -2.79,1.465 -0.64,-0.462 0.53,-3.104 0.53,-3.104 0,0 -2.51,-1.449 -2.25,-2.197 0.24,-0.749 3.13,-0.446 3.13,-0.446 0,0 0.6,-2.834 1.38,-2.834 z"
       fill="url(#paint24_radial)"
       id="path442"
       style="fill:url(#paint24_radial)" />
    <path
       d="m 1330.54,625.115 c 0,0 1.18,2.547 0.54,2.993 -0.63,0.445 -2.79,-1.417 -2.79,-1.417 0,0 -2.16,1.862 -2.79,1.417 -0.64,-0.446 0.54,-2.993 0.54,-2.993 0,0 -2.54,-1.401 -2.28,-2.118 0.25,-0.716 3.13,-0.43 3.13,-0.43 0,0 0.6,-2.738 1.38,-2.738 0.8,0 1.41,2.722 1.41,2.722 0,0 2.46,-0.238 3.03,0.287 0.05,0.048 0.08,0.096 0.1,0.143 0.25,0.733 -2.27,2.134 -2.27,2.134 z"
       fill="url(#paint25_linear)"
       id="path444"
       style="fill:url(#paint25_linear)" />
    <path
       d="m 1330.54,625.051 c 0,0 1.18,2.547 0.54,2.993 -0.63,0.446 -2.79,-1.608 -2.79,-1.608 0,0 -2.17,2.054 -2.81,1.608 -0.64,-0.446 0.54,-2.993 0.54,-2.993 0,0 -2.52,-1.401 -2.26,-2.117 0.25,-0.717 3.13,-0.43 3.13,-0.43 0,0 0.6,-2.738 1.38,-2.738 0.8,0 1.41,2.722 1.41,2.722 0,0 2.46,-0.239 3.03,0.287 0.05,0.047 0.08,0.095 0.1,0.143 0.25,0.732 -2.27,2.133 -2.27,2.133 z"
       fill="url(#paint26_linear)"
       id="path446"
       style="fill:url(#paint26_linear)" />
    <path
       d="m 1332.71,622.838 c -0.03,0.048 -0.08,0.08 -0.14,0.127 -1.22,0.86 -3.52,0.701 -6.04,0.144 -2.42,-0.542 -2.76,-0.16 -2.78,-0.128 0.26,-0.716 3.13,-0.43 3.13,-0.43 0,0 0.61,-2.722 1.39,-2.722 0.8,0 1.41,2.722 1.41,2.722 0,0 2.46,-0.238 3.03,0.287 z"
       fill="url(#paint27_linear)"
       id="path448"
       style="fill:url(#paint27_linear)" />
    <path
       d="m 1327.5,620.753 c 0,0 0.39,-0.812 0.64,-0.796 0.26,0.016 0.02,0.637 -0.06,0.701 -0.08,0.063 -0.5,0.159 -0.58,0.095 z"
       fill="#ffffff"
       id="path450" />
    <path
       d="m 1323.93,622.886 c -0.02,0.127 0.93,-0.112 0.93,-0.239 0,-0.112 -0.87,-0.064 -0.93,0.239 z"
       fill="#ffffff"
       id="path452" />
    <path
       d="m 1331.21,627.392 c -0.07,-0.111 -0.19,0.781 -0.13,0.717 0.06,-0.048 0.37,-0.303 0.13,-0.717 z"
       fill="#ffffff"
       id="path454" />
    <g
       filter="url(#filter4_d)"
       id="g458">
      <circle
         cx="781.68799"
         cy="139.01401"
         r="3.4070101"
         fill="#ffffff"
         id="circle456" />
    </g>
    <g
       filter="url(#filter5_d)"
       id="g462">
      <circle
         cx="1222.36"
         cy="197.98199"
         r="3.4070101"
         fill="#ffffff"
         id="circle460" />
    </g>
    <g
       filter="url(#filter6_d)"
       id="g466">
      <circle
         cx="995.70801"
         cy="130.01401"
         r="3.4070101"
         fill="#ffffff"
         id="circle464" />
    </g>
    <g
       filter="url(#filter7_d)"
       id="g470">
      <circle
         cx="713.99298"
         cy="242.035"
         r="3.4070101"
         fill="#ffffff"
         id="circle468" />
    </g>
    <g
       filter="url(#filter8_d)"
       id="g474">
      <circle
         cx="1363.71"
         cy="163.78799"
         r="3.4070101"
         fill="#ffffff"
         id="circle472" />
    </g>
  </g>
  <defs
     id="defs797">
    <filter
       id="filter0_d"
       x="1323.05"
       y="449.77499"
       width="26.8125"
       height="26.814501"
       filterUnits="userSpaceOnUse"
       color-interpolation-filters="sRGB">
      <feFlood
         flood-opacity="0"
         result="BackgroundImageFix"
         id="feFlood478" />
      <feColorMatrix
         in="SourceAlpha"
         type="matrix"
         values="0 0 0 0 0 0 0 0 0 0 0 0 0 0 0 0 0 0 127 0"
         result="hardAlpha"
         id="feColorMatrix480" />
      <feOffset
         id="feOffset482" />
      <feGaussianBlur
         stdDeviation="5"
         id="feGaussianBlur484" />
      <feComposite
         in2="hardAlpha"
         operator="out"
         id="feComposite486" />
      <feColorMatrix
         type="matrix"
         values="0 0 0 0 1 0 0 0 0 1 0 0 0 0 1 0 0 0 1 0"
         id="feColorMatrix488" />
      <feBlend
         mode="normal"
         in2="BackgroundImageFix"
         result="effect1_dropShadow"
         id="feBlend490" />
      <feBlend
         mode="normal"
         in="SourceGraphic"
         in2="effect1_dropShadow"
         result="shape"
         id="feBlend492" />
    </filter>
    <filter
       id="filter1_d"
       x="306.78101"
       y="585.45001"
       width="178"
       height="79"
       filterUnits="userSpaceOnUse"
       color-interpolation-filters="sRGB">
      <feFlood
         flood-opacity="0"
         result="BackgroundImageFix"
         id="feFlood495" />
      <feColorMatrix
         in="SourceAlpha"
         type="matrix"
         values="0 0 0 0 0 0 0 0 0 0 0 0 0 0 0 0 0 0 127 0"
         result="hardAlpha"
         id="feColorMatrix497" />
      <feOffset
         id="feOffset499" />
      <feGaussianBlur
         stdDeviation="5"
         id="feGaussianBlur501" />
      <feComposite
         in2="hardAlpha"
         operator="out"
         id="feComposite503" />
      <feColorMatrix
         type="matrix"
         values="0 0 0 0 0 0 0 0 0 0 0 0 0 0 0 0 0 0 0.35 0"
         id="feColorMatrix505" />
      <feBlend
         mode="normal"
         in2="BackgroundImageFix"
         result="effect1_dropShadow"
         id="feBlend507" />
      <feBlend
         mode="normal"
         in="SourceGraphic"
         in2="effect1_dropShadow"
         result="shape"
         id="feBlend509" />
    </filter>
    <filter
       id="filter2_d"
       x="315.78101"
       y="593.45001"
       width="160"
       height="62"
       filterUnits="userSpaceOnUse"
       color-interpolation-filters="sRGB">
      <feFlood
         flood-opacity="0"
         result="BackgroundImageFix"
         id="feFlood512" />
      <feColorMatrix
         in="SourceAlpha"
         type="matrix"
         values="0 0 0 0 0 0 0 0 0 0 0 0 0 0 0 0 0 0 127 0"
         result="hardAlpha"
         id="feColorMatrix514" />
      <feOffset
         id="feOffset516" />
      <feGaussianBlur
         stdDeviation="2"
         id="feGaussianBlur518" />
      <feComposite
         in2="hardAlpha"
         operator="out"
         id="feComposite520" />
      <feColorMatrix
         type="matrix"
         values="0 0 0 0 0 0 0 0 0 0 0 0 0 0 0 0 0 0 0.25 0"
         id="feColorMatrix522" />
      <feBlend
         mode="normal"
         in2="BackgroundImageFix"
         result="effect1_dropShadow"
         id="feBlend524" />
      <feBlend
         mode="normal"
         in="SourceGraphic"
         in2="effect1_dropShadow"
         result="shape"
         id="feBlend526" />
    </filter>
    <filter
       id="filter3_d"
       x="311.242"
       y="475.64001"
       width="56.621101"
       height="51.9785"
       filterUnits="userSpaceOnUse"
       color-interpolation-filters="sRGB">
      <feFlood
         flood-opacity="0"
         result="BackgroundImageFix"
         id="feFlood529" />
      <feColorMatrix
         in="SourceAlpha"
         type="matrix"
         values="0 0 0 0 0 0 0 0 0 0 0 0 0 0 0 0 0 0 127 0"
         result="hardAlpha"
         id="feColorMatrix531" />
      <feOffset
         id="feOffset533" />
      <feGaussianBlur
         stdDeviation="5"
         id="feGaussianBlur535" />
      <feComposite
         in2="hardAlpha"
         operator="out"
         id="feComposite537" />
      <feColorMatrix
         type="matrix"
         values="0 0 0 0 0 0 0 0 0 0 0 0 0 0 0 0 0 0 0.3 0"
         id="feColorMatrix539" />
      <feBlend
         mode="normal"
         in2="BackgroundImageFix"
         result="effect1_dropShadow"
         id="feBlend541" />
      <feBlend
         mode="normal"
         in="SourceGraphic"
         in2="effect1_dropShadow"
         result="shape"
         id="feBlend543" />
    </filter>
    <filter
       id="filter4_d"
       x="768.28101"
       y="125.607"
       width="26.8125"
       height="26.814501"
       filterUnits="userSpaceOnUse"
       color-interpolation-filters="sRGB">
      <feFlood
         flood-opacity="0"
         result="BackgroundImageFix"
         id="feFlood546" />
      <feColorMatrix
         in="SourceAlpha"
         type="matrix"
         values="0 0 0 0 0 0 0 0 0 0 0 0 0 0 0 0 0 0 127 0"
         result="hardAlpha"
         id="feColorMatrix548" />
      <feOffset
         id="feOffset550" />
      <feGaussianBlur
         stdDeviation="5"
         id="feGaussianBlur552" />
      <feComposite
         in2="hardAlpha"
         operator="out"
         id="feComposite554" />
      <feColorMatrix
         type="matrix"
         values="0 0 0 0 1 0 0 0 0 1 0 0 0 0 1 0 0 0 1 0"
         id="feColorMatrix556" />
      <feBlend
         mode="normal"
         in2="BackgroundImageFix"
         result="effect1_dropShadow"
         id="feBlend558" />
      <feBlend
         mode="normal"
         in="SourceGraphic"
         in2="effect1_dropShadow"
         result="shape"
         id="feBlend560" />
    </filter>
    <filter
       id="filter5_d"
       x="1208.96"
       y="184.575"
       width="26.8125"
       height="26.814501"
       filterUnits="userSpaceOnUse"
       color-interpolation-filters="sRGB">
      <feFlood
         flood-opacity="0"
         result="BackgroundImageFix"
         id="feFlood563" />
      <feColorMatrix
         in="SourceAlpha"
         type="matrix"
         values="0 0 0 0 0 0 0 0 0 0 0 0 0 0 0 0 0 0 127 0"
         result="hardAlpha"
         id="feColorMatrix565" />
      <feOffset
         id="feOffset567" />
      <feGaussianBlur
         stdDeviation="5"
         id="feGaussianBlur569" />
      <feComposite
         in2="hardAlpha"
         operator="out"
         id="feComposite571" />
      <feColorMatrix
         type="matrix"
         values="0 0 0 0 1 0 0 0 0 1 0 0 0 0 1 0 0 0 1 0"
         id="feColorMatrix573" />
      <feBlend
         mode="normal"
         in2="BackgroundImageFix"
         result="effect1_dropShadow"
         id="feBlend575" />
      <feBlend
         mode="normal"
         in="SourceGraphic"
         in2="effect1_dropShadow"
         result="shape"
         id="feBlend577" />
    </filter>
    <filter
       id="filter6_d"
       x="982.30103"
       y="116.607"
       width="26.8125"
       height="26.814501"
       filterUnits="userSpaceOnUse"
       color-interpolation-filters="sRGB">
      <feFlood
         flood-opacity="0"
         result="BackgroundImageFix"
         id="feFlood580" />
      <feColorMatrix
         in="SourceAlpha"
         type="matrix"
         values="0 0 0 0 0 0 0 0 0 0 0 0 0 0 0 0 0 0 127 0"
         result="hardAlpha"
         id="feColorMatrix582" />
      <feOffset
         id="feOffset584" />
      <feGaussianBlur
         stdDeviation="5"
         id="feGaussianBlur586" />
      <feComposite
         in2="hardAlpha"
         operator="out"
         id="feComposite588" />
      <feColorMatrix
         type="matrix"
         values="0 0 0 0 1 0 0 0 0 1 0 0 0 0 1 0 0 0 1 0"
         id="feColorMatrix590" />
      <feBlend
         mode="normal"
         in2="BackgroundImageFix"
         result="effect1_dropShadow"
         id="feBlend592" />
      <feBlend
         mode="normal"
         in="SourceGraphic"
         in2="effect1_dropShadow"
         result="shape"
         id="feBlend594" />
    </filter>
    <filter
       id="filter7_d"
       x="700.586"
       y="228.62801"
       width="26.8125"
       height="26.814501"
       filterUnits="userSpaceOnUse"
       color-interpolation-filters="sRGB">
      <feFlood
         flood-opacity="0"
         result="BackgroundImageFix"
         id="feFlood597" />
      <feColorMatrix
         in="SourceAlpha"
         type="matrix"
         values="0 0 0 0 0 0 0 0 0 0 0 0 0 0 0 0 0 0 127 0"
         result="hardAlpha"
         id="feColorMatrix599" />
      <feOffset
         id="feOffset601" />
      <feGaussianBlur
         stdDeviation="5"
         id="feGaussianBlur603" />
      <feComposite
         in2="hardAlpha"
         operator="out"
         id="feComposite605" />
      <feColorMatrix
         type="matrix"
         values="0 0 0 0 1 0 0 0 0 1 0 0 0 0 1 0 0 0 1 0"
         id="feColorMatrix607" />
      <feBlend
         mode="normal"
         in2="BackgroundImageFix"
         result="effect1_dropShadow"
         id="feBlend609" />
      <feBlend
         mode="normal"
         in="SourceGraphic"
         in2="effect1_dropShadow"
         result="shape"
         id="feBlend611" />
    </filter>
    <filter
       id="filter8_d"
       x="1350.3"
       y="150.381"
       width="26.8125"
       height="26.814501"
       filterUnits="userSpaceOnUse"
       color-interpolation-filters="sRGB">
      <feFlood
         flood-opacity="0"
         result="BackgroundImageFix"
         id="feFlood614" />
      <feColorMatrix
         in="SourceAlpha"
         type="matrix"
         values="0 0 0 0 0 0 0 0 0 0 0 0 0 0 0 0 0 0 127 0"
         result="hardAlpha"
         id="feColorMatrix616" />
      <feOffset
         id="feOffset618" />
      <feGaussianBlur
         stdDeviation="5"
         id="feGaussianBlur620" />
      <feComposite
         in2="hardAlpha"
         operator="out"
         id="feComposite622" />
      <feColorMatrix
         type="matrix"
         values="0 0 0 0 1 0 0 0 0 1 0 0 0 0 1 0 0 0 1 0"
         id="feColorMatrix624" />
      <feBlend
         mode="normal"
         in2="BackgroundImageFix"
         result="effect1_dropShadow"
         id="feBlend626" />
      <feBlend
         mode="normal"
         in="SourceGraphic"
         in2="effect1_dropShadow"
         result="shape"
         id="feBlend628" />
    </filter>
    <linearGradient
       id="paint0_linear"
       x1="1019.91"
       y1="220.95"
       x2="1019.91"
       y2="710.15002"
       gradientUnits="userSpaceOnUse">
      <stop
         stop-color="#FFBD00"
         stop-opacity="0.56"
         id="stop631" />
      <stop
         offset="1"
         stop-color="#FFBD00"
         stop-opacity="0.17"
         id="stop633" />
    </linearGradient>
    <linearGradient
       id="paint1_linear"
       x1="385.543"
       y1="623.43799"
       x2="385.543"
       y2="168.411"
       gradientUnits="userSpaceOnUse">
      <stop
         stop-color="#004AC2"
         id="stop636" />
      <stop
         offset="1"
         stop-color="#0083C2"
         id="stop638" />
    </linearGradient>
    <linearGradient
       id="paint2_linear"
       x1="385.543"
       y1="619.289"
       x2="385.543"
       y2="167.10001"
       gradientUnits="userSpaceOnUse">
      <stop
         stop-color="#001D69"
         id="stop641" />
      <stop
         offset="1"
         stop-color="#004E83"
         id="stop643" />
    </linearGradient>
    <linearGradient
       id="paint3_linear"
       x1="158.534"
       y1="205.168"
       x2="619.54401"
       y2="205.168"
       gradientUnits="userSpaceOnUse">
      <stop
         stop-color="#007EC6"
         id="stop646" />
      <stop
         offset="1"
         stop-color="#91D1FF"
         id="stop648" />
    </linearGradient>
    <linearGradient
       id="paint4_linear"
       x1="167.48801"
       y1="595.039"
       x2="624.72498"
       y2="595.039"
       gradientUnits="userSpaceOnUse">
      <stop
         stop-color="#122B86"
         id="stop651" />
      <stop
         offset="1"
         stop-color="#0C3A95"
         id="stop653" />
    </linearGradient>
    <linearGradient
       id="paint5_linear"
       x1="439.84399"
       y1="599.69"
       x2="439.84399"
       y2="654.09698"
       gradientUnits="userSpaceOnUse">
      <stop
         stop-color="white"
         id="stop656" />
      <stop
         offset="0.2"
         stop-color="#FCFCFC"
         id="stop658" />
      <stop
         offset="0.37"
         stop-color="#F1F1F1"
         id="stop660" />
      <stop
         offset="0.53"
         stop-color="#E0E0E0"
         id="stop662" />
      <stop
         offset="0.68"
         stop-color="#C8C8C8"
         id="stop664" />
      <stop
         offset="0.82"
         stop-color="#ABABAB"
         id="stop666" />
      <stop
         offset="1"
         stop-color="white"
         id="stop668" />
    </linearGradient>
    <radialGradient
       id="paint6_radial"
       cx="0"
       cy="0"
       r="1"
       gradientUnits="userSpaceOnUse"
       gradientTransform="matrix(114.726,0,0,100.417,444.326,673.032)">
      <stop
         offset="0.17"
         stop-color="#858585"
         id="stop671" />
      <stop
         offset="0.36"
         stop-color="#575757"
         id="stop673" />
      <stop
         offset="0.55"
         stop-color="#313131"
         id="stop675" />
      <stop
         offset="0.73"
         stop-color="#161616"
         id="stop677" />
      <stop
         offset="0.88"
         stop-color="#060606"
         id="stop679" />
      <stop
         offset="1"
         id="stop681" />
    </radialGradient>
    <radialGradient
       id="paint7_radial"
       cx="0"
       cy="0"
       r="1"
       gradientUnits="userSpaceOnUse"
       gradientTransform="matrix(0,44.002,-113.523,0,381.152,511.238)">
      <stop
         offset="0.15625"
         stop-color="#2B448C"
         id="stop684" />
      <stop
         offset="0.648308"
         stop-color="#1E3679"
         id="stop686" />
      <stop
         offset="1"
         stop-color="#071D59"
         id="stop688" />
    </radialGradient>
    <linearGradient
       id="paint8_linear"
       x1="723.51001"
       y1="503.21399"
       x2="723.51001"
       y2="491.76401"
       gradientUnits="userSpaceOnUse">
      <stop
         stop-color="#008EC2"
         id="stop691" />
      <stop
         offset="1"
         stop-color="#003BC2"
         id="stop693" />
    </linearGradient>
    <radialGradient
       id="paint9_radial"
       cx="0"
       cy="0"
       r="1"
       gradientUnits="userSpaceOnUse"
       gradientTransform="matrix(5.5906,0,0,5.57524,723.511,497.212)">
      <stop
         stop-color="#FFBD00"
         id="stop696" />
      <stop
         offset="1"
         stop-color="#FF772C"
         id="stop698" />
    </radialGradient>
    <linearGradient
       id="paint10_linear"
       x1="723.51099"
       y1="502.26199"
       x2="723.51099"
       y2="491.76599"
       gradientUnits="userSpaceOnUse">
      <stop
         stop-color="#FFF300"
         id="stop701" />
      <stop
         offset="1"
         stop-color="#FF9700"
         id="stop703" />
    </linearGradient>
    <linearGradient
       id="paint11_linear"
       x1="723.51099"
       y1="502.17001"
       x2="723.51099"
       y2="491.68201"
       gradientUnits="userSpaceOnUse">
      <stop
         stop-color="#FFCC00"
         id="stop706" />
      <stop
         offset="1"
         stop-color="#FF9700"
         id="stop708" />
    </linearGradient>
    <linearGradient
       id="paint12_linear"
       x1="717.81799"
       y1="494.117"
       x2="729.08099"
       y2="494.117"
       gradientUnits="userSpaceOnUse">
      <stop
         stop-color="#FFD540"
         id="stop711" />
      <stop
         offset="0.822917"
         stop-color="#FBCC53"
         id="stop713" />
    </linearGradient>
    <linearGradient
       id="paint13_linear"
       x1="838.06097"
       y1="193.392"
       x2="838.06097"
       y2="181.942"
       gradientUnits="userSpaceOnUse">
      <stop
         stop-color="#008EC2"
         id="stop716" />
      <stop
         offset="1"
         stop-color="#003BC2"
         id="stop718" />
    </linearGradient>
    <radialGradient
       id="paint14_radial"
       cx="0"
       cy="0"
       r="1"
       gradientUnits="userSpaceOnUse"
       gradientTransform="matrix(5.5906,0,0,5.57524,838.062,187.39)">
      <stop
         stop-color="#FFBD00"
         id="stop721" />
      <stop
         offset="1"
         stop-color="#FF772C"
         id="stop723" />
    </radialGradient>
    <linearGradient
       id="paint15_linear"
       x1="838.06201"
       y1="192.44"
       x2="838.06201"
       y2="181.944"
       gradientUnits="userSpaceOnUse">
      <stop
         stop-color="#FFF300"
         id="stop726" />
      <stop
         offset="1"
         stop-color="#FF9700"
         id="stop728" />
    </linearGradient>
    <linearGradient
       id="paint16_linear"
       x1="838.06201"
       y1="192.34801"
       x2="838.06201"
       y2="181.85899"
       gradientUnits="userSpaceOnUse">
      <stop
         stop-color="#FFCC00"
         id="stop731" />
      <stop
         offset="1"
         stop-color="#FF9700"
         id="stop733" />
    </linearGradient>
    <linearGradient
       id="paint17_linear"
       x1="832.36902"
       y1="184.295"
       x2="843.63202"
       y2="184.295"
       gradientUnits="userSpaceOnUse">
      <stop
         stop-color="#FFD540"
         id="stop736" />
      <stop
         offset="0.822917"
         stop-color="#FBCC53"
         id="stop738" />
    </linearGradient>
    <linearGradient
       id="paint18_linear"
       x1="1334.29"
       y1="293.75699"
       x2="1334.29"
       y2="282.30701"
       gradientUnits="userSpaceOnUse">
      <stop
         stop-color="#008EC2"
         id="stop741" />
      <stop
         offset="1"
         stop-color="#003BC2"
         id="stop743" />
    </linearGradient>
    <radialGradient
       id="paint19_radial"
       cx="0"
       cy="0"
       r="1"
       gradientUnits="userSpaceOnUse"
       gradientTransform="matrix(5.5906,0,0,5.57524,1334.29,287.755)">
      <stop
         stop-color="#FFBD00"
         id="stop746" />
      <stop
         offset="1"
         stop-color="#FF772C"
         id="stop748" />
    </radialGradient>
    <linearGradient
       id="paint20_linear"
       x1="1334.29"
       y1="292.80499"
       x2="1334.29"
       y2="282.30899"
       gradientUnits="userSpaceOnUse">
      <stop
         stop-color="#FFF300"
         id="stop751" />
      <stop
         offset="1"
         stop-color="#FF9700"
         id="stop753" />
    </linearGradient>
    <linearGradient
       id="paint21_linear"
       x1="1334.29"
       y1="292.71301"
       x2="1334.29"
       y2="282.22501"
       gradientUnits="userSpaceOnUse">
      <stop
         stop-color="#FFCC00"
         id="stop756" />
      <stop
         offset="1"
         stop-color="#FF9700"
         id="stop758" />
    </linearGradient>
    <linearGradient
       id="paint22_linear"
       x1="1328.6"
       y1="284.66"
       x2="1339.86"
       y2="284.66"
       gradientUnits="userSpaceOnUse">
      <stop
         stop-color="#FFD540"
         id="stop761" />
      <stop
         offset="0.822917"
         stop-color="#FBCC53"
         id="stop763" />
    </linearGradient>
    <linearGradient
       id="paint23_linear"
       x1="1328.28"
       y1="628.94"
       x2="1328.28"
       y2="619.83099"
       gradientUnits="userSpaceOnUse">
      <stop
         stop-color="#008EC2"
         id="stop766" />
      <stop
         offset="1"
         stop-color="#003BC2"
         id="stop768" />
    </linearGradient>
    <radialGradient
       id="paint24_radial"
       cx="0"
       cy="0"
       r="1"
       gradientUnits="userSpaceOnUse"
       gradientTransform="matrix(4.44736,0,0,4.43514,1328.28,624.164)">
      <stop
         stop-color="#FFBD00"
         id="stop771" />
      <stop
         offset="1"
         stop-color="#FF772C"
         id="stop773" />
    </radialGradient>
    <linearGradient
       id="paint25_linear"
       x1="1328.28"
       y1="628.18103"
       x2="1328.28"
       y2="619.83197"
       gradientUnits="userSpaceOnUse">
      <stop
         stop-color="#FFF300"
         id="stop776" />
      <stop
         offset="1"
         stop-color="#FF9700"
         id="stop778" />
    </linearGradient>
    <linearGradient
       id="paint26_linear"
       x1="1328.28"
       y1="628.10901"
       x2="1328.28"
       y2="619.76599"
       gradientUnits="userSpaceOnUse">
      <stop
         stop-color="#FFCC00"
         id="stop781" />
      <stop
         offset="1"
         stop-color="#FF9700"
         id="stop783" />
    </linearGradient>
    <linearGradient
       id="paint27_linear"
       x1="1323.75"
       y1="621.703"
       x2="1332.71"
       y2="621.703"
       gradientUnits="userSpaceOnUse">
      <stop
         stop-color="#FFD540"
         id="stop786" />
      <stop
         offset="0.822917"
         stop-color="#FBCC53"
         id="stop788" />
    </linearGradient>
    <clipPath
       id="clip0">
      <rect
         width="1440"
         height="753"
         fill="#ffffff"
         id="rect791"
         x="0"
         y="0" />
    </clipPath>
    <clipPath
       id="clip1">
      <rect
         width="193"
         height="61"
         fill="#ffffff"
         transform="translate(87,13)"
         id="rect794"
         x="0"
         y="0" />
    </clipPath>
  </defs>
</svg>
