<svg width="1038" height="702" viewBox="0 0 1038 702" fill="none" xmlns="http://www.w3.org/2000/svg">
<path d="M1188.36 585.133C1200.99 639.219 1159.25 690.808 1103.7 690.714L906.01 690.431L887.636 690.384L290.755 688.452L93.8673 687.793C93.8673 687.793 19.4279 556.818 63.8089 424.947C68.1905 411.944 73.7027 398.893 80.5813 386.031C92.077 364.453 107.342 343.252 126.988 323.088C211.463 236.493 289.388 224.714 353.274 230.603C404.298 235.315 370.227 232.535 399.626 230.603C465.914 226.269 361.969 43.705 558.055 2.52778C597.159 -5.66997 686.153 2.52832 854.658 90.9319C958.095 145.199 1086.8 40.4702 1147.18 192.3C1151.59 203.372 1164.62 256.838 1147.18 291.698C1131.33 323.397 1117.36 332.84 1099.13 363.652C1040.94 461.978 1088.53 506.877 1157.31 545.887C1160.14 547.489 1162.97 549.138 1165.75 550.834C1178.09 558.184 1184.97 570.622 1188.36 585.133Z" fill="#1C468A"/>
<path d="M1107.27 689.442C1153.54 689.442 1190.57 651.468 1190.57 605.203L972.859 501.082V446.807H968.807V333.97H906.193V446.807H832.036V374.111H719.105V238.188H647.964V414.958H625.773V264.431H568.672V414.958H437.084V552.624H370.277V459.528H308.04V552.624H290.042V358.799H221.445V552.624H196.805V690.148L1107.27 689.442Z" fill="#046B9E"/>
<path d="M366.879 375.148C366.125 372.321 365.701 369.211 365.701 366.008C365.701 351.638 374.04 339.954 384.311 339.954C385.818 339.954 387.279 340.189 388.692 340.66C390.341 301.745 407.396 271.168 428.173 271.168C447.961 271.168 464.357 298.918 467.325 335.148C482.024 345.136 492.154 365.631 492.154 389.234C492.154 400.495 489.845 411.048 485.84 420.094C499.503 428.527 508.219 441.201 508.219 455.382C508.219 480.729 480.517 501.27 446.359 501.27C420.777 501.27 398.822 489.775 389.399 473.332C386.761 473.945 384.075 474.274 381.295 474.274C358.021 474.274 339.176 451.377 339.176 423.156C339.129 401.107 350.672 382.309 366.879 375.148Z" fill="#224811"/>
<path d="M366.883 375.148C366.883 375.148 407.871 359.177 439.061 387.303C470.297 415.43 492.016 371.096 481.604 350.508C488.153 361.014 492.11 374.536 492.11 389.329C492.11 400.589 489.802 411.143 485.797 420.189C499.46 428.622 508.176 441.296 508.176 455.477C508.176 480.824 480.473 501.365 446.316 501.365C420.733 501.365 398.779 489.87 389.356 473.427C386.717 474.039 384.032 474.369 381.252 474.369C357.978 474.369 339.133 451.472 339.133 423.251C339.133 401.108 350.676 382.309 366.883 375.148Z" fill="#1B3A0B"/>
<path d="M415.034 675.684C416.636 675.684 417.955 675.26 417.955 673.659V357.48C417.955 355.878 416.636 354.559 415.034 354.559C413.432 354.559 412.113 355.878 412.113 357.48V673.659C412.113 675.213 413.432 675.684 415.034 675.684Z" fill="#02250C"/>
<path d="M415.035 469.752C423.327 469.752 430.299 466.784 435.859 460.989C451.312 444.735 449.851 411.472 449.757 410.059C449.663 408.457 448.297 407.185 446.695 407.279C445.093 407.374 443.868 408.74 443.915 410.342C443.915 410.672 445.329 442.52 431.571 456.984C427.143 461.648 421.678 463.91 414.987 463.91C413.386 463.91 412.066 465.229 412.066 466.831C412.066 468.433 413.433 469.752 415.035 469.752Z" fill="#02250C"/>
<path d="M414.601 535.945C414.789 535.945 414.978 535.945 415.166 535.945C416.768 535.851 417.993 534.485 417.899 532.836C417.805 531.234 416.438 530.009 414.789 530.103C413.659 530.15 412.575 529.679 411.397 528.642C407.769 525.392 400.938 514.037 395.614 474.179C392.552 451.141 391.468 429.657 391.468 429.421C391.374 427.819 390.008 426.547 388.406 426.642C386.804 426.736 385.532 428.102 385.626 429.704C385.626 429.94 386.71 451.659 389.819 474.933C391.657 488.643 393.824 500.28 396.274 509.42C399.477 521.434 403.152 529.114 407.487 532.977C409.748 534.956 412.104 535.945 414.601 535.945Z" fill="#02250C"/>
<path d="M234.639 314.843C243.355 297.788 247.407 278.707 246.983 259.532C245.946 213.644 259.751 150.37 293.625 150.37C334.425 150.37 337.629 230.322 324.909 275.315C322.364 284.267 325.898 293.878 333.766 298.778C334.378 299.155 334.802 299.39 335.038 299.39C345.309 299.39 353.648 310.556 353.648 324.36C353.648 327.47 353.224 330.391 352.47 333.124C368.677 339.955 380.22 357.999 380.22 379.201C380.22 406.291 361.374 428.199 338.1 428.199C319.443 428.199 303.613 414.065 298.101 394.512C290.798 400.967 281.988 404.736 272.471 404.736C247.501 404.736 227.242 378.729 227.242 346.645C227.242 334.914 229.975 323.983 234.639 314.843Z" fill="#224811"/>
<path d="M261.257 321.249C303.471 315.548 309.784 361.531 309.784 361.531C359.819 338.775 382.009 374.487 382.009 374.487L383.234 385.182C382.103 411.095 360.62 428.197 338.099 428.197C319.442 428.197 303.612 414.063 298.1 394.511C290.797 400.965 281.987 404.734 272.47 404.734C257.441 404.734 244.155 395.359 235.957 380.895C235.675 380 219.373 326.903 261.257 321.249Z" fill="#1B3A0B"/>
<path d="M296.307 675.685C297.908 675.685 299.463 676.721 299.463 675.119V358.941C299.463 357.339 298.144 356.02 296.542 356.02C294.94 356.02 293.621 357.339 293.621 358.941V675.119C293.621 676.674 294.705 675.685 296.307 675.685Z" fill="#02250C"/>
<path d="M296.542 471.214C305.541 471.214 313.267 465.89 319.534 455.43C324.245 447.563 328.108 436.632 331.076 423.016C336.07 400.072 336.824 376.798 336.824 376.562C336.871 374.961 335.599 373.594 333.997 373.547C332.396 373.5 331.029 374.772 330.982 376.374C330.982 376.61 330.275 399.365 325.376 421.791C321.041 441.673 312.514 465.324 296.542 465.324C294.94 465.324 293.621 466.643 293.621 468.245C293.621 469.894 294.94 471.214 296.542 471.214Z" fill="#02250C"/>
<path d="M296.262 537.408C296.404 537.408 296.592 537.408 296.734 537.408C298.335 537.314 299.56 535.947 299.466 534.298C299.372 532.697 297.959 531.472 296.357 531.566C295.98 531.566 295.367 531.519 294.519 530.671C290.891 527.184 284.39 512.72 281.751 455.148C280.244 421.98 280.809 390.367 280.809 390.037C280.856 388.435 279.537 387.116 277.935 387.069C276.333 387.021 275.014 388.341 274.967 389.943C274.967 390.272 274.402 422.074 275.909 455.43C276.805 475.077 278.218 491.425 280.15 504.051C282.694 520.588 286.039 530.671 290.467 534.864C292.588 536.937 294.755 537.408 296.262 537.408Z" fill="#02250C"/>
<path d="M275.055 404.689C275.809 401.249 276.233 397.575 276.233 393.664C276.233 376.374 267.894 362.334 257.623 362.334C256.116 362.334 254.655 362.663 253.242 363.229C251.593 316.445 234.538 279.649 213.761 279.649C193.973 279.649 177.578 313.006 174.609 356.633C159.91 368.647 149.781 393.287 149.781 421.697C149.781 435.265 152.089 447.939 156.094 458.775C142.431 468.904 133.715 484.169 133.715 501.224C133.715 531.707 161.418 556.394 195.575 556.394C221.158 556.394 243.112 542.543 252.535 522.802C255.174 523.556 257.859 523.933 260.639 523.933C283.913 523.933 302.758 496.419 302.758 462.45C302.852 435.925 291.262 413.263 275.055 404.689Z" fill="#224811"/>
<path d="M143.655 471.354C150.298 462.214 152.984 450.86 151.241 439.694C150.345 433.946 149.874 427.915 149.874 421.696C149.874 418.304 150.016 414.912 150.298 411.661C207.447 415.572 205.186 472.909 205.186 472.909C205.186 472.909 252.488 452.98 268.224 481.059C284.007 509.092 252.629 522.896 252.629 522.896C243.206 542.637 221.251 556.488 195.669 556.488C161.511 556.488 133.809 531.801 133.809 501.318C133.809 490.247 137.436 479.976 143.655 471.354Z" fill="#1B3A0B"/>
<path d="M214.417 675.215C216.019 675.215 217.338 675.215 217.338 673.613V427.963C217.338 426.361 216.019 425.042 214.417 425.042C212.815 425.042 211.496 426.361 211.496 427.963V673.613C211.496 675.215 212.815 675.215 214.417 675.215Z" fill="#02250C"/>
<path d="M214.417 509.94C222.709 509.94 229.682 506.972 235.242 501.177C250.695 484.923 249.234 451.661 249.14 450.248C249.046 448.646 247.68 447.374 246.078 447.468C244.476 447.562 243.251 448.928 243.298 450.53C243.298 450.86 244.711 482.709 230.954 497.125C226.526 501.79 221.06 504.051 214.37 504.051C212.768 504.051 211.449 505.37 211.449 506.972C211.496 508.668 212.816 509.94 214.417 509.94Z" fill="#02250C"/>
<path d="M212.062 605.439C212.25 605.439 212.439 605.439 212.627 605.439C214.229 605.345 215.454 603.979 215.36 602.33C215.265 600.728 213.852 599.503 212.25 599.597C211.119 599.644 210.036 599.173 208.858 598.137C205.23 594.886 198.399 583.531 193.075 543.673C190.013 520.635 188.929 499.151 188.929 498.915C188.835 497.314 187.469 496.042 185.867 496.136C184.265 496.23 182.993 497.596 183.087 499.198C183.087 499.434 184.171 521.153 187.28 544.427C189.117 558.137 191.285 569.774 193.735 578.914C196.938 590.928 200.613 598.608 204.948 602.471C207.209 604.45 209.565 605.439 212.062 605.439Z" fill="#02250C"/>
<path d="M555.449 59.5815H561.291L561.244 59.1104L559.501 43.61C559.454 43.0918 559.03 42.7148 558.512 42.7148C558.464 42.7148 558.37 42.7148 558.323 42.7148C557.993 42.762 557.711 42.9033 557.475 43.0918C557.192 43.3273 557.004 43.7042 556.957 44.0811L555.449 59.5815Z" fill="#A2C5F9"/>
<path d="M560.723 56.048H560.911L559.451 43.61C559.404 43.0918 558.98 42.7148 558.461 42.7148C558.414 42.7148 558.32 42.7148 558.273 42.7148C558.226 42.762 558.179 42.8091 558.132 42.8562C557.896 43.1389 557.708 43.5158 557.708 43.8927L557.613 52.8443C557.613 54.5875 558.98 56.0009 560.723 56.048Z" fill="#AFCDFB"/>
<path d="M562.987 128.602H551.727V624H562.987V128.602Z" fill="#A2C5F9"/>
<path d="M562.987 128.602H557.805V624H562.987V128.602Z" fill="#AFCDFB"/>
<path d="M575.283 544.945H539.43V676.015H575.283V544.945Z" fill="#A2C5F9"/>
<path d="M575.233 544.945H553.891V676.015H575.233V544.945Z" fill="#AFCDFB"/>
<path d="M537.777 67.0268C537.777 73.1515 547.012 78.0984 558.366 78.0984C559.214 78.0984 560.109 78.0513 560.91 78.0042C571.087 77.3446 578.955 72.6804 578.955 67.0268C578.955 61.3731 571.087 56.7089 560.91 56.0493C560.062 56.0022 559.214 55.9551 558.366 55.9551C546.965 55.9551 537.777 60.9491 537.777 67.0268Z" fill="#A2C5F9"/>
<path d="M539.48 138.403H575.333L587.96 77.7207H528.785L539.48 138.403Z" fill="#AFCDFB"/>
<path d="M591.16 73.1504H525.578V78.9925H591.16V73.1504Z" fill="#A2C5F9"/>
<path d="M569.389 544.946H546.492L549.837 534.816C550.12 533.921 550.968 533.309 551.91 533.309H562.652C563.83 533.309 564.866 534.015 565.29 535.099L569.389 544.946Z" fill="#A2C5F9"/>
<path d="M548.288 66.508H548.43C548.806 61.7967 553.801 57.792 560.915 56.0488C570.761 56.7084 578.441 61.09 578.912 66.508H582.257L586.921 73.151H591.114V78.9931H549.89V73.151H543.812L548.288 66.508Z" fill="#AFCDFB"/>
<path d="M583.721 80.6865H533.168L543.062 135.197H572.084L583.721 80.6865Z" fill="#3F5A83"/>
<path d="M577.593 67.6848C577.593 67.6848 573.73 59.2986 566.145 59.5342C566.145 59.5342 570.997 63.8215 570.526 67.6848C570.102 71.5481 577.593 67.6848 577.593 67.6848Z" fill="#C7DCF9"/>
<path d="M529.77 73.1498H586.965L582.301 66.5068H534.198L529.77 73.1498Z" fill="#A2C5F9"/>
<path d="M580.373 82.5732H568.783L565.391 133.503H568.783L580.373 82.5732Z" fill="#D2E4F9"/>
<path d="M1003.87 644.777C966.419 657.498 897.445 690.194 818.2 668.004C738.955 645.814 645.152 665.13 527.321 689.158C526.756 689.252 526.191 689.394 525.578 689.488L1179.66 688.546C1129.34 631.774 1061.49 625.225 1003.87 644.777Z" fill="#224811"/>
<path d="M460.507 671.442C396.15 691.513 328.495 667.296 204.728 647.933C80.9609 628.569 31.5859 689.534 31.5859 689.534L633.461 689.487C614.804 670.877 524.912 651.419 460.507 671.442Z" fill="#224811"/>
<path d="M1219.03 701.424H2.13962C1.33903 701.424 0.671875 698.956 0.671875 695.994V692.374C0.671875 689.412 1.33903 686.944 2.13962 686.944H1219.08C1219.88 686.944 1220.55 689.412 1220.55 692.374V695.994C1220.5 699.121 1219.83 701.424 1219.03 701.424Z" fill="#283250"/>
<g clip-path="url(#clip0)">
<path d="M847.902 676.477H855.892V623.187C855.892 602.987 872.29 586.554 892.445 586.554C912.601 586.554 928.998 602.987 928.998 623.187V676.477H936.988V623.187C936.988 598.579 916.999 578.547 892.445 578.547C867.891 578.547 847.902 598.579 847.902 623.187V676.477Z" fill="#242945"/>
<path d="M618.782 614.231C620.981 614.231 622.763 612.445 622.763 610.241V510.386C622.763 508.182 620.981 506.396 618.782 506.396C616.582 506.396 614.801 508.182 614.801 510.386V610.213C614.801 612.417 616.582 614.231 618.782 614.231Z" fill="#242945"/>
<path d="M864.798 614.231C866.997 614.231 868.779 612.445 868.779 610.241V510.386C868.779 508.182 866.997 506.396 864.798 506.396C862.598 506.396 860.817 508.182 860.817 510.386V610.213C860.789 612.417 862.598 614.231 864.798 614.231Z" fill="#242945"/>
<path d="M600.991 598.217H887.763C889.768 598.217 891.41 596.57 891.41 594.562V577.208C891.41 575.199 889.768 573.553 887.763 573.553H600.991C598.986 573.553 597.344 575.199 597.344 577.208V594.562C597.344 596.57 598.986 598.217 600.991 598.217Z" fill="#1B3764"/>
<path d="M611.434 615.235H926.547C929.303 615.235 931.558 613.003 931.558 610.213C931.558 607.451 929.331 605.191 926.547 605.191H611.434V615.235Z" fill="#1B3764"/>
<path d="M598.963 569.144H885.736C887.74 569.144 889.383 567.498 889.383 565.489V548.135C889.383 546.127 887.74 544.48 885.736 544.48H598.963C596.959 544.48 595.316 546.127 595.316 548.135V565.489C595.316 567.526 596.959 569.144 598.963 569.144Z" fill="#1B3764"/>
<path d="M596.233 539.04H883.005C885.01 539.04 886.652 537.394 886.652 535.385V518.031C886.652 516.022 885.01 514.376 883.005 514.376H596.233C594.228 514.404 592.586 516.022 592.586 518.031V535.385C592.586 537.394 594.228 539.04 596.233 539.04Z" fill="#1B3764"/>
<path d="M607.227 676.477H615.216V623.187C615.216 602.987 631.614 586.554 651.769 586.554C671.925 586.554 688.35 602.987 688.35 623.187V676.477H696.34V623.187C696.34 598.579 676.352 578.547 651.797 578.547C627.243 578.547 607.254 598.579 607.254 623.187V676.477H607.227Z" fill="#242945"/>
</g>
<rect x="463.555" y="581.794" width="11.4196" height="13.8308" fill="white"/>
<rect x="488.074" y="542.562" width="11.4196" height="13.8308" fill="white"/>
<rect x="488.074" y="620.982" width="11.4196" height="13.8308" fill="white"/>
<rect x="249.23" y="565.717" width="11.4196" height="13.8308" fill="white"/>
<rect x="249.23" y="591.607" width="11.4196" height="13.8308" fill="white"/>
<rect x="931.277" y="374.48" width="11.4196" height="13.8308" fill="white"/>
<rect x="931.277" y="400.37" width="11.4196" height="13.8308" fill="white"/>
<rect x="318.863" y="591.117" width="11.4196" height="13.8308" fill="white"/>
<rect x="343.379" y="551.885" width="11.4196" height="13.8308" fill="white"/>
<rect x="343.379" y="630.303" width="11.4196" height="13.8308" fill="white"/>
<rect x="942.707" y="522.969" width="11.4196" height="13.8308" fill="white"/>
<rect x="967.219" y="562.156" width="11.4196" height="13.8308" fill="white"/>
<rect x="488.074" y="515.123" width="11.4196" height="13.8308" fill="white"/>
<rect x="519.867" y="494.354" width="11.4196" height="13.8308" fill="white"/>
<rect x="514.152" y="581.794" width="11.4196" height="13.8308" fill="white"/>
<rect x="679.527" y="431.057" width="11.4196" height="13.8308" fill="white"/>
<rect x="668.105" y="381.999" width="11.4196" height="13.8308" fill="white"/>
<rect x="668.105" y="279.648" width="11.4196" height="13.8308" fill="white"/>
<rect x="668.105" y="354.559" width="11.4196" height="13.8308" fill="white"/>
<rect x="779.508" y="404.746" width="11.4196" height="13.8308" fill="white"/>
<rect x="730.133" y="431.057" width="11.4196" height="13.8308" fill="white"/>
<defs>
<clipPath id="clip0">
<rect width="344.4" height="170.08" fill="white" transform="translate(592.586 506.396)"/>
</clipPath>
</defs>
</svg>
