<svg width="962" height="629" viewBox="0 0 962 629" fill="none" xmlns="http://www.w3.org/2000/svg">
<path d="M1077.4 530.692C1088.85 579.747 1050.99 626.538 1000.61 626.452L821.315 626.196L804.65 626.153L263.292 624.401L84.719 623.803C84.719 623.803 17.204 505.011 57.4566 385.407C61.4306 373.614 66.4301 361.777 72.6688 350.112C83.0952 330.541 96.94 311.312 114.759 293.023C191.375 214.484 262.052 203.8 319.996 209.142C366.273 213.415 335.371 210.894 362.035 209.142C422.158 205.211 327.881 39.629 505.727 2.28213C541.194 -5.15306 621.909 2.28261 774.74 82.4628C868.555 131.682 985.291 36.6951 1040.06 174.402C1044.05 184.444 1055.87 232.936 1040.06 264.553C1025.68 293.304 1013.01 301.868 996.47 329.814C943.697 418.994 986.855 459.716 1049.24 495.097C1051.81 496.55 1054.37 498.046 1056.89 499.584C1068.09 506.25 1074.33 517.531 1077.4 530.692Z" fill="#1C468A"/>
<path d="M1003.87 625.298C1045.83 625.298 1079.41 590.857 1079.41 548.895L881.954 454.459V405.233H878.28V302.893H821.49V405.233H754.232V339.299H651.805V216.021H587.282V376.347H567.155V239.822H515.365V376.347H396.018V501.207H335.425V416.771H278.978V501.207H262.654V325.412H200.438V501.207H178.09V625.939L1003.87 625.298Z" fill="#046B9E"/>
<path d="M332.345 340.241C331.661 337.677 331.276 334.857 331.276 331.951C331.276 318.918 338.84 308.321 348.155 308.321C349.523 308.321 350.847 308.534 352.129 308.962C353.625 273.666 369.093 245.934 387.938 245.934C405.885 245.934 420.755 271.102 423.447 303.962C436.779 313.021 445.966 331.609 445.966 353.017C445.966 363.23 443.872 372.802 440.24 381.006C452.632 388.655 460.538 400.15 460.538 413.012C460.538 436.001 435.412 454.632 404.432 454.632C381.229 454.632 361.316 444.205 352.77 429.292C350.377 429.848 347.942 430.147 345.42 430.147C324.311 430.147 307.219 409.38 307.219 383.784C307.176 363.786 317.645 346.736 332.345 340.241Z" fill="#224811"/>
<path d="M332.34 340.241C332.34 340.241 369.516 325.755 397.804 351.265C426.135 376.776 445.834 336.566 436.39 317.893C442.33 327.422 445.919 339.685 445.919 353.103C445.919 363.316 443.826 372.887 440.193 381.092C452.585 388.741 460.491 400.235 460.491 413.097C460.491 436.086 435.365 454.717 404.385 454.717C381.182 454.717 361.269 444.291 352.723 429.378C350.33 429.933 347.894 430.232 345.373 430.232C324.264 430.232 307.172 409.465 307.172 383.869C307.172 363.786 317.641 346.736 332.34 340.241Z" fill="#1B3A0B"/>
<path d="M376.013 612.822C377.465 612.822 378.662 612.437 378.662 610.984V324.217C378.662 322.764 377.465 321.567 376.013 321.567C374.56 321.567 373.363 322.764 373.363 324.217V610.984C373.363 612.394 374.56 612.822 376.013 612.822Z" fill="#02250C"/>
<path d="M376.012 426.045C383.533 426.045 389.857 423.353 394.899 418.097C408.915 403.354 407.591 373.186 407.505 371.905C407.42 370.452 406.18 369.298 404.728 369.383C403.275 369.469 402.164 370.708 402.206 372.161C402.206 372.46 403.488 401.346 391.011 414.465C386.994 418.695 382.037 420.746 375.97 420.746C374.517 420.746 373.32 421.942 373.32 423.395C373.32 424.848 374.56 426.045 376.012 426.045Z" fill="#02250C"/>
<path d="M375.628 486.083C375.799 486.083 375.97 486.083 376.141 486.083C377.593 485.997 378.704 484.758 378.619 483.262C378.533 481.81 377.294 480.699 375.799 480.784C374.773 480.827 373.79 480.399 372.722 479.459C369.432 476.511 363.236 466.213 358.407 430.062C355.63 409.167 354.647 389.682 354.647 389.468C354.561 388.015 353.322 386.861 351.869 386.947C350.416 387.032 349.263 388.272 349.348 389.724C349.348 389.938 350.331 409.637 353.151 430.746C354.818 443.181 356.783 453.735 359.005 462.025C361.911 472.922 365.244 479.887 369.175 483.391C371.226 485.185 373.363 486.083 375.628 486.083Z" fill="#02250C"/>
<path d="M212.4 285.545C220.305 270.076 223.98 252.77 223.596 235.379C222.656 193.759 235.176 136.371 265.899 136.371C302.904 136.371 305.81 208.886 294.273 249.694C291.965 257.813 295.17 266.53 302.306 270.974C302.862 271.315 303.246 271.529 303.46 271.529C312.775 271.529 320.339 281.656 320.339 294.177C320.339 296.997 319.954 299.646 319.27 302.125C333.97 308.321 344.439 324.686 344.439 343.915C344.439 368.486 327.346 388.356 306.237 388.356C289.316 388.356 274.958 375.536 269.959 357.803C263.335 363.657 255.345 367.076 246.713 367.076C224.066 367.076 205.691 343.488 205.691 314.388C205.691 303.748 208.17 293.835 212.4 285.545Z" fill="#224811"/>
<path d="M236.541 291.357C274.828 286.187 280.554 327.892 280.554 327.892C325.934 307.253 346.06 339.643 346.06 339.643L347.171 349.343C346.146 372.845 326.661 388.356 306.235 388.356C289.314 388.356 274.956 375.537 269.957 357.804C263.333 363.658 255.343 367.076 246.711 367.076C233.08 367.076 221.03 358.573 213.594 345.454C213.338 344.642 198.553 296.485 236.541 291.357Z" fill="#1B3A0B"/>
<path d="M268.334 612.82C269.787 612.82 271.197 613.76 271.197 612.307V325.54C271.197 324.087 270.001 322.891 268.548 322.891C267.095 322.891 265.898 324.087 265.898 325.54V612.307C265.898 613.718 266.881 612.82 268.334 612.82Z" fill="#02250C"/>
<path d="M268.548 427.37C276.709 427.37 283.717 422.541 289.4 413.055C293.674 405.919 297.177 396.005 299.87 383.656C304.399 362.846 305.083 341.737 305.083 341.523C305.125 340.07 303.972 338.831 302.519 338.788C301.066 338.746 299.827 339.899 299.784 341.352C299.784 341.566 299.143 362.205 294.699 382.545C290.768 400.577 283.034 422.028 268.548 422.028C267.095 422.028 265.898 423.225 265.898 424.677C265.898 426.173 267.095 427.37 268.548 427.37Z" fill="#02250C"/>
<path d="M268.291 487.405C268.42 487.405 268.591 487.405 268.719 487.405C270.172 487.32 271.283 486.081 271.197 484.585C271.112 483.132 269.83 482.021 268.377 482.107C268.035 482.107 267.48 482.064 266.71 481.295C263.42 478.133 257.523 465.014 255.13 412.797C253.763 382.715 254.276 354.042 254.276 353.743C254.318 352.29 253.122 351.094 251.669 351.051C250.216 351.008 249.02 352.205 248.977 353.657C248.977 353.957 248.464 382.8 249.832 413.054C250.644 430.872 251.925 445.7 253.677 457.152C255.985 472.15 259.019 481.295 263.035 485.098C264.958 486.978 266.924 487.405 268.291 487.405Z" fill="#02250C"/>
<path d="M249.068 367.034C249.752 363.915 250.136 360.582 250.136 357.035C250.136 341.353 242.573 328.619 233.257 328.619C231.89 328.619 230.565 328.918 229.283 329.431C227.788 286.999 212.319 253.626 193.475 253.626C175.528 253.626 160.658 283.879 157.965 323.448C144.633 334.345 135.446 356.693 135.446 382.46C135.446 394.766 137.54 406.261 141.172 416.089C128.78 425.276 120.875 439.121 120.875 454.59C120.875 482.237 146.001 504.628 176.981 504.628C200.184 504.628 220.096 492.065 228.642 474.16C231.035 474.844 233.471 475.186 235.992 475.186C257.101 475.186 274.194 450.231 274.194 419.422C274.279 395.365 263.767 374.811 249.068 367.034Z" fill="#224811"/>
<path d="M129.896 427.499C135.921 419.209 138.356 408.911 136.775 398.783C135.963 393.57 135.536 388.101 135.536 382.46C135.536 379.383 135.664 376.307 135.921 373.358C187.753 376.905 185.702 428.909 185.702 428.909C185.702 428.909 228.604 410.833 242.876 436.301C257.191 461.726 228.732 474.246 228.732 474.246C220.186 492.15 200.274 504.713 177.071 504.713C146.091 504.713 120.965 482.322 120.965 454.675C120.965 444.634 124.255 435.318 129.896 427.499Z" fill="#1B3A0B"/>
<path d="M194.071 612.397C195.524 612.397 196.721 612.397 196.721 610.944V388.144C196.721 386.692 195.524 385.495 194.071 385.495C192.618 385.495 191.422 386.692 191.422 388.144V610.944C191.422 612.397 192.618 612.397 194.071 612.397Z" fill="#02250C"/>
<path d="M194.075 462.496C201.596 462.496 207.92 459.804 212.962 454.548C226.978 439.806 225.653 409.638 225.568 408.356C225.482 406.903 224.243 405.749 222.79 405.835C221.337 405.92 220.226 407.159 220.269 408.612C220.269 408.911 221.551 437.797 209.073 450.873C205.057 455.103 200.1 457.154 194.032 457.154C192.579 457.154 191.383 458.351 191.383 459.804C191.426 461.342 192.622 462.496 194.075 462.496Z" fill="#02250C"/>
<path d="M191.936 549.111C192.107 549.111 192.278 549.111 192.449 549.111C193.902 549.026 195.013 547.786 194.928 546.291C194.842 544.838 193.56 543.727 192.107 543.812C191.082 543.855 190.099 543.428 189.031 542.488C185.74 539.539 179.544 529.241 174.716 493.091C171.938 472.195 170.955 452.71 170.955 452.496C170.87 451.043 169.631 449.89 168.178 449.975C166.725 450.061 165.571 451.3 165.657 452.753C165.657 452.966 166.64 472.665 169.46 493.774C171.126 506.209 173.092 516.764 175.314 525.053C178.22 535.95 181.553 542.915 185.484 546.419C187.535 548.214 189.672 549.111 191.936 549.111Z" fill="#02250C"/>
<path d="M503.355 54.0291H508.654L508.611 53.6018L507.03 39.5433C506.988 39.0733 506.603 38.7314 506.133 38.7314C506.09 38.7314 506.005 38.7314 505.962 38.7314C505.663 38.7742 505.407 38.9024 505.193 39.0733C504.937 39.2869 504.766 39.6288 504.723 39.9706L503.355 54.0291Z" fill="#A2C5F9"/>
<path d="M508.145 50.8243H508.315L506.991 39.5433C506.948 39.0733 506.563 38.7314 506.093 38.7314C506.051 38.7314 505.965 38.7314 505.922 38.7314C505.88 38.7742 505.837 38.8169 505.794 38.8596C505.581 39.116 505.41 39.4579 505.41 39.7997L505.324 47.9186C505.324 49.4997 506.563 50.7816 508.145 50.8243Z" fill="#AFCDFB"/>
<path d="M510.193 116.63H499.98V565.946H510.193V116.63Z" fill="#A2C5F9"/>
<path d="M510.193 116.63H505.492V565.946H510.193V116.63Z" fill="#AFCDFB"/>
<path d="M521.346 494.244H488.828V613.122H521.346V494.244Z" fill="#A2C5F9"/>
<path d="M521.302 494.244H501.945V613.122H521.302V494.244Z" fill="#AFCDFB"/>
<path d="M487.332 60.781C487.332 66.3361 495.707 70.8228 506.005 70.8228C506.775 70.8228 507.587 70.7801 508.313 70.7374C517.543 70.1391 524.679 65.9087 524.679 60.781C524.679 55.6533 517.543 51.423 508.313 50.8247C507.544 50.782 506.775 50.7393 506.005 50.7393C495.665 50.7393 487.332 55.2687 487.332 60.781Z" fill="#A2C5F9"/>
<path d="M488.868 125.518H521.386L532.838 70.4805H479.168L488.868 125.518Z" fill="#AFCDFB"/>
<path d="M535.747 66.3359H476.266V71.6346H535.747V66.3359Z" fill="#A2C5F9"/>
<path d="M516.006 494.244H495.238L498.272 485.057C498.529 484.245 499.298 483.689 500.152 483.689H509.895C510.963 483.689 511.903 484.33 512.288 485.313L516.006 494.244Z" fill="#A2C5F9"/>
<path d="M496.86 60.3105H496.988C497.33 56.0374 501.86 52.4053 508.312 50.8242C517.243 51.4225 524.208 55.3964 524.635 60.3105H527.669L531.9 66.3356H535.703V71.6342H498.313V66.3356H492.801L496.86 60.3105Z" fill="#AFCDFB"/>
<path d="M528.995 73.1729H483.145L492.118 122.613H518.44L528.995 73.1729Z" fill="#3F5A83"/>
<path d="M523.442 61.3793C523.442 61.3793 519.938 53.7732 513.059 53.9868C513.059 53.9868 517.46 57.8754 517.033 61.3793C516.648 64.8832 523.442 61.3793 523.442 61.3793Z" fill="#C7DCF9"/>
<path d="M480.066 66.3356H531.942L527.711 60.3105H484.083L480.066 66.3356Z" fill="#A2C5F9"/>
<path d="M525.963 74.8818H515.452L512.375 121.074H515.452L525.963 74.8818Z" fill="#D2E4F9"/>
<path d="M910.07 584.788C876.099 596.325 813.541 625.98 741.668 605.854C669.794 585.728 584.717 603.247 477.847 625.04C477.334 625.126 476.821 625.254 476.266 625.339L1069.5 624.485C1023.86 572.994 962.33 567.054 910.07 584.788Z" fill="#224811"/>
<path d="M417.253 608.974C358.883 627.178 297.521 605.214 185.267 587.651C73.0125 570.089 28.2305 625.383 28.2305 625.383L574.119 625.34C557.197 608.461 475.666 590.814 417.253 608.974Z" fill="#224811"/>
<path d="M1105.22 636.166H1.52653C0.80041 636.166 0.195312 633.928 0.195312 631.241V627.958C0.195312 625.272 0.80041 623.033 1.52653 623.033H1105.26C1105.99 623.033 1106.6 625.272 1106.6 627.958V631.241C1106.55 634.077 1105.95 636.166 1105.22 636.166Z" fill="#283250"/>
<rect x="420.023" y="527.665" width="10.3573" height="12.5442" fill="white"/>
<rect x="442.258" y="492.082" width="10.3573" height="12.5442" fill="white"/>
<rect x="442.258" y="563.206" width="10.3573" height="12.5442" fill="white"/>
<rect x="225.637" y="513.083" width="10.3573" height="12.5442" fill="white"/>
<rect x="225.637" y="536.565" width="10.3573" height="12.5442" fill="white"/>
<rect x="844.242" y="339.635" width="10.3573" height="12.5442" fill="white"/>
<rect x="844.242" y="363.118" width="10.3573" height="12.5442" fill="white"/>
<rect x="288.793" y="536.121" width="10.3573" height="12.5442" fill="white"/>
<rect x="311.027" y="500.537" width="10.3573" height="12.5442" fill="white"/>
<rect x="311.027" y="571.662" width="10.3573" height="12.5442" fill="white"/>
<rect x="854.598" y="474.312" width="10.3573" height="12.5442" fill="white"/>
<rect x="876.836" y="509.854" width="10.3573" height="12.5442" fill="white"/>
<rect x="442.258" y="467.194" width="10.3573" height="12.5442" fill="white"/>
<rect x="471.09" y="448.359" width="10.3573" height="12.5442" fill="white"/>
<rect x="465.91" y="527.665" width="10.3573" height="12.5442" fill="white"/>
<rect x="615.91" y="390.95" width="10.3573" height="12.5442" fill="white"/>
<rect x="605.555" y="346.455" width="10.3573" height="12.5442" fill="white"/>
<rect x="605.555" y="253.625" width="10.3573" height="12.5442" fill="white"/>
<rect x="605.555" y="321.567" width="10.3573" height="12.5442" fill="white"/>
<rect x="706.59" y="367.085" width="10.3573" height="12.5442" fill="white"/>
<rect x="661.801" y="390.95" width="10.3573" height="12.5442" fill="white"/>
<path fill-rule="evenodd" clip-rule="evenodd" d="M691.735 380.709L722.593 404.309L723.573 404.97C725.122 405.579 726.638 406.247 727.691 406.876C729.3 407.695 730.776 408.189 732.133 408.526C733.82 409.003 737.015 410.363 737.695 410.866C738.488 411.472 740.032 412.799 740.95 413.618C741.312 413.941 741.707 414.271 742.082 414.583C742.658 415.062 743.185 415.5 743.469 415.816C743.76 416.127 744.536 416.511 745.14 416.741C746.021 417.116 746.019 418.402 745.144 418.752C744.321 419.098 743.113 418.638 742.395 418.305C741.207 417.83 739.838 416.827 738.864 416.113C738.126 415.572 737.614 415.198 737.58 415.345C737.517 415.62 739.37 419.199 740.267 420.931C740.486 421.354 740.648 421.668 740.711 421.794C740.752 421.877 740.843 422.056 740.971 422.307C741.838 424.009 744.407 429.055 744.647 430.301C744.928 431.787 744.11 432.188 743.43 431.685C742.866 431.284 737.547 422.778 737.547 422.778C737.547 422.778 736.875 421.715 736.714 422.343C736.615 422.773 738.473 425.992 739.994 428.627C740.887 430.175 741.664 431.521 741.859 431.981C742.39 433.278 742.159 434.358 740.96 434.009C739.489 433.57 734.857 425.008 734.857 425.008C734.857 425.008 734.238 423.941 733.953 424.356C733.76 424.594 735.038 426.796 736.195 428.79C737.07 430.299 737.877 431.688 737.927 432.021C738.043 432.794 737.419 433.627 736.414 433.038C735.189 432.356 731.109 424.699 731.109 424.699C731.109 424.699 730.645 424.234 730.514 424.58C730.46 424.751 731.019 425.902 731.667 427.235C732.535 429.023 733.563 431.138 733.483 431.657C733.383 432.391 732.74 432.332 732.74 432.332C731.784 432.479 730.498 430.122 729.204 427.75C728.436 426.343 727.666 424.93 726.959 424.031C726.151 423.003 725.508 421.748 724.838 420.443C724.63 420.038 724.419 419.627 724.201 419.217L720.768 414.8C719.796 413.94 718.403 412.197 717.047 410.468L677.184 389.873L669.344 346.189C671.974 345.491 674.476 344.088 676.979 342.685C679.431 341.311 681.884 339.936 684.459 339.222C688.599 358.742 691.735 380.709 691.735 380.709Z" fill="#FFA97A"/>
<path d="M675.424 269.113C675.801 259.259 674.358 249.53 670.031 240.367C666.267 232.458 656.922 228.002 648.392 228.002C621.36 227.939 617.91 263.903 600.662 277.712C595.393 281.917 589.498 285.369 584.543 289.951C566.166 306.835 574.445 338.029 591.316 352.778C603.045 363.009 621.422 368.846 635.848 360.812C643.374 356.607 649.082 349.703 653.159 342.046C658.929 331.25 662.692 318.76 666.769 307.211C671.222 294.972 674.923 282.231 675.424 269.113Z" fill="#2D2861"/>
<path d="M679.881 316.815C671.414 291.144 660.312 291.583 660.312 291.583L669.344 346.189C674.55 344.745 681.324 341.607 686.592 340.1C684.773 332.004 681.951 323.154 679.881 316.815Z" fill="#DFB05D"/>
<path d="M590.945 586.389C590.945 586.389 589.063 599.632 585.739 603.9C584.61 605.344 582.603 607.164 581.286 609.737C579.216 613.754 580.345 619.78 581.913 623.106C582.666 624.801 581.85 624.801 583.607 625.366C588.875 626.998 594.457 624.236 596.652 619.215C597.907 616.39 598.973 612.624 599.224 607.917C599.788 595.866 603.489 589.778 603.489 589.778L590.945 586.389Z" fill="#F7A491"/>
<path d="M648.266 592.414C648.266 592.414 649.457 607.352 648.517 612.248C648.015 614.821 645.13 620.219 646.447 622.667C647.764 625.115 649.269 625.743 649.269 625.743L683.138 626.308C684.957 626.308 683.765 625.178 682.26 624.048C679.814 622.228 677.87 621.035 670.092 617.269C669.591 617.018 667.709 615.826 667.082 615.449C665.388 614.445 663.695 612.813 662.252 611.181C659.806 608.482 659.618 595.301 659.618 595.301L648.266 592.414Z" fill="#F7A491"/>
<path d="M674.732 393.764C674.732 393.764 678.997 418.054 676.175 433.933C673.353 449.813 659.93 597.31 659.93 597.31L645.003 598.126C645.003 598.126 641.867 536.491 642.431 527.955C642.996 519.356 647.449 505.046 647.449 505.046L645.944 455.336L664.76 389.998L674.732 393.764Z" fill="#352E73"/>
<path d="M630.826 388.679C630.826 388.679 619.098 406.442 616.275 421.129C613.453 435.816 618.345 480.944 612.951 500.212C610.066 510.631 598.965 526.699 597.334 540.194C595.64 553.688 589.055 588.899 589.055 588.899L603.982 591.849L638.667 503.79L665.887 424.204L672.849 383.219L630.826 388.679Z" fill="#2D2861"/>
<path d="M640.369 287.691C640.369 287.691 625.149 287.691 617.443 292.524C611.296 299.24 632.341 353.406 633.47 361.942C634.598 370.478 627.762 393.262 627.762 393.262C627.762 393.262 664.328 400.668 674.802 393.701C674.802 393.701 675.931 332.066 674.802 325.978C673.673 319.827 664.328 294.972 662.133 292.524C659.812 290.139 640.369 287.691 640.369 287.691Z" fill="#CAA810"/>
<path d="M645.51 266.791C645.51 266.791 645.447 267.23 645.259 268.046C644.569 271.812 641.872 284.239 640.116 287.691C637.921 291.834 647.58 305.014 656.863 303.382C659.622 302.88 654.542 291.269 654.793 290.014C655.232 287.628 655.922 284.427 656.549 281.101C656.925 279.218 657.302 277.335 657.615 275.578C658.619 270.557 659.434 266.414 659.434 266.414L645.51 266.791Z" fill="#FFA97A"/>
<path d="M645.318 268.046C645.443 267.293 645.569 266.791 645.569 266.791L659.492 266.414C659.492 266.414 658.677 270.556 657.674 275.577C657.297 277.335 656.984 279.218 656.607 281.101C654.475 280.787 652.217 279.72 649.959 277.774C647.513 275.64 645.882 273.004 644.941 270.243C645.067 269.427 645.192 268.674 645.318 268.046Z" fill="#F47458"/>
<path d="M654.92 235.095C654.92 235.095 648.334 234.342 644.257 239.677C640.118 245.012 635.727 261.519 645.951 270.494C656.174 279.47 666.272 269.302 667.778 258.569C669.22 247.774 669.785 234.719 654.92 235.095Z" fill="#FFA97A"/>
<path d="M670.72 258.379C669.529 260.764 667.459 262.082 666.142 261.329C664.824 260.576 664.762 258.065 666.016 255.68C667.208 253.295 669.278 251.977 670.595 252.73C671.912 253.421 671.975 255.994 670.72 258.379Z" fill="#F7A491"/>
<path d="M655.672 233.338C655.672 233.338 646.891 249.029 640.619 249.782C634.347 250.536 633.531 258.82 633.531 258.82C633.531 258.82 635.789 239.614 641.998 235.911C648.145 232.208 655.672 233.338 655.672 233.338Z" fill="#13375B"/>
<path d="M597.657 616.58C589.503 618.086 584.109 613.316 581.287 609.738C579.217 613.755 578.213 619.844 579.719 623.17C581.036 626.12 584.987 625.995 588.06 626.12C591.322 626.246 593.831 624.425 595.461 621.601C596.277 620.22 597.029 618.588 597.657 616.58Z" fill="#C65447"/>
<path d="M667.019 615.388C658.05 617.71 651.465 616.141 647.764 614.635C646.823 617.334 645.569 620.723 646.196 622.731C647.012 625.117 648.203 625.681 649.207 625.681C657.36 625.87 679.187 626.184 685.396 626.246C686.275 626.246 686.776 625.242 686.212 624.552C684.644 622.794 667.709 615.827 667.019 615.388Z" fill="#C65447"/>
<path d="M642.249 253.672C642.751 256.434 641.747 259.007 639.929 259.384C638.172 259.76 636.291 257.815 635.789 254.99C635.287 252.229 636.291 249.655 638.11 249.279C639.866 248.902 641.747 250.911 642.249 253.672Z" fill="#F7A491"/>
<path d="M652.473 263.337C653.481 259.786 660.59 262.477 660.376 263.714C660.161 264.951 660.062 266.726 656.55 266.664C652.348 266.538 651.465 266.888 652.473 263.337Z" fill="white"/>
<path fill-rule="evenodd" clip-rule="evenodd" d="M631.403 330.981C631.843 332.002 632.376 333.104 632.913 334.214C633.71 335.863 634.515 337.529 635.036 338.97C642.603 337.064 662.078 326.267 667.827 323.08C668.701 322.595 669.258 322.287 669.407 322.212C669.89 321.983 670.961 319.02 672.176 315.658C673.959 310.726 676.052 304.933 677.059 305.642C677.87 306.213 677.285 308.312 676.69 310.447C676.043 312.767 675.384 315.131 676.495 315.622C677.539 316.065 682.677 313.725 687.525 311.517C692.279 309.352 696.754 307.314 696.816 308.153C696.926 309.994 693.151 311.943 690.074 313.531C687.907 314.65 686.087 315.59 686.216 316.187C686.351 316.78 688.467 315.959 690.94 314.999C694.223 313.726 698.135 312.208 698.886 313.425C699.676 314.705 695.614 316.188 692.182 317.441C689.893 318.277 687.885 319.011 687.784 319.513C687.683 319.993 689.552 319.944 691.776 319.887C695.081 319.801 699.173 319.695 698.76 321.271C698.582 321.955 696.177 322.343 693.743 322.736C691.042 323.172 688.306 323.613 688.537 324.472C688.744 325.241 690.583 325.927 692.41 326.608C694.457 327.371 696.487 328.129 696.189 328.991C695.929 329.741 694.556 329.364 692.764 328.871C690.658 328.292 687.974 327.554 685.84 328.3C684.5 328.734 683.234 328.875 681.925 329.022C679.252 329.321 676.397 329.64 672.355 332.506C671.369 333.201 669.726 334.464 667.634 336.071C657.083 344.178 635.129 361.047 628.639 358.114C626.067 356.984 620.861 346.942 617.224 337.778C617.232 337.773 617.239 337.768 617.247 337.763C613.892 329.755 608.298 314.007 610.383 302.152C611.293 293.759 618.414 289.581 623.829 292.521C628.677 295.099 630.975 324.789 631.403 330.981Z" fill="#FFA97A"/>
<path d="M871.528 600.138L858.151 602.112C858.151 602.112 855.394 589.828 851.94 573.51C857.789 573.28 863.696 573.484 869.657 573.625C870.545 588.997 871.528 600.138 871.528 600.138Z" fill="#FF8A63"/>
<path d="M859.266 596.096C859.266 596.096 863.831 601.747 865.597 601.026C867.397 600.291 868.927 594.435 871.109 595.412C873.291 596.39 879.695 610.133 878.782 612.457C877.869 614.781 877.387 618.258 875.553 619.007C873.72 619.756 837.963 626.301 832.463 625.931C826.964 625.56 826.197 617.57 832.231 616.144C838.294 614.789 849.744 589.853 859.266 596.096Z" fill="#352E73"/>
<path d="M869.762 609.873C872.764 608.979 875.727 608.765 878.274 608.888C878.792 610.545 879.125 612.526 879.086 613.206C878.978 616.24 877.415 618.331 875.581 619.08C873.747 619.829 837.991 626.374 832.491 626.004C829.518 625.806 827.919 623.345 828.042 620.928C829.036 621.228 830.336 621.403 831.897 621.347C837.402 621.051 861.147 612.352 869.762 609.873Z" fill="#728888"/>
<path d="M827.844 606.518L814.368 605.398C814.368 605.398 814.477 592.808 814.827 576.132C820.574 577.239 826.28 578.781 832.052 580.274C829.421 595.446 827.844 606.518 827.844 606.518Z" fill="#FF8A63"/>
<path d="M816.813 599.791C816.813 599.791 819.973 606.333 821.856 606.032C823.776 605.726 826.599 600.372 828.501 601.82C830.404 603.268 833.513 618.108 832.095 620.163C830.677 622.219 829.417 625.495 827.461 625.807C825.505 626.119 789.197 624.358 783.926 622.746C778.655 621.134 779.726 613.179 785.926 613.163C792.138 613.223 808.961 591.546 816.813 599.791Z" fill="#352E73"/>
<path d="M823.904 615.593C827.031 615.406 829.965 615.872 832.417 616.571C832.544 618.302 832.418 620.308 832.225 620.961C831.43 623.89 829.432 625.571 827.476 625.883C825.52 626.195 789.212 624.434 783.941 622.823C781.091 621.954 780.094 619.193 780.763 616.868C781.663 617.386 782.889 617.853 784.422 618.153C789.85 619.117 814.951 616.048 823.904 615.593Z" fill="#728888"/>
<path d="M721.897 366.478C728.488 366.234 728.351 367.359 729.182 367.251C730.2 367.166 740.545 359.027 740.545 359.027C740.545 359.027 771.219 335.23 772.83 333.866L791.146 297.831L811.885 302.756C811.885 302.756 790.921 341.342 789.463 343.162C788.006 344.983 742.592 372.083 738.655 374.59C738.655 374.59 735.183 379.381 732.863 382.352C730.59 385.253 727.049 387.01 726.279 387.715C726.174 387.798 723.407 390.067 719.268 391.885C715.691 393.466 718.28 390.318 718.28 390.318C718.28 390.318 724.318 386.163 723.872 385.766C723.555 385.404 720.402 387.874 716.439 389.656C715.434 390.104 714.429 390.553 713.54 390.977C711.132 392.016 709.735 390.837 712.036 389.271C712.842 388.742 714.244 387.847 715.308 387.387C716.488 386.903 717.352 386.056 718.263 385.444C720.097 384.279 721.394 383.466 721.323 383.42C721.182 383.326 721.392 382.857 720.328 383.317C719.042 383.884 716.531 385.614 714.531 386.264C713.385 386.62 711.07 387.517 711.07 387.517C711.07 387.517 706.941 388.784 706.764 388.21C706.443 386.934 708.862 385.65 710.512 385.375C711.4 384.646 713.902 383.771 713.902 383.771C713.902 383.771 718.423 380.84 717.975 380.138C717.799 379.869 714.911 380.945 711.788 381.763C708.501 382.675 706.103 383.163 705.796 382.555C705.289 381.561 707.909 380.662 707.909 380.662C707.909 380.662 710.177 379.835 710.902 379.505C711.744 379.151 714.197 377.737 714.197 377.737C714.197 377.737 722.527 372.568 722.104 371.983C721.622 371.411 719.873 370.303 719.23 370.434C718.586 370.565 717.606 371.435 716.963 371.566C716.319 371.697 714.95 371.854 714.666 371.058C714.382 370.262 717.617 367.897 717.617 367.897C717.617 367.897 719.966 366.566 721.897 366.478Z" fill="#FF8A63"/>
<path d="M777.942 320.635C777.942 320.635 785.215 324.946 788.17 326.296C790.586 327.39 801.952 330.259 801.952 330.259C801.952 330.259 809.032 312.359 811.929 303.54C815.416 292.833 816.312 277.777 814.942 277.629C811.089 277.254 805.986 277.622 801.793 280.669C787.324 291.294 777.942 320.635 777.942 320.635Z" fill="#D6007E"/>
<path d="M729.55 373.518C726.884 374.487 723.969 374.531 722.299 372.311C722.614 375.356 727.416 375.903 729.55 373.518Z" fill="#FE875E"/>
<path d="M862.676 390.508C862.676 390.508 866.676 411.297 865.064 427.068C863.452 442.838 863.273 498.872 863.273 498.872L870.795 588.478L854.677 588.836C854.677 588.836 837.127 499.23 837.425 501.56C837.724 503.89 831.516 438.477 831.516 438.477L852.468 388.537L862.676 390.508Z" fill="#2BA14C"/>
<path d="M857.054 377.066C857.054 377.066 875.261 396.242 868.456 417.21C865.71 425.633 840.399 506.039 840.041 512.61C839.743 519.181 831.445 591.822 831.445 591.822L814.193 591.284L810.492 510.519L815.447 401.738L825.893 383.399L857.054 377.066Z" fill="#68A819"/>
<path d="M800.353 286.988C808.805 284.131 824.751 282.196 824.751 282.196C824.751 282.196 834.712 280.187 837.997 280.799C842.847 281.674 851.846 281.865 853.323 302.635C854.389 317.555 868.012 399.211 874.32 405.29L812.817 401.295C817.697 389.441 805.52 355.055 804.28 349.219C801.494 336.142 792.388 289.708 800.353 286.988Z" fill="#FC008B"/>
<path d="M798.011 265.69L803.472 282.911C803.472 282.911 807.299 296.623 807.944 296.982C814.172 300.412 828.966 278.09 828.966 278.09L811.69 257.145L798.011 265.69Z" fill="#FF8A63"/>
<path opacity="0.68" d="M815.617 262.024L811.684 257.146L798.042 265.684L803.503 282.905C805.317 281.953 806.879 280.888 808.055 279.615C811.443 276.066 814.227 269.173 815.617 262.024Z" fill="#FF4900"/>
<path d="M791.691 225.856C791.691 225.856 790.891 225.688 787.833 232.553C785.662 237.438 784.839 242.949 783.898 248.24C782.531 256.109 781.735 264.553 785.353 271.986C787.255 275.887 803.284 273.972 808.975 269.216C814.658 264.42 818.39 251.871 816.423 243.839C814.53 235.791 794.237 223.716 791.691 225.856Z" fill="#FF8A63"/>
<path opacity="0.68" d="M785.588 239.626C786.155 237.183 786.855 234.835 787.882 232.585C788.768 230.604 789.463 229.222 790.002 228.233C795.005 229.284 801.749 231.006 805.751 232.047C806.952 232.903 808.124 233.804 809.221 234.72L809.414 250.7L804.885 243.723C804.885 243.723 800.996 238.676 794.284 238.518C790.757 238.351 787.691 238.98 785.588 239.626Z" fill="#FF4900"/>
<path d="M809.736 263.395C811.116 265.383 812.858 265.652 817.842 264.815C824.234 263.706 829.56 257.451 829.414 247.901C828.907 218.701 802.026 216.706 794.92 215.295C792.282 214.756 790.512 215.941 789.315 217.701C787.429 220.478 784.498 222.208 781.246 222.27C779.831 222.301 776.113 222.935 775.538 225.34C773.903 232.214 775.097 238.826 785.874 236.754C810.278 232.062 807.041 259.567 809.736 263.395Z" fill="#2D2861"/>
<path d="M805.623 247.566C805.623 247.566 808.338 238.915 810.493 243.531C812.64 248.109 813.387 257.986 808.161 255.972C802.943 253.997 805.623 247.566 805.623 247.566Z" fill="#FF8A63"/>
<path d="M794.933 265.364L785.548 265.535C785.548 265.535 785.726 261.911 789.843 261.706C794.855 261.483 794.933 265.364 794.933 265.364Z" fill="white"/>
<path d="M798.433 414.613C799.395 411.407 798.889 407.362 800.439 403.65C800.975 402.407 801.927 400.901 803.088 399.265C812.721 388.386 837.932 360.224 838.716 358.397C839.597 356.286 849.275 314.033 849.275 314.033L828.799 315.948L820.952 354.964C819.828 356.714 797.354 388.255 797.354 388.255C797.354 388.255 792.957 394.783 790.484 397.979C789.154 399.483 787.826 400.608 786.556 401.526C785.002 402.725 782.249 405.447 781.753 406.238C781.182 407.179 780.132 409.156 779.521 410.361C778.91 411.566 778.091 412.903 777.823 413.619C777.65 414.052 777.004 414.766 776.473 415.254C775.714 416.005 776.254 417.274 777.311 417.242C778.312 417.23 779.375 416.254 779.982 415.615C781.805 413.888 783.524 410.31 783.749 410.613C783.974 410.917 783.256 417.562 783.195 418.336C783.134 419.11 782.354 426.907 782.666 428.439C782.997 430.027 784.016 430.071 784.512 429.281C784.931 428.641 786.898 417.943 786.898 417.943C786.898 417.943 787.151 416.603 787.582 417.154C788.032 417.761 786.297 427.441 786.27 428.895C786.261 430.406 786.954 431.374 788.054 430.511C789.4 429.443 790.63 418.986 790.63 418.986C790.63 418.986 790.826 417.664 791.297 417.951C791.824 418.218 790.173 426.425 790.376 427.239C790.579 428.052 791.576 428.606 792.375 427.591C793.363 426.388 794.398 417.063 794.398 417.063C794.398 417.063 794.685 416.403 794.966 416.689C795.266 417.03 794.32 424.127 794.844 424.961C795.255 425.644 795.899 425.308 795.899 425.308C797.582 424.884 797.471 417.818 798.433 414.613Z" fill="#FF8A63"/>
<path d="M846.017 272.203C870.169 265.914 892.849 297.122 889.77 301.595C905.88 329.616 904.496 347.149 906.69 364.915C908.861 382.631 896.506 385.6 880.495 387.851C864.471 390.139 861.395 371.08 859.715 354.277C858.035 337.473 844.119 275.279 846.017 272.203Z" fill="#DEA830"/>
<path d="M853.122 278.193C836.409 265.716 821.829 275.608 818.109 294.904C817.278 341.819 867.003 377.03 867.003 377.03L865.096 360.193C865.096 360.193 842.981 350.333 828.426 316.207C818.402 292.71 824.19 288.098 831.701 284.517C843.842 278.728 850.577 287.509 850.577 287.509L853.122 278.193Z" fill="#FCC13F"/>
<path d="M850.167 334.419C850.167 334.419 843.333 334.453 838.71 333.953C835.635 333.575 822.111 331.585 822.111 331.585C822.111 331.585 820.182 308.774 821.099 300.052C824.395 268.054 844.815 282.686 848.21 286.541C855.826 295.239 850.167 334.419 850.167 334.419Z" fill="#D6007E"/>
<path d="M893.343 364.35C888.722 366.825 880.287 369.366 876.727 366.731C874.985 365.422 873.92 363.218 873.332 361.291C873.002 359.262 872.781 357.909 872.781 357.909C886.464 358.568 895.118 352.829 895.118 352.829C895.551 356.06 897.964 361.876 893.343 364.35Z" fill="#BC8744"/>
</svg>
