<svg width="1440" height="641" viewBox="0 0 1440 641" fill="none" xmlns="http://www.w3.org/2000/svg">
<path d="M1057.53 568.13C1062.81 565.008 1068.95 566.536 1074.16 569.793C1078.37 558.883 1086.24 556.143 1085.77 556.388C1085.83 556.367 1087.38 555.696 1087.31 555.755C1091.07 554.158 1099.07 552.667 1106.28 553.188C1092 555.963 1081.24 559.121 1077.43 573.031C1077.42 573.069 1076.54 576.633 1076.54 576.633C1074.35 575.045 1066.49 567.622 1059.19 571.131C1053.72 573.863 1046.96 580.383 1042.6 584.691C1045.93 578.802 1051.68 571.72 1057.53 568.13Z" fill="#7271B3"/>
<path d="M1266.33 65.0058C1270.3 62.6589 1274.92 63.8079 1278.84 66.2563C1282.01 58.0538 1287.92 55.9941 1287.57 56.1783C1287.61 56.1623 1288.78 55.658 1288.72 55.7021C1291.55 54.5015 1297.57 53.3809 1302.99 53.7724C1292.25 55.8587 1284.16 58.2329 1281.3 68.6909C1281.29 68.719 1280.63 71.3988 1280.63 71.3988C1278.98 70.2051 1273.07 64.6244 1267.59 67.2625C1263.47 69.3163 1258.39 74.218 1255.11 77.4565C1257.62 73.0293 1261.94 67.7054 1266.33 65.0058Z" fill="#7271B3"/>
<path d="M947.4 519.479C950.832 521.287 951.963 525.139 951.865 528.999C959.301 527.657 963.368 530.987 963.075 530.824C963.114 530.834 963.99 531.491 963.922 531.431C966.044 532.93 969.425 536.751 971.461 540.846C965.273 534.032 960.032 529.289 951.08 531.829C951.04 531.819 948.773 532.52 948.773 532.52C948.945 530.834 950.523 524.077 946.213 521.315C942.936 519.253 937.088 517.769 933.287 516.833C937.708 516.753 943.506 517.506 947.4 519.479Z" fill="#7271B3"/>
<path d="M880.68 295.928L889.923 294.207C889.923 294.207 890.358 297.758 886.325 298.639C881.411 299.686 880.68 295.928 880.68 295.928Z" fill="white"/>
<path d="M1205.98 243.958L1214.89 246.912C1214.89 246.912 1213.5 250.217 1209.55 249.041C1204.74 247.586 1205.98 243.958 1205.98 243.958Z" fill="white"/>
<path d="M1387.86 103.987C1235.79 -58.4863 1121.53 162.817 899.248 18.2009C358.167 -92.2593 557.669 354.243 450.322 338.72C297.282 316.483 279.138 199.263 101.886 297.36C57.6486 321.884 -1.63784 384.752 -18.022 458.276C-35.2557 535.402 -13.9563 625.373 -13.9563 625.373L1394.66 649.508C1433.13 564.841 1508.68 233.032 1387.86 103.987Z" fill="url(#paint0_linear)"/>
<path d="M-2.05156 627.275H1415.88C1428.43 627.275 1438.58 634.048 1438.58 642.417V650.397H-24.7529V642.417C-24.7529 634.048 -14.5986 627.275 -2.05156 627.275Z" fill="#FEE2BF"/>
<path opacity="0.22" d="M1453.37 451.631C1453.43 459.327 1453.48 466.968 1453.53 474.664C1353.95 473.091 1254.36 471.574 1154.78 470.001C992.395 470.001 835.412 408.597 738.006 339.441C737.406 338.991 736.752 338.598 736.152 338.149C778.342 339.497 823.256 340.564 864.192 352.306C904.092 363.654 936.416 393.261 975.498 407.474C1072.96 442.979 1182.03 390.508 1283.31 411.856C1340.7 423.934 1395.37 459.608 1453.37 451.238C1453.37 451.35 1453.37 451.518 1453.37 451.631Z" fill="white"/>
<path d="M984.992 205.124C988.167 203.76 991.946 202.942 995.99 202.903C999.732 197.138 1008.42 193.282 1018.33 193.282C1024.26 193.282 1029.89 194.723 1034.24 197.177C1039.08 190.01 1050.15 184.985 1062.74 184.985C1071.01 184.985 1078.84 187.088 1084.62 190.867C1085.45 190.789 1086.28 190.75 1087.11 190.75C1096.11 190.75 1103.44 195.502 1103.44 201.345C1103.44 202.67 1103.06 203.955 1102.34 205.163H984.992V205.124Z" fill="white"/>
<path d="M1262.85 373.879C1268.48 371.46 1275.19 370.009 1282.36 369.94C1289 359.711 1304.42 352.869 1321.99 352.869C1332.52 352.869 1342.51 355.426 1350.22 359.78C1358.8 347.064 1378.45 338.149 1400.78 338.149C1415.47 338.149 1429.35 341.881 1439.61 348.584C1441.08 348.446 1442.56 348.377 1444.03 348.377C1459.99 348.377 1473 356.809 1473 367.175C1473 369.525 1472.33 371.806 1471.05 373.948H1262.85V373.879Z" fill="white"/>
<path d="M1103.48 158.536C1106.65 157.172 1110.43 156.354 1114.48 156.315C1118.22 150.55 1126.91 146.694 1136.81 146.694C1142.75 146.694 1148.38 148.135 1152.72 150.589C1157.56 143.422 1168.64 138.397 1181.22 138.397C1189.5 138.397 1197.32 140.5 1203.1 144.279C1203.94 144.201 1204.77 144.162 1205.6 144.162C1214.59 144.162 1221.93 148.914 1221.93 154.757C1221.93 156.082 1221.55 157.367 1220.83 158.575H1103.48V158.536Z" fill="white"/>
<path d="M1047.03 308.969C1045.78 308.891 1044.54 308.852 1043.29 308.852C1033.99 294.439 1012.26 284.818 987.617 284.818C972.801 284.818 958.78 288.402 947.933 294.517C935.876 276.638 908.211 264.095 876.879 264.095C856.281 264.095 836.741 269.393 822.266 278.741C820.187 278.547 818.109 278.43 815.992 278.43C793.542 278.43 775.325 290.31 775.325 304.879C775.325 304.918 775.325 304.957 775.325 304.996C775.363 310.215 779.558 314.383 784.585 314.383H1046.88C1050.24 314.344 1050.39 309.164 1047.03 308.969Z" fill="white"/>
<path d="M1300.25 574.009C1312.93 565.142 1376.85 598.665 1376.85 598.665C1376.85 598.665 1337.46 529.052 1352.4 510.073C1367.34 491.173 1388.85 524.696 1388.85 524.696C1388.85 524.696 1359.42 468.772 1391.79 449.482C1417.23 434.315 1440.55 475.305 1445.53 484.406V641.289H1290.67C1290.67 641.211 1287.5 582.876 1300.25 574.009Z" fill="#238E3C"/>
<path d="M1194.79 522.334C1189.31 523.619 1186.24 528.683 1184.88 534.292C1175.09 529.501 1168.14 532.734 1168.59 532.617C1168.56 532.617 1167.08 533.202 1167.16 533.163C1163.64 534.526 1157.44 538.694 1153.02 543.719C1164.21 536.357 1173.36 531.527 1184.81 538.616C1184.85 538.655 1187.72 540.525 1187.72 540.525C1188.13 538.032 1188.55 527.748 1195.58 525.411C1200.95 523.736 1209.6 523.814 1215.23 523.97C1209.3 522.139 1200.95 521.009 1194.79 522.334Z" fill="#7271B3"/>
<path d="M844.131 108.754C847.419 109.533 849.271 112.571 850.064 115.96C855.96 113.077 860.155 115.025 859.891 114.947C859.929 114.947 860.798 115.298 860.76 115.259C862.877 116.077 866.618 118.57 869.264 121.608C862.536 117.168 857.018 114.285 850.14 118.531C850.102 118.531 848.401 119.661 848.401 119.661C848.137 118.141 847.91 111.987 843.677 110.584C840.389 109.572 835.211 109.65 831.81 109.728C835.4 108.637 840.427 107.936 844.131 108.754Z" fill="#7271B3"/>
<path d="M1316.64 207.812C1313.39 204.539 1308.67 204.656 1304.39 206.175C1303.22 197.216 1298.01 193.749 1298.31 194.022C1298.27 194.022 1297.25 193.204 1297.33 193.282C1294.87 191.412 1289.39 188.919 1284.14 188.062C1293.93 192.62 1301.14 196.905 1301.52 208.045C1301.52 208.084 1301.56 210.928 1301.56 210.928C1303.41 210.11 1310.33 205.864 1314.98 209.759C1318.45 212.759 1322.23 218.874 1324.61 222.886C1323.18 217.861 1320.23 211.512 1316.64 207.812Z" fill="#7271B3"/>
<path d="M792.157 228.414C787.583 231.803 786.676 237.685 787.583 243.411C776.736 242.944 771.559 248.709 771.937 248.397C771.899 248.436 770.765 249.527 770.84 249.488C768.119 252.137 763.962 258.486 761.808 264.913C769.329 253.617 775.905 245.515 789.171 247.462C789.209 247.462 792.572 248.047 792.572 248.047C792.005 245.554 788.49 235.971 794.122 230.985C798.43 227.285 806.443 223.896 811.696 221.753C805.46 222.415 797.334 224.714 792.157 228.414Z" fill="#7271B3"/>
<path d="M474.173 439.32C468.502 440.101 464.806 444.811 462.774 450.251C453.521 444.665 446.149 447.235 446.633 447.143C446.581 447.159 445.051 447.572 445.136 447.574C441.45 448.591 434.682 452.159 429.627 456.75C441.777 450.462 451.525 446.517 462.163 454.55C462.196 454.568 464.849 456.685 464.849 456.685C465.584 454.234 467.238 444.178 474.622 442.506C480.216 441.327 488.894 442.187 494.544 442.821C488.765 440.424 480.526 438.556 474.173 439.32Z" fill="#7271B3"/>
<path d="M906.777 174.573C902.544 172.898 898.235 174.845 894.871 178.001C890.374 170.21 884.289 169.119 884.667 169.236C884.629 169.236 883.382 168.924 883.457 168.924C880.509 168.184 874.5 168.106 869.322 169.431C880.094 169.704 888.333 170.716 892.906 180.844C892.906 180.883 894.04 183.493 894.04 183.493C895.438 182.013 900.2 175.313 905.945 177.027C910.292 178.39 916.074 182.519 919.778 185.246C916.603 181.234 911.463 176.559 906.777 174.573Z" fill="#7271B3"/>
<defs>
<linearGradient id="paint0_linear" x1="-24.7687" y1="310.237" x2="1453.53" y2="310.237" gradientUnits="userSpaceOnUse">
<stop stop-color="#BCE3F1"/>
<stop offset="1" stop-color="#D0F7FF"/>
</linearGradient>
</defs>
</svg>
