<?xml version="1.0" encoding="UTF-8" standalone="no"?>
<svg
   width="1000"
   height="700"
   viewBox="0 0 1000 700"
   fill="none"
   version="1.1"
   id="svg627"
   sodipodi:docname="сценарій_3.svg"
   inkscape:version="1.1 (c68e22c387, 2021-05-23)"
   xmlns:inkscape="http://www.inkscape.org/namespaces/inkscape"
   xmlns:sodipodi="http://sodipodi.sourceforge.net/DTD/sodipodi-0.dtd"
   xmlns="http://www.w3.org/2000/svg"
   xmlns:svg="http://www.w3.org/2000/svg">
  <sodipodi:namedview
     id="namedview629"
     pagecolor="#ffffff"
     bordercolor="#666666"
     borderopacity="1.0"
     inkscape:pageshadow="2"
     inkscape:pageopacity="0.0"
     inkscape:pagecheckerboard="0"
     showgrid="false"
     inkscape:zoom="0.7647467"
     inkscape:cx="605.42922"
     inkscape:cy="374.63385"
     inkscape:window-width="1857"
     inkscape:window-height="1057"
     inkscape:window-x="-8"
     inkscape:window-y="-8"
     inkscape:window-maximized="1"
     inkscape:current-layer="svg627" />
  <g
     id="g2788"
     transform="matrix(1.10457,0,0,1.10457,-574.64813,-124.6079)">
    <path
       d="m 1593.41,641.464 c 11.41,48.871 -26.3,95.486 -76.5,95.401 l -178.62,-0.256 -16.6,-0.042 -539.332,-1.746 -177.903,-0.596 c 0,0 -67.261,-118.345 -27.16,-237.501 3.959,-11.749 8.94,-23.541 15.155,-35.163 10.388,-19.497 24.181,-38.654 41.933,-56.874 76.329,-78.245 146.741,-88.888 204.466,-83.567 46.104,4.257 15.318,1.745 41.882,0 59.897,-3.916 -34.026,-168.877 143.149,-206.084 35.34,-7.407 115.75,0.001 268.01,79.88 93.46,49.035 209.76,-45.596 264.32,91.594 3.98,10.005 15.75,58.315 0,89.814 -14.33,28.642 -26.95,37.175 -43.42,65.016 -52.58,88.845 -9.58,129.414 52.57,164.663 2.55,1.447 5.11,2.937 7.62,4.47 11.15,6.641 17.37,17.879 20.43,30.991 z"
       fill="#1c468a"
       id="path6" />
    <path
       d="m 1520.15,735.714 c 41.81,0 75.27,-34.312 75.27,-76.116 L 1398.7,565.517 v -49.042 h -3.66 V 414.519 h -56.58 v 101.956 h -67 V 450.789 H 1169.41 V 327.973 h -64.28 v 159.725 h -20.05 V 351.685 h -51.59 V 487.698 H 914.587 V 612.089 H 854.222 V 527.97 h -56.236 v 84.119 H 781.724 V 436.954 h -61.983 v 175.135 h -22.264 v 124.264 z"
       fill="#046b9e"
       id="path8" />
    <path
       d="m 851.149,451.727 c -0.681,-2.554 -1.064,-5.364 -1.064,-8.259 0,-12.984 7.535,-23.541 16.815,-23.541 1.362,0 2.682,0.212 3.959,0.638 1.49,-35.163 16.901,-62.792 35.674,-62.792 17.88,0 32.695,25.075 35.376,57.811 13.283,9.025 22.435,27.544 22.435,48.871 0,10.175 -2.086,19.711 -5.704,27.884 12.345,7.62 20.221,19.072 20.221,31.886 0,22.903 -25.032,41.463 -55.895,41.463 -23.116,0 -42.954,-10.387 -51.468,-25.244 -2.384,0.553 -4.811,0.851 -7.323,0.851 -21.029,0 -38.058,-20.689 -38.058,-46.189 -0.042,-19.923 10.388,-36.908 25.032,-43.379 z"
       fill="#224811"
       id="path10" />
    <path
       d="m 851.148,451.727 c 0,0 37.037,-14.431 65.219,10.984 28.224,25.414 47.849,-14.645 38.441,-33.248 5.917,9.493 9.493,21.711 9.493,35.078 0,10.174 -2.086,19.71 -5.704,27.884 12.345,7.62 20.221,19.072 20.221,31.885 0,22.903 -25.032,41.464 -55.896,41.464 -23.115,0 -42.953,-10.387 -51.467,-25.244 -2.384,0.553 -4.811,0.851 -7.323,0.851 -21.03,0 -38.058,-20.689 -38.058,-46.189 0,-20.008 10.43,-36.994 25.074,-43.465 z"
       fill="#1b3a0b"
       id="path12" />
    <path
       d="m 894.655,723.286 c 1.447,0 2.639,-0.384 2.639,-1.831 V 435.763 c 0,-1.447 -1.192,-2.639 -2.639,-2.639 -1.447,0 -2.639,1.192 -2.639,2.639 v 285.692 c 0,1.405 1.192,1.831 2.639,1.831 z"
       fill="#02250c"
       id="path14" />
    <path
       d="m 894.655,537.21 c 7.492,0 13.792,-2.682 18.816,-7.918 13.963,-14.687 12.643,-44.742 12.558,-46.019 -0.085,-1.447 -1.32,-2.597 -2.767,-2.512 -1.447,0.085 -2.554,1.32 -2.512,2.767 0,0.298 1.278,29.076 -11.153,42.145 -4.002,4.215 -8.94,6.258 -14.985,6.258 -1.447,0 -2.639,1.192 -2.639,2.64 0,1.447 1.234,2.639 2.682,2.639 z"
       fill="#02250c"
       id="path16" />
    <path
       d="m 894.271,597.021 c 0.171,0 0.341,0 0.511,0 1.448,-0.085 2.554,-1.319 2.469,-2.809 -0.085,-1.448 -1.319,-2.555 -2.809,-2.469 -1.022,0.042 -2.001,-0.384 -3.065,-1.32 -3.278,-2.938 -9.451,-13.197 -14.262,-49.212 -2.767,-20.817 -3.746,-40.229 -3.746,-40.442 -0.085,-1.447 -1.32,-2.597 -2.767,-2.512 -1.447,0.086 -2.597,1.32 -2.512,2.767 0,0.213 0.979,19.838 3.789,40.868 1.66,12.388 3.619,22.903 5.832,31.162 2.895,10.855 6.216,17.795 10.132,21.285 2.044,1.788 4.172,2.682 6.428,2.682 z"
       fill="#02250c"
       id="path18" />
    <path
       d="m 731.656,397.237 c 7.876,-15.41 11.537,-32.652 11.154,-49.978 -0.937,-41.464 11.536,-98.636 42.145,-98.636 36.866,0 39.761,72.242 28.267,112.897 -2.299,8.089 0.894,16.773 8.003,21.201 0.553,0.34 0.936,0.553 1.149,0.553 9.281,0 16.816,10.089 16.816,22.562 0,2.81 -0.383,5.45 -1.065,7.919 14.645,6.172 25.075,22.477 25.075,41.634 0,24.478 -17.029,44.273 -38.059,44.273 -16.858,0 -31.161,-12.771 -36.142,-30.438 -6.599,5.832 -14.559,9.238 -23.159,9.238 -22.562,0 -40.867,-23.499 -40.867,-52.49 0,-10.6 2.469,-20.476 6.683,-28.735 z"
       fill="#224811"
       id="path20" />
    <path
       d="m 755.709,403.026 c 38.143,-5.151 43.848,36.398 43.848,36.398 45.21,-20.562 65.261,11.707 65.261,11.707 l 1.106,9.664 c -1.021,23.413 -20.433,38.867 -40.782,38.867 -16.858,0 -31.162,-12.772 -36.143,-30.438 -6.598,5.832 -14.559,9.237 -23.158,9.237 -13.58,0 -25.585,-8.471 -32.992,-21.54 -0.256,-0.809 -14.985,-48.786 22.86,-53.895 z"
       fill="#1b3a0b"
       id="path22" />
    <path
       d="m 787.38,723.285 c 1.447,0 2.852,0.937 2.852,-0.511 V 437.083 c 0,-1.448 -1.192,-2.64 -2.64,-2.64 -1.447,0 -2.639,1.192 -2.639,2.64 v 285.691 c 0,1.405 0.979,0.511 2.427,0.511 z"
       fill="#02250c"
       id="path24" />
    <path
       d="m 787.592,538.529 c 8.131,0 15.113,-4.81 20.775,-14.261 4.257,-7.109 7.748,-16.985 10.43,-29.288 4.512,-20.732 5.193,-41.762 5.193,-41.975 0.043,-1.447 -1.106,-2.682 -2.554,-2.725 -1.447,-0.042 -2.682,1.107 -2.724,2.555 0,0.213 -0.639,20.774 -5.066,41.038 -3.917,17.965 -11.622,39.335 -26.054,39.335 -1.447,0 -2.639,1.192 -2.639,2.639 0,1.49 1.192,2.682 2.639,2.682 z"
       fill="#02250c"
       id="path26" />
    <path
       d="m 787.34,598.34 c 0.127,0 0.298,0 0.425,0 1.448,-0.085 2.555,-1.32 2.469,-2.81 -0.085,-1.447 -1.362,-2.554 -2.809,-2.469 -0.341,0 -0.894,-0.042 -1.66,-0.809 -3.278,-3.15 -9.153,-16.219 -11.537,-68.24 -1.362,-29.97 -0.852,-58.535 -0.852,-58.833 0.043,-1.447 -1.149,-2.639 -2.596,-2.682 -1.448,-0.042 -2.64,1.15 -2.682,2.597 0,0.298 -0.511,29.033 0.851,59.173 0.809,17.752 2.086,32.524 3.832,43.933 2.298,14.942 5.321,24.053 9.322,27.841 1.916,1.873 3.874,2.299 5.237,2.299 z"
       fill="#02250c"
       id="path28" />
    <path
       d="m 768.181,478.418 c 0.681,-3.108 1.064,-6.428 1.064,-9.961 0,-15.624 -7.535,-28.31 -16.815,-28.31 -1.363,0 -2.682,0.298 -3.96,0.809 -1.489,-42.273 -16.9,-75.52 -35.674,-75.52 -17.879,0 -32.694,30.14 -35.376,69.56 -13.282,10.855 -22.435,33.12 -22.435,58.79 0,12.26 2.086,23.712 5.705,33.503 -12.346,9.153 -20.221,22.946 -20.221,38.356 0,27.544 25.031,49.851 55.895,49.851 23.116,0 42.954,-12.516 51.468,-30.353 2.384,0.681 4.81,1.021 7.322,1.021 21.03,0 38.058,-24.861 38.058,-55.554 0.085,-23.968 -10.387,-44.444 -25.031,-52.192 z"
       fill="#224811"
       id="path30" />
    <path
       d="m 649.452,538.656 c 6.002,-8.259 8.429,-18.518 6.854,-28.608 -0.809,-5.193 -1.235,-10.642 -1.235,-16.262 0,-3.065 0.128,-6.13 0.383,-9.067 51.639,3.533 49.595,55.342 49.595,55.342 0,0 42.741,-18.008 56.96,7.364 14.261,25.33 -14.091,37.803 -14.091,37.803 -8.514,17.837 -28.352,30.353 -51.468,30.353 -30.864,0 -55.895,-22.307 -55.895,-49.85 0,-10.004 3.278,-19.285 8.897,-27.075 z"
       fill="#1b3a0b"
       id="path32" />
    <path
       d="m 713.393,722.859 c 1.448,0 2.64,0 2.64,-1.448 V 499.448 c 0,-1.447 -1.192,-2.639 -2.64,-2.639 -1.447,0 -2.639,1.192 -2.639,2.639 v 221.963 c 0,1.448 1.192,1.448 2.639,1.448 z"
       fill="#02250c"
       id="path34" />
    <path
       d="m 713.389,573.521 c 7.492,0 13.793,-2.682 18.816,-7.919 13.963,-14.687 12.644,-44.741 12.559,-46.018 -0.086,-1.448 -1.32,-2.597 -2.768,-2.512 -1.447,0.085 -2.554,1.32 -2.511,2.767 0,0.298 1.277,29.076 -11.154,42.102 -4.001,4.215 -8.94,6.258 -14.985,6.258 -1.447,0 -2.639,1.192 -2.639,2.64 0.043,1.532 1.235,2.682 2.682,2.682 z"
       fill="#02250c"
       id="path36" />
    <path
       d="m 711.264,659.811 c 0.17,0 0.34,0 0.51,0 1.448,-0.085 2.555,-1.319 2.469,-2.809 -0.085,-1.448 -1.362,-2.555 -2.809,-2.469 -1.022,0.042 -2.001,-0.384 -3.065,-1.32 -3.278,-2.938 -9.451,-13.197 -14.261,-49.212 -2.768,-20.817 -3.747,-40.229 -3.747,-40.442 -0.085,-1.447 -1.319,-2.597 -2.767,-2.512 -1.447,0.086 -2.597,1.32 -2.511,2.768 0,0.212 0.979,19.837 3.788,40.867 1.661,12.388 3.619,22.903 5.833,31.162 2.894,10.856 6.215,17.795 10.131,21.285 2.044,1.788 4.172,2.682 6.429,2.682 z"
       fill="#02250c"
       id="path38" />
    <path
       d="m 1021.52,166.589 h 5.28 l -0.04,-0.426 -1.58,-14.006 c -0.04,-0.468 -0.42,-0.808 -0.89,-0.808 -0.04,0 -0.13,0 -0.17,0 -0.3,0.042 -0.55,0.17 -0.77,0.34 -0.25,0.213 -0.42,0.554 -0.46,0.894 z"
       fill="#a2c5f9"
       id="path40" />
    <path
       d="m 1026.29,163.396 h 0.17 l -1.32,-11.239 c -0.04,-0.468 -0.42,-0.808 -0.89,-0.808 -0.05,0 -0.13,0 -0.17,0 -0.05,0.042 -0.09,0.085 -0.13,0.127 -0.21,0.256 -0.38,0.596 -0.38,0.937 l -0.09,8.088 c 0,1.575 1.24,2.853 2.81,2.895 z"
       fill="#afcdfb"
       id="path42" />
    <path
       d="m 1028.33,228.955 h -10.17 v 447.63 h 10.17 z"
       fill="#a2c5f9"
       id="path44" />
    <path
       d="m 1028.33,228.955 h -4.68 v 447.63 h 4.68 z"
       fill="#afcdfb"
       id="path46" />
    <path
       d="m 1039.44,605.152 h -32.4 v 118.432 h 32.4 z"
       fill="#a2c5f9"
       id="path48" />
    <path
       d="m 1039.4,605.152 h -19.28 v 118.432 h 19.28 z"
       fill="#afcdfb"
       id="path50" />
    <path
       d="m 1005.56,173.315 c 0,5.534 8.34,10.004 18.6,10.004 0.77,0 1.58,-0.043 2.3,-0.085 9.2,-0.596 16.31,-4.811 16.31,-9.919 0,-5.109 -7.11,-9.323 -16.31,-9.919 -0.77,-0.043 -1.53,-0.085 -2.3,-0.085 -10.3,0 -18.6,4.512 -18.6,10.004 z"
       fill="#a2c5f9"
       id="path52" />
    <path
       d="m 1007.09,237.81 h 32.4 l 11.4,-54.831 h -53.464 z"
       fill="#afcdfb"
       id="path54" />
    <path
       d="m 1053.79,178.849 h -59.259 v 5.278 h 59.259 z"
       fill="#a2c5f9"
       id="path56" />
    <path
       d="m 1034.12,605.152 h -20.69 l 3.02,-9.153 c 0.26,-0.809 1.02,-1.362 1.88,-1.362 h 9.7 c 1.07,0 2,0.638 2.39,1.617 z"
       fill="#a2c5f9"
       id="path58" />
    <path
       d="m 1015.05,172.847 h 0.13 c 0.34,-4.257 4.85,-7.875 11.28,-9.451 8.89,0.596 15.83,4.556 16.26,9.451 h 3.02 l 4.22,6.003 h 3.78 v 5.278 h -37.24 v -5.278 h -5.5 z"
       fill="#afcdfb"
       id="path60" />
    <path
       d="m 1047.06,185.66 h -45.68 l 8.94,49.254 h 26.23 z"
       fill="#3f5a83"
       id="path62" />
    <path
       d="m 1041.53,173.911 c 0,0 -3.49,-7.577 -10.35,-7.365 0,0 4.39,3.874 3.96,7.365 -0.38,3.491 6.39,0 6.39,0 z"
       fill="#c7dcf9"
       id="path64" />
    <path
       d="M 998.32,178.849 H 1050 l -4.21,-6.002 h -43.47 z"
       fill="#a2c5f9"
       id="path66" />
    <path
       d="m 1044.04,187.363 h -10.47 l -3.07,46.019 h 3.07 z"
       fill="#d2e4f9"
       id="path68" />
    <path
       d="m 1426.71,695.357 c -33.85,11.494 -96.17,41.038 -167.77,20.988 -71.61,-20.051 -156.36,-2.597 -262.834,19.114 -0.511,0.085 -1.021,0.213 -1.575,0.298 l 591.009,-0.852 c -45.47,-51.297 -106.77,-57.215 -158.83,-39.548 z"
       fill="#224811"
       id="path70" />
    <path
       d="M 935.743,719.453 C 877.591,737.588 816.46,715.706 704.627,698.21 592.794,680.713 548.18,735.8 548.18,735.8 l 543.84,-0.043 C 1075.16,718.942 993.937,701.36 935.743,719.453 Z"
       fill="#224811"
       id="path72" />
    <path
       d="M 1621.13,746.542 H 521.572 c -0.723,0 -1.326,-2.23 -1.326,-4.907 v -3.271 c 0,-2.676 0.603,-4.906 1.326,-4.906 H 1621.17 c 0.72,0 1.32,2.23 1.32,4.906 v 3.271 c -0.04,2.825 -0.64,4.907 -1.36,4.907 z"
       fill="#283250"
       id="path74" />
    <g
       clip-path="url(#clip1)"
       id="g92">
      <path
         d="m 1285.78,715.289 h 7.22 v -48.151 c 0,-18.252 14.81,-33.101 33.03,-33.101 18.21,0 33.02,14.849 33.02,33.101 v 48.151 h 7.22 v -48.151 c 0,-22.235 -18.06,-40.336 -40.24,-40.336 -22.19,0 -40.25,18.101 -40.25,40.336 z"
         fill="#242945"
         id="path76" />
      <path
         d="m 1078.75,659.045 c 1.99,0 3.6,-1.613 3.6,-3.605 v -90.227 c 0,-1.991 -1.61,-3.605 -3.6,-3.605 -1.98,0 -3.59,1.614 -3.59,3.605 v 90.202 c 0,1.991 1.61,3.63 3.59,3.63 z"
         fill="#242945"
         id="path78" />
      <path
         d="m 1301.05,659.045 c 1.98,0 3.59,-1.613 3.59,-3.605 v -90.227 c 0,-1.991 -1.61,-3.605 -3.59,-3.605 -1.99,0 -3.6,1.614 -3.6,3.605 v 90.202 c -0.03,1.991 1.61,3.63 3.6,3.63 z"
         fill="#242945"
         id="path80" />
      <path
         d="m 1062.68,644.575 h 259.12 c 1.81,0 3.29,-1.488 3.29,-3.303 v -15.68 c 0,-1.816 -1.48,-3.303 -3.29,-3.303 h -259.12 c -1.81,0 -3.3,1.487 -3.3,3.303 v 15.68 c 0,1.815 1.49,3.303 3.3,3.303 z"
         fill="#1b3764"
         id="path82" />
      <path
         d="m 1072.11,659.953 h 284.73 c 2.49,0 4.53,-2.017 4.53,-4.538 0,-2.496 -2.01,-4.538 -4.53,-4.538 h -284.73 z"
         fill="#1b3764"
         id="path84" />
      <path
         d="m 1060.84,618.305 h 259.12 c 1.81,0 3.3,-1.487 3.3,-3.302 v -15.681 c 0,-1.815 -1.49,-3.302 -3.3,-3.302 h -259.12 c -1.81,0 -3.29,1.487 -3.29,3.302 v 15.681 c 0,1.84 1.48,3.302 3.29,3.302 z"
         fill="#1b3764"
         id="path86" />
      <path
         d="m 1058.38,591.104 h 259.12 c 1.81,0 3.29,-1.487 3.29,-3.303 v -15.68 c 0,-1.815 -1.48,-3.303 -3.29,-3.303 h -259.12 c -1.81,0.026 -3.3,1.488 -3.3,3.303 v 15.68 c 0,1.816 1.49,3.303 3.3,3.303 z"
         fill="#1b3764"
         id="path88" />
      <path
         d="m 1068.31,715.289 h 7.22 v -48.151 c 0,-18.252 14.82,-33.101 33.03,-33.101 18.21,0 33.05,14.849 33.05,33.101 v 48.151 h 7.22 v -48.151 c 0,-22.235 -18.06,-40.336 -40.24,-40.336 -22.19,0 -40.25,18.101 -40.25,40.336 v 48.151 z"
         fill="#242945"
         id="path90" />
    </g>
    <rect
       x="938.48798"
       y="638.44702"
       width="10.3185"
       height="12.4972"
       fill="#ffffff"
       id="rect94" />
    <rect
       x="960.64099"
       y="602.99902"
       width="10.3185"
       height="12.4972"
       fill="#ffffff"
       id="rect96" />
    <rect
       x="960.64099"
       y="673.85498"
       width="10.3185"
       height="12.4972"
       fill="#ffffff"
       id="rect98" />
    <rect
       x="744.83197"
       y="623.91998"
       width="10.3185"
       height="12.4972"
       fill="#ffffff"
       id="rect100" />
    <rect
       x="744.83197"
       y="647.315"
       width="10.3185"
       height="12.4972"
       fill="#ffffff"
       id="rect102" />
    <rect
       x="1361.12"
       y="451.12299"
       width="10.3185"
       height="12.4972"
       fill="#ffffff"
       id="rect104" />
    <rect
       x="1361.12"
       y="474.51901"
       width="10.3185"
       height="12.4972"
       fill="#ffffff"
       id="rect106" />
    <rect
       x="807.75"
       y="646.87097"
       width="10.3185"
       height="12.4972"
       fill="#ffffff"
       id="rect108" />
    <rect
       x="829.90601"
       y="611.422"
       width="10.3185"
       height="12.4972"
       fill="#ffffff"
       id="rect110" />
    <rect
       x="829.90601"
       y="682.27899"
       width="10.3185"
       height="12.4972"
       fill="#ffffff"
       id="rect112" />
    <rect
       x="1371.4301"
       y="585.29498"
       width="10.3185"
       height="12.4972"
       fill="#ffffff"
       id="rect114" />
    <rect
       x="1393.59"
       y="620.703"
       width="10.3185"
       height="12.4972"
       fill="#ffffff"
       id="rect116" />
    <rect
       x="960.64099"
       y="578.20398"
       width="10.3185"
       height="12.4972"
       fill="#ffffff"
       id="rect118" />
    <rect
       x="989.367"
       y="559.44"
       width="10.3185"
       height="12.4972"
       fill="#ffffff"
       id="rect120" />
    <rect
       x="984.20697"
       y="638.44702"
       width="10.3185"
       height="12.4972"
       fill="#ffffff"
       id="rect122" />
    <rect
       x="1133.64"
       y="502.245"
       width="10.3185"
       height="12.4972"
       fill="#ffffff"
       id="rect124" />
    <rect
       x="1123.3199"
       y="457.91901"
       width="10.3185"
       height="12.4972"
       fill="#ffffff"
       id="rect126" />
    <rect
       x="1123.3199"
       y="365.43701"
       width="10.3185"
       height="12.4972"
       fill="#ffffff"
       id="rect128" />
    <rect
       x="1123.3199"
       y="433.12399"
       width="10.3185"
       height="12.4972"
       fill="#ffffff"
       id="rect130" />
    <rect
       x="1223.98"
       y="478.47101"
       width="10.3185"
       height="12.4972"
       fill="#ffffff"
       id="rect132" />
    <rect
       x="1179.36"
       y="502.245"
       width="10.3185"
       height="12.4972"
       fill="#ffffff"
       id="rect134" />
    <path
       d="m 1280.2,591.545 c 0,0 -14.5,37.8 -13.9,44.1 0.6,6.3 5,14 8,14 l 49.5,0.4 c 0,0 5.7,-1.1 8.6,-10.6 2.9,-9.4 12.4,-45.3 12.4,-46.4 0,-1 1.3,-7.1 -4.4,-11.7 -5.7,-4.6 -43,-3.5 -50.2,-1.3 -5.2,1.5 -7.2,4 -10,11.5 z"
       fill="#8e8d8b"
       id="path136" />
    <path
       d="m 1334.69,584.145 -18.1,61.1 c 0,0 25.6,-33.7 18.1,-61.1 z"
       fill="#60696c"
       id="path138" />
    <path
       d="m 1302.09,602.645 20,-17.6 c 0,0 -18.2,6.9 -20,17.6 z"
       fill="#60696c"
       id="path140" />
    <path
       d="m 1289.39,586.445 4.5,15.3 c 0,0 -8.1,-7.6 -4.5,-15.3 z"
       fill="#60696c"
       id="path142" />
    <path
       d="m 1296.7,614.745 9,22.5 c -0.1,-0.1 1.2,-17.3 -9,-22.5 z"
       fill="#60696c"
       id="path144" />
    <path
       d="m 1270.2,633.045 19.2,-17.3 c 0,-0.1 -16.9,5.1 -19.2,17.3 z"
       fill="#60696c"
       id="path146" />
    <path
       d="m 1019.04,593.509 3.24,-11.77 c 0,0 11.15,2.197 25.89,5.289 -1.94,4.916 -4.26,9.721 -6.55,14.594 -13.02,-4.866 -22.58,-8.113 -22.58,-8.113 z"
       fill="#ff8a63"
       id="path148" />
    <path
       d="m 1026.84,584.843 c 0,0 -6.33,1.713 -6.37,3.434 -0.05,1.754 4.23,5.153 2.62,6.599 -1.6,1.446 -15.28,1.73 -16.87,0.129 -1.59,-1.601 -4.29,-3.266 -4.24,-5.054 0.05,-1.787 7.67,-33.71 9.98,-38.118 2.31,-4.409 9.19,-2.131 8.17,3.373 -1.09,5.502 15.34,24.045 6.71,29.637 z"
       fill="#352e73"
       id="path150" />
    <path
       d="m 1011.64,588.499 c -0.35,2.806 -1.26,5.332 -2.29,7.391 -1.55,-0.176 -3.31,-0.622 -3.86,-0.902 -2.47,-1.195 -3.62,-3.248 -3.58,-5.036 0.05,-1.787 7.67,-33.71 9.98,-38.118 1.25,-2.384 3.86,-2.808 5.82,-1.827 -0.61,0.712 -1.23,1.722 -1.75,3.033 -1.76,4.655 -3.23,27.439 -4.32,35.459 z"
       fill="#728888"
       id="path152" />
    <path
       d="m 1081.23,652.849 -10.24,-6.651 c 0,0 5.47,-9.965 12.87,-23.078 4.1,3.337 7.98,7.002 11.93,10.656 -8.58,10.941 -14.56,19.073 -14.56,19.073 z"
       fill="#ff8a63"
       id="path154" />
    <path
       d="m 1075.33,642.785 c 0,0 -0.28,6.553 1.35,7.119 1.65,0.577 6.19,-2.475 7.08,-0.51 0.89,1.965 -2.98,15.096 -4.98,16.125 -2.01,1.028 -4.41,3.095 -6.1,2.507 -1.69,-0.588 -29.81,-17.506 -33.31,-21.041 -3.51,-3.534 0.75,-9.403 5.68,-6.766 4.92,2.703 27.56,-7.347 30.28,2.566 z"
       fill="#352e73"
       id="path156" />
    <path
       d="m 1074.22,658.384 c 2.56,1.187 4.7,2.812 6.35,4.416 -0.64,1.431 -1.6,2.972 -2.03,3.409 -1.88,1.99 -4.19,2.473 -5.88,1.885 -1.69,-0.588 -29.81,-17.507 -33.32,-21.041 -1.89,-1.909 -1.5,-4.531 0.02,-6.094 0.5,0.797 1.27,1.691 2.36,2.586 3.91,3.086 25.18,11.374 32.5,14.839 z"
       fill="#728888"
       id="path158" />
    <g
       clip-path="url(#clip2)"
       id="g206">
      <path
         d="m 1296.67,622.999 c 0,0 -19.72,33.553 -43.84,29.173 -24.13,-4.38 -28.37,-70.826 -28.37,-70.826 h 10.98 c 0,0 10.07,38.595 18.72,41.653 8.65,3.057 19.88,-9.009 19.88,-9.009 0,0 17.05,-6.198 22.63,9.009 z"
         fill="#e88c6d"
         id="path160" />
      <path
         d="m 1235.44,581.511 c 0,0 1.33,-2.81 2.25,-7.438 0.91,-4.628 -3.25,-8.761 -3.75,-9.918 -0.5,-1.157 -2.58,-0.578 -1,4.463 1.58,5.124 -2.24,1.653 -4.74,-1.983 -2.49,-3.637 -0.33,-7.686 -3.58,-11.571 -3.24,-3.884 -2.91,3.224 -2.41,5.703 0,0 -1.74,0.992 -2.16,3.223 -0.33,2.314 0,3.719 0,3.719 0,0 -1.16,1.24 -1,3.223 0.17,1.984 0.67,2.397 0.67,2.397 0,0 -0.75,1.157 -0.25,3.719 0.5,2.479 5.82,9.917 5.82,9.917 z"
         fill="#e88c6d"
         id="path162" />
      <path
         d="m 1296.67,585.726 -7.74,8.76 c 0,0 13.89,8.43 21.63,6.281 l 13.72,-15.868 c 0,0 -21.87,5.29 -27.61,0.827 z"
         fill="#e88c6d"
         id="path164" />
      <path
         d="m 1328.27,576.552 c -1.74,-2.479 -3.57,-2.644 -4.65,-2.562 2.33,-8.347 1.49,-19.421 -15.06,-25.537 0,0 -8.31,2.546 -10.31,8.661 -5.15,5.085 -9.14,12.796 -9.14,12.796 0,0 -5.48,6.642 -2.19,10.42 0,0 3.67,7.214 15.98,8.619 12.31,1.405 15.48,-4.132 15.48,-4.132 7.32,3.388 12.64,-4.463 9.89,-8.265 z"
         fill="#fb9c7c"
         id="path166" />
      <path
         d="m 1306.23,543.825 c 0,0 -0.33,7.273 7.74,12.81 8.07,5.537 8.15,5.206 8.15,5.206 0,0 -6.32,5.538 -4.82,10.579 0,0 -2.83,3.802 -0.92,5.537 0,0 4.41,-3.884 7.82,-3.884 3.41,0 6.66,6.777 -0.08,10.909 0,0 -4.41,0.826 -5.91,-0.248 0,0 -2.24,1.24 -2.49,3.058 0,0.33 1.24,4.297 2.24,4.297 0,0 9.07,-2.975 13.98,-6.694 4.9,-3.719 12.72,-12.397 8.73,-19.752 0,0 -0.83,-12.397 -16.22,-20.083 -15.14,-7.768 -17.88,-5.123 -18.22,-1.735 z"
         fill="#2d2861"
         id="path168" />
      <path
         d="m 1203.66,605.808 -166.37,-21.405 -5.16,15.042 c 0,0 113.97,40.248 144.5,41.487 30.44,1.24 27.03,-35.124 27.03,-35.124 z"
         fill="#2ba14c"
         id="path170" />
      <path
         d="m 1288.93,594.486 c 0,0 16.22,6.199 23.04,4.711 0,0 -0.16,21.405 -14.64,36.942 -14.47,15.537 -31.94,16.612 -61.72,16.281 -28.78,-0.33 -30.12,-1.901 -30.12,-1.901 l -3.82,-44.71 49.33,-4.133 c 0,0 24.7,-6.776 37.93,-7.19 z"
         fill="#fc008b"
         id="path172" />
      <path
         d="m 1237.19,575.892 c 0,0 7.98,28.016 33.94,28.347 25.95,0.413 47.25,-19.339 47.25,-19.339"
         stroke="#ffffff"
         stroke-miterlimit="10"
         stroke-linecap="round"
         id="path174" />
      <path
         d="m 1202.41,605.726 c 0,0 -28.2,-26.116 -55.48,-33.884 -27.29,-7.769 -72.79,61.57 -72.79,61.57 l 16.72,9.587 50.66,-38.265 c 0,0 16.89,41.405 63.97,45.785 z"
         fill="#68a819"
         id="path176" />
      <path
         d="m 1300.66,619.941 c 0,0 -19.72,33.554 -43.84,29.174 -24.12,-4.381 -28.37,-70.827 -28.37,-70.827 h 10.98 c 0,0 10.07,38.595 18.72,41.653 8.65,3.058 19.88,-9.008 19.88,-9.008 0,0 17.06,-6.199 22.63,9.008 z"
         fill="#fb9c7c"
         id="path178" />
      <path
         d="m 1265.3,615.065 21.8,23.636 c 0,0 18.38,-15.785 16.47,-22.975 -1.91,-7.107 -12.39,-20.909 -38.27,-0.661 z"
         fill="#d6007e"
         id="path180" />
      <path
         d="m 1236.1,571.263 c -0.83,0.331 -1.83,-0.082 -2.16,-0.909 l -11.98,-30.33 c -0.33,-0.827 0.09,-1.819 0.92,-2.149 0.83,-0.331 1.83,0.083 2.16,0.909 l 11.98,30.248 c 0.42,0.909 0,1.901 -0.92,2.231 z"
         fill="#666666"
         id="path182" />
      <path
         d="m 1239.43,578.453 c 0,0 1.33,-2.81 2.25,-7.438 0.91,-4.628 -3.25,-8.76 -3.75,-9.917 -0.5,-1.157 -2.57,-0.579 -0.99,4.463 1.58,5.124 -2.25,1.652 -4.75,-1.984 -2.49,-3.636 -0.33,-7.686 -3.57,-11.57 -3.25,-3.884 -2.91,3.223 -2.42,5.702 0,0 -1.74,0.992 -2.16,3.223 -0.33,2.315 0,3.72 0,3.72 0,0 -1.16,1.239 -1,3.223 0.17,1.983 0.67,2.396 0.67,2.396 0,0 -0.75,1.157 -0.25,3.719 0.5,2.562 5.82,9.918 5.82,9.918 z"
         fill="#fb9c7c"
         id="path184" />
      <path
         d="m 1321.29,578.702 c 0,0 -1.67,1.487 -1.08,2.314 0.58,0.826 -2.17,3.057 -2.17,3.057 0,0 0.42,0.744 1.08,0.91 0,0 3.58,-2.48 4,-4.629 0.08,-0.413 0.08,-0.661 0,-0.909 -0.09,-0.826 -1.17,-1.239 -1.83,-0.743 z"
         fill="#ffffff"
         id="path186" />
      <path
         d="m 1081.8,625.561 16.22,10.743 c 0,0 -13.15,-3.471 -16.22,-10.743 z"
         fill="#5d5984"
         id="path188" />
      <path
         d="m 1076.3,633.165 5.16,-6.116 c 0,0 -2.41,6.281 -5.16,6.116 z"
         fill="#5d5984"
         id="path190" />
      <path
         d="m 1082.96,636.056 3.25,-3.14 c 0,-0.083 -0.34,2.892 -3.25,3.14 z"
         fill="#5d5984"
         id="path192" />
      <path
         d="m 1089.03,639.031 4.74,-3.057 c -0.08,0.082 -0.5,3.884 -4.74,3.057 z"
         fill="#5d5984"
         id="path194" />
      <path
         d="m 1045.36,587.379 -3.08,13.719 c 0,0 -1.25,-12.314 3.08,-13.719 z"
         fill="#3a3859"
         id="path196" />
      <path
         d="m 1038.29,585.396 6.15,1.322 c 0,-0.083 -3.74,1.157 -6.15,-1.322 z"
         fill="#3a3859"
         id="path198" />
      <path
         d="m 1036.71,592.007 4.91,1.157 c 0,0 -3.08,1.487 -4.91,-1.157 z"
         fill="#3a3859"
         id="path200" />
      <path
         d="m 1036.12,598.04 5.16,1.322 c 0.09,0 -3.49,0.744 -5.16,-1.322 z"
         fill="#3a3859"
         id="path202" />
      <path
         d="m 1290.11,569.862 6.11,4.902 c 0,0 -2.27,2.125 -5.03,0.055 -3.34,-2.537 -1.08,-4.957 -1.08,-4.957 z"
         fill="#ffffff"
         id="path204" />
    </g>
    <circle
       cx="1206.7"
       cy="406.755"
       r="2.9211199"
       fill="#ffffff"
       id="circle208" />
    <g
       filter="url(#filter0_d)"
       id="g212">
      <circle
         cx="1292.8"
         cy="377.93301"
         r="3.4070101"
         fill="#ffffff"
         id="circle210" />
    </g>
    <circle
       cx="1277.78"
       cy="243.505"
       r="2.9211199"
       fill="#ffffff"
       id="circle326" />
    <circle
       cx="1247.7"
       cy="330.89401"
       r="2.9211199"
       fill="#ffffff"
       id="circle328" />
    <circle
       cx="1364.04"
       cy="350.90302"
       r="2.9211199"
       fill="#ffffff"
       id="circle330" />
    <circle
       cx="1071.37"
       cy="293.37601"
       r="2.9211199"
       fill="#ffffff"
       id="circle332" />
    <circle
       cx="962.87799"
       cy="339.76401"
       r="2.9211199"
       fill="#ffffff"
       id="circle334" />
    <circle
       cx="1232.63"
       cy="208.65401"
       r="2.9211199"
       fill="#ffffff"
       id="circle336" />
    <g
       filter="url(#filter7_d)"
       id="g340">
      <circle
         cx="1175.46"
         cy="290.45499"
         r="3.4070101"
         fill="#ffffff"
         id="circle338" />
    </g>
    <g
       filter="url(#filter8_d)"
       id="g344">
      <circle
         cx="985.96198"
         cy="324.565"
         r="3.4070101"
         fill="#ffffff"
         id="circle342" />
    </g>
    <g
       filter="url(#filter9_d)"
       id="g348">
      <circle
         cx="1313.1899"
         cy="294.83899"
         r="3.4070101"
         fill="#ffffff"
         id="circle346" />
    </g>
    <g
       filter="url(#filter10_d)"
       id="g352">
      <circle
         cx="1136.45"
         cy="205.246"
         r="3.4070101"
         fill="#ffffff"
         id="circle350" />
    </g>
    <g
       filter="url(#filter11_d)"
       id="g356">
      <circle
         cx="863.20001"
         cy="357.77301"
         r="3.4070101"
         fill="#ffffff"
         id="circle354" />
    </g>
    <g
       filter="url(#filter12_d)"
       id="g360">
      <circle
         cx="1368.03"
         cy="284.12701"
         r="3.4070101"
         fill="#ffffff"
         id="circle358" />
    </g>
  </g>
  <defs
     id="defs625">
    <filter
       id="filter0_d"
       x="1279.39"
       y="364.526"
       width="26.8125"
       height="26.814501"
       filterUnits="userSpaceOnUse"
       color-interpolation-filters="sRGB">
      <feFlood
         flood-opacity="0"
         result="BackgroundImageFix"
         id="feFlood364" />
      <feColorMatrix
         in="SourceAlpha"
         type="matrix"
         values="0 0 0 0 0 0 0 0 0 0 0 0 0 0 0 0 0 0 127 0"
         result="hardAlpha"
         id="feColorMatrix366" />
      <feOffset
         id="feOffset368" />
      <feGaussianBlur
         stdDeviation="5"
         id="feGaussianBlur370" />
      <feComposite
         in2="hardAlpha"
         operator="out"
         id="feComposite372" />
      <feColorMatrix
         type="matrix"
         values="0 0 0 0 1 0 0 0 0 1 0 0 0 0 1 0 0 0 1 0"
         id="feColorMatrix374" />
      <feBlend
         mode="normal"
         in2="BackgroundImageFix"
         result="effect1_dropShadow"
         id="feBlend376" />
      <feBlend
         mode="normal"
         in="SourceGraphic"
         in2="effect1_dropShadow"
         result="shape"
         id="feBlend378" />
    </filter>
    <filter
       id="filter1_d"
       x="83.277298"
       y="146.48399"
       width="829.01599"
       height="235.358"
       filterUnits="userSpaceOnUse"
       color-interpolation-filters="sRGB">
      <feFlood
         flood-opacity="0"
         result="BackgroundImageFix"
         id="feFlood381" />
      <feColorMatrix
         in="SourceAlpha"
         type="matrix"
         values="0 0 0 0 0 0 0 0 0 0 0 0 0 0 0 0 0 0 127 0"
         result="hardAlpha"
         id="feColorMatrix383" />
      <feOffset
         id="feOffset385" />
      <feGaussianBlur
         stdDeviation="7.5"
         id="feGaussianBlur387" />
      <feComposite
         in2="hardAlpha"
         operator="out"
         id="feComposite389" />
      <feColorMatrix
         type="matrix"
         values="0 0 0 0 0.848532 0 0 0 0 0.891667 0 0 0 0 0.795069 0 0 0 1 0"
         id="feColorMatrix391" />
      <feBlend
         mode="normal"
         in2="BackgroundImageFix"
         result="effect1_dropShadow"
         id="feBlend393" />
      <feBlend
         mode="normal"
         in="SourceGraphic"
         in2="effect1_dropShadow"
         result="shape"
         id="feBlend395" />
    </filter>
    <filter
       id="filter2_d"
       x="83.277298"
       y="147.21001"
       width="46.3633"
       height="234.394"
       filterUnits="userSpaceOnUse"
       color-interpolation-filters="sRGB">
      <feFlood
         flood-opacity="0"
         result="BackgroundImageFix"
         id="feFlood398" />
      <feColorMatrix
         in="SourceAlpha"
         type="matrix"
         values="0 0 0 0 0 0 0 0 0 0 0 0 0 0 0 0 0 0 127 0"
         result="hardAlpha"
         id="feColorMatrix400" />
      <feOffset
         id="feOffset402" />
      <feGaussianBlur
         stdDeviation="7.5"
         id="feGaussianBlur404" />
      <feComposite
         in2="hardAlpha"
         operator="out"
         id="feComposite406" />
      <feColorMatrix
         type="matrix"
         values="0 0 0 0 0.848532 0 0 0 0 0.891667 0 0 0 0 0.795069 0 0 0 1 0"
         id="feColorMatrix408" />
      <feBlend
         mode="normal"
         in2="BackgroundImageFix"
         result="effect1_dropShadow"
         id="feBlend410" />
      <feBlend
         mode="normal"
         in="SourceGraphic"
         in2="effect1_dropShadow"
         result="shape"
         id="feBlend412" />
    </filter>
    <filter
       id="filter3_d"
       x="83.867203"
       y="399.67599"
       width="573.586"
       height="90"
       filterUnits="userSpaceOnUse"
       color-interpolation-filters="sRGB">
      <feFlood
         flood-opacity="0"
         result="BackgroundImageFix"
         id="feFlood415" />
      <feColorMatrix
         in="SourceAlpha"
         type="matrix"
         values="0 0 0 0 0 0 0 0 0 0 0 0 0 0 0 0 0 0 127 0"
         result="hardAlpha"
         id="feColorMatrix417" />
      <feOffset
         id="feOffset419" />
      <feGaussianBlur
         stdDeviation="5"
         id="feGaussianBlur421" />
      <feComposite
         in2="hardAlpha"
         operator="out"
         id="feComposite423" />
      <feColorMatrix
         type="matrix"
         values="0 0 0 0 0 0 0 0 0 0 0 0 0 0 0 0 0 0 0.15 0"
         id="feColorMatrix425" />
      <feBlend
         mode="normal"
         in2="BackgroundImageFix"
         result="effect1_dropShadow"
         id="feBlend427" />
      <feBlend
         mode="normal"
         in="SourceGraphic"
         in2="effect1_dropShadow"
         result="shape"
         id="feBlend429" />
    </filter>
    <filter
       id="filter4_d"
       x="83.867203"
       y="490.64301"
       width="633.19098"
       height="123.631"
       filterUnits="userSpaceOnUse"
       color-interpolation-filters="sRGB">
      <feFlood
         flood-opacity="0"
         result="BackgroundImageFix"
         id="feFlood432" />
      <feColorMatrix
         in="SourceAlpha"
         type="matrix"
         values="0 0 0 0 0 0 0 0 0 0 0 0 0 0 0 0 0 0 127 0"
         result="hardAlpha"
         id="feColorMatrix434" />
      <feOffset
         id="feOffset436" />
      <feGaussianBlur
         stdDeviation="5"
         id="feGaussianBlur438" />
      <feComposite
         in2="hardAlpha"
         operator="out"
         id="feComposite440" />
      <feColorMatrix
         type="matrix"
         values="0 0 0 0 0 0 0 0 0 0 0 0 0 0 0 0 0 0 0.15 0"
         id="feColorMatrix442" />
      <feBlend
         mode="normal"
         in2="BackgroundImageFix"
         result="effect1_dropShadow"
         id="feBlend444" />
      <feBlend
         mode="normal"
         in="SourceGraphic"
         in2="effect1_dropShadow"
         result="shape"
         id="feBlend446" />
    </filter>
    <filter
       id="filter5_d"
       x="88.277298"
       y="625.58002"
       width="178"
       height="79"
       filterUnits="userSpaceOnUse"
       color-interpolation-filters="sRGB">
      <feFlood
         flood-opacity="0"
         result="BackgroundImageFix"
         id="feFlood449" />
      <feColorMatrix
         in="SourceAlpha"
         type="matrix"
         values="0 0 0 0 0 0 0 0 0 0 0 0 0 0 0 0 0 0 127 0"
         result="hardAlpha"
         id="feColorMatrix451" />
      <feOffset
         id="feOffset453" />
      <feGaussianBlur
         stdDeviation="5"
         id="feGaussianBlur455" />
      <feComposite
         in2="hardAlpha"
         operator="out"
         id="feComposite457" />
      <feColorMatrix
         type="matrix"
         values="0 0 0 0 0 0 0 0 0 0 0 0 0 0 0 0 0 0 0.35 0"
         id="feColorMatrix459" />
      <feBlend
         mode="normal"
         in2="BackgroundImageFix"
         result="effect1_dropShadow"
         id="feBlend461" />
      <feBlend
         mode="normal"
         in="SourceGraphic"
         in2="effect1_dropShadow"
         result="shape"
         id="feBlend463" />
    </filter>
    <filter
       id="filter6_d"
       x="97.277298"
       y="633.58002"
       width="160"
       height="62"
       filterUnits="userSpaceOnUse"
       color-interpolation-filters="sRGB">
      <feFlood
         flood-opacity="0"
         result="BackgroundImageFix"
         id="feFlood466" />
      <feColorMatrix
         in="SourceAlpha"
         type="matrix"
         values="0 0 0 0 0 0 0 0 0 0 0 0 0 0 0 0 0 0 127 0"
         result="hardAlpha"
         id="feColorMatrix468" />
      <feOffset
         id="feOffset470" />
      <feGaussianBlur
         stdDeviation="2"
         id="feGaussianBlur472" />
      <feComposite
         in2="hardAlpha"
         operator="out"
         id="feComposite474" />
      <feColorMatrix
         type="matrix"
         values="0 0 0 0 0 0 0 0 0 0 0 0 0 0 0 0 0 0 0.25 0"
         id="feColorMatrix476" />
      <feBlend
         mode="normal"
         in2="BackgroundImageFix"
         result="effect1_dropShadow"
         id="feBlend478" />
      <feBlend
         mode="normal"
         in="SourceGraphic"
         in2="effect1_dropShadow"
         result="shape"
         id="feBlend480" />
    </filter>
    <filter
       id="filter7_d"
       x="1162.05"
       y="277.048"
       width="26.8125"
       height="26.814501"
       filterUnits="userSpaceOnUse"
       color-interpolation-filters="sRGB">
      <feFlood
         flood-opacity="0"
         result="BackgroundImageFix"
         id="feFlood483" />
      <feColorMatrix
         in="SourceAlpha"
         type="matrix"
         values="0 0 0 0 0 0 0 0 0 0 0 0 0 0 0 0 0 0 127 0"
         result="hardAlpha"
         id="feColorMatrix485" />
      <feOffset
         id="feOffset487" />
      <feGaussianBlur
         stdDeviation="5"
         id="feGaussianBlur489" />
      <feComposite
         in2="hardAlpha"
         operator="out"
         id="feComposite491" />
      <feColorMatrix
         type="matrix"
         values="0 0 0 0 1 0 0 0 0 1 0 0 0 0 1 0 0 0 1 0"
         id="feColorMatrix493" />
      <feBlend
         mode="normal"
         in2="BackgroundImageFix"
         result="effect1_dropShadow"
         id="feBlend495" />
      <feBlend
         mode="normal"
         in="SourceGraphic"
         in2="effect1_dropShadow"
         result="shape"
         id="feBlend497" />
    </filter>
    <filter
       id="filter8_d"
       x="972.55499"
       y="311.15799"
       width="26.8125"
       height="26.814501"
       filterUnits="userSpaceOnUse"
       color-interpolation-filters="sRGB">
      <feFlood
         flood-opacity="0"
         result="BackgroundImageFix"
         id="feFlood500" />
      <feColorMatrix
         in="SourceAlpha"
         type="matrix"
         values="0 0 0 0 0 0 0 0 0 0 0 0 0 0 0 0 0 0 127 0"
         result="hardAlpha"
         id="feColorMatrix502" />
      <feOffset
         id="feOffset504" />
      <feGaussianBlur
         stdDeviation="5"
         id="feGaussianBlur506" />
      <feComposite
         in2="hardAlpha"
         operator="out"
         id="feComposite508" />
      <feColorMatrix
         type="matrix"
         values="0 0 0 0 1 0 0 0 0 1 0 0 0 0 1 0 0 0 1 0"
         id="feColorMatrix510" />
      <feBlend
         mode="normal"
         in2="BackgroundImageFix"
         result="effect1_dropShadow"
         id="feBlend512" />
      <feBlend
         mode="normal"
         in="SourceGraphic"
         in2="effect1_dropShadow"
         result="shape"
         id="feBlend514" />
    </filter>
    <filter
       id="filter9_d"
       x="1299.78"
       y="281.43201"
       width="26.8125"
       height="26.814501"
       filterUnits="userSpaceOnUse"
       color-interpolation-filters="sRGB">
      <feFlood
         flood-opacity="0"
         result="BackgroundImageFix"
         id="feFlood517" />
      <feColorMatrix
         in="SourceAlpha"
         type="matrix"
         values="0 0 0 0 0 0 0 0 0 0 0 0 0 0 0 0 0 0 127 0"
         result="hardAlpha"
         id="feColorMatrix519" />
      <feOffset
         id="feOffset521" />
      <feGaussianBlur
         stdDeviation="5"
         id="feGaussianBlur523" />
      <feComposite
         in2="hardAlpha"
         operator="out"
         id="feComposite525" />
      <feColorMatrix
         type="matrix"
         values="0 0 0 0 1 0 0 0 0 1 0 0 0 0 1 0 0 0 1 0"
         id="feColorMatrix527" />
      <feBlend
         mode="normal"
         in2="BackgroundImageFix"
         result="effect1_dropShadow"
         id="feBlend529" />
      <feBlend
         mode="normal"
         in="SourceGraphic"
         in2="effect1_dropShadow"
         result="shape"
         id="feBlend531" />
    </filter>
    <filter
       id="filter10_d"
       x="1123.05"
       y="191.839"
       width="26.8125"
       height="26.814501"
       filterUnits="userSpaceOnUse"
       color-interpolation-filters="sRGB">
      <feFlood
         flood-opacity="0"
         result="BackgroundImageFix"
         id="feFlood534" />
      <feColorMatrix
         in="SourceAlpha"
         type="matrix"
         values="0 0 0 0 0 0 0 0 0 0 0 0 0 0 0 0 0 0 127 0"
         result="hardAlpha"
         id="feColorMatrix536" />
      <feOffset
         id="feOffset538" />
      <feGaussianBlur
         stdDeviation="5"
         id="feGaussianBlur540" />
      <feComposite
         in2="hardAlpha"
         operator="out"
         id="feComposite542" />
      <feColorMatrix
         type="matrix"
         values="0 0 0 0 1 0 0 0 0 1 0 0 0 0 1 0 0 0 1 0"
         id="feColorMatrix544" />
      <feBlend
         mode="normal"
         in2="BackgroundImageFix"
         result="effect1_dropShadow"
         id="feBlend546" />
      <feBlend
         mode="normal"
         in="SourceGraphic"
         in2="effect1_dropShadow"
         result="shape"
         id="feBlend548" />
    </filter>
    <filter
       id="filter11_d"
       x="849.79303"
       y="344.366"
       width="26.8125"
       height="26.814501"
       filterUnits="userSpaceOnUse"
       color-interpolation-filters="sRGB">
      <feFlood
         flood-opacity="0"
         result="BackgroundImageFix"
         id="feFlood551" />
      <feColorMatrix
         in="SourceAlpha"
         type="matrix"
         values="0 0 0 0 0 0 0 0 0 0 0 0 0 0 0 0 0 0 127 0"
         result="hardAlpha"
         id="feColorMatrix553" />
      <feOffset
         id="feOffset555" />
      <feGaussianBlur
         stdDeviation="5"
         id="feGaussianBlur557" />
      <feComposite
         in2="hardAlpha"
         operator="out"
         id="feComposite559" />
      <feColorMatrix
         type="matrix"
         values="0 0 0 0 1 0 0 0 0 1 0 0 0 0 1 0 0 0 1 0"
         id="feColorMatrix561" />
      <feBlend
         mode="normal"
         in2="BackgroundImageFix"
         result="effect1_dropShadow"
         id="feBlend563" />
      <feBlend
         mode="normal"
         in="SourceGraphic"
         in2="effect1_dropShadow"
         result="shape"
         id="feBlend565" />
    </filter>
    <filter
       id="filter12_d"
       x="1354.62"
       y="270.72"
       width="26.8125"
       height="26.814501"
       filterUnits="userSpaceOnUse"
       color-interpolation-filters="sRGB">
      <feFlood
         flood-opacity="0"
         result="BackgroundImageFix"
         id="feFlood568" />
      <feColorMatrix
         in="SourceAlpha"
         type="matrix"
         values="0 0 0 0 0 0 0 0 0 0 0 0 0 0 0 0 0 0 127 0"
         result="hardAlpha"
         id="feColorMatrix570" />
      <feOffset
         id="feOffset572" />
      <feGaussianBlur
         stdDeviation="5"
         id="feGaussianBlur574" />
      <feComposite
         in2="hardAlpha"
         operator="out"
         id="feComposite576" />
      <feColorMatrix
         type="matrix"
         values="0 0 0 0 1 0 0 0 0 1 0 0 0 0 1 0 0 0 1 0"
         id="feColorMatrix578" />
      <feBlend
         mode="normal"
         in2="BackgroundImageFix"
         result="effect1_dropShadow"
         id="feBlend580" />
      <feBlend
         mode="normal"
         in="SourceGraphic"
         in2="effect1_dropShadow"
         result="shape"
         id="feBlend582" />
    </filter>
    <linearGradient
       id="paint0_linear"
       x1="221.34"
       y1="639.82001"
       x2="221.34"
       y2="694.22699"
       gradientUnits="userSpaceOnUse">
      <stop
         stop-color="white"
         id="stop585" />
      <stop
         offset="0.2"
         stop-color="#FCFCFC"
         id="stop587" />
      <stop
         offset="0.37"
         stop-color="#F1F1F1"
         id="stop589" />
      <stop
         offset="0.53"
         stop-color="#E0E0E0"
         id="stop591" />
      <stop
         offset="0.68"
         stop-color="#C8C8C8"
         id="stop593" />
      <stop
         offset="0.82"
         stop-color="#ABABAB"
         id="stop595" />
      <stop
         offset="1"
         stop-color="white"
         id="stop597" />
    </linearGradient>
    <radialGradient
       id="paint1_radial"
       cx="0"
       cy="0"
       r="1"
       gradientUnits="userSpaceOnUse"
       gradientTransform="matrix(114.726,0,0,100.417,225.822,713.162)">
      <stop
         offset="0.17"
         stop-color="#858585"
         id="stop600" />
      <stop
         offset="0.36"
         stop-color="#575757"
         id="stop602" />
      <stop
         offset="0.55"
         stop-color="#313131"
         id="stop604" />
      <stop
         offset="0.73"
         stop-color="#161616"
         id="stop606" />
      <stop
         offset="0.88"
         stop-color="#060606"
         id="stop608" />
      <stop
         offset="1"
         id="stop610" />
    </radialGradient>
    <clipPath
       id="clip0">
      <rect
         width="1440"
         height="749"
         fill="#ffffff"
         transform="translate(0.730469)"
         id="rect613"
         x="0"
         y="0" />
    </clipPath>
    <clipPath
       id="clip1">
      <rect
         width="311.19101"
         height="153.67999"
         fill="#ffffff"
         transform="translate(1055.08,561.608)"
         id="rect616"
         x="0"
         y="0" />
    </clipPath>
    <clipPath
       id="clip2">
      <rect
         width="330"
         height="120"
         fill="#ffffff"
         transform="translate(1012,537.792)"
         id="rect619"
         x="0"
         y="0" />
    </clipPath>
    <clipPath
       id="clip3">
      <rect
         width="208"
         height="66"
         fill="#ffffff"
         transform="translate(90.7305,11)"
         id="rect622"
         x="0"
         y="0" />
    </clipPath>
  </defs>
</svg>
