<?xml version="1.0" encoding="UTF-8" standalone="no"?>
<svg
   fill="none"
   version="1.1"
   id="svg29"
   sodipodi:docname="bg-summaries.svg"
   inkscape:version="1.1 (c68e22c387, 2021-05-23)"
   xmlns:inkscape="http://www.inkscape.org/namespaces/inkscape"
   xmlns:sodipodi="http://sodipodi.sourceforge.net/DTD/sodipodi-0.dtd"
   xmlns="http://www.w3.org/2000/svg"
   xmlns:svg="http://www.w3.org/2000/svg">
  <sodipodi:namedview
     id="namedview31"
     pagecolor="#ffffff"
     bordercolor="#666666"
     borderopacity="1.0"
     inkscape:pageshadow="2"
     inkscape:pageopacity="0.0"
     inkscape:pagecheckerboard="0"
     showgrid="false"
     inkscape:snap-global="false"
     inkscape:zoom="0.34478022"
     inkscape:cx="-1116.6534"
     inkscape:cy="268.28685"
     inkscape:window-width="1857"
     inkscape:window-height="1057"
     inkscape:window-x="-8"
     inkscape:window-y="-8"
     inkscape:window-maximized="1"
     inkscape:current-layer="svg29" />
  <path
     d="M 28.248351,28.4396 C -4.4043514,46.147 -4.8176717,514.225 17.501886,533.603 33.208331,546.967 684.19679,551.31 711.88904,535.273 739.1686,519.57 742.06163,26.1009 718.50328,10.3981 689.98287,-8.64578 67.101008,7.39113 28.248351,28.4396 Z"
     fill="url(#paint0_linear)"
     id="path2"
     style="fill:url(#paint0_linear);stroke-width:0.999999" />
  <path
     d="M 28.248351,26.7705 C -4.4043517,44.1438 -4.817672,509.548 17.501886,528.926 33.208334,542.29 684.19683,546.634 711.88909,530.597 739.16863,515.228 742.06167,24.4318 718.50331,9.06304 689.9829,-9.98079 67.10101,5.72202 28.248351,26.7705 Z"
     fill="url(#paint1_linear)"
     id="path4"
     style="fill:url(#paint1_linear);stroke-width:1" />
  <path
     opacity="0.5"
     d="m 32.209002,24.8919 c 0,0 48.044607,55.8006 192.592258,59.4596 144.54861,3.6591 250.16273,-35.4471 330.09946,-49.8546 79.93673,-14.4076 137.50721,-23.3265 137.50721,-23.3265 0,0 -364.89017,-15.55099 -660.198928,13.7215 z"
     fill="url(#paint2_linear)"
     id="path6"
     style="fill:url(#paint2_linear);stroke-width:1" />
  <path
     d="m 22.8956,48.8212 c 0,0 -0.9014,-10.6913 3.305,-14.7005 4.2063,-4.0093 30.9467,-9.0208 32.1486,-7.6844 1.8027,1.3364 -22.2336,24.0554 -35.4536,22.3849 z"
     fill="#ffffff"
     id="path8" />
  <path
     d="m 22.8951,53.8325 c -3.3049,-1.0023 -4.2063,12.3618 -1.2018,12.6959 3.305,0.6682 4.5068,-11.6936 1.2018,-12.6959 z"
     fill="#ffffff"
     id="path10" />
  <defs
     id="defs27">
    <linearGradient
       id="paint0_linear"
       x1="268.09399"
       y1="545.58698"
       x2="268.09399"
       y2="1.9432499"
       gradientUnits="userSpaceOnUse"
       gradientTransform="matrix(1.3756708,0,0,1,-0.76894878,0)">
      <stop
         stop-color="#004AC2"
         id="stop12" />
      <stop
         offset="1"
         stop-color="#0083C2"
         id="stop14" />
    </linearGradient>
    <linearGradient
       id="paint1_linear"
       x1="268.09399"
       y1="540.62903"
       x2="268.09399"
       y2="0.37637499"
       gradientUnits="userSpaceOnUse"
       gradientTransform="matrix(1.3756709,0,0,1,-0.76894891,0)">
      <stop
         stop-color="#001D69"
         id="stop17" />
      <stop
         offset="1"
         stop-color="#004E83"
         id="stop19" />
    </linearGradient>
    <linearGradient
       id="paint2_linear"
       x1="32.191898"
       y1="45.8592"
       x2="511.26599"
       y2="45.8592"
       gradientUnits="userSpaceOnUse"
       gradientTransform="matrix(1.3785046,0,0,1,-12.191252,0)">
      <stop
         stop-color="#007EC6"
         id="stop22" />
      <stop
         offset="1"
         stop-color="#91D1FF"
         id="stop24" />
    </linearGradient>
    <linearGradient
       id="paint0_linear-2"
       x1="0.54889601"
       y1="20.453199"
       x2="717.5"
       y2="20.453199"
       gradientUnits="userSpaceOnUse">
      <stop
         stop-color="#0073C3"
         id="stop1202" />
      <stop
         offset="1"
         stop-color="#10A6FC"
         id="stop1204" />
    </linearGradient>
    <linearGradient
       id="paint0_linear-0"
       x1="0.49414"
       y1="24.656799"
       x2="475.64801"
       y2="24.656799"
       gradientUnits="userSpaceOnUse">
      <stop
         stop-color="#122B86"
         id="stop1057" />
      <stop
         offset="1"
         stop-color="#0C3A95"
         id="stop1059" />
    </linearGradient>
  </defs>
  <g
     style="fill:none;stroke-width:0.8692"
     id="g1072"
     transform="matrix(1.3236114,0,0,1,82.991354,489.18121)">
    <path
       d="m 0.486328,30.9015 c 0,0 213.923672,-7.6844 287.534672,-23.72128 73.611,-16.03691 181.174,-2.33874 187.483,28.06458 0,-0.3341 -281.525,34.0784 -475.017672,-4.3433 z"
       fill="url(#paint0_linear)"
       id="path1055"
       style="fill:url(#paint0_linear-0);stroke-width:0.8692" />
  </g>
  <g
     style="fill:none;stroke-width:1.24047"
     id="g1228"
     transform="matrix(0.64987032,0,0,1,695.10287,517.08372)">
    <path
       d="M 0.893849,18.4799 C 1.3472,21.7313 23.5614,17.1252 27.6415,14.4157 31.7217,11.7063 34.4418,1.41032 32.175,0.32653 29.9083,-0.757257 0.440499,15.2286 0.893849,18.4799 Z"
       fill="#ffffff"
       id="path1219"
       style="stroke-width:1.47971" />
  </g>
</svg>
