<svg width="21" height="26" viewBox="0 0 21 26" fill="none" xmlns="http://www.w3.org/2000/svg">
<path d="M17.7188 13.5C18.5393 13.5 19.3262 13.8259 19.9064 14.4061C20.4866 14.9863 20.8125 15.7732 20.8125 16.5938V17.625C20.8125 21.6902 16.9762 25.875 10.5 25.875C4.02375 25.875 0.1875 21.6902 0.1875 17.625V16.5938C0.1875 15.7732 0.513448 14.9863 1.09364 14.4061C1.67383 13.8259 2.46074 13.5 3.28125 13.5H17.7188ZM10.5 0.09375C12.0043 0.09375 13.4469 0.691321 14.5106 1.755C15.5743 2.81869 16.1719 4.26135 16.1719 5.76562C16.1719 7.2699 15.5743 8.71256 14.5106 9.77625C13.4469 10.8399 12.0043 11.4375 10.5 11.4375C8.99573 11.4375 7.55306 10.8399 6.48938 9.77625C5.4257 8.71256 4.82812 7.2699 4.82812 5.76562C4.82812 4.26135 5.4257 2.81869 6.48938 1.755C7.55306 0.691321 8.99573 0.09375 10.5 0.09375Z" fill="#28345B"/>
</svg>
