<?xml version="1.0" encoding="UTF-8" standalone="no"?>
<svg
   width="388"
   height="152.89999"
   viewBox="0 0 388 152.9"
   fill="none"
   version="1.1"
   id="svg78"
   sodipodi:docname="button-pink.svg"
   inkscape:version="1.1 (c68e22c387, 2021-05-23)"
   xmlns:inkscape="http://www.inkscape.org/namespaces/inkscape"
   xmlns:sodipodi="http://sodipodi.sourceforge.net/DTD/sodipodi-0.dtd"
   xmlns="http://www.w3.org/2000/svg"
   xmlns:svg="http://www.w3.org/2000/svg">
  <sodipodi:namedview
     id="namedview80"
     pagecolor="#ffffff"
     bordercolor="#666666"
     borderopacity="1.0"
     inkscape:pageshadow="2"
     inkscape:pageopacity="0.0"
     inkscape:pagecheckerboard="0"
     showgrid="false"
     inkscape:snap-global="false"
     inkscape:zoom="128.53306"
     inkscape:cx="274.43523"
     inkscape:cy="153.93316"
     inkscape:window-width="1857"
     inkscape:window-height="1057"
     inkscape:window-x="-8"
     inkscape:window-y="-8"
     inkscape:window-maximized="1"
     inkscape:current-layer="svg78" />
  <g
     id="g859"
     transform="matrix(1.3503901,0,0,1.3652354,-68.100156,-63.466783)"
     style="stroke-width:0.736489">
    <path
       d="m 277.921,158.17 -168.236,0.003 c -15.703,0 -30.7637,-5.872 -41.8711,-16.324 C 56.7064,131.397 50.4613,117.219 50.4512,102.433 50.4613,87.6462 56.7064,73.4687 67.8139,63.0165 78.9213,52.5643 93.982,46.6928 109.685,46.6929 l 168.236,-0.0022 c 15.7,0 30.757,5.8725 41.858,16.3258 11.102,10.4532 17.338,24.6309 17.338,39.4145 0,14.783 -6.236,28.96 -17.338,39.414 -11.101,10.453 -26.158,16.325 -41.858,16.325 z"
       fill="#d6007e"
       id="path6"
       style="stroke:none;stroke-width:0.734054;filter:url(#filter1_d)"
       transform="matrix(1.0011327,0,0,1.004337,-0.00369048,-0.37594795)" />
    <path
       style="mix-blend-mode:color-burn;fill:url(#paint0_linear);stroke:none;stroke-width:0.736489"
       d="m 279.12894,158.41279 -170.21978,-0.002 c -15.504019,0 -30.373399,-5.88976 -41.339754,-16.37411 C 56.603052,131.55246 50.437212,117.33089 50.427212,102.49908 50.437237,87.666837 56.603054,73.44558 67.569406,62.961127 78.535761,52.476673 93.405141,46.587214 108.90916,46.587214 l 170.21978,0.0018 c 15.49996,0 30.36551,5.890671 41.3255,16.376131 10.961,10.485469 17.11835,24.706827 17.11835,39.535625 0,14.8288 -6.15735,29.05037 -17.11835,39.53573 -10.95999,10.48535 -25.82554,16.37611 -41.3255,16.37611 z"
       fill="url(#paint0_linear)"
       id="path10" />
    <path
       style="mix-blend-mode:color-dodge;fill:url(#paint1_radial);stroke:none;stroke-width:0.736489"
       d="m 278.66338,158.22376 -169.28963,0.002 c -15.569978,0 -30.502738,-5.87003 -41.515836,-16.31933 C 56.844817,131.45717 50.652695,117.2832 50.642651,102.50101 50.652692,87.718507 56.844817,73.544936 67.857914,63.095564 78.871012,52.64619 93.803772,46.776443 109.37375,46.776443 l 169.28963,-0.0022 c 15.56705,0 30.49595,5.870953 41.50266,16.321331 11.00772,10.450378 17.19131,24.62415 17.19131,39.403436 0,14.77917 -6.18359,28.95313 -17.19131,39.40342 -11.00671,10.45029 -25.93561,16.32133 -41.50266,16.32133 z"
       fill="url(#paint1_radial)"
       id="path12" />
  </g>
  <defs
     id="defs76">
    <filter
       id="filter0_d"
       x="0.92773402"
       y="0.0322266"
       width="386.147"
       height="204.334"
       filterUnits="userSpaceOnUse"
       color-interpolation-filters="sRGB">
      <feFlood
         flood-opacity="0"
         result="BackgroundImageFix"
         id="feFlood14" />
      <feColorMatrix
         in="SourceAlpha"
         type="matrix"
         values="0 0 0 0 0 0 0 0 0 0 0 0 0 0 0 0 0 0 127 0"
         result="hardAlpha"
         id="feColorMatrix16" />
      <feOffset
         id="feOffset18" />
      <feGaussianBlur
         stdDeviation="20"
         id="feGaussianBlur20" />
      <feComposite
         in2="hardAlpha"
         operator="out"
         id="feComposite22" />
      <feColorMatrix
         type="matrix"
         values="0 0 0 0 1 0 0 0 0 1 0 0 0 0 1 0 0 0 0.7 0"
         id="feColorMatrix24" />
      <feBlend
         mode="normal"
         in2="BackgroundImageFix"
         result="effect1_dropShadow"
         id="feBlend26" />
      <feBlend
         mode="normal"
         in="SourceGraphic"
         in2="effect1_dropShadow"
         result="shape"
         id="feBlend28" />
    </filter>
    <filter
       id="filter1_d"
       x="46.451199"
       y="42.690701"
       width="294.66599"
       height="119.482"
       filterUnits="userSpaceOnUse"
       color-interpolation-filters="sRGB">
      <feFlood
         flood-opacity="0"
         result="BackgroundImageFix"
         id="feFlood31" />
      <feColorMatrix
         in="SourceAlpha"
         type="matrix"
         values="0 0 0 0 0 0 0 0 0 0 0 0 0 0 0 0 0 0 127 0"
         result="hardAlpha"
         id="feColorMatrix33" />
      <feOffset
         id="feOffset35" />
      <feGaussianBlur
         stdDeviation="2"
         id="feGaussianBlur37" />
      <feComposite
         in2="hardAlpha"
         operator="out"
         id="feComposite39" />
      <feColorMatrix
         type="matrix"
         values="0 0 0 0 0 0 0 0 0 0 0 0 0 0 0 0 0 0 0.25 0"
         id="feColorMatrix41" />
      <feBlend
         mode="normal"
         in2="BackgroundImageFix"
         result="effect1_dropShadow"
         id="feBlend43" />
      <feBlend
         mode="normal"
         in="SourceGraphic"
         in2="effect1_dropShadow"
         result="shape"
         id="feBlend45" />
    </filter>
    <linearGradient
       id="paint0_linear"
       x1="276.88599"
       y1="51.314499"
       x2="276.88599"
       y2="163.63699"
       gradientUnits="userSpaceOnUse"
       gradientTransform="matrix(1.0102304,0,0,1.0086929,1.4014361,-1.8634924)">
      <stop
         stop-color="white"
         id="stop48" />
      <stop
         offset="0.2"
         stop-color="#FCFCFC"
         id="stop50" />
      <stop
         offset="0.37"
         stop-color="#F1F1F1"
         id="stop52" />
      <stop
         offset="0.53"
         stop-color="#E0E0E0"
         id="stop54" />
      <stop
         offset="0.68"
         stop-color="#C8C8C8"
         id="stop56" />
      <stop
         offset="0.82"
         stop-color="#ABABAB"
         id="stop58" />
      <stop
         offset="1"
         stop-color="white"
         id="stop60" />
    </linearGradient>
    <radialGradient
       id="paint1_radial"
       cx="0"
       cy="0"
       r="1"
       gradientUnits="userSpaceOnUse"
       gradientTransform="matrix(219.51424,0,0,208.4114,286.88924,203.37157)">
      <stop
         offset="0.17"
         stop-color="#858585"
         id="stop63" />
      <stop
         offset="0.36"
         stop-color="#575757"
         id="stop65" />
      <stop
         offset="0.55"
         stop-color="#313131"
         id="stop67" />
      <stop
         offset="0.73"
         stop-color="#161616"
         id="stop69" />
      <stop
         offset="0.88"
         stop-color="#060606"
         id="stop71" />
      <stop
         offset="1"
         id="stop73" />
    </radialGradient>
  </defs>
</svg>
