<svg width="87" height="32" viewBox="0 0 87 32" fill="none" xmlns="http://www.w3.org/2000/svg">
<g clip-path="url(#clip0)">
<path d="M21.2881 0.159948C16.8349 -0.528794 13.0877 1.27253 10.5353 4.34538C8.85179 4.71624 7.3855 5.6169 6.40797 7.36524C4.77876 8.00101 3.25816 9.00763 2.0091 10.4381C-0.65195 13.6699 -0.597643 18.1202 1.57464 21.6169C3.63831 24.9546 6.73382 26.597 10.1552 27.1268C11.2956 28.8222 12.8162 30.1997 14.717 31.1003C17.2151 32.2659 19.9304 32.2129 22.2113 31.0474C24.5466 31.2593 26.9361 30.7295 28.6196 28.9282C31.4979 25.8553 30.8462 21.246 29.923 17.3785C33.0185 10.4911 29.2713 1.37849 21.2881 0.159948ZM17.9754 1.37849C24.3293 -0.0519726 29.923 4.87518 29.7057 12.5573C29.6514 13.8288 29.6514 14.1997 29.2713 15.2593C28.7282 16.4248 28.511 12.6633 27.8593 10.9679C26.1758 6.62352 21.8855 5.03412 17.8125 4.50432C16.2919 4.2924 14.9885 4.08048 13.305 4.08048C14.554 2.96789 16.1833 1.80233 17.9754 1.37849ZM21.3424 29.458C20.6907 29.405 20.5821 29.405 19.9848 29.1931C19.0072 28.9282 18.0297 28.5573 17.1065 28.0805C20.8537 28.1864 24.7095 25.0076 26.8274 21.7758C26.7731 24.7957 24.7638 28.0275 21.3424 29.458ZM7.3312 8.68975C7.60273 8.63677 7.87427 8.58379 8.1458 8.53081C7.71135 9.59041 7.3855 10.756 7.22258 11.9215C6.84243 12.9811 6.78812 14.1467 7.05966 15.3652C7.11397 16.054 7.16827 16.7427 7.3312 17.4844C7.3855 18.2262 7.43981 18.9679 7.54842 19.6037C7.65704 20.5573 7.60273 20.6103 7.87427 21.5639C6.40797 19.9745 5.8106 17.1666 5.8106 14.6235C5.75629 12.5573 6.19075 10.756 7.3312 8.68975ZM10.1552 25.0076C9.44917 23.895 9.39487 22.5705 9.28625 22.2527C9.50348 22.6235 10.6982 24.5838 11.3499 25.1666C11.2413 25.1666 10.2095 25.0606 10.1552 25.0076ZM26.0128 20.3984C25.1982 21.1931 24.275 21.8818 23.2975 22.4646C24.4922 20.3454 24.981 17.7493 24.7638 15.2593C25.5784 16.5308 26.1215 17.9613 26.3387 19.5507C26.2844 19.8156 26.1758 20.1335 26.0128 20.3984ZM9.93794 20.6633C10.9698 21.5639 12.5447 22.4646 13.848 22.8884C14.6083 24.001 15.5316 24.9017 16.6177 25.3255C15.8031 25.5374 14.8799 25.6964 14.011 25.7493C10.9155 24.107 10.2095 21.5109 9.93794 20.6633ZM12.0559 8.58379C10.6439 9.90829 8.96041 13.5639 8.52595 15.6301C8.52595 14.5705 8.41734 12.0275 8.58026 10.9679C8.74318 10.756 10.0466 8.95465 12.0559 8.58379ZM14.8256 21.5639C14.011 20.3454 13.3593 18.8619 12.9791 17.6434C12.3818 15.7361 12.1102 14.0407 12.3818 12.2924C12.9248 9.21955 16.7263 8.00101 18.3555 9.43147C22.7544 13.1401 20.202 18.0143 18.3555 17.5904C19.3331 17.0076 20.0934 15.895 19.9848 14.4646C19.8218 11.1798 15.6945 10.2262 13.848 12.6103C11.6758 15.3652 13.7937 19.0739 16.8892 19.3388C18.5728 19.4447 19.9304 18.756 20.8537 17.5904C20.8537 21.8288 17.4323 22.0937 14.8256 21.5639ZM10.8612 12.2924C10.8612 14.4646 11.4042 17.5374 12.0559 19.3388C12.2188 19.7626 12.3818 20.1864 12.599 20.6103C11.7301 20.3984 9.93794 19.9745 9.34056 18.3321C9.06902 16.001 10.1009 13.9348 10.8612 12.2924ZM16.9979 23.1003C21.2881 22.4116 22.8087 18.4381 22.2113 14.7825C22.32 14.2527 21.2881 11.6566 20.8537 10.5441C24.5466 14.8354 23.3518 20.5043 20.8537 22.1467C19.2788 23.1533 18.4642 23.3652 16.2376 23.1533C16.5091 23.1533 16.7806 23.1533 16.9979 23.1003ZM11.4042 7.73611C11.2956 7.78909 9.50348 8.90167 9.39486 8.95465C9.44917 8.90167 9.39487 8.10697 9.77501 7.73611C10.7525 7.47121 11.3499 7.73611 11.4042 7.73611ZM14.9885 7.47121C14.2825 7.04736 11.6758 6.4116 10.6439 6.6765C11.7301 5.24604 16.6177 5.352 17.9754 7.36524C17.2694 7.2063 15.966 7.2063 14.9885 7.47121ZM20.8537 25.1666C21.7226 24.7957 23.3518 23.948 24.1664 23.4712C23.1889 24.3719 21.8312 25.9083 19.3331 26.2792C16.7263 26.65 16.6177 26.3851 16.5634 26.4381C16.9979 26.2262 20.5278 25.4315 20.8537 25.1666ZM26.6102 16.3189C25.9042 14.9414 24.8724 13.352 23.9492 12.2924C23.4061 10.4911 22.863 9.48445 21.451 8.10697C20.6907 7.36524 19.7675 6.6765 18.79 6.1467C21.2338 6.57054 24.1121 7.15332 25.7413 9.16657C27.2619 11.0209 27.4248 13.7229 27.1533 16.2129C27.1533 16.5308 26.7731 16.5838 26.6102 16.3189ZM9.93794 5.6169C9.93794 5.6169 9.17764 6.83544 9.12333 6.9414C9.01471 6.9414 7.81996 7.25928 7.71134 7.25928C8.30872 5.82882 9.77501 5.72286 9.93794 5.6169ZM1.03157 16.8487C0.705728 12.9811 3.25816 10.2262 6.02782 8.95465C3.69262 14.8884 4.01846 20.6633 8.68887 25.1666C4.94168 24.1599 1.41172 21.5109 1.03157 16.8487ZM11.4585 27.2328C11.7301 27.2328 12.7076 27.3388 13.0334 27.3388C13.1964 27.3917 13.3593 27.3917 13.5222 27.3917C14.6627 28.2924 15.8574 29.0341 17.1608 29.6699C17.6495 29.9348 18.2469 30.1467 18.79 30.3586C16.4005 30.4116 13.305 29.299 11.4585 27.2328ZM29.3256 25.1666C28.6196 27.4977 26.5559 29.0341 24.5465 29.405C24.9267 29.0341 25.2525 28.6633 25.5784 28.2394C27.4791 25.7493 28.1308 23.1003 27.8593 20.5573C28.2394 20.1335 28.8368 19.0209 29.1627 18.5441C29.5971 20.6633 29.923 23.2063 29.3256 25.1666Z" fill="#1A1D33"/>
<path d="M16.9434 17.6427C18.3231 17.6427 19.4416 16.4567 19.4416 14.9937C19.4416 13.5307 18.3231 12.3447 16.9434 12.3447C15.5638 12.3447 14.4453 13.5307 14.4453 14.9937C14.4453 16.4567 15.5638 17.6427 16.9434 17.6427Z" fill="#E9E100"/>
<path d="M43.608 16.1585C42.6305 16.1585 41.7073 15.8936 40.947 15.4168C40.1867 14.94 39.535 14.3042 39.1005 13.4566C38.6661 12.6089 38.3945 11.7082 38.3945 10.6486C38.3945 9.589 38.6661 8.68834 39.1548 7.84066C39.6436 6.99298 40.2953 6.35722 41.1642 5.88039C42.0331 5.40357 42.9563 5.13867 44.0425 5.13867C45.0743 5.13867 46.0518 5.40357 46.8664 5.88039C47.6811 6.35722 48.387 6.99298 48.8758 7.84066C49.3646 8.68834 49.6361 9.589 49.6361 10.6486H48.8215C48.8215 11.7082 48.6043 12.6089 48.1155 13.4566C47.6811 14.3042 47.0294 14.94 46.2691 15.4168C45.4545 15.8936 44.5855 16.1585 43.608 16.1585ZM43.9882 14.3572C44.6942 14.3572 45.2915 14.1983 45.8346 13.8804C46.3777 13.5625 46.8121 13.1387 47.138 12.5559C47.4638 11.9731 47.6267 11.3903 47.6267 10.6486C47.6267 9.95986 47.4638 9.3241 47.138 8.74132C46.8121 8.15854 46.3777 7.7347 45.8346 7.41682C45.2915 7.09894 44.6942 6.94 43.9882 6.94C43.3365 6.94 42.6848 7.09894 42.1417 7.41682C41.5987 7.7347 41.1642 8.15854 40.8384 8.74132C40.5125 9.3241 40.3496 9.95986 40.3496 10.6486C40.3496 11.3373 40.5125 11.9731 40.8384 12.5559C41.1642 13.1387 41.5987 13.5625 42.1417 13.8804C42.7391 14.1983 43.3365 14.3572 43.9882 14.3572ZM48.55 16.1056C48.2784 16.1056 48.0069 15.9996 47.7897 15.8407C47.5724 15.6817 47.5181 15.4168 47.5181 15.0989V12.0791L47.8983 9.95986L49.5818 10.6486V15.046C49.5818 15.3109 49.4732 15.5758 49.3103 15.7877C49.093 15.9996 48.8758 16.1056 48.55 16.1056Z" fill="#1A1D33"/>
<path d="M58.2694 16.1589C57.2376 16.1589 56.2601 15.894 55.4454 15.4172C54.6308 14.9404 53.9248 14.3046 53.4361 13.4569C52.9473 12.6093 52.6758 11.7086 52.6758 10.649V1.64236C52.6758 1.32448 52.7844 1.11256 52.9473 0.900643C53.1645 0.741702 53.3818 0.635742 53.7076 0.635742C54.0335 0.635742 54.2507 0.741702 54.4679 0.900643C54.6308 1.05958 54.7395 1.32448 54.7395 1.64236V6.99336C55.2282 6.46356 55.7713 5.98674 56.4773 5.66885C57.129 5.35097 57.8893 5.19203 58.7039 5.19203C59.6814 5.19203 60.6046 5.45693 61.3649 5.93376C62.1252 6.41058 62.7769 7.04634 63.2114 7.89402C63.6458 8.7417 63.9174 9.64236 63.9174 10.702C63.9174 11.7616 63.6458 12.6622 63.1571 13.5099C62.6683 14.3576 62.0166 14.9934 61.1477 15.4702C60.2788 15.894 59.3013 16.1589 58.2694 16.1589ZM58.2694 14.3576C58.9754 14.3576 59.5728 14.1987 60.1159 13.8808C60.6589 13.5629 61.0934 13.0861 61.4192 12.5563C61.7451 11.9735 61.908 11.3377 61.908 10.649C61.908 9.96025 61.7451 9.32448 61.4192 8.7417C61.0934 8.2119 60.6589 7.73508 60.1159 7.4172C59.5728 7.09932 58.9754 6.94038 58.2694 6.94038C57.6177 6.94038 56.966 7.09932 56.423 7.4172C55.8799 7.73508 55.4454 8.15892 55.1196 8.7417C54.7938 9.2715 54.6308 9.90726 54.6308 10.649C54.6308 11.3377 54.7938 11.9735 55.1196 12.5563C55.4454 13.1391 55.8799 13.5629 56.423 13.8808C56.966 14.1987 57.5634 14.3576 58.2694 14.3576Z" fill="#1A1D33"/>
<path d="M67.9381 16.0533C67.6122 16.0533 67.3407 15.9473 67.1778 15.7884C67.0149 15.6295 66.9062 15.3646 66.9062 15.0467V6.25199C66.9062 5.9341 67.0149 5.6692 67.1778 5.51026C67.3407 5.35132 67.6122 5.24536 67.9381 5.24536C68.2639 5.24536 68.5355 5.35132 68.6984 5.51026C68.8613 5.6692 68.9699 5.9341 68.9699 6.25199V15.0997C68.9699 15.4175 68.8613 15.6824 68.6984 15.8414C68.5355 16.0003 68.3182 16.0533 67.9381 16.0533ZM67.9381 9.32483C67.9381 8.53013 68.1553 7.84139 68.5355 7.20563C68.9156 6.56987 69.4587 6.09305 70.1647 5.72218C70.8164 5.35132 71.5767 5.19238 72.3913 5.19238C73.2059 5.19238 73.8032 5.29834 74.1834 5.56324C74.5635 5.82814 74.7265 6.14602 74.6178 6.46391C74.5635 6.62285 74.5092 6.78179 74.4006 6.88775C74.292 6.99371 74.1291 7.04669 74.0205 7.09967C73.8575 7.15265 73.6946 7.09967 73.5317 7.09967C72.6628 6.94073 71.9025 6.94073 71.1965 7.04669C70.4905 7.20563 69.9474 7.47053 69.5673 7.84139C69.1871 8.21225 68.9699 8.74205 68.9699 9.32483H67.9381Z" fill="#1A1D33"/>
<path d="M80.6471 16.1585C79.6695 16.1585 78.7463 15.8936 77.986 15.4168C77.2257 14.94 76.574 14.3042 76.1396 13.4566C75.7051 12.6089 75.4336 11.7082 75.4336 10.6486C75.4336 9.589 75.7051 8.68834 76.1939 7.84066C76.6827 6.99298 77.3343 6.35722 78.2033 5.88039C79.0722 5.40357 79.9954 5.13867 81.0815 5.13867C82.1134 5.13867 83.0909 5.40357 83.9055 5.88039C84.7201 6.35722 85.4261 6.99298 85.9149 7.84066C86.4036 8.68834 86.6752 9.589 86.6752 10.6486H85.8062C85.8062 11.7082 85.589 12.6089 85.1003 13.4566C84.6658 14.3042 84.0141 14.94 83.2538 15.4168C82.4935 15.8936 81.6246 16.1585 80.6471 16.1585ZM81.0272 14.3572C81.7332 14.3572 82.3306 14.1983 82.8737 13.8804C83.4167 13.5625 83.8512 13.1387 84.177 12.5559C84.5029 11.9731 84.6658 11.3903 84.6658 10.6486C84.6658 9.95986 84.5029 9.3241 84.177 8.74132C83.8512 8.15854 83.4167 7.7347 82.8737 7.41682C82.3306 7.09894 81.7332 6.94 81.0272 6.94C80.3755 6.94 79.7239 7.09894 79.1808 7.41682C78.6377 7.7347 78.2033 8.15854 77.8774 8.74132C77.5516 9.3241 77.3887 9.95986 77.3887 10.6486C77.3887 11.3373 77.5516 11.9731 77.8774 12.5559C78.2033 13.1387 78.6377 13.5625 79.1808 13.8804C79.7239 14.1983 80.3755 14.3572 81.0272 14.3572ZM85.589 16.1056C85.3175 16.1056 85.0459 15.9996 84.8287 15.8407C84.6115 15.6817 84.5572 15.4168 84.5572 15.0989V12.0791L84.9373 9.95986L86.6209 10.6486V15.046C86.6209 15.3109 86.5122 15.5758 86.3493 15.7877C86.1321 15.9996 85.8606 16.1056 85.589 16.1056Z" fill="#1A1D33"/>
<path d="M39.6446 26.0668C39.2645 25.7489 39.1016 25.3781 39.1016 24.8483C39.1016 23.8416 39.8076 23.3118 41.1652 23.2059L42.7944 23.0999V22.5701C42.7944 21.8814 42.36 21.5105 41.4911 21.5105C41.1652 21.5105 40.8937 21.5635 40.6222 21.6695C40.3506 21.7754 40.242 21.9344 40.1877 22.1993H39.2645C39.3188 21.7754 39.536 21.4046 39.9705 21.1397C40.4049 20.8748 40.8937 20.7158 41.4911 20.7158C42.1971 20.7158 42.7401 20.8748 43.066 21.1926C43.3918 21.5105 43.6091 21.9873 43.6091 22.5701V26.3847H42.7401V25.59H42.6315C42.4686 25.9079 42.1971 26.1198 41.9255 26.2787C41.5997 26.4377 41.2738 26.4907 40.8937 26.4907C40.4592 26.5436 40.0248 26.3847 39.6446 26.0668ZM42.36 25.3251C42.6858 25.0602 42.7944 24.7423 42.7944 24.3185V23.7887L41.2738 23.9476C40.4592 24.0006 40.0248 24.3185 40.0248 24.8483C40.0248 25.1132 40.1334 25.3251 40.3506 25.484C40.5679 25.643 40.8394 25.696 41.1652 25.696C41.654 25.7489 42.0341 25.59 42.36 25.3251Z" fill="#1A1D33"/>
<path d="M48.4428 28.133C48.0083 27.8681 47.7911 27.4973 47.7368 27.0205H48.7143C48.7686 27.2324 48.9315 27.4443 49.1487 27.5503C49.4203 27.7092 49.7461 27.7622 50.1263 27.7622C50.615 27.7622 51.0495 27.6562 51.321 27.3913C51.5926 27.1264 51.7555 26.8615 51.7555 26.4377V25.3251H51.6469C51.484 25.643 51.2124 25.8549 50.9409 26.0138C50.615 26.1728 50.2892 26.2787 49.909 26.2787C49.1487 26.2787 48.6057 26.0138 48.1712 25.537C47.7368 25.0072 47.5195 24.3715 47.5195 23.5238C47.5195 22.6761 47.7368 22.0403 48.1712 21.5105C48.6057 20.9807 49.2031 20.7158 49.909 20.7158C50.2892 20.7158 50.6693 20.8218 50.9952 20.9807C51.321 21.1397 51.5926 21.4046 51.7555 21.6695H51.8641V20.7688H52.733V26.3847C52.733 27.0205 52.5158 27.4973 52.027 27.8681C51.5926 28.239 50.9409 28.3979 50.1806 28.3979C49.4203 28.5569 48.8772 28.3979 48.4428 28.133ZM51.321 25.0072C51.5926 24.6364 51.7555 24.1595 51.7555 23.5767C51.7555 22.994 51.5926 22.5171 51.321 22.1463C50.9952 21.7754 50.615 21.6165 50.072 21.6165C49.5289 21.6165 49.1487 21.7754 48.8772 22.1463C48.6057 22.5171 48.4428 22.994 48.4428 23.5767C48.4428 24.1595 48.6057 24.6893 48.8772 25.0072C49.1487 25.3781 49.5832 25.537 50.072 25.537C50.615 25.59 50.9952 25.3781 51.321 25.0072Z" fill="#1A1D33"/>
<path d="M60.4988 25.0067C60.6617 25.0067 60.8247 25.0067 60.9333 25.0067C61.0419 25.0067 61.2048 25.0067 61.3677 25.0067C61.2048 25.4835 60.9333 25.8544 60.5531 26.1193C60.1187 26.3842 59.6299 26.5431 58.9782 26.5431C58.2179 26.5431 57.5662 26.2782 57.1318 25.7484C56.6973 25.2186 56.4258 24.5299 56.4258 23.6822C56.4258 22.8345 56.643 22.0928 57.1318 21.616C57.6205 21.0862 58.2179 20.8213 58.9782 20.8213C59.7385 20.8213 60.3359 21.0862 60.7704 21.563C61.2048 22.0398 61.422 22.7286 61.422 23.5763V23.8941H57.349V23.9471C57.349 24.4769 57.5119 24.9537 57.8378 25.2716C58.1093 25.5895 58.5438 25.7484 58.9782 25.7484C59.3584 25.7484 59.6299 25.6955 59.9014 25.5365C60.173 25.3776 60.3902 25.2186 60.4988 25.0067ZM57.8921 22.0398C57.6205 22.3577 57.4576 22.7286 57.4033 23.2054H60.5531C60.5531 22.7286 60.3902 22.3047 60.1187 22.0398C59.8471 21.7749 59.467 21.616 59.0325 21.616C58.5438 21.563 58.1636 21.722 57.8921 22.0398Z" fill="#1A1D33"/>
<path d="M65.2773 26.4372C65.2773 25.6955 65.2773 25.0597 65.2773 24.4769C65.2773 23.9471 65.2773 23.3643 65.2773 22.8345C65.2773 22.3047 65.2773 21.616 65.2773 20.8743H66.1463V21.7749H66.2549C66.4178 21.4571 66.635 21.2451 66.9066 21.0862C67.1781 20.9272 67.5582 20.8213 67.9927 20.8213C68.6444 20.8213 69.1332 20.9802 69.459 21.3511C69.7848 21.722 69.9478 22.1988 69.9478 22.8875V26.4902H69.0245V23.0994C69.0245 22.6226 68.9159 22.2518 68.6987 21.9869C68.4815 21.722 68.1556 21.616 67.6669 21.616C67.2324 21.616 66.8523 21.7749 66.5807 22.0398C66.3092 22.3047 66.2006 22.6756 66.2006 23.2054V26.4902H65.2773V26.4372Z" fill="#1A1D33"/>
<path d="M78.6372 22.5701C78.4743 22.5701 78.3114 22.5701 78.2028 22.5701C78.0942 22.5701 77.9313 22.5701 77.7683 22.5701C77.714 22.3052 77.5511 22.0403 77.2796 21.8814C77.008 21.6695 76.6822 21.5635 76.302 21.5635C75.8133 21.5635 75.3788 21.7224 75.1073 22.0933C74.7815 22.4642 74.6728 22.941 74.6728 23.5767C74.6728 24.2125 74.8358 24.7423 75.1073 25.1132C75.3788 25.484 75.8133 25.696 76.302 25.696C76.6822 25.696 77.008 25.59 77.2796 25.4311C77.5511 25.2721 77.714 25.0072 77.7683 24.6893H78.6916C78.6372 25.2191 78.3657 25.643 77.9313 25.9609C77.4968 26.2787 76.9537 26.4907 76.302 26.4907C75.4874 26.4907 74.8901 26.2258 74.4013 25.696C73.9125 25.1661 73.6953 24.4774 73.6953 23.5767C73.6953 22.7291 73.9125 22.0403 74.4013 21.5105C74.8901 20.9807 75.4874 20.7158 76.302 20.7158C77.008 20.7158 77.5511 20.8748 77.9313 21.2456C78.3114 21.6695 78.5829 22.0933 78.6372 22.5701Z" fill="#1A1D33"/>
<path d="M82.7091 28.4509C82.6548 28.4509 82.6005 28.4509 82.5462 28.4509C82.4919 28.4509 82.4376 28.4509 82.4376 28.4509V27.7092C82.4919 27.7092 82.5462 27.7092 82.6005 27.7092C82.6548 27.7092 82.7091 27.7092 82.8177 27.7092C83.0893 27.7092 83.3065 27.6562 83.4694 27.4973C83.6324 27.3383 83.741 27.1264 83.9039 26.8085L84.0125 26.4906L81.8945 20.9277H82.8721L84.447 25.484H84.5556L86.1305 20.9277H87.108L84.8814 26.8085C84.6642 27.4443 84.3926 27.8681 84.1211 28.133C83.8496 28.3979 83.4694 28.5039 82.9264 28.5039C82.8177 28.4509 82.7634 28.4509 82.7091 28.4509Z" fill="#1A1D33"/>
</g>
<defs>
<clipPath id="clip0">
<rect width="87" height="32" fill="white"/>
</clipPath>
</defs>
</svg>
