<svg width="137" height="42" viewBox="0 0 137 42" fill="none" xmlns="http://www.w3.org/2000/svg">
<g clip-path="url(#clip0)">
<path d="M89.7954 21.6126H87.9561V19.1427H89.1825H89.1834H89.7954C90.4713 19.1427 91.0212 19.6966 91.0212 20.3779C91.0212 21.0586 90.4713 21.6126 89.7954 21.6126ZM87.9561 14.2023H89.1821V14.2014L89.1825 14.2023C89.8584 14.2023 90.4083 14.7563 90.4083 15.4375C90.4083 16.1183 89.8584 16.6723 89.1825 16.6723V16.6727H87.9561V14.2023ZM92.1869 17.5681C92.6099 16.9646 92.8608 16.2307 92.8608 15.4375C92.8608 13.3943 91.2107 11.7324 89.1825 11.7324L89.1821 11.7332V11.7324H85.5039V24.083L87.9561 24.0826L89.7954 24.083C91.8236 24.083 93.4736 22.4206 93.4736 20.3779C93.4736 19.2546 92.9728 18.2484 92.1869 17.5681Z" fill="#6A2851"/>
<path d="M109.413 7.41012C109.413 8.43335 108.589 9.2627 107.573 9.2627C106.558 9.2627 105.734 8.43335 105.734 7.41012C105.734 6.38732 106.558 5.55798 107.573 5.55798C108.589 5.55798 109.413 6.38732 109.413 7.41012Z" fill="#6A2851"/>
<g opacity="0.960007">
<g opacity="0.960007">
<path opacity="0.960007" d="M104.608 7.41012C104.608 8.43335 103.784 9.2627 102.769 9.2627C101.753 9.2627 100.93 8.43335 100.93 7.41012C100.93 6.38732 101.753 5.55798 102.769 5.55798C103.784 5.55798 104.608 6.38732 104.608 7.41012Z" fill="#6A2851"/>
</g>
</g>
<g opacity="0.919998">
<g opacity="0.919998">
<path opacity="0.919998" d="M99.8032 7.41012C99.8032 8.43335 98.9797 9.2627 97.9643 9.2627C96.9485 9.2627 96.125 8.43335 96.125 7.41012C96.125 6.38732 96.9485 5.55798 97.9643 5.55798C98.9797 5.55798 99.8032 6.38732 99.8032 7.41012Z" fill="#6A2851"/>
</g>
</g>
<g opacity="0.880005">
<g opacity="0.880005">
<path opacity="0.880005" d="M94.9946 7.41012C94.9946 8.43335 94.1711 9.2627 93.1555 9.2627C92.1399 9.2627 91.3164 8.43335 91.3164 7.41012C91.3164 6.38732 92.1399 5.55798 93.1555 5.55798C94.1711 5.55798 94.9946 6.38732 94.9946 7.41012Z" fill="#6A2851"/>
</g>
</g>
<g opacity="0.839996">
<g opacity="0.839996">
<path opacity="0.839996" d="M90.1899 7.41012C90.1899 8.43335 89.3664 9.2627 88.3508 9.2627C87.3353 9.2627 86.5117 8.43335 86.5117 7.41012C86.5117 6.38732 87.3353 5.55798 88.3508 5.55798C89.3664 5.55798 90.1899 6.38732 90.1899 7.41012Z" fill="#6A2851"/>
</g>
</g>
<g opacity="0.800003">
<g opacity="0.800003">
<path opacity="0.800003" d="M85.3813 7.41012C85.3813 8.43335 84.5578 9.2627 83.5422 9.2627C82.5267 9.2627 81.7031 8.43335 81.7031 7.41012C81.7031 6.38732 82.5267 5.55798 83.5422 5.55798C84.5578 5.55798 85.3813 6.38732 85.3813 7.41012Z" fill="#6A2851"/>
</g>
</g>
<g opacity="0.759995">
<g opacity="0.759995">
<path opacity="0.759995" d="M80.5764 7.41012C80.5764 8.43335 79.7529 9.2627 78.7373 9.2627C77.7217 9.2627 76.8984 8.43335 76.8984 7.41012C76.8984 6.38732 77.7217 5.55798 78.7373 5.55798C79.7529 5.55798 80.5764 6.38732 80.5764 7.41012Z" fill="#6A2851"/>
</g>
</g>
<g opacity="0.720001">
<g opacity="0.720001">
<path opacity="0.720001" d="M75.7719 7.41012C75.7719 8.43335 74.9484 9.2627 73.9328 9.2627C72.9173 9.2627 72.0938 8.43335 72.0938 7.41012C72.0938 6.38732 72.9173 5.55798 73.9328 5.55798C74.9484 5.55798 75.7719 6.38732 75.7719 7.41012Z" fill="#6A2851"/>
</g>
</g>
<g opacity="0.679993">
<g opacity="0.679993">
<path opacity="0.679993" d="M70.9634 7.41012C70.9634 8.43335 70.1398 9.2627 69.1243 9.2627C68.1087 9.2627 67.2852 8.43335 67.2852 7.41012C67.2852 6.38732 68.1087 5.55798 69.1243 5.55798C70.1398 5.55798 70.9634 6.38732 70.9634 7.41012Z" fill="#6A2851"/>
</g>
</g>
<g opacity="0.639999">
<g opacity="0.639999">
<path opacity="0.639999" d="M66.1587 7.41012C66.1587 8.43335 65.3351 9.2627 64.3196 9.2627C63.304 9.2627 62.4805 8.43335 62.4805 7.41012C62.4805 6.38732 63.304 5.55798 64.3196 5.55798C65.3351 5.55798 66.1587 6.38732 66.1587 7.41012Z" fill="#6A2851"/>
</g>
</g>
<g opacity="0.600006">
<g opacity="0.600006">
<path opacity="0.600006" d="M61.3501 7.41012C61.3501 8.43335 60.5265 9.2627 59.5112 9.2627C58.4954 9.2627 57.6719 8.43335 57.6719 7.41012C57.6719 6.38732 58.4954 5.55798 59.5112 5.55798C60.5265 5.55798 61.3501 6.38732 61.3501 7.41012Z" fill="#6A2851"/>
</g>
</g>
<g opacity="0.559998">
<g opacity="0.559998">
<path opacity="0.559998" d="M56.5454 7.41012C56.5454 8.43335 55.7219 9.2627 54.7063 9.2627C53.6907 9.2627 52.8672 8.43335 52.8672 7.41012C52.8672 6.38732 53.6907 5.55798 54.7063 5.55798C55.7219 5.55798 56.5454 6.38732 56.5454 7.41012Z" fill="#6A2851"/>
</g>
</g>
<g opacity="0.520004">
<g opacity="0.520004">
<path opacity="0.520004" d="M51.7407 7.41012C51.7407 8.43335 50.9172 9.2627 49.9016 9.2627C48.886 9.2627 48.0625 8.43335 48.0625 7.41012C48.0625 6.38732 48.886 5.55798 49.9016 5.55798C50.9172 5.55798 51.7407 6.38732 51.7407 7.41012Z" fill="#6A2851"/>
</g>
</g>
<g opacity="0.479996">
<g opacity="0.479996">
<path opacity="0.479996" d="M46.9321 7.41012C46.9321 8.43335 46.1088 9.2627 45.093 9.2627C44.0774 9.2627 43.2539 8.43335 43.2539 7.41012C43.2539 6.38732 44.0774 5.55798 45.093 5.55798C46.1088 5.55798 46.9321 6.38732 46.9321 7.41012Z" fill="#6A2851"/>
</g>
</g>
<g opacity="0.440002">
<g opacity="0.440002">
<path opacity="0.440002" d="M42.1274 7.41012C42.1274 8.43335 41.3039 9.2627 40.2883 9.2627C39.2727 9.2627 38.4492 8.43335 38.4492 7.41012C38.4492 6.38732 39.2727 5.55798 40.2883 5.55798C41.3039 5.55798 42.1274 6.38732 42.1274 7.41012Z" fill="#6A2851"/>
</g>
</g>
<g opacity="0.399994">
<g opacity="0.399994">
<path opacity="0.399994" d="M37.3188 7.41012C37.3188 8.43335 36.4953 9.2627 35.4797 9.2627C34.4642 9.2627 33.6406 8.43335 33.6406 7.41012C33.6406 6.38732 34.4642 5.55798 35.4797 5.55798C36.4953 5.55798 37.3188 6.38732 37.3188 7.41012Z" fill="#6A2851"/>
</g>
</g>
<g opacity="0.360001">
<g opacity="0.360001">
<path opacity="0.360001" d="M32.5141 7.41012C32.5141 8.43335 31.6906 9.2627 30.675 9.2627C29.6595 9.2627 28.8359 8.43335 28.8359 7.41012C28.8359 6.38732 29.6595 5.55798 30.675 5.55798C31.6906 5.55798 32.5141 6.38732 32.5141 7.41012Z" fill="#6A2851"/>
</g>
</g>
<g opacity="0.320007">
<g opacity="0.320007">
<path opacity="0.320007" d="M27.7095 7.41012C27.7095 8.43335 26.8859 9.2627 25.8704 9.2627C24.8548 9.2627 24.0312 8.43335 24.0312 7.41012C24.0312 6.38732 24.8548 5.55798 25.8704 5.55798C26.8859 5.55798 27.7095 6.38732 27.7095 7.41012Z" fill="#6A2851"/>
</g>
</g>
<g opacity="0.279999">
<g opacity="0.279999">
<path opacity="0.279999" d="M22.9009 7.41012C22.9009 8.43335 22.0773 9.2627 21.0618 9.2627C20.0462 9.2627 19.2227 8.43335 19.2227 7.41012C19.2227 6.38732 20.0462 5.55798 21.0618 5.55798C22.0773 5.55798 22.9009 6.38732 22.9009 7.41012Z" fill="#6A2851"/>
</g>
</g>
<g opacity="0.240005">
<g opacity="0.240005">
<path opacity="0.240005" d="M18.0962 7.41012C18.0962 8.43335 17.2726 9.2627 16.2571 9.2627C15.2415 9.2627 14.418 8.43335 14.418 7.41012C14.418 6.38732 15.2415 5.55798 16.2571 5.55798C17.2726 5.55798 18.0962 6.38732 18.0962 7.41012Z" fill="#6A2851"/>
</g>
</g>
<g opacity="0.199997">
<g opacity="0.199997">
<path opacity="0.199997" d="M13.2915 7.41012C13.2915 8.43335 12.468 9.2627 11.4524 9.2627C10.4368 9.2627 9.61328 8.43335 9.61328 7.41012C9.61328 6.38732 10.4368 5.55798 11.4524 5.55798C12.468 5.55798 13.2915 6.38732 13.2915 7.41012Z" fill="#6A2851"/>
</g>
</g>
<g opacity="0.160004">
<g opacity="0.160004">
<path opacity="0.160004" d="M8.48289 7.41012C8.48289 8.43335 7.65936 9.2627 6.64379 9.2627C5.62822 9.2627 4.80469 8.43335 4.80469 7.41012C4.80469 6.38732 5.62822 5.55798 6.64379 5.55798C7.65936 5.55798 8.48289 6.38732 8.48289 7.41012Z" fill="#6A2851"/>
</g>
</g>
<g opacity="0.119995">
<g opacity="0.119995">
<path opacity="0.119995" d="M3.6782 7.41012C3.6782 8.43335 2.85467 9.2627 1.8391 9.2627C0.82353 9.2627 0 8.43335 0 7.41012C0 6.38732 0.82353 5.55798 1.8391 5.55798C2.85467 5.55798 3.6782 6.38732 3.6782 7.41012Z" fill="#6A2851"/>
</g>
</g>
<path d="M124.738 -8.79796e-05L136.999 7.41022L124.738 14.8203L127.19 7.41022L124.738 -8.79796e-05Z" fill="#6A2851"/>
<path d="M51.1776 29.0235L51.1767 29.024C51.1767 30.3859 50.0766 31.4939 48.7245 31.4939L48.7243 31.4943V31.4939H46.2723V19.1433H48.7245V19.143L48.7247 19.1433C50.0768 19.1433 51.1767 20.2512 51.1767 21.6132H51.1776L51.1767 21.6136V29.0235H51.1776ZM48.7247 16.6735L48.7245 16.6739V16.6735H46.2723V11.7332H43.8203V33.9639H48.7243V33.9634L48.7245 33.9639H48.7288C51.4313 33.9617 53.6287 31.7466 53.6287 29.024L53.6278 29.0235H53.6287V21.6136L53.6278 21.6132H53.6289C53.6289 18.8892 51.4289 16.6735 48.7247 16.6735Z" fill="#6A2851"/>
<path d="M32.1719 14.2021H35.8501V33.9629H38.3021V14.2021H41.9803V11.7322H32.1719V14.2021Z" fill="#6A2851"/>
<path d="M22.9979 27.7888L26.0413 16.3467L29.0848 27.7888H22.9979ZM24.7297 11.7332L18.8164 33.9639H21.3551L22.3408 30.2587H29.742L30.7275 33.9639H33.266L27.353 11.7332H24.7297Z" fill="#6A2851"/>
<path d="M15.6183 29.024C15.6183 30.3859 14.5182 31.4939 13.1661 31.4939L13.1659 31.4943V31.4939H10.7139V21.6132H13.1661V21.6126L13.1663 21.6132C14.5184 21.6132 15.6183 22.7216 15.6183 24.0836V29.0235H15.6192L15.6183 29.024ZM13.1663 19.1435L13.1661 19.1441V19.1435H10.7139V14.2031H16.8441V11.7332H8.26172V33.9639H13.1659V33.9634L13.1661 33.9639H13.1705C15.8729 33.9617 18.0703 31.7466 18.0703 29.024L18.0695 29.0235H18.0703V24.0838L18.0705 24.0836C18.0705 21.3592 15.8705 19.1435 13.1663 19.1435Z" fill="#6A2851"/>
<path d="M112.48 5.55798C111.464 5.55798 110.641 6.38732 110.641 7.41012C110.641 8.43335 111.464 9.2627 112.48 9.2627C113.495 9.2627 114.319 8.43335 114.319 7.41012C114.319 6.38732 113.495 5.55798 112.48 5.55798Z" fill="#6A2851"/>
<path d="M118.609 33.9639H121.062V11.7332H118.609V33.9639Z" fill="#6A2851"/>
<path d="M119.221 7.41012C119.221 6.38732 118.398 5.55798 117.382 5.55798C116.367 5.55798 115.543 6.38732 115.543 7.41012C115.543 8.43335 116.367 9.2627 117.382 9.2627C118.398 9.2627 119.221 8.43335 119.221 7.41012Z" fill="#6A2851"/>
<path d="M67.1158 11.7332H64.284L59.3292 20.3787H58.534V11.7332H56.082V33.9639H58.534V22.8484H59.4322L65.8031 33.9639H68.6346L61.5046 21.523L67.1158 11.7332Z" fill="#6A2851"/>
<path d="M122.288 5.55798C121.273 5.55798 120.449 6.38732 120.449 7.41012C120.449 8.43335 121.273 9.2627 122.288 9.2627C123.304 9.2627 124.127 8.43335 124.127 7.41012C124.127 6.38732 123.304 5.55798 122.288 5.55798Z" fill="#6A2851"/>
<path d="M78.1488 24.1897L72.0186 30.3648V11.7332H69.5664V33.9639H72.0186V33.858L78.1488 27.6829V33.9639H80.601V11.7332H78.1488V24.1897Z" fill="#6A2851"/>
<path d="M97.2839 31.4939L101.379 16.0977L105.475 31.4939H97.2839ZM102.757 11.7332H100.001L94.7454 31.4939H92.8633V33.9639H110.028V31.4939H108.013L102.757 11.7332Z" fill="#6A2851"/>
<path d="M111.254 33.9639H113.706V11.7332H111.254V33.9639Z" fill="#6A2851"/>
<path d="M9.01003 41.2363H8.21094V37.5763H10.749V38.303H9.01003V41.2363Z" fill="#6A2851"/>
<path d="M14.4796 39.4221C14.8793 39.4221 15.1128 39.1816 15.1128 38.8574C15.1128 38.4967 14.8635 38.303 14.464 38.303H13.8464V39.4221H14.4796ZM13.0469 37.5763H14.5315C15.3983 37.5763 15.9225 38.0941 15.9225 38.852C15.9225 39.699 15.2685 40.1386 14.4534 40.1386H13.8464V41.2363H13.0469V37.5763Z" fill="#6A2851"/>
<path d="M21.1666 39.406C21.1666 38.7783 20.71 38.2555 20.0662 38.2555C19.4226 38.2555 18.976 38.7681 18.976 39.406C18.976 40.0336 19.433 40.5564 20.0764 40.5564C20.7202 40.5564 21.1666 40.0438 21.1666 39.406ZM18.1406 39.406C18.1406 38.3657 18.9553 37.5131 20.0764 37.5131C21.1979 37.5131 22.0024 38.3551 22.0024 39.406C22.0024 40.4466 21.1873 41.2988 20.0662 41.2988C18.9449 41.2988 18.1406 40.4568 18.1406 39.406Z" fill="#6A2851"/>
<path d="M24.4375 37.5763H25.2991L26.2541 39.1239L27.2091 37.5763H28.0709V41.2363H27.2768V38.8468L26.2541 40.4105H26.2336L25.2215 38.8624V41.2363H24.4375V37.5763Z" fill="#6A2851"/>
<path d="M32.7651 39.7046L32.2824 38.5176L31.7995 39.7046H32.7651ZM31.9241 37.5499H32.6613L34.2186 41.2363H33.383L33.0506 40.4157H31.5145L31.1821 41.2363H30.3672L31.9241 37.5499Z" fill="#6A2851"/>
<path d="M37.8385 38.3033V38.6748C37.8385 39.4483 37.7193 40.0028 37.5115 40.5099H38.9131V38.3033H37.8385ZM36.3281 40.5099H36.6707C36.9406 39.8773 37.0701 39.2551 37.0701 38.0055V37.5766H39.7126V40.5099H40.1486L40.0446 42H39.3751V41.2367H37.1015L37.0496 42H36.3281V40.5099Z" fill="#6A2851"/>
<path d="M42.2422 39.406C42.2422 38.3657 43.0207 37.5131 44.1371 37.5131C44.8222 37.5131 45.2061 37.7747 45.5437 38.1091L45.0659 38.6635C44.7859 38.4073 44.5467 38.2555 44.1315 38.2555C43.519 38.2555 43.078 38.7681 43.078 39.406C43.078 40.0336 43.5088 40.5564 44.1315 40.5564C44.5467 40.5564 44.8014 40.3889 45.0865 40.1277L45.5956 40.6764C45.2216 41.0795 44.8064 41.2988 44.1057 41.2988C43.0363 41.2988 42.2422 40.4675 42.2422 39.406Z" fill="#6A2851"/>
<path d="M48.7292 39.511V40.5096H49.4401C49.8345 40.5096 50.037 40.3373 50.037 39.9972C50.037 39.6887 49.8345 39.511 49.4351 39.511H48.7292ZM47.9297 37.5763H48.7292V38.8208H49.5026C50.3432 38.8208 50.8315 39.2914 50.8315 40.0074C50.8315 40.7605 50.3017 41.2363 49.4507 41.2363H47.9297V37.5763Z" fill="#6A2851"/>
<path d="M53.1484 37.5763H53.9475V39.1761L55.4218 37.5763H56.3874L54.9082 39.1293L56.4549 41.2363H55.4945L54.3679 39.6781L53.9475 40.1172V41.2363H53.1484V37.5763Z" fill="#6A2851"/>
<path d="M60.9608 39.7046L60.4782 38.5176L59.9952 39.7046H60.9608ZM60.1198 37.5499H60.857L62.4143 41.2363H61.5783L61.2463 40.4157H59.7098L59.3778 41.2363H58.5625L60.1198 37.5499Z" fill="#6A2851"/>
<path d="M70.9287 39.406C70.9287 38.7783 70.4718 38.2555 69.828 38.2555C69.1844 38.2555 68.7382 38.7681 68.7382 39.406C68.7382 40.0336 69.1947 40.5564 69.8386 40.5564C70.4824 40.5564 70.9287 40.0438 70.9287 39.406ZM67.9023 39.406C67.9023 38.3657 68.717 37.5131 69.8386 37.5131C70.9597 37.5131 71.7642 38.3551 71.7642 39.406C71.7642 40.4466 70.9495 41.2988 69.828 41.2988C68.7071 41.2988 67.9023 40.4568 67.9023 39.406Z" fill="#6A2851"/>
<path d="M75.6281 39.4221C76.0277 39.4221 76.2613 39.1816 76.2613 38.8574C76.2613 38.4967 76.0119 38.303 75.6125 38.303H74.9948V39.4221H75.6281ZM74.1953 37.5763H75.68C76.5467 37.5763 77.071 38.0941 77.071 38.852C77.071 39.699 76.417 40.1386 75.6019 40.1386H74.9948V41.2363H74.1953V37.5763Z" fill="#6A2851"/>
<path d="M80.1819 41.2363H79.3828V37.5763H81.9209V38.303H80.1819V41.2363Z" fill="#6A2851"/>
<path d="M85.8432 39.7046L85.3605 38.5176L84.8776 39.7046H85.8432ZM85.0022 37.5499H85.7394L87.2967 41.2363H86.4611L86.1287 40.4157H84.5926L84.2602 41.2363H83.4453L85.0022 37.5499Z" fill="#6A2851"/>
<path d="M89.5938 37.5763H90.3933V39.0245H91.8676V37.5763H92.6666V41.2363H91.8676V39.7672H90.3933V41.2363H89.5938V37.5763Z" fill="#6A2851"/>
<path d="M95.3125 37.5763H96.112V41.2363H95.3125V37.5763Z" fill="#6A2851"/>
<path d="M101.323 38.4972C101.323 38.9521 101.058 39.198 100.737 39.3387C101.126 39.4642 101.417 39.7361 101.417 40.2016C101.417 40.8345 100.882 41.2998 100.036 41.2998C99.2731 41.2998 98.8109 41.0854 98.4219 40.6881L98.8473 40.1284C99.1433 40.4212 99.5324 40.594 100.005 40.594C100.343 40.594 100.617 40.4369 100.617 40.1544C100.617 39.8516 100.311 39.7261 99.8959 39.7261H99.4753V39.0566H99.8856C100.306 39.0566 100.534 38.9102 100.534 38.6329C100.534 38.3767 100.296 38.2253 99.9481 38.2253C99.5015 38.2253 99.2104 38.3767 98.9669 38.6279L98.546 38.1155C98.8836 37.7598 99.3198 37.5138 100.01 37.5138C100.788 37.5138 101.323 37.9271 101.323 38.4972Z" fill="#6A2851"/>
<path d="M105.871 39.7046L105.388 38.5176L104.905 39.7046H105.871ZM105.03 37.5499H105.767L107.324 41.2363H106.488L106.156 40.4157H104.62L104.288 41.2363H103.473L105.03 37.5499Z" fill="#6A2851"/>
<path d="M112.315 41.2367H109.621V37.5766H110.42V40.5099H111.853V37.5766H112.652V40.5099H113.083L112.979 42H112.315V41.2367Z" fill="#6A2851"/>
<path d="M115.449 37.5763H116.248V41.2363H115.449V37.5763Z" fill="#6A2851"/>
<path d="M120.95 39.3539V38.303H120.156C119.767 38.303 119.528 38.4808 119.528 38.8365C119.528 39.145 119.751 39.3539 120.141 39.3539H120.95ZM121.75 41.2363H120.95V40.065H120.322L119.544 41.2363H118.609L119.497 39.9292C119.035 39.7565 118.718 39.3855 118.718 38.7842C118.718 38.0259 119.237 37.5763 120.089 37.5763H121.75V41.2363Z" fill="#6A2851"/>
</g>
<defs>
<clipPath id="clip0">
<rect width="137" height="42" fill="white"/>
</clipPath>
</defs>
</svg>
