<svg xmlns="http://www.w3.org/2000/svg" fill="none" viewBox="0 0 148 69"><path fill="#004A8F" d="M52.123 40.506v.174c0 15.205-11.68 27.508-26.033 27.508C11.738 68.188 0 55.827 0 40.622V1.451h52.123v39.055z"/><path fill="#FEC10D" d="M19.698 50.778c-.058-.116-.174-.232-.232-.348.058 0 .349 0 .407-.116a.659.659 0 01-.175.464zm4.3-3.946c-.116-.29-.406-.58-.523-.87-.29.347-.58.696-.93.986 0 .058.756-.116 1.453-.116zm-5.578 4.41c.058-.174.116-.29.232-.464-.174.058-.348.116-.464 0 0 .174.116.348.232.464zm4.01-4.178c-.175.116-.291.232-.465.348a3.32 3.32 0 001.51 0c-.29-.116-.755-.232-1.046-.348zm11.68 1.625c-.059-.174-.175-.406-.291-.522a2.148 2.148 0 00-.64.29c.29.058.64.116.93.232zm-21.268-5.861c.116 0 .29.174.348.232 0-.116 0-.29.058-.406-.116.058-.29.116-.406.174zm.465 1.508a.659.659 0 00-.175.465c.116-.058.29-.116.465-.116-.174-.058-.232-.174-.29-.349zm15.398 4.991c-.174.116-.29.29-.407.464.175 0 .29.117.523.175-.116-.233-.058-.465-.116-.639zm-11.97 1.451c-.116-.058-.233-.116-.349-.232-.058.174-.058.29-.058.464a.936.936 0 01.407-.232zm-.697-1.335c-.058 0-.116-.522-.116-.522a.902.902 0 00-.35.464c.175 0 .291 0 .466.058zm17.258-6.151c.116.406.406.754.755.986-.174-.522-.349-.986-.523-1.509-.29-.58-.813-1.044-1.453-1.16.465.522.872 1.102 1.22 1.683zm-6.508.58c.755-.116 1.336-.696.523-1.45.058.522-.175 1.044-.523 1.45zm-.93.348c.755-.29 1.51-.87.639-1.74 0 .638-.232 1.276-.64 1.74zm-.814.174c.523 0 1.337-.87.581-1.508 0 .58-.174 1.102-.58 1.508zm14.237 2.786a.9.9 0 00.639.464c-.174.174-.407.29-.64.348.059.349.233.813.291 1.22.058.405-.116.87-.871.87a.97.97 0 01-.058.696c-.059.116-.233.174-.407.116-.058-.058-.116-.116-.116-.232-.059-.232 0-.464.058-.697-.523.175-.407.697-.64.929-.116.174-.348.232-.58.116-.059-.058-.117-.058-.117-.116-.232-.29-.116-.87.581-.87-.465-.175-.93-.29-1.104.29-.232-.058-.348-.174-.407-.407.059-1.044 1.57.058 1.86-.696.116-.406.058-.87-.233-1.219-.348-.348-.813-.58-1.278-.696-.93-.174-1.743-.754-2.266-1.509a18.792 18.792 0 01-.988-1.857 2.108 2.108 0 00-1.917-1.219 5.428 5.428 0 00-1.918.697l-2.847 1.45c.116.175.232.29.407.407-.35 0-.64 0-.988-.116 0 .232.058.464.116.696-.233.058-1.918.232-2.383-.058.117-.174.233-.348.291-.522 1.337 0 3.254-.638 4.01-1.741-1.163.812-2.5 1.277-3.894 1.45 0-.29 0-.58-.116-.87-.232 1.915-2.44 3.192-3.777 4.41.581 0 1.162-.522 1.685-.928.174.232.349.465.581.697-.232.058-.523 0-.755-.116-.581.348-1.162.696-1.801 1.044.29.755-.233 1.16-.814.522-.116.29-.29.87-.756.813-.58-.116-.058-.929.117-1.16-.465.115-.814.521-.814.986-.813.406-1.22-.232-.93-.697.117-.232.465-.232.872-.406-.407-.058-.813-.174-1.162.174-.29-.696.407-.696.988-.58.813.116 1.22-.29 1.685-.87l.93-1.22c.813-.522 1.336-1.392 1.452-2.379.349.117.756.175 1.162.059a2.414 2.414 0 01-.174-1.567c.116.348.407.58.756.696.232-.87.987-1.219 1.394-1.973l.233.638c.871-.522 1.568-1.276 1.917-2.205.233.29.581.522.988.522v-.522c.349.232.755.29 1.162.29l-.349-.522c1.046-.116 2.15-.232 3.196-.232 1.511-.058 2.964.174 4.358.812.698.348 2.557.929 2.906-.29.174-.696-.349-1.045-.872-1.393-.697-.348-1.394-.696-2.034-1.102.059-.116.117-.174.117-.29.987.464 2.208.87 2.963 1.682.407.523.407 1.277-.058 1.741-.64.639-1.743.58-2.557.465.465.232.814.638.988 1.16-.232 0-.523-.058-.755-.116-.117-.29-.29-.522-.465-.754l.058.29c.058.464.116.928.116 1.393 0 .638.058 1.276.116 1.915a2.055 2.055 0 001.279 1.625c.232.058.465.116.639.232s.174.232.174.406a1.63 1.63 0 00.465 1.8 2.959 2.959 0 01-.174-1.742c.116-.348-.058-.696-.407-.87-.232-.058-.465-.175-.697-.233-.814-.348-.93-1.044-1.046-1.799-.058-.406 0-.87-.058-1.276 0-.29 0-.523-.058-.813.232.29.523.523.813.755h-.639c.465.348.697.638 1.046.928-.233 0-.465-.116-.64-.232a2.459 2.459 0 00.466 1.915c.348.406.755.406 1.278.464.523.058.174.697.988.697a.747.747 0 01-.581.232zm-1.104 4.062l.348.348c0-.174.058-.29.117-.464-.059.116-.233.174-.465.116zm1.278-.58c.116-.116.116-.29.116-.464-.116.116-.232.174-.348.174l.232.29zm-25.102-8.995c-.059-.116-.35-.174-.35-.174.059.116.059.29.117.406-.058-.116.116-.174.233-.232zm22.255 9.517c0 .174 0 .348.116.522.116-.174.174-.174.349-.232-.233 0-.407-.116-.465-.29zm-5.927.174c.058.232.116.407.29.58.117-.174.175-.348.29-.522-.173.058-.406.058-.58-.058zm1.51-.638c.117.174.233.29.291.464.174-.232.116-.232.233-.464a.806.806 0 01-.523 0zm-2.498.464c-.29-.058-.407-.116-.465-.29-.058.174-.058.406-.058.58.232-.116.232-.232.523-.29zm5.985-.986c-.174.116-.174.29-.232.406.116-.058.29 0 .406 0-.058-.116-.116-.29-.174-.406zm-2.499-4.643c-1.278.522-.755 1.683.29 1.915-.638-.638-.87-.928-.29-1.915zm.407 3.656c-.465-.116-.93-.058-1.336.232.813.639.348 1.393-.581.87-.117.697-.581.93-.814.813-.581-.406-.058-.754.174-.986a.874.874 0 00-.813.58c-.581.406-1.046-.174-.872-.522.116-.174.349-.29.814-.232-.523-.407-.697-.349-1.046-.059a.455.455 0 010-.638.562.562 0 01.813 0c.582.29.93.29 1.279-.232.174-.29.348-.58.465-.87.174-.523-.117-.755-.581-.987-.581-.29-1.046-.754-1.279-1.393.058-.58.349-1.16.872-1.509.29-.29.523-.58.697-.928 1.046.116 1.569 1.45 2.034 2.553-.465.813-.174 1.045.407 1.51.29.231.29.347-.058.521-.988.349-1.802 1.161-2.034 2.206a8.29 8.29 0 011.336-1.51l.174.175c.175.116.291.232.35.406zm-17.664-4.178c.174.232.348.464.58.696a7.102 7.102 0 01-.116-1.102c-.232-.059-.464-.175-.58-.407.755.174 1.917.407 2.847 0 .058-.522-.059-1.044 0-1.625-.988.465-2.034.755-3.138.813-.175-.058-.29-.058-.407-.232-.116-.232-.174-.523-.232-.755-.059-.174-.117-.348-.233-.522-.116-.058-.581.116-.465.232.233.29.407.638.407.987a1.815 1.815 0 00-.64-.523c-.58-.232-.58.465-.464.813.29-.116.64-.058.93.058-.814.116-1.162.986-.465 1.044.29-.058.58-.116.813-.29.117.987.29 1.161 1.163.813zm11.97-8.125c-.058.639-.175 1.625.58 1.857-.232-.464-.29-1.044-.29-1.566-.116-.059-.174-.233-.29-.29zm-8.31 4.005c-.116.232-.232.464-.29.754.232.058.406 0 .639-.058a3.64 3.64 0 00-.174 1.102c.93.117 1.51-.812 1.743-1.624-.349.522-.814.928-1.337 1.16.117-.522.349-.986.64-1.45-.291.174-.582.348-.93.464.29-.58.755-1.103 1.336-1.51-.93.117-1.104.35-1.627 1.162zm2.266.928c-.755.348-1.22 1.103-1.336 1.915-.174-.29-.349-.58-.465-.928-.174.87-.058 1.218.697 1.508.059-.928.465-1.799 1.104-2.495zm1.976-3.656c-.988.464-1.627 1.509-1.627 2.611a7.484 7.484 0 001.743-1.276l-.174.638c.465-.116.872-.29 1.22-.638a3.06 3.06 0 010 1.45c.64-.928.465-1.218.233-2.32-.29.29-.465.696-.93.87l.349-1.51a9.933 9.933 0 01-2.092 2.032c.232-.696.93-1.335 1.278-1.857zm.465-2.031a2.911 2.911 0 00-1.162 1.915c1.22-.406 2.034-1.45 2.15-2.728a4.172 4.172 0 01-1.453 1.858c.116-.349.349-.697.465-1.045zm.814-3.018c.232.755-.059 1.51-.64 1.973.523-.116.872-.29.988-.812.058-.406-.058-.87-.348-1.16zm1.627-1.45a1.52 1.52 0 00-1.105 1.102c.233-.232.523-.464.872-.58.058.406.116.754.058 1.16.349-.464.465-1.16.175-1.683zm-.465 2.437c.116.696-.058 1.393-.407 1.973.988-.29.988-1.277.407-1.973zm.755 1.625a4.644 4.644 0 00-1.336 2.147c-.059-.464-.059-.987.058-1.45-.64.928-.523 1.45-.175 2.378.523-.986.93-2.089 1.453-3.075zm-4.358-.523c.581.349 1.569-.058.813-1.044.175.812-.116.986-.813 1.044zm.64-2.553c0 .174.057.348.173.348.117 0 .175-.116.175-.348 0-.232-.058-.348-.175-.348-.116.058-.174.232-.174.348zm-3.836 9.227c-.349.058-.755.174-1.046-.058.407-.348.697-.754.872-1.219a3.278 3.278 0 01.93-1.392c.348-.175.697-.29 1.045-.465-.116.232-.464.407-.639.58 1.395.523 1.918.059 2.092-1.102a1.815 1.815 0 01-1.22.929c.232-.349.407-.755.348-1.161-.522.348-1.452 1.16-2.091.812.116 0 .406-.232.523-.29.348-.29.697-.522 1.104-.696.464-.116.987-.232 1.51-.232-.464-.116-.93-.232-1.336-.465.64-.116 1.162-.464 1.569-.986 1.104-.116 1.453-.697 1.453-1.8-.175.523-.233.871-.64 1.162-.29.174-.697.29-1.046.29-.58.116-1.22.116-.987-.697v-.058c.29.058.639.058.93.058.464-.058.929-.174.813-.754-.058-.232-.29-.406-.581-.406-.349.058-.64.116-.988.174a.78.78 0 01-.349-.813c.116-.29.465-.406.698-.522-.523-.174-.698.232-.93.232-.058-.058-.058-.058-.058-.116.232-.232.523-.406.813-.522.29-.116.64-.174.93-.174.116 0 .29-.058.407-.116.058.29.29.464.58.522-.29.232-.464.58-.522.928.348-.406.697-.754 1.162-1.044.058.464-.523.696-.814.812.93.407 1.105-.29.93-.87a3.302 3.302 0 01-1.278-.406c.174-.116.348-.233.58-.29.466-.117.989-.059 1.454.115-.059.175-.059.349-.059.523a2.061 2.061 0 011.453-.813c.174.58.116 1.161-.058 1.741.232-.174.407-.29.465-.58.29.29.58.58.697.987.175.29.407.58.756.696-.581.464-1.279-.522-1.511-.929.058.755.232 1.161.93 1.393.29.697.29 1.567.93 2.263-1.163-.116-1.28-1.392-1.918-1.973-.058.639-.29 1.277-.581 1.857.406-.174.697-.522.813-.928.058.116.116.29.174.406-.116.638-.406 1.219-.813 1.741-.116-.29-.174-.638-.116-.987a1.784 1.784 0 00-.058 1.625c.348-.29.639-.58.871-.928l.29.638c0 .406.117.813.233 1.16a2.751 2.751 0 01-.58-.58c-.059.29-.175.523-.233.813-.29-.29-.581-.58-.698-.987-.174.523-.348 1.045-.639 1.51-.232.405-.58.754-.988 1.044-.174-.522-.406-.987-.639-1.509v.232c-.29.174-.523.348-.755.58.058-.29.116-.58.29-.812-.871.522-.697 1.103-.523 1.915.29-.522.64-1.045.988-1.567 0 .522-.232 1.045-.523 1.451-.348.29-.639.638-.871 1.045-.233-.233-.407-.58-.64-.87-.348.58-.406 1.334-.232 1.972a1.911 1.911 0 01-.93-.406c-.116.87-.174 1.741-.871 2.437v-.522c.116-.696.174-1.103-.465-1.567.29.58.174 1.219-.174 1.741a3.984 3.984 0 00-.117-1.857l-.523.29a4.698 4.698 0 010-1.276c.117-.349.233-.639.407-.929zm13.597-4.7c.29 0 .523.057.814.115.116-.174.232-.29.407-.406l-.175-.174a1.07 1.07 0 00-1.046.464zm-11.04-2.496c.058-.116.058-.232.174-.348a.371.371 0 01-.349 0l.175.348zm7.96-.058c.93.929 2.092 1.625 3.37 1.915.117-.058.291-.116.408-.174-.291-.058-.523-.232-.814-.29a7.492 7.492 0 01-1.918-.987 2.46 2.46 0 01-.987-1.044c-.29-.407-.175-1.045.232-1.335a.88.88 0 01.988-.058c.058-.058.116-.174.174-.232-1.627-.697-2.382 1.218-1.452 2.205zm5.172 1.915a.975.975 0 01-.523-.986c-.523.232-.523.812.116 1.218l.698.29c-.233 0-.465.058-.698.058-.406.058-.871.523-.523.987.059-.754 1.104-.29 1.453-.754.174-.349-.349-.639-.523-.813zm-16.56 8.125c-.407.058-.756.116-1.163.058.349.174.698.29 1.046.406 0-.174.058-.29.116-.464zm-3.487.87c-.232-.058-.232-.058-.29-.232a.563.563 0 00.058.522c.058-.232.116-.174.232-.29zm4.126-.29a1.654 1.654 0 000-.755l-.698.639c.233.058.465.116.698.116zm-1.976-.464l-.755-.116c.116.406.464.754.871.928v-.116c-.058-.232-.116-.464-.116-.696zm14.876-12.303c-.175.058-.35.232-.465.406-.058.29.058.638-.058.929.348-.058.523-.58.639-.87 0 .637.174 1.218.58 1.682-.057-.406-.174-.812-.29-1.219.465.58 1.046.987 1.744 1.22v-.059c-.407-.464-.814-.929-1.337-1.277.465.174 1.22.523 1.743.116a3.635 3.635 0 01-1.278-.58c-.465-.29-.756-.58-1.278-.348zm4.88-14.334v2.67h3.37V19.44h-.58v-1.277h-2.79zm5.056 25.708c.116.929.232 1.915.232 2.844h2.79l-.059-2.844H42.07zM34.4 18.57h-1.511v2.321h1.51v-2.32zm1.569-7.312v3.424h9.297v-3.424H43.58v2.031h-2.15v-2.03h-1.685v2.03h-2.15v-2.03h-1.627zM8.599 27.855h5.172v-2.727H8.716L8.6 27.855zm35.62-12.709h-7.205v2.67h2.848v-1.741h1.51v1.74h2.848v-2.669zM12.843 37.605H8.309l-.058 2.727h3.661c.233-.928.523-1.857.93-2.727zm-4.765 9.11h2.79V46.6c.057-.929.115-1.8.29-2.728H8.135l-.058 2.844zm32.715 3.889h4.997v-3.482h-4.881l-.116 3.482zm-33.47 0h5.055l-.174-3.482h-4.94v3.482h.059zm12.55-32.034h-1.51v2.321h1.51v-2.32zM44.86 37.605h-4.474c.407.87.697 1.799.93 2.727h3.602l-.058-2.727zm-3.022 3.133h-.406c.174.58.29 1.161.406 1.741v-1.74zm-.464-21.297h-.581v1.393h3.37v-2.67h-2.847l.058 1.277zM21.674 7.776V11.2h9.82V7.776h-1.743v2.09h-2.266V7.833h-1.802v2.031h-2.266v-2.03h-1.743v-.059zM13.25 19.441h-.582v1.393h3.37v-2.67H13.19l.059 1.277zm32.133 2.553l.232-.754H7.612l.233.754h37.537zM8.89 18.164v2.67h3.37V19.44h-.58v-1.277H8.89zm7.148-3.018H8.89v2.67h2.848v-1.741h1.51v1.74h2.848v-2.669h-.058zm-8.252-3.888v3.482h9.298v-3.424h-1.627v2.031h-2.15v-2.03H11.62v2.03h-2.15v-2.03H7.787v-.059zm14.818 9.634h3.719v-2.728h-3.72v2.728zm7.96-2.728H26.73v2.728h3.836v-2.728zm-1.162-3.424H27.37v1.625h-1.511V14.74h-2.034v3.018h5.578V14.74zm1.163 0h-.756v3.018h.756V14.74zm0-3.076h-3.777V13h.58v1.335h3.197v-2.67zm-7.961 6.094h.755V14.74h-.755v3.018zm3.196-4.759h.58v-1.335h-3.776v2.67H25.8v-1.335zM11.796 40.74h-.465v2.03c.116-.696.29-1.334.465-2.03zm30.041-12.477h-5.346v2.727h5.346v-2.727zm-2.382 3.075v2.728h5.288l-.058-2.728h-5.23zm5.404 5.861l-.116-2.727h-2.557v2.728h2.673zM42.244 22.4v2.322h2.266l-.058-2.322h-2.208zm-6.16 8.59v-2.728l-3.486.058a28.964 28.964 0 013.313 2.67h.174zm2.964-5.862H33.18v2.727h5.87v-2.727zm.407 2.727h5.172l-.058-2.727h-5.056v2.727h-.058zm2.79.407v2.727h2.44l-.058-2.727h-2.383zm-.408 8.936v-2.727h-3.08c.524.87 1.047 1.799 1.453 2.728h1.627zm3.196 6.268l-.058-2.728h-2.73v2.728h2.788zM36.085 22.4H30.39v2.322h5.695V22.4zm-13.597 5.862c1.336-.697 2.673-1.277 4.125-1.683 4.707 1.799 9.007 4.874 11.68 9.285 1.86 3.308 2.847 7.08 2.963 10.852h.64c-.059-.987-.117-1.973-.233-2.902-.813-5.629-3.544-10.91-8.135-14.334-2.15-1.567-4.474-2.785-6.973-3.598-4.532 1.567-8.6 4.178-11.389 8.183l-.29.406a24.633 24.633 0 00-3.603 12.245h.697c.233-4.41 1.337-8.763 3.893-12.42 1.744-2.494 4.01-4.526 6.625-6.034zm15.98 5.803h.58v-2.728h-2.73c.057.058 1.22 1.451 2.15 2.728zm-1.976-9.343h5.345V22.4h-5.345v2.322zm-19.699 6.615H14.12v2.728h.523c.64-.929 1.395-1.857 2.15-2.728zM8.31 37.198h2.615v-2.727H8.367l-.058 2.728zm8.368-8.936H11.33v2.727h5.346v-2.727zm-8.193 2.727h2.44v-2.727H8.542l-.058 2.727zm8.193-8.589H11.33v2.322h5.346V22.4zm-5.753 18.338h-2.73l-.059 2.728h2.79v-2.728zm2.79-9.4h-5.23l-.058 2.727h5.345v-2.728h-.058zm9.064-8.938h-5.694v2.322h5.694V22.4zm-2.208 5.862h-3.486v2.727h.116a16.924 16.924 0 013.37-2.727zm2.615-3.54h6.799V22.4h-6.8v2.322zM14.41 34.47h-3.08v2.728h1.627c.465-.929.93-1.857 1.453-2.728zm12.144-9.053c1.86.638 3.66 1.45 5.346 2.437h.872v-2.727H20.396v2.727h.813a29.645 29.645 0 015.346-2.437zM8.716 22.4l-.058 2.322h2.266V22.4H8.716zm11.273 2.728H14.12v2.727h5.869v-2.727z"/><path fill="#000" d="M72.983 8.128c0 10.271-1.336 13.115-3.719 13.115-.174 0-.407 0-.58-.058v-1.567h.173c2.15 0 2.383-3.83 2.383-13.115h7.38v14.74h-1.686V8.128h-3.95zm10.227 7.66h1.801c1.162 0 1.802.87 1.802 1.973s-.465 2.031-1.802 2.031h-1.8v-4.004zm5.23 2.147c.116-1.857-1.337-3.424-3.196-3.54h-1.976V9.927H81.7v11.316h3.487c1.801 0 3.254-1.509 3.254-3.308zm5.288-1.973c1.046 0 1.627.87 1.627 1.915 0 1.335-.64 1.915-1.686 1.915h-1.917v-3.83h1.975zm-.233-4.7c.814-.059 1.51.464 1.569 1.276v.348c0 .87-.697 1.625-1.569 1.625h-1.743v-3.308l1.743.058zm-3.312 9.98h3.37c1.57 0 3.487-1.102 3.487-3.075 0-1.799-1.046-2.67-2.092-2.901 1.104-.407 1.86-1.451 1.801-2.612 0-1.509-1.336-2.67-3.196-2.67h-3.312v11.259h-.058zM100.817 9.87h-1.57v11.374h1.57V9.869zm.174-2.38a.979.979 0 00-.988-.986.917.917 0 00-.93.928v.058c0 .523.407.987.93.987a.979.979 0 00.988-.987zm6.392 8.473c1.046 0 1.627.87 1.627 1.915 0 1.335-.639 1.915-1.685 1.915h-1.918v-3.83h1.976zm-.175-4.7c.814-.059 1.511.464 1.569 1.276v.348c0 .87-.697 1.625-1.569 1.625h-1.743v-3.308h1.743v.058zm-3.312 9.98h3.371c1.569 0 3.486-1.102 3.486-3.075 0-1.799-1.046-2.67-2.092-2.901 1.104-.407 1.86-1.451 1.802-2.612 0-1.509-1.337-2.67-3.196-2.67h-3.313v11.259h-.058zm15.573-8.123c-.29-1.916-1.336-3.424-3.486-3.424-3.022 0-3.661 2.901-3.661 5.919 0 2.901.639 5.861 3.661 5.861 2.15 0 3.196-1.509 3.486-3.424 0 0-.871-.232-1.569-.406-.232 1.335-.697 2.38-1.917 2.38-1.802 0-2.092-2.264-2.092-4.527 0-2.263.29-4.41 2.092-4.41 1.22 0 1.685 1.044 1.917 2.379l1.569-.349zm3.487 2.669h1.801c1.162 0 1.801.87 1.801 1.973s-.465 2.031-1.801 2.031h-1.801v-4.004zm5.171 2.147c.116-1.857-1.336-3.424-3.196-3.54h-1.975V9.927h-1.569v11.316h3.486c1.802 0 3.254-1.45 3.254-3.308 0 .058 0 0 0 0zm1.802 3.308h1.568V16.02h1.221c.406 0 .813.29 1.104.987l.871 2.495c.175 1.044 1.046 1.799 2.092 1.799.233 0 .407 0 .639-.058V19.85c-.116.058-.174.058-.29.058-.581-.058-.988-.522-1.104-1.044l-.697-2.206c-.233-.696-.814-1.218-1.569-1.392.639-.233 1.104-.697 1.278-1.335l.639-1.625c.233-.638.581-.929 1.104-.929h.407V9.985c-.174-.058-.407-.058-.581-.058-.93 0-1.801.58-2.15 1.45l-.988 2.38c-.174.522-.639.87-1.22.928h-.814v-4.7h-1.569l.059 11.258zm14.178-4.585c0 1.8-.523 3.366-2.208 3.366-1.221 0-1.627-.87-1.627-2.03 0-2.438 1.627-2.496 3.835-2.496v1.16zm-2.557 4.759c1.22 0 1.918-.29 2.789-1.74.407 1.16.988 1.624 1.802 1.624.174 0 .406 0 .581-.058V19.85c-.117 0-.175.058-.291.058-.581 0-.697-.406-.697-1.102v-5.397c0-2.902-1.453-3.714-3.312-3.714-1.744 0-2.615.87-3.254 2.495l1.452.406c.291-.812.698-1.509 1.744-1.509 1.162 0 1.743.407 1.743 2.264v.87h-1.22c-2.848 0-4.242 1.393-4.242 3.888 0 1.915.988 3.308 2.905 3.308zm-61.826 7.196h-1.57l-3.37 6.732-3.37-6.732h-1.569v11.316h1.57V36.1c0-.928-.117-3.83-.233-4.642l3.021 6.035h1.046l3.022-6.035c-.116.87-.232 3.714-.232 4.642v3.83h1.568V28.613h.117zm4.474 0h-1.569v11.316h1.569V28.613zm.116-2.437a.979.979 0 00-.988-.987c-.523 0-.988.464-.988.987 0 .522.465.986.988.986a.979.979 0 00.988-.986zm9.355 5.629c-.29-1.915-1.336-3.482-3.486-3.482-3.022 0-3.66 2.901-3.66 5.92 0 2.9.638 5.86 3.66 5.86 2.15 0 3.196-1.508 3.486-3.424 0 0-.871-.232-1.568-.406-.233 1.335-.698 2.38-1.918 2.38-1.801 0-2.092-2.264-2.092-4.527 0-2.263.29-4.41 2.092-4.41 1.22 0 1.685 1.044 1.917 2.379l1.57-.29zm3.603 2.67h1.801c1.163 0 1.802.87 1.802 1.972s-.465 2.031-1.802 2.031h-1.8v-4.004zm5.172 2.146c.116-1.857-1.337-3.424-3.196-3.54h-1.976v-4.468h-1.569v11.316h3.487c1.801 0 3.254-1.45 3.254-3.308 0 .058 0 0 0 0zm1.627 3.308h1.569v-5.223h1.22c.407 0 .813.29 1.104.987l.872 2.495c.174 1.045 1.045 1.8 2.091 1.8.233 0 .407 0 .64-.059v-1.393c-.117.058-.175.058-.291.058-.581-.116-.988-.522-1.162-1.044l-.697-2.205c-.291-.697-.872-1.219-1.569-1.393.639-.232 1.104-.696 1.278-1.335l.639-1.625c.233-.638.581-.928 1.104-.928h.407V28.67c-.174-.058-.407-.058-.581-.058-.93 0-1.801.58-2.15 1.45l-.988 2.38c-.174.522-.639.87-1.22.929h-.814V28.67h-1.569v11.258h.117zm14.178-4.584c0 1.799-.465 3.366-2.208 3.366-1.22 0-1.627-.87-1.627-2.032 0-2.437 1.627-2.495 3.835-2.495v1.16zm-2.557 4.816c1.22 0 1.918-.29 2.731-1.74.407 1.16.988 1.624 1.802 1.624.174 0 .406 0 .581-.058v-1.393c-.117 0-.175.058-.291.058-.581 0-.697-.406-.697-1.102v-5.397c0-2.902-1.453-3.714-3.312-3.714-1.744 0-2.615.87-3.254 2.495l1.452.406c.291-.812.698-1.508 1.744-1.508 1.162 0 1.743.406 1.743 2.263v.87h-1.22c-2.848 0-4.242 1.393-4.242 3.888.058 1.916 1.046 3.308 2.963 3.308zM71.414 52.986c0-2.147.29-4.468 2.15-4.468s2.266 2.38 2.266 4.468c0 2.09-.348 4.41-2.266 4.41-1.917 0-2.15-2.204-2.15-4.41zm-1.569 8.937h1.57v-4.468a3.032 3.032 0 002.382 1.393c2.963 0 3.66-2.902 3.66-5.862s-.697-5.919-3.66-5.919c-1.104 0-1.86.697-2.499 1.567l-.407-1.335h-1.046v14.624zm14.701-7.892c0 1.799-.522 3.366-2.208 3.366-1.22 0-1.627-.87-1.627-2.031 0-2.438 1.627-2.496 3.835-2.496v1.161zm-2.556 4.817c1.22 0 1.917-.29 2.73-1.741.408 1.16.989 1.625 1.802 1.625.174 0 .407 0 .581-.058v-1.451c-.116 0-.174.058-.29.058-.581 0-.698-.406-.698-1.103v-5.397c0-2.901-1.452-3.714-3.312-3.714-1.86 0-2.615.87-3.254 2.495l1.453.407c.29-.813.697-1.51 1.743-1.51 1.162 0 1.743.407 1.743 2.264v.87h-1.22c-2.847 0-4.242 1.393-4.242 3.889.058 1.973 1.046 3.366 2.964 3.366zm8.425-1.625c1.046-1.741 1.337-3.772 1.511-8.473h2.847v8.473h-4.358zm0-9.924c0 5.978-.406 8.763-1.685 9.924l-.639.116v3.83h1.22l.233-2.553h6.392l.232 2.553h1.22v-3.946h-1.046v-9.924h-5.927zm13.83 6.732c0 1.799-.465 3.366-2.208 3.366-1.22 0-1.627-.87-1.627-2.031 0-2.438 1.627-2.496 3.835-2.496v1.161zm-2.615 4.817c1.22 0 1.918-.29 2.789-1.741.407 1.16.988 1.625 1.802 1.625.174 0 .406 0 .581-.058v-1.451c-.116 0-.175.058-.291.058-.581 0-.697-.406-.697-1.103v-5.397c0-2.901-1.453-3.714-3.312-3.714-1.743 0-2.615.87-3.254 2.495l1.452.407c.291-.813.698-1.51 1.744-1.51 1.162 0 1.743.407 1.743 2.264v.87h-1.22c-2.848 0-4.242 1.393-4.242 3.889.058 1.973 1.046 3.366 2.905 3.366z"/></svg>