<svg width="792" height="553" viewBox="0 0 792 553" fill="none" xmlns="http://www.w3.org/2000/svg">
<path opacity="0.1" d="M67.8003 548.933H759.556C816.901 501.06 787.378 357.049 739.51 327.839C687.966 296.411 769.822 187.718 690.396 152.43C638.548 129.39 556.084 154.496 567.171 92.8858C582.54 7.41498 402.759 -14.4694 270.3 8.57C127.12 33.4635 257.878 155.925 100.391 180.575C19.4154 193.281 35.0577 301.821 42.6207 324.222C49.2118 343.766 92.7066 374.739 32.233 417.413C-56.4272 479.997 65.7046 547.778 67.8003 548.933Z" fill="#9BC1F9"/>
<path d="M682.257 183.372C682.257 183.372 670.928 208.052 663.304 218.478C655.68 228.903 648.421 238.873 642.347 267.778C636.272 296.715 637.305 299.602 635.634 307.079C633.963 314.556 623.15 344.83 623.09 350.362C623.029 355.924 601.19 387.504 595.602 402.307C590.013 417.109 580.111 438.234 580.658 448.963L583.149 448.325C583.149 448.325 585.184 423.249 602.436 397.9C619.688 372.55 617.228 367.778 636.819 354.739C656.409 341.73 669.075 305.742 669.075 305.742C669.075 305.742 689 266.684 688.089 246.38C687.178 226.077 692.432 207.779 682.257 183.372Z" fill="#256653"/>
<path d="M655.742 145.408C655.742 145.408 655.074 161.609 649.85 171.244C644.626 180.879 640.13 186.715 639.189 197.14C638.247 207.566 634.967 234.405 620.388 247.505C605.808 260.605 603.956 299.906 592.869 311.79C581.783 323.675 580.325 332.216 582.39 352.58C584.425 372.976 591.381 401.213 575.313 438.082L571.669 428.902C571.669 428.902 583.18 398.568 580.386 380.817C577.591 363.067 567.902 336.228 571.456 323.371C575.01 310.514 561.797 307.991 569.755 288.508C577.713 269.055 574.433 262.277 585.245 245.438C585.245 245.438 586.369 244.648 589.194 230.423C592.049 216.198 614.951 190.089 625.521 181.183C636.091 172.277 651.308 158.022 655.742 145.408Z" fill="#256653"/>
<path d="M612.703 225.651C612.703 225.651 600.067 247.323 599.885 261.274C599.703 275.225 601.221 286.563 594.813 305.681C588.404 324.769 601.13 336.866 597.455 347.413C593.78 357.961 593.507 370.453 593.628 379.906C593.75 389.389 579.14 420.726 576.923 436.593C574.705 452.459 577.53 452.52 577.53 452.52C577.53 452.52 579.96 431.577 583.301 424.647C586.672 417.717 596.878 393.827 599.247 384.587C601.647 375.347 608.116 369.42 613.675 353.766C619.263 338.113 627.191 324.952 626.583 302.733C626.006 280.514 634.936 257.079 612.703 225.651Z" fill="#3C8F7C"/>
<path d="M585.912 437.96C585.912 437.96 591.805 410.453 616.68 407.717C641.556 404.982 656.166 409.906 673.752 389.784C691.338 369.662 701.544 337.808 707.133 332.307C707.133 332.307 698.294 327.748 683.623 341.486C668.953 355.225 658.626 365.65 650.122 373.644C641.617 381.638 634.722 376.441 625.762 381.699C618.229 386.106 608.51 398.872 604.227 405.559C602.83 407.717 601.19 409.723 599.307 411.486C597.576 413.067 595.541 415.042 594.204 416.471C591.562 419.328 583.968 438.051 583.968 438.051L585.912 437.96Z" fill="#3C8F7C"/>
<path d="M577.165 433.097C577.165 433.097 585.943 399.45 580.051 383.006C574.189 366.532 555.782 354.374 556.542 344.009C557.271 333.675 569.086 305.711 559.457 284.921C559.457 284.921 555.813 303.493 552.198 307.596C548.584 311.73 523.829 328.386 528.233 350.362C532.607 372.337 556.693 377.504 562.616 383.979C568.539 390.453 576.558 390.453 576.588 394.738C576.649 399.055 578.198 414.708 575.555 430.149L577.165 433.097Z" fill="#3C8F7C"/>
<path d="M586.733 410.605L599.034 375.103C599.034 375.103 606.263 346.562 610.455 322.733C614.646 298.933 612.672 225.651 612.672 225.651C612.672 225.651 600.037 247.323 599.854 261.274C599.672 275.225 601.191 286.563 594.782 305.681C588.373 324.769 601.1 336.866 597.425 347.413C593.749 357.96 593.476 370.453 593.597 379.906C593.719 389.359 579.109 420.726 576.892 436.592C575.677 445.285 575.981 449.237 576.497 451.03C574.523 437.139 586.733 410.605 586.733 410.605Z" fill="#327F6B"/>
<path d="M647.419 389.45C636.424 391.638 626.614 390.909 613.553 400.605C600.523 410.331 592.838 420.696 592.838 420.696C592.838 420.696 586.976 431.182 584.546 436.714C584.182 437.565 584 438.051 584 438.051L585.913 437.96C585.913 437.96 591.806 410.453 616.681 407.717C641.557 404.982 656.167 409.906 673.753 389.784C691.339 369.663 701.545 337.809 707.134 332.307C707.134 332.307 688.454 346.866 676.882 359.723C665.37 372.611 658.384 387.261 647.419 389.45Z" fill="#327F6B"/>
<path d="M552.198 307.626C548.584 311.76 523.829 328.417 528.233 350.392C532.607 372.368 556.693 377.535 562.616 384.009C568.539 390.483 576.558 390.483 576.588 394.769C576.649 399.085 578.198 414.738 575.555 430.179L576.254 431.456C577.56 425.437 579.352 416.258 579.929 409.267C580.871 397.96 579.048 393.249 575.403 384.1C571.759 374.921 549.191 356.258 543.511 346.441C537.862 336.623 554.415 320.21 558.091 312.277C561.766 304.344 559.427 284.921 559.427 284.921C559.427 284.921 555.813 303.493 552.198 307.626Z" fill="#327F6B"/>
<path d="M610.91 416.866L614.768 407.504C617.775 400.635 625.459 397.352 631.929 400.179C648.239 407.292 655.316 427.14 647.753 444.465L642.225 457.139C639.795 462.702 640.646 468.811 643.926 473.097C646.903 477.018 647.389 482.459 645.323 487.17L642.407 493.857C639.249 501.091 633.113 506.44 625.824 508.659C621.571 509.936 617.805 513.158 615.831 517.717L611.7 527.17C607.144 537.626 595.45 542.61 585.64 538.325L580.02 535.863C570.179 531.577 565.897 519.601 570.453 509.145C577.834 496.653 577.256 487.322 574.614 480.969C570.757 471.668 570.817 460.939 574.978 451.425L575.556 450.088C579.929 440.027 588.404 432.519 598.518 429.298C602.983 427.869 607.63 424.404 610.91 416.866Z" fill="#50BFA5"/>
<path d="M541.294 548.932C549.222 538.659 592.595 483.674 620.873 474.495C652.097 464.374 622.665 504.556 622.665 504.556C622.665 504.556 678.066 443.948 698.386 449.389C717.035 454.404 698.386 491.972 698.386 491.972C698.386 491.972 719.374 471.152 744.827 471.152C769.612 471.152 727.514 544.951 725.236 548.902H541.294V548.932Z" fill="#96D9C9"/>
<path d="M708.226 429.936C685.598 465.316 669.075 504.616 659.629 546.349L658.08 545.923C667.496 505.042 683.897 465.832 706.495 430.483C711.75 422.276 717.43 412.519 727.24 409.328C727.422 409.267 727.514 409.541 727.331 409.632C718.371 413.036 713.147 422.276 708.226 429.936Z" fill="#3C8F7C"/>
<path d="M665.097 547.838C690.398 513.431 721.136 481.607 757.705 453.948C758.07 453.674 758.556 454.313 758.191 454.586C723.505 481.243 692.828 512.762 667.01 548.355L665.097 547.838Z" fill="#3C8F7C"/>
<path d="M710.323 407.991C710.9 408.842 713.148 411.091 713.786 414.009C714.667 416.805 713.968 420.301 713.907 420.149C713.725 420.21 716.489 417.9 717.339 414.191C718.463 410.635 717.674 405.711 716.276 404.1C713.877 400.422 709.716 400.027 708.896 401.82C708.045 403.644 709.139 406.045 710.323 407.991Z" fill="#3C8F7C"/>
<path d="M715.728 439.571C714.878 438.963 712.691 436.684 709.775 435.984C707.011 435.042 703.518 435.681 703.64 435.741C703.579 435.893 705.948 433.218 709.654 432.428C713.207 431.395 718.128 432.276 719.738 433.674C723.382 436.136 723.656 440.331 721.864 441.091C720.041 441.942 717.642 440.787 715.728 439.571Z" fill="#3C8F7C"/>
<path d="M707.559 453.431C706.708 452.823 704.522 450.544 701.606 449.845C698.842 448.902 695.349 449.541 695.47 449.601C695.41 449.753 697.779 447.079 701.484 446.288C705.038 445.255 709.958 446.136 711.568 447.535C715.213 449.997 715.486 454.191 713.694 454.951C711.872 455.772 709.472 454.617 707.559 453.431Z" fill="#3C8F7C"/>
<path d="M736.686 485.528C735.836 484.921 733.649 482.641 730.733 481.942C727.969 481 724.476 481.638 724.598 481.699C724.537 481.851 726.906 479.176 730.612 478.386C734.165 477.352 739.086 478.234 740.696 479.632C744.34 482.094 744.614 486.288 742.822 487.048C741.03 487.869 738.63 486.744 736.686 485.528Z" fill="#3C8F7C"/>
<path d="M751.6 472.398C750.749 471.79 748.562 469.51 745.646 468.811C742.882 467.869 739.389 468.507 739.511 468.568C739.45 468.72 741.819 466.045 745.525 465.255C749.079 464.222 753.999 465.103 755.609 466.501C759.254 468.963 759.527 473.158 757.735 473.917C755.913 474.738 753.513 473.614 751.6 472.398Z" fill="#3C8F7C"/>
<path d="M698.872 423.675C699.57 424.434 702.152 426.288 703.246 429.085C704.552 431.699 704.43 435.255 704.339 435.134C704.187 435.225 706.526 432.489 706.799 428.72C707.346 425.042 705.797 420.301 704.157 418.902C701.211 415.65 697.049 415.924 696.533 417.808C695.956 419.723 697.414 421.912 698.872 423.675Z" fill="#3C8F7C"/>
<path d="M686.874 439.358C687.876 439.906 691.43 440.878 693.192 443.522C695.196 445.863 695.47 449.905 695.318 449.814C695.136 449.997 697.839 445.924 697.717 441.577C697.96 437.231 695.379 432.611 693.131 431.76C688.939 429.389 683.563 431.517 683.108 433.827C682.591 436.197 684.748 438.051 686.874 439.358Z" fill="#3C8F7C"/>
<path d="M674.209 463.127C675.302 463.492 678.947 463.857 681.134 466.167C683.503 468.142 684.445 472.063 684.293 472.003C684.141 472.215 686.115 467.747 685.265 463.492C684.779 459.176 681.468 455.042 679.099 454.586C674.543 452.945 669.622 455.954 669.562 458.325C669.47 460.726 671.9 462.185 674.209 463.127Z" fill="#3C8F7C"/>
<path d="M711.628 479.692C712.418 480.179 715.243 481.182 716.549 483.431C718.037 485.468 718.037 488.75 717.916 488.689C717.764 488.811 720.194 485.68 720.346 482.124C720.801 478.598 718.979 474.708 717.156 473.887C713.876 471.699 709.381 473.127 708.895 475.012C708.348 476.866 709.988 478.507 711.628 479.692Z" fill="#3C8F7C"/>
<path d="M731.129 413.583C730.643 413.188 729.458 411.76 727.757 411.213C726.147 410.544 724.051 410.757 724.143 410.817C724.082 410.909 725.631 409.419 727.848 409.115C730.005 408.659 732.86 409.389 733.741 410.301C735.776 411.912 735.776 414.404 734.682 414.769C733.558 415.164 732.222 414.374 731.129 413.583Z" fill="#3C8F7C"/>
<path d="M726.573 403.462C726.604 404.07 726.998 405.893 726.391 407.596C725.935 409.267 724.508 410.817 724.508 410.726C724.417 410.696 726.512 410.422 728.122 408.842C729.793 407.413 730.977 404.708 730.795 403.431C730.765 400.817 728.79 399.328 727.818 399.966C726.816 400.574 726.604 402.124 726.573 403.462Z" fill="#3C8F7C"/>
<path d="M762.322 459.024C761.836 458.629 760.652 457.2 758.951 456.653C757.341 455.984 755.245 456.197 755.336 456.258C755.276 456.349 756.825 454.86 759.042 454.556C761.198 454.1 764.053 454.829 764.934 455.741C766.969 457.352 766.969 459.845 765.876 460.209C764.782 460.605 763.416 459.814 762.322 459.024Z" fill="#3C8F7C"/>
<path d="M756.854 448.842C756.915 449.449 757.492 451.243 757.036 452.975C756.733 454.677 755.427 456.319 755.396 456.228C755.275 456.228 757.371 455.741 758.828 454.039C760.378 452.489 761.319 449.662 761.046 448.446C760.803 445.863 758.707 444.495 757.796 445.225C756.854 445.924 756.763 447.474 756.854 448.842Z" fill="#3C8F7C"/>
<path d="M753.028 514.677C729.914 517.2 708.379 527.413 687.664 537.382C673.693 544.1 674.391 546.014 671.536 547.017C671.08 547.169 670.625 546.683 670.838 546.227C671.931 544.069 674.816 542.58 676.791 541.334C679.129 539.875 681.559 538.598 684.02 537.413C689.305 534.86 694.711 532.55 700.087 530.209C711.021 525.468 722.138 520.969 733.68 517.96C740.028 516.288 746.467 515.103 752.998 514.525C753.149 514.465 753.149 514.647 753.028 514.677Z" fill="#3C8F7C"/>
<path d="M732.192 507.504C732.344 508.446 733.316 511.212 732.708 513.918C732.344 516.592 730.4 519.237 730.37 519.115C730.187 519.115 733.407 518.234 735.594 515.468C737.933 512.945 739.209 508.507 738.692 506.592C738.145 502.55 734.804 500.604 733.407 501.79C732.04 502.945 731.98 505.407 732.192 507.504Z" fill="#3C8F7C"/>
<path d="M711.841 514.799C711.993 515.741 712.965 518.507 712.357 521.212C711.993 523.887 710.049 526.531 710.019 526.41C709.836 526.41 713.086 525.528 715.243 522.762C717.581 520.24 718.857 515.802 718.341 513.887C717.794 509.845 714.453 507.899 713.056 509.085C711.659 510.24 711.628 512.702 711.841 514.799Z" fill="#3C8F7C"/>
<path d="M691.158 524.009C691.31 524.951 692.282 527.717 691.675 530.422C691.31 533.097 689.366 535.741 689.336 535.62C689.154 535.62 692.404 534.738 694.56 531.972C696.899 529.449 698.175 525.012 697.659 523.097C697.112 519.054 693.771 517.109 692.373 518.294C690.976 519.48 690.946 521.911 691.158 524.009Z" fill="#3C8F7C"/>
<path d="M738.266 526.531C737.841 525.741 737.051 523.157 735.077 521.516C733.315 519.753 730.399 518.872 730.46 518.993C730.338 519.085 733.193 517.93 736.352 518.75C739.481 519.328 742.913 521.851 743.581 523.553C745.434 526.835 744.037 530.148 742.366 530.057C740.696 529.996 739.299 528.203 738.266 526.531Z" fill="#3C8F7C"/>
<path d="M717.097 534.039C716.672 533.249 715.882 530.665 713.908 529.024C712.146 527.261 709.231 526.379 709.291 526.501C709.17 526.592 712.025 525.437 715.184 526.258C718.312 526.835 721.744 529.358 722.413 531.06C724.265 534.343 722.868 537.656 721.198 537.565C719.527 537.504 718.13 535.711 717.097 534.039Z" fill="#3C8F7C"/>
<path d="M754.424 518.811C754.06 518.385 753.209 516.866 751.752 516.075C750.415 515.194 748.471 515.042 748.502 515.103C748.441 515.194 750.081 514.069 752.177 514.161C754.212 514.1 756.702 515.255 757.371 516.227C758.95 518.051 758.525 520.3 757.462 520.483C756.368 520.665 755.275 519.723 754.424 518.811Z" fill="#3C8F7C"/>
<path d="M751.964 508.841C751.873 509.419 751.964 511.151 751.114 512.58C750.446 514.039 748.866 515.194 748.866 515.103C748.775 515.072 750.749 515.164 752.481 513.978C754.242 512.945 755.761 510.696 755.822 509.51C756.217 507.139 754.668 505.437 753.696 505.832C752.663 506.258 752.207 507.626 751.964 508.841Z" fill="#3C8F7C"/>
<path d="M156.705 373.249C129.551 349.024 115.579 314.222 108.654 289.298C101.122 262.247 100.028 240.636 100.028 240.423L98.5398 240.332C98.5398 240.545 99.6636 262.307 107.227 289.541C114.212 314.708 128.336 349.875 155.824 374.404L156.705 373.249Z" fill="#3C8F7C"/>
<path d="M103.126 234.162C104.462 240.393 103.339 246.289 100.484 250.514C96.0187 247.231 92.4953 241.943 91.1589 235.712C89.8225 229.481 90.9463 223.584 93.8014 219.359C98.2663 222.642 101.79 227.931 103.126 234.162Z" fill="#3C8F7C"/>
<path d="M94.8038 251.912C99.4814 256.259 102.215 262.003 102.762 267.505C97.6286 267.748 91.9791 265.651 87.3016 261.304C82.6241 256.958 79.8905 251.213 79.3438 245.712C84.4465 245.468 90.096 247.535 94.8038 251.912Z" fill="#3C8F7C"/>
<path d="M92.5866 270.544C98.3879 272.368 103.157 276.411 105.981 281.335C101.759 284.04 96.1099 284.83 90.2782 283.006C84.4769 281.183 79.7083 277.14 76.8835 272.216C81.1358 269.511 86.7853 268.721 92.5866 270.544Z" fill="#3C8F7C"/>
<path d="M101.547 292.976C106.164 294.435 109.839 298.143 111.935 302.854C108.442 305.803 103.855 306.897 99.2688 305.438C94.6521 303.979 90.9769 300.271 88.8811 295.559C92.3741 292.642 96.9301 291.517 101.547 292.976Z" fill="#3C8F7C"/>
<path d="M109.413 260.97C113.028 257.323 117.827 255.772 122.474 256.259C122.717 261.183 121.046 266.168 117.402 269.815C113.787 273.462 108.988 275.012 104.341 274.526C104.098 269.602 105.799 264.617 109.413 260.97Z" fill="#3C8F7C"/>
<path d="M113.604 277.049C117.219 273.401 122.018 271.851 126.665 272.338C126.908 277.262 125.237 282.246 121.593 285.894C117.978 289.541 113.179 291.091 108.532 290.605C108.289 285.681 109.99 280.696 113.604 277.049Z" fill="#3C8F7C"/>
<path d="M140.334 406.137C115.245 402.489 93.8015 387.596 80.1942 375.772C65.4327 362.945 56.5332 350.787 56.4421 350.666L55.5613 351.183C55.6524 351.304 64.643 363.523 79.4956 376.471C93.2244 388.416 114.911 403.432 140.303 407.14L140.334 406.137Z" fill="#50BFA5"/>
<path d="M55.8652 345.833C59.024 348.933 60.6338 352.793 60.6034 356.35C56.746 356.137 52.6759 354.435 49.4867 351.334C46.3279 348.234 44.7181 344.374 44.7485 340.818C48.6059 341.03 52.6759 342.733 55.8652 345.833Z" fill="#50BFA5"/>
<path d="M57.8091 359.359C62.2133 360.088 65.9796 362.368 68.4095 365.377C65.524 367.474 61.4236 368.447 57.0498 367.717C52.6457 366.988 48.8793 364.708 46.4495 361.699C49.3349 359.571 53.4354 358.629 57.8091 359.359Z" fill="#50BFA5"/>
<path d="M63.7017 371.03C67.7718 369.845 72.1152 370.392 75.6385 372.155C74.211 375.346 71.2344 377.991 67.1643 379.146C63.0943 380.331 58.7509 379.784 55.2275 378.021C56.6247 374.83 59.6013 372.216 63.7017 371.03Z" fill="#50BFA5"/>
<path d="M77.4905 380.635C80.7405 379.723 84.2941 380.453 87.3011 382.398C86.3899 385.438 84.1727 387.839 80.9227 388.781C77.6727 389.693 74.119 388.963 71.1121 387.018C72.0233 383.948 74.2709 381.547 77.4905 380.635Z" fill="#50BFA5"/>
<path d="M69.7755 358.994C70.474 355.468 72.6913 352.733 75.5768 351.243C77.6118 354.009 78.5534 357.565 77.8244 361.061C77.1258 364.587 74.9086 367.322 72.0231 368.811C70.0184 366.076 69.0769 362.52 69.7755 358.994Z" fill="#50BFA5"/>
<path d="M78.4023 366.745C79.1009 363.219 81.3181 360.483 84.2036 358.994C86.2387 361.76 87.1802 365.316 86.4513 368.811C85.7527 372.337 83.5354 375.073 80.6499 376.562C78.6149 373.796 77.7037 370.24 78.4023 366.745Z" fill="#50BFA5"/>
<path d="M155.46 481.243C126.545 492.246 94.6829 486.44 73.057 479.632C49.5783 472.246 32.7514 462.124 32.5995 462.003L31.9617 463.219C32.1439 463.31 49.0923 473.522 72.7229 480.969C94.5614 487.839 126.727 493.705 156.007 482.58L155.46 481.243Z" fill="#96D9C9"/>
<path d="M29.0155 456.136C34.2701 458.173 38.3097 462.155 40.4359 466.805C36.1836 468.963 30.8075 469.297 25.5833 467.261C20.3287 465.224 16.289 461.243 14.1628 456.592C18.3848 454.404 23.7609 454.07 29.0155 456.136Z" fill="#96D9C9"/>
<path d="M39.2812 472.398C44.4143 470.604 49.8207 471.182 54.1945 473.553C52.3721 478.112 48.6058 481.911 43.4727 483.705C38.3396 485.498 32.9331 484.92 28.5593 482.55C30.3817 477.99 34.148 474.191 39.2812 472.398Z" fill="#96D9C9"/>
<path d="M52.5851 483.857C56.2299 479.784 61.1504 477.747 65.9798 477.838C66.4051 482.854 64.7953 488.142 61.1808 492.215C57.536 496.288 52.6155 498.325 47.7861 498.233C47.3305 493.218 48.9403 487.93 52.5851 483.857Z" fill="#96D9C9"/>
<path d="M71.204 489.753C74.8488 485.68 79.7693 483.644 84.5987 483.735C85.0239 488.75 83.4141 494.039 79.7997 498.112C76.1549 502.185 71.2344 504.221 66.405 504.13C65.9798 499.115 67.5592 493.857 71.204 489.753Z" fill="#96D9C9"/>
<path d="M53.6781 470.665C50.4889 466.501 49.0613 461.456 49.3954 456.896C53.6173 457.383 57.9304 459.845 61.1196 464.009C64.3088 468.173 65.7363 473.218 65.4022 477.778C61.2107 477.291 56.8977 474.829 53.6781 470.665Z" fill="#96D9C9"/>
<path d="M73.0266 476.714C69.7766 472.58 68.2579 467.565 68.5313 463.006C72.7532 463.431 77.0966 465.802 80.3466 469.936C83.5965 474.069 85.1152 479.085 84.8418 483.644C80.6199 483.218 76.3069 480.848 73.0266 476.714Z" fill="#96D9C9"/>
<path d="M95.6844 491.395C96.5349 489.206 98.2358 487.717 100.24 487.078C101.182 489.085 101.364 491.486 100.514 493.644C99.6633 495.832 97.9624 497.322 95.9578 497.96C94.9858 495.954 94.834 493.553 95.6844 491.395Z" fill="#96D9C9"/>
<path d="M217.543 546.805C217.543 546.805 254.417 400.939 242.176 386.258C225.289 366.015 211.347 433.188 209.98 427.504C197.072 373.614 193.639 304.617 151.967 297.322C128.276 293.158 157.434 348.599 155.672 363.614C153.911 378.599 111.236 328.842 85.3275 302.763C59.3885 276.684 45.9938 293.189 62.3955 325.985C78.2505 357.687 129.491 392.337 118.921 396.471C108.351 400.574 44.2322 359.632 36.3654 377.14C26.737 398.599 122.93 427.808 113.879 432.641C104.827 437.474 58.8418 421.577 60.0871 437.991C61.3324 454.404 123.142 453.796 122.11 461C120.409 472.702 79.5262 446.228 77.7341 462.398C75.8813 478.933 131.526 475.924 130.554 488.842C130.007 496.258 118.07 485.073 116.308 495.346C112.299 518.781 185.621 547.291 185.621 547.291L217.543 546.805Z" fill="#3A8F7B"/>
<path d="M245.639 547.686C245.639 547.686 210.557 493.857 193.67 483.705C175.689 472.884 189.387 505.285 189.387 505.285C189.387 505.285 152.635 461.516 142.43 470.422C132.224 479.328 141.488 489.602 141.488 489.602C141.488 489.602 108.503 479.814 102.549 491.942C93.4373 510.574 147.775 526.015 147.775 526.015C147.775 526.015 124.449 525.772 128.731 538.355C135.201 557.291 245.639 547.686 245.639 547.686Z" fill="#50BFA5"/>
<path d="M102.549 491.942C108.472 479.814 141.488 489.601 141.488 489.601C141.488 489.601 132.224 479.298 142.43 470.422C152.635 461.516 182.037 488.142 182.037 488.142C182.037 488.142 178.969 466.197 201.081 485.529C216.905 499.328 245.639 547.686 245.639 547.686L102.549 491.942Z" fill="#96D9C9"/>
<path d="M203.055 412.55L204.634 411.486C176.083 368.204 167.366 316.806 165.058 281.335C162.567 242.824 166.941 214.192 166.971 213.918L165.027 213.341C164.997 213.615 160.593 242.429 163.083 281.183C165.392 316.958 174.2 368.812 203.055 412.55Z" fill="#96D9C9"/>
<path d="M172.621 207.171C172.681 215.864 169.674 223.067 164.845 227.353C159.955 221.122 156.827 212.733 156.766 204.04C156.705 195.347 159.712 188.144 164.541 183.858C169.432 190.058 172.56 198.447 172.621 207.171Z" fill="#96D9C9"/>
<path d="M157.131 226.715C161.99 234.405 163.995 243.037 163.205 250.453C156.523 248.538 149.811 243.402 144.92 235.712C140.061 228.022 138.056 219.39 138.846 211.973C145.558 213.858 152.271 219.025 157.131 226.715Z" fill="#96D9C9"/>
<path d="M149.324 250.058C156.34 254.921 161.382 262.277 163.721 269.906C157.555 271.639 150.053 270.21 143.067 265.347C136.051 260.484 131.009 253.128 128.67 245.499C134.836 243.766 142.338 245.165 149.324 250.058Z" fill="#96D9C9"/>
<path d="M158.466 290.818C161.534 292.642 163.842 295.56 165.027 298.721C162.506 299.663 159.377 299.298 156.31 297.474C153.242 295.651 150.934 292.733 149.749 289.572C152.27 288.66 155.429 288.994 158.466 290.818Z" fill="#96D9C9"/>
<path d="M160.957 305.924C164.025 307.748 166.333 310.666 167.518 313.827C164.997 314.769 161.868 314.404 158.8 312.581C155.733 310.757 153.424 307.839 152.24 304.678C154.761 303.736 157.92 304.101 160.957 305.924Z" fill="#96D9C9"/>
<path d="M173.562 244.8C179.212 241.608 185.803 241.639 191.665 244.283C190.693 250.818 187.17 256.593 181.52 259.785C175.871 262.976 169.28 262.946 163.417 260.301C164.42 253.766 167.913 247.991 173.562 244.8Z" fill="#96D9C9"/>
<path d="M174.686 267.535C180.335 264.344 186.926 264.374 192.788 267.019C191.816 273.554 188.293 279.329 182.643 282.52C176.994 285.712 170.403 285.681 164.541 283.037C165.543 276.502 169.066 270.757 174.686 267.535Z" fill="#96D9C9"/>
<path d="M173.593 300.088C177.268 297.991 181.551 298.022 185.378 299.754C184.74 304.009 182.462 307.748 178.787 309.845C175.112 311.942 170.829 311.912 167.002 310.18C167.609 305.955 169.918 302.186 173.593 300.088Z" fill="#96D9C9"/>
<path d="M576.588 428.446C579.899 428.994 579.716 429.541 580.141 429.571C580.658 429.632 586.641 426.623 586.641 426.623C586.641 426.623 604.349 417.869 605.291 417.352L618.078 401.243L627.919 405.802C627.919 405.802 613.552 422.915 612.641 423.675C611.73 424.434 586.338 433.34 584.12 434.191C584.12 434.191 581.903 436.228 580.445 437.474C579.018 438.69 577.074 439.206 576.618 439.48C576.557 439.51 574.948 440.361 572.7 440.848C570.756 441.273 572.366 439.966 572.366 439.966C572.366 439.966 575.798 438.507 575.616 438.264C575.494 438.051 573.672 438.963 571.515 439.449C570.969 439.571 570.422 439.693 569.936 439.814C568.63 440.088 568.053 439.358 569.359 438.811C569.815 438.629 570.604 438.325 571.181 438.203C571.819 438.082 572.336 437.747 572.852 437.535C573.885 437.139 574.614 436.866 574.583 436.835C574.522 436.775 574.674 436.562 574.097 436.683C573.399 436.835 571.971 437.443 570.908 437.565C570.3 437.626 569.055 437.839 569.055 437.839C569.055 437.839 566.868 438.051 566.838 437.747C566.808 437.079 568.144 436.684 568.994 436.714C569.511 436.44 570.847 436.258 570.847 436.258C570.847 436.258 573.399 435.255 573.247 434.86C573.186 434.708 571.637 434.951 569.997 435.042C568.265 435.164 567.02 435.164 566.929 434.829C566.777 434.282 568.174 434.1 568.174 434.1C568.174 434.1 569.389 433.918 569.784 433.826C570.24 433.735 571.607 433.279 571.607 433.279C571.607 433.279 576.284 431.547 576.132 431.212C575.95 430.878 575.191 430.149 574.857 430.149C574.522 430.149 573.945 430.483 573.611 430.483C573.277 430.483 572.579 430.422 572.518 429.997C572.457 429.571 574.31 428.72 574.31 428.72C574.31 428.72 575.616 428.295 576.588 428.446Z" fill="#F8A492"/>
<path d="M609.178 411.273C609.178 411.273 612.367 414.161 613.704 415.134C614.797 415.924 620.173 418.507 620.173 418.507C620.173 418.507 625.519 410.301 627.858 406.197C630.683 401.213 632.657 393.796 631.989 393.584C630.105 393.006 627.524 392.672 625.124 393.766C616.832 397.596 609.178 411.273 609.178 411.273Z" fill="#256653"/>
<path d="M579.686 432.732C578.258 432.945 576.8 432.671 576.193 431.395C576.041 432.945 578.379 433.705 579.686 432.732Z" fill="#FE875E"/>
<path d="M183.16 375.255C183.343 370.483 182.644 365.772 180.548 361.334C178.726 357.505 174.2 355.347 170.069 355.347C156.978 355.316 155.308 372.733 146.955 379.419C144.404 381.456 141.549 383.128 139.149 385.346C130.25 393.523 134.259 408.629 142.43 415.772C148.109 420.726 157.009 423.553 163.995 419.662C167.64 417.626 170.404 414.282 172.378 410.574C175.172 405.346 176.995 399.298 178.969 393.705C181.125 387.778 182.917 381.608 183.16 375.255Z" fill="#13375B"/>
<path d="M185.317 398.355C181.216 385.924 175.84 386.137 175.84 386.137L180.214 412.58C182.735 411.881 186.015 410.361 188.567 409.632C187.686 405.711 186.319 401.425 185.317 398.355Z" fill="#F7CC7F"/>
<path d="M206.002 440.726L191.058 429.298C191.058 429.298 189.539 418.659 187.535 409.206C185.014 409.905 182.736 411.912 180.215 412.58L184.011 433.735L203.602 443.857L209.13 450.969L210.375 443.674L206.002 440.726Z" fill="#F48C7F"/>
<path d="M342.318 422.884C346.965 422.884 351.308 424.1 355.074 426.258C355.56 426.532 356.077 426.775 356.624 426.988C368.105 431.699 380.679 422.976 380.679 410.544V349.389H319.568C307.145 349.389 298.398 336.806 303.136 325.316C303.348 324.769 303.622 324.253 303.865 323.766C305.991 319.997 307.236 315.62 307.236 311C307.236 296.259 294.965 284.405 280.082 285.104C266.627 285.742 255.784 296.775 255.419 310.271C255.298 315.073 256.452 319.572 258.608 323.462C258.882 323.949 259.125 324.465 259.337 325.043C264.015 336.745 255.146 349.42 242.541 349.42H182.006V488.75C182.006 521.607 208.644 548.264 241.478 548.264H380.71V487.322C380.71 474.829 368.105 466.015 356.532 470.726C355.986 470.939 355.469 471.182 354.983 471.456C350.853 473.766 346.054 474.981 340.92 474.708C327.738 474.009 317.077 463.279 316.439 450.088C315.741 435.194 327.586 422.884 342.318 422.884Z" fill="#F70064"/>
<path d="M474.746 388.963C474.959 384.313 476.386 380.027 478.694 376.349C478.998 375.893 479.272 375.377 479.515 374.83C484.769 363.553 476.629 350.574 464.206 349.997L403.156 347.14L400.301 408.234C399.723 420.665 386.754 428.811 375.485 423.553C374.939 423.31 374.453 423.036 373.967 422.732C370.292 420.422 366.009 418.994 361.362 418.781C346.661 418.082 334.238 429.814 334.238 444.708C334.238 458.173 344.778 469.541 358.203 470.544C362.972 470.908 367.528 469.936 371.537 467.99C372.023 467.747 372.57 467.534 373.147 467.322C385.023 463.188 397.294 472.671 396.686 485.224L393.861 545.771L532.941 552.276C565.745 553.796 593.597 528.446 595.116 495.619L601.616 356.441L540.778 353.584C528.294 353.006 518.939 365.194 523.1 376.988C523.313 377.565 523.526 378.082 523.769 378.568C525.895 382.793 526.867 387.656 526.381 392.763C525.075 405.924 513.867 416.076 500.655 416.076C485.772 416.106 474.078 403.674 474.746 388.963Z" fill="#00BCCF"/>
<path d="M304.685 292.793C304.928 297.444 303.925 301.851 301.951 305.711C301.708 306.198 301.495 306.745 301.283 307.292C297.152 319.024 306.507 331.152 318.93 330.514L379.95 327.444L376.882 266.38C376.244 253.949 388.394 244.587 400.088 248.721C400.634 248.933 401.181 249.146 401.667 249.389C405.525 251.335 409.959 252.338 414.576 252.125C429.277 251.395 440.484 238.538 439.057 223.706C437.751 210.301 426.178 200.028 412.723 200.332C407.924 200.453 403.489 201.821 399.723 204.162C399.237 204.466 398.751 204.709 398.205 204.982C386.784 210.241 373.663 202.004 373.025 189.42L369.957 128.873L230.907 135.864C198.104 137.505 172.864 165.469 174.504 198.295L181.49 337.444L242.328 334.374C254.811 333.736 262.951 320.696 257.666 309.359C257.423 308.812 257.15 308.325 256.846 307.839C254.325 303.827 252.867 299.085 252.898 293.949C252.928 280.727 263.103 269.541 276.255 268.265C291.077 266.836 303.925 278.082 304.685 292.793Z" fill="#2BA04B"/>
<path d="M429.58 259.085C424.933 259.085 420.59 257.87 416.823 255.712C416.337 255.438 415.821 255.195 415.274 254.982C403.793 250.271 391.219 258.994 391.219 271.426V332.581H452.33C464.753 332.581 473.5 345.164 468.762 356.653C468.549 357.201 468.276 357.717 468.003 358.204C465.877 361.973 464.631 366.349 464.631 370.969C464.631 385.711 476.902 397.565 491.785 396.866C505.24 396.228 516.084 385.194 516.448 371.699C516.57 366.897 515.416 362.398 513.259 358.507C512.986 358.021 512.743 357.504 512.53 356.927C507.853 345.225 516.722 332.55 529.327 332.55H589.891V193.25C589.891 160.393 563.254 133.736 530.42 133.736H391.188V194.678C391.188 207.171 403.793 215.985 415.365 211.274C415.912 211.061 416.429 210.818 416.915 210.545C421.045 208.234 425.844 207.019 430.977 207.292C444.16 207.991 454.821 218.721 455.458 231.912C456.157 246.806 444.311 259.085 429.58 259.085Z" fill="#F4CC1A"/>
<path d="M142.247 528.902C142.247 528.902 141.336 535.315 139.726 537.382C139.18 538.081 138.208 538.963 137.57 540.209C136.568 542.154 137.114 545.072 137.874 546.683C138.238 547.504 137.843 547.504 138.694 547.777C141.245 548.568 143.948 547.23 145.011 544.799C145.619 543.431 146.135 541.607 146.257 539.327C146.53 533.492 148.322 530.543 148.322 530.543L142.247 528.902Z" fill="#F7A491"/>
<path d="M170.008 531.82C170.008 531.82 170.585 539.054 170.13 541.425C169.887 542.671 168.489 545.285 169.127 546.47C169.765 547.656 170.494 547.96 170.494 547.96L186.896 548.233C187.777 548.233 187.199 547.686 186.47 547.139C185.286 546.258 184.344 545.68 180.578 543.857C180.335 543.735 179.424 543.157 179.12 542.975C178.3 542.489 177.48 541.698 176.781 540.908C175.597 539.601 175.506 533.218 175.506 533.218L170.008 531.82Z" fill="#F7A491"/>
<path d="M182.827 435.62C182.827 435.62 184.892 447.383 183.526 455.073C182.159 462.763 175.659 534.191 175.659 534.191L168.43 534.586C168.43 534.586 166.911 504.738 167.185 500.604C167.458 496.44 169.614 489.51 169.614 489.51L168.885 465.437L177.998 433.796L182.827 435.62Z" fill="#355389"/>
<path d="M161.565 433.158C161.565 433.158 155.885 441.76 154.518 448.872C153.151 455.985 155.52 477.839 152.908 487.17C151.511 492.215 146.135 499.996 145.345 506.531C144.525 513.066 141.336 530.118 141.336 530.118L148.565 531.547L165.361 488.902L178.543 450.361L181.915 430.513L161.565 433.158Z" fill="#21315E"/>
<path d="M166.182 384.252C166.182 384.252 158.649 383.766 155.673 387.018C152.696 390.27 162.294 416.076 162.841 420.209C163.387 424.343 160.077 435.377 160.077 435.377C160.077 435.377 177.784 438.963 182.857 435.589C182.857 435.589 183.404 405.741 182.857 402.793C182.31 399.814 177.784 387.778 176.721 386.592C175.598 385.437 166.182 384.252 166.182 384.252Z" fill="#F4CC1A"/>
<path d="M168.672 374.131C168.672 374.131 168.642 374.344 168.551 374.739C168.217 376.562 166.911 382.581 166.06 384.252C164.997 386.258 169.675 392.641 174.17 391.851C175.506 391.608 173.046 385.985 173.168 385.377C173.38 384.222 173.714 382.672 174.018 381.061C174.2 380.149 174.383 379.237 174.534 378.386C175.02 375.954 175.415 373.948 175.415 373.948L168.672 374.131Z" fill="#F7A491"/>
<path d="M168.582 374.739C168.642 374.374 168.703 374.131 168.703 374.131L175.446 373.948C175.446 373.948 175.051 375.954 174.565 378.386C174.383 379.237 174.231 380.149 174.049 381.061C173.016 380.909 171.923 380.392 170.829 379.45C169.645 378.416 168.855 377.14 168.399 375.802C168.46 375.407 168.521 375.043 168.582 374.739Z" fill="#F47458"/>
<path d="M173.228 358.781C173.228 358.781 170.039 358.417 168.065 361C166.06 363.584 163.934 371.578 168.885 375.924C173.836 380.271 178.726 375.347 179.455 370.149C180.153 364.921 180.427 358.599 173.228 358.781Z" fill="#F7A491"/>
<path d="M180.883 370.058C180.305 371.213 179.303 371.851 178.665 371.486C178.027 371.121 177.997 369.906 178.604 368.751C179.182 367.596 180.184 366.958 180.822 367.322C181.46 367.657 181.49 368.903 180.883 370.058Z" fill="#F7A491"/>
<path d="M173.592 357.93C173.592 357.93 169.34 365.529 166.303 365.894C163.265 366.258 162.871 370.27 162.871 370.27C162.871 370.27 163.964 360.97 166.971 359.176C169.948 357.383 173.592 357.93 173.592 357.93Z" fill="#13375B"/>
<path d="M145.497 543.522C141.549 544.252 138.936 541.941 137.57 540.209C136.567 542.154 136.081 545.103 136.81 546.714C137.448 548.142 139.362 548.081 140.85 548.142C142.429 548.203 143.644 547.321 144.434 545.954C144.829 545.285 145.193 544.495 145.497 543.522Z" fill="#F47458"/>
<path d="M179.091 542.945C174.747 544.069 171.558 543.309 169.766 542.58C169.31 543.887 168.703 545.528 169.007 546.501C169.401 547.656 169.979 547.929 170.464 547.929C174.413 548.021 184.983 548.173 187.99 548.203C188.415 548.203 188.658 547.717 188.385 547.382C187.626 546.531 179.425 543.157 179.091 542.945Z" fill="#F47458"/>
<path d="M167.093 367.778C167.336 369.115 166.85 370.362 165.969 370.544C165.118 370.726 164.207 369.784 163.964 368.416C163.721 367.079 164.207 365.833 165.088 365.651C165.939 365.468 166.85 366.441 167.093 367.778Z" fill="#F7A491"/>
<path d="M172.044 372.459L175.871 372.641C175.871 372.641 175.719 374.1 174.018 374.07C171.983 374.009 172.044 372.459 172.044 372.459Z" fill="white"/>
<path d="M498.863 66.6545C499.349 66.6849 500.655 67.1104 502.568 70.7274C504.998 75.3475 508.582 89.2988 508.582 89.2988L497.921 93.2806L496.554 90.3627L494.307 67.9311C494.307 67.9311 498.741 66.6241 498.863 66.6545Z" fill="#D5017D"/>
<path d="M484.769 64.618C487.806 64.618 495.339 65.4994 498.862 66.624C498.862 66.624 501.444 88.7212 496.554 105.53C495.461 109.299 497.465 121.122 497.465 121.122L465.907 120.697C465.907 120.697 469.643 92.0951 468.246 87.475C466.849 82.855 466.818 66.7456 466.818 66.7456C466.818 66.7456 467.031 66.7152 473.926 65.5298C477.054 65.0131 481.519 64.618 484.769 64.618Z" fill="#F70064"/>
<path d="M481.094 162.156C481.094 162.156 481.793 170.21 483.069 172.46C484.344 174.678 483.008 178.478 482.947 179.025C482.886 179.542 480.244 180.302 476.052 179.846C471.861 179.39 471.922 178.417 472.256 176.867C472.59 175.317 474.837 173.28 474.959 171.791C475.08 170.302 473.683 164.952 473.683 164.952L481.094 162.156Z" fill="#F7A491"/>
<path d="M493.881 114.466C493.881 114.466 515.689 113.25 520.549 116.198C525.409 119.147 517.086 133.615 517.086 133.615C517.086 133.615 501.93 132.916 472.225 134.618C465.178 135.013 464.571 116.259 465.907 114.709C467.213 113.189 493.881 114.466 493.881 114.466Z" fill="#2BA04B"/>
<path d="M475.536 180.453C471.223 179.998 471.77 177.87 472.104 176.259C472.317 175.256 473.562 174.071 474.291 172.946C474.686 173.25 475.293 173.797 477.176 174.344C479.12 174.922 481.793 173.767 483.494 173.068C484.101 175.317 484.132 178.204 484.071 178.63C484.01 179.177 479.849 180.94 475.536 180.453Z" fill="#DD513A"/>
<path d="M477.904 130.089C478.785 136.685 483.098 169.511 483.098 169.511L473.105 170.757C473.105 170.757 460.804 127.931 461.442 121.366C462.08 114.8 466.666 114.253 466.666 114.253C466.666 114.253 475.596 112.612 477.904 130.089Z" fill="#8DD041"/>
<path d="M466.423 69.2382C469.369 68.1439 470.827 94.7396 471.222 105.712C476.446 106.229 485.558 105.712 487.836 105.56C488.9 105.469 491.36 104.588 492.423 104.436C493.516 104.284 494.488 104.223 495.035 104.314C495.217 104.344 500.684 106.563 501.14 107.08C501.717 107.688 503.266 109.208 503.023 109.876C502.75 110.545 500.016 108.022 500.016 108.022L498.68 107.262C500.35 108.904 503.54 111.031 503.084 111.822C502.628 112.581 499.773 110.393 497.708 108.934C499.47 110.515 501.656 113.372 501.14 113.797C500.684 114.192 498.224 110.91 495.551 109.967C494.579 109.603 493.577 110.575 492.818 110.697C492.241 110.788 491.36 110.971 490.813 110.819L487.958 109.998C486.986 110.089 486.956 110.667 485.984 110.879C484.83 111.122 482.946 111.366 481.488 111.73C473.075 113.797 470.281 114.739 467.699 114.739C459.893 114.709 459.437 71.8521 466.423 69.2382Z" fill="#F7A491"/>
<path d="M460.835 94.2228C460.288 83.007 460.349 69.1773 466.636 66.8065C469.127 65.8643 473.501 71.4873 472.711 94.4356C469.339 94.7395 464.419 94.9523 460.835 94.2228Z" fill="#D5017D"/>
<path d="M510.343 169.055C510.343 169.055 509.463 171.852 511.042 173.706C512.591 175.56 519.091 177.384 519.942 178.387C520.792 179.39 520.731 180.241 520.731 180.241L502.507 179.724L502.72 174.223L503.57 170.271L510.343 169.055Z" fill="#F7A491"/>
<path d="M512.166 174.648C512.166 174.648 507.489 176.533 505.211 175.408C502.963 174.283 503.024 173.979 502.356 174.405C501.687 174.83 501.475 179.998 501.475 179.998L521.977 180.606C523.405 180.575 524.134 179.511 522.979 178.63C522.19 178.022 521.278 177.596 520.732 177.292C519.122 176.35 512.166 174.648 512.166 174.648Z" fill="#DD513A"/>
<path d="M509.645 119.633C511.042 116.654 514.262 112.794 519.881 115.135C525.257 117.353 526.715 122.794 525.014 128.387C523.313 133.98 512.136 166.806 511.771 171.305L502.841 171.365C502.841 171.365 504.451 145.378 504.846 139.086C505.271 133.068 507.215 124.77 509.645 119.633Z" fill="#8DD041"/>
<path d="M524.133 89.4204H494.337C493.547 89.4204 492.849 89.9068 492.545 90.6362L483.372 113.098H466.94C466.485 113.098 466.12 113.463 466.12 113.919C466.12 114.375 466.485 114.739 466.94 114.739H513.715C514.991 114.739 516.175 113.98 516.692 112.794L525.925 92.1256C526.472 90.8794 525.53 89.4204 524.133 89.4204Z" fill="black"/>
<path d="M508.096 102.49C507.883 103.493 507.033 104.162 506.152 104.01C505.271 103.828 504.724 102.885 504.937 101.852C505.15 100.849 506.03 100.18 506.911 100.332C507.731 100.545 508.278 101.487 508.096 102.49Z" fill="white"/>
<path d="M491.846 37.6273C490.935 37.3233 490.054 36.989 489.204 36.5635C488.232 36.1075 486.987 35.5604 486.197 35.4389C484.526 35.1957 481.671 35.3477 480.092 37.0802C478.118 39.2078 474.625 37.4753 475.323 48.6303C476.113 61.2746 483.16 59.9068 483.312 59.6941C483.494 59.4813 489.568 51.609 489.568 51.609C489.568 51.609 491.695 56.2898 491.695 56.1075C491.755 55.9251 502.659 41.2747 491.846 37.6273Z" fill="#0E2E35"/>
<path d="M486.531 60.606L487.139 65.1348C487.139 65.1348 488.505 71.6394 486.744 72.916C484.982 74.1622 479.302 64.9525 479.302 64.9525L479.909 53.4936L486.531 60.606Z" fill="#F7A491"/>
<path d="M479.698 57.2018C481.155 61.1227 484.588 63.5239 487.018 64.4358L486.501 60.606L479.91 53.4936L479.698 57.2018Z" fill="#F47458"/>
<path d="M486.167 41.0315C489.873 40.4236 493.183 43.4023 493.092 47.1409C493.062 48.7518 492.91 50.7579 492.576 52.9464C491.756 58.1743 488.202 62.7639 485.863 62.3384C483.525 61.9129 477.602 57.4144 478.635 49.998C479.303 45.4084 482.279 41.6698 486.167 41.0315Z" fill="#F7A491"/>
<path d="M480.274 50.8795C480.061 52.0345 479.15 52.8248 478.209 52.6728C477.267 52.5208 476.69 51.457 476.872 50.302C477.085 49.147 477.996 48.3567 478.938 48.5087C479.879 48.6607 480.487 49.7245 480.274 50.8795Z" fill="#F7A491"/>
<path d="M478.938 48.5087C478.938 48.5087 481.793 49.2078 482.826 47.3841C483.889 45.5604 487.656 41.609 492.455 43.2504C497.254 44.8917 488.233 39.2686 487.838 39.2686C487.443 39.2686 482.857 39.2382 482.857 39.2382C482.857 39.2382 479.303 42.1561 479.181 42.4905C479.06 42.8248 478.027 46.3203 478.027 46.3203L478.938 48.5087Z" fill="#0E2E35"/>
<path d="M484.161 56.1378L489.325 57.1409C489.325 57.1409 488.839 59.0862 486.531 58.7214C483.766 58.2655 484.161 56.1378 484.161 56.1378Z" fill="white"/>
<path d="M396.594 416.775C396.807 417.443 396.898 417.687 397.172 418.143C398.781 421.091 402.548 425.316 402.548 425.316L405.464 418.75C405.464 418.75 404.978 416.684 404.158 413.735C401.333 414.465 398.66 414.89 396.594 416.775Z" fill="#F8A492"/>
<path d="M413.3 411.061C413.3 411.061 397.05 418.051 396.534 417.93C396.2 417.839 389.882 407.261 389.791 397.292C389.761 392.702 394.529 387.14 399.875 388.234C402.548 388.781 402.518 389.541 406.497 395.316C410.445 401.091 413.3 411.061 413.3 411.061Z" fill="#13375B"/>
<path d="M427.151 536.623C427.151 536.623 426.756 543.005 426.756 543.036C426.604 543.856 426.057 545.863 426.057 546.592C426.057 549.358 439.209 544.252 436.263 543.005C435.989 542.884 434.592 542.063 434.501 541.121C434.38 539.662 434.015 536.744 434.015 536.744L427.151 536.623Z" fill="#F7A491"/>
<path d="M436.232 542.945C436.232 542.945 433.134 543.796 431.555 544.008C429.975 544.221 427.88 542.428 426.786 542.914C425.571 543.431 425.602 548.203 425.602 548.203C425.602 548.203 442.155 549.571 446.802 548.142C448.655 547.625 442.55 544.92 436.232 542.945Z" fill="#DD513A"/>
<path d="M400.3 536.623C400.3 536.623 399.905 543.005 399.905 543.036C399.753 543.856 399.207 545.863 399.207 546.592C399.207 549.358 412.358 544.252 409.412 543.005C409.139 542.884 407.347 541.425 407.256 540.483C407.134 539.024 407.195 536.714 407.195 536.714L400.3 536.623Z" fill="#F7A491"/>
<path d="M409.352 542.945C409.352 542.945 406.254 543.796 404.674 544.008C403.095 544.221 400.999 542.428 399.906 542.914C398.691 543.431 398.63 548.203 398.63 548.203C398.63 548.203 415.244 549.784 419.922 548.142C421.744 547.565 415.669 544.92 409.352 542.945Z" fill="#DD513A"/>
<path d="M404.31 420.301L415.882 404.07C415.943 403.918 416.034 403.644 416.186 403.188C416.763 401.577 417.978 398.234 419.041 394.89V394.86C419.375 393.705 420.073 391.668 420.742 389.693C421.501 387.504 422.442 384.799 422.473 384.343C422.442 384.252 422.382 384.131 422.321 383.948C421.896 382.854 421.319 380.21 421.106 379.085C420.985 378.355 420.863 376.593 421.713 376.593C423.08 376.593 422.412 378.355 423.05 379.45C423.293 378.72 423.748 377.261 423.991 375.772L424.204 372.337C424.234 372.064 423.961 370.179 424.933 370.179H424.963C425.814 370.24 425.814 372.276 426.148 375.681C426.269 375.286 426.361 374.799 426.452 374.374C426.452 374.131 426.604 373.097 426.755 372.58C426.573 371.638 426.695 370.118 427.697 370.27C428.213 370.331 428.153 372.428 428.153 372.428C428.153 372.702 428.122 374.921 428.122 375.377C428.213 374.647 428.639 371.456 429.428 371.456C430.097 371.456 430.127 372.307 430.127 372.976C430.127 373.371 429.702 376.805 429.671 377.231C429.975 376.714 430.339 373.675 430.643 373.675C431.919 373.675 431.463 377.991 430.977 379.115C430.947 379.237 430.886 379.45 430.825 379.723C430.674 380.483 430.4 381.79 429.732 382.945C428.912 384.343 427.819 386.532 427.636 386.866C427.515 387.565 427.12 390.027 426.634 393.127C426.421 394.465 426.209 395.924 425.966 397.413C425.935 397.747 425.692 398.781 424.751 402.671C423.505 408.021 423.354 408.234 423.323 408.325C422.777 409.298 410.293 426.258 409.777 426.957L409.473 427.383L404.31 420.301Z" fill="#F7A491"/>
<path d="M425.814 382.459C425.814 382.459 424.872 380.058 423.201 380.058C423.201 380.058 424.143 379.723 424.933 380.362C425.753 381 425.814 382.459 425.814 382.459Z" fill="#F47458"/>
<path d="M401.515 377.839L400.027 387.261C400.027 387.261 405.707 391.821 409.018 390.848C411.782 390.027 409.899 386.41 409.899 386.41C409.899 386.41 408.41 381.365 408.866 378.751C409.291 376.106 401.515 377.839 401.515 377.839Z" fill="#F7A491"/>
<path d="M402.578 380.665C404.006 381.334 406.8 382.246 409.017 382.489C408.805 381.182 408.683 379.784 408.865 378.751C409.078 377.535 407.529 377.231 405.798 377.292C403.55 377.474 401.515 377.839 401.515 377.839L401.241 379.662C401.636 380.088 402.092 380.453 402.578 380.665Z" fill="#FE875E"/>
<path d="M394.347 366.957C394.104 366.957 396.595 377.504 400.422 379.298C404.249 381.121 409.989 380.179 411.052 377.322C412.237 374.191 407.924 363.432 402.517 362.064C397.111 360.727 394.347 366.957 394.347 366.957Z" fill="#F7A491"/>
<path d="M398.782 357.292C395.714 359.055 394.317 361.669 393.831 362.763C392.403 363.432 390.642 364.921 389.822 368.903C388.789 373.796 392.434 377.565 396.321 378.69C400.179 379.814 400.786 382.398 400.786 382.398L401.212 379.632C401.212 379.632 400.361 377.231 399.055 376.015C397.749 374.799 399.662 373.067 399.845 371.638C399.966 370.544 399.176 368.416 399.328 366.593C399.328 366.593 401.485 363.34 403.611 362.52C407.225 361.152 402.7 355.012 398.782 357.292Z" fill="#13375B"/>
<path d="M400.422 373.462C400.908 374.678 400.726 375.894 399.966 376.167C399.207 376.441 398.204 375.681 397.688 374.465C397.202 373.249 397.384 372.033 398.144 371.76C398.903 371.486 399.905 372.246 400.422 373.462Z" fill="#F7A491"/>
<path d="M414.697 420.574L437.022 416.927C437.022 416.927 434.47 410.513 433.59 410.513C432.709 410.513 416.702 417.504 416.702 417.504L415.426 420.057L414.697 420.574Z" fill="#F8A492"/>
<path d="M403.277 435.893C403.277 435.893 401.06 446.653 401.971 454.83C402.882 463.006 402.943 492.003 402.943 492.003L399.48 538.416L407.711 538.598C407.711 538.598 417.461 492.185 417.279 493.401C417.097 494.586 420.559 460.726 420.559 460.726L408.957 434.86L403.277 435.893Z" fill="#184655"/>
<path d="M405.433 435.377C405.433 435.377 403.975 445.073 405.797 449.328C407.62 453.583 421.349 495.315 421.531 498.72C421.713 502.124 426.3 539.753 426.3 539.753L435.867 539.479L437.933 497.656L433.62 445.103L429.428 431.82L405.433 435.377Z" fill="#13375B"/>
<path d="M400.027 387.261C400.027 387.261 402.396 388.811 404.583 388.629C406.77 388.447 409.898 386.41 409.898 386.41L409.473 384.951C409.473 384.951 403.793 384.13 403.642 384.222C403.459 384.313 400.027 387.261 400.027 387.261Z" fill="#F7A491"/>
<path d="M425.115 410.21C425.115 410.21 433.559 418.173 437.356 416.836C441.152 415.468 442.732 410.817 433.437 404.009C425.146 397.9 425.115 410.21 425.115 410.21Z" fill="#F8A492"/>
<path d="M430.856 420.058C429.611 413.219 420.499 391.973 419.8 388.052C419.436 386.137 414.546 386.106 409.868 386.35C404.948 386.623 400.027 387.231 400.027 387.231C400.027 387.231 395.654 387.961 393.74 389.754C391.826 391.547 391.31 396.532 394.074 405.985C396.261 413.462 398.964 417.565 400.301 422.975C400.574 424.799 400.817 426.592 401.121 428.69C401.607 436.836 401.121 447.565 401.121 447.565C401.121 447.565 424.903 452.489 433.802 445.012C433.742 445.073 432.132 427.048 430.856 420.058Z" fill="#355389"/>
<path d="M436.899 405.377C436.899 405.377 427.575 413.097 427.028 413.097C426.664 413.097 413.725 403.553 410.718 395.711C409.077 391.365 412.54 386.532 416.488 386.532C419.222 386.532 420.467 387.261 425.904 391.851C431.341 396.441 436.899 405.377 436.899 405.377Z" fill="#466EB6"/>
<path d="M272.793 61.3962C274.311 57.7184 275.891 54.0406 279.839 52.1561C283.059 50.6364 286.4 51.2139 289.255 53.3719C297.334 59.4509 290.288 66.1682 299.491 77.6879C302.346 81.2746 305.809 84.1621 307.51 88.3566C309.909 94.2228 307.054 97.0496 302.468 99.8763C280.568 113.341 269.087 85.6818 269.512 79.3597C269.846 74.6788 271.821 63.767 272.793 61.3962Z" fill="#13375B"/>
<path d="M250.073 133.068C250.984 132.916 253.232 131.305 254.021 131.183C254.629 131.062 255.965 130.879 256.512 130.788C257.211 128.205 260.734 114.101 261.129 109.967C261.554 105.499 264.713 86.1074 264.713 86.1074L272.914 87.5968C272.914 87.5968 269.512 102.521 268.57 109.724C267.75 115.925 260.947 129.907 260.096 131.366C260.096 131.396 260.096 131.426 260.096 131.487C259.975 133.676 258.912 132.946 258.912 132.946L257.211 133.372C257.211 133.372 251.136 133.949 250.741 134.101C250.346 134.253 249.162 133.22 250.073 133.068Z" fill="#F7A491"/>
<path d="M271.881 74.77C266.08 76.7456 262.8 92.4902 262.8 92.4902C262.8 92.4902 271.881 95.0434 274.22 93.706C274.22 93.706 276.863 81.9736 277.804 82.3991L271.881 74.77Z" fill="#6A97CE"/>
<path d="M227.05 160.332C225.288 165.013 224.346 169.511 224.286 170.059C224.255 170.332 224.62 171.578 224.589 171.852C221.036 176.715 215.903 177.779 211.529 178.083C213.776 175.894 217.057 173.827 217.209 173.128C217.452 172.034 218.818 167.141 219.487 160.332C222.19 161.609 224.043 160.606 227.05 160.332Z" fill="#F7A491"/>
<path d="M277.501 107.961L285.337 130.028C285.337 130.028 272.762 132.399 268.054 133.25C263.347 134.101 237.074 135.256 236.405 135.742C235.919 136.077 230.482 153.676 228.053 163.372C225.289 163.979 220.581 163.25 218.09 162.399C219.457 148.539 224.347 126.563 225.896 124.162C228.417 120.271 277.501 107.961 277.501 107.961Z" fill="#256653"/>
<path d="M246.914 169.998C246.033 174.922 246.003 179.542 246.003 180.089C246.003 180.362 246.611 181.548 246.641 181.821C244.059 187.262 239.23 189.268 234.978 190.393C236.77 187.839 239.594 185.195 239.625 184.466C239.655 183.341 240.08 178.265 239.442 171.487C242.358 172.186 243.998 170.849 246.914 169.998Z" fill="#F7A491"/>
<path d="M286.643 109.116L289.68 114.314C294.297 122.217 290.774 132.399 282.239 135.712C282.178 135.742 282.148 135.742 282.117 135.773C277.652 137.505 252.048 143.554 251.47 144.131C251.045 144.557 249.01 162.855 248.433 172.824C245.851 173.949 241.083 174.101 238.471 173.736C237.195 159.846 237.894 137.353 238.987 134.709C240.718 130.393 286.643 109.116 286.643 109.116Z" fill="#327F6B"/>
<path d="M245.608 180.241C246.276 179.481 248.797 183.645 249.405 184.526C250.103 185.529 249.921 186.259 249.83 186.441C249.617 186.867 236.405 194.618 233.185 195.165C232.881 195.226 232.365 195.013 232.213 194.922C230.968 193.797 236.739 185.59 239.351 184.496C241.052 183.767 242.54 183.615 245.608 180.241Z" fill="#13375B"/>
<path d="M223.861 170.21C224.681 169.602 226.352 174.131 226.807 175.134C227.324 176.259 226.989 176.958 226.868 177.08C226.564 177.444 212.137 182.612 208.887 182.551C208.583 182.551 208.097 182.247 207.976 182.125C206.943 180.788 214.172 173.797 216.936 173.219C218.728 172.824 220.216 172.946 223.861 170.21Z" fill="#13375B"/>
<path d="M277.379 74.7093C277.227 74.7093 277.015 74.6485 276.802 74.5877C275.739 74.4053 273.37 74.1014 271.547 74.8917C269.33 75.8339 265.868 84.6181 266.08 93.6454C266.171 95.0132 266.232 96.2593 266.323 97.1104C266.9 103.919 268.844 116.715 268.935 116.776C271.578 118.478 287.615 111.852 288.708 110.393C289.802 108.934 290.47 91.2442 290.986 90.3627L292.05 74.9524C290.197 74.4053 280.234 74.7093 277.379 74.7093Z" fill="#9BC1F9"/>
<path d="M283.879 69.0557C283.879 69.0557 282.846 74.4053 283.059 76.5025C283.271 78.5998 282.269 85.4082 277.804 85.4082C273.339 85.4386 276.954 76.7761 277.379 74.7092C277.804 72.6423 277.895 66.2594 277.895 66.2594L283.879 69.0557Z" fill="#F7A491"/>
<path d="M277.804 69.4509C277.865 67.688 277.895 66.229 277.895 66.229L283.879 69.0254C283.879 69.0254 283.666 70.1196 283.454 71.5178C280.842 72.0649 278.958 71.0922 277.804 69.4509Z" fill="#F47458"/>
<path d="M286.066 54.3142C286.066 54.3142 288.374 55.5908 289.224 58.3567C290.075 61.1227 289.103 68.2655 283.15 69.998C277.197 71.7305 274.615 66.0466 275.86 61.6394C277.075 57.2017 279.748 51.609 286.066 54.3142Z" fill="#F7A491"/>
<path d="M275.101 59.9069C275.222 61.0923 275.86 62.0041 276.559 61.9434C277.257 61.8826 277.713 60.8491 277.592 59.6637C277.47 58.4783 276.832 57.5665 276.134 57.6273C275.435 57.7184 274.979 58.7215 275.101 59.9069Z" fill="#F7A491"/>
<path d="M285.367 53.9494C285.367 53.9494 286.46 61.9129 289.012 63.3718C291.593 64.8004 290.5 68.3566 290.5 68.3566C290.5 68.3566 292.839 60.15 290.804 57.5056C288.769 54.8308 285.367 53.9494 285.367 53.9494Z" fill="#13375B"/>
<path d="M287.493 64.4965C286.795 65.5299 286.795 66.7761 287.493 67.2321C288.192 67.7184 289.316 67.2321 290.045 66.1986C290.743 65.1652 290.743 63.919 290.045 63.4631C289.346 63.0071 288.192 63.4631 287.493 64.4965Z" fill="#F7A491"/>
<path d="M278.837 64.9525L283.028 66.0163C283.028 66.0163 282.512 67.5968 280.659 67.2017C278.381 66.685 278.837 64.9525 278.837 64.9525Z" fill="white"/>
<path d="M299.642 132.429C299.855 132.429 317.715 131.518 317.715 131.518C317.715 131.518 310.303 136.837 310.152 136.837C310 136.837 304.259 134.557 303.986 134.557C303.743 134.557 299.642 132.429 299.642 132.429Z" fill="#50BFA5"/>
<path d="M661.542 536.866C661.542 536.866 661.907 543.127 661.907 543.157C662.028 543.948 662.545 545.923 662.545 546.653C662.545 549.388 650.487 544.343 653.19 543.127C653.433 543.005 654.709 542.185 654.8 541.273C654.921 539.844 655.225 536.957 655.225 536.957L661.542 536.866Z" fill="#F7A491"/>
<path d="M653.068 543.157C653.068 543.157 655.893 543.978 657.351 544.191C658.809 544.404 660.722 542.641 661.725 543.127C662.848 543.644 662.818 548.325 662.818 548.325C662.818 548.325 647.631 549.662 643.349 548.264C641.648 547.747 647.267 545.103 653.068 543.157Z" fill="#F7CC7F"/>
<path d="M681.62 536.562C681.62 536.562 681.984 542.823 681.984 542.853C682.105 543.644 682.622 545.619 682.622 546.349C682.622 549.084 670.564 544.039 673.267 542.823C673.51 542.701 675.181 541.273 675.241 540.361C675.363 538.933 675.302 536.653 675.302 536.653L681.62 536.562Z" fill="#F7A491"/>
<path d="M673.297 542.793C673.297 542.793 676.122 543.613 677.58 543.826C679.038 544.039 680.951 542.276 681.953 542.762C683.077 543.279 683.138 547.96 683.138 547.96C683.138 547.96 668.073 548.568 663.608 547.899C661.816 547.656 667.496 544.708 673.297 542.793Z" fill="#F7CC7F"/>
<path d="M678.036 436.896C678.036 436.896 680.071 447.474 679.251 455.498C678.43 463.522 678.339 492.033 678.339 492.033L682.166 537.625L673.965 537.808C673.965 537.808 665.036 492.215 665.188 493.401C665.339 494.586 662.181 461.304 662.181 461.304L672.842 435.893L678.036 436.896Z" fill="#355389"/>
<path d="M675.18 430.058C675.18 430.058 684.444 439.814 680.982 450.483C679.585 454.769 666.706 495.68 666.524 499.024C666.372 502.367 662.15 539.328 662.15 539.328L653.372 539.054L651.489 497.96L654.01 442.611L659.326 433.28L675.18 430.058Z" fill="#21315E"/>
<path d="M618.958 398.295C621.996 394.921 628.587 390.088 628.587 390.088C628.587 390.088 632.505 386.714 634.115 386.167C636.484 385.347 640.524 383.189 646.355 392.033C650.547 398.386 676.941 431.213 681.254 432.337L652.977 445.893C652.187 439.419 638.215 427.2 636.211 424.921C631.715 419.814 616.103 401.486 618.958 398.295Z" fill="#2BA04B"/>
<path d="M620.265 384.526L629.074 389.693C629.074 389.693 629.317 397.231 626.431 399.176C624.001 400.818 622.179 396.866 622.179 396.866C622.179 396.866 618.898 392.307 616.408 390.909C613.947 389.511 620.265 384.526 620.265 384.526Z" fill="#F7A491"/>
<path d="M621.754 387.839C621.42 389.419 620.66 391.669 619.476 393.553C618.504 392.489 617.41 391.456 616.438 390.909C615.284 390.27 616.013 388.842 617.137 387.504C618.716 385.863 620.265 384.495 620.265 384.495L621.966 385.498C622.088 386.167 621.875 387.322 621.754 387.839Z" fill="#F47458"/>
<path d="M615.678 371.608C615.83 371.425 623.059 380.453 622.178 384.678C621.297 388.903 616.893 392.763 613.856 391.699C610.484 390.513 604.227 379.906 606.475 374.739C608.723 369.602 615.678 371.608 615.678 371.608Z" fill="#F7A491"/>
<path d="M607.75 368.751C610.909 366.988 616.072 366.502 619.899 368.508C624.638 371 625.701 377.231 624.243 381.03C622.755 384.83 624.455 386.988 624.455 386.988L621.935 385.529C621.935 385.529 620.477 383.249 620.264 381.425C620.082 379.602 617.409 379.936 616.103 379.085C615.1 378.447 613.825 376.38 612.215 375.316C612.215 375.316 608.145 374.83 606.14 375.954C602.738 377.839 603.224 371.274 607.75 368.751Z" fill="#13375B"/>
<path d="M618.17 380.605C618.14 381.973 618.777 383.067 619.598 383.067C620.418 383.067 621.086 382.003 621.116 380.635C621.147 379.267 620.509 378.173 619.689 378.173C618.869 378.143 618.2 379.237 618.17 380.605Z" fill="#F7A491"/>
<path d="M610.759 387.778L614.586 384.921C614.586 384.921 615.588 386.471 613.948 387.778C611.943 389.359 610.759 387.778 610.759 387.778Z" fill="white"/>
<path d="M601.13 444.86C602.102 443.462 602.497 441.425 603.833 439.875C604.289 439.358 604.987 438.781 605.807 438.173C612.186 434.435 628.83 424.799 629.498 424.039C630.258 423.158 641.617 404.252 641.617 404.252L631.412 401.942L621.45 419.571C620.63 420.24 604.775 431.942 604.775 431.942C604.775 431.942 601.616 434.404 599.915 435.559C599.034 436.076 598.214 436.41 597.455 436.653C596.513 436.988 594.752 437.869 594.387 438.173C593.962 438.538 593.142 439.328 592.656 439.814C592.17 440.301 591.562 440.817 591.319 441.121C591.167 441.304 590.742 441.547 590.408 441.699C589.922 441.942 589.983 442.641 590.499 442.793C590.985 442.945 591.653 442.641 592.048 442.428C593.202 441.881 594.6 440.422 594.66 440.605C594.721 440.787 593.324 443.887 593.172 444.252C593.02 444.617 591.41 448.264 591.319 449.055C591.228 449.875 591.714 450.058 592.079 449.754C592.382 449.51 595.025 444.647 595.025 444.647C595.025 444.647 595.359 444.039 595.48 444.374C595.602 444.738 593.233 449.146 592.99 449.845C592.747 450.574 592.929 451.152 593.597 450.909C594.417 450.605 596.665 445.741 596.665 445.741C596.665 445.741 596.969 445.134 597.151 445.346C597.364 445.559 595.268 449.267 595.237 449.693C595.207 450.118 595.602 450.544 596.149 450.179C596.817 449.754 598.791 445.407 598.791 445.407C598.791 445.407 599.034 445.134 599.125 445.316C599.216 445.529 597.637 448.811 597.758 449.298C597.85 449.693 598.214 449.632 598.214 449.632C599.095 449.693 600.158 446.258 601.13 444.86Z" fill="#F8A492"/>
<path d="M638.823 414.252C638.823 414.252 635.512 413.188 633.356 412.215C631.928 411.547 625.702 408.446 625.702 408.446C625.702 408.446 628.375 397.109 630.197 393.036C636.849 378.082 644.412 388.386 645.444 390.787C647.753 396.197 638.823 414.252 638.823 414.252Z" fill="#256653"/>
<path d="M406.709 375.103L409.868 372.733C409.868 372.733 410.719 374.009 409.352 375.103C407.712 376.41 406.709 375.103 406.709 375.103Z" fill="white"/>
<path d="M777.933 548.021H43.2904C42.3792 548.021 41.6199 548.963 41.6199 550.148C41.6199 551.334 42.3792 552.276 43.2904 552.276H777.933C778.845 552.276 779.604 551.334 779.604 550.148C779.604 548.963 778.845 548.021 777.933 548.021Z" fill="#184655"/>
<path d="M318.14 131.487C318.079 131.305 317.897 131.305 317.715 131.274C316.044 131.214 314.404 131.153 312.764 130.91C312.491 130.879 312.217 130.819 311.974 130.697C311.519 130.515 311.063 130.515 310.608 130.636C310.365 130.697 310.091 130.727 309.848 130.727C309.028 130.727 306.629 129.907 305.414 129.694C305.14 129.633 304.928 129.42 304.837 129.147C303.622 124.375 301.04 113.706 300.706 110.211C300.281 105.712 297.183 85.4692 297.183 85.4692L288.891 87.7792C288.891 87.7792 292.292 102.734 293.234 109.968C293.963 115.56 299.552 127.445 301.313 130.849C302.164 133.402 304.077 133.463 304.533 133.524C304.776 133.554 305.019 133.676 305.201 133.888C305.505 134.253 305.839 134.557 306.234 134.8C306.538 134.983 306.75 135.226 306.963 135.499C307.327 136.016 307.631 136.563 307.935 137.08C308.147 137.445 308.36 137.536 308.664 137.475C308.998 137.384 309.15 137.141 309.15 136.746C309.15 136.168 308.937 135.621 308.664 135.104C308.39 134.618 308.39 134.344 308.724 133.919C308.907 133.676 309.089 133.433 309.362 133.22C309.605 133.007 309.879 132.855 310.213 132.916C310.82 133.068 311.397 133.189 312.035 133.25L312.551 133.341C312.582 133.341 312.825 133.402 312.825 133.402C312.855 133.402 313.736 133.524 314.04 133.524C314.283 133.524 314.678 133.554 315.012 133.554C315.315 133.554 315.953 133.402 315.984 133.402C316.287 133.402 316.53 133.281 316.743 133.098C316.834 133.007 316.925 132.916 316.864 132.794C316.834 132.673 316.713 132.612 316.591 132.581C316.379 132.551 315.376 132.429 315.376 132.369C315.68 132.369 316.652 132.338 316.956 132.338C317.381 132.338 317.715 132.186 318.019 131.882C318.079 131.791 318.201 131.67 318.14 131.487Z" fill="#F7A491"/>
<path d="M292.141 74.9221C296.241 74.1926 299.613 92.4904 299.613 92.4904C299.613 92.4904 290.531 95.0436 288.192 93.7062C288.192 93.7062 285.55 81.9737 284.608 82.3992L292.141 74.9221Z" fill="#9BC1F9"/>
<path d="M193.214 404.252C193.488 403.462 189.721 402.854 189.509 402.064C189.296 401.273 194.277 401.213 194.46 400.514C194.794 399.237 189.023 400.24 189.144 399.662C189.266 399.055 195.158 397.748 194.52 396.714C193.883 395.681 188.537 398.72 188.385 398.052C188.233 397.352 193.609 395.681 193.518 394.161C193.457 393.34 184.679 398.204 183.677 397.778C182.644 397.322 184.771 393.523 183.95 392.945C183.13 392.368 180.822 400.696 180.245 400.969C179.698 401.243 167.822 408.021 163.6 409.085C163.084 407.656 161.99 405.772 161.535 404.435C159.166 406.106 157.404 406.957 154.974 408.507C156.736 412.945 159.257 417.808 160.502 418.356C164.268 420.058 178.787 407.991 181.672 405.954C184.588 403.887 186.228 404.556 188.203 403.918C190.116 403.249 192.941 405.042 193.214 404.252Z" fill="#F7A491"/>
<path d="M154.427 410.635C154.427 410.635 151.177 396.258 151.754 392.094C152.332 387.93 157.252 384.04 160.684 385.499C164.116 386.927 165.665 406.988 165.665 406.988L154.427 410.635Z" fill="#F7CC7F"/>
</svg>
