<svg width="29" height="32" viewBox="0 0 29 32" fill="none" xmlns="http://www.w3.org/2000/svg">
<path d="M27.7407 13.1915C25.8757 11.2689 23.4866 9.93703 20.8707 9.36153C18.9501 8.87884 16.9807 8.61714 15.0007 8.58153V3.28153C14.9693 2.38319 14.5836 1.5338 13.9277 0.919133C13.2718 0.304468 12.3992 -0.0254498 11.5007 0.00153402C10.6022 -0.0254498 9.72957 0.304468 9.07368 0.919133C8.41778 1.5338 8.03199 2.38319 8.00067 3.28153V13.2815L6.40067 11.7015C5.69586 11.0102 4.74796 10.6229 3.76067 10.6229C2.77338 10.6229 1.82548 11.0102 1.12067 11.7015C0.767541 12.0427 0.486464 12.4513 0.294083 12.903C0.101701 13.3548 0.00192672 13.8405 0.000668349 14.3315C-0.0176672 15.2835 0.3419 16.204 1.00067 16.8915L5.66067 22.4115C5.88549 23.8219 6.37038 25.1783 7.09067 26.4115C7.61692 27.3599 8.2922 28.2175 9.09067 28.9515V30.8715C9.08752 31.1453 9.18945 31.4099 9.37547 31.6108C9.5615 31.8117 9.81746 31.9336 10.0907 31.9515H24.0007C24.2739 31.9336 24.5298 31.8117 24.7159 31.6108C24.9019 31.4099 25.0038 31.1453 25.0007 30.8715V28.1715C26.9657 25.8318 28.0297 22.8668 28.0007 19.8115V13.8115C27.9882 13.5811 27.8963 13.362 27.7407 13.1915ZM26.0007 19.8615C26.0646 22.5203 25.1379 25.1078 23.4007 27.1215C23.1799 27.3014 23.0367 27.5591 23.0007 27.8415V30.0015H11.1407V28.5215C11.1409 28.3577 11.1009 28.1964 11.0242 28.0517C10.9475 27.9069 10.8364 27.7833 10.7007 27.6915C9.95125 27.0771 9.33242 26.3189 8.88067 25.4615C8.24367 24.3828 7.83521 23.1847 7.68067 21.9415C7.66994 21.7251 7.58922 21.5181 7.45067 21.3515L2.53067 15.5315C2.37042 15.3734 2.24319 15.185 2.15634 14.9773C2.0695 14.7696 2.02478 14.5467 2.02478 14.3215C2.02478 14.0964 2.0695 13.8735 2.15634 13.6658C2.24319 13.4581 2.37042 13.2697 2.53067 13.1115C2.85993 12.7872 3.30353 12.6055 3.76567 12.6055C4.22781 12.6055 4.67141 12.7872 5.00067 13.1115L8.00067 16.1115V19.2515L10.0007 18.2515V3.28153C10.0362 2.91546 10.2125 2.57746 10.4923 2.33871C10.772 2.09996 11.1336 1.97909 11.5007 2.00153C11.8678 1.97909 12.2293 2.09996 12.5091 2.33871C12.7889 2.57746 12.9651 2.91546 13.0007 3.28153V15.0815L15.0007 15.5115V10.5915C15.8399 10.6081 16.6777 10.6682 17.5107 10.7715V16.0015L19.1107 16.3515V11.0015C19.5207 11.0815 19.9407 11.1715 20.3707 11.2815C20.8891 11.4172 21.3999 11.5808 21.9007 11.7715V16.9215L23.5007 17.2715V12.5015C24.4097 12.9604 25.2509 13.5425 26.0007 14.2315V19.8615Z" fill="white" fill-opacity="0.4"/>
</svg>
