<svg width="25" height="29" viewBox="0 0 25 29" fill="none" xmlns="http://www.w3.org/2000/svg">
<g clip-path="url(#clip0)">
<path d="M1.13636 11.3628H23.8636C24.165 11.3628 24.4541 11.4825 24.6672 11.6956C24.8803 11.9087 25 12.1978 25 12.4991V27.2719C25 27.5733 24.8803 27.8623 24.6672 28.0754C24.4541 28.2885 24.165 28.4082 23.8636 28.4082H1.13636C0.834981 28.4082 0.545943 28.2885 0.332833 28.0754C0.119724 27.8623 0 27.5733 0 27.2719V12.4991C0 12.1978 0.119724 11.9087 0.332833 11.6956C0.545943 11.4825 0.834981 11.3628 1.13636 11.3628Z" fill="#F1C40E"/>
<path d="M1.13636 10.2264H23.8636C24.165 10.2264 24.4541 10.3461 24.6672 10.5592C24.8803 10.7724 25 11.0614 25 11.3628V12.7832C25 13.0846 24.8803 13.3737 24.6672 13.5868C24.4541 13.7999 24.165 13.9196 23.8636 13.9196H1.13636C0.834981 13.9196 0.545943 13.7999 0.332833 13.5868C0.119724 13.3737 0 13.0846 0 12.7832V11.3628C0 11.0614 0.119724 10.7724 0.332833 10.5592C0.545943 10.3461 0.834981 10.2264 1.13636 10.2264Z" fill="#FFF55C"/>
<path d="M20.7388 11.0787C19.4837 11.0787 18.466 11.5239 18.466 12.073C18.466 12.6224 19.4837 13.0673 20.7388 13.0673C21.9939 13.0673 23.0115 12.6222 23.0115 12.073C23.0115 11.5239 21.9939 11.0787 20.7388 11.0787ZM4.2615 11.0787C3.00638 11.0787 1.98877 11.5239 1.98877 12.073C1.98877 12.6224 3.00638 13.0673 4.2615 13.0673C5.51661 13.0673 6.53422 12.6222 6.53422 12.073C6.53422 11.5239 5.51661 11.0787 4.2615 11.0787Z" fill="#364B5E"/>
<path d="M12.4998 0C7.01715 0 2.55664 4.17869 2.55664 9.66449V11.931C2.55664 12.0881 3.31999 12.4991 4.26119 12.4991C5.20238 12.4991 5.96573 12.0881 5.96573 11.931L5.95977 11.9108V9.66449C5.95977 6.05625 8.89357 3.40483 12.4998 3.40483C16.1058 3.40483 19.0399 6.05625 19.0399 9.66449V11.9108L19.0339 11.931C19.0339 12.0881 19.7976 12.4991 20.7385 12.4991C21.6794 12.4991 22.443 12.0881 22.443 11.931V9.66449C22.443 4.17869 17.9825 0 12.4998 0Z" fill="#EBEDEE"/>
<path d="M12.4999 1.70427C7.95725 1.70427 4.26123 5.4233 4.26123 9.9949V12.4992C5.20242 12.4992 5.96578 12.0881 5.96578 11.931L5.95981 11.9108V9.6645C5.95981 6.05626 8.89362 3.40484 12.4999 3.40484C16.1058 3.40484 19.0399 6.05626 19.0399 9.6645V11.9108L19.034 11.931C19.034 12.0881 19.7976 12.4992 20.7385 12.4992V9.9949C20.7385 5.42359 17.0425 1.70427 12.4999 1.70427Z" fill="#BDC3C7"/>
<path d="M0 27.2722C0 27.5735 0.119724 27.8626 0.332833 28.0757C0.545943 28.2888 0.834981 28.4085 1.13636 28.4085H23.8636C24.165 28.4085 24.4541 28.2888 24.6672 28.0757C24.8803 27.8626 25 27.5735 25 27.2722V26.4199H0V27.2722Z" fill="#D8B00C"/>
<path d="M1.13636 13.9196C0.885042 13.9191 0.640997 13.8352 0.442599 13.6809C0.2442 13.5266 0.102699 13.3108 0.0403409 13.0673H0V27.2719C0 27.5733 0.119724 27.8623 0.332833 28.0754C0.545943 28.2885 0.834981 28.4082 1.13636 28.4082H12.5V13.9196H1.13636Z" fill="#E5BA0D"/>
<path d="M0 26.4199V27.2722C0 27.5735 0.119724 27.8626 0.332833 28.0757C0.545943 28.2888 0.834981 28.4085 1.13636 28.4085H12.5V26.4199H0Z" fill="#CDA70C"/>
</g>
<defs>
<clipPath id="clip0">
<rect width="25" height="28.4085" fill="white"/>
</clipPath>
</defs>
</svg>
