<svg width="40" height="33" viewBox="0 0 40 33" fill="none" xmlns="http://www.w3.org/2000/svg">
<path d="M7.93856 32.2944L31.8349 32.2944C35.8115 32.2944 39.0352 29.8605 39.0352 26.8583L39.0352 15.0252C39.0352 12.0228 35.8114 9.58902 31.8349 9.58902L28.4054 9.58902C28.2423 9.58902 28.1101 9.48914 28.1101 9.36602L30.736 0.898787C30.736 0.208627 29.6179 -0.125968 28.9917 0.376843L14.0957 9.58915C10.7824 9.65938 15.0616 9.58915 18.0389 9.58915L7.93864 9.58915C3.96196 9.58915 0.738386 12.023 0.738387 15.0253L0.738388 26.8582C0.738151 29.8606 3.96188 32.2944 7.93856 32.2944Z" fill="#FF0091"/>
<path d="M25.0826 11.618C25.0826 11.7477 25.2107 11.8528 25.3686 11.8528L28.6887 11.8528C32.5384 11.8528 35.6593 14.4157 35.6593 17.5774L35.6593 30.0381C35.6593 30.5731 35.5696 31.0908 35.4025 31.582C37.5736 30.6458 39.0371 28.8812 39.0371 26.8583L39.0371 15.0252C39.0371 12.0229 35.8134 9.58907 31.8369 9.58907L28.4074 9.58907C28.2442 9.58907 28.112 9.48918 28.112 9.36607L30.9383 0.847964C30.9383 0.157801 29.8202 -0.176791 29.1941 0.32602L25.6388 9.58907L25.0826 11.618Z" fill="#D6007E"/>
</svg>
