<svg width="181" height="147" viewBox="0 0 181 147" fill="none" xmlns="http://www.w3.org/2000/svg">
<path d="M107.408 145.355C147.538 145.355 180.07 112.823 180.07 72.6931C180.07 32.5631 147.538 0.03125 107.408 0.03125C67.2779 0.03125 34.7461 32.5631 34.7461 72.6931C34.7461 112.823 67.2779 145.355 107.408 145.355Z" fill="url(#paint0_radial)"/>
<path d="M107.408 145.355C147.538 145.355 180.07 112.823 180.07 72.6931C180.07 32.5631 147.538 0.03125 107.408 0.03125C67.2779 0.03125 34.7461 32.5631 34.7461 72.6931C34.7461 112.823 67.2779 145.355 107.408 145.355Z" fill="url(#paint1_radial)"/>
<path d="M147.263 60.5833C147.263 53.0969 142.859 47.3721 137.795 47.3721C132.51 47.3721 128.547 53.5373 128.547 60.8035C128.547 68.2899 132.951 74.0148 138.015 74.0148C143.299 74.0148 147.483 67.8495 147.263 60.5833Z" fill="url(#paint2_radial)"/>
<path d="M145.282 57.2805C145.282 49.5739 140.658 43.1885 135.153 43.1885C129.649 43.1885 125.245 49.5739 125.465 57.5007C125.465 65.2072 130.089 71.5927 135.594 71.5927C140.878 71.5927 145.282 65.2072 145.282 57.2805Z" fill="url(#paint3_radial)"/>
<path d="M145.281 58.8222C145.281 65.648 141.538 71.3729 136.694 71.3729C131.85 71.3729 127.886 65.8682 127.666 58.8222C127.666 51.9964 131.409 46.2715 136.253 46.2715C141.097 46.4917 145.281 51.9964 145.281 58.8222Z" fill="url(#paint4_radial)"/>
<path d="M143.739 58.8224C143.739 53.0976 140.436 48.4736 136.253 48.4736C132.289 48.4736 128.986 53.0976 128.986 59.0426C128.986 64.7675 132.289 69.3914 136.473 69.3914C140.656 69.3914 143.739 64.7675 143.739 58.8224Z" fill="url(#paint5_radial)"/>
<path d="M133.831 53.7578C133.39 55.0789 132.51 56.1799 131.849 55.9597C131.189 55.7395 130.968 54.4184 131.409 53.0973C131.849 51.7761 132.73 50.6752 133.39 50.8954C133.831 51.1156 134.051 52.2165 133.831 53.7578Z" fill="#A98B57"/>
<path d="M89.1339 61.2444C89.1339 53.7581 84.7301 48.0332 79.6658 48.0332C74.3813 48.0332 70.418 54.1985 70.418 61.4646C70.418 68.951 74.8217 74.6759 79.886 74.6759C84.9503 74.6759 89.1339 68.5106 89.1339 61.2444Z" fill="url(#paint6_radial)"/>
<path d="M86.9322 57.9406C86.9322 50.2341 82.3083 43.8486 76.8036 43.8486C71.2989 43.8486 66.8951 50.2341 67.1153 58.1608C67.1153 65.8674 71.7393 72.2528 77.244 72.2528C82.5285 72.0326 86.9322 65.6472 86.9322 57.9406Z" fill="url(#paint7_radial)"/>
<path d="M86.9314 59.4823C86.9314 66.3081 83.1882 72.033 78.3441 72.033C73.5 72.033 69.5366 66.5283 69.3164 59.4823C69.3164 52.6565 73.0596 46.9316 77.9037 46.9316C82.968 46.9316 86.9314 52.6565 86.9314 59.4823Z" fill="url(#paint8_radial)"/>
<path d="M85.3912 59.4826C85.3912 53.7577 82.0884 49.1338 77.9049 49.1338C73.9415 49.1338 70.6387 53.7577 70.6387 59.7028C70.6387 65.4277 73.9415 70.0516 78.125 70.0516C82.3086 70.0516 85.6114 65.2075 85.3912 59.4826Z" fill="url(#paint9_radial)"/>
<path d="M75.4793 54.418C75.0389 55.7391 74.1582 56.84 73.4976 56.6198C72.837 56.3997 72.6169 55.0785 73.0572 53.7574C73.4976 52.4363 74.3784 51.3354 75.0389 51.5555C75.6995 51.5555 75.9197 52.8767 75.4793 54.418Z" fill="#A98B57"/>
<path d="M126.499 100.838C124.382 103.448 121.557 105.374 118.66 107.091C115.689 108.601 112.084 109.633 108.676 109.896C105.195 109.951 101.776 109.518 98.5537 108.316C95.3312 107.114 92.3054 105.143 90.2454 102.599C93.2601 103.874 96.4097 104.868 99.4863 105.655C102.49 106.234 105.628 106.532 108.621 106.415C111.614 106.298 114.595 105.484 117.784 104.598C120.412 103.442 123.456 102.14 126.499 100.838Z" fill="url(#paint10_radial)"/>
<path d="M51.7218 92.5553C61.7582 90.6167 69.0455 91.2049 70.7171 98.3543C72.7853 109.144 63.1441 114.471 51.8615 118.174L51.7218 92.5553Z" fill="#C9892D"/>
<path d="M32.682 124.683C31.2202 132.98 34.1483 140.248 41.9688 146.485C21.8795 147.348 9.54074 141.638 3.32755 130.746C-2.89866 117.468 1.42693 104.634 12.534 91.7635C21.8919 80.5352 27.0911 66.6922 26.9966 49.3616C26.3159 39.6951 29.8042 34.527 39.2298 35.7314C56.3161 36.8941 51.6446 55.381 45.9725 74.6268C62.3278 79.9379 67.9343 94.7267 55.6805 104.589C59.7471 113.358 56.392 119.907 50.3948 125.591C45.7708 129.761 39.9946 129.918 32.682 124.683Z" fill="#C9892D"/>
<path d="M51.725 93.8107C61.7628 92.1234 66.7889 92.5983 68.2053 98.9956C70.0148 108.405 63.133 113.089 51.8483 116.416L51.725 93.8107Z" fill="#FFD32E"/>
<path d="M28.4118 55.7589C27.2395 71.087 21.9099 84.0516 12.8005 94.7762C0.701085 109.913 -1.85879 124.118 12.4007 136.599C19.0833 141.461 27.3835 143.55 36.431 144.506C30.7489 138.885 28.074 131.992 30.7855 122.559C34.4879 110.608 38.9987 108.699 43.6631 111.939C38.1347 111.467 34.129 113.875 33.9264 122.793C35.9577 126.8 46.0202 129.634 52.2562 121.688C55.7438 116.394 56.4672 110.864 54.3001 104.974C48.6015 96.3392 39.7922 92.9964 27.8754 95.5731C38.9035 91.243 47.5845 94.0842 54.9136 102.333C65.7969 94.4872 58.809 79.706 45.2281 76.5148C38.0644 75.5491 31.044 77.848 24.1595 82.0299C28.0252 76.9853 34.4149 74.1876 43.5812 73.8864C46.5644 68.2187 48.7886 61.5504 49.243 52.7568C49.243 52.7568 50.9142 36.7981 38.2302 36.8672C25.5462 36.9364 29.6492 52.3613 28.4118 55.7589Z" fill="#FFD32E"/>
<path d="M31.17 55.2413C31.17 55.2413 28.3174 38.8049 38.6187 39.3767C48.92 39.9484 46.3601 54.1538 46.3601 54.1538C46.3601 54.1538 44.7919 65.9676 40.2942 70.2621C35.9214 74.4303 31.504 70.4356 31.0037 70.8151C29.3533 67.5588 32.3283 60.3841 31.17 55.2413Z" fill="#FFD32E"/>
<path d="M31.2969 55.2396C31.2969 55.2396 28.5706 38.928 38.7456 39.3749C48.9213 39.9474 46.4864 54.0264 46.4864 54.0264C46.4864 54.0264 44.9181 65.8402 40.5453 70.0085C36.1725 74.1767 31.7551 70.182 31.3804 70.5608C29.4795 67.4315 32.3289 60.2574 31.2969 55.2396Z" fill="#FFD32F"/>
<path d="M31.2976 55.1155C31.2976 55.1155 28.5714 38.804 38.7471 39.3764C48.9228 39.9489 46.4878 54.028 46.4878 54.028C46.4878 54.028 44.9196 65.8417 40.5461 69.8844C36.1732 74.0526 31.7559 70.0579 31.3812 70.4367C29.4803 67.3074 32.456 60.2583 31.2976 55.1155Z" fill="#FFD430"/>
<path d="M31.2967 55.1138C31.2967 55.1138 28.5711 38.9278 38.6212 39.501C48.7969 40.0734 46.2357 54.0276 46.2357 54.0276C46.2357 54.0276 44.7924 65.7151 40.4189 69.7578C36.046 73.926 31.7543 69.9306 31.254 70.3101C29.4794 67.3057 32.4543 60.131 31.2967 55.1138Z" fill="#FFD431"/>
<path d="M31.4206 55.1137C31.4206 55.1137 28.695 38.9277 38.7452 39.5009C48.7953 40.074 46.3589 53.9019 46.3589 53.9019C46.3589 53.9019 44.79 65.5901 40.4165 69.6328C36.043 73.6754 31.7519 69.8056 31.3772 70.1844C29.6026 67.18 32.4527 60.1316 31.4206 55.1137Z" fill="#FFD432"/>
<path d="M31.4198 54.9885C31.4198 54.9885 28.6949 38.9282 38.7451 39.5013C48.7952 40.0744 46.3588 53.9024 46.3588 53.9024C46.3588 53.9024 44.7893 65.465 40.542 69.6325C36.2941 73.6745 31.8774 69.8054 31.5027 70.1842C29.6018 67.0548 32.4519 60.0064 31.4198 54.9885Z" fill="#FFD533"/>
<path d="M31.421 54.9879C31.421 54.9879 28.6967 39.0531 38.6206 39.5013C48.5452 40.0752 46.2337 53.7768 46.2337 53.7768C46.2337 53.7768 44.6648 65.465 40.4169 69.507C36.1689 73.5489 31.8779 69.6791 31.3776 70.0586C29.6023 66.9286 32.5786 60.0051 31.421 54.9879Z" fill="#FFD534"/>
<path d="M31.4194 54.9882C31.4194 54.9882 28.6952 39.0534 38.6197 39.6272C48.5443 40.201 46.1072 53.9034 46.1072 53.9034C46.1072 53.9034 44.537 65.3404 40.289 69.3824C36.0411 73.4243 31.75 69.5545 31.3753 69.9333C29.7256 66.8026 32.5764 59.8798 31.4194 54.9882Z" fill="#FFD535"/>
<path d="M31.5475 54.8623C31.5475 54.8623 28.8239 39.0532 38.7485 39.627C48.673 40.2008 46.2353 53.7775 46.2353 53.7775C46.2353 53.7775 44.665 65.2146 40.4171 69.2565C36.1692 73.2985 31.8781 69.4287 31.5034 69.8075C29.7288 66.8031 32.5795 59.8802 31.5475 54.8623Z" fill="#FFD636"/>
<path d="M31.5474 54.8626C31.5474 54.8626 28.8238 39.0534 38.7484 39.6273C48.5474 40.2018 46.2352 53.7778 46.2352 53.7778C46.2352 53.7778 44.6643 65.0893 40.4163 69.1313C36.1684 73.1732 32.0029 69.3027 31.6282 69.6815C29.728 66.6778 32.5788 59.7549 31.5474 54.8626Z" fill="#FFD637"/>
<path d="M31.5469 54.8632C31.5469 54.8632 28.8241 39.1796 38.623 39.7542C48.422 40.3287 45.9836 53.7798 45.9836 53.7798C45.9836 53.7798 44.4127 65.0913 40.2903 69.1326C36.0424 73.1745 31.8769 69.304 31.5022 69.6828C29.8525 66.5521 32.7039 59.7549 31.5469 54.8632Z" fill="#FFD638"/>
<path d="M31.6718 54.7353C31.6718 54.7353 29.0752 39.1766 38.7479 39.6262C48.5468 40.2007 46.1084 53.6519 46.1084 53.6519C46.1084 53.6519 44.5375 64.9634 40.4144 68.8791C36.2914 72.7948 32.001 69.0505 31.6263 69.4293C29.8517 66.4249 32.7031 59.6276 31.6718 54.7353Z" fill="#FFD739"/>
<path d="M31.6724 54.7361C31.6724 54.7361 29.0758 39.1774 38.7491 39.7525C48.4225 40.3277 46.109 53.6526 46.109 53.6526C46.109 53.6526 44.5374 64.8385 40.4143 68.7542C36.2913 72.6699 32.1265 68.925 31.7518 69.3038C29.9779 66.4249 32.7037 59.6284 31.6724 54.7361Z" fill="#FFD73A"/>
<path d="M31.6717 54.7366C31.6717 54.7366 29.0758 39.3035 38.7491 39.8787C48.4225 40.4539 46.1083 53.6532 46.1083 53.6532C46.1083 53.6532 44.5367 64.839 40.4137 68.7547C36.2906 72.6704 32.1258 68.9255 31.7511 69.3043C29.9765 66.2999 32.7024 59.5033 31.6717 54.7366Z" fill="#FFD73B"/>
<path d="M31.7934 54.6094C31.7934 54.6094 29.1982 39.3018 38.7453 39.7521C48.2931 40.328 45.9789 53.5273 45.9789 53.5273C45.9789 53.5273 44.4066 64.5876 40.4092 68.5026C36.2861 72.4183 32.1213 68.6734 31.7466 69.0522C29.9727 66.1733 32.8248 59.5016 31.7934 54.6094Z" fill="#FFD73C"/>
<path d="M31.7979 54.6092C31.7979 54.6092 29.2027 39.3017 38.7505 39.8776C48.2983 40.4534 45.9834 53.5272 45.9834 53.5272C45.9834 53.5272 44.5367 64.5868 40.4137 68.5025C36.2906 72.4182 32.2514 68.6726 31.8767 69.0514C30.1021 66.0469 32.8286 59.3759 31.7979 54.6092Z" fill="#FFD83D"/>
<path d="M31.7979 54.6104C31.7979 54.6104 29.2034 39.4285 38.7505 39.8788C48.2983 40.4546 45.9834 53.5284 45.9834 53.5284C45.9834 53.5284 44.536 64.4624 40.4129 68.3781C36.2899 72.2938 32.2507 68.5482 31.876 68.927C30.1014 65.9226 32.8286 59.3771 31.7979 54.6104Z" fill="#FFD83E"/>
<path d="M31.7964 54.4835C31.7964 54.4835 29.2019 39.3015 38.6241 39.8781C48.0463 40.4547 45.7307 53.4028 45.7307 53.4028C45.7307 53.4028 44.4096 64.4617 40.2859 68.2518C36.2877 72.0413 32.1236 68.4219 31.7489 68.8007C30.1006 65.9212 32.8271 59.2502 31.7964 54.4835Z" fill="#FFD83F"/>
<path d="M31.9207 54.4831C31.9207 54.4831 29.3269 39.4267 38.7491 40.0032C48.1713 40.5798 45.8558 53.528 45.8558 53.528C45.8558 53.528 44.4076 64.3364 40.2846 68.2521C36.2865 72.0415 32.2479 68.4215 31.8732 68.8003C30.2242 65.7952 32.9514 59.2498 31.9207 54.4831Z" fill="#FFD940"/>
<path d="M31.9215 54.4835C31.9215 54.4835 29.3284 39.5527 38.7499 40.0037C48.0458 40.4553 45.8559 53.4028 45.8559 53.4028C45.8559 53.4028 44.4078 64.2112 40.4096 68.0007C36.4115 71.7901 32.3729 68.1701 31.9982 68.5489C30.2243 65.67 32.9515 59.1246 31.9215 54.4835Z" fill="#FFD941"/>
<path d="M31.9225 54.4822C31.9225 54.4822 29.3294 39.5515 38.7516 40.128C48.0475 40.5797 45.8576 53.5271 45.8576 53.5271C45.8576 53.5271 44.4094 64.3356 40.4113 68.125C36.4132 71.9144 32.3746 68.2944 31.9999 68.6732C30.3502 65.5425 32.9525 59.1234 31.9225 54.4822Z" fill="#FFD942"/>
<path d="M32.0462 54.3576C32.0462 54.3576 29.5793 39.5517 38.7496 40.0041C48.0456 40.4557 45.7293 53.2783 45.7293 53.2783C45.7293 53.2783 44.2806 63.9611 40.2824 67.7506C36.2843 71.54 32.3713 67.9193 31.9966 68.2981C30.3483 65.4186 32.9506 58.9994 32.0462 54.3576Z" fill="#FFDA43"/>
<path d="M32.0463 54.3572C32.0463 54.3572 29.5801 39.6769 38.7504 40.1293C47.9208 40.5816 45.7294 53.2779 45.7294 53.2779C45.7294 53.2779 44.2807 63.9608 40.2818 67.6246C36.2837 71.414 32.3707 67.7933 31.996 68.1721C30.3484 65.4182 33.0756 58.8728 32.0463 54.3572Z" fill="#FFDA44"/>
<path d="M32.0442 54.3574C32.0442 54.3574 29.578 39.6771 38.749 40.255C47.9194 40.7073 45.7281 53.4036 45.7281 53.4036C45.7281 53.4036 44.2786 63.9609 40.406 67.7496C36.5335 71.5384 32.4949 67.9184 32.1202 68.2972C30.4712 65.2921 33.0735 58.8729 32.0442 54.3574Z" fill="#FFDA45"/>
<path d="M32.0426 54.232C32.0426 54.232 29.577 39.6773 38.6218 40.1303C47.6666 40.5834 45.4746 53.1541 45.4746 53.1541C45.4746 53.1541 44.0251 63.7113 40.1518 67.3745C36.2786 71.0377 32.3663 67.5426 31.9916 67.9214C30.4696 65.1667 33.0719 58.7476 32.0426 54.232Z" fill="#FFDB46"/>
<path d="M32.1711 54.2313C32.1711 54.2313 29.7056 39.6766 38.751 40.2552C47.7958 40.7082 45.6031 53.1533 45.6031 53.1533C45.6031 53.1533 44.153 63.585 40.2804 67.3737C36.4072 71.0369 32.4949 67.5418 32.1202 67.9206C30.4718 65.0411 33.0749 58.7475 32.1711 54.2313Z" fill="#FFDB47"/>
<path d="M32.1727 54.2306C32.1727 54.2306 29.7079 39.8014 38.7527 40.2545C47.7974 40.7075 45.6047 53.1526 45.6047 53.1526C45.6047 53.1526 44.1546 63.5843 40.2813 67.2475C36.4081 70.9106 32.4958 67.4155 32.1211 67.7943C30.599 65.0397 33.2014 58.6205 32.1727 54.2306Z" fill="#FFDB48"/>
<path d="M32.1678 54.1054C32.1678 54.1054 29.7036 39.8019 38.7484 40.2549C47.6676 40.7086 45.4749 53.1537 45.4749 53.1537C45.4749 53.1537 44.0241 63.4598 40.2764 67.1223C36.4032 70.7855 32.6165 67.2897 32.2418 67.6685C30.5941 64.9145 33.1971 58.6209 32.1678 54.1054Z" fill="#FFDC49"/>
<path d="M32.2948 54.1045C32.2948 54.1045 29.8306 39.8009 38.7505 40.3802C47.6697 40.8339 45.4763 53.1535 45.4763 53.1535C45.4763 53.1535 44.0254 63.4596 40.2778 67.122C36.4045 70.7852 32.6178 67.2894 32.2431 67.6682C30.5948 64.7887 33.1978 58.4951 32.2948 54.1045Z" fill="#FFDC4A"/>
<path d="M32.2969 54.1055C32.2969 54.1055 29.8334 39.9276 38.7526 40.3813C47.6718 40.835 45.4784 53.1545 45.4784 53.1545C45.4784 53.1545 44.0275 63.4606 40.2792 66.9975C36.5315 70.66 32.6193 67.1649 32.2446 67.5437C30.7218 64.6635 33.1999 58.4962 32.2969 54.1055Z" fill="#FFDC4B"/>
<path d="M32.2934 53.9797C32.2934 53.9797 29.83 39.8018 38.7498 40.3811C47.5434 40.8355 45.4749 53.0287 45.4749 53.0287C45.4749 53.0287 44.149 63.2086 40.2758 66.8717C36.5274 70.4086 32.7414 67.0384 32.3667 67.4172C30.7184 64.5377 33.3221 58.3697 32.2934 53.9797Z" fill="#FFDD4C"/>
<path d="M32.4212 53.9778C32.4212 53.9778 30.084 39.9247 38.7521 40.3798C47.5457 40.8342 45.3509 52.9026 45.3509 52.9026C45.3509 52.9026 44.0249 63.0824 40.151 66.62C36.4027 70.1569 32.6167 66.7867 32.242 67.1655C30.8462 64.5357 33.3243 58.3684 32.4212 53.9778Z" fill="#FFDD4D"/>
<path d="M32.422 53.9789C32.422 53.9789 30.0855 40.0514 38.7535 40.5065C47.4215 40.9616 45.3524 53.0293 45.3524 53.0293C45.3524 53.0293 44.0257 63.0835 40.2774 66.6204C36.529 70.1573 32.743 66.7871 32.4939 67.1652C30.8463 64.4113 33.3244 58.244 32.422 53.9789Z" fill="#FFDD4E"/>
<path d="M32.4181 53.8529C32.4181 53.8529 30.0816 39.9254 38.7496 40.3805C47.4176 40.8356 45.3478 52.7777 45.3478 52.7777C45.3478 52.7777 44.0211 62.832 40.2728 66.3688C36.5244 69.9057 32.864 66.5348 32.4893 66.9136C30.8424 64.2853 33.3212 58.2436 32.4181 53.8529Z" fill="#FFDE4F"/>
<path d="M32.4188 53.8535C32.4188 53.8535 30.0829 40.0516 38.751 40.5067C47.419 40.9618 45.2235 52.9046 45.2235 52.9046C45.2235 52.9046 43.8962 62.8332 40.1479 66.3701C36.3995 69.907 32.7391 66.5361 32.3644 66.9149C30.9679 64.1596 33.4467 58.1179 32.4188 53.8535Z" fill="#FFDE50"/>
<path d="M32.5441 53.8507C32.5441 53.8507 30.209 40.1744 38.7514 40.6302C47.2939 41.0859 45.2233 52.9025 45.2233 52.9025C45.2233 52.9025 43.896 62.8311 40.1476 66.368C36.5249 69.9042 32.7389 66.534 32.4898 66.9121C30.967 64.0319 33.4465 58.1158 32.5441 53.8507Z" fill="#FFDE51"/>
<path d="M32.5456 53.726C32.5456 53.726 30.2105 40.0497 38.7529 40.5055C47.2954 40.9612 45.2248 52.7778 45.2248 52.7778C45.2248 52.7778 43.8968 62.5808 40.2741 66.117C36.6506 69.5277 32.9909 66.2823 32.6162 66.6612C30.9692 64.0328 33.448 57.9911 32.5456 53.726Z" fill="#FFDF52"/>
<path d="M32.5464 53.7258C32.5464 53.7258 30.2119 40.1751 38.7543 40.6309C47.1712 41.0873 45.2255 52.7776 45.2255 52.7776C45.2255 52.7776 43.8975 62.5807 40.2741 65.9913C36.6506 69.4019 32.9909 66.1566 32.6155 66.4098C31.0948 63.9064 33.4487 57.9909 32.5464 53.7258Z" fill="#FFDF53"/>
<path d="M32.6704 53.7253C32.6704 53.7253 30.3359 40.1745 38.7528 40.631C47.1696 41.0874 45.0984 52.7784 45.0984 52.7784C45.0984 52.7784 43.7704 62.5815 40.147 65.9921C36.5235 69.4027 32.8638 66.1574 32.614 66.4099C31.0926 63.7809 33.5721 57.8647 32.6704 53.7253Z" fill="#FFDF54"/>
<path d="M32.6697 53.5998C32.6697 53.5998 30.3359 40.1747 38.7528 40.6311C47.1696 41.0876 45.0977 52.6529 45.0977 52.6529C45.0977 52.6529 43.769 62.3304 40.1456 65.741C36.5222 69.1517 32.988 65.9056 32.6126 66.1589C31.0919 63.6554 33.5721 57.8649 32.6697 53.5998Z" fill="#FFE055"/>
<path d="M32.67 53.5989C32.67 53.5989 30.4625 40.2987 38.7537 40.7558C47.045 41.213 45.098 52.6521 45.098 52.6521C45.098 52.6521 43.7693 62.3296 40.2708 65.6139C36.6473 69.0245 33.1132 65.7785 32.7378 66.0318C31.2171 63.5283 33.5717 57.7384 32.67 53.5989Z" fill="#FFE056"/>
<path d="M32.67 53.5989C32.67 53.5989 30.4625 40.2987 38.7537 40.7558C47.045 41.213 44.9724 52.6527 44.9724 52.6527C44.9724 52.6527 43.643 62.2047 40.1452 65.6146C36.6473 69.0245 32.9876 65.7792 32.7378 66.0318C31.2171 63.5283 33.5717 57.7384 32.67 53.5989Z" fill="#FFE057"/>
<path d="M32.796 53.4732C32.796 53.4732 30.5891 40.2985 38.7548 40.7564C47.0461 41.2135 44.9728 52.5277 44.9728 52.5277C44.9728 52.5277 43.6434 62.0796 40.1449 65.3639C36.647 68.7739 33.1129 65.5279 32.7375 65.7811C31.3431 63.4025 33.6977 57.6127 32.796 53.4732Z" fill="#FFE058"/>
<path d="M32.796 53.4732C32.796 53.4732 30.5891 40.2985 38.7548 40.7564C46.9205 41.2142 44.9728 52.5277 44.9728 52.5277C44.9728 52.5277 43.6428 61.954 40.1449 65.3639C36.6464 68.6483 33.1129 65.5279 32.7375 65.7811C31.3424 63.277 33.6977 57.6127 32.796 53.4732Z" fill="#FFE159"/>
<path d="M32.7936 53.474C32.7936 53.474 30.5875 40.4249 38.7532 40.8828C46.9189 41.3406 44.9705 52.5285 44.9705 52.5285C44.9705 52.5285 43.6404 61.9548 40.1419 65.2392C36.6433 68.5235 33.1098 65.4031 32.86 65.6557C31.3393 63.1522 33.6946 57.4879 32.7936 53.474Z" fill="#FFE15A"/>
<path d="M32.9196 53.3473C32.9196 53.3473 30.7141 40.4238 38.7542 40.8823C46.7944 41.3408 44.846 52.5287 44.846 52.5287C44.846 52.5287 43.5152 61.8295 40.1423 65.1131C36.6437 68.3975 33.2358 65.2764 32.8605 65.5296C31.466 63.1511 33.8213 57.4868 32.9196 53.3473Z" fill="#FFE15B"/>
<path d="M32.9196 53.3473C32.9196 53.3473 30.7141 40.4238 38.7542 40.8823C46.7944 41.3408 44.8453 52.4031 44.8453 52.4031C44.8453 52.4031 43.6401 61.7032 40.1416 64.9876C36.643 68.2719 33.2351 65.1508 32.8605 65.5296C31.4653 63.0255 33.8206 57.3612 32.9196 53.3473Z" fill="#FFE25C"/>
<path d="M32.9212 53.3481C32.9212 53.3481 30.7164 40.5502 38.7565 41.0087C46.7966 41.4672 44.8475 52.5296 44.8475 52.5296C44.8475 52.5296 43.6424 61.8296 40.1431 64.9884C36.7702 68.2721 33.2367 65.1516 32.9869 65.4042C31.4662 62.9007 33.8222 57.362 32.9212 53.3481Z" fill="#FFE25D"/>
<path d="M32.9182 53.2208C32.9182 53.2208 30.7141 40.5485 38.7535 40.8814C46.668 41.3406 44.7183 52.2774 44.7183 52.2774C44.7183 52.2774 43.5124 61.4519 40.0139 64.7362C36.6409 68.0199 33.233 64.8988 32.8577 65.152C31.5888 62.7727 33.8192 57.2347 32.9182 53.2208Z" fill="#FFE25E"/>
<path d="M33.0432 53.2214C33.0432 53.2214 30.8391 40.5491 38.7537 41.0083C46.6682 41.4675 44.7177 52.2786 44.7177 52.2786C44.7177 52.2786 43.5119 61.4531 40.1383 64.6112C36.7646 67.7693 33.3574 64.7737 32.982 65.027C31.5876 62.6484 33.9442 57.2353 33.0432 53.2214Z" fill="#FFE35F"/>
<path d="M33.0448 53.2203C33.0448 53.2203 30.967 40.6729 38.7559 41.1327C46.5448 41.5926 44.72 52.4031 44.72 52.4031C44.72 52.4031 43.5134 61.452 40.1398 64.6101C36.7662 67.7681 33.359 64.7726 33.1092 65.0252C31.5891 62.6473 33.9451 57.1086 33.0448 53.2203Z" fill="#FFE360"/>
<path d="M33.0427 53.0956C33.0427 53.0956 30.9648 40.5481 38.7538 41.008C46.5427 41.4679 44.7172 52.1528 44.7172 52.1528C44.7172 52.1528 43.5106 61.2017 40.137 64.3598C36.7633 67.5178 33.4817 64.5216 33.1064 64.7749C31.7126 62.5219 33.943 56.9839 33.0427 53.0956Z" fill="#FFE361"/>
<path d="M33.1672 53.0941C33.1672 53.0941 31.0901 40.6723 38.7534 41.1329C46.5424 41.5927 44.5913 52.2783 44.5913 52.2783C44.5913 52.2783 43.384 61.2016 40.0104 64.3597C36.6368 67.5178 33.3551 64.5216 32.9798 64.7748C31.7109 62.3956 33.942 56.9831 33.1672 53.0941Z" fill="#FFE462"/>
<path d="M33.1709 53.0956C33.1709 53.0956 31.0944 40.7994 38.7571 41.1343C46.4197 41.4693 44.5942 52.1542 44.5942 52.1542C44.5942 52.1542 43.387 61.0775 40.1389 64.2349C36.8909 67.3923 33.4837 64.3968 33.2339 64.6493C31.8394 62.2708 34.0705 56.8583 33.1709 53.0956Z" fill="#FFE462"/>
<path d="M33.1702 52.9697C33.1702 52.9697 31.0937 40.6734 38.7571 41.134C46.4205 41.5946 44.5942 52.1539 44.5942 52.1539C44.5942 52.1539 43.3863 60.9516 40.1383 64.109C36.8902 67.2664 33.6086 64.2702 33.2332 64.5234C31.8388 62.1448 34.0705 56.858 33.1702 52.9697Z" fill="#FFE463"/>
<path d="M33.2933 52.9696C33.2933 52.9696 31.2175 40.7989 38.8808 41.2594C46.5442 41.72 44.5917 52.1544 44.5917 52.1544C44.5917 52.1544 43.3838 60.9521 40.135 63.984C36.887 67.1414 33.6054 64.1452 33.23 64.3984C31.8362 62.1454 34.0673 56.733 33.2933 52.9696Z" fill="#FFE564"/>
<path d="M33.2956 52.9683C33.2956 52.9683 31.2205 40.9232 38.7576 41.2588C46.2954 41.7201 44.4685 52.1538 44.4685 52.1538C44.4685 52.1538 43.2599 60.8259 40.0118 63.9833C36.7631 67.0152 33.4821 64.1445 33.2324 64.3971C31.9635 62.0178 34.0697 56.7317 33.2956 52.9683Z" fill="#FFE565"/>
<path d="M33.293 52.9695C33.293 52.9695 31.2179 40.9244 38.7557 41.3857C46.2935 41.8469 44.4659 52.155 44.4659 52.155C44.4659 52.155 43.2573 60.8272 40.0085 63.859C36.7598 66.8908 33.6045 64.0195 33.2291 64.2727C31.9602 61.8935 34.192 56.6066 33.293 52.9695Z" fill="#FFE566"/>
<path d="M33.2926 52.8425C33.2926 52.8425 31.2182 40.923 38.7553 41.2586C46.1675 41.7205 44.4648 51.9024 44.4648 51.9024C44.4648 51.9024 43.2562 60.5746 40.1331 63.6057C36.8843 66.6375 33.729 63.7662 33.4792 64.0187C31.9598 61.7664 34.1923 56.6052 33.2926 52.8425Z" fill="#FFE667"/>
<path d="M33.4193 52.843C33.4193 52.843 31.3449 40.9235 38.7571 41.3854C46.1693 41.8474 44.341 52.0299 44.341 52.0299C44.341 52.0299 43.1317 60.5765 40.0085 63.6076C36.8854 66.6387 33.6044 63.7681 33.3546 64.0207C32.0865 61.767 34.1926 56.4808 33.4193 52.843Z" fill="#FFE668"/>
<path d="M33.4186 52.8426C33.4186 52.8426 31.4705 41.048 38.7571 41.5106C46.1686 41.8469 44.3396 51.9039 44.3396 51.9039C44.3396 51.9039 43.1303 60.4505 40.0065 63.356C36.8833 66.3872 33.728 63.5158 33.3526 63.7691C32.0851 61.641 34.192 56.4804 33.4186 52.8426Z" fill="#FFE669"/>
<path d="M33.4194 52.7172C33.4194 52.7172 31.4719 41.0481 38.7579 41.3852C46.0445 41.8478 44.3411 51.9041 44.3411 51.9041C44.3411 51.9041 43.1311 60.3251 40.008 63.3562C36.8848 66.3873 33.7294 63.516 33.4796 63.7685C32.0859 61.5156 34.3183 56.3543 33.4194 52.7172Z" fill="#FFE76A"/>
<path d="M33.542 52.7165C33.542 52.7165 31.5945 41.0475 38.8811 41.5101C46.0415 41.8478 44.3381 51.9041 44.3381 51.9041C44.3381 51.9041 43.2537 60.3244 40.1299 63.2299C37.006 66.1355 33.8514 63.3897 33.6016 63.6423C32.2078 61.3893 34.3154 56.3543 33.542 52.7165Z" fill="#FFE76B"/>
<path d="M33.5429 52.7173C33.5429 52.7173 31.5961 41.1738 38.7564 41.5115C46.0424 41.8486 44.2134 51.9056 44.2134 51.9056C44.2134 51.9056 43.1283 60.2003 40.0052 63.2314C36.8813 66.1369 33.8523 63.3905 33.4769 63.6437C32.208 61.2645 34.3156 56.2295 33.5429 52.7173Z" fill="#FFE76C"/>
<path d="M33.5428 52.5914C33.5428 52.5914 31.596 41.0479 38.757 41.5112C45.9174 41.8489 44.2133 51.7796 44.2133 51.7796C44.2133 51.7796 43.1283 60.0743 40.0044 62.9799C36.8806 65.8854 33.8515 63.139 33.6017 63.3916C32.3342 61.2635 34.3162 56.2292 33.5428 52.5914Z" fill="#FFE86D"/>
<path d="M33.5446 52.591C33.5446 52.591 31.5985 41.1732 38.7596 41.6365C45.9199 41.9742 44.2158 51.9049 44.2158 51.9049C44.2158 51.9049 43.1301 60.074 40.0062 62.9796C37.008 65.8844 33.8533 63.1387 33.6035 63.3912C32.3353 61.1376 34.4429 56.1026 33.5446 52.591Z" fill="#FFE86E"/>
<path d="M33.6685 52.5903C33.6685 52.5903 31.7231 41.298 38.7578 41.6364C45.7926 41.9748 44.0878 51.78 44.0878 51.78C44.0878 51.78 43.0021 59.9491 40.0038 62.854C37.0056 65.7588 33.8509 63.0131 33.6011 63.2656C32.3329 61.012 34.4411 56.1026 33.6685 52.5903Z" fill="#FFE86F"/>
<path d="M33.6664 52.4636C33.6664 52.4636 31.721 41.1713 38.7565 41.6353C45.7912 41.9737 44.0865 51.7788 44.0865 51.7788C44.0865 51.7788 43.0007 59.9479 40.0018 62.7272C37.0035 65.6321 33.9744 62.8857 33.7246 63.1382C32.4565 60.8845 34.4391 55.9758 33.6664 52.4636Z" fill="#FFE870"/>
<path d="M33.6664 52.4644C33.6664 52.4644 31.7217 41.2978 38.7564 41.6362C45.7912 41.9746 44.0857 51.6541 44.0857 51.6541C44.0857 51.6541 42.9993 59.6976 40.0011 62.6025C37.0021 65.3818 33.9737 62.7609 33.7239 63.0135C32.4557 60.7598 34.4391 55.9767 33.6664 52.4644Z" fill="#FFE971"/>
<path d="M33.794 52.4644C33.794 52.4644 31.85 41.4232 38.8848 41.7616C45.7939 42.1007 44.0878 51.6547 44.0878 51.6547C44.0878 51.6547 43.0014 59.6982 40.0024 62.4775C37.0035 65.2568 33.9751 62.636 33.7253 62.8885C32.4578 60.7604 34.566 55.851 33.794 52.4644Z" fill="#FFE972"/>
<path d="M33.7931 52.3377C33.7931 52.3377 31.9747 41.2959 38.7583 41.6357C45.6675 41.9747 43.9613 51.5287 43.9613 51.5287C43.9613 51.5287 42.8742 59.4467 39.8753 62.2259C36.8763 65.0052 33.9735 62.3837 33.7237 62.6362C32.5825 60.6331 34.5658 55.8499 33.7931 52.3377Z" fill="#FFE973"/>
<path d="M33.7939 52.3395C33.7939 52.3395 31.9762 41.4233 38.7598 41.763C45.5433 42.1028 43.9621 51.5305 43.9621 51.5305C43.9621 51.5305 42.875 59.4484 40.0016 62.227C37.1283 65.0056 34.0999 62.3848 33.8501 62.6373C32.5826 60.5093 34.5659 55.7261 33.7939 52.3395Z" fill="#FFEA74"/>
<path d="M33.9169 52.3386C33.9169 52.3386 32.0992 41.4224 38.8834 41.8878C45.667 42.2276 43.9602 51.6559 43.9602 51.6559C43.9602 51.6559 42.8724 59.4483 39.9991 62.2269C37.1257 65.0055 34.0973 62.3847 33.8475 62.6372C32.5793 60.3835 34.5633 55.726 33.9169 52.3386Z" fill="#FFEA75"/>
<path d="M33.9163 52.212C33.9163 52.212 32.0992 41.4214 38.7572 41.7619C45.5408 42.1016 43.8333 51.4044 43.8333 51.4044C43.8333 51.4044 42.8718 59.3217 39.9977 61.9747C37.1244 64.7533 34.2216 62.1318 33.9718 62.3843C32.705 60.3818 34.6883 55.5987 33.9163 52.212Z" fill="#FFEA76"/>
<path d="M33.92 52.2122C33.92 52.2122 32.1036 41.5472 38.7616 41.8876C45.4196 42.2281 43.8377 51.5302 43.8377 51.5302C43.8377 51.5302 42.7492 59.197 39.8759 61.9756C37.0025 64.7542 34.0997 62.1327 33.8499 62.3852C32.708 60.2564 34.692 55.5989 33.92 52.2122Z" fill="#FFEB77"/>
<path d="M33.9195 52.2109C33.9195 52.2109 32.1031 41.5458 38.7611 41.8863C45.4191 42.2267 43.8365 51.4033 43.8365 51.4033C43.8365 51.4033 42.7481 59.07 39.9996 61.7224C37.1255 64.3754 34.2234 61.8795 33.9736 62.132C32.8324 60.1288 34.6908 55.4719 33.9195 52.2109Z" fill="#FFEB78"/>
<path d="M34.0407 52.085C34.0407 52.085 32.225 41.5456 38.883 41.886C45.4154 42.2272 43.8328 51.4037 43.8328 51.4037C43.8328 51.4037 42.7443 59.0705 39.9959 61.7228C37.1218 64.3758 34.3453 61.8792 34.0955 62.1317C32.828 60.0036 34.6871 55.4724 34.0407 52.085Z" fill="#FFEB79"/>
<path d="M34.0397 52.0853C34.0397 52.0853 32.2247 41.6714 38.7571 42.0126C45.2895 42.3537 43.7063 51.4047 43.7063 51.4047C43.7063 51.4047 42.6171 58.9459 39.8686 61.5982C37.1202 64.2505 34.218 61.7546 33.9682 62.0071C32.8263 59.8784 34.811 55.3464 34.0397 52.0853Z" fill="#FFEC7A"/>
<path d="M34.0435 52.0856C34.0435 52.0856 32.2285 41.6717 38.7609 42.0129C45.2933 42.354 43.7093 51.2794 43.7093 51.2794C43.7093 51.2794 42.7458 58.8199 39.8717 61.4729C37.1233 64.1252 34.2211 61.6293 33.9713 61.8818C32.9557 59.878 34.8148 55.3467 34.0435 52.0856Z" fill="#FFEC7B"/>
<path d="M34.1663 51.9598C34.1663 51.9598 32.3519 41.6715 38.8844 42.0126C45.2912 42.3544 43.7072 51.2798 43.7072 51.2798C43.7072 51.2798 42.743 58.6947 39.8689 61.3477C37.1205 64.0001 34.3439 61.5035 34.0941 61.756C32.9529 59.7528 34.812 55.2215 34.1663 51.9598Z" fill="#FFEC7C"/>
<path d="M34.1663 51.9598C34.1663 51.9598 32.4775 41.6708 38.7588 42.0133C45.1656 42.3551 43.581 51.1549 43.581 51.1549C43.581 51.1549 42.6167 58.5698 39.8675 61.0966C37.1191 63.7489 34.3425 61.2523 34.0927 61.5048C32.9522 59.6272 34.8113 55.0959 34.1663 51.9598Z" fill="#FFED7D"/>
<path d="M34.1687 51.96C34.1687 51.96 32.4807 41.7966 38.7619 42.1391C45.1688 42.4809 43.5841 51.2807 43.5841 51.2807C43.5841 51.2807 42.6192 58.57 39.8707 61.2224C37.1215 63.7491 34.3457 61.3781 34.2215 61.6299C33.0796 59.5012 34.9394 55.0955 34.1687 51.96Z" fill="#FFED7E"/>
<path d="M34.1681 51.8335C34.1681 51.8335 32.4807 41.7957 38.7619 42.1382C45.0432 42.4808 43.5834 51.1543 43.5834 51.1543C43.5834 51.1543 42.6185 58.4436 39.8693 60.9703C37.1202 63.4971 34.4699 61.1254 34.2201 61.3779C33.0789 59.3747 34.9387 54.969 34.1681 51.8335Z" fill="#FFED7F"/>
<path d="M34.2938 51.8329C34.2938 51.8329 32.6064 41.7951 38.8877 42.1376C45.1689 42.4801 43.5836 51.1543 43.5836 51.1543C43.5836 51.1543 42.618 58.318 39.8695 60.9704C37.2459 63.4964 34.4701 61.1254 34.2203 61.3779C33.0791 59.3748 34.9389 54.969 34.2938 51.8329Z" fill="#FFEE80"/>
<path d="M34.2943 51.833C34.2943 51.833 32.6076 41.9208 38.7632 42.264C44.9189 42.6072 43.4585 51.1551 43.4585 51.1551C43.4585 51.1551 42.4928 58.3188 39.8693 60.8449C37.2457 63.371 34.4698 60.9999 34.3456 61.2518C33.2044 59.2486 34.9386 54.8436 34.2943 51.833Z" fill="#FFEE81"/>
<path d="M34.2924 51.7081C34.2924 51.7081 32.6057 41.7959 38.7613 42.1391C44.917 42.4823 43.4566 51.0302 43.4566 51.0302C43.4566 51.0302 42.4909 58.1939 39.8674 60.72C37.2438 63.2461 34.5935 60.8743 34.3437 61.1269C33.2025 59.1237 35.063 54.8436 34.2924 51.7081Z" fill="#FFEE82"/>
<path d="M34.4163 51.7072C34.4163 51.7072 32.7303 41.9206 38.886 42.2638C45.0416 42.607 43.4549 51.03 43.4549 51.03C43.4549 51.03 42.4886 58.0682 39.865 60.5942C37.2415 63.1203 34.5912 60.7486 34.3414 61.0011C33.3258 58.9973 35.0607 54.7178 34.4163 51.7072Z" fill="#FFEF83"/>
<path d="M34.4195 51.7058C34.4195 51.7058 32.7342 42.0448 38.7643 42.3886C44.7944 42.7325 43.3326 51.0293 43.3326 51.0293C43.3326 51.0293 42.3662 58.0674 39.742 60.4679C37.1184 62.994 34.4681 60.6223 34.3433 60.7485C33.329 58.9958 35.0639 54.7164 34.4195 51.7058Z" fill="#FFEF84"/>
<path d="M34.4159 51.5801C34.4159 51.5801 32.7306 41.9191 38.7607 42.263C44.7908 42.6068 43.329 50.9036 43.329 50.9036C43.329 50.9036 42.362 57.8162 39.864 60.3416C37.2397 62.742 34.7157 60.4952 34.4653 60.6222C33.3254 58.8702 35.0603 54.5907 34.4159 51.5801Z" fill="#FFEF85"/>
<path d="M34.5442 51.5807C34.5442 51.5807 32.8595 42.0452 38.8896 42.3891C44.7941 42.7336 43.4572 50.9041 43.4572 50.9041C43.4572 50.9041 42.4902 57.8167 39.9915 60.2165C37.4929 62.6163 34.8433 60.3702 34.5928 60.4971C33.4529 58.7451 35.1885 54.5913 34.5442 51.5807Z" fill="#FFF086"/>
<path d="M34.5441 51.5806C34.5441 51.5806 32.9858 42.17 38.8896 42.389C44.7941 42.7336 43.3316 50.9047 43.3316 50.9047C43.3316 50.9047 42.3639 57.6917 39.8652 60.0915C37.3666 62.4913 34.717 60.2452 34.5921 60.3715C33.4522 58.6195 35.1878 54.4656 34.5441 51.5806Z" fill="#FFF087"/>
<path d="M34.5432 51.4549C34.5432 51.4549 32.9848 42.0444 38.7637 42.3896C44.6682 42.7342 43.205 50.7798 43.205 50.7798C43.205 50.7798 42.2373 57.5668 39.7387 59.9666C37.24 62.3663 34.716 60.1195 34.4655 60.2465C33.4513 58.4938 35.1875 54.4655 34.5432 51.4549Z" fill="#FFF088"/>
<path d="M34.5422 51.4557C34.5422 51.4557 32.9845 42.1708 38.7634 42.516C44.5423 42.8613 43.2047 50.9062 43.2047 50.9062C43.2047 50.9062 42.2363 57.5676 39.7377 59.9674C37.239 62.3672 34.715 60.1203 34.4645 60.2473C33.5758 58.4939 35.1858 54.3407 34.5422 51.4557Z" fill="#FFF189"/>
<path d="M34.6678 51.4548C34.6678 51.4548 33.1101 42.1698 38.889 42.515C44.6679 42.8603 43.2041 50.7803 43.2041 50.7803C43.2041 50.7803 42.2357 57.4417 39.8626 59.8408C37.364 62.2406 34.8399 59.9938 34.715 60.1201C33.5752 58.3681 35.3115 54.3398 34.6678 51.4548Z" fill="#FFF18A"/>
<path d="M34.6648 51.3277C34.6648 51.3277 33.1078 42.1683 38.8867 42.5135C44.6657 42.8588 43.2018 50.7788 43.2018 50.7788C43.2018 50.7788 42.359 57.4395 39.8596 59.7137C37.3603 61.9879 34.9619 59.7404 34.7121 59.993C33.6978 58.2403 35.3085 54.2127 34.6648 51.3277Z" fill="#FFF18B"/>
<path d="M34.6625 51.3281C34.6625 51.3281 33.1062 42.2942 38.7589 42.5146C44.4122 42.8605 43.0732 50.6542 43.0732 50.6542C43.0732 50.6542 42.2298 57.1894 39.7304 59.4636C37.3566 61.7371 34.8326 59.4903 34.5828 59.7429C33.6948 58.1151 35.3062 54.2131 34.6625 51.3281Z" fill="#FFF18C"/>
<path d="M34.7929 51.3278C34.7929 51.3278 33.2366 42.294 38.8899 42.64C44.5432 42.9859 43.2036 50.654 43.2036 50.654C43.2036 50.654 42.3601 57.1892 39.8608 59.4634C37.487 61.7369 34.963 59.4901 34.8388 59.742C33.6989 57.9899 35.3103 54.0879 34.7929 51.3278Z" fill="#FFF28D"/>
<path d="M34.7924 51.3278C34.7924 51.3278 33.2367 42.4196 38.8901 42.7655C44.4178 43.1121 43.0782 50.7803 43.0782 50.7803C43.0782 50.7803 42.234 57.1898 39.8602 59.4634C37.4865 61.7369 35.088 59.4894 34.8382 59.7419C33.824 57.9892 35.4354 54.0872 34.7924 51.3278Z" fill="#FFF28E"/>
<path d="M34.7901 51.202C34.7901 51.202 33.2351 42.4194 38.7622 42.6404C44.2899 42.987 42.9496 50.5296 42.9496 50.5296C42.9496 50.5296 42.1054 56.9392 39.7317 59.2127C37.3579 61.4862 34.9595 59.2387 34.7097 59.4912C33.8217 57.8634 35.4331 53.9614 34.7901 51.202Z" fill="#FFF28F"/>
<path d="M34.7917 51.2024C34.7917 51.2024 33.3623 42.419 38.7645 42.7663C44.2922 43.113 42.9519 50.6555 42.9519 50.6555C42.9519 50.6555 42.107 56.9395 39.7333 59.213C37.3595 61.4866 34.9611 59.2391 34.8369 59.4909C33.8226 57.7382 35.4347 53.9618 34.7917 51.2024Z" fill="#FFF390"/>
<path d="M34.9178 51.2005C34.9178 51.2005 33.4891 42.5427 38.8906 42.7644C44.2928 43.1117 42.9518 50.5287 42.9518 50.5287C42.9518 50.5287 42.1069 56.8127 39.7325 58.9606C37.358 61.1086 35.0859 58.986 34.8361 59.2385C33.9481 57.6107 35.4345 53.835 34.9178 51.2005Z" fill="#FFF391"/>
<path d="M34.916 51.077C34.916 51.077 33.4873 42.4192 38.8895 42.7665C44.2916 43.1138 42.9506 50.5308 42.9506 50.5308C42.9506 50.5308 42.1051 56.6892 39.8569 58.962C37.608 61.1093 35.2103 58.9874 34.9605 59.2399C33.9469 57.6128 35.559 53.8364 34.916 51.077Z" fill="#FFF392"/>
<path d="M34.9153 51.0756C34.9153 51.0756 33.4873 42.5434 38.7639 42.8914C44.1654 43.1131 42.8244 50.5301 42.8244 50.5301C42.8244 50.5301 41.9788 56.6885 39.73 58.8357C37.4811 60.983 35.0834 58.8611 34.9591 59.1129C33.9456 57.4858 35.5576 53.7094 34.9153 51.0756Z" fill="#FFF493"/>
<path d="M35.0434 51.0754C35.0434 51.0754 33.6161 42.6688 38.892 42.8912C44.1679 43.1136 42.8262 50.405 42.8262 50.405C42.8262 50.405 41.9807 56.5634 39.7318 58.7107C37.4829 60.858 35.2108 58.7354 34.961 58.9879C34.073 57.3601 35.5601 53.7099 35.0434 51.0754Z" fill="#FFF494"/>
<path d="M35.0402 50.9501C35.0402 50.9501 33.6129 42.5435 38.8895 42.8915C44.1661 43.2395 42.8237 50.4053 42.8237 50.4053C42.8237 50.4053 41.9775 56.4381 39.7286 58.5853C37.4797 60.7326 35.2076 58.61 35.0834 58.8618C34.0698 57.2347 35.5569 53.5846 35.0402 50.9501Z" fill="#FFF495"/>
<path d="M35.0399 50.9496C35.0399 50.9496 33.6133 42.6686 38.7636 42.8917C44.0402 43.2397 42.8234 50.4048 42.8234 50.4048C42.8234 50.4048 41.9771 56.4376 39.7276 58.4593C37.4787 60.6066 35.2066 58.484 35.0824 58.7358C34.1944 57.108 35.6822 53.5835 35.0399 50.9496Z" fill="#FFF596"/>
<path d="M35.0392 50.951C35.0392 50.951 33.6126 42.67 38.7636 43.0187C43.9139 43.2418 42.6971 50.4069 42.6971 50.4069C42.6971 50.4069 41.8502 56.3142 39.7269 58.4607C37.4781 60.608 35.3315 58.4847 35.0817 58.7372C34.1937 57.1094 35.6809 53.4593 35.0392 50.951Z" fill="#FFF597"/>
<path d="M53.3619 95.0557C60.0302 97.2799 55.4256 81.9834 42.848 78.5355C34.9363 78.5786 28.1705 81.5041 21.7876 85.5577L10.7038 102.698C-5.01431 122.124 13.41 138.35 24.5876 138.415C17.29 135.943 17.5504 114.592 29.3354 110.885C34.4617 106.713 49.5448 109.017 49.9003 105.122C50.3808 101.1 44.7035 96.3588 34.6663 98.1718C34.6663 98.1718 26.3997 102.236 25.3704 97.7201C24.3411 93.2046 30.8372 86.8898 37.3682 86.9797C43.7737 87.0704 46.6936 92.8315 53.3619 95.0557Z" fill="#FFD32E"/>
<path d="M53.3647 94.932C60.0329 97.1562 55.4284 81.8596 42.9764 78.4111C35.0646 78.4542 28.2988 81.3796 21.916 85.4332L10.7073 102.7C-4.88595 122 13.4127 138.226 24.4648 138.292C17.2928 135.819 17.4283 114.594 29.2133 110.888C34.3396 106.715 49.2971 109.02 49.7782 105.124C50.2586 101.103 44.5813 96.3613 34.5442 98.1743C34.5442 98.1743 26.2776 102.238 25.2483 97.7227C24.2189 93.2071 30.7151 86.8923 37.2461 86.9823C43.7765 86.9467 46.5708 92.7085 53.3647 94.932Z" fill="#FFD32F"/>
<path d="M53.238 94.8056C59.9063 97.0298 55.428 81.8581 42.8505 78.4102C34.9387 78.4534 28.1729 81.3788 21.79 85.4324L10.8325 102.698C-4.76073 121.998 13.2861 138.1 24.4638 138.165C17.2918 135.692 17.4272 114.467 29.2122 110.761C34.3386 106.588 49.2961 108.893 49.7772 104.997C50.2576 100.976 44.7066 96.3591 34.6694 98.1721C34.6694 98.1721 26.4028 102.236 25.2479 97.7211C24.2186 93.2056 30.8403 86.8901 37.3713 86.9801C43.7761 86.9452 46.5698 92.5814 53.238 94.8056Z" fill="#FFD430"/>
<path d="M53.2382 94.8062C59.9064 97.0305 55.4288 81.9844 42.8513 78.5365C34.9395 78.5796 28.1737 81.5051 21.9164 85.558L10.8326 102.698C-4.63572 121.872 13.2848 137.849 24.3376 138.04C17.1656 135.568 17.301 114.343 29.0868 110.762C34.2131 106.59 49.1706 108.894 49.6517 104.998C50.1321 100.977 44.5818 96.4861 34.6702 98.2984C34.6702 98.2984 26.278 102.363 25.2487 97.8474C24.2194 93.3319 30.8404 86.8908 37.3714 86.9808C43.7762 86.9458 46.4443 92.5827 53.2382 94.8062Z" fill="#FFD431"/>
<path d="M53.1119 94.6797C59.7801 96.9039 55.3032 81.9834 42.8512 78.5348C34.9395 78.578 28.2993 81.5027 21.9164 85.5563L10.8326 102.697C-4.51014 121.87 13.2848 137.848 24.3376 138.039C17.1656 135.566 17.4273 114.466 29.0867 110.76C34.2131 106.588 49.1706 108.893 49.6517 104.997C50.1321 100.975 44.7073 96.4838 34.6702 98.2967C34.6702 98.2967 26.2773 102.236 25.2487 97.8457C24.2194 93.3302 30.8404 86.8891 37.3714 86.9791C43.7762 86.9442 46.4436 92.4555 53.1119 94.6797Z" fill="#FFD432"/>
<path d="M53.1141 94.5545C59.7824 96.7787 55.4317 81.9831 42.8541 78.5353C34.9424 78.5784 28.3022 81.5031 21.9193 85.5567L10.9611 102.696C-4.38234 121.744 13.1608 137.598 24.2142 137.914C17.1678 135.441 17.3039 114.341 28.9641 110.761C34.0904 106.589 49.0479 108.894 49.4034 104.999C49.8838 100.977 44.4598 96.6111 34.5482 98.4234C34.5482 98.4234 26.1553 102.362 25.126 97.8468C24.0967 93.3313 30.8426 86.764 37.3737 86.8539C43.7784 86.819 46.3202 92.331 53.1141 94.5545Z" fill="#FFD533"/>
<path d="M52.9866 94.5559C59.6549 96.7801 55.3049 82.1101 42.7274 78.6622C34.8156 78.7054 28.1747 81.5045 21.7925 85.6837L10.9599 102.823C-4.25862 121.744 13.1589 137.598 24.0868 137.916C17.0404 135.442 17.1772 114.468 28.8366 110.763C33.963 106.59 48.7949 108.896 49.276 105C49.7564 100.978 44.4579 96.6118 34.4208 98.4248C34.4208 98.4248 26.0279 102.364 24.873 97.8489C23.8437 93.3334 30.5896 86.766 37.1206 86.856C43.7766 86.8197 46.3184 92.3317 52.9866 94.5559Z" fill="#FFD534"/>
<path d="M52.9839 94.4306C59.6522 96.6548 55.4285 82.1097 42.8509 78.6618C34.9391 78.705 28.4238 81.5034 22.0417 85.6826L10.9578 102.823C-4.13576 121.618 13.1555 137.348 24.0841 137.79C17.0377 135.317 17.3 114.342 28.8346 110.763C33.9609 106.591 48.7928 108.896 49.2739 105C49.7544 100.979 44.5821 96.737 34.545 98.55C34.545 98.55 26.0265 102.49 24.9972 97.9741C23.9679 93.4585 30.7131 86.7656 37.2442 86.8556C43.7745 86.82 46.1901 92.2071 52.9839 94.4306Z" fill="#FFD535"/>
<path d="M52.857 94.3053C59.5253 96.5295 55.3022 82.1099 42.7247 78.6621C34.8129 78.7052 28.2976 81.5037 21.9154 85.6829L11.0828 102.822C-4.01084 121.617 13.1542 137.222 23.9571 137.665C16.91 135.066 17.1731 114.217 28.7077 110.638C33.834 106.465 48.6666 108.896 49.147 104.875C49.6274 100.853 44.4552 96.6117 34.4181 98.4246C34.4181 98.4246 25.8996 102.364 24.8703 97.8488C23.841 93.3332 30.7118 86.6396 37.2428 86.7296C43.7739 86.8195 46.1887 92.0811 52.857 94.3053Z" fill="#FFD636"/>
<path d="M52.8564 94.3049C59.5247 96.5291 55.3023 82.2351 42.7248 78.7873C34.813 78.8304 28.2977 81.6289 21.9155 85.808L11.0822 102.821C-3.88654 121.49 13.028 137.222 23.9558 137.539C17.0343 134.939 17.1725 114.217 28.707 110.637C33.8334 106.465 48.666 108.896 49.1464 104.874C49.6268 100.853 44.5809 96.7362 34.5437 98.5491C34.5437 98.5491 26.0246 102.363 24.9959 97.9732C23.9666 93.4577 30.8368 86.6385 37.3678 86.7285C43.7726 86.6936 46.0625 92.0813 52.8564 94.3049Z" fill="#FFD637"/>
<path d="M52.7298 94.1805C59.398 96.4047 55.302 82.2357 42.7237 78.6622C34.812 78.7054 28.2967 81.5038 21.9145 85.683L11.0818 102.822C-3.88757 121.365 13.0263 136.971 23.8299 137.54C16.9084 134.941 17.1722 114.217 28.5811 110.639C33.7075 106.466 48.5401 108.897 48.8949 104.876C49.3753 100.855 44.3294 96.7381 34.4178 98.5504C34.4178 98.5504 25.8987 102.364 24.7438 97.8496C23.7144 93.3341 30.5846 86.5149 37.1156 86.6048C43.7722 86.6941 46.0615 91.9563 52.7298 94.1805Z" fill="#FFD638"/>
<path d="M52.7306 94.0538C59.3989 96.278 55.3028 82.109 42.7252 78.6611C34.8134 78.7043 28.4237 81.502 22.0416 85.6812L11.2089 102.82C-3.63491 121.363 13.0271 136.845 23.7051 137.414C16.7836 134.815 17.0481 114.217 28.5826 110.637C33.709 106.465 48.416 108.897 48.8964 104.875C49.3768 100.854 44.4571 96.8619 34.42 98.6748C34.42 98.6748 25.7753 102.49 24.7459 97.9741C23.7166 93.4585 30.7116 86.5131 37.2427 86.603C43.7737 86.693 46.0623 91.8296 52.7306 94.0538Z" fill="#FFD739"/>
<path d="M52.6065 94.0561C59.2748 96.2803 55.1794 82.2368 42.6018 78.7889C34.6901 78.8321 28.3004 81.6298 21.9182 85.809L11.2104 102.822C-3.50849 121.238 12.9023 136.721 23.706 137.29C16.7845 134.691 17.0489 114.093 28.5834 110.513C33.7098 106.341 48.4168 108.773 48.8972 104.751C49.3776 100.73 44.458 96.7378 34.5464 98.5501C34.5464 98.5501 25.9017 102.365 24.8723 97.8493C23.843 93.3338 30.8381 86.3883 37.3691 86.4783C43.6497 86.6952 45.9382 91.8318 52.6065 94.0561Z" fill="#FFD73A"/>
<path d="M52.6046 93.9308C59.2729 96.155 55.3038 82.2364 42.7262 78.7885C34.8144 78.8317 28.4247 81.6294 22.0426 85.8086L11.2092 102.822C-3.38412 121.237 12.9004 136.596 23.5792 137.291C16.7833 134.691 16.9228 114.219 28.4573 110.64C33.5837 106.468 48.2907 108.899 48.7711 104.878C49.2515 100.856 44.4581 96.9893 34.421 98.8022C34.421 98.8022 25.7763 102.617 24.7469 98.1015C23.7176 93.5859 30.7126 86.6405 37.243 86.6049C43.6478 86.5699 45.9364 91.7065 52.6046 93.9308Z" fill="#FFD73B"/>
<path d="M52.603 93.8047C59.2713 96.029 55.3028 82.236 42.7253 78.7881C34.8135 78.8312 28.4238 81.629 22.0409 85.6826L11.3339 102.821C-3.26015 121.111 12.8988 136.47 23.5776 137.165C16.7816 134.565 17.0468 114.093 28.4557 110.514C33.5821 106.342 48.2891 108.773 48.7695 104.752C49.2499 100.73 44.5821 96.8626 34.545 98.6756C34.545 98.6756 25.9002 102.49 24.7453 97.9755C23.716 93.4599 30.8359 86.3882 37.367 86.4782C43.6468 86.5695 45.8091 91.5812 52.603 93.8047Z" fill="#FFD73C"/>
<path d="M52.4775 93.8051C59.1457 96.0294 55.178 82.3619 42.726 78.9134C34.8142 78.9565 28.5501 81.7536 22.1672 85.8072L11.3346 102.946C-3.13452 121.11 12.8989 136.47 23.452 137.166C16.6561 134.565 16.9212 114.093 28.3309 110.64C33.4572 106.468 48.1642 108.899 48.5191 104.878C48.9995 100.857 44.3323 97.1148 34.2952 98.9278C34.2952 98.9278 25.5242 102.618 24.4949 98.1021C23.4655 93.5866 30.5855 86.5148 37.1165 86.6048C43.6469 86.5692 45.8092 91.5809 52.4775 93.8051Z" fill="#FFD83D"/>
<path d="M52.4786 93.6794C59.1469 95.9036 55.3054 82.3611 42.7278 78.9132C34.816 78.9564 28.5519 81.7535 22.169 85.8071L11.3364 102.946C-3.13341 120.984 12.7744 136.345 23.3275 137.041C16.5309 134.315 16.7974 114.094 28.2064 110.515C33.3327 106.343 47.9142 108.775 48.3946 104.753C48.875 100.732 44.3334 96.9891 34.2963 98.8021C34.2963 98.8021 25.5253 102.492 24.496 97.9764C23.4667 93.4609 30.5859 86.2635 37.1169 86.3535C43.6487 86.5691 45.6847 91.4559 52.4786 93.6794Z" fill="#FFD83E"/>
<path d="M52.3514 93.5554C59.0197 95.7796 55.1789 82.3626 42.6013 78.9148C34.6895 78.9579 28.4254 81.755 22.0425 85.8086L11.461 102.946C-2.88317 120.983 12.7721 136.094 23.3259 136.916C16.6549 134.189 16.7958 113.969 28.2055 110.516C33.3318 106.343 47.9132 108.776 48.3937 104.754C48.8741 100.733 44.3332 97.1155 34.4217 98.9278C34.4217 98.9278 25.6506 102.618 24.6213 98.1021C23.592 93.5866 30.8368 86.3886 37.3679 86.4786C43.6471 86.4443 45.6831 91.3311 52.3514 93.5554Z" fill="#FFD83F"/>
<path d="M52.3518 93.5557C59.0201 95.78 55.18 82.4886 42.728 79.0401C34.8162 79.0832 28.5521 81.8803 22.1692 85.9339L11.4615 102.947C-2.88344 120.858 12.7718 135.969 23.2001 136.791C16.5291 134.065 16.7962 113.969 28.0796 110.391C33.206 106.219 47.7874 108.651 48.2678 104.63C48.7489 100.734 44.3336 97.1159 34.2965 98.9289C34.2965 98.9289 25.5255 102.619 24.3706 98.1039C23.3412 93.5884 30.5854 86.2648 37.1164 86.3547C43.6475 86.4447 45.5579 91.3322 52.3518 93.5557Z" fill="#FFD940"/>
<path d="M52.2249 93.4306C58.8932 95.6548 55.1793 82.4884 42.6011 78.9149C34.6893 78.9581 28.5508 81.7545 22.1679 85.8081L11.4608 102.946C-2.75917 120.732 12.6449 135.844 23.1988 136.665C16.5277 133.939 16.7949 113.843 28.079 110.391C33.2053 106.219 47.7867 108.651 48.2672 104.63C48.7476 100.608 44.4586 97.115 34.4214 98.928C34.4214 98.928 25.5248 102.619 24.4955 98.103C23.4662 93.5875 30.7103 86.2639 37.2414 86.3538C43.6468 86.4445 45.5566 91.2064 52.2249 93.4306Z" fill="#FFD941"/>
<path d="M52.2267 93.3039C58.8949 95.5281 55.1811 82.3617 42.6035 78.9138C34.6917 78.957 28.5525 81.6278 22.1703 85.807L11.5888 102.945C-2.50557 120.729 12.6467 135.717 23.0756 136.665C16.4046 133.938 16.6718 113.843 27.9558 110.391C33.0822 106.218 47.6636 108.65 48.0184 104.63C48.4989 100.608 44.2105 97.2408 34.1734 99.0538C34.1734 99.0538 25.2761 102.619 24.2475 98.2288C23.2182 93.7133 30.5872 86.2634 36.9927 86.3541C43.6493 86.4434 45.4335 91.206 52.2267 93.3039Z" fill="#FFD942"/>
<path d="M52.1004 93.305C58.7687 95.5292 55.0555 82.4883 42.6035 79.0398C34.6917 79.0829 28.5525 81.7538 22.1703 85.933L11.5882 102.945C-2.50694 120.604 12.6453 135.592 23.0742 136.54C16.4032 133.813 16.7967 113.843 27.9552 110.391C33.0815 106.219 47.5373 108.652 48.0178 104.63C48.4982 100.609 44.3354 97.2406 34.2983 99.0535C34.2983 99.0535 25.401 102.618 24.3717 98.1029C23.3424 93.5874 30.7114 86.1376 37.2425 86.2275C43.6479 86.3182 45.4321 91.0808 52.1004 93.305Z" fill="#FFDA43"/>
<path d="M52.0998 93.1796C58.768 95.4038 55.1811 82.4878 42.6036 79.04C34.6918 79.0831 28.5526 81.7539 22.1704 85.9331L11.5882 102.945C-2.38197 120.478 12.5191 135.467 22.948 136.415C16.4026 133.688 16.6705 113.718 27.8289 110.266C32.9553 106.094 47.4111 108.527 47.8915 104.505C48.372 100.484 44.2099 97.2414 34.2984 99.0537C34.2984 99.0537 25.4011 102.619 24.2462 98.1038C23.2168 93.5882 30.5852 86.0128 37.1162 86.1028C43.648 86.3183 45.3059 90.956 52.0998 93.1796Z" fill="#FFDA44"/>
<path d="M51.9736 93.0537C58.6419 95.2779 55.0557 82.4875 42.4781 79.0397C34.5664 79.0828 28.5527 81.7529 22.1705 85.9321L11.7139 102.943C-2.13067 120.476 12.6441 135.34 22.9475 136.289C16.4021 133.561 16.6706 113.717 27.9547 110.265C33.081 106.092 47.5368 108.525 48.0173 104.504C48.4977 100.482 44.4612 97.239 34.4241 99.052C34.4241 99.052 25.4012 102.618 24.3719 98.1021C23.3426 93.5866 30.8365 86.0105 37.242 86.1011C43.6481 86.3174 45.306 90.9551 51.9736 93.0537Z" fill="#FFDA45"/>
<path d="M51.9698 93.0539C58.638 95.2781 55.0525 82.6134 42.6005 79.1648C34.6888 79.2079 28.6751 81.8781 22.2929 86.0573L11.7108 103.069C-2.13454 120.476 12.5147 135.341 22.818 136.289C16.2726 133.562 16.5412 113.718 27.8252 110.266C32.9516 106.093 47.4074 108.526 47.8885 104.63C48.3689 100.609 44.3331 97.4911 34.4216 99.3034C34.4216 99.3034 25.3987 102.869 24.3694 98.3535C23.3401 93.838 30.8333 86.1363 37.3644 86.2263C43.6442 86.3176 45.1759 90.8304 51.9698 93.0539Z" fill="#FFDB46"/>
<path d="M51.8462 92.9293C58.5144 95.1535 55.0552 82.6136 42.4776 79.1658C34.5658 79.2089 28.5522 81.879 22.17 86.0582L11.7134 103.07C-2.00697 120.35 12.516 135.09 22.6944 136.165C16.1483 133.312 16.5431 113.593 27.7023 110.266C32.8286 106.094 47.2845 108.527 47.64 104.632C48.1204 100.61 44.2102 97.4921 34.1731 99.3051C34.1731 99.3051 25.1502 102.871 24.1209 98.3552C23.0916 93.8396 30.5848 86.1379 37.1159 86.2279C43.6462 86.1923 45.1779 90.7051 51.8462 92.9293Z" fill="#FFDB47"/>
<path d="M51.8451 92.8022C58.5133 95.0264 55.0548 82.6121 42.4772 79.1642C34.5654 79.2074 28.5518 81.8775 22.1696 86.0567L11.8386 103.067C-1.88181 120.348 12.3893 134.964 22.5684 136.164C16.1479 133.31 16.4178 113.717 27.5763 110.266C32.7026 106.093 47.0329 108.527 47.514 104.631C47.9944 100.61 44.2105 97.6161 34.1733 99.4291C34.1733 99.4291 25.1498 102.869 23.9949 98.3543C22.9656 93.8388 30.5844 86.1364 36.9892 86.1015C43.6458 86.1907 45.0519 90.7042 51.8451 92.8022Z" fill="#FFDB48"/>
<path d="M51.7201 92.8045C58.3884 95.0287 54.9305 82.74 42.4785 79.2915C34.5668 79.3346 28.6787 82.0041 22.2965 86.1833L11.8393 103.069C-1.75625 120.223 12.3893 134.84 22.5684 136.04C16.1479 133.187 16.4178 113.593 27.577 110.267C32.7033 106.095 47.0336 108.529 47.5147 104.633C47.9951 100.611 44.2111 97.6178 34.174 99.4308C34.174 99.4308 25.0249 102.872 23.9955 98.356C22.9662 93.8405 30.5844 86.0125 37.1154 86.1024C43.6465 86.1924 45.0519 90.5803 51.7201 92.8045Z" fill="#FFDC49"/>
<path d="M51.7189 92.6779C58.3872 94.9021 55.0556 82.7382 42.4773 79.1648C34.5655 79.2079 28.6775 81.8774 22.2946 85.931L11.8387 103.068C-1.63189 120.096 12.388 134.713 22.4416 135.914C16.0211 133.061 16.4173 113.592 27.4501 110.141C32.5765 105.969 46.9067 108.403 47.3878 104.507C47.8683 100.485 44.2106 97.6167 34.1735 99.4297C34.1735 99.4297 25.0243 102.87 23.995 98.3549C22.9657 93.8394 30.5838 86.0114 37.1149 86.1014C43.6459 86.1913 44.9251 90.4543 51.7189 92.6779Z" fill="#FFDC4A"/>
<path d="M51.5934 92.5535C58.2617 94.7777 54.9301 82.6139 42.3525 79.166C34.4407 79.2092 28.5527 81.8786 22.1698 85.9322L11.9651 103.068C-1.50554 120.096 12.3881 134.588 22.4417 135.789C16.0212 132.936 16.4173 113.467 27.4509 110.142C32.5773 105.969 46.9075 108.403 47.3886 104.507C47.869 100.486 44.2114 97.6173 34.2998 99.4295C34.2998 99.4295 25.1507 102.87 24.1214 98.3548C23.092 93.8392 30.8351 85.885 37.2406 85.9756C43.646 86.0663 44.9258 90.4549 51.5934 92.5535Z" fill="#FFDC4B"/>
<path d="M51.5936 92.5541C58.2619 94.7783 54.931 82.74 42.479 79.2915C34.5672 79.3346 28.6792 82.0041 22.4219 86.057L11.9653 103.068C-1.38042 119.97 12.2621 134.464 22.3163 135.79C16.0214 132.936 16.292 113.469 27.3255 110.143C32.4519 105.971 46.7821 108.404 47.1377 104.509C47.6181 100.488 44.0867 97.7441 34.0495 99.557C34.0495 99.557 24.9004 102.998 23.7455 98.4829C22.7162 93.9674 30.4592 86.0132 36.9903 86.1031C43.5206 86.0675 44.7998 90.3305 51.5936 92.5541Z" fill="#FFDD4C"/>
<path d="M51.4661 92.4294C58.1344 94.6536 54.9298 82.7403 42.3522 79.2924C34.4404 79.3356 28.6779 82.0043 22.2951 86.058L11.9641 103.069C-1.25674 119.844 12.2602 134.338 22.1888 135.666C15.8939 132.811 16.2908 113.469 27.1988 110.144C32.3251 105.972 46.5298 108.406 47.0109 104.51C47.4913 100.489 43.9599 97.745 34.0483 99.5573C34.0483 99.5573 24.7729 102.873 23.7443 98.4832C22.715 93.9677 30.4573 85.8879 36.9884 85.9778C43.5194 86.0678 44.7979 90.2052 51.4661 92.4294Z" fill="#FFDD4D"/>
<path d="M51.4647 92.3034C58.133 94.5276 54.929 82.7399 42.3515 79.292C34.4397 79.3351 28.6772 82.0039 22.2943 86.0575L12.0896 103.193C-1.13121 119.968 12.2587 134.212 22.1881 135.665C15.8931 132.811 16.29 113.468 27.198 110.144C32.3243 105.971 46.529 108.406 47.0101 104.51C47.4905 100.488 44.0854 97.8695 34.0483 99.6825C34.0483 99.6825 24.7729 102.998 23.7436 98.4828C22.7142 93.9672 30.5822 85.8867 36.9876 85.9774C43.518 85.9418 44.6715 90.2055 51.4647 92.3034Z" fill="#FFDD4E"/>
<path d="M51.3417 92.3046C58.0099 94.5289 54.9322 82.866 42.3547 79.4181C34.4429 79.4613 28.6804 82.13 22.2976 86.1836L12.0921 103.194C-1.00377 119.843 12.135 134.088 22.0644 135.541C15.7687 132.561 16.167 113.47 27.075 110.145C32.3269 105.972 46.5316 108.406 46.8864 104.385C47.3668 100.364 44.0873 97.7445 34.0501 99.5574C34.0501 99.5574 24.7747 102.873 23.6198 98.3584C22.5905 93.8429 30.4578 85.6368 36.9888 85.7268C43.5205 85.9423 44.6734 90.0804 51.3417 92.3046Z" fill="#FFDE4F"/>
<path d="M51.3398 92.1784C58.0081 94.4026 54.9311 82.8653 42.3535 79.4174C34.4417 79.4606 28.6785 82.0038 22.422 86.1823L12.0909 103.193C-0.880064 119.716 12.1331 133.962 21.9369 135.415C15.7669 132.435 16.0395 113.344 27.0731 110.019C32.1994 105.846 46.4048 108.406 46.8852 104.385C47.3656 100.363 44.0867 97.8694 34.0496 99.6823C34.0496 99.6823 24.7742 102.998 23.6193 98.4833C22.59 93.9678 30.4573 85.7617 36.9883 85.8517C43.5194 85.9416 44.5459 89.9548 51.3398 92.1784Z" fill="#FFDE50"/>
<path d="M51.2108 92.0538C57.8791 94.278 54.8028 82.8663 42.2252 79.4184C34.3134 79.4616 28.6758 82.0041 22.2937 86.1833L12.0882 103.193C-0.757188 119.715 12.1298 133.836 21.9335 135.29C15.7635 132.31 16.1624 113.344 27.0704 110.019C32.1967 105.847 46.4021 108.406 46.7569 104.386C47.2373 100.364 44.084 97.8697 34.0469 99.6826C34.0469 99.6826 24.6459 102.999 23.6166 98.4836C22.5873 93.9681 30.5795 85.6357 36.9849 85.7264C43.5167 85.9419 44.5432 89.9551 51.2108 92.0538Z" fill="#FFDE51"/>
<path d="M51.2137 92.0537C57.882 94.2779 54.9319 82.9911 42.3544 79.5433C34.4426 79.5864 28.805 82.1289 22.4228 86.3081L12.2167 103.193C-0.62939 119.589 12.132 133.711 21.9364 135.29C15.7664 132.309 16.1653 113.344 27.0733 110.019C32.1996 105.846 46.2794 108.407 46.7598 104.386C47.2402 100.364 44.0876 97.9952 34.1761 99.8075C34.1761 99.8075 24.7751 103.124 23.7458 98.6085C22.7165 94.0929 30.7086 85.7606 37.2397 85.8505C43.5189 85.8163 44.4199 89.8302 51.2137 92.0537Z" fill="#FFDF52"/>
<path d="M51.0878 91.9286C57.7561 94.1528 54.8067 82.9916 42.2285 79.4181C34.3167 79.4613 28.6791 82.0038 22.2969 86.183L12.2171 103.192C-0.504117 119.462 12.0061 133.586 21.8105 135.165C15.6405 132.184 16.0394 113.218 26.9481 110.019C32.0744 105.847 46.1542 108.407 46.6346 104.386C47.115 100.365 44.0887 98.1205 34.0516 99.9335C34.0516 99.9335 24.6499 103.124 23.495 98.6096C22.4657 94.0941 30.4578 85.7617 36.9882 85.7261C43.5192 85.8161 44.4196 89.7044 51.0878 91.9286Z" fill="#FFDF53"/>
<path d="M51.0859 91.8028C57.7542 94.027 54.8048 82.8658 42.2272 79.418C34.3155 79.4611 28.6779 82.0036 22.4213 86.1821L12.2159 103.192C-0.50534 119.462 11.8786 133.461 21.683 135.04C15.6386 132.059 16.0382 113.218 26.8206 109.894C31.9469 105.722 46.0267 108.282 46.5071 104.261C46.9875 100.24 43.9612 97.9955 34.0497 99.8078C34.0497 99.8078 24.648 102.999 23.4931 98.4839C22.4638 93.9683 30.5808 85.5097 36.9863 85.6003C43.518 85.8159 44.4183 89.7042 51.0859 91.8028Z" fill="#FFDF54"/>
<path d="M50.9618 91.8039C57.6301 94.0281 54.807 82.9918 42.2294 79.5439C34.3177 79.5871 28.8057 82.1289 22.4235 86.3081L12.343 103.192C-0.253354 119.336 12.0043 133.209 21.6838 134.915C15.6394 131.933 16.039 113.093 26.8221 109.895C31.9484 105.722 46.0282 108.283 46.5086 104.261C46.989 100.24 44.089 98.1208 34.0518 99.9337C34.0518 99.9337 24.5246 103.125 23.4953 98.6098C22.4659 94.0943 30.583 85.6357 37.114 85.7256C43.5195 85.8163 44.2936 89.5797 50.9618 91.8039Z" fill="#FFE055"/>
<path d="M50.9593 91.6785C57.6276 93.9027 54.8052 82.992 42.2276 79.5441C34.3158 79.5872 28.8038 82.129 22.4217 86.3082L12.3411 103.192C-0.1296 119.335 11.8769 133.21 21.5564 134.915C15.512 131.934 15.9123 113.219 26.6947 109.895C31.821 105.723 45.9008 108.284 46.2556 104.263C46.736 100.241 43.9616 98.1216 33.9244 99.9346C33.9244 99.9346 24.3972 103.126 23.3679 98.6107C22.3385 94.0951 30.4549 85.5109 36.986 85.6009C43.517 85.6909 44.291 89.4543 50.9593 91.6785Z" fill="#FFE056"/>
<path d="M50.9604 91.5529C57.6286 93.7771 54.8069 82.9919 42.3549 79.5434C34.4431 79.5865 28.9311 82.1283 22.549 86.3075L12.3435 103.318C-0.127865 119.335 11.8779 133.084 21.4326 134.916C15.3881 131.935 15.7884 113.22 26.5715 110.022C31.6978 105.849 45.652 108.411 46.1325 104.389C46.6129 100.368 43.8391 98.3734 33.8019 100.186C33.8019 100.186 24.2747 103.378 23.1198 98.8632C22.0905 94.3476 30.3324 85.7627 36.7379 85.8534C43.5187 85.6908 44.1672 89.4549 50.9604 91.5529Z" fill="#FFE057"/>
<path d="M50.8339 91.5548C57.5022 93.779 54.8067 83.1187 42.2291 79.6709C34.3174 79.714 28.9309 82.2552 22.5481 86.3088L12.4682 103.318C0.121731 119.209 11.8764 132.96 21.431 134.792C15.5114 131.684 15.9124 113.095 26.5699 109.897C31.6963 105.725 45.6505 108.286 46.1309 104.265C46.6113 100.243 43.9631 98.2484 33.926 100.061C33.926 100.061 24.398 103.127 23.2438 98.7381C22.2145 94.2226 30.4558 85.5121 36.9868 85.6021C43.5179 85.6921 44.1656 89.3306 50.8339 91.5548Z" fill="#FFE058"/>
<path d="M50.8328 91.429C57.5011 93.6533 54.8063 83.1186 42.2287 79.6707C34.3169 79.7139 28.9305 82.255 22.5477 86.3086L12.4678 103.318C0.120638 119.084 11.7497 132.835 21.3043 134.667C15.3848 131.559 15.7864 113.096 26.4439 109.898C31.5703 105.725 45.5245 108.287 46.0049 104.265C46.4853 100.244 43.8378 98.3745 33.9262 100.187C33.9262 100.187 24.2727 103.254 23.2434 98.738C22.2141 94.2224 30.4553 85.512 36.9864 85.6019C43.5174 85.6919 44.0389 89.2055 50.8328 91.429Z" fill="#FFE159"/>
<path d="M50.7088 91.3032C57.3771 93.5274 54.683 83.1183 42.231 79.6697C34.3192 79.7129 28.9328 82.254 22.55 86.3076L12.595 103.191C0.373398 118.956 11.8762 132.582 21.3052 134.414C15.3857 131.307 15.7873 112.843 26.4448 109.646C31.5712 105.473 45.5254 108.035 46.0058 104.013C46.4862 99.9917 43.9643 98.1217 33.9271 99.9346C33.9271 99.9346 24.2736 103.001 23.2443 98.4858C22.215 93.9703 30.5812 85.1335 36.9866 85.2242C43.519 85.5653 44.0412 89.2045 50.7088 91.3032Z" fill="#FFE15A"/>
<path d="M50.7071 91.3037C57.3753 93.5279 54.8075 83.2437 42.2299 79.7959C34.3181 79.839 28.9317 82.3801 22.5489 86.4337L12.5939 103.317C0.497218 118.956 11.7488 132.583 21.1786 134.541C15.259 131.434 15.7869 113.095 26.4445 109.897C31.5708 105.725 45.525 108.286 45.8798 104.266C46.3602 100.244 43.9646 98.499 33.9274 100.312C33.9274 100.312 24.2739 103.379 23.119 98.8638C22.0897 94.3483 30.4559 85.5115 36.9869 85.6015C43.5173 85.5659 43.9132 89.0802 50.7071 91.3037Z" fill="#FFE15B"/>
<path d="M50.5795 91.1784C57.2478 93.4026 54.6806 83.244 42.1024 79.6705C34.1906 79.7137 28.9298 82.2541 22.5469 86.3077L12.592 103.191C0.495926 118.955 11.7469 132.457 21.051 134.416C15.257 131.308 15.6594 112.97 26.3169 109.772C31.4432 105.6 45.2718 108.162 45.7523 104.14C46.2327 100.119 43.837 98.3736 33.7999 100.187C33.7999 100.187 24.1464 103.253 22.9914 98.7385C21.9621 94.223 30.3276 85.2606 36.8587 85.3506C43.516 85.5655 43.9112 88.9542 50.5795 91.1784Z" fill="#FFE25C"/>
<path d="M50.5794 91.0517C57.2477 93.2759 54.6805 83.1173 42.2285 79.6687C34.3168 79.7119 29.0559 82.2523 22.6731 86.3059L12.7181 103.189C0.746306 118.702 11.7454 132.079 21.0502 134.164C15.2569 131.181 15.66 112.969 26.1919 109.772C31.3182 105.599 45.1468 108.161 45.6273 104.14C46.1077 100.118 43.8383 98.4981 33.8011 100.311C33.8011 100.311 24.022 103.378 22.9927 98.8629C21.9634 94.3474 30.4545 85.3844 36.8599 85.475C43.5166 85.5643 43.7862 88.9537 50.5794 91.0517Z" fill="#FFE25D"/>
<path d="M50.4526 91.0529C57.1209 93.2771 54.68 83.2434 42.1024 79.7955C34.1906 79.8387 28.9291 82.2535 22.5469 86.4327L12.7176 103.315C0.870663 118.701 11.6186 132.081 20.9234 134.165C15.1294 131.057 15.5325 112.844 26.19 109.647C31.3163 105.474 45.1449 108.036 45.6253 104.015C46.1058 99.9933 43.8364 98.373 33.9248 100.185C33.9248 100.185 24.145 103.127 23.1157 98.6116C22.0864 94.0961 30.5768 85.0075 37.1078 85.0975C43.3891 85.44 43.7843 88.8287 50.4526 91.0529Z" fill="#FFE25E"/>
<path d="M50.4519 90.9273C57.1202 93.1515 54.68 83.2434 42.1024 79.7955C34.1906 79.8387 28.9291 82.2535 22.5469 86.4327L12.7176 103.315C0.869978 118.576 11.6179 131.955 20.9227 134.039C15.1288 130.931 15.6574 112.718 26.19 109.647C31.3163 105.474 45.1449 108.036 45.6253 104.015C46.1058 99.9933 43.9626 98.4979 33.9255 100.311C33.9255 100.311 24.1457 103.253 22.9908 98.7379C21.9615 94.2224 30.4519 85.1337 36.9829 85.2237C43.3891 85.44 43.658 88.7038 50.4519 90.9273Z" fill="#FFE35F"/>
<path d="M50.3292 90.8025C56.9975 93.0268 54.558 83.2442 42.106 79.7957C34.1942 79.8388 29.0583 82.253 22.6761 86.4322L12.7219 103.441C0.999864 118.701 11.4959 131.956 20.8014 134.166C15.0068 130.932 15.5361 112.845 26.0687 109.773C31.195 105.601 45.0236 108.163 45.3792 104.267C45.8596 100.246 43.7164 98.7506 33.8049 100.563C33.8049 100.563 24.0251 103.505 22.8702 98.9899C21.8409 94.4744 30.4569 85.3851 36.8616 85.3501C43.3927 85.4401 43.6616 88.7039 50.3292 90.8025Z" fill="#FFE360"/>
<path d="M50.329 90.8035C56.9973 93.0277 54.684 83.37 42.1065 79.9222C34.1947 79.9653 29.0588 82.3795 22.6766 86.5587L12.8472 103.441C1.12454 118.575 11.495 131.831 20.8005 134.041C15.1315 130.807 15.5359 112.845 26.0685 109.774C31.1948 105.602 44.8978 108.164 45.3789 104.268C45.8594 100.247 43.8425 98.8764 33.8054 100.689C33.8054 100.689 23.9 103.632 22.8707 99.1164C21.7151 94.4759 30.4559 85.2604 36.987 85.3504C43.3925 85.441 43.5352 88.5799 50.329 90.8035Z" fill="#FFE361"/>
<path d="M50.2019 90.6769C56.8702 92.9011 54.5576 83.3691 41.9801 79.9212C34.0683 79.9643 28.9324 82.3785 22.5502 86.5577L12.8464 103.439C1.24861 118.448 11.4928 131.578 20.6734 133.914C15.0044 130.68 15.535 112.844 25.9414 109.647C31.0677 105.475 44.7707 108.038 45.2519 104.142C45.733 100.246 43.841 98.7492 33.8039 100.562C33.8039 100.562 23.8985 103.505 22.8692 98.9891C21.7142 94.4743 30.4544 85.1331 36.9855 85.2231C43.391 85.3138 43.5337 88.4527 50.2019 90.6769Z" fill="#FFE462"/>
<path d="M50.1977 90.5514C56.8659 92.7757 54.5541 83.3692 42.1021 79.9206C34.1903 79.9638 29.0544 82.378 22.6722 86.5572L12.8428 103.439C1.37061 118.447 11.3636 131.579 20.5436 133.79C14.8745 130.555 15.4052 112.719 25.8122 109.648C30.9385 105.476 44.6416 108.038 45.1227 104.143C45.6031 100.121 43.7125 98.8756 33.6754 100.689C33.6754 100.689 23.7693 103.505 22.6144 98.9906C21.5851 94.4751 30.3253 85.134 36.7307 85.2246C43.3874 85.3139 43.4045 88.4535 50.1977 90.5514Z" fill="#FFE462"/>
<path d="M50.0764 90.5521C56.7447 92.7763 54.5591 83.4947 41.9815 80.0468C34.0697 80.09 29.0594 82.5035 22.6772 86.6827L12.9728 103.439C1.49985 118.321 11.3666 131.328 20.5472 133.664C14.8782 130.43 15.4088 112.593 25.8159 109.522C30.9422 105.35 44.6452 107.913 45.1263 104.017C45.6067 99.9955 43.8424 98.8748 33.8046 100.562C33.8046 100.562 23.8985 103.379 22.7436 98.8643C21.7143 94.3488 30.4545 85.0076 36.9856 85.0976C43.3917 85.3138 43.4081 88.3278 50.0764 90.5521Z" fill="#FFE463"/>
<path d="M50.075 90.4268C56.7433 92.651 54.5584 83.495 41.9808 80.0471C34.069 80.0903 29.0587 82.5037 22.6765 86.6829L12.9721 103.439C1.62474 118.32 11.3652 131.203 20.421 133.665C14.8775 130.43 15.2832 112.72 25.6903 109.649C30.8166 105.477 44.5196 108.039 44.8752 104.144C45.3556 100.123 43.5912 99.0021 33.6797 100.814C33.6797 100.814 23.6481 103.632 22.6187 99.1164C21.5894 94.6009 30.3289 85.1342 36.86 85.2241C43.391 85.3141 43.2812 88.2032 50.075 90.4268Z" fill="#FFE564"/>
<path d="M49.9504 90.4276C56.6187 92.6518 54.4345 83.6214 41.9818 80.0473C34.07 80.0904 29.0597 82.5039 22.6768 86.5575L12.973 103.439C1.75062 118.194 11.2399 131.078 20.2957 133.54C14.7522 130.305 15.2835 112.594 25.565 109.524C30.6913 105.352 44.2688 107.915 44.7499 104.019C45.2303 99.998 43.5922 99.0022 33.5551 100.815C33.5551 100.815 23.5235 103.633 22.4941 99.1172C21.4648 94.6017 30.3299 85.1343 36.7354 85.225C43.3913 85.1887 43.2822 88.2034 49.9504 90.4276Z" fill="#FFE565"/>
<path d="M49.9463 90.302C56.6146 92.5262 54.556 83.4951 41.9784 80.0472C34.0666 80.0904 29.0563 82.5039 22.6734 86.5575L12.9696 103.439C1.74653 118.068 11.2359 130.952 20.166 133.415C14.6225 130.18 15.1546 112.595 25.5616 109.524C30.6879 105.352 44.2654 107.915 44.7465 104.019C45.2269 99.9979 43.5888 99.0022 33.6773 100.814C33.6773 100.814 23.6456 103.632 22.4907 99.1172C21.4614 94.6017 30.3258 85.0087 36.8569 85.0987C43.3879 85.1886 43.1525 88.0784 49.9463 90.302Z" fill="#FFE566"/>
<path d="M49.8209 90.1769C56.4891 92.4011 54.4312 83.4956 41.8536 80.0478C33.9418 80.0909 29.0571 82.5037 22.6742 86.5573L13.096 103.438C1.99781 117.941 11.236 130.827 20.1661 133.29C14.6226 130.055 15.1547 112.469 25.5617 109.399C30.688 105.226 44.2655 107.789 44.7466 103.894C45.227 99.8722 43.7152 99.0013 33.6781 100.814C33.6781 100.814 23.6457 103.506 22.4915 99.1171C21.4622 94.6015 30.3266 85.0085 36.8576 85.0985C43.3887 85.1885 43.1526 87.9527 49.8209 90.1769Z" fill="#FFE667"/>
<path d="M49.8236 90.1786C56.4918 92.4028 54.5601 83.6222 41.9826 80.1743C34.0708 80.2174 29.186 82.6302 22.8032 86.6839L13.0994 103.566C2.12678 118.068 11.2387 130.828 20.0432 133.292C14.6246 129.931 15.1574 112.471 25.4395 109.526C30.5658 105.354 44.1433 107.917 44.6244 104.022C45.1048 100 43.7186 99.1286 33.6815 100.942C33.6815 100.942 23.5235 103.634 22.4942 99.1187C21.4649 94.6032 30.4542 84.8839 36.8597 84.9746C43.3914 85.1901 43.0297 87.955 49.8236 90.1786Z" fill="#FFE668"/>
<path d="M49.6957 90.0522C56.364 92.2764 54.433 83.6214 41.8554 80.1735C33.9436 80.2167 29.0589 82.6295 22.676 86.6831L13.2234 103.563C2.2501 117.94 11.2364 130.701 20.041 133.165C14.6224 129.804 15.1558 112.47 25.4372 109.399C30.5636 105.227 44.1417 107.916 44.4965 103.895C44.9769 99.8738 43.5914 99.1278 33.5543 100.941C33.5543 100.941 23.3964 103.633 22.3671 99.118C21.3377 94.6024 30.327 84.8831 36.8581 84.9731C43.3891 85.0631 43.0274 87.828 49.6957 90.0522Z" fill="#FFE669"/>
<path d="M49.6952 89.9268C56.3635 92.151 54.4332 83.6215 41.8556 80.1737C33.9438 80.2168 29.0591 82.6296 22.6762 86.6832L13.2236 103.564C2.37518 117.814 11.1096 130.451 19.9156 133.166C14.497 129.804 15.0304 112.47 25.3125 109.526C30.4388 105.353 43.8914 108.043 44.3718 104.022C44.8522 100 43.5923 99.2535 33.5552 101.066C33.5552 101.066 23.3972 103.759 22.2423 99.2443C21.213 94.7288 30.2023 85.0095 36.7327 84.9739C43.3893 85.0632 42.9014 87.7032 49.6952 89.9268Z" fill="#FFE76A"/>
<path d="M49.5678 89.9278C56.2361 92.152 54.432 83.7475 41.8544 80.2996C33.9427 80.3428 29.1828 82.6293 22.8006 86.8085L13.2218 103.564C2.37334 117.814 11.1071 130.326 19.7875 133.041C14.3689 129.68 14.903 112.471 25.1851 109.527C30.3114 105.355 43.764 108.044 44.2444 104.023C44.7248 100.001 43.4655 99.3802 33.554 101.192C33.554 101.192 23.3961 103.885 22.2412 99.3703C21.2119 94.8548 30.3261 85.0092 36.7315 85.0999C43.3875 85.0636 42.8995 87.7036 49.5678 89.9278Z" fill="#FFE76B"/>
<path d="M49.5682 89.8031C56.2365 92.0273 54.4331 83.7483 41.8556 80.3005C33.9438 80.3436 29.1839 82.6301 22.8017 86.8093L13.3484 103.564C2.62494 117.688 11.1075 130.201 19.9135 132.916C14.6205 129.554 15.1546 112.345 25.3111 109.401C30.4374 105.229 43.89 107.919 44.3704 103.897C44.8508 99.8758 43.7171 99.254 33.68 101.067C33.68 101.067 23.3965 103.76 22.3672 99.2449C21.3379 94.7293 30.4521 84.8838 36.9831 84.9738C43.3886 85.0644 42.7744 87.5795 49.5682 89.8031Z" fill="#FFE76C"/>
<path d="M49.4409 89.6783C56.1092 91.9025 54.3065 83.7491 41.7289 80.3013C33.8172 80.3444 29.0573 82.6309 22.6751 86.8101L13.3474 103.564C2.7488 117.562 10.9802 130.076 19.7862 132.791C14.3676 129.43 15.0279 112.346 25.1845 109.402C30.3108 105.23 43.7634 107.919 44.2438 103.898C44.7242 99.8766 43.7168 99.3797 33.6797 101.193C33.6797 101.193 23.3955 103.761 22.3662 99.245C21.3368 94.7295 30.4504 84.7583 36.9814 84.8483C43.3869 84.939 42.7726 87.4541 49.4409 89.6783Z" fill="#FFE86D"/>
<path d="M49.44 89.6783C56.1082 91.9025 54.4318 83.874 41.8536 80.3006C33.9418 80.3437 29.1819 82.6302 22.9253 86.8087L13.3465 103.564C2.74784 117.562 10.9786 129.95 19.6589 132.666C14.3659 129.304 14.9014 112.347 25.0579 109.403C30.1843 105.231 43.6368 107.92 43.9917 103.899C44.4721 99.8779 43.4647 99.3811 33.4275 101.194C33.4275 101.194 23.1434 103.762 21.9885 99.247C20.9591 94.7315 30.1982 84.7597 36.6037 84.8503C43.3859 84.9389 42.7717 87.454 49.44 89.6783Z" fill="#FFE86E"/>
<path d="M49.3156 89.5532C55.9839 91.7774 54.3075 83.7489 41.7299 80.301C33.8181 80.3442 29.1839 82.63 22.8017 86.8092L13.474 103.563C3.00027 117.435 10.9799 129.825 19.5353 132.667C14.2423 129.305 14.9027 112.221 24.9343 109.403C30.0606 105.231 43.3876 107.921 43.868 103.9C44.3484 99.8784 43.4673 99.5065 33.4302 101.319C33.4302 101.319 23.146 103.887 21.9911 99.3724C20.9618 94.8569 30.2002 84.7595 36.7312 84.8495C43.2623 84.9394 42.6474 87.3289 49.3156 89.5532Z" fill="#FFE86F"/>
<path d="M49.315 89.4276C55.9832 91.6518 54.3075 83.7489 41.8555 80.3004C33.9437 80.3435 29.3094 82.6293 22.9273 86.8085L13.474 103.563C3.00027 117.435 10.9792 129.699 19.5346 132.541C14.3665 129.053 14.9027 112.221 24.9336 109.278C30.06 105.105 43.3869 107.796 43.8673 103.774C44.3478 99.7528 43.4666 99.3809 33.5551 101.193C33.5551 101.193 23.1453 103.762 22.116 99.2461C21.0867 94.7306 30.3251 84.6332 36.8561 84.7232C43.2616 84.8138 42.6467 87.2034 49.315 89.4276Z" fill="#FFE870"/>
<path d="M49.3156 89.4268C55.9839 91.651 54.4344 83.873 41.8569 80.4252C33.9451 80.4683 29.3108 82.7542 22.9286 86.9334L13.6009 103.687C3.25211 117.433 10.9792 129.573 19.5353 132.54C14.3672 129.052 14.9033 112.22 25.0606 109.402C30.1869 105.23 43.5139 107.92 43.9943 103.898C44.4747 99.877 43.7198 99.6299 33.6827 101.443C33.6827 101.443 23.2729 104.011 22.2436 99.4959C21.2143 94.9803 30.5776 84.7567 36.9831 84.8473C43.2623 84.8131 42.5218 87.2033 49.3156 89.4268Z" fill="#FFE971"/>
<path d="M49.1883 89.3017C55.8566 91.5259 54.3078 83.8735 41.7302 80.4256C33.8184 80.4688 29.1842 82.7546 22.9276 86.9331L13.5999 103.687C3.25035 117.307 10.8518 129.448 19.2824 132.416C14.1143 128.927 14.6504 112.096 24.8076 109.277C29.934 105.105 43.2609 107.795 43.7413 103.774C44.2218 99.7525 43.4669 99.5055 33.5554 101.318C33.5554 101.318 23.1449 103.761 21.9907 99.3714C20.9614 94.8559 30.3247 84.6322 36.8557 84.7222C43.2612 84.8129 42.52 87.0775 49.1883 89.3017Z" fill="#FFE972"/>
<path d="M49.1879 89.1771C55.8562 91.4013 54.3081 83.8745 41.8561 80.426C33.9443 80.4691 29.4356 82.7543 23.0528 86.8079L13.7251 103.562C3.50047 117.056 10.9763 129.197 19.4069 132.165C14.2388 128.677 14.9012 111.97 24.9328 109.152C30.0592 104.98 43.3861 107.67 43.741 103.649C44.2214 99.628 43.5928 99.5058 33.5557 101.319C33.5557 101.319 23.1452 103.762 21.9903 99.2468C20.961 94.7313 30.3236 84.3821 36.8547 84.472C43.2615 84.8139 42.3941 86.9536 49.1879 89.1771Z" fill="#FFE973"/>
<path d="M49.0613 89.1766C55.7295 91.4008 54.3077 83.9989 41.7302 80.5511C33.8184 80.5942 29.3097 82.8794 22.9268 86.933L13.5991 103.687C3.5001 117.18 10.7241 129.197 19.1554 132.291C14.1128 128.802 14.6497 112.096 24.6813 109.278C29.8076 105.106 43.009 107.797 43.4894 103.775C43.9699 99.7537 43.4675 99.7565 33.4297 101.444C33.4297 101.444 22.8937 103.887 21.8644 99.3719C20.835 94.8564 30.3233 84.5065 36.7287 84.5971C43.2598 84.6871 42.393 86.9524 49.0613 89.1766Z" fill="#FFEA74"/>
<path d="M49.0611 89.0513C55.7294 91.2755 54.3082 83.9992 41.7307 80.5513C33.8189 80.5945 29.3102 82.8796 22.9273 86.9333L13.5996 103.687C3.6255 117.054 10.7239 129.072 19.0296 132.166C13.9871 128.677 14.5246 112.097 24.5562 109.279C29.6826 105.107 42.8839 107.798 43.3644 103.776C43.8448 99.7547 43.3424 99.7575 33.3053 101.57C33.3053 101.57 22.7693 104.014 21.74 99.4985C20.7106 94.9829 30.1982 84.5074 36.7292 84.5974C43.2603 84.6874 42.2672 86.8278 49.0611 89.0513Z" fill="#FFEA75"/>
<path d="M48.9363 88.9266C55.6045 91.1508 54.1841 84.0001 41.7321 80.5515C33.8203 80.5947 29.3116 82.8798 23.0544 86.9328L13.8522 103.686C3.87743 116.927 10.8503 128.946 19.1559 132.04C14.1134 128.551 14.7765 111.97 24.6826 109.153C29.8089 104.981 43.0103 107.671 43.4907 103.65C43.9711 99.6286 43.5951 99.7563 33.5579 101.569C33.5579 101.569 23.0219 104.013 21.867 99.498C20.8377 94.9825 30.3252 84.507 36.8562 84.5969C43.2617 84.6876 42.268 86.7024 48.9363 88.9266Z" fill="#FFEA76"/>
<path d="M48.9345 88.9267C55.6028 91.1509 54.3086 84.1251 41.7303 80.5516C33.8185 80.5948 29.4354 82.8793 23.0526 86.9329L13.8504 103.686C4.00122 116.927 10.7222 128.821 19.0279 131.915C13.9854 128.426 14.6491 111.971 24.5552 109.154C29.6815 104.981 42.8829 107.672 43.3633 103.651C43.8438 99.6294 43.4677 99.7571 33.5561 101.569C33.5561 101.569 23.0201 104.013 21.8652 99.4981C20.8359 94.9826 30.449 84.5064 36.8538 84.4715C43.2599 84.6877 42.1406 86.7032 48.9345 88.9267Z" fill="#FFEB77"/>
<path d="M48.8098 88.8014C55.4781 91.0257 54.1839 83.9998 41.6063 80.5519C33.6946 80.5951 29.3114 82.8796 22.9286 86.9332L13.7265 103.687C4.00283 116.926 10.5976 128.695 18.9039 131.915C13.9863 128.3 14.5252 111.971 24.4312 109.154C29.5576 104.982 42.7589 107.673 43.1138 103.652C43.5942 99.6304 43.3444 99.883 33.3073 101.696C33.3073 101.696 22.645 104.015 21.6156 99.4991C20.5863 94.9836 30.1988 84.3818 36.7298 84.4718C43.2608 84.5617 42.1415 86.5772 48.8098 88.8014Z" fill="#FFEB78"/>
<path d="M48.8102 88.6763C55.4784 90.9005 54.1849 84.0003 41.733 80.5517C33.8212 80.5949 29.4374 82.7537 23.0552 86.9329L13.8531 103.686C4.12876 116.8 10.5979 128.57 18.7787 131.791C13.861 128.176 14.3999 111.846 24.3067 109.155C29.433 104.983 42.5088 107.674 42.9899 103.779C43.4703 99.7571 43.2205 100.01 33.309 101.822C33.309 101.822 22.6467 104.141 21.6174 99.6251C20.588 95.1096 30.2005 84.5078 36.7315 84.5978C43.2619 84.5622 42.0163 86.4528 48.8102 88.6763Z" fill="#FFEB79"/>
<path d="M48.685 88.6767C55.3533 90.9009 54.186 84.1256 41.6085 80.6777C33.6967 80.7208 29.4385 82.8791 23.0563 87.0582L13.8542 103.812C4.25406 116.674 10.5976 128.445 18.7784 131.665C13.8608 128.05 14.5259 111.846 24.3064 109.029C29.4327 104.857 42.5085 107.549 42.9896 103.653C43.47 99.6313 43.3465 100.009 33.3094 101.822C33.3094 101.822 22.6471 104.14 21.4922 99.6255C20.4629 95.11 30.2002 84.382 36.6057 84.4726C43.2623 84.5619 42.0167 86.4525 48.685 88.6767Z" fill="#FFEC7A"/>
<path d="M48.6813 88.55C55.3495 90.7742 54.183 84.1244 41.6054 80.6765C33.6936 80.7197 29.4354 82.8779 23.0533 87.0571L13.9767 103.81C4.5022 116.671 10.5939 128.318 18.7754 131.664C13.8577 128.049 14.5229 111.844 24.304 109.154C29.4304 104.981 42.5062 107.673 42.9873 103.777C43.4677 99.7557 43.4697 100.132 33.4326 101.945C33.4326 101.945 22.7703 104.264 21.6154 99.7493C20.5861 95.2337 30.3234 84.5057 36.8545 84.5956C43.2592 84.5607 41.8874 86.3264 48.6813 88.55Z" fill="#FFEC7B"/>
<path d="M48.5558 88.4249C55.2241 90.6491 54.0582 84.1249 41.6063 80.6763C33.6945 80.7195 29.4363 82.8777 23.0541 87.0569L13.9776 103.81C4.50235 116.546 10.4685 128.193 18.6499 131.539C13.8579 127.923 14.3981 111.845 24.3042 109.028C29.4305 104.856 42.5063 107.547 42.9874 103.651C43.4679 99.6299 43.4706 100.132 33.4335 101.945C33.4335 101.945 22.6456 104.265 21.6163 99.7491C20.5869 95.2335 30.3236 84.3799 36.8546 84.4699C43.2594 84.4349 41.8876 86.2006 48.5558 88.4249Z" fill="#FFEC7C"/>
<path d="M48.5567 88.4275C55.225 90.6517 54.1854 84.2524 41.6078 80.8045C33.6961 80.8477 29.4378 83.0059 23.0557 87.1851L13.9791 103.938C4.62951 116.673 10.4694 128.195 18.5252 131.542C13.7332 127.926 14.399 111.847 24.1802 109.157C29.3065 104.984 42.3823 107.676 42.7378 103.781C43.2183 99.7595 43.3466 100.261 33.3095 102.074C33.3095 102.074 22.5209 104.268 21.4922 99.8779C20.4629 95.3624 30.3251 84.5081 36.7306 84.5987C43.2603 84.4375 41.7629 86.2039 48.5567 88.4275Z" fill="#FFED7D"/>
<path d="M48.43 88.3024C55.0983 90.5266 54.0594 84.2529 41.4818 80.805C33.57 80.8481 29.4374 83.0057 23.0552 87.1849L13.9787 103.938C4.6284 116.547 10.3427 128.07 18.3992 131.543C13.6072 127.927 14.273 111.848 24.0542 109.157C29.1805 104.985 42.1307 107.677 42.6118 103.781C43.0922 99.7599 43.2213 100.387 33.3097 102.199C33.3097 102.199 22.5211 104.393 21.3662 99.8784C20.3369 95.3629 30.1985 84.383 36.7295 84.473C43.2599 84.4373 41.7618 86.0781 48.43 88.3024Z" fill="#FFED7E"/>
<path d="M48.4302 88.1756C55.0985 90.3998 54.0603 84.2517 41.6083 80.8031C33.6965 80.8463 29.5639 83.0038 23.1817 87.183L14.1052 103.936C4.87976 116.419 10.3429 127.943 18.3994 131.416C13.6074 127.8 14.2739 111.847 24.0551 109.156C29.1814 104.984 42.1316 107.676 42.6127 103.78C43.0931 99.7588 43.3477 100.385 33.3106 102.198C33.3106 102.198 22.522 104.392 21.3671 99.8772C20.3378 95.3617 30.1993 84.3818 36.7304 84.4718C43.2607 84.4362 41.6364 85.9521 48.4302 88.1756Z" fill="#FFED7F"/>
<path d="M48.3029 88.1765C54.9712 90.4008 54.0592 84.3775 41.4809 80.8041C33.5692 80.8472 29.4365 83.0047 23.0544 87.1839L14.1034 103.936C5.0029 116.293 10.3397 127.692 18.2707 131.166C13.6042 127.549 14.2708 111.596 23.9263 108.906C29.0527 104.733 42.0029 107.426 42.484 103.53C42.9644 99.5085 43.3453 100.26 33.3082 102.073C33.3082 102.073 22.394 104.267 21.3647 99.7519C20.3353 95.2364 30.3218 84.1302 36.7273 84.2209C43.2583 84.3108 41.6346 85.9523 48.3029 88.1765Z" fill="#FFEE80"/>
<path d="M48.3045 88.0512C54.9727 90.2754 54.0608 84.2522 41.4832 80.8043C33.5714 80.8475 29.4388 83.005 23.0559 87.0586L14.105 103.811C5.13074 116.293 10.3413 127.567 18.1474 131.167C13.4802 127.424 14.1481 111.722 23.8037 109.032C28.93 104.86 41.8802 107.552 42.3614 103.656C42.8418 99.6351 43.2226 100.387 33.1855 102.199C33.1855 102.199 22.2714 104.394 21.242 99.8784C20.2127 95.3629 30.1992 84.2567 36.7302 84.3467C43.135 84.3118 41.5106 85.8277 48.3045 88.0512Z" fill="#FFEE81"/>
<path d="M48.1774 87.9247C54.8456 90.1489 54.0599 84.2505 41.4824 80.8027C33.5706 80.8458 29.5636 83.0027 23.1807 87.0563L14.2304 103.934C5.25481 116.165 10.2142 127.441 18.1459 131.039C13.4787 127.297 14.1466 111.595 23.8022 108.905C28.9285 104.733 41.8787 107.425 42.2343 103.53C42.7147 99.5085 43.2218 100.385 33.1847 102.198C33.1847 102.198 22.2705 104.392 21.1156 99.8775C20.0863 95.3619 30.0721 84.1302 36.6031 84.2201C43.1341 84.3101 41.5091 85.7004 48.1774 87.9247Z" fill="#FFEE82"/>
<path d="M48.1775 87.9253C54.8458 90.1495 54.0608 84.3768 41.4832 80.9289C33.5715 80.9721 29.5644 83.1289 23.1816 87.1825L14.2306 103.934C5.38058 116.165 10.2137 127.316 18.0205 131.041C13.3533 127.299 14.0212 111.596 23.6775 109.032C28.8038 104.86 41.6291 107.678 42.1095 103.657C42.59 99.6354 43.0971 100.512 33.1856 102.324C33.1856 102.324 22.2707 104.393 21.1158 99.8781C20.0865 95.3626 30.1978 84.1301 36.6033 84.2208C43.1343 84.3108 41.3837 85.7018 48.1775 87.9253Z" fill="#FFEF83"/>
<path d="M48.051 87.8007C54.7193 90.0249 53.935 84.3778 41.3574 80.9299C33.4456 80.973 29.4386 83.1299 23.0557 87.1835L14.2304 103.935C5.50524 116.039 10.2128 127.19 18.0195 130.915C13.3524 127.173 14.1466 111.596 23.6765 108.907C28.8029 104.734 41.6282 107.553 42.1086 103.532C42.589 99.5101 43.2224 100.511 33.1853 102.324C33.1853 102.324 22.1449 104.394 21.1156 99.8784C20.0862 95.3629 30.1976 84.1304 36.7286 84.2204C43.1334 84.1855 41.3828 85.5765 48.051 87.8007Z" fill="#FFEF84"/>
<path d="M48.0497 87.6755C54.718 89.8998 54.0599 84.3775 41.4824 80.9296C33.5706 80.9728 29.5636 83.1296 23.1807 87.1832L14.3553 103.935C5.62952 115.913 10.2115 127.065 17.8927 130.791C13.3511 127.048 14.0197 111.472 23.5503 108.908C28.6767 104.736 41.502 107.554 41.9824 103.533C42.4628 99.5112 43.0962 100.512 33.1847 102.325C33.1847 102.325 22.1443 104.394 21.1149 99.8788C20.0856 95.3633 30.1963 84.0053 36.7273 84.0952C43.1328 84.1859 41.2559 85.452 48.0497 87.6755Z" fill="#FFEF85"/>
<path d="M47.9267 87.6757C54.595 89.8999 53.9376 84.5032 41.3601 81.0554C33.4483 81.0985 29.5668 83.2547 23.184 87.3083L14.3586 104.06C5.75836 116.037 10.0885 127.065 17.7696 130.791C13.2281 127.048 13.8973 111.597 23.4273 108.908C28.5537 104.736 41.379 107.554 41.7338 103.534C42.2142 99.5121 42.9739 100.638 32.9368 102.451C32.9368 102.451 21.8964 104.521 20.7414 100.006C19.7121 95.4904 29.9484 84.1317 36.3538 84.2224C43.1354 84.1854 41.2584 85.4515 47.9267 87.6757Z" fill="#FFF086"/>
<path d="M47.9219 87.5501C54.5902 89.7743 53.9335 84.5032 41.3559 81.0553C33.4441 81.0985 29.562 83.1291 23.1798 87.3082L14.3537 103.934C5.75284 115.786 10.0823 126.689 17.6385 130.541C13.097 126.798 13.8918 111.346 23.4225 108.782C28.5488 104.61 41.3741 107.429 41.729 103.408C42.2094 99.3865 43.0953 100.638 33.0582 102.45C33.0582 102.45 22.0178 104.52 20.8629 100.005C19.8336 95.4897 30.0691 84.0054 36.6002 84.0954C43.1312 84.1853 41.128 85.3266 47.9219 87.5501Z" fill="#FFF087"/>
<path d="M47.7961 87.4253C54.4643 89.6495 53.9339 84.5033 41.3564 81.0554C33.4446 81.0986 29.5625 83.1292 23.1803 87.3083L14.3542 103.934C5.8782 115.66 9.95647 126.564 17.639 130.541C13.0974 126.798 13.893 111.472 23.423 108.783C28.5493 104.61 41.249 107.429 41.7294 103.408C42.2099 99.3866 43.0958 100.638 33.0587 102.451C33.0587 102.451 21.892 104.395 20.8633 100.005C19.834 95.4898 30.0696 84.0055 36.6006 84.0955C43.131 84.0599 41.1278 85.2011 47.7961 87.4253Z" fill="#FFF088"/>
<path d="M47.7988 87.4251C54.467 89.6493 53.9373 84.6287 41.3591 81.0552C33.4473 81.0983 29.5651 83.1289 23.183 87.3081L14.3569 103.934C5.88089 115.66 9.83289 126.439 17.5154 130.416C13.0988 126.546 13.7694 111.347 23.3001 108.783C28.4264 104.611 41.1261 107.43 41.6065 103.408C42.087 99.387 43.0992 100.763 33.062 102.576C33.062 102.576 21.8954 104.521 20.866 100.005C19.8367 95.4896 30.1972 83.879 36.6026 83.9697C43.1337 84.0596 41.1305 85.2008 47.7988 87.4251Z" fill="#FFF189"/>
<path d="M47.672 87.3008C54.3403 89.525 53.8105 84.5044 41.3585 81.0558C33.4468 81.099 29.6902 83.1289 23.308 87.3081L14.6075 103.933C6.25643 115.533 10.0828 126.312 17.6398 130.29C13.2231 126.421 13.8938 111.221 23.4244 108.657C28.5508 104.485 41.2505 107.304 41.7309 103.283C42.2113 99.2614 43.2236 100.637 33.312 102.45C33.312 102.45 22.1453 104.394 20.9904 99.8795C19.9611 95.3639 30.3215 83.7534 36.8526 83.8433C43.1332 84.0603 41.0037 85.0766 47.672 87.3008Z" fill="#FFF18A"/>
<path d="M47.6678 87.1753C54.3361 89.3995 53.9326 84.5038 41.355 81.0559C33.4433 81.099 29.6867 83.1289 23.3045 87.3081L14.604 103.933C6.37783 115.406 9.95308 126.187 17.51 130.165C13.0934 126.296 13.8903 111.221 23.2954 108.658C28.4217 104.486 41.1214 107.305 41.4763 103.284C41.9567 99.2628 43.0952 100.764 33.058 102.577C33.058 102.577 21.8913 104.521 20.7364 100.006C19.7071 95.4909 30.0669 83.7548 36.5979 83.8448C43.1297 84.0603 40.9995 84.9511 47.6678 87.1753Z" fill="#FFF18B"/>
<path d="M47.5448 87.175C54.213 89.3992 53.8103 84.6291 41.2327 81.1812C33.3209 81.2243 29.5644 83.2542 23.1822 87.4334L14.4817 104.058C6.38039 115.405 9.83005 126.187 17.387 130.165C12.9703 126.296 13.7672 111.221 23.1723 108.658C28.2987 104.485 40.9984 107.305 41.3532 103.284C41.8336 99.2625 42.9721 100.763 33.0606 102.576C33.0606 102.576 21.7683 104.521 20.739 100.006C19.7097 95.49 30.195 83.7531 36.6005 83.8438C43.1315 83.9338 40.8765 84.9508 47.5448 87.175Z" fill="#FFF18C"/>
<path d="M47.5412 87.0498C54.2094 89.274 53.8074 84.6294 41.3554 81.1809C33.4436 81.224 29.687 83.2539 23.3049 87.4331L14.6044 104.058C6.50307 115.405 9.82646 126.062 17.2578 130.04C12.9667 126.17 13.6387 111.222 23.0438 108.659C28.1702 104.487 40.7443 107.306 41.2247 103.285C41.7052 99.2636 42.9699 100.889 32.9328 102.702C32.9328 102.702 21.6398 104.522 20.6112 100.132C19.5819 95.6166 30.0665 83.7542 36.5976 83.8442C43.1286 83.9342 40.8729 84.8256 47.5412 87.0498Z" fill="#FFF28D"/>
<path d="M47.5421 86.9246C54.2104 89.1488 53.9346 84.6292 41.357 81.1813C33.4452 81.2245 29.8142 83.2537 23.4321 87.4329L14.8572 104.057C6.88076 115.278 9.9523 125.811 17.385 130.04C13.0939 126.17 13.8915 111.221 23.1711 108.659C28.2974 104.486 40.8715 107.306 41.3519 103.285C41.8324 99.2634 43.2227 100.888 33.1856 102.701C33.1856 102.701 21.8926 104.521 20.7377 100.006C19.7084 95.4908 30.193 83.6284 36.7241 83.7183C43.1302 83.9346 40.7483 84.7011 47.5421 86.9246Z" fill="#FFF28E"/>
<path d="M47.4157 86.926C54.084 89.1502 53.8089 84.7561 41.2313 81.3082C33.3195 81.3514 29.6885 83.3806 23.3057 87.4342L14.7308 104.059C6.75437 115.279 9.82523 125.686 17.1324 129.916C12.8413 126.047 13.6389 111.097 22.9191 108.661C28.0454 104.488 40.6196 107.308 41.1 103.287C41.5804 99.2654 42.9714 101.016 32.9343 102.829C32.9343 102.829 21.6413 104.649 20.4864 100.134C19.4571 95.6184 30.0673 83.7553 36.4721 83.7203C43.1294 83.9352 40.7474 84.7017 47.4157 86.926Z" fill="#FFF28F"/>
<path d="M47.4168 86.7991C54.085 89.0233 53.8106 84.7549 41.3586 81.3063C33.4468 81.3495 29.8158 83.3787 23.433 87.4323L14.8581 104.057C7.00657 115.151 9.82625 125.56 17.1334 129.79C12.8423 125.92 13.6406 111.096 22.9201 108.534C28.0464 104.361 40.6206 107.181 40.9754 103.161C41.4558 99.1392 42.9724 100.889 32.9353 102.702C32.9353 102.702 21.5168 104.523 20.4874 100.007C19.4581 95.4915 30.0677 83.5029 36.5987 83.5928C43.1305 83.8084 40.6229 84.5756 47.4168 86.7991Z" fill="#FFF390"/>
<path d="M47.292 86.6743C53.9603 88.8985 53.8121 84.7549 41.2346 81.307C33.3228 81.3502 29.6918 83.3794 23.4345 87.4323L14.8596 104.057C7.13301 115.025 9.70153 125.435 17.0087 129.665C12.7176 125.795 13.5166 111.097 22.7961 108.534C27.9224 104.362 40.4965 107.182 40.8514 103.161C41.3318 99.1399 42.8491 101.015 32.9375 102.828C32.9375 102.828 21.519 104.648 20.4897 100.133C19.4603 95.6172 30.0699 83.6285 36.601 83.7184C43.132 83.8084 40.6238 84.45 47.292 86.6743Z" fill="#FFF391"/>
<path d="M47.2901 86.6742C53.9584 88.8984 53.8109 84.8804 41.2327 81.307C33.3209 81.3501 29.8155 83.3786 23.4326 87.4322L14.8577 104.057C7.13112 115.025 9.69895 125.309 16.8812 129.665C12.715 125.669 13.5147 111.097 22.7942 108.534C27.9205 104.362 40.3691 107.183 40.8495 103.161C41.3299 99.1399 42.9728 101.015 32.9356 102.828C32.9356 102.828 21.5171 104.648 20.3622 100.133C19.3329 95.6178 30.0673 83.5028 36.4728 83.5935C43.1301 83.8084 40.4963 84.4507 47.2901 86.6742Z" fill="#FFF392"/>
<path d="M47.1633 86.5495C53.8316 88.7737 53.6841 84.7557 41.2321 81.3072C33.3203 81.3503 29.8149 83.3788 23.4321 87.4324L14.9828 104.056C7.25615 115.024 9.57213 125.184 16.88 129.54C12.7138 125.544 13.5134 110.971 22.7936 108.535C27.92 104.362 40.3685 107.183 40.8496 103.287C41.33 99.2657 43.0992 101.265 33.062 103.078C33.062 103.078 21.6428 104.773 20.4879 100.258C19.4586 95.7429 30.1931 83.6279 36.7241 83.7179C43.0033 83.6837 40.495 84.3253 47.1633 86.5495Z" fill="#FFF493"/>
<path d="M47.1638 86.4241C53.832 88.6484 53.8108 84.7553 41.2333 81.3074C33.3215 81.3505 29.8161 83.379 23.4332 87.4327L14.9839 104.056C7.3822 114.898 9.5726 125.059 16.7555 129.541C12.5893 125.545 13.389 110.972 22.6692 108.536C27.7955 104.363 40.2441 107.184 40.7252 103.288C41.2056 99.2666 42.9747 101.266 32.9376 103.079C32.9376 103.079 21.3928 104.775 20.3635 100.259C19.3342 95.7438 30.0679 83.5033 36.599 83.5932C43.0044 83.6839 40.3706 84.3262 47.1638 86.4241Z" fill="#FFF494"/>
<path d="M47.0371 86.4254C53.7054 88.6497 53.6849 84.8821 41.1073 81.4343C33.1955 81.4774 29.6894 83.3804 23.4328 87.5589L14.9835 104.183C7.50672 114.898 9.57153 125.06 16.6282 129.417C12.5876 125.42 13.3879 110.973 22.5425 108.537C27.6689 104.365 40.1174 107.185 40.4729 103.29C40.9534 99.2686 42.8488 101.393 32.8116 103.206C32.8116 103.206 21.2668 104.902 20.2375 100.386C19.2082 95.8707 30.0676 83.6295 36.473 83.7201C43.0034 83.6845 40.3689 84.2012 47.0371 86.4254Z" fill="#FFF495"/>
<path d="M47.0389 86.2996C53.7072 88.5238 53.6873 84.8819 41.2353 81.4334C33.3235 81.4765 29.943 83.3787 23.5609 87.5579L15.1116 104.182C7.75964 114.771 9.5726 124.808 16.7555 129.29C12.7149 125.293 13.5153 110.846 22.6699 108.41C27.7962 104.238 40.2448 107.059 40.6003 103.163C41.0807 99.1421 42.9761 101.267 33.0646 103.079C33.0646 103.079 21.5198 104.775 20.3649 100.26C19.3355 95.7442 30.1942 83.3774 36.7253 83.4674C43.0058 83.6843 40.245 84.0761 47.0389 86.2996Z" fill="#FFF596"/>
<path d="M46.9106 86.175C53.5789 88.3992 53.6853 84.8821 41.1078 81.4343C33.196 81.4774 29.8155 83.3797 23.4333 87.5589L14.984 104.182C7.6314 114.646 9.44436 124.683 16.5017 129.166C12.4611 125.169 13.2621 110.848 22.4167 108.412C27.5431 104.24 39.866 107.061 40.3471 103.165C40.8276 99.1436 42.8492 101.393 32.8121 103.206C32.8121 103.206 21.2673 104.902 20.1124 100.387C19.0831 95.8714 29.9418 83.5046 36.4728 83.5945C43.0032 83.5589 40.2431 84.0763 46.9106 86.175Z" fill="#FFF597"/>
<defs>
<radialGradient id="paint0_radial" cx="0" cy="0" r="1" gradientUnits="userSpaceOnUse" gradientTransform="translate(91.2333 27.1729) rotate(-0.588443) scale(135.027)">
<stop stop-color="#FFEE90"/>
<stop offset="0.2067" stop-color="#FFEE1D"/>
<stop offset="0.4174" stop-color="#F5CE1B"/>
<stop offset="0.5782" stop-color="#EEBA1A"/>
<stop offset="0.7877" stop-color="#CE7B18"/>
<stop offset="0.8803" stop-color="#DC9A1B"/>
<stop offset="1" stop-color="#F1C720"/>
</radialGradient>
<radialGradient id="paint1_radial" cx="0" cy="0" r="1" gradientUnits="userSpaceOnUse" gradientTransform="translate(111.334 87.6686) rotate(-0.588443) scale(96.7436)">
<stop offset="0.676" stop-color="#FFF799" stop-opacity="0"/>
<stop offset="1" stop-color="#FFF799"/>
</radialGradient>
<radialGradient id="paint2_radial" cx="0" cy="0" r="1" gradientUnits="userSpaceOnUse" gradientTransform="translate(133.962 56.5421) rotate(-83.2239) scale(22.8262 16.9421)">
<stop offset="0.676" stop-color="#FFF799" stop-opacity="0"/>
<stop offset="1" stop-color="#FFF799"/>
</radialGradient>
<radialGradient id="paint3_radial" cx="0" cy="0" r="1" gradientUnits="userSpaceOnUse" gradientTransform="translate(136.63 60.8548) rotate(-83.2239) scale(21.6615 16.0776)">
<stop offset="0.676" stop-color="#A8722A" stop-opacity="0"/>
<stop offset="1" stop-color="#A8722A"/>
</radialGradient>
<radialGradient id="paint4_radial" cx="0" cy="0" r="1" gradientUnits="userSpaceOnUse" gradientTransform="translate(133.982 53.0381) rotate(82.0449) scale(21.4157 15.8952)">
<stop stop-color="#6E4C1C"/>
<stop offset="0.6933" stop-color="#221000"/>
<stop offset="1" stop-color="#41280B"/>
</radialGradient>
<radialGradient id="paint5_radial" cx="0" cy="0" r="1" gradientUnits="userSpaceOnUse" gradientTransform="translate(137.51 63.282) rotate(-83.2239) scale(17.774 13.1922)">
<stop offset="0.676" stop-color="#FFF799" stop-opacity="0"/>
<stop offset="1" stop-color="#FFF799"/>
</radialGradient>
<radialGradient id="paint6_radial" cx="0" cy="0" r="1" gradientUnits="userSpaceOnUse" gradientTransform="translate(75.6673 57.1436) rotate(-83.2239) scale(22.8264 16.9422)">
<stop offset="0.676" stop-color="#FFF799" stop-opacity="0"/>
<stop offset="1" stop-color="#FFF799"/>
</radialGradient>
<radialGradient id="paint7_radial" cx="0" cy="0" r="1" gradientUnits="userSpaceOnUse" gradientTransform="translate(78.3342 61.4555) rotate(-83.2239) scale(21.6615 16.0776)">
<stop offset="0.676" stop-color="#A8722A" stop-opacity="0"/>
<stop offset="1" stop-color="#A8722A"/>
</radialGradient>
<radialGradient id="paint8_radial" cx="0" cy="0" r="1" gradientUnits="userSpaceOnUse" gradientTransform="translate(75.6849 53.6381) rotate(82.0449) scale(21.4159 15.8954)">
<stop stop-color="#6E4C1C"/>
<stop offset="0.6933" stop-color="#221000"/>
<stop offset="1" stop-color="#41280B"/>
</radialGradient>
<radialGradient id="paint9_radial" cx="0" cy="0" r="1" gradientUnits="userSpaceOnUse" gradientTransform="translate(79.2165 63.8828) rotate(-83.2239) scale(17.7742 13.1924)">
<stop offset="0.676" stop-color="#FFF799" stop-opacity="0"/>
<stop offset="1" stop-color="#FFF799"/>
</radialGradient>
<radialGradient id="paint10_radial" cx="0" cy="0" r="1" gradientUnits="userSpaceOnUse" gradientTransform="translate(108.183 103.025) rotate(160.653) scale(14.171 18.6689)">
<stop stop-color="#6E4C1C"/>
<stop offset="0.6933" stop-color="#221000"/>
<stop offset="1" stop-color="#41280B"/>
</radialGradient>
</defs>
</svg>
