<svg width="151" height="151" viewBox="0 0 151 151" fill="none" xmlns="http://www.w3.org/2000/svg">
<path d="M75.7227 150.67C117.144 150.67 150.723 117.091 150.723 75.6699C150.723 34.2486 117.144 0.669922 75.7227 0.669922C34.3013 0.669922 0.722656 34.2486 0.722656 75.6699C0.722656 117.091 34.3013 150.67 75.7227 150.67Z" fill="url(#paint0_radial)"/>
<path d="M75.7227 150.67C117.144 150.67 150.723 117.091 150.723 75.6699C150.723 34.2486 117.144 0.669922 75.7227 0.669922C34.3013 0.669922 0.722656 34.2486 0.722656 75.6699C0.722656 117.091 34.3013 150.67 75.7227 150.67Z" fill="url(#paint1_radial)"/>
<path d="M126.106 75.0361C126.36 62.8534 118.745 52.7011 109.101 52.5742C99.456 52.3204 91.3342 62.0919 91.0804 74.2747C90.8266 86.4574 98.4408 96.6097 108.085 96.8635C117.857 96.9904 125.852 87.3457 126.106 75.0361Z" fill="url(#paint2_radial)"/>
<path d="M126.236 77.5748C126.236 78.4631 126.109 79.3515 125.982 80.1129C125.221 70.4682 118.875 62.854 110.88 62.7271C103.012 62.6002 96.2866 69.8337 95.0175 79.4784C94.8906 78.59 94.8906 77.8286 94.8906 76.9403C95.1444 66.0266 102.251 57.3972 110.88 57.651C119.637 57.651 126.49 66.6611 126.236 77.5748Z" fill="url(#paint3_radial)"/>
<path d="M122.678 80.7481C122.932 71.738 117.221 64.2506 110.114 64.1237C103.008 63.9968 97.0432 71.1034 96.7894 80.1136C96.5356 89.1237 102.246 96.611 109.353 96.738C116.586 96.9918 122.424 89.7583 122.678 80.7481Z" fill="url(#paint4_radial)"/>
<path d="M60.2425 73.6396C60.4963 61.4568 52.8821 51.3045 43.2374 51.0507C33.5927 50.7969 25.4709 60.5685 25.2171 72.7512C24.9633 84.934 32.5775 95.0863 42.2222 95.3401C51.9938 95.5939 59.9887 85.8223 60.2425 73.6396Z" fill="url(#paint5_radial)"/>
<path d="M60.3725 76.0524C60.3725 76.9407 60.2456 77.829 60.1187 78.5904C59.3573 68.9458 53.0121 61.3316 45.0172 61.2046C37.1492 61.0777 30.4233 68.3112 29.1542 77.9559C29.0273 77.0676 29.0273 76.3062 29.0273 75.4178C29.2812 64.5041 36.3878 55.8747 45.0172 56.1285C53.7735 56.2554 60.6263 65.2656 60.3725 76.0524Z" fill="url(#paint6_radial)"/>
<path d="M56.8144 79.3516C57.0682 70.3415 51.3576 62.8542 44.251 62.7273C37.1444 62.6004 31.1799 69.707 30.9261 78.7171C30.6723 87.7273 36.383 95.2146 43.4896 95.3415C50.7231 95.5953 56.6875 88.3618 56.8144 79.3516Z" fill="url(#paint7_radial)"/>
<path d="M42.9805 98.5127C45.6454 105.112 50.5947 110.315 56.3053 113.741C62.1429 116.914 68.8688 118.437 75.5947 118.31H78.1328H79.4018L80.6708 118.183L83.2089 117.802C84.0972 117.675 84.8587 117.421 85.6201 117.294C87.2698 117.041 88.7927 116.406 90.4424 115.898C91.2038 115.645 91.9652 115.137 92.7267 114.883L93.8688 114.376L95.0109 113.741C97.9297 112.091 100.595 109.934 102.879 107.396C105.29 104.858 107.321 102.066 108.97 98.8934C107.321 105.873 102.879 112.218 96.7876 116.406C90.5693 120.848 82.9551 122.497 75.5947 122.624C74.7064 122.624 73.6911 122.497 72.8028 122.497L70.0109 122.244C69.1226 122.117 68.2343 121.99 67.2191 121.736C66.3307 121.482 65.4424 121.482 64.5541 121.102C62.7774 120.467 61.0008 120.086 59.351 119.198C57.5744 118.563 56.0515 117.421 54.5287 116.533C48.4373 112.218 43.9957 105.619 42.9805 98.5127Z" fill="url(#paint8_radial)"/>
<defs>
<radialGradient id="paint0_radial" cx="0" cy="0" r="1" gradientUnits="userSpaceOnUse" gradientTransform="translate(60.6231 28.1236) rotate(1.25241) scale(139.264)">
<stop stop-color="#FFEE90"/>
<stop offset="0.2067" stop-color="#FFEE1D"/>
<stop offset="0.4174" stop-color="#F5CE1B"/>
<stop offset="0.5782" stop-color="#EEBA1A"/>
<stop offset="0.7877" stop-color="#CE7B18"/>
<stop offset="0.8803" stop-color="#DC9A1B"/>
<stop offset="1" stop-color="#F1C720"/>
</radialGradient>
<radialGradient id="paint1_radial" cx="0" cy="0" r="1" gradientUnits="userSpaceOnUse" gradientTransform="translate(79.3393 91.1513) rotate(1.25241) scale(99.7788)">
<stop offset="0.676" stop-color="#FFF799" stop-opacity="0"/>
<stop offset="1" stop-color="#FFF799"/>
</radialGradient>
<radialGradient id="paint2_radial" cx="0" cy="0" r="1" gradientUnits="userSpaceOnUse" gradientTransform="translate(110.867 80.1236) rotate(-80.4763) scale(34.0768 28.3451)">
<stop offset="0.676" stop-color="#A8722A" stop-opacity="0"/>
<stop offset="1" stop-color="#A8722A"/>
</radialGradient>
<radialGradient id="paint3_radial" cx="0" cy="0" r="1" gradientUnits="userSpaceOnUse" gradientTransform="translate(106.669 63.2501) rotate(82.9676) scale(23.8906 19.8716)">
<stop stop-color="#6E4C1C"/>
<stop offset="0.6933" stop-color="#221000"/>
<stop offset="1" stop-color="#41280B"/>
</radialGradient>
<radialGradient id="paint4_radial" cx="0" cy="0" r="1" gradientUnits="userSpaceOnUse" gradientTransform="translate(111.423 87.3138) rotate(-80.4763) scale(27.961 23.258)">
<stop offset="0.676" stop-color="#FFF799" stop-opacity="0"/>
<stop offset="1" stop-color="#FFF799"/>
</radialGradient>
<radialGradient id="paint5_radial" cx="0" cy="0" r="1" gradientUnits="userSpaceOnUse" gradientTransform="translate(45.0389 78.6817) rotate(-80.4763) scale(34.0768 28.3451)">
<stop offset="0.676" stop-color="#A8722A" stop-opacity="0"/>
<stop offset="1" stop-color="#A8722A"/>
</radialGradient>
<radialGradient id="paint6_radial" cx="0" cy="0" r="1" gradientUnits="userSpaceOnUse" gradientTransform="translate(40.8479 61.8167) rotate(82.9676) scale(23.8906 19.8716)">
<stop stop-color="#6E4C1C"/>
<stop offset="0.6933" stop-color="#221000"/>
<stop offset="1" stop-color="#41280B"/>
</radialGradient>
<radialGradient id="paint7_radial" cx="0" cy="0" r="1" gradientUnits="userSpaceOnUse" gradientTransform="translate(45.5941 85.8718) rotate(-80.4763) scale(27.9612 23.2581)">
<stop offset="0.676" stop-color="#FFF799" stop-opacity="0"/>
<stop offset="1" stop-color="#FFF799"/>
</radialGradient>
<radialGradient id="paint8_radial" cx="0" cy="0" r="1" gradientUnits="userSpaceOnUse" gradientTransform="translate(75.8916 110.35) scale(26.175 34.4829)">
<stop stop-color="#6E4C1C"/>
<stop offset="0.6933" stop-color="#221000"/>
<stop offset="1" stop-color="#41280B"/>
</radialGradient>
</defs>
</svg>
