<svg width="151" height="151" viewBox="0 0 151 151" fill="none" xmlns="http://www.w3.org/2000/svg">
<path d="M75.1992 150.67C116.621 150.67 150.199 117.091 150.199 75.6699C150.199 34.2486 116.621 0.669922 75.1992 0.669922C33.7779 0.669922 0.199219 34.2486 0.199219 75.6699C0.199219 117.091 33.7779 150.67 75.1992 150.67Z" fill="url(#paint0_radial)"/>
<path d="M75.1992 150.67C116.621 150.67 150.199 117.091 150.199 75.6699C150.199 34.2486 116.621 0.669922 75.1992 0.669922C33.7779 0.669922 0.199219 34.2486 0.199219 75.6699C0.199219 117.091 33.7779 150.67 75.1992 150.67Z" fill="url(#paint1_radial)"/>
<path d="M120.259 88.2745C120.574 100.249 116.005 111.121 108.442 119.314L108.284 119.472C106.236 121.678 103.872 123.569 101.351 125.302C94.576 129.871 86.5403 132.707 77.7168 132.865H75.1958C66.3723 133.022 58.179 130.659 51.2462 126.405C48.5676 124.829 46.2042 122.938 43.9983 120.733C35.9626 113.012 30.9206 102.298 30.6055 90.3229C30.6055 89.8502 30.763 89.3775 31.0782 89.0624C31.3933 88.7472 31.866 88.4321 32.3387 88.4321L118.368 86.3838C119.471 86.3838 120.259 87.1716 120.259 88.2745Z" fill="url(#paint2_linear)"/>
<path opacity="0.5" d="M108.443 119.159C108.443 119.316 108.286 119.316 108.443 119.159C106.237 121.522 103.874 123.413 101.353 125.146C94.5777 129.715 86.542 132.552 77.7185 132.709H75.1975C66.3739 132.867 58.1807 130.503 51.2479 126.249C48.5693 124.673 46.2059 122.783 44 120.577C46.6786 115.85 50.4601 111.753 55.0294 108.602C60.7017 104.663 67.4769 102.457 74.7248 102.299H76.9307C84.3361 102.142 91.1113 104.19 96.9412 107.657C99.1471 108.917 101.038 110.493 102.929 112.226C104.977 114.432 106.868 116.638 108.443 119.159Z" fill="url(#paint3_linear)"/>
<path d="M101.359 125.146C94.5837 129.715 86.548 132.551 77.7245 132.709H75.2035C66.38 132.867 58.1867 130.503 51.2539 126.249C53.7749 114.904 63.8589 112.226 75.9913 112.068C88.1237 111.911 98.3653 114.117 101.359 125.146Z" fill="url(#paint4_radial)"/>
<path d="M103.869 74.4084C102.136 71.7298 99.7727 69.5239 97.7244 67.318C95.3609 64.797 92.8399 62.276 90.634 59.5974C87.7979 56.2886 86.2223 52.3495 85.9071 47.9378C85.7496 43.6836 86.6949 39.7445 89.8462 36.5932C93.4702 32.8117 97.8819 31.3937 102.924 32.6542C106.075 33.442 108.439 35.4903 110.172 38.3264C111.275 40.2172 111.905 42.1079 112.22 44.1563C112.22 44.3138 112.22 44.4714 112.378 44.6289C112.85 43.9987 113.481 43.3684 113.953 42.8958C115.529 41.1626 117.42 39.7445 119.626 39.1142C124.037 37.6962 127.976 38.484 131.285 41.4777C134.752 44.4714 136.485 48.4105 136.012 53.1373C135.539 57.7067 133.491 61.3306 130.025 64.3243C127.189 66.6878 123.88 67.9483 120.413 69.0512C115.529 70.6268 110.487 72.2025 105.603 73.7781C105.13 73.9357 104.5 74.2508 103.869 74.4084Z" fill="url(#paint5_radial)"/>
<path d="M103.869 74.4084C102.136 71.7298 99.7727 69.5239 97.7244 67.318C95.3609 64.797 92.8399 62.276 90.634 59.5974C87.7979 56.2886 86.2223 52.3495 85.9071 47.9378C85.7496 43.6836 86.6949 39.7445 89.8462 36.5932C93.4702 32.8117 97.8819 31.3937 102.924 32.6542C106.075 33.442 108.439 35.4903 110.172 38.3264C111.275 40.2172 111.905 42.1079 112.22 44.1563C112.22 44.3138 112.22 44.4714 112.378 44.6289C112.85 43.9987 113.481 43.3684 113.953 42.8958C115.529 41.1626 117.42 39.7445 119.626 39.1142C124.037 37.6962 127.976 38.484 131.285 41.4777C134.752 44.4714 136.485 48.4105 136.012 53.1373C135.539 57.7067 133.491 61.3306 130.025 64.3243C127.189 66.6878 123.88 67.9483 120.413 69.0512C115.529 70.6268 110.487 72.2025 105.603 73.7781C105.13 73.9357 104.5 74.2508 103.869 74.4084Z" fill="url(#paint6_radial)"/>
<path d="M103.869 74.4084C102.136 71.7298 99.7727 69.5239 97.7244 67.318C95.3609 64.797 92.8399 62.276 90.634 59.5974C87.7979 56.2886 86.2223 52.3495 85.9071 47.9378C85.7496 43.6836 86.6949 39.7445 89.8462 36.5932C93.4702 32.8117 97.8819 31.3937 102.924 32.6542C106.075 33.442 108.439 35.4903 110.172 38.3264C111.275 40.2172 111.905 42.1079 112.22 44.1563C112.22 44.3138 112.22 44.4714 112.378 44.6289C112.85 43.9987 113.481 43.3684 113.953 42.8958C115.529 41.1626 117.42 39.7445 119.626 39.1142C124.037 37.6962 127.976 38.484 131.285 41.4777C134.752 44.4714 136.485 48.4105 136.012 53.1373C135.539 57.7067 133.491 61.3306 130.025 64.3243C127.189 66.6878 123.88 67.9483 120.413 69.0512C115.529 70.6268 110.487 72.2025 105.603 73.7781C105.13 73.9357 104.5 74.2508 103.869 74.4084Z" fill="url(#paint7_radial)"/>
<path d="M103.869 74.4084C102.136 71.7298 99.7727 69.5239 97.7244 67.318C95.3609 64.797 92.8399 62.276 90.634 59.5974C87.7979 56.2886 86.2223 52.3495 85.9071 47.9378C85.7496 43.6836 86.6949 39.7445 89.8462 36.5932C93.4702 32.8117 97.8819 31.3937 102.924 32.6542C106.075 33.442 108.439 35.4903 110.172 38.3264C111.275 40.2172 111.905 42.1079 112.22 44.1563C112.22 44.3138 112.22 44.4714 112.378 44.6289C112.85 43.9987 113.481 43.3684 113.953 42.8958C115.529 41.1626 117.42 39.7445 119.626 39.1142C124.037 37.6962 127.976 38.484 131.285 41.4777C134.752 44.4714 136.485 48.4105 136.012 53.1373C135.539 57.7067 133.491 61.3306 130.025 64.3243C127.189 66.6878 123.88 67.9483 120.413 69.0512C115.529 70.6268 110.487 72.2025 105.603 73.7781C105.13 73.9357 104.5 74.2508 103.869 74.4084Z" fill="url(#paint8_radial)"/>
<path d="M44.7876 78.0334C41.9515 76.6153 38.8002 75.8275 35.8065 74.8822C32.4977 73.7792 29.0313 72.8338 25.7225 71.5733C21.6259 69.9977 18.1595 67.4767 15.796 63.6952C13.4326 60.0712 12.4872 56.1322 13.4326 51.7204C14.6931 46.6784 17.8443 43.212 23.0439 41.6364C26.1952 40.691 29.3465 41.3212 32.1826 43.0544C34.0733 44.1574 35.649 45.5754 36.9095 47.1511C37.067 47.3086 37.067 47.4662 37.2246 47.4662C37.2246 47.4662 37.2246 47.4662 37.3822 47.4662C37.5397 46.6784 37.6973 45.8906 37.8549 45.1027C38.4851 42.7393 39.2729 40.691 40.8486 38.8002C43.9998 35.3338 47.7813 34.0733 52.3507 35.0187C57.0775 35.9641 60.3864 38.6427 62.4347 42.8969C64.3254 47.1511 64.3254 51.4053 62.7498 55.817C61.4893 59.2834 59.1259 62.1196 56.7624 64.7981C53.1385 68.7372 49.6721 72.5187 46.0481 76.4578C45.5754 77.088 45.2603 77.5607 44.7876 78.0334Z" fill="url(#paint9_radial)"/>
<path d="M44.7876 78.0334C41.9515 76.6153 38.8002 75.8275 35.8065 74.8822C32.4977 73.7792 29.0313 72.8338 25.7225 71.5733C21.6259 69.9977 18.1595 67.4767 15.796 63.6952C13.4326 60.0712 12.4872 56.1322 13.4326 51.7204C14.6931 46.6784 17.8443 43.212 23.0439 41.6364C26.1952 40.691 29.3465 41.3212 32.1826 43.0544C34.0733 44.1574 35.649 45.5754 36.9095 47.1511C37.067 47.3086 37.067 47.4662 37.2246 47.4662C37.2246 47.4662 37.2246 47.4662 37.3822 47.4662C37.5397 46.6784 37.6973 45.8906 37.8549 45.1027C38.4851 42.7393 39.2729 40.691 40.8486 38.8002C43.9998 35.3338 47.7813 34.0733 52.3507 35.0187C57.0775 35.9641 60.3864 38.6427 62.4347 42.8969C64.3254 47.1511 64.3254 51.4053 62.7498 55.817C61.4893 59.2834 59.1259 62.1196 56.7624 64.7981C53.1385 68.7372 49.6721 72.5187 46.0481 76.4578C45.5754 77.088 45.2603 77.5607 44.7876 78.0334Z" fill="url(#paint10_radial)"/>
<path d="M44.7876 78.0334C41.9515 76.6153 38.8002 75.8275 35.8065 74.8822C32.4977 73.7792 29.0313 72.8338 25.7225 71.5733C21.6259 69.9977 18.1595 67.4767 15.796 63.6952C13.4326 60.0712 12.4872 56.1322 13.4326 51.7204C14.6931 46.6784 17.8443 43.212 23.0439 41.6364C26.1952 40.691 29.3465 41.3212 32.1826 43.0544C34.0733 44.1574 35.649 45.5754 36.9095 47.1511C37.067 47.3086 37.067 47.4662 37.2246 47.4662C37.2246 47.4662 37.2246 47.4662 37.3822 47.4662C37.5397 46.6784 37.6973 45.8906 37.8549 45.1027C38.4851 42.7393 39.2729 40.691 40.8486 38.8002C43.9998 35.3338 47.7813 34.0733 52.3507 35.0187C57.0775 35.9641 60.3864 38.6427 62.4347 42.8969C64.3254 47.1511 64.3254 51.4053 62.7498 55.817C61.4893 59.2834 59.1259 62.1196 56.7624 64.7981C53.1385 68.7372 49.6721 72.5187 46.0481 76.4578C45.5754 77.088 45.2603 77.5607 44.7876 78.0334Z" fill="url(#paint11_radial)"/>
<path d="M44.7876 78.0334C41.9515 76.6153 38.8002 75.8275 35.8065 74.8822C32.4977 73.7792 29.0313 72.8338 25.7225 71.5733C21.6259 69.9977 18.1595 67.4767 15.796 63.6952C13.4326 60.0712 12.4872 56.1322 13.4326 51.7204C14.6931 46.6784 17.8443 43.212 23.0439 41.6364C26.1952 40.691 29.3465 41.3212 32.1826 43.0544C34.0733 44.1574 35.649 45.5754 36.9095 47.1511C37.067 47.3086 37.067 47.4662 37.2246 47.4662C37.2246 47.4662 37.2246 47.4662 37.3822 47.4662C37.5397 46.6784 37.6973 45.8906 37.8549 45.1027C38.4851 42.7393 39.2729 40.691 40.8486 38.8002C43.9998 35.3338 47.7813 34.0733 52.3507 35.0187C57.0775 35.9641 60.3864 38.6427 62.4347 42.8969C64.3254 47.1511 64.3254 51.4053 62.7498 55.817C61.4893 59.2834 59.1259 62.1196 56.7624 64.7981C53.1385 68.7372 49.6721 72.5187 46.0481 76.4578C45.5754 77.088 45.2603 77.5607 44.7876 78.0334Z" fill="url(#paint12_radial)"/>
<defs>
<radialGradient id="paint0_radial" cx="0" cy="0" r="1" gradientUnits="userSpaceOnUse" gradientTransform="translate(57.8907 28.8738) rotate(-1.36575) scale(139.372)">
<stop stop-color="#FFEE90"/>
<stop offset="0.2067" stop-color="#FFEE1D"/>
<stop offset="0.4174" stop-color="#F5CE1B"/>
<stop offset="0.5782" stop-color="#EEBA1A"/>
<stop offset="0.7877" stop-color="#CE7B18"/>
<stop offset="0.8803" stop-color="#DC9A1B"/>
<stop offset="1" stop-color="#F1C720"/>
</radialGradient>
<radialGradient id="paint1_radial" cx="0" cy="0" r="1" gradientUnits="userSpaceOnUse" gradientTransform="translate(79.4831 91.0288) rotate(-1.36575) scale(99.8563)">
<stop offset="0.676" stop-color="#FFF799" stop-opacity="0"/>
<stop offset="1" stop-color="#FFF799"/>
</radialGradient>
<linearGradient id="paint2_linear" x1="76.5025" y1="132.882" x2="75.4195" y2="87.4587" gradientUnits="userSpaceOnUse">
<stop stop-color="#622800"/>
<stop offset="0.6564" stop-color="#2B0F00"/>
</linearGradient>
<linearGradient id="paint3_linear" x1="76.5074" y1="132.884" x2="75.7793" y2="102.343" gradientUnits="userSpaceOnUse">
<stop stop-color="#622800"/>
<stop offset="0.6564" stop-color="#2B0F00"/>
</linearGradient>
<radialGradient id="paint4_radial" cx="0" cy="0" r="1" gradientUnits="userSpaceOnUse" gradientTransform="translate(69.431 115.064) rotate(-1.36575) scale(28.4936)">
<stop stop-color="#F97091"/>
<stop offset="1" stop-color="#B33342"/>
</radialGradient>
<radialGradient id="paint5_radial" cx="0" cy="0" r="1" gradientUnits="userSpaceOnUse" gradientTransform="translate(98.2907 41.0653) rotate(14.1405) scale(39.3689)">
<stop stop-color="#E33737"/>
<stop offset="0.526" stop-color="#B60000"/>
<stop offset="1" stop-color="#640D04"/>
</radialGradient>
<radialGradient id="paint6_radial" cx="0" cy="0" r="1" gradientUnits="userSpaceOnUse" gradientTransform="translate(119.532 43.4055) rotate(14.1405) scale(26.4782)">
<stop stop-color="#E33737"/>
<stop offset="0.0775086" stop-color="#E33737" stop-opacity="0.9225"/>
<stop offset="1" stop-color="#E33737" stop-opacity="0"/>
</radialGradient>
<radialGradient id="paint7_radial" cx="0" cy="0" r="1" gradientUnits="userSpaceOnUse" gradientTransform="translate(105.767 43.1372) rotate(14.1405) scale(31.4647)">
<stop stop-color="#B00000" stop-opacity="0"/>
<stop offset="0.9225" stop-color="#B00000" stop-opacity="0.9225"/>
<stop offset="1" stop-color="#B00000"/>
</radialGradient>
<radialGradient id="paint8_radial" cx="0" cy="0" r="1" gradientUnits="userSpaceOnUse" gradientTransform="translate(104.882 65.3257) rotate(14.1405) scale(32.6642)">
<stop stop-color="#B00000"/>
<stop offset="1" stop-color="#B00000" stop-opacity="0"/>
</radialGradient>
<radialGradient id="paint9_radial" cx="0" cy="0" r="1" gradientUnits="userSpaceOnUse" gradientTransform="translate(22.9887 51.535) rotate(-15.6817) scale(39.9855)">
<stop stop-color="#E33737"/>
<stop offset="0.526" stop-color="#B60000"/>
<stop offset="1" stop-color="#640D04"/>
</radialGradient>
<radialGradient id="paint10_radial" cx="0" cy="0" r="1" gradientUnits="userSpaceOnUse" gradientTransform="translate(42.8878 42.8681) rotate(-15.6817) scale(26.8928)">
<stop stop-color="#E33737"/>
<stop offset="0.0775086" stop-color="#E33737" stop-opacity="0.9225"/>
<stop offset="1" stop-color="#E33737" stop-opacity="0"/>
</radialGradient>
<radialGradient id="paint11_radial" cx="0" cy="0" r="1" gradientUnits="userSpaceOnUse" gradientTransform="translate(30.6231 49.5841) rotate(-15.6817) scale(31.9577)">
<stop stop-color="#B00000" stop-opacity="0"/>
<stop offset="0.9225" stop-color="#B00000" stop-opacity="0.9225"/>
<stop offset="1" stop-color="#B00000"/>
</radialGradient>
<radialGradient id="paint12_radial" cx="0" cy="0" r="1" gradientUnits="userSpaceOnUse" gradientTransform="translate(41.0506 69.5828) rotate(-15.6817) scale(33.1761)">
<stop stop-color="#B00000"/>
<stop offset="1" stop-color="#B00000" stop-opacity="0"/>
</radialGradient>
</defs>
</svg>
