<svg width="151" height="151" viewBox="0 0 151 151" fill="none" xmlns="http://www.w3.org/2000/svg">
<path d="M75.709 150.141C117.13 150.141 150.709 116.562 150.709 75.1407C150.709 33.7193 117.13 0.140686 75.709 0.140686C34.2876 0.140686 0.708984 33.7193 0.708984 75.1407C0.708984 116.562 34.2876 150.141 75.709 150.141Z" fill="url(#paint0_radial)"/>
<path d="M75.709 150.141C117.13 150.141 150.709 116.562 150.709 75.1407C150.709 33.7193 117.13 0.140686 75.709 0.140686C34.2876 0.140686 0.708984 33.7193 0.708984 75.1407C0.708984 116.562 34.2876 150.141 75.709 150.141Z" fill="url(#paint1_radial)"/>
<path d="M120.772 87.7457C121.087 99.7205 116.517 110.592 108.954 118.786L108.797 118.943C106.748 121.149 104.385 123.04 101.864 124.773C95.0887 129.342 87.053 132.179 78.2295 132.336H75.7085C66.885 132.494 58.6917 130.13 51.7589 125.876C49.0803 124.3 46.7169 122.41 44.511 120.204C36.4753 112.483 31.4333 101.769 31.1182 89.7941C31.1182 89.3214 31.2757 88.8487 31.5909 88.5335C31.906 88.2184 32.3787 87.9033 32.8514 87.9033L118.881 85.855C119.984 85.855 120.772 86.6428 120.772 87.7457Z" fill="url(#paint2_linear)"/>
<path opacity="0.5" d="M108.954 118.628C108.954 118.786 108.796 118.786 108.954 118.628C106.748 120.992 104.385 122.882 101.864 124.615C95.0885 129.185 87.0528 132.021 78.2292 132.179H75.7082C66.8847 132.336 58.6914 129.973 51.7586 125.718C49.0801 124.143 46.7166 122.252 44.5107 120.046C47.1893 115.319 50.9708 111.223 55.5402 108.071C61.2124 104.132 67.9876 101.926 75.2355 101.769H77.4414C84.8469 101.611 91.6221 103.66 97.4519 107.126C99.6578 108.387 101.549 109.962 103.439 111.695C105.488 113.901 107.378 116.107 108.954 118.628Z" fill="url(#paint3_linear)"/>
<path d="M101.865 124.616C95.0896 129.185 87.0539 132.021 78.2304 132.179H75.7093C66.8858 132.336 58.6925 129.973 51.7598 125.718C54.2808 114.374 64.3648 111.695 76.4972 111.538C88.6295 111.38 98.8711 113.586 101.865 124.616Z" fill="url(#paint4_radial)"/>
<path d="M104.386 73.8802C102.653 71.2016 100.289 68.9958 98.241 66.7899C95.8775 64.2689 93.3565 61.7479 91.1506 59.0693C88.3145 55.7605 86.7389 51.8214 86.4237 47.4096C86.2662 43.1554 87.2115 39.2164 90.3628 36.0651C93.9868 32.2836 98.3985 30.8655 103.441 32.126C106.592 32.9138 108.955 34.9621 110.688 37.7983C111.791 39.689 112.422 41.5798 112.737 43.6281C112.737 43.7857 112.737 43.9432 112.894 44.1008C113.367 43.4706 113.997 42.8403 114.47 42.3676C116.046 40.6344 117.936 39.2164 120.142 38.5861C124.554 37.168 128.493 37.9558 131.802 40.9495C135.268 43.9432 137.001 47.8823 136.529 52.6092C136.056 57.1785 134.008 60.8025 130.541 63.7962C127.705 66.1596 124.396 67.4201 120.93 68.5231C116.046 70.0987 111.004 71.6743 106.119 73.25C105.646 73.4075 105.016 73.7226 104.386 73.8802Z" fill="url(#paint5_radial)"/>
<path d="M104.386 73.8802C102.653 71.2016 100.289 68.9958 98.241 66.7899C95.8775 64.2689 93.3565 61.7479 91.1506 59.0693C88.3145 55.7605 86.7389 51.8214 86.4237 47.4096C86.2662 43.1554 87.2115 39.2164 90.3628 36.0651C93.9868 32.2836 98.3985 30.8655 103.441 32.126C106.592 32.9138 108.955 34.9621 110.688 37.7983C111.791 39.689 112.422 41.5798 112.737 43.6281C112.737 43.7857 112.737 43.9432 112.894 44.1008C113.367 43.4706 113.997 42.8403 114.47 42.3676C116.046 40.6344 117.936 39.2164 120.142 38.5861C124.554 37.168 128.493 37.9558 131.802 40.9495C135.268 43.9432 137.001 47.8823 136.529 52.6092C136.056 57.1785 134.008 60.8025 130.541 63.7962C127.705 66.1596 124.396 67.4201 120.93 68.5231C116.046 70.0987 111.004 71.6743 106.119 73.25C105.646 73.4075 105.016 73.7226 104.386 73.8802Z" fill="url(#paint6_radial)"/>
<path d="M104.386 73.8802C102.653 71.2016 100.289 68.9958 98.241 66.7899C95.8775 64.2689 93.3565 61.7479 91.1506 59.0693C88.3145 55.7605 86.7389 51.8214 86.4237 47.4096C86.2662 43.1554 87.2115 39.2164 90.3628 36.0651C93.9868 32.2836 98.3985 30.8655 103.441 32.126C106.592 32.9138 108.955 34.9621 110.688 37.7983C111.791 39.689 112.422 41.5798 112.737 43.6281C112.737 43.7857 112.737 43.9432 112.894 44.1008C113.367 43.4706 113.997 42.8403 114.47 42.3676C116.046 40.6344 117.936 39.2164 120.142 38.5861C124.554 37.168 128.493 37.9558 131.802 40.9495C135.268 43.9432 137.001 47.8823 136.529 52.6092C136.056 57.1785 134.008 60.8025 130.541 63.7962C127.705 66.1596 124.396 67.4201 120.93 68.5231C116.046 70.0987 111.004 71.6743 106.119 73.25C105.646 73.4075 105.016 73.7226 104.386 73.8802Z" fill="url(#paint7_radial)"/>
<path d="M104.386 73.8802C102.653 71.2016 100.289 68.9958 98.241 66.7899C95.8775 64.2689 93.3565 61.7479 91.1506 59.0693C88.3145 55.7605 86.7389 51.8214 86.4237 47.4096C86.2662 43.1554 87.2115 39.2164 90.3628 36.0651C93.9868 32.2836 98.3985 30.8655 103.441 32.126C106.592 32.9138 108.955 34.9621 110.688 37.7983C111.791 39.689 112.422 41.5798 112.737 43.6281C112.737 43.7857 112.737 43.9432 112.894 44.1008C113.367 43.4706 113.997 42.8403 114.47 42.3676C116.046 40.6344 117.936 39.2164 120.142 38.5861C124.554 37.168 128.493 37.9558 131.802 40.9495C135.268 43.9432 137.001 47.8823 136.529 52.6092C136.056 57.1785 134.008 60.8025 130.541 63.7962C127.705 66.1596 124.396 67.4201 120.93 68.5231C116.046 70.0987 111.004 71.6743 106.119 73.25C105.646 73.4075 105.016 73.7226 104.386 73.8802Z" fill="url(#paint8_radial)"/>
<path d="M45.2993 77.5042C42.4632 76.0861 39.312 75.2983 36.3183 74.3529C33.0094 73.25 29.543 72.3046 26.2342 71.0441C22.1376 69.4685 18.6712 66.9475 16.3077 63.1659C13.9443 59.542 12.9989 55.6029 13.9443 51.1912C15.2048 46.1491 18.3561 42.6828 23.5556 41.1071C26.7069 40.1617 29.8582 40.792 32.6943 42.5252C34.5851 43.6281 36.1607 45.0462 37.4212 46.6218C37.5788 46.7794 37.5788 46.937 37.7363 46.937C37.7363 46.937 37.7363 46.937 37.8939 46.937C38.0514 46.1491 38.209 45.3613 38.3666 44.5735C38.9968 42.2101 39.7846 40.1617 41.3603 38.271C44.5115 34.8046 48.293 33.5441 52.8624 34.4895C57.5893 35.4349 60.8981 38.1134 62.9464 42.3676C64.8372 46.6218 64.8372 50.876 63.2615 55.2878C62.001 58.7542 59.6376 61.5903 57.2741 64.2689C53.6502 68.208 50.1838 71.9895 46.5598 75.9286C46.0872 76.5588 45.772 77.0315 45.2993 77.5042Z" fill="url(#paint9_radial)"/>
<path d="M45.2993 77.5042C42.4632 76.0861 39.312 75.2983 36.3183 74.3529C33.0094 73.25 29.543 72.3046 26.2342 71.0441C22.1376 69.4685 18.6712 66.9475 16.3077 63.1659C13.9443 59.542 12.9989 55.6029 13.9443 51.1912C15.2048 46.1491 18.3561 42.6828 23.5556 41.1071C26.7069 40.1617 29.8582 40.792 32.6943 42.5252C34.5851 43.6281 36.1607 45.0462 37.4212 46.6218C37.5788 46.7794 37.5788 46.937 37.7363 46.937C37.7363 46.937 37.7363 46.937 37.8939 46.937C38.0514 46.1491 38.209 45.3613 38.3666 44.5735C38.9968 42.2101 39.7846 40.1617 41.3603 38.271C44.5115 34.8046 48.293 33.5441 52.8624 34.4895C57.5893 35.4349 60.8981 38.1134 62.9464 42.3676C64.8372 46.6218 64.8372 50.876 63.2615 55.2878C62.001 58.7542 59.6376 61.5903 57.2741 64.2689C53.6502 68.208 50.1838 71.9895 46.5598 75.9286C46.0872 76.5588 45.772 77.0315 45.2993 77.5042Z" fill="url(#paint10_radial)"/>
<path d="M45.2993 77.5042C42.4632 76.0861 39.312 75.2983 36.3183 74.3529C33.0094 73.25 29.543 72.3046 26.2342 71.0441C22.1376 69.4685 18.6712 66.9475 16.3077 63.1659C13.9443 59.542 12.9989 55.6029 13.9443 51.1912C15.2048 46.1491 18.3561 42.6828 23.5556 41.1071C26.7069 40.1617 29.8582 40.792 32.6943 42.5252C34.5851 43.6281 36.1607 45.0462 37.4212 46.6218C37.5788 46.7794 37.5788 46.937 37.7363 46.937C37.7363 46.937 37.7363 46.937 37.8939 46.937C38.0514 46.1491 38.209 45.3613 38.3666 44.5735C38.9968 42.2101 39.7846 40.1617 41.3603 38.271C44.5115 34.8046 48.293 33.5441 52.8624 34.4895C57.5893 35.4349 60.8981 38.1134 62.9464 42.3676C64.8372 46.6218 64.8372 50.876 63.2615 55.2878C62.001 58.7542 59.6376 61.5903 57.2741 64.2689C53.6502 68.208 50.1838 71.9895 46.5598 75.9286C46.0872 76.5588 45.772 77.0315 45.2993 77.5042Z" fill="url(#paint11_radial)"/>
<path d="M45.2993 77.5042C42.4632 76.0861 39.312 75.2983 36.3183 74.3529C33.0094 73.25 29.543 72.3046 26.2342 71.0441C22.1376 69.4685 18.6712 66.9475 16.3077 63.1659C13.9443 59.542 12.9989 55.6029 13.9443 51.1912C15.2048 46.1491 18.3561 42.6828 23.5556 41.1071C26.7069 40.1617 29.8582 40.792 32.6943 42.5252C34.5851 43.6281 36.1607 45.0462 37.4212 46.6218C37.5788 46.7794 37.5788 46.937 37.7363 46.937C37.7363 46.937 37.7363 46.937 37.8939 46.937C38.0514 46.1491 38.209 45.3613 38.3666 44.5735C38.9968 42.2101 39.7846 40.1617 41.3603 38.271C44.5115 34.8046 48.293 33.5441 52.8624 34.4895C57.5893 35.4349 60.8981 38.1134 62.9464 42.3676C64.8372 46.6218 64.8372 50.876 63.2615 55.2878C62.001 58.7542 59.6376 61.5903 57.2741 64.2689C53.6502 68.208 50.1838 71.9895 46.5598 75.9286C46.0872 76.5588 45.772 77.0315 45.2993 77.5042Z" fill="url(#paint12_radial)"/>
<defs>
<radialGradient id="paint0_radial" cx="0" cy="0" r="1" gradientUnits="userSpaceOnUse" gradientTransform="translate(58.4004 28.3446) rotate(-1.36575) scale(139.372)">
<stop stop-color="#FFEE90"/>
<stop offset="0.2067" stop-color="#FFEE1D"/>
<stop offset="0.4174" stop-color="#F5CE1B"/>
<stop offset="0.5782" stop-color="#EEBA1A"/>
<stop offset="0.7877" stop-color="#CE7B18"/>
<stop offset="0.8803" stop-color="#DC9A1B"/>
<stop offset="1" stop-color="#F1C720"/>
</radialGradient>
<radialGradient id="paint1_radial" cx="0" cy="0" r="1" gradientUnits="userSpaceOnUse" gradientTransform="translate(79.9929 90.4996) rotate(-1.36575) scale(99.8563)">
<stop offset="0.676" stop-color="#FFF799" stop-opacity="0"/>
<stop offset="1" stop-color="#FFF799"/>
</radialGradient>
<linearGradient id="paint2_linear" x1="77.0152" y1="132.354" x2="75.9322" y2="86.9299" gradientUnits="userSpaceOnUse">
<stop stop-color="#622800"/>
<stop offset="0.6564" stop-color="#2B0F00"/>
</linearGradient>
<linearGradient id="paint3_linear" x1="77.0182" y1="132.354" x2="76.29" y2="101.812" gradientUnits="userSpaceOnUse">
<stop stop-color="#622800"/>
<stop offset="0.6564" stop-color="#2B0F00"/>
</linearGradient>
<radialGradient id="paint4_radial" cx="0" cy="0" r="1" gradientUnits="userSpaceOnUse" gradientTransform="translate(69.9369 114.533) rotate(-1.36575) scale(28.4936)">
<stop stop-color="#F97091"/>
<stop offset="1" stop-color="#B33342"/>
</radialGradient>
<radialGradient id="paint5_radial" cx="0" cy="0" r="1" gradientUnits="userSpaceOnUse" gradientTransform="translate(98.8073 40.5372) rotate(14.1405) scale(39.3689)">
<stop stop-color="#E33737"/>
<stop offset="0.526" stop-color="#B60000"/>
<stop offset="1" stop-color="#640D04"/>
</radialGradient>
<radialGradient id="paint6_radial" cx="0" cy="0" r="1" gradientUnits="userSpaceOnUse" gradientTransform="translate(120.049 42.8774) rotate(14.1405) scale(26.4782)">
<stop stop-color="#E33737"/>
<stop offset="0.0775086" stop-color="#E33737" stop-opacity="0.9225"/>
<stop offset="1" stop-color="#E33737" stop-opacity="0"/>
</radialGradient>
<radialGradient id="paint7_radial" cx="0" cy="0" r="1" gradientUnits="userSpaceOnUse" gradientTransform="translate(106.284 42.6091) rotate(14.1405) scale(31.4647)">
<stop stop-color="#B00000" stop-opacity="0"/>
<stop offset="0.9225" stop-color="#B00000" stop-opacity="0.9225"/>
<stop offset="1" stop-color="#B00000"/>
</radialGradient>
<radialGradient id="paint8_radial" cx="0" cy="0" r="1" gradientUnits="userSpaceOnUse" gradientTransform="translate(105.399 64.7975) rotate(14.1405) scale(32.6642)">
<stop stop-color="#B00000"/>
<stop offset="1" stop-color="#B00000" stop-opacity="0"/>
</radialGradient>
<radialGradient id="paint9_radial" cx="0" cy="0" r="1" gradientUnits="userSpaceOnUse" gradientTransform="translate(23.5004 51.0058) rotate(-15.6817) scale(39.9855)">
<stop stop-color="#E33737"/>
<stop offset="0.526" stop-color="#B60000"/>
<stop offset="1" stop-color="#640D04"/>
</radialGradient>
<radialGradient id="paint10_radial" cx="0" cy="0" r="1" gradientUnits="userSpaceOnUse" gradientTransform="translate(43.3995 42.3388) rotate(-15.6817) scale(26.8928)">
<stop stop-color="#E33737"/>
<stop offset="0.0775086" stop-color="#E33737" stop-opacity="0.9225"/>
<stop offset="1" stop-color="#E33737" stop-opacity="0"/>
</radialGradient>
<radialGradient id="paint11_radial" cx="0" cy="0" r="1" gradientUnits="userSpaceOnUse" gradientTransform="translate(31.1348 49.0549) rotate(-15.6817) scale(31.9577)">
<stop stop-color="#B00000" stop-opacity="0"/>
<stop offset="0.9225" stop-color="#B00000" stop-opacity="0.9225"/>
<stop offset="1" stop-color="#B00000"/>
</radialGradient>
<radialGradient id="paint12_radial" cx="0" cy="0" r="1" gradientUnits="userSpaceOnUse" gradientTransform="translate(41.5623 69.0535) rotate(-15.6817) scale(33.1761)">
<stop stop-color="#B00000"/>
<stop offset="1" stop-color="#B00000" stop-opacity="0"/>
</radialGradient>
</defs>
</svg>
