<svg width="151" height="151" viewBox="0 0 151 151" fill="none" xmlns="http://www.w3.org/2000/svg">
<path d="M75.6953 150.67C117.117 150.67 150.695 117.091 150.695 75.6699C150.695 34.2486 117.117 0.669922 75.6953 0.669922C34.2739 0.669922 0.695312 34.2486 0.695312 75.6699C0.695312 117.091 34.2739 150.67 75.6953 150.67Z" fill="url(#paint0_radial)"/>
<path d="M75.6953 150.67C117.117 150.67 150.695 117.091 150.695 75.6699C150.695 34.2486 117.117 0.669922 75.6953 0.669922C34.2739 0.669922 0.695312 34.2486 0.695312 75.6699C0.695312 117.091 34.2739 150.67 75.6953 150.67Z" fill="url(#paint1_radial)"/>
<path d="M116.954 63.4019C116.954 55.8741 112.493 49.7402 107.196 49.7402C101.898 49.7402 97.4375 55.8741 97.4375 63.4019C97.4375 70.9298 101.898 77.0637 107.196 77.0637C112.772 77.3425 117.233 71.2086 116.954 63.4019Z" fill="url(#paint2_radial)"/>
<path d="M115.005 60.0567C115.005 51.9712 110.266 45.5586 104.69 45.5586C99.1133 45.5586 94.3735 51.9712 94.6523 60.0567C94.6523 68.1422 99.3921 74.5549 104.968 74.5549C110.266 74.8337 115.005 68.1422 115.005 60.0567Z" fill="url(#paint3_radial)"/>
<path d="M115.005 61.7296C115.005 68.9787 111.102 74.5549 106.084 74.5549C101.065 74.5549 96.8828 68.6998 96.8828 61.7296C96.8828 54.4805 100.786 48.9043 105.805 48.9043C110.823 48.9043 115.005 54.7593 115.005 61.7296Z" fill="url(#paint4_radial)"/>
<path d="M113.329 61.7296C113.329 55.8746 109.983 51.1348 105.801 51.1348C101.619 51.1348 98.2734 55.8745 98.2734 62.0084C98.2734 67.8634 101.619 72.6032 105.801 72.6032C109.983 72.6032 113.329 67.5846 113.329 61.7296Z" fill="url(#paint5_radial)"/>
<path d="M103.017 56.4322C102.738 57.8262 101.623 58.9415 101.065 58.6627C100.508 58.3839 100.229 57.2686 100.508 55.5958C100.787 54.2017 101.902 53.0865 102.459 53.3653C103.296 53.6441 103.575 54.7593 103.017 56.4322Z" fill="#A98B57"/>
<path d="M57.0128 63.6812C57.0128 56.1534 52.5519 50.0195 47.2545 50.0195C41.9571 50.0195 37.4961 56.1534 37.4961 63.6812C37.4961 71.2091 41.9571 77.3429 47.2545 77.3429C52.8307 77.6218 57.0128 71.2091 57.0128 63.6812Z" fill="url(#paint6_radial)"/>
<path d="M54.7828 60.3351C54.7828 52.2496 50.0431 45.8369 44.4669 45.8369C38.8906 45.8369 34.1509 52.2496 34.4297 60.3351C34.4297 68.4206 39.1695 74.8332 44.7457 74.8332C50.3219 74.8332 54.7828 68.4206 54.7828 60.3351Z" fill="url(#paint7_radial)"/>
<path d="M54.7828 62.0079C54.7828 69.257 50.8795 74.8332 45.8609 74.8332C40.8423 74.8332 36.6602 68.9781 36.6602 62.0079C36.6602 54.7588 40.5635 49.1826 45.5821 49.1826C50.8795 49.1826 54.7828 54.7588 54.7828 62.0079Z" fill="url(#paint8_radial)"/>
<path d="M53.3878 62.0079C53.3878 56.1529 50.0421 51.4131 45.8599 51.4131C41.6778 51.4131 38.332 56.1529 38.332 62.2867C38.332 68.4205 41.6778 72.8815 45.8599 72.8815C50.0421 72.6027 53.3878 67.8629 53.3878 62.0079Z" fill="url(#paint9_radial)"/>
<path d="M43.0718 56.7105C42.793 58.1046 41.6777 59.2198 41.1201 58.941C40.5625 58.6622 40.2837 57.5469 40.5625 55.8741C40.8413 54.48 41.9566 53.3648 42.5142 53.6436C43.3506 53.6436 43.3506 55.0376 43.0718 56.7105Z" fill="#A98B57"/>
<path d="M114.171 121.116H107.201H97.7216L54.7848 120.558H44.4688H37.2197C36.6621 120.558 36.3833 120.279 36.1045 120C35.8257 119.721 35.5469 119.164 35.5469 118.885C35.5469 108.29 40.0078 98.5319 47.2569 91.5616C49.2086 89.6099 51.4391 87.9371 53.6696 86.543C59.8034 82.6397 67.0525 80.4092 74.8591 80.4092H77.0896C84.8963 80.4092 92.1454 82.9185 98.2792 87.1006C100.51 88.4947 102.74 90.4464 104.413 92.1192C111.383 99.3683 115.565 108.848 115.287 119.721C115.844 120.558 115.008 121.116 114.171 121.116Z" fill="url(#paint10_linear)"/>
<path opacity="0.5" d="M103.017 109.685C101.344 107.175 99.1136 104.945 97.162 103.272C91.3069 98.2534 84.6155 95.1865 77.0876 95.1865H74.8571C67.6081 95.1865 60.6378 98.2534 54.7828 103.272C50.043 107.454 46.4185 113.03 43.3516 119.443C43.6304 119.722 43.9092 120.001 44.188 120.558H54.504L97.7196 121.116H107.199C107.757 120.558 108.036 120.001 108.593 119.443C108.593 119.443 108.593 119.443 108.872 119.164C107.199 115.818 105.247 112.473 103.017 109.685Z" fill="url(#paint11_linear)"/>
<path d="M97.722 121.116L54.7852 120.559C58.1309 111.079 66.4952 108.849 75.9748 108.849C86.0119 108.849 94.3762 111.079 97.722 121.116Z" fill="url(#paint12_radial)"/>
<defs>
<radialGradient id="paint0_radial" cx="0" cy="0" r="1" gradientUnits="userSpaceOnUse" gradientTransform="translate(59.4994 28.7452) rotate(-0.210769) scale(139.106)">
<stop stop-color="#FFEE90"/>
<stop offset="0.2067" stop-color="#FFEE1D"/>
<stop offset="0.4174" stop-color="#F5CE1B"/>
<stop offset="0.5782" stop-color="#EEBA1A"/>
<stop offset="0.7877" stop-color="#CE7B18"/>
<stop offset="0.8803" stop-color="#DC9A1B"/>
<stop offset="1" stop-color="#F1C720"/>
</radialGradient>
<radialGradient id="paint1_radial" cx="0" cy="0" r="1" gradientUnits="userSpaceOnUse" gradientTransform="translate(79.796 91.2038) rotate(-0.210769) scale(99.6659)">
<stop offset="0.676" stop-color="#FFF799" stop-opacity="0"/>
<stop offset="1" stop-color="#FFF799"/>
</radialGradient>
<radialGradient id="paint2_radial" cx="0" cy="0" r="1" gradientUnits="userSpaceOnUse" gradientTransform="translate(103.318 59.2584) rotate(-82.8487) scale(23.5165 17.4544)">
<stop offset="0.676" stop-color="#FFF799" stop-opacity="0"/>
<stop offset="1" stop-color="#FFF799"/>
</radialGradient>
<radialGradient id="paint3_radial" cx="0" cy="0" r="1" gradientUnits="userSpaceOnUse" gradientTransform="translate(106.039 63.7204) rotate(-82.8487) scale(22.3169 16.5641)">
<stop offset="0.676" stop-color="#A8722A" stop-opacity="0"/>
<stop offset="1" stop-color="#A8722A"/>
</radialGradient>
<radialGradient id="paint4_radial" cx="0" cy="0" r="1" gradientUnits="userSpaceOnUse" gradientTransform="translate(103.382 55.6462) rotate(82.4266) scale(22.0639 16.3772)">
<stop stop-color="#6E4C1C"/>
<stop offset="0.6933" stop-color="#221000"/>
<stop offset="1" stop-color="#41280B"/>
</radialGradient>
<radialGradient id="paint5_radial" cx="0" cy="0" r="1" gradientUnits="userSpaceOnUse" gradientTransform="translate(106.927 66.2262) rotate(-82.8487) scale(18.3118 13.5914)">
<stop offset="0.676" stop-color="#FFF799" stop-opacity="0"/>
<stop offset="1" stop-color="#FFF799"/>
</radialGradient>
<radialGradient id="paint6_radial" cx="0" cy="0" r="1" gradientUnits="userSpaceOnUse" gradientTransform="translate(43.2609 59.4826) rotate(-82.8487) scale(23.5167 17.4546)">
<stop offset="0.676" stop-color="#FFF799" stop-opacity="0"/>
<stop offset="1" stop-color="#FFF799"/>
</radialGradient>
<radialGradient id="paint7_radial" cx="0" cy="0" r="1" gradientUnits="userSpaceOnUse" gradientTransform="translate(45.9794 63.9437) rotate(-82.8487) scale(22.3169 16.5641)">
<stop offset="0.676" stop-color="#A8722A" stop-opacity="0"/>
<stop offset="1" stop-color="#A8722A"/>
</radialGradient>
<radialGradient id="paint8_radial" cx="0" cy="0" r="1" gradientUnits="userSpaceOnUse" gradientTransform="translate(43.3219 55.8683) rotate(82.4266) scale(22.0639 16.3772)">
<stop stop-color="#6E4C1C"/>
<stop offset="0.6933" stop-color="#221000"/>
<stop offset="1" stop-color="#41280B"/>
</radialGradient>
<radialGradient id="paint9_radial" cx="0" cy="0" r="1" gradientUnits="userSpaceOnUse" gradientTransform="translate(46.8706 66.4494) rotate(-82.8487) scale(18.3118 13.5914)">
<stop offset="0.676" stop-color="#FFF799" stop-opacity="0"/>
<stop offset="1" stop-color="#FFF799"/>
</radialGradient>
<linearGradient id="paint10_linear" x1="72.6552" y1="129.174" x2="84.6163" y2="80.9872" gradientUnits="userSpaceOnUse">
<stop stop-color="#622800"/>
<stop offset="0.6564" stop-color="#2B0F00"/>
</linearGradient>
<linearGradient id="paint11_linear" x1="74.0779" y1="127.789" x2="82.1186" y2="95.3956" gradientUnits="userSpaceOnUse">
<stop stop-color="#622800"/>
<stop offset="0.6564" stop-color="#2B0F00"/>
</linearGradient>
<radialGradient id="paint12_radial" cx="0" cy="0" r="1" gradientUnits="userSpaceOnUse" gradientTransform="translate(73.4448 109.321) rotate(13.9404) scale(23.8416)">
<stop stop-color="#F97091"/>
<stop offset="1" stop-color="#B33342"/>
</radialGradient>
</defs>
</svg>
