<svg width="151" height="151" viewBox="0 0 151 151" fill="none" xmlns="http://www.w3.org/2000/svg">
<path d="M75.0874 150.141C116.509 150.141 150.087 116.562 150.087 75.1407C150.087 33.7193 116.509 0.140686 75.0874 0.140686C33.666 0.140686 0.0874023 33.7193 0.0874023 75.1407C0.0874023 116.562 33.666 150.141 75.0874 150.141Z" fill="url(#paint0_radial)"/>
<path d="M75.0874 150.141C116.509 150.141 150.087 116.562 150.087 75.1407C150.087 33.7193 116.509 0.140686 75.0874 0.140686C33.666 0.140686 0.0874023 33.7193 0.0874023 75.1407C0.0874023 116.562 33.666 150.141 75.0874 150.141Z" fill="url(#paint1_radial)"/>
<path d="M116.349 62.8728C116.349 55.345 111.888 49.2111 106.59 49.2111C101.293 49.2111 96.832 55.345 96.832 62.8728C96.832 70.4007 101.293 76.5345 106.59 76.5345C112.167 76.8134 116.628 70.6795 116.349 62.8728Z" fill="url(#paint2_radial)"/>
<path d="M114.398 59.5271C114.398 51.4416 109.658 45.029 104.082 45.029C98.5059 45.029 93.7661 51.4416 94.0449 59.5271C94.0449 67.6126 98.7847 74.0253 104.361 74.0253C109.658 74.3041 114.398 67.6126 114.398 59.5271Z" fill="url(#paint3_radial)"/>
<path d="M114.397 61.1998C114.397 68.4489 110.494 74.0251 105.475 74.0251C100.457 74.0251 96.2744 68.1701 96.2744 61.1998C96.2744 53.9507 100.178 48.3745 105.196 48.3745C110.215 48.3745 114.397 54.2295 114.397 61.1998Z" fill="url(#paint4_radial)"/>
<path d="M112.723 61.1999C112.723 55.3449 109.377 50.6051 105.195 50.6051C101.013 50.6051 97.667 55.3449 97.667 61.4787C97.667 67.3337 101.013 72.0735 105.195 72.0735C109.377 72.0735 112.723 67.0549 112.723 61.1999Z" fill="url(#paint5_radial)"/>
<path d="M102.41 55.9025C102.131 57.2965 101.016 58.4118 100.458 58.1329C99.9004 57.8541 99.6216 56.7389 99.9004 55.066C100.179 53.672 101.294 52.5567 101.852 52.8356C102.689 53.1144 102.967 54.2296 102.41 55.9025Z" fill="#A98B57"/>
<path d="M56.4069 63.1516C56.4069 55.6238 51.9459 49.4899 46.6485 49.4899C41.3511 49.4899 36.8901 55.6238 36.8901 63.1516C36.8901 70.6795 41.3511 76.8133 46.6485 76.8133C52.2247 77.0922 56.4069 70.6795 56.4069 63.1516Z" fill="url(#paint6_radial)"/>
<path d="M54.1759 59.8059C54.1759 51.7204 49.4361 45.3077 43.8599 45.3077C38.2837 45.3077 33.5439 51.7204 33.8227 59.8059C33.8227 67.8914 38.5625 74.304 44.1387 74.304C49.7149 74.304 54.1759 67.8914 54.1759 59.8059Z" fill="url(#paint7_radial)"/>
<path d="M54.1749 61.4786C54.1749 68.7277 50.2716 74.3039 45.253 74.3039C40.2344 74.3039 36.0522 68.4489 36.0522 61.4786C36.0522 54.2295 39.9556 48.6533 44.9742 48.6533C50.2716 48.6533 54.1749 54.2295 54.1749 61.4786Z" fill="url(#paint8_radial)"/>
<path d="M52.7818 61.4788C52.7818 55.6238 49.4361 50.884 45.254 50.884C41.0718 50.884 37.7261 55.6238 37.7261 61.7576C37.7261 67.8915 41.0718 72.3524 45.254 72.3524C49.4361 72.0736 52.7818 67.3338 52.7818 61.4788Z" fill="url(#paint9_radial)"/>
<path d="M42.4668 56.1813C42.188 57.5753 41.0728 58.6906 40.5151 58.4118C39.9575 58.133 39.6787 57.0177 39.9575 55.3448C40.2363 53.9508 41.3516 52.8355 41.9092 53.1144C42.7456 53.1144 42.7456 54.5084 42.4668 56.1813Z" fill="#A98B57"/>
<path d="M113.563 120.587H106.592H97.1127L54.1759 120.029H43.8599H36.6108C36.0532 120.029 35.7744 119.75 35.4956 119.471C35.2168 119.193 34.938 118.635 34.938 118.356C34.938 107.761 39.399 98.003 46.648 91.0328C48.5997 89.0811 50.8302 87.4083 53.0607 86.0142C59.1945 82.1109 66.4436 79.8804 74.2503 79.8804H76.4807C84.2874 79.8804 91.5365 82.3897 97.6703 86.5718C99.9008 87.9659 102.131 89.9175 103.804 91.5904C110.774 98.8395 114.957 108.319 114.678 119.193C115.235 120.029 114.399 120.587 113.563 120.587Z" fill="url(#paint10_linear)"/>
<path opacity="0.5" d="M102.411 109.156C100.738 106.646 98.5077 104.416 96.556 102.743C90.701 97.7244 84.0095 94.6575 76.4817 94.6575H74.2512C67.0021 94.6575 60.0318 97.7244 54.1768 102.743C49.4371 106.925 45.8125 112.501 42.7456 118.914C43.0244 119.193 43.3032 119.472 43.582 120.029H53.898L97.1136 120.587H106.593C107.151 120.029 107.43 119.472 107.987 118.914C107.987 118.914 107.987 118.914 108.266 118.635C106.593 115.289 104.642 111.944 102.411 109.156Z" fill="url(#paint11_linear)"/>
<path d="M97.1141 120.587L54.1772 120.029C57.523 110.55 65.8873 108.319 75.3668 108.319C85.404 108.319 93.7683 110.55 97.1141 120.587Z" fill="url(#paint12_radial)"/>
<defs>
<radialGradient id="paint0_radial" cx="0" cy="0" r="1" gradientUnits="userSpaceOnUse" gradientTransform="translate(58.8915 28.2159) rotate(-0.210769) scale(139.106)">
<stop stop-color="#FFEE90"/>
<stop offset="0.2067" stop-color="#FFEE1D"/>
<stop offset="0.4174" stop-color="#F5CE1B"/>
<stop offset="0.5782" stop-color="#EEBA1A"/>
<stop offset="0.7877" stop-color="#CE7B18"/>
<stop offset="0.8803" stop-color="#DC9A1B"/>
<stop offset="1" stop-color="#F1C720"/>
</radialGradient>
<radialGradient id="paint1_radial" cx="0" cy="0" r="1" gradientUnits="userSpaceOnUse" gradientTransform="translate(79.1881 90.6745) rotate(-0.210769) scale(99.6659)">
<stop offset="0.676" stop-color="#FFF799" stop-opacity="0"/>
<stop offset="1" stop-color="#FFF799"/>
</radialGradient>
<radialGradient id="paint2_radial" cx="0" cy="0" r="1" gradientUnits="userSpaceOnUse" gradientTransform="translate(102.713 58.7293) rotate(-82.8487) scale(23.5165 17.4544)">
<stop offset="0.676" stop-color="#FFF799" stop-opacity="0"/>
<stop offset="1" stop-color="#FFF799"/>
</radialGradient>
<radialGradient id="paint3_radial" cx="0" cy="0" r="1" gradientUnits="userSpaceOnUse" gradientTransform="translate(105.431 63.1908) rotate(-82.8487) scale(22.3169 16.5641)">
<stop offset="0.676" stop-color="#A8722A" stop-opacity="0"/>
<stop offset="1" stop-color="#A8722A"/>
</radialGradient>
<radialGradient id="paint4_radial" cx="0" cy="0" r="1" gradientUnits="userSpaceOnUse" gradientTransform="translate(102.773 55.1164) rotate(82.4266) scale(22.0639 16.3772)">
<stop stop-color="#6E4C1C"/>
<stop offset="0.6933" stop-color="#221000"/>
<stop offset="1" stop-color="#41280B"/>
</radialGradient>
<radialGradient id="paint5_radial" cx="0" cy="0" r="1" gradientUnits="userSpaceOnUse" gradientTransform="translate(106.321 65.6965) rotate(-82.8487) scale(18.3118 13.5914)">
<stop offset="0.676" stop-color="#FFF799" stop-opacity="0"/>
<stop offset="1" stop-color="#FFF799"/>
</radialGradient>
<radialGradient id="paint6_radial" cx="0" cy="0" r="1" gradientUnits="userSpaceOnUse" gradientTransform="translate(42.655 58.953) rotate(-82.8487) scale(23.5167 17.4546)">
<stop offset="0.676" stop-color="#FFF799" stop-opacity="0"/>
<stop offset="1" stop-color="#FFF799"/>
</radialGradient>
<radialGradient id="paint7_radial" cx="0" cy="0" r="1" gradientUnits="userSpaceOnUse" gradientTransform="translate(45.3725 63.4145) rotate(-82.8487) scale(22.3169 16.5641)">
<stop offset="0.676" stop-color="#A8722A" stop-opacity="0"/>
<stop offset="1" stop-color="#A8722A"/>
</radialGradient>
<radialGradient id="paint8_radial" cx="0" cy="0" r="1" gradientUnits="userSpaceOnUse" gradientTransform="translate(42.714 55.339) rotate(82.4266) scale(22.0639 16.3772)">
<stop stop-color="#6E4C1C"/>
<stop offset="0.6933" stop-color="#221000"/>
<stop offset="1" stop-color="#41280B"/>
</radialGradient>
<radialGradient id="paint9_radial" cx="0" cy="0" r="1" gradientUnits="userSpaceOnUse" gradientTransform="translate(46.2647 65.9204) rotate(-82.8487) scale(18.3118 13.5914)">
<stop offset="0.676" stop-color="#FFF799" stop-opacity="0"/>
<stop offset="1" stop-color="#FFF799"/>
</radialGradient>
<linearGradient id="paint10_linear" x1="72.0463" y1="128.646" x2="84.0074" y2="80.4584" gradientUnits="userSpaceOnUse">
<stop stop-color="#622800"/>
<stop offset="0.6564" stop-color="#2B0F00"/>
</linearGradient>
<linearGradient id="paint11_linear" x1="73.472" y1="127.259" x2="81.5126" y2="94.8666" gradientUnits="userSpaceOnUse">
<stop stop-color="#622800"/>
<stop offset="0.6564" stop-color="#2B0F00"/>
</linearGradient>
<radialGradient id="paint12_radial" cx="0" cy="0" r="1" gradientUnits="userSpaceOnUse" gradientTransform="translate(72.8369 108.791) rotate(13.9404) scale(23.8416)">
<stop stop-color="#F97091"/>
<stop offset="1" stop-color="#B33342"/>
</radialGradient>
</defs>
</svg>
