<svg width="151" height="151" viewBox="0 0 151 151" fill="none" xmlns="http://www.w3.org/2000/svg">
<path d="M75.9062 150.67C117.328 150.67 150.906 117.091 150.906 75.6699C150.906 34.2486 117.328 0.669922 75.9062 0.669922C34.4849 0.669922 0.90625 34.2486 0.90625 75.6699C0.90625 117.091 34.4849 150.67 75.9062 150.67Z" fill="url(#paint0_radial)"/>
<path d="M75.9062 150.67C117.328 150.67 150.906 117.091 150.906 75.6699C150.906 34.2486 117.328 0.669922 75.9062 0.669922C34.4849 0.669922 0.90625 34.2486 0.90625 75.6699C0.90625 117.091 34.4849 150.67 75.9062 150.67Z" fill="url(#paint1_radial)"/>
<path d="M43.1641 98.5127C45.829 105.112 50.7783 110.315 56.4889 113.741C62.3265 116.914 69.0524 118.437 75.7783 118.31H78.3163H79.5854L80.8544 118.183L83.3925 117.802C84.2808 117.675 85.0422 117.421 85.8037 117.294C87.4534 117.041 88.9762 116.406 90.626 115.898C91.3874 115.645 92.1488 115.137 92.9103 114.883L94.0524 114.376L95.1945 113.741C98.1133 112.091 100.778 109.934 103.063 107.396C105.474 104.858 107.504 102.066 109.154 98.8934C107.504 105.873 103.063 112.218 96.9712 116.406C90.7529 120.848 83.1387 122.497 75.7783 122.624C74.89 122.624 73.8747 122.497 72.9864 122.497L70.1945 122.244C69.3062 122.117 68.4179 121.99 67.4026 121.736C66.5143 121.482 65.626 121.482 64.7377 121.102C62.961 120.467 61.1844 120.086 59.5346 119.198C57.758 118.563 56.2351 117.421 54.7123 116.533C48.6209 112.218 44.1793 105.619 43.1641 98.5127Z" fill="url(#paint2_radial)"/>
<path d="M59.8722 70.4127C59.8722 62.8848 55.4112 56.751 50.1138 56.751C44.8164 56.751 40.3555 62.8848 40.3555 70.4127C40.3555 77.9406 44.8164 84.0744 50.1138 84.0744C55.69 84.3532 59.8722 77.9406 59.8722 70.4127Z" fill="url(#paint3_radial)"/>
<path d="M57.6422 67.0665C57.6422 58.981 52.9024 52.5684 47.3262 52.5684C41.75 52.5684 37.0102 58.981 37.2891 67.0665C37.2891 75.152 42.0288 81.5646 47.605 81.5646C53.1812 81.5646 57.6422 75.152 57.6422 67.0665Z" fill="url(#paint4_radial)"/>
<path d="M57.6422 68.7393C57.6422 75.9884 53.7389 81.5646 48.7203 81.5646C43.7017 81.5646 39.5195 75.7096 39.5195 68.7393C39.5195 61.4903 43.4229 55.9141 48.4415 55.9141C53.7389 55.9141 57.6422 61.4903 57.6422 68.7393Z" fill="url(#paint5_radial)"/>
<path d="M56.2472 68.7393C56.2472 62.8843 52.9014 58.1445 48.7193 58.1445C44.5371 58.1445 41.1914 62.8843 41.1914 69.0181C41.1914 75.152 44.5371 79.6129 48.7193 79.6129C52.9014 79.3341 56.2472 74.5943 56.2472 68.7393Z" fill="url(#paint6_radial)"/>
<path d="M45.9312 63.442C45.6524 64.836 44.5371 65.9513 43.9795 65.6724C43.4219 65.3936 43.1431 64.2784 43.4219 62.6055C43.7007 61.2115 44.8159 60.0962 45.3736 60.375C46.21 60.375 46.21 61.7691 45.9312 63.442Z" fill="#A98B57"/>
<path d="M113.153 70.4127C113.153 62.8848 108.692 56.751 103.395 56.751C98.0977 56.751 93.6367 62.8848 93.6367 70.4127C93.6367 77.9406 98.0977 84.0744 103.395 84.0744C108.971 84.3532 113.153 77.9406 113.153 70.4127Z" fill="url(#paint7_radial)"/>
<path d="M110.923 67.0665C110.923 58.981 106.184 52.5684 100.607 52.5684C95.0313 52.5684 90.2915 58.981 90.5703 67.0665C90.5703 75.152 95.3101 81.5646 100.886 81.5646C106.462 81.5646 110.923 75.152 110.923 67.0665Z" fill="url(#paint8_radial)"/>
<path d="M110.923 68.7393C110.923 75.9884 107.02 81.5646 102.002 81.5646C96.9829 81.5646 92.8008 75.7096 92.8008 68.7393C92.8008 61.4903 96.7041 55.9141 101.723 55.9141C107.02 55.9141 110.923 61.4903 110.923 68.7393Z" fill="url(#paint9_radial)"/>
<path d="M109.528 68.7393C109.528 62.8843 106.183 58.1445 102.001 58.1445C97.8184 58.1445 94.4727 62.8843 94.4727 69.0181C94.4727 75.152 97.8184 79.6129 102.001 79.6129C106.183 79.3341 109.528 74.5943 109.528 68.7393Z" fill="url(#paint10_radial)"/>
<path d="M99.2124 63.442C98.9336 64.836 97.8184 65.9513 97.2608 65.6724C96.7031 65.3936 96.4243 64.2784 96.7031 62.6055C96.9819 61.2115 98.0972 60.0962 98.6548 60.375C99.4912 60.375 99.4912 61.7691 99.2124 63.442Z" fill="#A98B57"/>
<defs>
<radialGradient id="paint0_radial" cx="0" cy="0" r="1" gradientUnits="userSpaceOnUse" gradientTransform="translate(60.8067 28.1236) rotate(1.25241) scale(139.264)">
<stop stop-color="#FFEE90"/>
<stop offset="0.2067" stop-color="#FFEE1D"/>
<stop offset="0.4174" stop-color="#F5CE1B"/>
<stop offset="0.5782" stop-color="#EEBA1A"/>
<stop offset="0.7877" stop-color="#CE7B18"/>
<stop offset="0.8803" stop-color="#DC9A1B"/>
<stop offset="1" stop-color="#F1C720"/>
</radialGradient>
<radialGradient id="paint1_radial" cx="0" cy="0" r="1" gradientUnits="userSpaceOnUse" gradientTransform="translate(79.5229 91.1513) rotate(1.25241) scale(99.7788)">
<stop offset="0.676" stop-color="#FFF799" stop-opacity="0"/>
<stop offset="1" stop-color="#FFF799"/>
</radialGradient>
<radialGradient id="paint2_radial" cx="0" cy="0" r="1" gradientUnits="userSpaceOnUse" gradientTransform="translate(76.0752 110.35) scale(26.175 34.4829)">
<stop stop-color="#6E4C1C"/>
<stop offset="0.6933" stop-color="#221000"/>
<stop offset="1" stop-color="#41280B"/>
</radialGradient>
<radialGradient id="paint3_radial" cx="0" cy="0" r="1" gradientUnits="userSpaceOnUse" gradientTransform="translate(46.1203 66.2141) rotate(-82.8487) scale(23.5167 17.4546)">
<stop offset="0.676" stop-color="#FFF799" stop-opacity="0"/>
<stop offset="1" stop-color="#FFF799"/>
</radialGradient>
<radialGradient id="paint4_radial" cx="0" cy="0" r="1" gradientUnits="userSpaceOnUse" gradientTransform="translate(48.8388 70.6751) rotate(-82.8487) scale(22.3169 16.5641)">
<stop offset="0.676" stop-color="#A8722A" stop-opacity="0"/>
<stop offset="1" stop-color="#A8722A"/>
</radialGradient>
<radialGradient id="paint5_radial" cx="0" cy="0" r="1" gradientUnits="userSpaceOnUse" gradientTransform="translate(46.1813 62.5997) rotate(82.4266) scale(22.0639 16.3772)">
<stop stop-color="#6E4C1C"/>
<stop offset="0.6933" stop-color="#221000"/>
<stop offset="1" stop-color="#41280B"/>
</radialGradient>
<radialGradient id="paint6_radial" cx="0" cy="0" r="1" gradientUnits="userSpaceOnUse" gradientTransform="translate(49.73 73.1808) rotate(-82.8487) scale(18.3118 13.5914)">
<stop offset="0.676" stop-color="#FFF799" stop-opacity="0"/>
<stop offset="1" stop-color="#FFF799"/>
</radialGradient>
<radialGradient id="paint7_radial" cx="0" cy="0" r="1" gradientUnits="userSpaceOnUse" gradientTransform="translate(99.4016 66.2141) rotate(-82.8487) scale(23.5167 17.4546)">
<stop offset="0.676" stop-color="#FFF799" stop-opacity="0"/>
<stop offset="1" stop-color="#FFF799"/>
</radialGradient>
<radialGradient id="paint8_radial" cx="0" cy="0" r="1" gradientUnits="userSpaceOnUse" gradientTransform="translate(102.12 70.6751) rotate(-82.8487) scale(22.3169 16.5641)">
<stop offset="0.676" stop-color="#A8722A" stop-opacity="0"/>
<stop offset="1" stop-color="#A8722A"/>
</radialGradient>
<radialGradient id="paint9_radial" cx="0" cy="0" r="1" gradientUnits="userSpaceOnUse" gradientTransform="translate(99.4625 62.5997) rotate(82.4266) scale(22.0639 16.3772)">
<stop stop-color="#6E4C1C"/>
<stop offset="0.6933" stop-color="#221000"/>
<stop offset="1" stop-color="#41280B"/>
</radialGradient>
<radialGradient id="paint10_radial" cx="0" cy="0" r="1" gradientUnits="userSpaceOnUse" gradientTransform="translate(103.011 73.1808) rotate(-82.8487) scale(18.3118 13.5914)">
<stop offset="0.676" stop-color="#FFF799" stop-opacity="0"/>
<stop offset="1" stop-color="#FFF799"/>
</radialGradient>
</defs>
</svg>
