<svg width="151" height="151" viewBox="0 0 151 151" fill="none" xmlns="http://www.w3.org/2000/svg">
<path d="M75.7739 150.141C117.195 150.141 150.774 116.562 150.774 75.1407C150.774 33.7193 117.195 0.140686 75.7739 0.140686C34.3526 0.140686 0.773926 33.7193 0.773926 75.1407C0.773926 116.562 34.3526 150.141 75.7739 150.141Z" fill="url(#paint0_radial)"/>
<path d="M75.7739 150.141C117.195 150.141 150.774 116.562 150.774 75.1407C150.774 33.7193 117.195 0.140686 75.7739 0.140686C34.3526 0.140686 0.773926 33.7193 0.773926 75.1407C0.773926 116.562 34.3526 150.141 75.7739 150.141Z" fill="url(#paint1_radial)"/>
<path d="M117.374 63.5407C117.474 55.9407 113.174 49.7407 107.874 49.6407C102.474 49.5407 98.0739 55.7407 97.9739 63.3407C97.8739 70.9407 102.174 77.1407 107.474 77.2407C112.874 77.2407 117.274 71.1407 117.374 63.5407Z" fill="url(#paint2_radial)"/>
<path d="M115.174 60.1407C115.274 52.1407 110.774 45.5407 105.074 45.4407C99.374 45.3407 94.774 51.8407 94.674 59.8407C94.574 67.8407 99.074 74.4407 104.774 74.5407C110.474 74.6407 115.074 68.1407 115.174 60.1407Z" fill="url(#paint3_radial)"/>
<path d="M115.274 61.7407C115.174 68.8407 111.074 74.6407 106.074 74.5407C101.074 74.4407 97.0742 68.6407 97.1742 61.5407C97.2742 54.4407 101.374 48.6407 106.374 48.7407C111.374 48.7407 115.374 54.5407 115.274 61.7407Z" fill="url(#paint4_radial)"/>
<path d="M113.674 61.7407C113.774 55.8407 110.374 50.9407 106.274 50.9407C102.074 50.9407 98.6739 55.6407 98.5739 61.5407C98.4739 67.4407 101.874 72.3407 105.974 72.3407C110.174 72.4407 113.674 67.6407 113.674 61.7407Z" fill="url(#paint5_radial)"/>
<path d="M103.474 56.1407C103.074 57.6407 102.174 58.6407 101.474 58.4407C100.774 58.2407 100.574 56.9407 100.974 55.4407C101.374 53.9407 102.274 52.9407 102.974 53.1407C103.674 53.3407 103.874 54.6407 103.474 56.1407Z" fill="#A98B57"/>
<path d="M57.1737 62.8407C57.2737 55.2407 52.9737 49.0407 47.6737 48.9407C42.2737 48.8407 37.8737 55.0407 37.7737 62.6407C37.6737 70.2407 41.9737 76.4407 47.2737 76.5407C52.6737 76.5407 57.0737 70.4407 57.1737 62.8407Z" fill="url(#paint6_radial)"/>
<path d="M55.0739 59.4407C55.1739 51.4407 50.6739 44.8407 44.9739 44.7407C39.3739 44.6407 34.6739 51.1407 34.5739 59.1407C34.4739 67.1407 38.9739 73.7407 44.6739 73.8407C50.3739 73.9407 54.9739 67.4407 55.0739 59.4407Z" fill="url(#paint7_radial)"/>
<path d="M55.074 61.0407C54.974 68.1407 50.874 73.9407 45.874 73.8407C40.874 73.7407 36.874 67.9407 36.974 60.8407C37.074 53.7407 41.174 47.9407 46.174 48.0407C51.174 48.0407 55.174 53.8407 55.074 61.0407Z" fill="url(#paint8_radial)"/>
<path d="M53.5738 61.0407C53.6738 55.1407 50.2738 50.2407 46.1738 50.2407C41.9738 50.2407 38.5738 54.9407 38.4738 60.8407C38.3738 66.7407 41.7738 71.6407 45.8738 71.6407C50.0738 71.7407 53.4738 66.9407 53.5738 61.0407Z" fill="url(#paint9_radial)"/>
<path d="M43.2737 55.4407C42.8737 56.9407 41.9737 57.9407 41.2737 57.7407C40.5737 57.5407 40.3737 56.2407 40.7737 54.7407C41.1737 53.2407 42.0737 52.2407 42.7737 52.4407C43.5737 52.6407 43.7737 53.9407 43.2737 55.4407Z" fill="#A98B57"/>
<path d="M120.474 89.3407C120.374 101.341 115.374 112.041 107.474 119.841C107.374 119.841 107.374 119.941 107.374 119.941C105.174 122.041 102.874 123.941 100.274 125.541C93.3739 129.941 85.1739 132.441 76.3739 132.341H73.7739C64.9739 132.241 56.8739 129.541 50.0739 124.941C47.4739 123.241 45.1739 121.241 42.9739 119.041C35.2739 111.041 30.5739 100.141 30.6739 88.2407C30.6739 87.7407 30.8739 87.2407 31.2739 86.9407C31.5739 86.6407 32.0739 86.4407 32.5739 86.4407L118.574 87.4407C119.674 87.4407 120.474 88.2407 120.474 89.3407Z" fill="url(#paint10_linear)"/>
<path opacity="0.5" d="M107.474 119.841C107.374 119.841 107.374 119.941 107.374 119.941C105.174 122.041 102.874 123.941 100.274 125.541C93.3741 129.941 85.1741 132.441 76.3741 132.341H73.7741C64.9741 132.241 56.8741 129.541 50.0741 124.941C47.4741 123.241 45.1741 121.241 42.9741 119.041C45.8741 114.341 49.7741 110.441 54.3741 107.441C60.0741 103.741 66.9741 101.641 74.2741 101.741H76.4741C83.7741 101.841 90.5741 104.041 96.2741 107.841C98.3741 109.241 100.274 110.841 102.074 112.641C104.174 114.841 105.974 117.241 107.474 119.841Z" fill="url(#paint11_linear)"/>
<path d="M100.274 125.541C93.3737 129.941 85.1737 132.441 76.3737 132.341H73.7737C64.9737 132.241 56.8737 129.541 50.0737 124.941C52.9737 113.741 63.1737 111.441 75.3737 111.541C87.4737 111.741 97.5737 114.241 100.274 125.541Z" fill="url(#paint12_radial)"/>
<defs>
<radialGradient id="paint0_radial" cx="0" cy="0" r="1" gradientUnits="userSpaceOnUse" gradientTransform="translate(60.2243 27.7583) rotate(0.674372) scale(139.329)">
<stop stop-color="#FFEE90"/>
<stop offset="0.2067" stop-color="#FFEE1D"/>
<stop offset="0.4174" stop-color="#F5CE1B"/>
<stop offset="0.5782" stop-color="#EEBA1A"/>
<stop offset="0.7877" stop-color="#CE7B18"/>
<stop offset="0.8803" stop-color="#DC9A1B"/>
<stop offset="1" stop-color="#F1C720"/>
</radialGradient>
<radialGradient id="paint1_radial" cx="0" cy="0" r="1" gradientUnits="userSpaceOnUse" gradientTransform="translate(79.5844 90.6235) rotate(0.674372) scale(99.8258)">
<stop offset="0.676" stop-color="#FFF799" stop-opacity="0"/>
<stop offset="1" stop-color="#FFF799"/>
</radialGradient>
<radialGradient id="paint2_radial" cx="0" cy="0" r="1" gradientUnits="userSpaceOnUse" gradientTransform="translate(103.671 59.0462) rotate(-81.9582) scale(23.5519 17.4818)">
<stop offset="0.676" stop-color="#FFF799" stop-opacity="0"/>
<stop offset="1" stop-color="#FFF799"/>
</radialGradient>
<radialGradient id="paint3_radial" cx="0" cy="0" r="1" gradientUnits="userSpaceOnUse" gradientTransform="translate(106.325 63.5561) rotate(-81.9582) scale(22.3502 16.5898)">
<stop offset="0.676" stop-color="#A8722A" stop-opacity="0"/>
<stop offset="1" stop-color="#A8722A"/>
</radialGradient>
<radialGradient id="paint4_radial" cx="0" cy="0" r="1" gradientUnits="userSpaceOnUse" gradientTransform="translate(103.731 55.417) rotate(83.3099) scale(22.0975 16.4018)">
<stop stop-color="#6E4C1C"/>
<stop offset="0.6933" stop-color="#221000"/>
<stop offset="1" stop-color="#41280B"/>
</radialGradient>
<radialGradient id="paint5_radial" cx="0" cy="0" r="1" gradientUnits="userSpaceOnUse" gradientTransform="translate(107.179 66.0793) rotate(-81.9582) scale(18.3391 13.6125)">
<stop offset="0.676" stop-color="#FFF799" stop-opacity="0"/>
<stop offset="1" stop-color="#FFF799"/>
</radialGradient>
<radialGradient id="paint6_radial" cx="0" cy="0" r="1" gradientUnits="userSpaceOnUse" gradientTransform="translate(43.5177 58.3373) rotate(-81.9582) scale(23.5519 17.4818)">
<stop offset="0.676" stop-color="#FFF799" stop-opacity="0"/>
<stop offset="1" stop-color="#FFF799"/>
</radialGradient>
<radialGradient id="paint7_radial" cx="0" cy="0" r="1" gradientUnits="userSpaceOnUse" gradientTransform="translate(46.171 62.8474) rotate(-81.9582) scale(22.3502 16.5898)">
<stop offset="0.676" stop-color="#A8722A" stop-opacity="0"/>
<stop offset="1" stop-color="#A8722A"/>
</radialGradient>
<radialGradient id="paint8_radial" cx="0" cy="0" r="1" gradientUnits="userSpaceOnUse" gradientTransform="translate(43.5807 54.7118) rotate(83.3099) scale(22.0975 16.4018)">
<stop stop-color="#6E4C1C"/>
<stop offset="0.6933" stop-color="#221000"/>
<stop offset="1" stop-color="#41280B"/>
</radialGradient>
<radialGradient id="paint9_radial" cx="0" cy="0" r="1" gradientUnits="userSpaceOnUse" gradientTransform="translate(47.0256 65.3706) rotate(-81.9582) scale(18.3391 13.6125)">
<stop offset="0.676" stop-color="#FFF799" stop-opacity="0"/>
<stop offset="1" stop-color="#FFF799"/>
</radialGradient>
<linearGradient id="paint10_linear" x1="75.1204" y1="132.332" x2="75.655" y2="86.9133" gradientUnits="userSpaceOnUse">
<stop stop-color="#622800"/>
<stop offset="0.6564" stop-color="#2B0F00"/>
</linearGradient>
<linearGradient id="paint11_linear" x1="75.1234" y1="132.332" x2="75.4829" y2="101.794" gradientUnits="userSpaceOnUse">
<stop stop-color="#622800"/>
<stop offset="0.6564" stop-color="#2B0F00"/>
</linearGradient>
<radialGradient id="paint12_radial" cx="0" cy="0" r="1" gradientUnits="userSpaceOnUse" gradientTransform="translate(68.6815 114.277) rotate(0.674372) scale(28.4848)">
<stop stop-color="#F97091"/>
<stop offset="1" stop-color="#B33342"/>
</radialGradient>
</defs>
</svg>
