<svg width="151" height="151" viewBox="0 0 151 151" fill="none" xmlns="http://www.w3.org/2000/svg">
<path d="M75.7148 150.857C117.136 150.857 150.715 117.279 150.715 75.8574C150.715 34.4361 117.136 0.857422 75.7148 0.857422C34.2935 0.857422 0.714844 34.4361 0.714844 75.8574C0.714844 117.279 34.2935 150.857 75.7148 150.857Z" fill="url(#paint0_radial)"/>
<path d="M75.7148 150.857C117.136 150.857 150.715 117.279 150.715 75.8574C150.715 34.4361 117.136 0.857422 75.7148 0.857422C34.2935 0.857422 0.714844 34.4361 0.714844 75.8574C0.714844 117.279 34.2935 150.857 75.7148 150.857Z" fill="url(#paint1_radial)"/>
<path d="M42.9727 98.7002C45.6376 105.299 50.5869 110.502 56.2975 113.929C62.1351 117.101 68.861 118.624 75.5869 118.497H78.1249H79.394L80.663 118.37L83.2011 117.99C84.0894 117.863 84.8508 117.609 85.6123 117.482C87.262 117.228 88.7848 116.594 90.4346 116.086C91.196 115.832 91.9574 115.325 92.7189 115.071L93.861 114.563L95.0031 113.929C97.9219 112.279 100.587 110.122 102.871 107.583C105.282 105.045 107.313 102.253 108.963 99.0809C107.313 106.061 102.871 112.406 96.7798 116.594C90.5615 121.035 82.9473 122.685 75.5869 122.812C74.6985 122.812 73.6833 122.685 72.795 122.685L70.0031 122.431C69.1148 122.304 68.2265 122.177 67.2112 121.924C66.3229 121.67 65.4346 121.67 64.5463 121.289C62.7696 120.655 60.993 120.274 59.3432 119.385C57.5666 118.751 56.0437 117.609 54.5209 116.721C48.4295 112.406 43.9879 105.807 42.9727 98.7002Z" fill="url(#paint2_radial)"/>
<path d="M59.6808 70.6002C59.6808 63.0723 55.2198 56.9385 49.9224 56.9385C44.625 56.9385 40.1641 63.0723 40.1641 70.6002C40.1641 78.1281 44.625 84.2619 49.9224 84.2619C55.4986 84.5407 59.6808 78.1281 59.6808 70.6002Z" fill="url(#paint3_radial)"/>
<path d="M57.4508 67.254C57.4508 59.1685 52.711 52.7559 47.1348 52.7559C41.5586 52.7559 36.8188 59.1685 37.0976 67.254C37.0976 75.3395 41.8374 81.7521 47.4136 81.7521C52.9898 81.7521 57.4508 75.3395 57.4508 67.254Z" fill="url(#paint4_radial)"/>
<path d="M57.4508 68.9268C57.4508 76.1759 53.5475 81.7521 48.5289 81.7521C43.5103 81.7521 39.3281 75.8971 39.3281 68.9268C39.3281 61.6778 43.2315 56.1016 48.2501 56.1016C53.5475 56.1016 57.4508 61.6778 57.4508 68.9268Z" fill="url(#paint5_radial)"/>
<path d="M56.0558 68.9268C56.0558 63.0718 52.71 58.332 48.5279 58.332C44.3457 58.332 41 63.0718 41 69.2056C41 75.3395 44.3457 79.8004 48.5279 79.8004C52.71 79.5216 56.0558 74.7818 56.0558 68.9268Z" fill="url(#paint6_radial)"/>
<path d="M45.7417 63.6295C45.4629 65.0235 44.3477 66.1388 43.79 65.8599C43.2324 65.5811 42.9536 64.4659 43.2324 62.793C43.5112 61.399 44.6265 60.2837 45.1841 60.5625C46.0205 60.5625 46.0205 61.9566 45.7417 63.6295Z" fill="#A98B57"/>
<path d="M112.962 70.6002C112.962 63.0723 108.501 56.9385 103.204 56.9385C97.9063 56.9385 93.4453 63.0723 93.4453 70.6002C93.4453 78.1281 97.9063 84.2619 103.204 84.2619C108.78 84.5407 112.962 78.1281 112.962 70.6002Z" fill="url(#paint7_radial)"/>
<path d="M110.732 67.254C110.732 59.1685 105.992 52.7559 100.416 52.7559C94.8399 52.7559 90.1001 59.1685 90.3789 67.254C90.3789 75.3395 95.1187 81.7521 100.695 81.7521C106.271 81.7521 110.732 75.3395 110.732 67.254Z" fill="url(#paint8_radial)"/>
<path d="M110.732 68.9268C110.732 76.1759 106.829 81.7521 101.81 81.7521C96.7915 81.7521 92.6094 75.8971 92.6094 68.9268C92.6094 61.6778 96.5127 56.1016 101.531 56.1016C106.829 56.1016 110.732 61.6778 110.732 68.9268Z" fill="url(#paint9_radial)"/>
<path d="M109.337 68.9268C109.337 63.0718 105.991 58.332 101.809 58.332C97.627 58.332 94.2812 63.0718 94.2812 69.2056C94.2812 75.3395 97.627 79.8004 101.809 79.8004C105.991 79.5216 109.337 74.7818 109.337 68.9268Z" fill="url(#paint10_radial)"/>
<path d="M99.023 63.6295C98.7442 65.0235 97.6289 66.1388 97.0713 65.8599C96.5137 65.5811 96.2349 64.4659 96.5137 62.793C96.7925 61.399 97.9077 60.2837 98.4654 60.5625C99.3018 60.5625 99.3018 61.9566 99.023 63.6295Z" fill="#A98B57"/>
<defs>
<radialGradient id="paint0_radial" cx="0" cy="0" r="1" gradientUnits="userSpaceOnUse" gradientTransform="translate(60.6153 28.3111) rotate(1.25241) scale(139.264)">
<stop stop-color="#FFEE90"/>
<stop offset="0.2067" stop-color="#FFEE1D"/>
<stop offset="0.4174" stop-color="#F5CE1B"/>
<stop offset="0.5782" stop-color="#EEBA1A"/>
<stop offset="0.7877" stop-color="#CE7B18"/>
<stop offset="0.8803" stop-color="#DC9A1B"/>
<stop offset="1" stop-color="#F1C720"/>
</radialGradient>
<radialGradient id="paint1_radial" cx="0" cy="0" r="1" gradientUnits="userSpaceOnUse" gradientTransform="translate(79.3315 91.3388) rotate(1.25241) scale(99.7788)">
<stop offset="0.676" stop-color="#FFF799" stop-opacity="0"/>
<stop offset="1" stop-color="#FFF799"/>
</radialGradient>
<radialGradient id="paint2_radial" cx="0" cy="0" r="1" gradientUnits="userSpaceOnUse" gradientTransform="translate(75.8838 110.538) scale(26.175 34.4829)">
<stop stop-color="#6E4C1C"/>
<stop offset="0.6933" stop-color="#221000"/>
<stop offset="1" stop-color="#41280B"/>
</radialGradient>
<radialGradient id="paint3_radial" cx="0" cy="0" r="1" gradientUnits="userSpaceOnUse" gradientTransform="translate(45.9289 66.4016) rotate(-82.8487) scale(23.5167 17.4546)">
<stop offset="0.676" stop-color="#FFF799" stop-opacity="0"/>
<stop offset="1" stop-color="#FFF799"/>
</radialGradient>
<radialGradient id="paint4_radial" cx="0" cy="0" r="1" gradientUnits="userSpaceOnUse" gradientTransform="translate(48.6474 70.8626) rotate(-82.8487) scale(22.3169 16.5641)">
<stop offset="0.676" stop-color="#A8722A" stop-opacity="0"/>
<stop offset="1" stop-color="#A8722A"/>
</radialGradient>
<radialGradient id="paint5_radial" cx="0" cy="0" r="1" gradientUnits="userSpaceOnUse" gradientTransform="translate(45.9899 62.7872) rotate(82.4266) scale(22.0639 16.3772)">
<stop stop-color="#6E4C1C"/>
<stop offset="0.6933" stop-color="#221000"/>
<stop offset="1" stop-color="#41280B"/>
</radialGradient>
<radialGradient id="paint6_radial" cx="0" cy="0" r="1" gradientUnits="userSpaceOnUse" gradientTransform="translate(49.5386 73.3683) rotate(-82.8487) scale(18.3118 13.5914)">
<stop offset="0.676" stop-color="#FFF799" stop-opacity="0"/>
<stop offset="1" stop-color="#FFF799"/>
</radialGradient>
<radialGradient id="paint7_radial" cx="0" cy="0" r="1" gradientUnits="userSpaceOnUse" gradientTransform="translate(99.2102 66.4016) rotate(-82.8487) scale(23.5167 17.4546)">
<stop offset="0.676" stop-color="#FFF799" stop-opacity="0"/>
<stop offset="1" stop-color="#FFF799"/>
</radialGradient>
<radialGradient id="paint8_radial" cx="0" cy="0" r="1" gradientUnits="userSpaceOnUse" gradientTransform="translate(101.929 70.8626) rotate(-82.8487) scale(22.3169 16.5641)">
<stop offset="0.676" stop-color="#A8722A" stop-opacity="0"/>
<stop offset="1" stop-color="#A8722A"/>
</radialGradient>
<radialGradient id="paint9_radial" cx="0" cy="0" r="1" gradientUnits="userSpaceOnUse" gradientTransform="translate(99.2711 62.7872) rotate(82.4266) scale(22.0639 16.3772)">
<stop stop-color="#6E4C1C"/>
<stop offset="0.6933" stop-color="#221000"/>
<stop offset="1" stop-color="#41280B"/>
</radialGradient>
<radialGradient id="paint10_radial" cx="0" cy="0" r="1" gradientUnits="userSpaceOnUse" gradientTransform="translate(102.82 73.3683) rotate(-82.8487) scale(18.3118 13.5914)">
<stop offset="0.676" stop-color="#FFF799" stop-opacity="0"/>
<stop offset="1" stop-color="#FFF799"/>
</radialGradient>
</defs>
</svg>
