<svg width="151" height="153" viewBox="0 0 151 153" fill="none" xmlns="http://www.w3.org/2000/svg">
<path d="M75.8359 152.78C117.257 152.78 150.836 118.704 150.836 76.6702C150.836 34.636 117.257 0.560547 75.8359 0.560547C34.4146 0.560547 0.835938 34.636 0.835938 76.6702C0.835938 118.704 34.4146 152.78 75.8359 152.78Z" fill="url(#paint0_radial)"/>
<path d="M75.8359 152.78C117.257 152.78 150.836 118.704 150.836 76.6702C150.836 34.636 117.257 0.560547 75.8359 0.560547C34.4146 0.560547 0.835938 34.636 0.835938 76.6702C0.835938 118.704 34.4146 152.78 75.8359 152.78Z" fill="url(#paint1_radial)"/>
<path d="M117.441 64.8989C117.541 57.1864 113.241 50.8947 107.941 50.7932C102.541 50.6917 98.1408 56.9835 98.0408 64.6959C97.9408 72.4084 102.241 78.7001 107.541 78.8016C112.941 78.8016 117.341 72.6113 117.441 64.8989Z" fill="url(#paint2_radial)"/>
<path d="M115.232 61.447C115.332 53.3286 110.832 46.631 105.132 46.5295C99.4321 46.428 94.8321 53.0242 94.7321 61.1425C94.6321 69.2609 99.1321 75.9586 104.832 76.06C110.532 76.1615 115.132 69.5653 115.232 61.447Z" fill="url(#paint3_radial)"/>
<path d="M115.332 63.0716C115.232 70.2766 111.132 76.1624 106.132 76.061C101.132 75.9595 97.1323 70.0737 97.2323 62.8686C97.3323 55.6636 101.432 49.7777 106.432 49.8792C111.432 49.8792 115.432 55.765 115.332 63.0716Z" fill="url(#paint4_radial)"/>
<path d="M113.747 63.0731C113.847 57.0858 110.447 52.1133 106.347 52.1133C102.147 52.1133 98.7467 56.8828 98.6467 62.8701C98.5467 68.8574 101.947 73.8299 106.047 73.8299C110.247 73.9314 113.747 69.0604 113.747 63.0731Z" fill="url(#paint5_radial)"/>
<path d="M103.536 57.3905C103.136 58.9127 102.236 59.9275 101.536 59.7245C100.836 59.5216 100.636 58.2023 101.036 56.6801C101.436 55.1579 102.336 54.1432 103.036 54.3461C103.736 54.5491 103.936 55.8683 103.536 57.3905Z" fill="#A98B57"/>
<path d="M57.2337 64.186C57.3337 56.4735 53.0337 50.1818 47.7337 50.0803C42.3337 49.9788 37.9337 56.2706 37.8337 63.983C37.7337 71.6955 42.0337 77.9872 47.3337 78.0887C52.7337 78.0887 57.1337 71.8984 57.2337 64.186Z" fill="url(#paint6_radial)"/>
<path d="M55.1384 60.739C55.2384 52.6206 50.7384 45.9229 45.0384 45.8215C39.4384 45.72 34.7384 52.3162 34.6384 60.4345C34.5384 68.5529 39.0384 75.2505 44.7384 75.352C50.4384 75.4535 55.0384 68.8573 55.1384 60.739Z" fill="url(#paint7_radial)"/>
<path d="M55.137 62.3636C55.037 69.5686 50.937 75.4544 45.937 75.3529C40.937 75.2515 36.937 69.3657 37.037 62.1606C37.137 54.9556 41.237 49.0697 46.237 49.1712C51.237 49.1712 55.237 55.057 55.137 62.3636Z" fill="url(#paint8_radial)"/>
<path d="M53.6373 62.3612C53.7373 56.3739 50.3373 51.4014 46.2373 51.4014C42.0373 51.4014 38.6373 56.1709 38.5373 62.1582C38.4373 68.1455 41.8373 73.118 45.9373 73.118C50.1373 73.2195 53.5373 68.3485 53.6373 62.3612Z" fill="url(#paint9_radial)"/>
<path d="M43.3445 56.6786C42.9445 58.2008 42.0445 59.2156 41.3445 59.0126C40.6445 58.8097 40.4445 57.4904 40.8445 55.9682C41.2445 54.446 42.1445 53.4312 42.8445 53.6342C43.6445 53.8372 43.8445 55.1564 43.3445 56.6786Z" fill="#A98B57"/>
<path d="M120.544 91.0806C120.444 103.258 115.444 114.116 107.544 122.032C107.444 122.032 107.444 122.133 107.444 122.133C105.244 124.264 102.944 126.193 100.344 127.816C93.4437 132.281 85.2437 134.818 76.4437 134.717H73.8438C65.0438 134.615 56.9438 131.875 50.1437 127.207C47.5438 125.482 45.2438 123.453 43.0438 121.22C35.3438 113.102 30.6438 102.04 30.7438 89.9643C30.7438 89.4569 30.9438 88.9495 31.3438 88.6451C31.6438 88.3407 32.1438 88.1377 32.6438 88.1377L118.644 89.1525C119.744 89.1525 120.544 89.9643 120.544 91.0806Z" fill="url(#paint10_linear)"/>
<path opacity="0.5" d="M107.535 122.03C107.435 122.03 107.435 122.132 107.435 122.132C105.235 124.263 102.935 126.191 100.335 127.815C93.4352 132.28 85.2351 134.817 76.4352 134.715H73.8352C65.0352 134.614 56.9352 131.874 50.1352 127.206C47.5352 125.481 45.2352 123.451 43.0352 121.219C45.9352 116.449 49.8352 112.491 54.4352 109.447C60.1352 105.692 67.0352 103.561 74.3352 103.663H76.5351C83.8351 103.764 90.6352 105.997 96.3351 109.853C98.4352 111.274 100.335 112.897 102.135 114.724C104.235 116.956 106.035 119.392 107.535 122.03Z" fill="url(#paint11_linear)"/>
<path d="M100.337 127.817C93.4367 132.282 85.2367 134.819 76.4367 134.717H73.8367C65.0367 134.616 56.9367 131.876 50.1367 127.208C53.0367 115.842 63.2367 113.508 75.4367 113.61C87.5367 113.813 97.6367 116.35 100.337 127.817Z" fill="url(#paint12_radial)"/>
<defs>
<radialGradient id="paint0_radial" cx="0" cy="0" r="1" gradientUnits="userSpaceOnUse" gradientTransform="translate(60.2863 28.5868) rotate(0.684349) scale(139.329 141.39)">
<stop stop-color="#FFEE90"/>
<stop offset="0.2067" stop-color="#FFEE1D"/>
<stop offset="0.4174" stop-color="#F5CE1B"/>
<stop offset="0.5782" stop-color="#EEBA1A"/>
<stop offset="0.7877" stop-color="#CE7B18"/>
<stop offset="0.8803" stop-color="#DC9A1B"/>
<stop offset="1" stop-color="#F1C720"/>
</radialGradient>
<radialGradient id="paint1_radial" cx="0" cy="0" r="1" gradientUnits="userSpaceOnUse" gradientTransform="translate(79.6464 92.3822) rotate(0.684349) scale(99.826 101.303)">
<stop offset="0.676" stop-color="#FFF799" stop-opacity="0"/>
<stop offset="1" stop-color="#FFF799"/>
</radialGradient>
<radialGradient id="paint2_radial" cx="0" cy="0" r="1" gradientUnits="userSpaceOnUse" gradientTransform="translate(103.738 60.3378) rotate(-82.074) scale(23.8936 17.4868)">
<stop offset="0.676" stop-color="#FFF799" stop-opacity="0"/>
<stop offset="1" stop-color="#FFF799"/>
</radialGradient>
<radialGradient id="paint3_radial" cx="0" cy="0" r="1" gradientUnits="userSpaceOnUse" gradientTransform="translate(106.383 64.9129) rotate(-82.074) scale(22.6744 16.5945)">
<stop offset="0.676" stop-color="#A8722A" stop-opacity="0"/>
<stop offset="1" stop-color="#A8722A"/>
</radialGradient>
<radialGradient id="paint4_radial" cx="0" cy="0" r="1" gradientUnits="userSpaceOnUse" gradientTransform="translate(103.789 56.6543) rotate(83.4066) scale(22.4201 16.4051)">
<stop stop-color="#6E4C1C"/>
<stop offset="0.6933" stop-color="#221000"/>
<stop offset="1" stop-color="#41280B"/>
</radialGradient>
<radialGradient id="paint5_radial" cx="0" cy="0" r="1" gradientUnits="userSpaceOnUse" gradientTransform="translate(107.252 67.4759) rotate(-82.074) scale(18.6052 13.6164)">
<stop offset="0.676" stop-color="#FFF799" stop-opacity="0"/>
<stop offset="1" stop-color="#FFF799"/>
</radialGradient>
<radialGradient id="paint6_radial" cx="0" cy="0" r="1" gradientUnits="userSpaceOnUse" gradientTransform="translate(43.5778 59.6159) rotate(-82.074) scale(23.8936 17.4868)">
<stop offset="0.676" stop-color="#FFF799" stop-opacity="0"/>
<stop offset="1" stop-color="#FFF799"/>
</radialGradient>
<radialGradient id="paint7_radial" cx="0" cy="0" r="1" gradientUnits="userSpaceOnUse" gradientTransform="translate(46.2355 64.196) rotate(-82.074) scale(22.6744 16.5945)">
<stop offset="0.676" stop-color="#A8722A" stop-opacity="0"/>
<stop offset="1" stop-color="#A8722A"/>
</radialGradient>
<radialGradient id="paint8_radial" cx="0" cy="0" r="1" gradientUnits="userSpaceOnUse" gradientTransform="translate(43.6436 55.941) rotate(83.4066) scale(22.42 16.4051)">
<stop stop-color="#6E4C1C"/>
<stop offset="0.6933" stop-color="#221000"/>
<stop offset="1" stop-color="#41280B"/>
</radialGradient>
<radialGradient id="paint9_radial" cx="0" cy="0" r="1" gradientUnits="userSpaceOnUse" gradientTransform="translate(47.0891 66.7551) rotate(-82.074) scale(18.6052 13.6164)">
<stop offset="0.676" stop-color="#FFF799" stop-opacity="0"/>
<stop offset="1" stop-color="#FFF799"/>
</radialGradient>
<linearGradient id="paint10_linear" x1="75.1902" y1="134.708" x2="75.7407" y2="88.6175" gradientUnits="userSpaceOnUse">
<stop stop-color="#622800"/>
<stop offset="0.6564" stop-color="#2B0F00"/>
</linearGradient>
<linearGradient id="paint11_linear" x1="75.1845" y1="134.707" x2="75.5546" y2="103.717" gradientUnits="userSpaceOnUse">
<stop stop-color="#622800"/>
<stop offset="0.6564" stop-color="#2B0F00"/>
</linearGradient>
<radialGradient id="paint12_radial" cx="0" cy="0" r="1" gradientUnits="userSpaceOnUse" gradientTransform="translate(68.7444 116.386) rotate(0.684349) scale(28.4848 28.9062)">
<stop stop-color="#F97091"/>
<stop offset="1" stop-color="#B33342"/>
</radialGradient>
</defs>
</svg>
