<svg width="151" height="151" viewBox="0 0 151 151" fill="none" xmlns="http://www.w3.org/2000/svg">
<path d="M75.7412 150.141C117.163 150.141 150.741 116.562 150.741 75.1407C150.741 33.7193 117.163 0.140686 75.7412 0.140686C34.3199 0.140686 0.741211 33.7193 0.741211 75.1407C0.741211 116.562 34.3199 150.141 75.7412 150.141Z" fill="url(#paint0_radial)"/>
<path d="M75.7412 150.141C117.163 150.141 150.741 116.562 150.741 75.1407C150.741 33.7193 117.163 0.140686 75.7412 0.140686C34.3199 0.140686 0.741211 33.7193 0.741211 75.1407C0.741211 116.562 34.3199 150.141 75.7412 150.141Z" fill="url(#paint1_radial)"/>
<path d="M56.9909 63.0871C56.9909 55.5536 52.6383 49.3594 47.2811 49.3594C41.924 49.3594 37.5713 55.5536 37.5713 63.0871C37.5713 70.6206 41.924 76.8148 47.2811 76.8148C52.6383 76.8148 56.9909 70.6206 56.9909 63.0871Z" fill="url(#paint2_radial)"/>
<path d="M54.8138 59.7389C54.8138 51.7032 50.2937 45.1742 44.6017 45.1742C38.9097 45.1742 34.3896 51.7032 34.3896 59.7389C34.3896 67.7746 38.9097 74.3037 44.6017 74.3037C50.1263 74.3037 54.8138 67.7746 54.8138 59.7389Z" fill="url(#paint3_radial)"/>
<path d="M54.8147 61.2456C54.8147 68.4443 50.7969 74.1362 45.7745 74.1362C40.7522 74.1362 36.7344 68.2769 36.7344 61.2456C36.7344 54.0469 40.7522 48.355 45.7745 48.355C50.7969 48.355 54.8147 54.2144 54.8147 61.2456Z" fill="url(#paint4_radial)"/>
<path d="M45.7737 71.9598C49.9343 71.9598 53.3072 67.1628 53.3072 61.2455C53.3072 55.3281 49.9343 50.5312 45.7737 50.5312C41.6131 50.5312 38.2402 55.3281 38.2402 61.2455C38.2402 67.1628 41.6131 71.9598 45.7737 71.9598Z" fill="url(#paint5_radial)"/>
<path d="M42.9276 55.8884C42.5928 57.3951 41.5883 58.3996 40.9187 58.2321C40.249 58.0647 40.0816 56.7254 40.4164 55.2188C40.7513 53.7121 41.7557 52.7076 42.4254 52.875C43.095 53.0424 43.4298 54.3817 42.9276 55.8884Z" fill="#A98B57"/>
<path d="M117.427 69.1139C117.259 58.567 111.065 50.1964 103.699 50.3639C96.3328 50.5313 90.6409 59.2366 90.8083 69.7835C90.9757 80.3304 97.1699 88.7009 104.536 88.5335C111.902 88.3661 117.594 79.6607 117.427 69.1139Z" fill="url(#paint6_radial)"/>
<path d="M117.593 71.2903C117.593 71.96 117.593 72.797 117.593 73.4667C116.589 65.0961 111.567 58.9019 105.54 59.0694C99.513 59.2368 94.8255 65.7658 94.1558 74.1363C93.9884 73.4667 93.9884 72.6296 93.9884 71.96C93.821 62.585 98.8433 54.8841 105.372 54.7167C111.901 54.3819 117.426 61.9153 117.593 71.2903Z" fill="url(#paint7_radial)"/>
<path d="M115.083 74.1362C114.916 66.4353 110.396 60.2411 105.039 60.2411C99.6815 60.4086 95.3288 66.7702 95.6636 74.4711C95.9984 82.172 100.351 88.3661 105.708 88.3661C110.898 88.3661 115.251 82.0045 115.083 74.1362Z" fill="url(#paint8_radial)"/>
<path d="M120.44 88.701C120.44 100.587 115.585 111.469 107.884 119.337L107.717 119.505C105.54 121.681 103.196 123.522 100.685 125.197C93.8214 129.717 85.6183 132.228 76.9129 132.228H74.4018C65.6964 132.228 57.4933 129.717 50.6295 125.197C48.1183 123.522 45.6071 121.514 43.4308 119.337C35.5625 111.469 30.875 100.587 30.875 88.701C30.875 88.1988 31.0424 87.6966 31.3772 87.3617C31.7121 87.0269 32.2143 86.8595 32.7165 86.8595H118.598C119.603 86.8595 120.44 87.6966 120.44 88.701Z" fill="url(#paint9_linear)"/>
<path opacity="0.5" d="M107.884 119.337C107.884 119.337 107.884 119.504 107.884 119.337C105.54 121.681 103.196 123.522 100.685 125.196C93.8213 129.717 85.6182 132.228 76.9128 132.228H74.4016C65.6963 132.228 57.4932 129.717 50.6293 125.196C48.1182 123.522 45.607 121.513 43.4307 119.337C46.2766 114.65 50.1271 110.632 54.6472 107.618C60.3391 103.935 67.203 101.759 74.4016 101.759H76.578C83.9441 101.759 90.6405 103.935 96.4999 107.618C98.6762 108.958 100.518 110.632 102.359 112.306C104.536 114.482 106.377 116.826 107.884 119.337Z" fill="url(#paint10_linear)"/>
<path d="M100.685 125.196C93.8209 129.717 85.6177 132.228 76.9124 132.228H74.4012C65.6959 132.228 57.4927 129.717 50.6289 125.196C53.4749 113.98 63.5195 111.469 75.7405 111.469C87.7941 111.636 98.0061 113.98 100.685 125.196Z" fill="url(#paint11_radial)"/>
<path d="M46.2773 86.8594C48.7885 89.3705 57.159 96.067 74.9046 96.7366C89.9715 97.4062 98.8443 90.8772 102.862 86.692L46.2773 86.8594Z" fill="url(#paint12_radial)"/>
<defs>
<radialGradient id="paint0_radial" cx="0" cy="0" r="1" gradientUnits="userSpaceOnUse" gradientTransform="translate(59.5174 28.0263) rotate(-0.0430147) scale(139.181)">
<stop stop-color="#FFEE90"/>
<stop offset="0.2067" stop-color="#FFEE1D"/>
<stop offset="0.4174" stop-color="#F5CE1B"/>
<stop offset="0.5782" stop-color="#EEBA1A"/>
<stop offset="0.7877" stop-color="#CE7B18"/>
<stop offset="0.8803" stop-color="#DC9A1B"/>
<stop offset="1" stop-color="#F1C720"/>
</radialGradient>
<radialGradient id="paint1_radial" cx="0" cy="0" r="1" gradientUnits="userSpaceOnUse" gradientTransform="translate(79.6417 90.5776) rotate(-0.0430147) scale(99.7201)">
<stop offset="0.676" stop-color="#FFF799" stop-opacity="0"/>
<stop offset="1" stop-color="#FFF799"/>
</radialGradient>
<radialGradient id="paint2_radial" cx="0" cy="0" r="1" gradientUnits="userSpaceOnUse" gradientTransform="translate(43.213 58.7552) rotate(-82.6753) scale(23.5292 17.4635)">
<stop offset="0.676" stop-color="#FFF799" stop-opacity="0"/>
<stop offset="1" stop-color="#FFF799"/>
</radialGradient>
<radialGradient id="paint3_radial" cx="0" cy="0" r="1" gradientUnits="userSpaceOnUse" gradientTransform="translate(45.9188 63.227) rotate(-82.6753) scale(22.3286 16.5724)">
<stop offset="0.676" stop-color="#A8722A" stop-opacity="0"/>
<stop offset="1" stop-color="#A8722A"/>
</radialGradient>
<radialGradient id="paint4_radial" cx="0" cy="0" r="1" gradientUnits="userSpaceOnUse" gradientTransform="translate(43.2117 55.1356) rotate(82.5943) scale(22.0764 16.3843)">
<stop stop-color="#6E4C1C"/>
<stop offset="0.6933" stop-color="#221000"/>
<stop offset="1" stop-color="#41280B"/>
</radialGradient>
<radialGradient id="paint5_radial" cx="0" cy="0" r="1" gradientUnits="userSpaceOnUse" gradientTransform="translate(46.8041 65.7369) rotate(-82.6753) scale(18.3214 13.5983)">
<stop offset="0.676" stop-color="#FFF799" stop-opacity="0"/>
<stop offset="1" stop-color="#FFF799"/>
</radialGradient>
<radialGradient id="paint6_radial" cx="0" cy="0" r="1" gradientUnits="userSpaceOnUse" gradientTransform="translate(106.066 74.0302) rotate(-84.06) scale(29.2876 21.4901)">
<stop offset="0.676" stop-color="#A8722A" stop-opacity="0"/>
<stop offset="1" stop-color="#A8722A"/>
</radialGradient>
<radialGradient id="paint7_radial" cx="0" cy="0" r="1" gradientUnits="userSpaceOnUse" gradientTransform="translate(102.259 59.6505) rotate(81.3809) scale(20.5319 15.0671)">
<stop stop-color="#6E4C1C"/>
<stop offset="0.6933" stop-color="#221000"/>
<stop offset="1" stop-color="#41280B"/>
</radialGradient>
<radialGradient id="paint8_radial" cx="0" cy="0" r="1" gradientUnits="userSpaceOnUse" gradientTransform="translate(106.75 80.1973) rotate(-84.06) scale(24.0314 17.6334)">
<stop offset="0.676" stop-color="#FFF799" stop-opacity="0"/>
<stop offset="1" stop-color="#FFF799"/>
</radialGradient>
<linearGradient id="paint9_linear" x1="75.7038" y1="132.295" x2="75.6697" y2="86.92" gradientUnits="userSpaceOnUse">
<stop stop-color="#622800"/>
<stop offset="0.6564" stop-color="#2B0F00"/>
</linearGradient>
<linearGradient id="paint10_linear" x1="75.7053" y1="132.295" x2="75.6824" y2="101.786" gradientUnits="userSpaceOnUse">
<stop stop-color="#622800"/>
<stop offset="0.6564" stop-color="#2B0F00"/>
</linearGradient>
<radialGradient id="paint11_radial" cx="0" cy="0" r="1" gradientUnits="userSpaceOnUse" gradientTransform="translate(69.0445 114.34) rotate(-0.0430146) scale(28.4546)">
<stop stop-color="#F97091"/>
<stop offset="1" stop-color="#B33342"/>
</radialGradient>
<radialGradient id="paint12_radial" cx="0" cy="0" r="1" gradientUnits="userSpaceOnUse" gradientTransform="translate(68.6186 80.7818) rotate(13.9695) scale(29.6659)">
<stop stop-color="#F9F9F9"/>
<stop offset="1" stop-color="#D3D6DE"/>
</radialGradient>
</defs>
</svg>
