<svg width="151" height="151" viewBox="0 0 151 151" fill="none" xmlns="http://www.w3.org/2000/svg">
<path d="M75.3379 150.604C116.759 150.604 150.338 117.026 150.338 75.6045C150.338 34.1831 116.759 0.604492 75.3379 0.604492C33.9165 0.604492 0.337891 34.1831 0.337891 75.6045C0.337891 117.026 33.9165 150.604 75.3379 150.604Z" fill="url(#paint0_radial)"/>
<path d="M75.3379 150.604C116.759 150.604 150.338 117.026 150.338 75.6045C150.338 34.1831 116.759 0.604492 75.3379 0.604492C33.9165 0.604492 0.337891 34.1831 0.337891 75.6045C0.337891 117.026 33.9165 150.604 75.3379 150.604Z" fill="url(#paint1_radial)"/>
<path d="M118.083 74.9215C118.299 64.5791 111.835 55.9605 103.647 55.8527C95.4594 55.6373 88.5645 63.9327 88.349 74.2751C88.1335 84.6175 94.5975 93.2361 102.785 93.4516C111.081 93.5593 117.868 85.3716 118.083 74.9215Z" fill="url(#paint2_radial)"/>
<path d="M118.19 77.076C118.19 77.8301 118.082 78.5842 117.975 79.2306C117.328 71.0429 111.942 64.5789 105.154 64.4712C98.475 64.3635 92.7651 70.5042 91.6878 78.6919C91.5801 77.9378 91.5801 77.2914 91.5801 76.5373C91.7955 67.2722 97.8286 59.9464 105.154 60.1619C112.588 60.1619 118.406 67.8109 118.19 77.076Z" fill="url(#paint3_radial)"/>
<path d="M115.174 79.7697C115.389 72.1207 110.541 65.7644 104.508 65.6567C98.4753 65.549 93.4118 71.582 93.1964 79.2311C92.9809 86.8801 97.8289 93.2364 103.862 93.3441C110.003 93.5596 114.958 87.4188 115.174 79.7697Z" fill="url(#paint4_radial)"/>
<path d="M42.5977 98.4473C45.2626 105.046 50.2119 110.249 55.9225 113.676C61.7601 116.848 68.486 118.371 75.2119 118.244H77.7499H79.019L80.288 118.117L82.8261 117.737C83.7144 117.61 84.4758 117.356 85.2373 117.229C86.887 116.975 88.4098 116.341 90.0596 115.833C90.821 115.579 91.5824 115.072 92.3439 114.818L93.486 114.31L94.6281 113.676C97.5469 112.026 100.212 109.869 102.496 107.331C104.907 104.792 106.938 102.001 108.588 98.828C106.938 105.808 102.496 112.153 96.4048 116.341C90.1865 120.782 82.5723 122.432 75.2119 122.559C74.3235 122.559 73.3083 122.432 72.42 122.432L69.6281 122.178C68.7398 122.051 67.8515 121.924 66.8362 121.671C65.9479 121.417 65.0596 121.417 64.1713 121.036C62.3946 120.402 60.618 120.021 58.9682 119.133C57.1916 118.498 55.6687 117.356 54.1459 116.468C48.0545 112.153 43.6129 105.554 42.5977 98.4473Z" fill="url(#paint5_radial)"/>
<path d="M59.3058 70.3472C59.3058 62.8194 54.8448 56.6855 49.5474 56.6855C44.25 56.6855 39.7891 62.8194 39.7891 70.3472C39.7891 77.8751 44.25 84.009 49.5474 84.009C55.1236 84.2878 59.3058 77.8751 59.3058 70.3472Z" fill="url(#paint6_radial)"/>
<path d="M57.0739 67.0011C57.0739 58.9156 52.3341 52.5029 46.7579 52.5029C41.1817 52.5029 36.4419 58.9156 36.7207 67.0011C36.7207 75.0866 41.4605 81.4992 47.0367 81.4992C52.6129 81.4992 57.0739 75.0866 57.0739 67.0011Z" fill="url(#paint7_radial)"/>
<path d="M57.0719 68.6739C57.0719 75.923 53.1686 81.4992 48.15 81.4992C43.1314 81.4992 38.9492 75.6442 38.9492 68.6739C38.9492 61.4248 42.8526 55.8486 47.8712 55.8486C53.1686 55.8486 57.0719 61.4248 57.0719 68.6739Z" fill="url(#paint8_radial)"/>
<path d="M55.6808 68.6739C55.6808 62.8189 52.335 58.0791 48.1529 58.0791C43.9707 58.0791 40.625 62.8189 40.625 68.9527C40.625 75.0865 43.9707 79.5475 48.1529 79.5475C52.335 79.2687 55.6808 74.5289 55.6808 68.6739Z" fill="url(#paint9_radial)"/>
<path d="M45.3648 63.3765C45.086 64.7706 43.9707 65.8858 43.4131 65.607C42.8555 65.3282 42.5767 64.213 42.8555 62.5401C43.1343 61.146 44.2495 60.0308 44.8071 60.3096C45.6436 60.3096 45.6436 61.7037 45.3648 63.3765Z" fill="#A98B57"/>
<defs>
<radialGradient id="paint0_radial" cx="0" cy="0" r="1" gradientUnits="userSpaceOnUse" gradientTransform="translate(60.2384 28.0582) rotate(1.25241) scale(139.264)">
<stop stop-color="#FFEE90"/>
<stop offset="0.2067" stop-color="#FFEE1D"/>
<stop offset="0.4174" stop-color="#F5CE1B"/>
<stop offset="0.5782" stop-color="#EEBA1A"/>
<stop offset="0.7877" stop-color="#CE7B18"/>
<stop offset="0.8803" stop-color="#DC9A1B"/>
<stop offset="1" stop-color="#F1C720"/>
</radialGradient>
<radialGradient id="paint1_radial" cx="0" cy="0" r="1" gradientUnits="userSpaceOnUse" gradientTransform="translate(78.9545 91.0859) rotate(1.25241) scale(99.7788)">
<stop offset="0.676" stop-color="#FFF799" stop-opacity="0"/>
<stop offset="1" stop-color="#FFF799"/>
</radialGradient>
<radialGradient id="paint2_radial" cx="0" cy="0" r="1" gradientUnits="userSpaceOnUse" gradientTransform="translate(105.147 79.2405) rotate(-80.4763) scale(28.929 24.0632)">
<stop offset="0.676" stop-color="#A8722A" stop-opacity="0"/>
<stop offset="1" stop-color="#A8722A"/>
</radialGradient>
<radialGradient id="paint3_radial" cx="0" cy="0" r="1" gradientUnits="userSpaceOnUse" gradientTransform="translate(101.579 64.9152) rotate(82.9676) scale(20.2816 16.8697)">
<stop stop-color="#6E4C1C"/>
<stop offset="0.6933" stop-color="#221000"/>
<stop offset="1" stop-color="#41280B"/>
</radialGradient>
<radialGradient id="paint4_radial" cx="0" cy="0" r="1" gradientUnits="userSpaceOnUse" gradientTransform="translate(105.619 85.3436) rotate(-80.4763) scale(23.7372 19.7446)">
<stop offset="0.676" stop-color="#FFF799" stop-opacity="0"/>
<stop offset="1" stop-color="#FFF799"/>
</radialGradient>
<radialGradient id="paint5_radial" cx="0" cy="0" r="1" gradientUnits="userSpaceOnUse" gradientTransform="translate(75.5088 110.285) scale(26.175 34.4829)">
<stop stop-color="#6E4C1C"/>
<stop offset="0.6933" stop-color="#221000"/>
<stop offset="1" stop-color="#41280B"/>
</radialGradient>
<radialGradient id="paint6_radial" cx="0" cy="0" r="1" gradientUnits="userSpaceOnUse" gradientTransform="translate(45.5539 66.1486) rotate(-82.8487) scale(23.5167 17.4546)">
<stop offset="0.676" stop-color="#FFF799" stop-opacity="0"/>
<stop offset="1" stop-color="#FFF799"/>
</radialGradient>
<radialGradient id="paint7_radial" cx="0" cy="0" r="1" gradientUnits="userSpaceOnUse" gradientTransform="translate(48.2705 70.6097) rotate(-82.8487) scale(22.3169 16.5641)">
<stop offset="0.676" stop-color="#A8722A" stop-opacity="0"/>
<stop offset="1" stop-color="#A8722A"/>
</radialGradient>
<radialGradient id="paint8_radial" cx="0" cy="0" r="1" gradientUnits="userSpaceOnUse" gradientTransform="translate(45.6109 62.5343) rotate(82.4266) scale(22.0639 16.3772)">
<stop stop-color="#6E4C1C"/>
<stop offset="0.6933" stop-color="#221000"/>
<stop offset="1" stop-color="#41280B"/>
</radialGradient>
<radialGradient id="paint9_radial" cx="0" cy="0" r="1" gradientUnits="userSpaceOnUse" gradientTransform="translate(49.1636 73.1154) rotate(-82.8487) scale(18.3118 13.5914)">
<stop offset="0.676" stop-color="#FFF799" stop-opacity="0"/>
<stop offset="1" stop-color="#FFF799"/>
</radialGradient>
</defs>
</svg>
