<svg width="778" height="603" viewBox="0 0 778 603" fill="none" xmlns="http://www.w3.org/2000/svg">
<g filter="url(#filter0_d)">
<circle cx="677.216" cy="321.179" r="3.40701" fill="white"/>
</g>
<path d="M675.045 140.502C676.089 140.502 676.891 144.244 676.891 144.244C676.891 144.244 680.704 143.844 681.025 144.845C681.346 145.845 678.055 147.746 678.055 147.746C678.055 147.746 679.6 151.249 678.758 151.849C677.915 152.469 675.065 149.908 675.065 149.908C675.065 149.908 672.216 152.469 671.373 151.849C670.53 151.229 672.055 147.746 672.055 147.746C672.055 147.746 668.744 145.825 669.065 144.845C669.386 143.864 673.199 144.244 673.199 144.244C673.199 144.244 674.002 140.502 675.045 140.502Z" fill="#00D6C2"/>
<path d="M675.045 140.302C676.089 140.302 676.891 144.044 676.891 144.044C676.891 144.044 680.704 143.644 681.025 144.644C681.346 145.645 678.055 147.546 678.055 147.546C678.055 147.546 679.6 151.049 678.758 151.649C677.915 152.269 675.065 149.708 675.065 149.708C675.065 149.708 672.216 152.269 671.373 151.649C670.51 151.049 672.055 147.546 672.055 147.546C672.055 147.546 668.744 145.625 669.065 144.644C669.386 143.664 673.199 144.044 673.199 144.044C673.199 144.044 674.002 140.302 675.045 140.302Z" fill="url(#paint0_linear)"/>
<path d="M675.046 140.303C676.049 140.303 676.812 143.865 676.812 143.865C676.812 143.865 680.444 143.485 680.745 144.425C681.046 145.366 677.895 147.187 677.895 147.187C677.895 147.187 679.38 150.509 678.558 151.09C677.755 151.67 675.046 149.248 675.046 149.248C675.046 149.248 672.337 151.67 671.534 151.09C670.731 150.509 672.196 147.187 672.196 147.187C672.196 147.187 669.046 145.366 669.367 144.425C669.668 143.485 673.3 143.865 673.3 143.865C673.3 143.865 674.063 140.303 675.046 140.303Z" fill="url(#paint1_radial)"/>
<path d="M677.895 146.947C677.895 146.947 679.38 150.149 678.578 150.709C677.775 151.27 675.066 148.928 675.066 148.928C675.066 148.928 672.357 151.27 671.554 150.709C670.751 150.149 672.236 146.947 672.236 146.947C672.236 146.947 669.045 145.186 669.366 144.285C669.688 143.385 673.3 143.745 673.3 143.745C673.3 143.745 674.062 140.303 675.046 140.303C676.049 140.303 676.812 143.725 676.812 143.725C676.812 143.725 679.902 143.425 680.624 144.085C680.685 144.145 680.725 144.205 680.745 144.265C681.066 145.186 677.895 146.947 677.895 146.947Z" fill="url(#paint2_linear)"/>
<path d="M677.895 146.866C677.895 146.866 679.38 150.068 678.578 150.628C677.775 151.189 675.066 148.607 675.066 148.607C675.066 148.607 672.337 151.189 671.534 150.628C670.731 150.068 672.216 146.866 672.216 146.866C672.216 146.866 669.046 145.105 669.367 144.204C669.688 143.304 673.3 143.664 673.3 143.664C673.3 143.664 674.062 140.222 675.046 140.222C676.049 140.222 676.812 143.644 676.812 143.644C676.812 143.644 679.902 143.344 680.625 144.004C680.685 144.064 680.725 144.124 680.745 144.184C681.066 145.105 677.895 146.866 677.895 146.866Z" fill="url(#paint3_linear)"/>
<path d="M680.625 144.084C680.585 144.144 680.525 144.184 680.445 144.244C678.919 145.325 676.03 145.125 672.859 144.424C669.809 143.744 669.387 144.224 669.367 144.264C669.688 143.364 673.3 143.724 673.3 143.724C673.3 143.724 674.063 140.302 675.046 140.302C676.05 140.302 676.812 143.724 676.812 143.724C676.812 143.724 679.903 143.424 680.625 144.084Z" fill="url(#paint4_linear)"/>
<path d="M674.082 141.462C674.082 141.462 674.564 140.441 674.885 140.461C675.206 140.481 674.905 141.262 674.804 141.342C674.704 141.422 674.182 141.542 674.082 141.462Z" fill="white"/>
<path d="M678.741 149.808C678.661 149.668 678.5 150.789 678.58 150.709C678.661 150.649 679.042 150.328 678.741 149.808Z" fill="white"/>
<path d="M669.033 477.986C669.863 477.986 670.501 480.963 670.501 480.963C670.501 480.963 673.534 480.645 673.79 481.441C674.045 482.237 671.427 483.749 671.427 483.749C671.427 483.749 672.656 486.535 671.986 487.013C671.315 487.507 669.048 485.469 669.048 485.469C669.048 485.469 666.782 487.507 666.111 487.013C665.441 486.52 666.654 483.749 666.654 483.749C666.654 483.749 664.02 482.221 664.275 481.441C664.531 480.661 667.564 480.963 667.564 480.963C667.564 480.963 668.202 477.986 669.033 477.986Z" fill="#00D6C2"/>
<path d="M669.033 477.826C669.863 477.826 670.501 480.803 670.501 480.803C670.501 480.803 673.534 480.485 673.79 481.281C674.045 482.077 671.427 483.589 671.427 483.589C671.427 483.589 672.656 486.375 671.986 486.853C671.315 487.346 669.048 485.309 669.048 485.309C669.048 485.309 666.782 487.346 666.111 486.853C665.425 486.375 666.654 483.589 666.654 483.589C666.654 483.589 664.02 482.061 664.275 481.281C664.531 480.501 667.564 480.803 667.564 480.803C667.564 480.803 668.202 477.826 669.033 477.826Z" fill="url(#paint5_linear)"/>
<path d="M669.036 477.826C669.834 477.826 670.441 480.66 670.441 480.66C670.441 480.66 673.33 480.357 673.57 481.106C673.809 481.854 671.303 483.303 671.303 483.303C671.303 483.303 672.484 485.945 671.83 486.407C671.191 486.869 669.036 484.942 669.036 484.942C669.036 484.942 666.881 486.869 666.242 486.407C665.604 485.945 666.769 483.303 666.769 483.303C666.769 483.303 664.263 481.854 664.518 481.106C664.758 480.357 667.647 480.66 667.647 480.66C667.647 480.66 668.254 477.826 669.036 477.826Z" fill="url(#paint6_radial)"/>
<path d="M671.303 483.112C671.303 483.112 672.484 485.659 671.846 486.105C671.207 486.55 669.052 484.688 669.052 484.688C669.052 484.688 666.897 486.55 666.258 486.105C665.62 485.659 666.801 483.112 666.801 483.112C666.801 483.112 664.263 481.711 664.518 480.994C664.773 480.278 667.647 480.564 667.647 480.564C667.647 480.564 668.254 477.826 669.036 477.826C669.834 477.826 670.441 480.549 670.441 480.549C670.441 480.549 672.899 480.31 673.474 480.835C673.522 480.883 673.554 480.931 673.57 480.978C673.825 481.711 671.303 483.112 671.303 483.112Z" fill="url(#paint7_linear)"/>
<path d="M671.303 483.048C671.303 483.048 672.484 485.595 671.846 486.041C671.207 486.487 669.052 484.433 669.052 484.433C669.052 484.433 666.881 486.487 666.242 486.041C665.604 485.595 666.785 483.048 666.785 483.048C666.785 483.048 664.263 481.647 664.518 480.931C664.774 480.214 667.647 480.501 667.647 480.501C667.647 480.501 668.254 477.763 669.036 477.763C669.834 477.763 670.441 480.485 670.441 480.485C670.441 480.485 672.899 480.246 673.474 480.772C673.522 480.819 673.554 480.867 673.57 480.915C673.825 481.647 671.303 483.048 671.303 483.048Z" fill="url(#paint8_linear)"/>
<path d="M673.471 480.835C673.439 480.883 673.392 480.915 673.328 480.962C672.114 481.822 669.816 481.663 667.293 481.106C664.867 480.564 664.532 480.947 664.516 480.978C664.771 480.262 667.645 480.549 667.645 480.549C667.645 480.549 668.251 477.826 669.033 477.826C669.832 477.826 670.438 480.549 670.438 480.549C670.438 480.549 672.897 480.31 673.471 480.835Z" fill="url(#paint9_linear)"/>
<path d="M668.266 478.75C668.266 478.75 668.649 477.938 668.904 477.954C669.16 477.97 668.92 478.591 668.84 478.655C668.761 478.718 668.345 478.814 668.266 478.75Z" fill="white"/>
<path d="M664.692 480.883C664.676 481.01 665.618 480.771 665.618 480.644C665.618 480.532 664.755 480.58 664.692 480.883Z" fill="white"/>
<path d="M671.969 485.39C671.905 485.278 671.778 486.17 671.842 486.106C671.905 486.058 672.209 485.803 671.969 485.39Z" fill="white"/>
<path d="M379.24 528.73C384.436 525.608 390.475 527.136 395.597 530.393C399.742 519.483 407.478 516.743 407.019 516.988C407.072 516.967 408.601 516.296 408.532 516.355C412.231 514.758 420.097 513.267 427.189 513.788C413.142 516.563 402.566 519.721 398.819 533.631C398.803 533.669 397.94 537.233 397.94 537.233C395.783 535.645 388.059 528.222 380.879 531.731C375.496 534.463 368.844 540.983 364.558 545.291C367.837 539.402 373.489 532.32 379.24 528.73Z" fill="#7271B3"/>
<path d="M584.595 25.6059C588.501 23.259 593.042 24.408 596.892 26.8563C600.009 18.6538 605.825 16.5941 605.479 16.7783C605.52 16.7623 606.669 16.258 606.617 16.3021C609.398 15.1016 615.312 13.9809 620.644 14.3725C610.083 16.4587 602.132 18.8329 599.315 29.291C599.303 29.319 598.654 31.9988 598.654 31.9988C597.033 30.8051 591.225 25.2244 585.828 27.8625C581.78 29.9163 576.779 34.818 573.557 38.0566C576.022 33.6294 580.271 28.3054 584.595 25.6059Z" fill="#7271B3"/>
<path d="M270.933 480.08C274.308 481.887 275.42 485.739 275.324 489.599C282.637 488.257 286.637 491.587 286.349 491.424C286.388 491.434 287.249 492.092 287.182 492.031C289.269 493.53 292.594 497.351 294.597 501.446C288.51 494.632 283.357 489.889 274.552 492.429C274.513 492.419 272.284 493.12 272.284 493.12C272.452 491.434 274.005 484.677 269.766 481.916C266.543 479.854 260.792 478.369 257.053 477.434C261.402 477.353 267.103 478.106 270.933 480.08Z" fill="#7271B3"/>
<path d="M525.239 204.558L534.006 207.512C534.006 207.512 532.639 210.816 528.75 209.641C524.024 208.186 525.239 204.558 525.239 204.558Z" fill="white"/>
<path d="M721.373 173.221C643.869 43.1013 585.632 220.335 472.344 104.517C196.572 16.0537 298.252 373.641 243.541 361.21C165.541 343.4 156.294 249.523 65.9538 328.086C43.4075 347.726 13.1912 398.075 4.84069 456.958C-3.94277 518.724 6.91284 590.779 6.91284 590.779L724.837 610.108C744.445 542.301 782.95 276.568 721.373 173.221Z" fill="url(#paint10_linear)"/>
<path d="M11.7394 588.875H742.299C748.764 588.875 753.995 593.269 753.995 598.698V603.875H0.0429688V598.698C0.0429688 593.269 5.27478 588.875 11.7394 588.875Z" fill="#FEE2BF"/>
<path d="M307.902 165.724C311.025 164.36 314.742 163.542 318.719 163.503C322.399 157.738 330.948 153.882 340.686 153.882C346.522 153.882 352.06 155.323 356.335 157.777C361.092 150.61 371.983 145.585 384.361 145.585C392.501 145.585 400.195 147.688 405.882 151.467C406.7 151.389 407.518 151.35 408.335 151.35C417.182 151.35 424.393 156.102 424.393 161.945C424.393 163.27 424.021 164.555 423.315 165.763H307.902V165.724Z" fill="white"/>
<path d="M693.41 289.915C688.516 287.496 682.689 286.045 676.454 285.975C670.685 275.747 657.283 268.905 642.017 268.905C632.868 268.905 624.186 271.462 617.485 275.816C610.027 263.1 592.954 254.185 573.55 254.185C560.789 254.185 548.728 257.917 539.813 264.62C538.531 264.482 537.249 264.413 535.967 264.413C522.099 264.413 510.794 272.844 510.794 283.211C510.794 285.561 511.377 287.841 512.484 289.984H693.41V289.915Z" fill="white"/>
<path d="M424.434 119.136C427.556 117.772 431.273 116.954 435.25 116.916C438.93 111.15 447.479 107.294 457.217 107.294C463.053 107.294 468.591 108.735 472.866 111.189C477.624 104.022 488.514 98.9971 500.892 98.9971C509.032 98.9971 516.726 101.101 522.413 104.879C523.231 104.801 524.049 104.762 524.867 104.762C533.713 104.762 540.924 109.514 540.924 115.357C540.924 116.682 540.552 117.967 539.846 119.175H424.434V119.136Z" fill="white"/>
<path d="M467.57 266.67C466.343 266.592 465.117 266.553 463.89 266.553C454.746 252.14 433.374 242.519 409.139 242.519C394.568 242.519 380.778 246.103 370.11 252.218C358.253 234.339 331.045 221.796 300.231 221.796C279.973 221.796 260.757 227.094 246.521 236.442C244.476 236.247 242.432 236.131 240.35 236.131C218.271 236.131 200.355 248.011 200.355 262.58C200.355 262.619 200.355 262.658 200.355 262.697C200.393 267.916 204.518 272.084 209.462 272.084H467.421C470.729 272.045 470.878 266.865 467.57 266.67Z" fill="white"/>
<path d="M701.573 205.163C696.183 206.448 693.172 211.512 691.834 217.121C682.207 212.33 675.368 215.563 675.814 215.446C675.777 215.446 674.327 216.031 674.401 215.992C670.945 217.355 664.849 221.523 660.5 226.548C671.502 219.186 680.497 214.356 691.76 221.445C691.797 221.484 694.622 223.354 694.622 223.354C695.031 220.861 695.44 210.577 702.353 208.24C707.631 206.565 716.143 206.643 721.681 206.799C715.846 204.968 707.631 203.838 701.573 205.163Z" fill="#7271B3"/>
<path d="M169.371 69.3537C172.605 70.1327 174.426 73.1711 175.207 76.56C181.005 73.6775 185.131 75.6251 184.871 75.5472C184.908 75.5472 185.763 75.8978 185.726 75.8588C187.808 76.6768 191.487 79.1698 194.089 82.2082C187.473 77.7675 182.046 74.885 175.281 79.1309C175.244 79.1309 173.571 80.2605 173.571 80.2605C173.311 78.7414 173.088 72.5868 168.925 71.1844C165.691 70.1717 160.599 70.2496 157.254 70.3275C160.785 69.2368 165.729 68.5356 169.371 69.3537Z" fill="#7271B3"/>
<path d="M634.072 168.411C630.875 165.139 626.229 165.256 622.028 166.775C620.876 157.816 615.747 154.349 616.044 154.622C616.007 154.622 615.003 153.804 615.078 153.882C612.662 152.012 607.272 149.519 602.105 148.662C611.732 153.22 618.832 157.504 619.204 168.645C619.204 168.684 619.241 171.528 619.241 171.528C621.062 170.71 627.864 166.464 632.436 170.359C635.856 173.358 639.573 179.474 641.914 183.486C640.502 178.461 637.603 172.112 634.072 168.411Z" fill="#7271B3"/>
<path d="M490.896 210.439C487.699 207.167 483.053 207.284 478.853 208.803C477.7 199.843 472.571 196.377 472.868 196.649C472.831 196.649 471.828 195.831 471.902 195.909C469.486 194.039 464.096 191.546 458.93 190.689C468.557 195.247 475.656 199.532 476.028 210.672C476.028 210.711 476.065 213.555 476.065 213.555C477.886 212.737 484.688 208.491 489.26 212.386C492.68 215.386 496.397 221.501 498.739 225.514C497.326 220.489 494.427 214.139 490.896 210.439Z" fill="#7271B3"/>
<path d="M118.254 189.015C113.756 192.403 112.864 198.285 113.756 204.011C103.088 203.544 97.9961 209.309 98.3678 208.997C98.3306 209.036 97.2155 210.127 97.2899 210.088C94.6136 212.737 90.5249 219.086 88.4062 225.514C95.8031 214.217 102.271 206.115 115.317 208.063C115.354 208.063 118.663 208.647 118.663 208.647C118.105 206.154 114.648 196.571 120.186 191.585C124.424 187.885 132.304 184.496 137.47 182.354C131.337 183.016 123.346 185.314 118.254 189.015Z" fill="#7271B3"/>
<path d="M230.98 135.173C226.817 133.498 222.58 135.445 219.271 138.601C214.848 130.81 208.864 129.719 209.236 129.836C209.198 129.836 207.972 129.525 208.046 129.525C205.147 128.784 199.237 128.707 194.145 130.031C204.738 130.304 212.841 131.316 217.339 141.444C217.339 141.483 218.454 144.093 218.454 144.093C219.829 142.613 224.512 135.913 230.162 137.627C234.437 138.99 240.124 143.119 243.766 145.846C240.644 141.834 235.589 137.159 230.98 135.173Z" fill="#7271B3"/>
<path d="M407.321 551.708L403.697 564.243C403.369 565.375 404.099 566.598 405.308 566.942C406.416 567.252 407.545 566.735 407.933 565.744L412.552 553.565C413.106 552.141 412.197 550.492 410.619 550.044C409.177 549.663 407.701 550.39 407.321 551.708Z" fill="#1A1A1A"/>
<path d="M404.712 586.517L404.607 580.011L407.028 580.041L407.153 586.523L404.712 586.517Z" fill="white"/>
<path d="M407.556 585.475L408.109 587.645L399.985 587.624L399.981 587.553C399.958 587.052 400.218 586.6 400.619 586.387L404.327 584.799C404.453 584.728 404.626 584.729 404.74 584.848C405.262 585.397 405.821 586.28 407.268 585.331C407.395 585.26 407.528 585.332 407.556 585.475Z" fill="#1A1A1A"/>
<path d="M400.008 587.625L408.133 587.646L408.159 588.217L400.035 588.197L400.008 587.625Z" fill="white"/>
<path d="M404.231 586.257L405.012 587.84L404.785 587.966L404.004 586.383L404.231 586.257Z" fill="white"/>
<path d="M403.346 586.63L403.926 587.807L403.699 587.933L403.119 586.756L403.346 586.63Z" fill="white"/>
<path d="M407.898 566.604L407.724 583.498L404.05 583.489L403.714 566.284C403.7 565.045 404.627 564.07 405.818 564.121C407.031 564.195 407.99 565.318 407.898 566.604Z" fill="#1A1A1A"/>
<path d="M403.119 537.204L403.497 538.392L403.635 538.851L404.055 540.251L404.185 540.688L404.605 542.088L404.736 542.524L405.177 543.919L405.314 544.378L405.734 545.778L405.865 546.214L406.285 547.615L406.416 548.051L406.836 549.452L406.967 549.888L407.407 551.282L416.152 548.66L415.815 547.235L415.704 546.792L415.367 545.367L415.256 544.925L414.919 543.5L414.829 543.051L414.492 541.626L414.374 541.161L414.037 539.736L413.927 539.293L413.589 537.868L413.479 537.426L413.141 536L413.024 535.535L412.776 534.408L412.069 534.295L410.992 534.143L408.693 533.806L407.102 534.333L405.463 534.775L404.078 536.216L403.406 536.893L403.119 537.204Z" fill="#D2D2D1"/>
<path d="M407.708 536.352C408.696 536.056 409.23 534.92 408.899 533.818L407.633 529.594L404.052 530.667L405.326 534.915C405.65 535.994 406.721 536.648 407.708 536.352Z" fill="#DE8678"/>
<path d="M407.777 530.226C407.777 530.226 407.664 533.287 406.498 533.512C404.721 533.869 404.293 531.395 404.293 531.395C404.293 531.395 405.365 532.575 406.435 532.255C407.607 531.903 407.777 530.226 407.777 530.226Z" fill="#B36F64"/>
<path d="M408.013 528.402L407.64 525.811C407.481 524.458 405.998 524.152 405.216 524.386L402.541 525.188C401.718 525.435 400.951 526.391 401.803 527.737L402.711 529.867L408.013 528.402Z" fill="#1A1A1A"/>
<path d="M403.527 530.348C403.185 531.001 401.503 529.428 401.817 528.758C402.132 528.088 402.812 528.785 402.812 528.785L403.115 529.495L403.466 530.141L403.569 530.335L403.527 530.348Z" fill="#E88E85"/>
<path d="M407.728 529.164C408.456 529.421 408.899 527.086 408.158 526.783C407.417 526.48 407.336 527.48 407.336 527.48L407.357 528.224L407.646 528.963L407.667 529.182L407.728 529.164Z" fill="#DE8678"/>
<path d="M407.594 528.227C407.614 528.221 407.628 528.192 407.628 528.192C407.696 527.521 408.087 527.554 408.087 527.554C408.108 527.548 408.149 527.535 408.135 527.489C408.128 527.466 408.114 527.421 408.073 527.433C408.073 527.433 407.593 527.402 407.491 528.183C407.477 528.212 407.511 528.252 407.532 528.246C407.573 528.233 407.573 528.233 407.594 528.227Z" fill="#D26665"/>
<path d="M408.026 528.45C408.047 528.443 408.047 528.443 408.06 528.414C408.108 528.275 408.108 528.125 408.053 528.016C407.943 527.799 407.703 527.746 407.675 527.729C407.648 527.712 407.614 527.747 407.6 527.777C407.586 527.806 407.621 527.845 407.648 527.862C407.648 527.862 407.868 527.922 407.936 528.076C407.985 528.162 407.971 528.266 407.937 528.376C407.923 528.405 407.937 528.451 407.964 528.468C408.005 528.456 408.005 528.456 408.026 528.45Z" fill="#D26665"/>
<path d="M402.043 528.015C402.421 529.278 402.889 530.314 403.281 531.022C403.652 531.736 404.256 532.256 404.963 532.519L405.087 532.557C405.835 532.809 406.624 532.597 407.131 531.97C407.638 531.342 407.857 530.501 407.76 529.654C407.566 528.111 407.098 526.474 407.098 526.474C407.098 526.474 406.381 523.261 403.686 524.145C400.97 525.034 402.043 528.015 402.043 528.015Z" fill="#DE8678"/>
<path d="M400.929 524.446C401.586 523.498 403.459 523.462 404.53 523.666C404.413 523.351 404.591 523.348 404.591 523.348C406.382 523.336 406.384 524.912 406.384 524.912C406.384 524.912 406.384 524.912 406.363 524.918C406.652 525.282 407.146 526.11 407.416 527.756C407.416 527.756 406.467 526.163 406.137 525.136C405.527 525.72 403.786 527.167 402.345 527.074C402.483 527.984 402.477 529.236 402.477 529.236C402.023 528.246 401.865 527.493 401.816 526.957C401.713 526.913 401.61 526.869 401.528 526.818C401.528 526.818 400.004 525.774 400.929 524.446Z" fill="#1A1A1A"/>
<path d="M408.658 526.059L408.603 526.176C408.603 526.176 408.148 527.126 406.185 526.413C404.222 525.701 402.782 527.654 401.836 527.938C399.792 528.525 400.071 525.302 400.976 524.355C401.88 523.408 404.401 522.631 405.65 522.983C406.432 523.198 407.009 524.001 408.018 524.374C408.677 524.627 408.987 525.435 408.658 526.059Z" fill="#1A1A1A"/>
<path d="M405.897 558.145C405.513 557.869 405.247 557.859 405.247 557.859C405.1 557.5 404.675 557.303 404.284 557.42L404.019 557.519C403.652 557.641 403.48 558.001 403.608 558.334L403.603 558.355C403.603 558.355 403.668 559.355 404.272 560.466C405.055 561.898 406.133 562.25 406.596 562.016C407.033 561.799 406.212 560.074 405.901 559.44L406.564 559.905C406.65 559.966 406.771 559.969 406.855 559.92C406.938 559.872 406.987 559.75 406.934 559.652L406.575 558.898C406.392 558.598 406.177 558.334 405.897 558.145Z" fill="#DE8678"/>
<path d="M405.221 557.853L402.572 548.692C402.348 547.879 401.39 547.419 400.552 547.686C399.789 547.946 399.414 548.703 399.707 549.421L403.559 558.324L405.221 557.853Z" fill="#DE8678"/>
<path d="M403.175 537.819C402.362 540.229 400.46 545.846 399.617 548.317C399.385 549.006 399.733 549.802 400.418 550.174C401.152 550.566 401.975 550.306 402.287 549.608L406.735 539.385C407.085 538.417 406.501 537.25 405.478 536.837C404.488 536.458 403.479 536.896 403.175 537.819Z" fill="#DE8678"/>
<path d="M407.317 539.654C407.464 538.35 406.507 537.043 405.184 536.751C404.006 536.487 402.94 537.113 402.608 538.163L401.047 542.554L405.587 544.674L407.134 540.362C407.222 540.144 407.294 539.909 407.317 539.654Z" fill="#D2D2D1"/>
<path d="M406.835 549.452L406.965 549.888L415.813 547.235L415.703 546.793L406.835 549.452Z" fill="#1A1A1A"/>
<path d="M406.282 547.616L406.413 548.052L415.364 545.368L415.254 544.926L406.282 547.616Z" fill="#1A1A1A"/>
<path d="M405.729 545.779L405.86 546.215L414.914 543.5L414.824 543.052L405.729 545.779Z" fill="#1A1A1A"/>
<path d="M405.169 543.92L405.307 544.379L414.484 541.627L414.367 541.162L405.169 543.92Z" fill="#1A1A1A"/>
<path d="M404.605 542.09L404.735 542.526L414.036 539.737L413.926 539.295L404.605 542.09Z" fill="#1A1A1A"/>
<path d="M404.052 540.252L404.183 540.688L413.587 537.868L413.477 537.426L404.052 540.252Z" fill="#1A1A1A"/>
<path d="M403.492 538.393L403.63 538.852L413.137 536.001L413.02 535.536L403.492 538.393Z" fill="#1A1A1A"/>
<path d="M420.727 552.032C421.023 551.726 421.262 551.682 421.262 551.682C421.325 551.315 421.656 551.068 422.041 551.151L422.303 551.212C422.642 551.283 422.878 551.602 422.829 551.953L422.831 551.983C422.831 551.983 422.965 552.975 422.626 554.116C422.191 555.595 421.303 556.087 420.864 555.901C420.442 555.729 420.841 553.963 420.989 553.304L420.481 553.818C420.425 553.882 420.321 553.903 420.242 553.862C420.147 553.807 420.11 553.719 420.133 553.627L420.319 552.858C420.371 552.537 420.501 552.257 420.727 552.032Z" fill="#DE8778"/>
<path d="M421.263 551.681L421.891 542.421C421.951 541.599 422.697 541.04 423.498 541.205C424.222 541.359 424.699 542.058 424.572 542.793L422.813 551.938L421.263 551.681Z" fill="#DE8778"/>
<path d="M413.783 534.43C416.087 536.018 421.413 539.649 423.768 541.253C424.402 541.693 424.664 542.522 424.338 543.15C423.984 543.81 423.138 544.012 422.411 543.605L411.896 537.46C410.949 536.832 410.654 535.603 411.247 534.78C411.793 533.974 412.904 533.832 413.783 534.43Z" fill="#DE8778"/>
<path d="M411.49 537.561C410.454 536.598 410.275 535.128 411.107 534.286C411.836 533.526 413.091 533.51 414.092 534.186L418.372 536.903L415.932 540.42L412.124 538.002C411.901 537.892 411.688 537.735 411.49 537.561Z" fill="#D2D2D1"/>
<path d="M404.452 530.94C404.452 530.94 404.613 531.321 405.592 531.086C405.592 531.086 406.415 530.892 406.313 530.456C406.313 530.456 405.012 529.621 404.452 530.94Z" fill="white"/>
<path d="M411.139 577.703L407.711 391.723L697.824 309.436L683.769 585.436L411.139 577.703Z" fill="#E8D295"/>
<path d="M667.561 534.781L416.298 540.102L414.152 414.637L666.735 359.225L667.561 534.781Z" fill="#35AA93"/>
<path d="M669.212 532.419L418.118 537.735L415.802 412.275L668.386 356.862L669.212 532.419Z" fill="#8ECBF5"/>
<path d="M666.852 428.847L419.908 533.738L419.095 495.334L599.753 376.478L666.298 362.495L666.852 428.847Z" fill="#78BBEB"/>
<path d="M444.306 417.027L442.606 417.063L445.006 546.481L446.706 546.445L444.306 417.027Z" fill="#E8D295"/>
<path d="M476.1 416.354L474.4 416.39L476.971 545.804L478.671 545.768L476.1 416.354Z" fill="#E8D295"/>
<path d="M507.878 407.065L506.178 407.101L508.93 545.127L510.455 544.861L507.878 407.065Z" fill="#E8D295"/>
<path d="M539.669 398.473L537.969 398.509L540.719 544.452L542.419 544.416L539.669 398.473Z" fill="#E8D295"/>
<path d="M571.485 390.815L569.785 390.851L572.683 543.777L574.378 543.508L571.485 390.815Z" fill="#E8D295"/>
<path d="M603.255 389.212L601.725 389.244L604.472 543.104L606.173 543.068L603.255 389.212Z" fill="#E8D295"/>
<path d="M634.985 377.596L633.455 377.629L636.435 542.428L638.135 542.392L634.985 377.596Z" fill="#E8D295"/>
<path d="M686.263 590.272L410.709 588.655L410.75 566.766L686.515 578.391L686.263 590.272Z" fill="#C49C5C"/>
<path d="M402.797 376.457L406.646 429.7L695.785 357.679L700.607 272.119L402.797 376.457Z" fill="#F7C186"/>
<path d="M695.785 357.679L698.771 305.922L405.187 409.007L406.646 429.7L695.785 357.679Z" fill="#EAB778"/>
<path opacity="0.4" d="M408.341 429.198L408.489 436.18L662.788 381.43L662.283 365.607L408.341 429.198Z" fill="#CEB176"/>
<path d="M402.797 376.457C402.797 376.457 495.601 365.644 491.965 386.678C488.498 407.708 407.301 428.522 407.301 428.522L402.797 376.457Z" fill="#FFCB97"/>
<path d="M444.306 417.027L442.606 417.063L445.006 546.481L446.706 546.445L444.306 417.027Z" fill="#E8D295"/>
<path d="M444.306 417.027L442.606 417.063L445.006 546.481L446.706 546.445L444.306 417.027Z" fill="#E8D295"/>
<path d="M444.306 417.027L442.606 417.063L445.006 546.481L446.706 546.445L444.306 417.027Z" fill="#E8D295"/>
<path d="M444.306 417.027L442.606 417.063L445.006 546.481L446.706 546.445L444.306 417.027Z" fill="#E8D295"/>
<path d="M444.306 417.027L442.606 417.063L445.006 546.481L446.706 546.445L444.306 417.027Z" fill="#E8D295"/>
<path d="M444.306 417.027L442.606 417.063L445.006 546.481L446.706 546.445L444.306 417.027Z" fill="#E8D295"/>
<path d="M444.306 417.027L442.606 417.063L445.006 546.481L446.706 546.445L444.306 417.027Z" fill="#E8D295"/>
<path d="M444.306 417.027L442.606 417.063L445.006 546.481L446.706 546.445L444.306 417.027Z" fill="#E8D295"/>
<path d="M444.306 417.027L442.606 417.063L445.006 546.481L446.706 546.445L444.306 417.027Z" fill="#E8D295"/>
<path d="M444.306 417.027L442.606 417.063L445.006 546.481L446.706 546.445L444.306 417.027Z" fill="#E8D295"/>
<path d="M444.306 417.027L442.606 417.063L445.006 546.481L446.706 546.445L444.306 417.027Z" fill="#E8D295"/>
<path d="M444.306 417.027L442.606 417.063L445.006 546.481L446.706 546.445L444.306 417.027Z" fill="#E8D295"/>
<path d="M444.306 417.027L442.606 417.063L445.006 546.481L446.706 546.445L444.306 417.027Z" fill="#E8D295"/>
<path d="M444.306 417.027L442.606 417.063L445.006 546.481L446.706 546.445L444.306 417.027Z" fill="#E8D295"/>
<path d="M444.306 417.027L442.606 417.063L445.006 546.481L446.706 546.445L444.306 417.027Z" fill="#E8D295"/>
<path d="M444.306 417.027L442.606 417.063L445.006 546.481L446.706 546.445L444.306 417.027Z" fill="#E8D295"/>
<path d="M444.306 417.027L442.606 417.063L445.006 546.481L446.706 546.445L444.306 417.027Z" fill="#E8D295"/>
<path d="M444.306 417.027L442.606 417.063L445.006 546.481L446.706 546.445L444.306 417.027Z" fill="#E8D295"/>
<path d="M444.306 417.027L442.606 417.063L445.006 546.481L446.706 546.445L444.306 417.027Z" fill="#E8D295"/>
<path d="M444.306 417.027L442.606 417.063L445.006 546.481L446.706 546.445L444.306 417.027Z" fill="#E8D295"/>
<path d="M444.306 417.027L442.606 417.063L445.006 546.481L446.706 546.445L444.306 417.027Z" fill="#E8D295"/>
<path opacity="0.4" d="M668.382 477.017L409.873 501.585L410.109 512.757L668.614 487.956L668.382 477.017Z" fill="#CEB176"/>
<path d="M664.171 470.818L405.667 495.619L405.898 506.559L664.408 481.991L664.171 470.818Z" fill="#F7C186"/>
<path d="M663.757 467.334L405.248 491.902L405.484 503.074L663.536 472.927L663.757 467.334Z" fill="#E8D295"/>
<path d="M310.322 405.285C314.779 396.564 316.85 386.806 316.634 377.001C316.104 353.535 323.163 321.18 340.485 321.18C361.348 321.18 362.987 362.064 356.482 385.072C355.181 389.649 356.988 394.564 361.011 397.07C361.324 397.262 361.541 397.383 361.662 397.383C366.914 397.383 371.178 403.093 371.178 410.152C371.178 411.742 370.961 413.235 370.576 414.633C378.863 418.126 384.766 427.353 384.766 438.195C384.766 452.048 375.129 463.25 363.228 463.25C353.687 463.25 345.592 456.023 342.773 446.025C339.039 449.325 334.534 451.253 329.667 451.253C316.899 451.253 306.539 437.954 306.539 421.547C306.539 415.548 307.936 409.959 310.322 405.285Z" fill="#69B708"/>
<path d="M323.935 408.562C345.521 405.647 348.749 429.16 348.749 429.16C374.335 417.524 385.683 435.786 385.683 435.786L386.309 441.255C385.731 454.505 374.745 463.251 363.229 463.251C353.688 463.251 345.593 456.023 342.775 446.025C339.04 449.326 334.535 451.253 329.669 451.253C321.983 451.253 315.189 446.459 310.997 439.062C310.853 438.605 302.517 411.453 323.935 408.562Z" fill="#5FA73E"/>
<path d="M341.858 589.806C342.677 589.806 343.472 590.336 343.472 589.517V427.836C343.472 427.016 342.797 426.342 341.978 426.342C341.159 426.342 340.484 427.016 340.484 427.836V589.517C340.484 590.312 341.038 589.806 341.858 589.806Z" fill="#7A3909"/>
<path d="M341.978 485.247C346.58 485.247 350.531 482.525 353.735 477.176C356.144 473.153 358.12 467.564 359.638 460.601C362.191 448.868 362.577 436.967 362.577 436.846C362.601 436.027 361.95 435.328 361.131 435.304C360.312 435.28 359.613 435.931 359.589 436.75C359.589 436.87 359.228 448.507 356.722 459.975C354.506 470.141 350.145 482.236 341.978 482.236C341.159 482.236 340.484 482.91 340.484 483.729C340.484 484.573 341.159 485.247 341.978 485.247Z" fill="#7A3909"/>
<path d="M341.833 519.096C341.906 519.096 342.002 519.096 342.074 519.096C342.893 519.048 343.52 518.349 343.472 517.506C343.423 516.687 342.701 516.06 341.882 516.109C341.689 516.109 341.376 516.085 340.942 515.651C339.087 513.868 335.762 506.472 334.413 477.031C333.642 460.071 333.931 443.905 333.931 443.736C333.955 442.917 333.281 442.242 332.462 442.218C331.642 442.194 330.968 442.869 330.944 443.688C330.944 443.857 330.655 460.119 331.426 477.176C331.883 487.222 332.606 495.582 333.594 502.039C334.895 510.495 336.605 515.651 338.87 517.795C339.954 518.855 341.062 519.096 341.833 519.096Z" fill="#7A3909"/>
<path d="M752.334 341.631C753.026 338.474 753.415 335.1 753.415 331.51C753.415 315.637 745.76 302.749 736.331 302.749C734.947 302.749 733.606 303.051 732.309 303.57C730.795 260.622 715.138 226.844 696.065 226.844C677.9 226.844 662.848 257.465 660.124 297.515C646.629 308.544 637.33 331.164 637.33 357.244C637.33 369.701 639.45 381.335 643.126 391.283C630.583 400.581 622.582 414.595 622.582 430.251C622.582 458.235 648.013 480.898 679.37 480.898C702.855 480.898 723.01 468.182 731.66 450.06C734.082 450.752 736.547 451.098 739.099 451.098C760.465 451.098 777.765 425.84 777.765 394.656C777.852 370.306 767.212 349.502 752.334 341.631Z" fill="#8CD334"/>
<path d="M631.707 402.831C637.806 394.44 640.271 384.017 638.671 373.766C637.849 368.49 637.416 362.954 637.416 357.245C637.416 354.131 637.546 351.017 637.806 348.032C690.269 351.622 688.193 404.258 688.193 404.258C688.193 404.258 731.616 385.963 746.062 411.74C760.551 437.475 731.746 450.147 731.746 450.147C723.096 468.269 702.941 480.985 679.456 480.985C648.099 480.985 622.668 458.321 622.668 430.338C622.668 420.174 625.998 410.746 631.707 402.831Z" fill="#5FA73E"/>
<path d="M696.674 589.975C698.144 589.975 699.355 589.975 699.355 588.505V362.996C699.355 361.525 698.144 360.314 696.674 360.314C695.203 360.314 693.992 361.525 693.992 362.996V588.505C693.992 589.975 695.203 589.975 696.674 589.975Z" fill="#7A3909"/>
<path d="M696.67 438.251C704.282 438.251 710.683 435.527 715.787 430.207C729.973 415.285 728.632 384.75 728.546 383.453C728.459 381.982 727.205 380.814 725.735 380.901C724.264 380.987 723.139 382.242 723.183 383.712C723.183 384.015 724.48 413.252 711.851 426.487C707.786 430.769 702.768 432.845 696.627 432.845C695.156 432.845 693.945 434.056 693.945 435.527C693.989 437.084 695.2 438.251 696.67 438.251Z" fill="#7A3909"/>
<path d="M694.506 525.922C694.679 525.922 694.852 525.922 695.025 525.922C696.496 525.836 697.62 524.581 697.534 523.068C697.447 521.597 696.15 520.473 694.679 520.559C693.641 520.602 692.646 520.17 691.565 519.218C688.235 516.234 681.963 505.811 677.076 469.221C674.265 448.071 673.27 428.349 673.27 428.132C673.183 426.662 671.929 425.494 670.459 425.581C668.988 425.667 667.82 426.921 667.907 428.392C667.907 428.608 668.902 448.547 671.756 469.913C673.443 482.498 675.432 493.181 677.681 501.572C680.623 512.601 683.996 519.651 687.975 523.197C690.051 525.014 692.214 525.922 694.506 525.922Z" fill="#7A3909"/>
<path d="M166.423 579.132C167.312 579.132 168.051 578.891 168.051 578.587C168.051 571.347 150.483 565.452 128.864 565.452C119.606 565.452 110.614 566.556 103.553 568.555C102.871 568.752 102.777 569.094 103.363 569.323C103.95 569.551 104.973 569.583 105.654 569.386C112.129 567.552 120.364 566.537 128.864 566.537C148.684 566.537 164.795 571.937 164.795 578.58C164.795 578.885 165.514 579.132 166.423 579.132Z" fill="#FC008B"/>
<path d="M202.902 578.588C202.902 572.18 218.464 566.964 237.584 566.964C256.704 566.964 272.285 572.18 272.285 578.588C272.285 584.997 262.353 591.799 237.603 591.799C212.853 591.799 202.902 584.997 202.902 578.588ZM207.256 578.588C207.256 584.197 220.868 588.76 237.603 588.76C254.338 588.76 267.949 584.197 267.949 578.588C267.949 572.979 254.338 568.417 237.603 568.417C220.868 568.417 207.256 572.979 207.256 578.588Z" fill="#2D2861"/>
<path d="M205.824 578.588C205.824 572.713 220.079 567.935 237.609 567.935C255.14 567.935 269.395 572.713 269.395 578.588C269.395 584.464 255.14 589.242 237.609 589.242C220.079 589.242 205.824 584.464 205.824 578.588ZM207.452 578.588C207.452 584.159 220.969 588.696 237.609 588.696C254.231 588.696 267.767 584.166 267.767 578.588C267.767 573.017 254.25 568.48 237.609 568.48C220.988 568.48 207.452 573.017 207.452 578.588Z" fill="#7271B3"/>
<g opacity="0.57">
<path opacity="0.57" d="M210.691 578.587C210.691 573.613 222.769 569.564 237.611 569.564C252.453 569.564 264.531 573.613 264.531 578.587C264.531 583.562 252.453 587.61 237.611 587.61C222.769 587.61 210.691 583.562 210.691 578.587ZM211.77 578.587C211.77 583.365 223.356 587.249 237.611 587.249C251.866 587.249 263.452 583.365 263.452 578.587C263.452 573.809 251.866 569.926 237.611 569.926C223.356 569.926 211.77 573.809 211.77 578.587Z" fill="#F3FFFF"/>
</g>
<g opacity="0.57">
<path opacity="0.57" d="M237.604 586.475C250.591 586.475 261.136 582.934 261.136 578.588C261.136 577.319 260.265 576.107 258.542 574.984C258.41 574.895 258.088 574.857 257.804 574.908C257.539 574.952 257.425 575.06 257.577 575.155C259.224 576.227 260.057 577.382 260.057 578.594C260.057 582.744 249.985 586.119 237.604 586.119C234.348 586.119 231.206 585.891 228.271 585.441C228.006 585.396 227.685 585.441 227.552 585.529C227.419 585.618 227.552 585.726 227.817 585.77C230.903 586.24 234.197 586.475 237.604 586.475Z" fill="#F3FFFF"/>
</g>
<path d="M220.81 573.499C220.962 573.499 221.094 573.48 221.208 573.442C225.429 571.925 231.412 571.062 237.602 571.062C237.905 571.062 238.151 570.98 238.151 570.878C238.151 570.777 237.905 570.694 237.602 570.694C231.109 570.694 224.862 571.602 220.413 573.188C220.204 573.264 220.223 573.378 220.432 573.442C220.545 573.486 220.678 573.499 220.81 573.499Z" fill="#F3FFFF"/>
<path d="M213.359 569.519C213.738 569.519 214.097 569.475 214.4 569.392C220.875 567.558 229.11 566.543 237.61 566.543C244.784 566.543 251.694 567.247 257.62 568.58C258.358 568.745 259.38 568.681 259.872 568.434C260.365 568.186 260.175 567.844 259.437 567.679C252.982 566.226 245.428 565.458 237.61 565.458C228.352 565.458 219.36 566.562 212.299 568.561C211.617 568.758 211.523 569.1 212.11 569.329C212.431 569.456 212.886 569.519 213.359 569.519Z" fill="#FC008B"/>
<path d="M191.652 578.34C192.126 578.34 192.58 578.257 192.845 578.105L222.737 560.186C223.097 559.964 222.87 559.691 222.207 559.571C221.545 559.45 220.73 559.526 220.371 559.748L190.479 577.667C190.119 577.889 190.346 578.162 191.009 578.283C191.198 578.321 191.425 578.34 191.652 578.34Z" fill="#FC008B"/>
<path d="M189.081 579.227C239.419 578.936 238.074 579.266 238.794 578.796C239.305 578.466 240.687 579.481 214.448 564.323L157.523 560.801C156.652 560.75 155.876 560.979 155.933 561.277C155.97 561.505 155.459 561.125 189.081 579.227ZM162.585 562.947L213.042 566.382L235.273 578.142L190.497 577.01L162.585 562.947Z" fill="#FC008B"/>
<path d="M157.525 560.802L160.27 560.973L157.79 562.407C155.859 561.36 155.934 561.366 155.915 561.271C155.878 560.979 156.673 560.744 157.525 560.802Z" fill="#D6007E"/>
<path d="M220.354 559.741C220.714 559.519 221.547 559.443 222.19 559.564C222.853 559.684 223.08 559.964 222.72 560.179L221.017 561.195L218.215 561.011L220.354 559.741Z" fill="#D6007E"/>
<path d="M237.607 577.377C237.834 577.377 238.004 577.319 238.023 577.243C238.042 577.167 237.853 577.097 237.626 577.097L189.862 576.355C189.635 576.349 189.427 576.412 189.427 576.488C189.408 576.564 189.597 576.634 189.825 576.634L237.588 577.377H237.607Z" fill="#352E73"/>
<path d="M189.168 580.821H189.187L237.631 580.078C237.858 580.072 238.048 580.009 238.029 579.933C238.01 579.856 237.821 579.793 237.593 579.799L189.149 580.542C188.922 580.548 188.732 580.611 188.751 580.688C188.77 580.764 188.941 580.821 189.168 580.821Z" fill="#352E73"/>
<path d="M197.624 578.504C197.776 580.014 194.084 581.245 189.598 581.194C185.527 581.15 182.196 580.039 182.063 578.669C181.912 577.158 185.603 575.927 190.109 575.972C194.179 576.023 197.492 577.133 197.624 578.504Z" fill="#352E73"/>
<path d="M183.047 579.868L187.571 576.093C188.291 576.017 189.048 575.979 189.843 575.979C192.134 575.979 194.197 576.308 195.617 576.841C195.314 577.451 194.86 578.009 194.235 578.117C192.777 578.371 191.452 579.583 190.619 580.306C190.297 580.585 189.957 580.902 189.635 581.194C186.814 581.175 184.353 580.642 183.047 579.868Z" fill="#352E73"/>
<path d="M178.728 584.971C178.917 584.971 179.087 584.94 179.182 584.883L190.295 578.867C190.446 578.785 190.37 578.671 190.124 578.62C189.878 578.569 189.537 578.595 189.386 578.677L178.273 584.692C178.122 584.775 178.198 584.889 178.444 584.94C178.538 584.959 178.633 584.971 178.728 584.971Z" fill="black"/>
<path d="M178.271 585.591C178.801 585.604 179.275 585.483 179.388 585.299C179.502 585.103 179.142 584.912 178.555 584.868L166.761 584.043C166.174 584.005 165.607 584.126 165.474 584.322C165.36 584.519 165.72 584.709 166.307 584.754L178.101 585.572C178.177 585.585 178.233 585.591 178.271 585.591Z" fill="#352E73"/>
<path d="M229.015 559.101H218.451C217.675 559.101 217.031 559.316 217.031 559.576V560.148C217.031 560.408 217.675 560.623 218.451 560.623H231.797C232.839 560.623 233.558 560.255 233.085 559.944C232.327 559.443 230.794 559.101 229.015 559.101Z" fill="#352E73"/>
<path d="M237.605 580.529C240.805 580.529 243.398 579.659 243.398 578.587C243.398 577.515 240.805 576.646 237.605 576.646C234.406 576.646 231.812 577.515 231.812 578.587C231.812 579.659 234.406 580.529 237.605 580.529Z" fill="#352E73"/>
<path d="M242.549 578.478C242.738 579.481 240.277 580.306 237.286 580.242C234.825 580.192 232.818 579.519 232.666 578.694C232.477 577.692 234.938 576.867 237.929 576.93C240.39 576.981 242.397 577.654 242.549 578.478Z" fill="#ADEFF7"/>
<path d="M236.229 578.505C236.078 578.829 236.892 579.102 237.857 579.045C238.444 579.013 238.898 578.854 238.993 578.664C239.145 578.34 238.331 578.068 237.365 578.118C236.797 578.156 236.324 578.315 236.229 578.505Z" fill="#F3FFFF"/>
<g opacity="0.57">
<path opacity="0.57" d="M129.436 586.475C142.423 586.475 152.968 582.934 152.968 578.588C152.968 577.319 152.097 576.107 150.374 574.984C150.242 574.895 149.92 574.857 149.636 574.908C149.371 574.952 149.257 575.06 149.409 575.155C151.056 576.227 151.889 577.382 151.889 578.594C151.889 582.744 141.817 586.119 129.436 586.119C126.18 586.119 123.038 585.891 120.103 585.441C119.838 585.396 119.517 585.441 119.384 585.529C119.252 585.618 119.384 585.726 119.649 585.77C122.735 586.24 126.029 586.475 129.436 586.475Z" fill="#F3FFFF"/>
</g>
<path d="M94.7539 578.587C94.7539 572.179 110.315 566.963 129.454 566.963C148.575 566.963 164.155 572.179 164.155 578.587C164.155 584.996 155.155 591.765 129.436 591.765C102.675 591.765 94.7539 584.996 94.7539 578.587ZM99.0891 578.587C99.0891 584.196 112.701 588.759 129.436 588.759C146.171 588.759 159.782 584.196 159.782 578.587C159.782 572.978 146.171 568.416 129.436 568.416C112.701 568.416 99.0891 572.978 99.0891 578.587Z" fill="#2D2861"/>
<path d="M97.6445 578.588C97.6445 572.713 111.9 567.935 129.43 567.935C146.96 567.935 161.215 572.713 161.215 578.588C161.215 584.464 146.96 589.242 129.43 589.242C111.9 589.242 97.6445 584.464 97.6445 578.588ZM99.2726 578.588C99.2726 584.159 112.789 588.696 129.43 588.696C146.051 588.696 159.587 584.166 159.587 578.588C159.587 573.017 146.07 568.48 129.43 568.48C112.808 568.48 99.2726 573.017 99.2726 578.588Z" fill="#7271B3"/>
<g opacity="0.57">
<path opacity="0.57" d="M102.516 578.586C102.516 573.612 114.594 569.563 129.436 569.563C144.278 569.563 156.356 573.612 156.356 578.586C156.356 583.561 144.278 587.609 129.436 587.609C114.594 587.609 102.516 583.561 102.516 578.586ZM103.595 578.586C103.595 583.364 115.18 587.248 129.436 587.248C143.691 587.248 155.276 583.364 155.276 578.586C155.276 573.808 143.691 569.925 129.436 569.925C115.199 569.925 103.595 573.808 103.595 578.586Z" fill="#F3FFFF"/>
</g>
<path d="M128.869 579.045C129.343 579.045 129.816 578.962 130.062 578.81L166.542 556.545C166.883 556.329 167.072 556.088 167.072 555.847V554.406C167.072 554.121 167.64 553.981 167.886 553.937C168.132 553.892 168.776 553.797 169.514 553.943L175.875 555.218C176.519 555.345 177.352 555.276 177.73 555.06C178.109 554.844 177.901 554.565 177.257 554.438L170.896 553.163C169.552 552.89 167.924 552.883 166.542 553.144C165.179 553.404 164.346 553.873 164.346 554.4V555.847C164.346 555.935 164.27 556.024 164.138 556.107L127.639 578.366C127.279 578.588 127.525 578.861 128.169 578.981C128.415 579.026 128.642 579.045 128.869 579.045Z" fill="#FC008B"/>
<path d="M129.441 580.529C132.641 580.529 135.234 579.659 135.234 578.587C135.234 577.515 132.641 576.646 129.441 576.646C126.242 576.646 123.648 577.515 123.648 578.587C123.648 579.659 126.261 580.529 129.441 580.529Z" fill="#352E73"/>
<path d="M134.38 578.478C134.57 579.481 132.109 580.306 129.118 580.242C126.657 580.192 124.65 579.519 124.499 578.694C124.309 577.692 126.77 576.867 129.761 576.93C132.222 576.981 134.229 577.654 134.38 578.478Z" fill="#ADEFF7"/>
<path d="M128.053 578.505C127.902 578.829 128.716 579.102 129.681 579.045C130.268 579.013 130.723 578.854 130.817 578.664C130.969 578.34 130.155 578.068 129.189 578.118C128.621 578.156 128.148 578.315 128.053 578.505Z" fill="#F3FFFF"/>
<path d="M190.196 556.058C191.07 556.225 191.841 556.127 191.898 555.828C193.258 548.717 177.11 539.627 155.875 535.566C146.783 533.827 137.743 533.222 130.432 533.859C129.726 533.924 129.569 534.243 130.102 534.577C130.636 534.912 131.634 535.135 132.34 535.07C139.044 534.485 147.323 535.035 155.672 536.632C175.14 540.355 189.949 548.685 188.701 555.21C188.644 555.509 189.304 555.887 190.196 556.058Z" fill="#217763"/>
<path d="M226.133 562.375C227.337 556.081 243.601 553.881 262.381 557.473C281.161 561.065 295.484 569.114 294.28 575.409C293.076 581.703 279.663 586.023 257.675 581.818C234.528 577.391 224.929 568.67 226.133 562.375ZM230.409 563.193C229.356 568.703 241.868 575.741 258.305 578.884C274.742 582.028 288.968 580.104 290.022 574.594C291.075 569.085 278.563 562.047 262.126 558.904C245.689 555.76 231.463 557.684 230.409 563.193Z" fill="#2D2861"/>
<path d="M228.999 562.923C230.102 557.152 245.001 555.137 262.219 558.43C279.437 561.723 292.541 569.093 291.438 574.864C290.334 580.635 275.435 582.651 258.217 579.358C240.999 576.065 227.895 568.694 228.999 562.923ZM230.598 563.229C229.551 568.701 241.975 575.696 258.319 578.822C274.645 581.944 288.791 580.037 289.838 574.559C290.885 569.087 278.461 562.092 262.117 558.966C245.791 555.843 231.644 557.757 230.598 563.229Z" fill="#7271B3"/>
<g opacity="0.57">
<path opacity="0.57" d="M233.778 563.837C234.712 558.951 247.336 557.243 261.913 560.031C276.491 562.819 287.594 569.064 286.659 573.951C285.725 578.837 273.101 580.544 258.524 577.756C243.946 574.968 232.843 568.723 233.778 563.837ZM234.838 564.04C233.94 568.732 244.59 574.723 258.591 577.401C272.593 580.078 284.702 578.441 285.599 573.748C286.497 569.055 275.847 563.064 261.845 560.387C247.844 557.709 235.735 559.347 234.838 564.04Z" fill="#F3FFFF"/>
</g>
<g opacity="0.57">
<path opacity="0.57" d="M258.736 576.641C271.491 579.081 282.513 577.584 283.33 573.315C283.568 572.068 282.94 570.714 281.459 569.288C281.346 569.175 281.037 569.078 280.748 569.074C280.48 569.068 280.348 569.153 280.479 569.275C281.895 570.637 282.496 571.928 282.268 573.118C281.489 577.194 270.963 578.618 258.802 576.292C255.604 575.68 252.561 574.866 249.763 573.872C249.511 573.779 249.187 573.762 249.04 573.824C248.893 573.887 249.003 574.017 249.255 574.111C252.197 575.152 255.389 576.001 258.736 576.641Z" fill="#F3FFFF"/>
</g>
<path d="M244.676 560.741C244.825 560.769 244.959 560.775 245.077 560.759C249.509 560.063 255.546 560.339 261.627 561.502C261.924 561.559 262.181 561.524 262.201 561.424C262.22 561.325 261.993 561.197 261.696 561.14C255.318 559.921 249.012 559.638 244.344 560.361C244.125 560.396 244.122 560.512 244.315 560.614C244.418 560.679 244.546 560.716 244.676 560.741Z" fill="#F3FFFF"/>
<path d="M238.102 555.432C238.474 555.503 238.836 555.527 239.149 555.503C245.852 554.918 254.131 555.468 262.48 557.064C269.527 558.412 276.182 560.402 281.751 562.824C282.446 563.124 283.462 563.254 283.991 563.103C284.521 562.953 284.4 562.581 283.706 562.28C277.638 559.64 270.363 557.467 262.684 555.999C253.591 554.26 244.552 553.655 237.241 554.292C236.535 554.357 236.377 554.676 236.911 555.01C237.203 555.195 237.637 555.343 238.102 555.432Z" fill="#217763"/>
<path d="M215.131 560.019C215.596 560.108 216.058 560.112 216.347 560.012L249.073 548.027C249.468 547.877 249.296 547.566 248.668 547.323C248.039 547.081 247.226 547.002 246.831 547.153L214.105 559.138C213.71 559.288 213.881 559.599 214.51 559.842C214.688 559.915 214.908 559.976 215.131 560.019Z" fill="#217763"/>
<path d="M212.434 560.408C261.931 569.577 260.549 569.649 261.343 569.323C261.907 569.094 263.074 570.351 240.15 550.534L184.899 536.381C184.054 536.168 183.248 536.247 183.248 536.55C183.242 536.782 182.812 536.312 212.434 560.408ZM188.853 539.619L237.844 551.963L258.008 568.019L214.093 559.795L188.853 539.619Z" fill="#217763"/>
<path d="M184.897 536.381L187.561 537.065L184.855 538.008C183.155 536.617 183.229 536.637 183.228 536.54C183.246 536.246 184.071 536.165 184.897 536.381Z" fill="#D6007E"/>
<path d="M260.44 567.703C260.663 567.746 260.841 567.721 260.874 567.65C260.907 567.579 260.734 567.475 260.511 567.432L213.737 557.731C213.516 557.682 213.299 557.705 213.285 557.78C213.252 557.851 213.425 557.955 213.648 557.998L260.421 567.699L260.44 567.703Z" fill="#352E73"/>
<path d="M212.218 561.989L212.237 561.992L259.959 570.363C260.183 570.4 260.381 570.373 260.376 570.294C260.372 570.216 260.198 570.118 259.974 570.082L212.252 561.711C212.028 561.674 211.83 561.701 211.834 561.779C211.839 561.858 211.995 561.946 212.218 561.989Z" fill="#352E73"/>
<path d="M220.961 561.301C220.826 562.813 216.969 563.329 212.572 562.436C208.583 561.628 205.519 559.911 205.646 558.54C205.781 557.029 209.638 556.513 214.055 557.403C218.043 558.217 221.089 559.93 220.961 561.301Z" fill="#352E73"/>
<path d="M206.387 559.904L211.54 557.046C212.261 557.106 213.011 557.211 213.792 557.361C216.042 557.791 218.007 558.503 219.301 559.293C218.89 559.834 218.338 560.297 217.705 560.286C216.225 560.261 214.696 561.203 213.742 561.757C213.373 561.971 212.979 562.218 212.608 562.444C209.841 561.896 207.524 560.91 206.387 559.904Z" fill="#352E73"/>
<path d="M201.192 564.103C201.378 564.139 201.551 564.14 201.655 564.101L213.7 560.281C213.864 560.228 213.811 560.102 213.579 560.006C213.347 559.91 213.007 559.871 212.843 559.923L200.798 563.744C200.634 563.796 200.687 563.923 200.919 564.019C201.008 564.055 201.099 564.086 201.192 564.103Z" fill="black"/>
<path d="M200.626 564.628C201.144 564.74 201.632 564.71 201.778 564.551C201.926 564.379 201.609 564.125 201.041 563.971L189.612 560.945C189.042 560.797 188.462 560.809 188.295 560.977C188.146 561.149 188.464 561.404 189.032 561.558L200.462 564.577C200.534 564.604 200.589 564.621 200.626 564.628Z" fill="#352E73"/>
<path d="M255.438 548.141L245.063 546.156C244.3 546.011 243.627 546.102 243.579 546.357L243.471 546.918C243.422 547.173 244.014 547.506 244.776 547.652L257.885 550.159C258.908 550.355 259.684 550.128 259.277 549.734C258.628 549.1 257.186 548.475 255.438 548.141Z" fill="#352E73"/>
<path d="M259.851 570.8C262.993 571.401 265.704 571.034 265.905 569.981C266.107 568.928 263.723 567.587 260.58 566.986C257.438 566.385 254.727 566.751 254.526 567.805C254.324 568.858 256.709 570.199 259.851 570.8Z" fill="#352E73"/>
<path d="M265.089 569.715C265.086 570.736 262.514 571.083 259.588 570.459C257.181 569.947 255.336 568.91 255.342 568.071C255.345 567.051 257.917 566.703 260.843 567.327C263.25 567.839 265.095 568.877 265.089 569.715Z" fill="#ADEFF7"/>
<path d="M258.878 568.555C258.668 568.844 259.416 569.265 260.375 569.39C260.958 569.469 261.434 569.399 261.563 569.23C261.772 568.94 261.024 568.519 260.066 568.388C259.501 568.319 259.006 568.385 258.878 568.555Z" fill="#F3FFFF"/>
<g opacity="0.57">
<path opacity="0.57" d="M152.49 556.322C165.245 558.761 176.267 557.265 177.084 552.995C177.322 551.749 176.694 550.395 175.213 548.968C175.1 548.856 174.791 548.758 174.502 548.755C174.234 548.749 174.102 548.833 174.233 548.955C175.649 550.318 176.25 551.609 176.023 552.799C175.243 556.875 164.717 558.299 152.556 555.973C149.358 555.361 146.314 554.546 143.517 553.553C143.265 553.459 142.941 553.443 142.794 553.505C142.647 553.567 142.757 553.698 143.009 553.792C145.951 554.832 149.143 555.682 152.49 556.322Z" fill="#F3FFFF"/>
</g>
<path d="M119.906 542.059C121.11 535.765 137.374 533.565 156.173 537.16C174.953 540.752 189.276 548.801 188.072 555.096C186.868 561.39 174.328 566.576 151.318 562.176C127.519 557.624 118.702 548.354 119.906 542.059ZM124.164 542.873C123.111 548.383 135.623 555.421 152.06 558.564C168.497 561.708 182.723 559.784 183.777 554.274C184.83 548.765 172.318 541.727 155.881 538.584C139.444 535.44 125.218 537.364 124.164 542.873Z" fill="#2D2861"/>
<path d="M122.749 542.604C123.852 536.833 138.751 534.817 155.969 538.11C173.187 541.403 186.291 548.774 185.188 554.545C184.084 560.316 169.185 562.331 151.967 559.038C134.749 555.745 121.645 548.375 122.749 542.604ZM124.348 542.909C123.301 548.381 135.725 555.376 152.069 558.502C168.395 561.625 182.541 559.717 183.588 554.239C184.635 548.767 172.211 541.772 155.867 538.646C139.541 535.524 125.394 537.438 124.348 542.909Z" fill="#7271B3"/>
<g opacity="0.57">
<path opacity="0.57" d="M127.528 543.518C128.462 538.631 141.086 536.924 155.663 539.712C170.241 542.5 181.344 548.745 180.409 553.631C179.475 558.517 166.851 560.225 152.274 557.437C137.696 554.649 126.593 548.404 127.528 543.518ZM128.588 543.72C127.69 548.413 138.34 554.404 152.341 557.081C166.343 559.759 178.452 558.121 179.349 553.428C180.247 548.736 169.597 542.745 155.595 540.067C141.613 537.393 129.485 539.027 128.588 543.72Z" fill="#F3FFFF"/>
</g>
<path d="M153.33 548.917C153.795 549.006 154.275 549.014 154.545 548.91L194.559 533.894C194.934 533.746 195.165 533.545 195.21 533.308L195.481 531.893C195.535 531.613 196.119 531.582 196.369 531.585C196.619 531.588 197.269 531.615 197.967 531.897L203.975 534.345C204.583 534.59 205.414 534.678 205.827 534.537C206.239 534.397 206.087 534.083 205.479 533.838L199.471 531.39C198.202 530.87 196.604 530.558 195.197 530.553C193.81 530.553 192.903 530.858 192.805 531.375L192.533 532.796C192.516 532.883 192.425 532.956 192.279 533.012L152.249 548.019C151.854 548.169 152.044 548.484 152.654 548.723C152.887 548.813 153.107 548.874 153.33 548.917Z" fill="#217763"/>
<path d="M153.609 550.481C156.751 551.082 159.462 550.716 159.663 549.663C159.865 548.609 157.481 547.268 154.338 546.667C151.196 546.066 148.485 546.433 148.284 547.486C148.082 548.539 150.485 549.884 153.609 550.481Z" fill="#352E73"/>
<path d="M158.846 549.397C158.844 550.417 156.272 550.765 153.346 550.141C150.938 549.629 149.094 548.591 149.1 547.753C149.102 546.732 151.674 546.384 154.6 547.009C157.008 547.521 158.853 548.558 158.846 549.397Z" fill="#ADEFF7"/>
<path d="M152.628 548.233C152.418 548.523 153.166 548.944 154.125 549.069C154.708 549.148 155.184 549.078 155.313 548.908C155.522 548.619 154.774 548.198 153.816 548.067C153.251 547.997 152.756 548.064 152.628 548.233Z" fill="#F3FFFF"/>
<defs>
<filter id="filter0_d" x="663.809" y="307.772" width="26.8125" height="26.8145" filterUnits="userSpaceOnUse" color-interpolation-filters="sRGB">
<feFlood flood-opacity="0" result="BackgroundImageFix"/>
<feColorMatrix in="SourceAlpha" type="matrix" values="0 0 0 0 0 0 0 0 0 0 0 0 0 0 0 0 0 0 127 0" result="hardAlpha"/>
<feOffset/>
<feGaussianBlur stdDeviation="5"/>
<feComposite in2="hardAlpha" operator="out"/>
<feColorMatrix type="matrix" values="0 0 0 0 1 0 0 0 0 1 0 0 0 0 1 0 0 0 1 0"/>
<feBlend mode="normal" in2="BackgroundImageFix" result="effect1_dropShadow"/>
<feBlend mode="normal" in="SourceGraphic" in2="effect1_dropShadow" result="shape"/>
</filter>
<linearGradient id="paint0_linear" x1="675.053" y1="151.754" x2="675.053" y2="140.304" gradientUnits="userSpaceOnUse">
<stop stop-color="#008EC2"/>
<stop offset="1" stop-color="#003BC2"/>
</linearGradient>
<radialGradient id="paint1_radial" cx="0" cy="0" r="1" gradientUnits="userSpaceOnUse" gradientTransform="translate(675.054 145.752) scale(5.5906 5.57524)">
<stop stop-color="#FFBD00"/>
<stop offset="1" stop-color="#FF772C"/>
</radialGradient>
<linearGradient id="paint2_linear" x1="675.054" y1="150.802" x2="675.054" y2="140.306" gradientUnits="userSpaceOnUse">
<stop stop-color="#FFF300"/>
<stop offset="1" stop-color="#FF9700"/>
</linearGradient>
<linearGradient id="paint3_linear" x1="675.054" y1="150.71" x2="675.054" y2="140.222" gradientUnits="userSpaceOnUse">
<stop stop-color="#FFCC00"/>
<stop offset="1" stop-color="#FF9700"/>
</linearGradient>
<linearGradient id="paint4_linear" x1="669.361" y1="142.657" x2="680.624" y2="142.657" gradientUnits="userSpaceOnUse">
<stop stop-color="#FFD540"/>
<stop offset="0.822917" stop-color="#FBCC53"/>
</linearGradient>
<linearGradient id="paint5_linear" x1="669.039" y1="486.937" x2="669.039" y2="477.828" gradientUnits="userSpaceOnUse">
<stop stop-color="#008EC2"/>
<stop offset="1" stop-color="#003BC2"/>
</linearGradient>
<radialGradient id="paint6_radial" cx="0" cy="0" r="1" gradientUnits="userSpaceOnUse" gradientTransform="translate(669.043 482.161) scale(4.44736 4.43514)">
<stop stop-color="#FFBD00"/>
<stop offset="1" stop-color="#FF772C"/>
</radialGradient>
<linearGradient id="paint7_linear" x1="669.042" y1="486.179" x2="669.042" y2="477.829" gradientUnits="userSpaceOnUse">
<stop stop-color="#FFF300"/>
<stop offset="1" stop-color="#FF9700"/>
</linearGradient>
<linearGradient id="paint8_linear" x1="669.042" y1="486.107" x2="669.042" y2="477.763" gradientUnits="userSpaceOnUse">
<stop stop-color="#FFCC00"/>
<stop offset="1" stop-color="#FF9700"/>
</linearGradient>
<linearGradient id="paint9_linear" x1="664.511" y1="479.7" x2="673.47" y2="479.7" gradientUnits="userSpaceOnUse">
<stop stop-color="#FFD540"/>
<stop offset="0.822917" stop-color="#FBCC53"/>
</linearGradient>
<linearGradient id="paint10_linear" x1="1.40212" y1="338.398" x2="754.842" y2="338.398" gradientUnits="userSpaceOnUse">
<stop stop-color="#BCE3F1"/>
<stop offset="1" stop-color="#D0F7FF"/>
</linearGradient>
</defs>
</svg>
