<svg width="777" height="604" viewBox="0 0 777 604" fill="none" xmlns="http://www.w3.org/2000/svg">
<g filter="url(#filter0_d)">
<circle cx="676.216" cy="320.733" r="3.40701" fill="white"/>
</g>
<path d="M63.2638 349.513C64.3073 349.513 65.11 353.255 65.11 353.255C65.11 353.255 68.9229 352.855 69.244 353.855C69.5651 354.856 66.274 356.757 66.274 356.757C66.274 356.757 67.8192 360.259 66.9763 360.86C66.1335 361.48 63.2839 358.919 63.2839 358.919C63.2839 358.919 60.4343 361.48 59.5914 360.86C58.7486 360.239 60.2737 356.757 60.2737 356.757C60.2737 356.757 56.9626 354.836 57.2836 353.855C57.6047 352.875 61.4176 353.255 61.4176 353.255C61.4176 353.255 62.2203 349.513 63.2638 349.513Z" fill="#00D6C2"/>
<path d="M63.2638 349.312C64.3073 349.312 65.11 353.055 65.11 353.055C65.11 353.055 68.9229 352.655 69.244 353.655C69.5651 354.656 66.274 356.557 66.274 356.557C66.274 356.557 67.8192 360.059 66.9763 360.66C66.1335 361.28 63.2839 358.718 63.2839 358.718C63.2839 358.718 60.4343 361.28 59.5914 360.66C58.7285 360.059 60.2737 356.557 60.2737 356.557C60.2737 356.557 56.9626 354.636 57.2836 353.655C57.6047 352.675 61.4176 353.055 61.4176 353.055C61.4176 353.055 62.2203 349.312 63.2638 349.312Z" fill="url(#paint0_linear)"/>
<path d="M63.2646 349.313C64.268 349.313 65.0306 352.876 65.0306 352.876C65.0306 352.876 68.6628 352.495 68.9639 353.436C69.2649 354.377 66.1142 356.198 66.1142 356.198C66.1142 356.198 67.5992 359.52 66.7765 360.1C65.9738 360.681 63.2646 358.259 63.2646 358.259C63.2646 358.259 60.5555 360.681 59.7528 360.1C58.9501 359.52 60.415 356.198 60.415 356.198C60.415 356.198 57.2644 354.377 57.5855 353.436C57.8865 352.495 61.5187 352.876 61.5187 352.876C61.5187 352.876 62.2813 349.313 63.2646 349.313Z" fill="url(#paint1_radial)"/>
<path d="M66.114 355.958C66.114 355.958 67.599 359.16 66.7963 359.72C65.9936 360.28 63.2844 357.939 63.2844 357.939C63.2844 357.939 60.5753 360.28 59.7726 359.72C58.9699 359.16 60.4549 355.958 60.4549 355.958C60.4549 355.958 57.2641 354.197 57.5852 353.296C57.9063 352.395 61.5185 352.756 61.5185 352.756C61.5185 352.756 62.281 349.313 63.2644 349.313C64.2677 349.313 65.0303 352.736 65.0303 352.736C65.0303 352.736 68.1207 352.435 68.8432 353.096C68.9034 353.156 68.9435 353.216 68.9636 353.276C69.2847 354.197 66.114 355.958 66.114 355.958Z" fill="url(#paint2_linear)"/>
<path d="M66.1141 355.877C66.1141 355.877 67.5991 359.079 66.7964 359.639C65.9937 360.199 63.2846 357.618 63.2846 357.618C63.2846 357.618 60.5554 360.199 59.7526 359.639C58.9499 359.079 60.4349 355.877 60.4349 355.877C60.4349 355.877 57.2643 354.115 57.5853 353.215C57.9064 352.314 61.5186 352.675 61.5186 352.675C61.5186 352.675 62.2812 349.232 63.2645 349.232C64.2679 349.232 65.0304 352.655 65.0304 352.655C65.0304 352.655 68.1209 352.354 68.8433 353.015C68.9035 353.075 68.9436 353.135 68.9637 353.195C69.2848 354.115 66.1141 355.877 66.1141 355.877Z" fill="url(#paint3_linear)"/>
<path d="M68.8439 353.095C68.8038 353.155 68.7436 353.195 68.6633 353.255C67.1382 354.336 64.2484 354.136 61.0777 353.435C58.0274 352.755 57.606 353.235 57.5859 353.275C57.907 352.374 61.5192 352.735 61.5192 352.735C61.5192 352.735 62.2818 349.312 63.2651 349.312C64.2685 349.312 65.031 352.735 65.031 352.735C65.031 352.735 68.1215 352.434 68.8439 353.095Z" fill="url(#paint4_linear)"/>
<path d="M62.3008 350.473C62.3008 350.473 62.7824 349.452 63.1035 349.472C63.4246 349.492 63.1236 350.272 63.0232 350.353C62.9229 350.433 62.4011 350.553 62.3008 350.473Z" fill="white"/>
<path d="M66.9598 358.819C66.8795 358.679 66.719 359.799 66.7992 359.719C66.8795 359.659 67.2608 359.339 66.9598 358.819Z" fill="white"/>
<path d="M674.045 140.056C675.089 140.056 675.891 143.798 675.891 143.798C675.891 143.798 679.704 143.398 680.025 144.398C680.346 145.399 677.055 147.3 677.055 147.3C677.055 147.3 678.6 150.802 677.758 151.403C676.915 152.023 674.065 149.462 674.065 149.462C674.065 149.462 671.216 152.023 670.373 151.403C669.53 150.782 671.055 147.3 671.055 147.3C671.055 147.3 667.744 145.379 668.065 144.398C668.386 143.418 672.199 143.798 672.199 143.798C672.199 143.798 673.002 140.056 674.045 140.056Z" fill="#00D6C2"/>
<path d="M674.045 139.855C675.089 139.855 675.891 143.598 675.891 143.598C675.891 143.598 679.704 143.198 680.025 144.198C680.346 145.199 677.055 147.1 677.055 147.1C677.055 147.1 678.6 150.602 677.758 151.203C676.915 151.823 674.065 149.261 674.065 149.261C674.065 149.261 671.216 151.823 670.373 151.203C669.51 150.602 671.055 147.1 671.055 147.1C671.055 147.1 667.744 145.179 668.065 144.198C668.386 143.218 672.199 143.598 672.199 143.598C672.199 143.598 673.002 139.855 674.045 139.855Z" fill="url(#paint5_linear)"/>
<path d="M674.046 139.856C675.049 139.856 675.812 143.419 675.812 143.419C675.812 143.419 679.444 143.038 679.745 143.979C680.046 144.92 676.895 146.741 676.895 146.741C676.895 146.741 678.38 150.063 677.558 150.643C676.755 151.224 674.046 148.802 674.046 148.802C674.046 148.802 671.337 151.224 670.534 150.643C669.731 150.063 671.196 146.741 671.196 146.741C671.196 146.741 668.046 144.92 668.367 143.979C668.668 143.038 672.3 143.419 672.3 143.419C672.3 143.419 673.063 139.856 674.046 139.856Z" fill="url(#paint6_radial)"/>
<path d="M676.895 146.501C676.895 146.501 678.38 149.703 677.578 150.263C676.775 150.823 674.066 148.482 674.066 148.482C674.066 148.482 671.357 150.823 670.554 150.263C669.751 149.703 671.236 146.501 671.236 146.501C671.236 146.501 668.045 144.74 668.366 143.839C668.688 142.938 672.3 143.299 672.3 143.299C672.3 143.299 673.062 139.856 674.046 139.856C675.049 139.856 675.812 143.279 675.812 143.279C675.812 143.279 678.902 142.978 679.624 143.639C679.685 143.699 679.725 143.759 679.745 143.819C680.066 144.74 676.895 146.501 676.895 146.501Z" fill="url(#paint7_linear)"/>
<path d="M676.895 146.42C676.895 146.42 678.38 149.622 677.578 150.182C676.775 150.742 674.066 148.161 674.066 148.161C674.066 148.161 671.337 150.742 670.534 150.182C669.731 149.622 671.216 146.42 671.216 146.42C671.216 146.42 668.046 144.658 668.367 143.758C668.688 142.857 672.3 143.218 672.3 143.218C672.3 143.218 673.062 139.775 674.046 139.775C675.049 139.775 675.812 143.198 675.812 143.198C675.812 143.198 678.902 142.897 679.625 143.558C679.685 143.618 679.725 143.678 679.745 143.738C680.066 144.658 676.895 146.42 676.895 146.42Z" fill="url(#paint8_linear)"/>
<path d="M679.625 143.638C679.585 143.698 679.525 143.738 679.445 143.798C677.919 144.879 675.03 144.678 671.859 143.978C668.809 143.298 668.387 143.778 668.367 143.818C668.688 142.917 672.3 143.278 672.3 143.278C672.3 143.278 673.063 139.855 674.046 139.855C675.05 139.855 675.812 143.278 675.812 143.278C675.812 143.278 678.903 142.977 679.625 143.638Z" fill="url(#paint9_linear)"/>
<path d="M673.082 141.016C673.082 141.016 673.564 139.995 673.885 140.015C674.206 140.035 673.905 140.815 673.804 140.895C673.704 140.976 673.182 141.096 673.082 141.016Z" fill="white"/>
<path d="M677.741 149.362C677.661 149.222 677.5 150.342 677.58 150.262C677.661 150.202 678.042 149.882 677.741 149.362Z" fill="white"/>
<path d="M668.033 477.54C668.863 477.54 669.501 480.517 669.501 480.517C669.501 480.517 672.534 480.199 672.79 480.995C673.045 481.791 670.427 483.303 670.427 483.303C670.427 483.303 671.656 486.089 670.986 486.567C670.315 487.06 668.048 485.023 668.048 485.023C668.048 485.023 665.782 487.06 665.111 486.567C664.441 486.073 665.654 483.303 665.654 483.303C665.654 483.303 663.02 481.775 663.275 480.995C663.531 480.215 666.564 480.517 666.564 480.517C666.564 480.517 667.202 477.54 668.033 477.54Z" fill="#00D6C2"/>
<path d="M668.033 477.38C668.863 477.38 669.501 480.357 669.501 480.357C669.501 480.357 672.534 480.039 672.79 480.835C673.045 481.631 670.427 483.143 670.427 483.143C670.427 483.143 671.656 485.929 670.986 486.407C670.315 486.9 668.048 484.862 668.048 484.862C668.048 484.862 665.782 486.9 665.111 486.407C664.425 485.929 665.654 483.143 665.654 483.143C665.654 483.143 663.02 481.615 663.275 480.835C663.531 480.054 666.564 480.357 666.564 480.357C666.564 480.357 667.202 477.38 668.033 477.38Z" fill="url(#paint10_linear)"/>
<path d="M668.036 477.38C668.834 477.38 669.441 480.214 669.441 480.214C669.441 480.214 672.33 479.911 672.57 480.659C672.809 481.408 670.303 482.856 670.303 482.856C670.303 482.856 671.484 485.499 670.83 485.961C670.191 486.423 668.036 484.496 668.036 484.496C668.036 484.496 665.881 486.423 665.242 485.961C664.604 485.499 665.769 482.856 665.769 482.856C665.769 482.856 663.263 481.408 663.518 480.659C663.758 479.911 666.647 480.214 666.647 480.214C666.647 480.214 667.254 477.38 668.036 477.38Z" fill="url(#paint11_radial)"/>
<path d="M670.303 482.665C670.303 482.665 671.484 485.213 670.846 485.658C670.207 486.104 668.052 484.241 668.052 484.241C668.052 484.241 665.897 486.104 665.258 485.658C664.62 485.213 665.801 482.665 665.801 482.665C665.801 482.665 663.263 481.264 663.518 480.548C663.773 479.832 666.647 480.118 666.647 480.118C666.647 480.118 667.254 477.38 668.036 477.38C668.834 477.38 669.441 480.102 669.441 480.102C669.441 480.102 671.899 479.863 672.474 480.389C672.522 480.437 672.554 480.484 672.57 480.532C672.825 481.264 670.303 482.665 670.303 482.665Z" fill="url(#paint12_linear)"/>
<path d="M670.303 482.602C670.303 482.602 671.484 485.149 670.846 485.595C670.207 486.041 668.052 483.987 668.052 483.987C668.052 483.987 665.881 486.041 665.242 485.595C664.604 485.149 665.785 482.602 665.785 482.602C665.785 482.602 663.263 481.201 663.518 480.485C663.774 479.768 666.647 480.055 666.647 480.055C666.647 480.055 667.254 477.316 668.036 477.316C668.834 477.316 669.441 480.039 669.441 480.039C669.441 480.039 671.899 479.8 672.474 480.325C672.522 480.373 672.554 480.421 672.57 480.469C672.825 481.201 670.303 482.602 670.303 482.602Z" fill="url(#paint13_linear)"/>
<path d="M672.471 480.389C672.439 480.437 672.392 480.468 672.328 480.516C671.114 481.376 668.816 481.217 666.293 480.659C663.867 480.118 663.532 480.5 663.516 480.532C663.771 479.816 666.645 480.102 666.645 480.102C666.645 480.102 667.251 477.38 668.033 477.38C668.832 477.38 669.438 480.102 669.438 480.102C669.438 480.102 671.897 479.863 672.471 480.389Z" fill="url(#paint14_linear)"/>
<path d="M667.266 478.304C667.266 478.304 667.649 477.492 667.904 477.508C668.16 477.524 667.92 478.145 667.84 478.209C667.761 478.272 667.345 478.368 667.266 478.304Z" fill="white"/>
<path d="M663.692 480.436C663.676 480.564 664.618 480.325 664.618 480.198C664.618 480.086 663.755 480.134 663.692 480.436Z" fill="white"/>
<path d="M670.969 484.943C670.905 484.832 670.778 485.723 670.842 485.66C670.905 485.612 671.209 485.357 670.969 484.943Z" fill="white"/>
<path d="M378.244 528.283C383.44 525.162 389.479 526.69 394.601 529.947C398.746 519.036 406.482 516.297 406.023 516.542C406.076 516.52 407.605 515.85 407.536 515.908C411.235 514.311 419.101 512.821 426.193 513.342C412.146 516.117 401.57 519.275 397.823 533.185C397.807 533.222 396.944 536.787 396.944 536.787C394.787 535.199 387.063 527.776 379.883 531.285C374.5 534.017 367.848 540.537 363.562 544.844C366.841 538.956 372.493 531.874 378.244 528.283Z" fill="#7271B3"/>
<path d="M583.599 25.1596C587.505 22.8127 592.046 23.9617 595.896 26.41C599.013 18.2075 604.829 16.1478 604.483 16.332C604.524 16.316 605.673 15.8118 605.621 15.8558C608.402 14.6553 614.316 13.5347 619.648 13.9262C609.087 16.0124 601.136 18.3866 598.319 28.8447C598.307 28.8727 597.658 31.5525 597.658 31.5525C596.037 30.3588 590.229 24.7782 584.831 27.4162C580.784 29.47 575.783 34.3718 572.561 37.6103C575.026 33.1831 579.275 27.8591 583.599 25.1596Z" fill="#7271B3"/>
<path d="M269.937 479.633C273.312 481.441 274.424 485.293 274.328 489.152C281.641 487.811 285.641 491.141 285.353 490.978C285.392 490.988 286.252 491.645 286.186 491.585C288.273 493.084 291.598 496.905 293.601 501C287.514 494.186 282.361 489.443 273.556 491.983C273.517 491.972 271.288 492.674 271.288 492.674C271.456 490.988 273.009 484.231 268.77 481.469C265.547 479.407 259.796 477.923 256.057 476.987C260.406 476.906 266.107 477.659 269.937 479.633Z" fill="#7271B3"/>
<path d="M524.243 204.111L533.01 207.066C533.01 207.066 531.643 210.37 527.754 209.195C523.028 207.739 524.243 204.111 524.243 204.111Z" fill="white"/>
<path d="M720.377 172.774C642.872 42.655 584.636 219.888 471.348 104.071C195.576 15.6075 297.256 373.195 242.544 360.763C164.545 342.954 155.297 249.077 64.9577 327.639C42.4114 347.28 12.1951 397.628 3.8446 456.511C-4.93887 518.278 5.91675 590.333 5.91675 590.333L723.841 609.662C743.449 541.855 781.954 276.121 720.377 172.774Z" fill="url(#paint15_linear)"/>
<path d="M12.0892 589.429H741.323C747.776 589.429 752.998 593.823 752.998 599.252V604.429H0.414062V599.252C0.414062 593.823 5.63638 589.429 12.0892 589.429Z" fill="#FEE2BF"/>
<path d="M306.906 165.277C310.029 163.914 313.746 163.096 317.723 163.057C321.403 157.292 329.952 153.436 339.69 153.436C345.526 153.436 351.064 154.877 355.339 157.331C360.096 150.164 370.987 145.139 383.365 145.139C391.505 145.139 399.199 147.242 404.886 151.021C405.704 150.943 406.522 150.904 407.339 150.904C416.186 150.904 423.397 155.656 423.397 161.499C423.397 162.823 423.025 164.109 422.319 165.316H306.906V165.277Z" fill="white"/>
<path d="M692.414 289.468C687.519 287.05 681.693 285.598 675.458 285.529C669.689 275.301 656.287 268.459 641.021 268.459C631.872 268.459 623.19 271.016 616.489 275.37C609.031 262.654 591.958 253.738 572.554 253.738C559.793 253.738 547.732 257.47 538.816 264.174C537.535 264.036 536.253 263.967 534.971 263.967C521.103 263.967 509.798 272.398 509.798 282.765C509.798 285.115 510.381 287.395 511.488 289.538H692.414V289.468Z" fill="white"/>
<path d="M423.434 118.69C426.556 117.326 430.273 116.508 434.25 116.469C437.93 110.704 446.479 106.848 456.217 106.848C462.053 106.848 467.591 108.289 471.866 110.743C476.624 103.576 487.514 98.5508 499.892 98.5508C508.032 98.5508 515.726 100.654 521.413 104.433C522.231 104.355 523.049 104.316 523.867 104.316C532.713 104.316 539.924 109.068 539.924 114.911C539.924 116.236 539.552 117.521 538.846 118.729H423.434V118.69Z" fill="white"/>
<path d="M466.574 266.224C465.347 266.146 464.121 266.107 462.894 266.107C453.75 251.694 432.378 242.073 408.143 242.073C393.572 242.073 379.782 245.656 369.114 251.772C357.257 233.892 330.049 221.35 299.235 221.35C278.977 221.35 259.76 226.647 245.524 235.996C243.48 235.801 241.436 235.684 239.354 235.684C217.275 235.684 199.359 247.565 199.359 262.134C199.359 262.172 199.359 262.211 199.359 262.25C199.397 267.47 203.522 271.638 208.466 271.638H466.425C469.733 271.599 469.882 266.418 466.574 266.224Z" fill="white"/>
<path d="M700.577 204.716C695.187 206.002 692.176 211.066 690.838 216.675C681.211 211.884 674.372 215.117 674.818 215C674.781 215 673.331 215.584 673.405 215.545C669.949 216.909 663.853 221.077 659.504 226.102C670.506 218.739 679.501 213.909 690.764 220.999C690.801 221.038 693.626 222.907 693.626 222.907C694.035 220.414 694.443 210.131 701.357 207.794C706.635 206.119 715.147 206.197 720.685 206.352C714.85 204.522 706.635 203.392 700.577 204.716Z" fill="#7271B3"/>
<path d="M168.375 68.9074C171.609 69.6864 173.43 72.7248 174.211 76.1137C180.009 73.2312 184.135 75.1788 183.875 75.1009C183.912 75.1009 184.767 75.4515 184.73 75.4125C186.811 76.2306 190.491 78.7236 193.093 81.7619C186.477 77.3212 181.05 74.4387 174.285 78.6846C174.248 78.6846 172.575 79.8142 172.575 79.8142C172.315 78.2951 172.092 72.1405 167.929 70.7382C164.695 69.7254 159.603 69.8033 156.258 69.8812C159.789 68.7905 164.733 68.0893 168.375 68.9074Z" fill="#7271B3"/>
<path d="M633.072 167.965C629.875 164.693 625.229 164.81 621.028 166.329C619.876 157.37 614.747 153.903 615.044 154.176C615.007 154.176 614.003 153.358 614.078 153.436C611.662 151.566 606.272 149.073 601.105 148.216C610.732 152.773 617.832 157.058 618.204 168.199C618.204 168.238 618.241 171.081 618.241 171.081C620.062 170.263 626.864 166.017 631.436 169.913C634.856 172.912 638.573 179.028 640.914 183.04C639.502 178.015 636.603 171.666 633.072 167.965Z" fill="#7271B3"/>
<path d="M489.9 209.992C486.703 206.72 482.057 206.837 477.857 208.356C476.704 199.397 471.575 195.93 471.872 196.203C471.835 196.203 470.831 195.385 470.906 195.463C468.49 193.593 463.1 191.1 457.934 190.243C467.561 194.801 474.66 199.086 475.032 210.226C475.032 210.265 475.069 213.109 475.069 213.109C476.89 212.291 483.692 208.045 488.264 211.94C491.684 214.939 495.401 221.055 497.742 225.067C496.33 220.042 493.431 213.693 489.9 209.992Z" fill="#7271B3"/>
<path d="M117.258 188.568C112.76 191.957 111.868 197.839 112.76 203.565C102.092 203.098 97 208.863 97.3717 208.551C97.3345 208.59 96.2194 209.681 96.2938 209.642C93.6175 212.291 89.5288 218.64 87.4102 225.067C94.807 213.771 101.275 205.669 114.321 207.616C114.358 207.616 117.666 208.201 117.666 208.201C117.109 205.708 113.652 196.125 119.19 191.139C123.428 187.439 131.308 184.05 136.474 181.907C130.341 182.569 122.35 184.868 117.258 188.568Z" fill="#7271B3"/>
<path d="M229.984 134.726C225.821 133.051 221.583 134.999 218.275 138.154C213.852 130.364 207.868 129.273 208.239 129.39C208.202 129.39 206.976 129.078 207.05 129.078C204.151 128.338 198.241 128.26 193.148 129.585C203.742 129.857 211.845 130.87 216.342 140.998C216.342 141.037 217.458 143.647 217.458 143.647C218.833 142.167 223.516 135.467 229.166 137.181C233.441 138.544 239.128 142.673 242.77 145.4C239.648 141.387 234.593 136.713 229.984 134.726Z" fill="#7271B3"/>
<path d="M410.135 574.258L406.708 388.278L696.82 305.991L682.765 581.991L410.135 574.258Z" fill="#E8D295"/>
<path d="M666.557 531.336L415.294 536.656L413.148 411.192L665.731 355.78L666.557 531.336Z" fill="#35AA93"/>
<path d="M668.208 528.973L417.114 534.29L414.798 408.829L667.382 353.417L668.208 528.973Z" fill="#8ECBF5"/>
<path d="M665.849 425.402L418.905 530.293L418.091 491.889L598.749 373.033L665.294 359.049L665.849 425.402Z" fill="#78BBEB"/>
<path d="M443.302 413.582L441.602 413.618L444.002 543.035L445.702 542.999L443.302 413.582Z" fill="#E8D295"/>
<path d="M475.097 412.909L473.397 412.945L475.967 542.358L477.667 542.322L475.097 412.909Z" fill="#E8D295"/>
<path d="M506.874 403.62L505.174 403.656L507.926 541.681L509.452 541.416L506.874 403.62Z" fill="#E8D295"/>
<path d="M538.665 395.028L536.965 395.064L539.715 541.007L541.415 540.971L538.665 395.028Z" fill="#E8D295"/>
<path d="M570.481 387.37L568.781 387.406L571.679 540.331L573.374 540.063L570.481 387.37Z" fill="#E8D295"/>
<path d="M602.251 385.766L600.721 385.799L603.469 539.659L605.169 539.623L602.251 385.766Z" fill="#E8D295"/>
<path d="M633.981 374.151L632.451 374.184L635.431 538.983L637.131 538.947L633.981 374.151Z" fill="#E8D295"/>
<path d="M685.253 586.827L406.291 585.282L406.338 563.393L685.511 574.945L685.253 586.827Z" fill="#C49C5C"/>
<path d="M401.794 373.012L405.642 426.255L694.781 354.234L699.603 268.674L401.794 373.012Z" fill="#F7C186"/>
<path d="M694.781 354.234L697.767 302.476L404.183 405.561L405.642 426.255L694.781 354.234Z" fill="#EAB778"/>
<path opacity="0.4" d="M407.338 425.753L407.485 432.735L661.784 377.985L661.279 362.161L407.338 425.753Z" fill="#CEB176"/>
<path d="M401.793 373.012C401.793 373.012 494.597 362.199 490.961 383.233C487.494 404.263 406.297 425.077 406.297 425.077L401.793 373.012Z" fill="#FFCB97"/>
<path d="M443.302 413.582L441.602 413.618L444.002 543.035L445.702 542.999L443.302 413.582Z" fill="#E8D295"/>
<path d="M443.302 413.582L441.602 413.618L444.002 543.035L445.702 542.999L443.302 413.582Z" fill="#E8D295"/>
<path d="M443.302 413.582L441.602 413.618L444.002 543.035L445.702 542.999L443.302 413.582Z" fill="#E8D295"/>
<path d="M443.302 413.582L441.602 413.618L444.002 543.035L445.702 542.999L443.302 413.582Z" fill="#E8D295"/>
<path d="M443.302 413.582L441.602 413.618L444.002 543.035L445.702 542.999L443.302 413.582Z" fill="#E8D295"/>
<path d="M443.302 413.582L441.602 413.618L444.002 543.035L445.702 542.999L443.302 413.582Z" fill="#E8D295"/>
<path d="M443.302 413.582L441.602 413.618L444.002 543.035L445.702 542.999L443.302 413.582Z" fill="#E8D295"/>
<path d="M443.302 413.582L441.602 413.618L444.002 543.035L445.702 542.999L443.302 413.582Z" fill="#E8D295"/>
<path d="M443.302 413.582L441.602 413.618L444.002 543.035L445.702 542.999L443.302 413.582Z" fill="#E8D295"/>
<path d="M443.302 413.582L441.602 413.618L444.002 543.035L445.702 542.999L443.302 413.582Z" fill="#E8D295"/>
<path d="M443.302 413.582L441.602 413.618L444.002 543.035L445.702 542.999L443.302 413.582Z" fill="#E8D295"/>
<path d="M443.302 413.582L441.602 413.618L444.002 543.035L445.702 542.999L443.302 413.582Z" fill="#E8D295"/>
<path d="M443.302 413.582L441.602 413.618L444.002 543.035L445.702 542.999L443.302 413.582Z" fill="#E8D295"/>
<path d="M443.302 413.582L441.602 413.618L444.002 543.035L445.702 542.999L443.302 413.582Z" fill="#E8D295"/>
<path d="M443.302 413.582L441.602 413.618L444.002 543.035L445.702 542.999L443.302 413.582Z" fill="#E8D295"/>
<path d="M443.302 413.582L441.602 413.618L444.002 543.035L445.702 542.999L443.302 413.582Z" fill="#E8D295"/>
<path d="M443.302 413.582L441.602 413.618L444.002 543.035L445.702 542.999L443.302 413.582Z" fill="#E8D295"/>
<path d="M443.302 413.582L441.602 413.618L444.002 543.035L445.702 542.999L443.302 413.582Z" fill="#E8D295"/>
<path d="M443.302 413.582L441.602 413.618L444.002 543.035L445.702 542.999L443.302 413.582Z" fill="#E8D295"/>
<path d="M443.302 413.582L441.602 413.618L444.002 543.035L445.702 542.999L443.302 413.582Z" fill="#E8D295"/>
<path d="M443.302 413.582L441.602 413.618L444.002 543.035L445.702 542.999L443.302 413.582Z" fill="#E8D295"/>
<path opacity="0.4" d="M667.378 473.571L408.869 498.139L409.106 509.311L667.61 484.511L667.378 473.571Z" fill="#CEB176"/>
<path d="M663.167 467.373L404.663 492.174L404.895 503.113L663.404 478.545L663.167 467.373Z" fill="#F7C186"/>
<path d="M662.753 463.889L404.244 488.457L404.481 499.629L662.532 469.482L662.753 463.889Z" fill="#E8D295"/>
<path d="M309.322 404.839C313.779 396.117 315.85 386.36 315.634 376.555C315.104 353.089 322.163 320.733 339.485 320.733C360.348 320.733 361.987 361.618 355.482 384.625C354.181 389.203 355.988 394.118 360.011 396.623C360.324 396.816 360.541 396.937 360.662 396.937C365.914 396.937 370.178 402.646 370.178 409.705C370.178 411.295 369.961 412.789 369.576 414.186C377.863 417.68 383.766 426.907 383.766 437.748C383.766 451.601 374.129 462.804 362.228 462.804C352.687 462.804 344.592 455.577 341.773 445.578C338.039 448.879 333.534 450.806 328.667 450.806C315.899 450.806 305.539 437.507 305.539 421.101C305.539 415.102 306.936 409.513 309.322 404.839Z" fill="#69B708"/>
<path d="M322.935 408.116C344.521 405.2 347.749 428.714 347.749 428.714C373.335 417.078 384.683 435.34 384.683 435.34L385.309 440.808C384.731 454.059 373.745 462.804 362.229 462.804C352.688 462.804 344.593 455.577 341.775 445.579C338.04 448.879 333.535 450.807 328.669 450.807C320.983 450.807 314.189 446.012 309.997 438.616C309.853 438.158 301.517 411.007 322.935 408.116Z" fill="#5FA73E"/>
<path d="M340.858 589.36C341.677 589.36 342.472 589.89 342.472 589.071V427.389C342.472 426.57 341.797 425.896 340.978 425.896C340.159 425.896 339.484 426.57 339.484 427.389V589.071C339.484 589.866 340.038 589.36 340.858 589.36Z" fill="#7A3909"/>
<path d="M340.978 484.801C345.58 484.801 349.531 482.078 352.735 476.73C355.144 472.707 357.12 467.117 358.638 460.155C361.191 448.422 361.577 436.52 361.577 436.4C361.601 435.581 360.95 434.882 360.131 434.858C359.312 434.834 358.613 435.484 358.589 436.304C358.589 436.424 358.228 448.061 355.722 459.528C353.506 469.695 349.145 481.789 340.978 481.789C340.159 481.789 339.484 482.464 339.484 483.283C339.484 484.126 340.159 484.801 340.978 484.801Z" fill="#7A3909"/>
<path d="M340.833 518.65C340.906 518.65 341.002 518.65 341.074 518.65C341.893 518.602 342.52 517.903 342.472 517.06C342.423 516.241 341.701 515.614 340.882 515.662C340.689 515.662 340.376 515.638 339.942 515.205C338.087 513.422 334.762 506.026 333.413 476.585C332.642 459.624 332.931 443.459 332.931 443.29C332.955 442.471 332.281 441.796 331.462 441.772C330.642 441.748 329.968 442.423 329.944 443.242C329.944 443.41 329.655 459.672 330.426 476.73C330.883 486.776 331.606 495.136 332.594 501.593C333.895 510.049 335.605 515.205 337.87 517.349C338.954 518.409 340.062 518.65 340.833 518.65Z" fill="#7A3909"/>
<path d="M751.334 341.185C752.026 338.027 752.415 334.654 752.415 331.064C752.415 315.191 744.76 302.302 735.331 302.302C733.947 302.302 732.606 302.605 731.309 303.124C729.795 260.176 714.138 226.397 695.065 226.397C676.9 226.397 661.848 257.019 659.124 297.069C645.629 308.098 636.33 330.718 636.33 356.798C636.33 369.254 638.45 380.889 642.126 390.836C629.583 400.135 621.582 414.148 621.582 429.805C621.582 457.788 647.013 480.452 678.37 480.452C701.855 480.452 722.01 467.736 730.66 449.614C733.082 450.306 735.547 450.652 738.099 450.652C759.465 450.652 776.765 425.394 776.765 394.21C776.852 369.86 766.212 349.056 751.334 341.185Z" fill="#8CD334"/>
<path d="M630.707 402.384C636.806 393.994 639.271 383.57 637.671 373.32C636.849 368.043 636.416 362.507 636.416 356.798C636.416 353.684 636.546 350.57 636.806 347.586C689.269 351.176 687.193 403.812 687.193 403.812C687.193 403.812 730.616 385.517 745.062 411.294C759.551 437.028 730.746 449.701 730.746 449.701C722.096 467.823 701.941 480.538 678.456 480.538C647.099 480.538 621.668 457.875 621.668 429.892C621.668 419.728 624.998 410.299 630.707 402.384Z" fill="#5FA73E"/>
<path d="M695.674 589.529C697.144 589.529 698.355 589.529 698.355 588.058V362.55C698.355 361.079 697.144 359.868 695.674 359.868C694.203 359.868 692.992 361.079 692.992 362.55V588.058C692.992 589.529 694.203 589.529 695.674 589.529Z" fill="#7A3909"/>
<path d="M695.67 437.805C703.282 437.805 709.683 435.08 714.787 429.76C728.973 414.839 727.632 384.304 727.546 383.007C727.459 381.536 726.205 380.368 724.735 380.455C723.264 380.541 722.139 381.795 722.183 383.266C722.183 383.569 723.48 412.806 710.851 426.041C706.786 430.323 701.768 432.399 695.627 432.399C694.156 432.399 692.945 433.61 692.945 435.08C692.989 436.637 694.2 437.805 695.67 437.805Z" fill="#7A3909"/>
<path d="M693.506 525.476C693.679 525.476 693.852 525.476 694.025 525.476C695.496 525.389 696.62 524.135 696.534 522.621C696.447 521.151 695.15 520.026 693.679 520.113C692.641 520.156 691.646 519.723 690.565 518.772C687.235 515.788 680.963 505.364 676.076 468.774C673.265 447.625 672.27 427.902 672.27 427.686C672.183 426.216 670.929 425.048 669.459 425.134C667.988 425.221 666.82 426.475 666.907 427.946C666.907 428.162 667.902 448.1 670.756 469.466C672.443 482.052 674.432 492.735 676.681 501.126C679.623 512.155 682.996 519.204 686.975 522.751C689.051 524.568 691.214 525.476 693.506 525.476Z" fill="#7A3909"/>
<path d="M165.768 551.804C166.791 551.804 167.639 550.995 167.639 549.974C167.639 525.687 147.451 505.912 122.607 505.912C111.969 505.912 101.636 509.616 93.5216 516.321C92.7384 516.981 92.6296 518.13 93.304 518.896C93.9784 519.663 95.1531 519.769 95.9363 519.109C103.376 512.958 112.84 509.552 122.607 509.552C145.384 509.552 163.898 527.666 163.898 549.952C163.898 550.974 164.724 551.804 165.768 551.804Z" fill="#FC008B"/>
<path d="M207.691 549.974C207.691 528.475 225.574 510.979 247.546 510.979C269.518 510.979 287.422 528.475 287.422 549.974C287.422 571.473 269.54 588.97 247.546 588.97C225.552 588.97 207.691 571.473 207.691 549.974ZM212.695 549.974C212.695 568.791 228.336 584.095 247.567 584.095C266.798 584.095 282.44 568.791 282.44 549.974C282.44 531.157 266.798 515.853 247.567 515.853C228.336 515.853 212.695 531.157 212.695 549.974Z" fill="#2D2861"/>
<path d="M211.043 549.975C211.043 530.265 227.424 514.236 247.569 514.236C267.714 514.236 284.095 530.265 284.095 549.975C284.095 569.686 267.714 585.714 247.569 585.714C227.424 585.714 211.043 569.686 211.043 549.975ZM212.914 549.975C212.914 568.664 228.447 583.883 247.569 583.883C266.669 583.883 282.224 568.685 282.224 549.975C282.224 531.286 266.691 516.067 247.569 516.067C228.468 516.067 212.914 531.286 212.914 549.975Z" fill="#7271B3"/>
<g opacity="0.57">
<path opacity="0.57" d="M216.637 549.974C216.637 533.286 230.516 519.706 247.572 519.706C264.627 519.706 278.507 533.286 278.507 549.974C278.507 566.663 264.627 580.243 247.572 580.243C230.516 580.243 216.637 566.663 216.637 549.974ZM217.877 549.974C217.877 566.003 231.191 579.03 247.572 579.03C263.953 579.03 277.267 566.003 277.267 549.974C277.267 533.946 263.953 520.919 247.572 520.919C231.191 520.919 217.877 533.946 217.877 549.974Z" fill="#F3FFFF"/>
</g>
<g opacity="0.57">
<path opacity="0.57" d="M247.568 576.432C262.492 576.432 274.609 564.555 274.609 549.974C274.609 545.717 273.609 541.651 271.629 537.883C271.477 537.585 271.107 537.458 270.781 537.628C270.476 537.777 270.345 538.139 270.519 538.458C272.412 542.055 273.369 545.929 273.369 549.995C273.369 563.916 261.796 575.24 247.568 575.24C243.827 575.24 240.215 574.474 236.843 572.962C236.539 572.813 236.169 572.962 236.017 573.26C235.864 573.558 236.017 573.92 236.321 574.069C239.867 575.644 243.653 576.432 247.568 576.432Z" fill="#F3FFFF"/>
</g>
<path d="M228.27 532.903C228.444 532.903 228.597 532.84 228.727 532.712C233.579 527.625 240.453 524.73 247.567 524.73C247.915 524.73 248.198 524.453 248.198 524.112C248.198 523.772 247.915 523.495 247.567 523.495C240.105 523.495 232.926 526.539 227.814 531.86C227.574 532.116 227.596 532.499 227.835 532.712C227.966 532.861 228.118 532.903 228.27 532.903Z" fill="#F3FFFF"/>
<path d="M219.705 519.557C220.14 519.557 220.553 519.408 220.901 519.131C228.341 512.979 237.804 509.573 247.572 509.573C255.817 509.573 263.758 511.936 270.567 516.406C271.415 516.96 272.59 516.747 273.156 515.917C273.721 515.087 273.504 513.937 272.655 513.384C265.237 508.509 256.557 505.934 247.572 505.934C236.934 505.934 226.601 509.637 218.486 516.342C217.703 517.002 217.594 518.152 218.269 518.918C218.639 519.344 219.161 519.557 219.705 519.557Z" fill="#FC008B"/>
<path d="M194.763 549.145C195.307 549.145 195.829 548.868 196.133 548.357L230.484 488.246C230.897 487.501 230.636 486.586 229.875 486.181C229.113 485.777 228.178 486.032 227.765 486.777L193.414 546.888C193.001 547.633 193.262 548.549 194.023 548.953C194.241 549.081 194.502 549.145 194.763 549.145Z" fill="#FC008B"/>
<path d="M191.807 552.124C249.652 551.145 248.107 552.251 248.934 550.676C249.521 549.569 251.11 552.975 220.958 502.124L155.542 490.31C154.541 490.14 153.649 490.906 153.714 491.906C153.758 492.673 153.17 491.395 191.807 552.124ZM158.457 493.928L219 504.869L244.888 548.484L193.547 549.059L158.457 493.928Z" fill="#FC008B"/>
<path d="M155.542 490.31L158.696 490.885L155.847 495.695C153.628 492.183 153.715 492.205 153.693 491.885C153.649 490.906 154.563 490.119 155.542 490.31Z" fill="#D6007E"/>
<path d="M227.743 486.756C228.157 486.011 229.114 485.755 229.854 486.16C230.615 486.564 230.876 487.501 230.463 488.225L228.505 491.63L225.285 491.013L227.743 486.756Z" fill="#D6007E"/>
<path d="M247.566 545.91C247.827 545.91 248.023 545.718 248.045 545.463C248.066 545.207 247.849 544.973 247.588 544.973L192.701 542.483C192.44 542.462 192.201 542.675 192.201 542.93C192.179 543.185 192.397 543.419 192.658 543.419L247.544 545.91H247.566Z" fill="#352E73"/>
<path d="M191.906 557.466H191.928L247.598 554.976C247.859 554.955 248.076 554.742 248.054 554.487C248.033 554.231 247.815 554.018 247.554 554.04L191.884 556.53C191.623 556.551 191.406 556.764 191.427 557.019C191.449 557.275 191.645 557.466 191.906 557.466Z" fill="#352E73"/>
<path d="M201.622 549.698C201.796 554.764 197.554 558.894 192.398 558.723C187.721 558.574 183.892 554.849 183.74 550.252C183.566 545.186 187.808 541.056 192.985 541.205C197.662 541.375 201.469 545.1 201.622 549.698Z" fill="#352E73"/>
<path d="M184.871 554.274L190.07 541.609C190.897 541.353 191.767 541.226 192.681 541.226C195.313 541.226 197.684 542.332 199.316 544.12C198.968 546.164 198.446 548.037 197.728 548.399C196.053 549.25 194.53 553.316 193.573 555.742C193.203 556.679 192.811 557.743 192.442 558.722C189.2 558.659 186.372 556.871 184.871 554.274Z" fill="#352E73"/>
<path d="M179.909 571.387C180.126 571.387 180.322 571.28 180.431 571.089L193.201 550.91C193.375 550.633 193.288 550.25 193.005 550.08C192.722 549.91 192.33 549.995 192.156 550.271L179.386 570.45C179.212 570.727 179.299 571.11 179.582 571.28C179.691 571.344 179.8 571.387 179.909 571.387Z" fill="black"/>
<path d="M179.386 573.473C179.995 573.516 180.539 573.111 180.67 572.494C180.8 571.834 180.387 571.196 179.713 571.047L166.16 568.279C165.485 568.152 164.833 568.556 164.68 569.216C164.55 569.876 164.963 570.514 165.637 570.663L179.191 573.409C179.278 573.452 179.343 573.473 179.386 573.473Z" fill="#352E73"/>
<path d="M237.696 484.605H225.557C224.665 484.605 223.926 485.329 223.926 486.202V488.118C223.926 488.99 224.665 489.714 225.557 489.714H240.894C242.091 489.714 242.917 488.479 242.374 487.436C241.503 485.755 239.741 484.605 237.696 484.605Z" fill="#352E73"/>
<path d="M247.567 556.488C251.243 556.488 254.224 553.572 254.224 549.974C254.224 546.377 251.243 543.461 247.567 543.461C243.89 543.461 240.91 546.377 240.91 549.974C240.91 553.572 243.89 556.488 247.567 556.488Z" fill="#352E73"/>
<path d="M253.247 549.612C253.464 552.975 250.636 555.742 247.199 555.529C244.371 555.359 242.065 553.102 241.891 550.335C241.673 546.972 244.501 544.205 247.938 544.418C250.767 544.588 253.073 546.844 253.247 549.612Z" fill="#ADEFF7"/>
<path d="M245.986 549.697C245.812 550.782 246.747 551.698 247.857 551.506C248.531 551.4 249.053 550.868 249.162 550.229C249.336 549.143 248.401 548.228 247.291 548.398C246.638 548.526 246.095 549.058 245.986 549.697Z" fill="#F3FFFF"/>
<g opacity="0.57">
<path opacity="0.57" d="M123.268 576.432C138.191 576.432 150.309 564.555 150.309 549.974C150.309 545.717 149.308 541.651 147.328 537.883C147.176 537.585 146.806 537.458 146.48 537.628C146.175 537.777 146.045 538.139 146.219 538.458C148.112 542.055 149.069 545.929 149.069 549.995C149.069 563.916 137.495 575.24 123.268 575.24C119.526 575.24 115.915 574.474 112.543 572.962C112.238 572.813 111.868 572.962 111.716 573.26C111.564 573.558 111.716 573.92 112.021 574.069C115.567 575.644 119.352 576.432 123.268 576.432Z" fill="#F3FFFF"/>
</g>
<path d="M83.4102 549.974C83.4102 528.475 101.292 510.979 123.286 510.979C145.258 510.979 163.162 528.475 163.162 549.974C163.162 571.473 145.28 588.97 123.286 588.97C101.292 588.97 83.4102 571.473 83.4102 549.974ZM88.3919 549.974C88.3919 568.791 104.033 584.095 123.265 584.095C142.496 584.095 158.137 568.791 158.137 549.974C158.137 531.157 142.496 515.853 123.265 515.853C104.033 515.853 88.3919 531.157 88.3919 549.974Z" fill="#2D2861"/>
<path d="M86.7344 549.974C86.7344 530.264 103.116 514.235 123.26 514.235C143.405 514.235 159.786 530.264 159.786 549.974C159.786 569.685 143.405 585.713 123.26 585.713C103.116 585.713 86.7344 569.685 86.7344 549.974ZM88.6053 549.974C88.6053 568.663 104.138 583.882 123.26 583.882C142.361 583.882 157.915 568.684 157.915 549.974C157.915 531.285 142.383 516.066 123.26 516.066C104.16 516.066 88.6053 531.285 88.6053 549.974Z" fill="#7271B3"/>
<g opacity="0.57">
<path opacity="0.57" d="M92.3281 549.974C92.3281 533.286 106.208 519.706 123.263 519.706C140.319 519.706 154.198 533.286 154.198 549.974C154.198 566.663 140.319 580.243 123.263 580.243C106.208 580.243 92.3281 566.663 92.3281 549.974ZM93.5681 549.974C93.5681 566.003 106.882 579.03 123.263 579.03C139.644 579.03 152.958 566.003 152.958 549.974C152.958 533.946 139.644 520.919 123.263 520.919C106.904 520.919 93.5681 533.946 93.5681 549.974Z" fill="#F3FFFF"/>
</g>
<path d="M122.613 551.508C123.157 551.508 123.7 551.231 123.983 550.72L165.904 476.029C166.296 475.305 166.513 474.496 166.513 473.687V468.855C166.513 467.897 167.166 467.429 167.449 467.28C167.732 467.131 168.471 466.812 169.32 467.301L176.629 471.58C177.369 472.006 178.326 471.771 178.761 471.048C179.196 470.324 178.957 469.387 178.217 468.962L170.908 464.683C169.363 463.768 167.492 463.747 165.904 464.619C164.338 465.492 163.381 467.067 163.381 468.834V473.687C163.381 473.985 163.294 474.283 163.141 474.56L121.199 549.23C120.785 549.975 121.068 550.891 121.808 551.295C122.091 551.444 122.352 551.508 122.613 551.508Z" fill="#FC008B"/>
<path d="M123.27 556.488C126.947 556.488 129.927 553.572 129.927 549.974C129.927 546.377 126.947 543.461 123.27 543.461C119.594 543.461 116.613 546.377 116.613 549.974C116.613 553.572 119.615 556.488 123.27 556.488Z" fill="#352E73"/>
<path d="M128.946 549.612C129.163 552.975 126.335 555.742 122.898 555.529C120.07 555.359 117.764 553.102 117.59 550.335C117.372 546.972 120.2 544.205 123.638 544.418C126.466 544.588 128.772 546.844 128.946 549.612Z" fill="#ADEFF7"/>
<path d="M121.677 549.697C121.503 550.782 122.439 551.698 123.548 551.506C124.222 551.4 124.745 550.868 124.853 550.229C125.027 549.143 124.092 548.228 122.982 548.398C122.33 548.526 121.786 549.058 121.677 549.697Z" fill="#F3FFFF"/>
<g filter="url(#filter1_d)">
<path d="M145.191 587.428H151.759V543.623C151.759 527.018 165.238 513.51 181.807 513.51C198.375 513.51 211.877 527.018 211.877 543.623V587.428H218.445V543.623C218.445 523.395 202.014 506.928 181.83 506.928C161.645 506.928 145.214 523.395 145.214 543.623V587.428H145.191Z" fill="white"/>
</g>
<g clip-path="url(#clip0)">
<path d="M101.006 444.698H97.2227V589.104C98.3868 589.997 99.26 589.997 101.006 589.104V444.698Z" fill="#0B0734"/>
<path d="M118.762 443.507C118.762 446.187 116.433 448.569 113.814 448.569H84.7095C82.0901 448.569 79.7617 446.187 79.7617 443.507V397.059C79.7617 394.379 82.0901 391.997 84.7095 391.997H113.814C116.433 391.997 118.762 394.379 118.762 397.059V443.507Z" fill="#3D4DAD"/>
<path d="M117.017 441.423C117.017 444.102 114.98 446.186 112.361 446.186H85.8755C83.2561 446.186 81.2188 444.102 81.2188 441.423V399.143C81.2188 396.463 83.2561 394.379 85.8755 394.379H112.361C114.98 394.379 117.017 396.463 117.017 399.143V441.423Z" fill="#747FE8"/>
<path d="M90.5273 435.17H96.6393V422.665H104.789C104.789 422.665 110.9 422.367 110.9 414.03C110.9 405.693 104.789 405.396 104.789 405.396H90.5273V435.17Z" fill="white"/>
<path d="M96.3516 410.158V416.709H103.337C103.337 416.709 104.792 415.518 104.792 413.433C104.792 411.349 103.337 410.158 103.337 410.158H96.3516Z" fill="#747FE8"/>
</g>
<defs>
<filter id="filter0_d" x="662.809" y="307.326" width="26.8125" height="26.8145" filterUnits="userSpaceOnUse" color-interpolation-filters="sRGB">
<feFlood flood-opacity="0" result="BackgroundImageFix"/>
<feColorMatrix in="SourceAlpha" type="matrix" values="0 0 0 0 0 0 0 0 0 0 0 0 0 0 0 0 0 0 127 0" result="hardAlpha"/>
<feOffset/>
<feGaussianBlur stdDeviation="5"/>
<feComposite in2="hardAlpha" operator="out"/>
<feColorMatrix type="matrix" values="0 0 0 0 1 0 0 0 0 1 0 0 0 0 1 0 0 0 1 0"/>
<feBlend mode="normal" in2="BackgroundImageFix" result="effect1_dropShadow"/>
<feBlend mode="normal" in="SourceGraphic" in2="effect1_dropShadow" result="shape"/>
</filter>
<filter id="filter1_d" x="141.191" y="502.928" width="81.2539" height="88.501" filterUnits="userSpaceOnUse" color-interpolation-filters="sRGB">
<feFlood flood-opacity="0" result="BackgroundImageFix"/>
<feColorMatrix in="SourceAlpha" type="matrix" values="0 0 0 0 0 0 0 0 0 0 0 0 0 0 0 0 0 0 127 0" result="hardAlpha"/>
<feOffset/>
<feGaussianBlur stdDeviation="2"/>
<feComposite in2="hardAlpha" operator="out"/>
<feColorMatrix type="matrix" values="0 0 0 0 0 0 0 0 0 0 0 0 0 0 0 0 0 0 0.25 0"/>
<feBlend mode="normal" in2="BackgroundImageFix" result="effect1_dropShadow"/>
<feBlend mode="normal" in="SourceGraphic" in2="effect1_dropShadow" result="shape"/>
</filter>
<linearGradient id="paint0_linear" x1="63.272" y1="360.765" x2="63.272" y2="349.315" gradientUnits="userSpaceOnUse">
<stop stop-color="#008EC2"/>
<stop offset="1" stop-color="#003BC2"/>
</linearGradient>
<radialGradient id="paint1_radial" cx="0" cy="0" r="1" gradientUnits="userSpaceOnUse" gradientTransform="translate(63.2728 354.763) scale(5.5906 5.57524)">
<stop stop-color="#FFBD00"/>
<stop offset="1" stop-color="#FF772C"/>
</radialGradient>
<linearGradient id="paint2_linear" x1="63.2725" y1="359.813" x2="63.2725" y2="349.317" gradientUnits="userSpaceOnUse">
<stop stop-color="#FFF300"/>
<stop offset="1" stop-color="#FF9700"/>
</linearGradient>
<linearGradient id="paint3_linear" x1="63.2726" y1="359.721" x2="63.2726" y2="349.232" gradientUnits="userSpaceOnUse">
<stop stop-color="#FFCC00"/>
<stop offset="1" stop-color="#FF9700"/>
</linearGradient>
<linearGradient id="paint4_linear" x1="57.5799" y1="351.668" x2="68.8425" y2="351.668" gradientUnits="userSpaceOnUse">
<stop stop-color="#FFD540"/>
<stop offset="0.822917" stop-color="#FBCC53"/>
</linearGradient>
<linearGradient id="paint5_linear" x1="674.053" y1="151.308" x2="674.053" y2="139.858" gradientUnits="userSpaceOnUse">
<stop stop-color="#008EC2"/>
<stop offset="1" stop-color="#003BC2"/>
</linearGradient>
<radialGradient id="paint6_radial" cx="0" cy="0" r="1" gradientUnits="userSpaceOnUse" gradientTransform="translate(674.054 145.306) scale(5.5906 5.57524)">
<stop stop-color="#FFBD00"/>
<stop offset="1" stop-color="#FF772C"/>
</radialGradient>
<linearGradient id="paint7_linear" x1="674.054" y1="150.356" x2="674.054" y2="139.86" gradientUnits="userSpaceOnUse">
<stop stop-color="#FFF300"/>
<stop offset="1" stop-color="#FF9700"/>
</linearGradient>
<linearGradient id="paint8_linear" x1="674.054" y1="150.264" x2="674.054" y2="139.775" gradientUnits="userSpaceOnUse">
<stop stop-color="#FFCC00"/>
<stop offset="1" stop-color="#FF9700"/>
</linearGradient>
<linearGradient id="paint9_linear" x1="668.361" y1="142.211" x2="679.624" y2="142.211" gradientUnits="userSpaceOnUse">
<stop stop-color="#FFD540"/>
<stop offset="0.822917" stop-color="#FBCC53"/>
</linearGradient>
<linearGradient id="paint10_linear" x1="668.039" y1="486.491" x2="668.039" y2="477.382" gradientUnits="userSpaceOnUse">
<stop stop-color="#008EC2"/>
<stop offset="1" stop-color="#003BC2"/>
</linearGradient>
<radialGradient id="paint11_radial" cx="0" cy="0" r="1" gradientUnits="userSpaceOnUse" gradientTransform="translate(668.043 481.715) scale(4.44736 4.43514)">
<stop stop-color="#FFBD00"/>
<stop offset="1" stop-color="#FF772C"/>
</radialGradient>
<linearGradient id="paint12_linear" x1="668.042" y1="485.732" x2="668.042" y2="477.383" gradientUnits="userSpaceOnUse">
<stop stop-color="#FFF300"/>
<stop offset="1" stop-color="#FF9700"/>
</linearGradient>
<linearGradient id="paint13_linear" x1="668.042" y1="485.66" x2="668.042" y2="477.316" gradientUnits="userSpaceOnUse">
<stop stop-color="#FFCC00"/>
<stop offset="1" stop-color="#FF9700"/>
</linearGradient>
<linearGradient id="paint14_linear" x1="663.511" y1="479.254" x2="672.47" y2="479.254" gradientUnits="userSpaceOnUse">
<stop stop-color="#FFD540"/>
<stop offset="0.822917" stop-color="#FBCC53"/>
</linearGradient>
<linearGradient id="paint15_linear" x1="0.406025" y1="337.952" x2="753.846" y2="337.952" gradientUnits="userSpaceOnUse">
<stop stop-color="#BCE3F1"/>
<stop offset="1" stop-color="#D0F7FF"/>
</linearGradient>
<clipPath id="clip0">
<rect width="39" height="198" fill="white" transform="translate(79.7617 391.997)"/>
</clipPath>
</defs>
</svg>
