<?xml version="1.0" encoding="UTF-8" standalone="no"?>
<svg
   width="1441"
   height="611"
   viewBox="0 0 1441 611"
   fill="none"
   version="1.1"
   id="svg51"
   sodipodi:docname="stage-1381624767.svg"
   inkscape:version="1.1 (c68e22c387, 2021-05-23)"
   xmlns:inkscape="http://www.inkscape.org/namespaces/inkscape"
   xmlns:sodipodi="http://sodipodi.sourceforge.net/DTD/sodipodi-0.dtd"
   xmlns="http://www.w3.org/2000/svg"
   xmlns:svg="http://www.w3.org/2000/svg">
  <sodipodi:namedview
     id="namedview53"
     pagecolor="#ffffff"
     bordercolor="#666666"
     borderopacity="1.0"
     inkscape:pageshadow="2"
     inkscape:pageopacity="0.0"
     inkscape:pagecheckerboard="0"
     showgrid="false"
     inkscape:snap-global="true"
     inkscape:snap-page="true"
     inkscape:snap-nodes="true"
     inkscape:snap-bbox="true"
     inkscape:zoom="0.7647467"
     inkscape:cx="993.7931"
     inkscape:cy="123.57033"
     inkscape:window-width="1857"
     inkscape:window-height="1057"
     inkscape:window-x="-8"
     inkscape:window-y="-8"
     inkscape:window-maximized="1"
     inkscape:current-layer="g2730" />
  <path
     d="M1064.56 528.322C1069.75 525.2 1075.79 526.728 1080.91 529.985C1085.06 519.074 1092.79 516.335 1092.33 516.58C1092.39 516.559 1093.92 515.888 1093.85 515.946C1097.55 514.35 1105.41 512.859 1112.5 513.38C1098.46 516.155 1087.88 519.313 1084.13 533.223C1084.12 533.26 1083.26 536.825 1083.26 536.825C1081.1 535.237 1073.37 527.814 1066.19 531.323C1060.81 534.055 1054.16 540.575 1049.87 544.882C1053.15 538.994 1058.8 531.912 1064.56 528.322Z"
     fill="#7271B3"
     id="path2" />
  <path
     d="M1269.91 25.1977C1273.82 22.8508 1278.36 23.9998 1282.21 26.4481C1285.33 18.2456 1291.14 16.1859 1290.8 16.3701C1290.84 16.3541 1291.99 15.8498 1291.93 15.8939C1294.71 14.6934 1300.63 13.5727 1305.96 13.9643C1295.4 16.0505 1287.45 18.4247 1284.63 28.8828C1284.62 28.9108 1283.97 31.5906 1283.97 31.5906C1282.35 30.3969 1276.54 24.8162 1271.14 27.4543C1267.1 29.5081 1262.1 34.4098 1258.87 37.6484C1261.34 33.2212 1265.59 27.8972 1269.91 25.1977Z"
     fill="#7271B3"
     id="path4" />
  <path
     d="M956.249 479.671C959.624 481.479 960.737 485.331 960.641 489.191C967.954 487.849 971.954 491.179 971.666 491.016C971.704 491.026 972.565 491.683 972.498 491.623C974.585 493.122 977.911 496.943 979.913 501.038C973.827 494.224 968.673 489.481 959.868 492.021C959.83 492.011 957.6 492.712 957.6 492.712C957.769 491.026 959.321 484.269 955.083 481.507C951.86 479.445 946.108 477.961 942.37 477.025C946.718 476.944 952.42 477.697 956.249 479.671Z"
     fill="#7271B3"
     id="path6" />
  <path
     d="M890.632 256.12L899.722 254.399C899.722 254.399 900.15 257.949 896.184 258.831C891.351 259.878 890.632 256.12 890.632 256.12Z"
     fill="white"
     id="path8" />
  <path
     d="M1210.55 204.15L1219.32 207.104C1219.32 207.104 1217.95 210.408 1214.07 209.233C1209.34 207.778 1210.55 204.15 1210.55 204.15Z"
     fill="white"
     id="path10" />
  <path
     d="M1406.69 172.812C1329.19 42.6931 1270.95 219.927 1157.66 104.109C881.889 15.6455 983.569 373.233 928.858 360.801C850.858 342.992 841.611 249.115 751.271 327.677C728.725 347.318 698.509 397.667 690.158 456.549C681.375 518.316 692.23 590.371 692.23 590.371L1410.15 609.7C1429.76 541.893 1468.27 276.16 1406.69 172.812Z"
     fill="url(#paint0_linear)"
     id="path12" />
  <path
     d="M22.4883 587.467H1416.99C1429.33 587.467 1439.31 594.24 1439.31 602.609V610.589H0.162109V602.609C0.162109 594.24 10.1486 587.467 22.4883 587.467Z"
     fill="#FEE2BF"
     id="path14" />
  <path
     opacity="0.22"
     d="M1453.86 411.823C1453.91 419.519 1453.97 427.16 1454.02 434.856C1356.08 433.283 1258.14 431.766 1160.2 430.193C1000.5 430.193 846.111 368.789 750.315 299.633C749.725 299.183 749.082 298.79 748.492 298.341C789.984 299.689 834.157 300.756 874.416 312.498C913.657 323.846 945.446 353.452 983.882 367.666C1079.73 403.171 1187 350.7 1286.6 372.048C1343.05 384.126 1396.82 419.8 1453.86 411.429C1453.86 411.542 1453.86 411.71 1453.86 411.823Z"
     fill="white"
     id="path16" />
  <path
     d="M993.22 165.316C996.342 163.952 1000.06 163.134 1004.04 163.095C1007.72 157.33 1016.27 153.474 1026 153.474C1031.84 153.474 1037.38 154.915 1041.65 157.369C1046.41 150.202 1057.3 145.177 1069.68 145.177C1077.82 145.177 1085.51 147.28 1091.2 151.059C1092.02 150.981 1092.84 150.942 1093.65 150.942C1102.5 150.942 1109.71 155.694 1109.71 161.537C1109.71 162.861 1109.34 164.147 1108.63 165.354H993.22V165.316Z"
     fill="white"
     id="path18" />
  <path
     d="M1266.48 334.071C1272.02 331.652 1278.62 330.201 1285.67 330.131C1292.2 319.903 1307.37 313.061 1324.65 313.061C1335 313.061 1344.83 315.618 1352.41 319.972C1360.85 307.256 1380.18 298.341 1402.14 298.341C1416.58 298.341 1430.23 302.073 1440.32 308.776C1441.77 308.638 1443.22 308.569 1444.67 308.569C1460.37 308.569 1473.16 317 1473.16 327.367C1473.16 329.717 1472.5 331.997 1471.25 334.14H1266.48V334.071Z"
     fill="white"
     id="path20" />
  <path
     d="M1109.75 118.728C1112.87 117.364 1116.59 116.546 1120.56 116.507C1124.24 110.742 1132.79 106.886 1142.53 106.886C1148.37 106.886 1153.91 108.327 1158.18 110.781C1162.94 103.614 1173.83 98.5889 1186.21 98.5889C1194.35 98.5889 1202.04 100.692 1207.73 104.471C1208.55 104.393 1209.36 104.354 1210.18 104.354C1219.03 104.354 1226.24 109.106 1226.24 114.949C1226.24 116.274 1225.87 117.559 1225.16 118.767H1109.75V118.728Z"
     fill="white"
     id="path22" />
  <path
     d="M1054.23 269.161C1053.01 269.083 1051.78 269.044 1050.55 269.044C1041.41 254.631 1020.04 245.01 995.802 245.01C981.231 245.01 967.441 248.594 956.774 254.709C944.916 236.83 917.708 224.287 886.894 224.287C866.637 224.287 847.42 229.584 833.184 238.933C831.139 238.738 829.095 238.622 827.013 238.622C804.934 238.622 787.019 250.502 787.019 265.071C787.019 265.11 787.019 265.149 787.019 265.188C787.056 270.407 791.182 274.575 796.125 274.575H1054.08C1057.39 274.536 1057.54 269.356 1054.23 269.161Z"
     fill="white"
     id="path24" />
  <path
     d="m 1351.36,569.173 c 7.68,-5.459 46.37,15.178 46.37,15.178 0,0 -23.85,-42.853 -14.8,-54.536 9.05,-11.635 22.07,9.002 22.07,9.002 0,0 -17.82,-34.426 1.78,-46.301 15.4,-9.336 29.52,15.897 32.53,21.499 v 96.574 h -93.75 c 0,-0.048 -1.92,-35.958 5.8,-41.416 z"
     fill="#238e3c"
     id="path26" />
  <path
     d="M1386.89 204.754C1381.5 206.04 1378.49 211.104 1377.15 216.713C1367.52 211.922 1360.68 215.155 1361.13 215.038C1361.09 215.038 1359.64 215.622 1359.72 215.583C1356.26 216.947 1350.17 221.115 1345.82 226.14C1356.82 218.778 1365.81 213.947 1377.08 221.037C1377.11 221.076 1379.94 222.946 1379.94 222.946C1380.35 220.453 1380.76 210.169 1387.67 207.832C1392.95 206.157 1401.46 206.235 1407 206.391C1401.16 204.56 1392.95 203.43 1386.89 204.754Z"
     fill="#7271B3"
     id="path28" />
  <path
     d="M979.946 459.375C974.556 460.66 971.545 465.724 970.207 471.333C960.58 466.542 953.741 469.775 954.187 469.658C954.15 469.658 952.7 470.242 952.775 470.204C949.318 471.567 943.222 475.735 938.873 480.76C949.875 473.398 958.87 468.568 970.133 475.657C970.17 475.696 972.995 477.566 972.995 477.566C973.404 475.073 973.813 464.789 980.726 462.452C986.004 460.777 994.516 460.855 1000.05 461.011C994.219 459.18 986.004 458.05 979.946 459.375Z"
     fill="#7271B3"
     id="path30" />
  <path
     d="M854.687 68.9454C857.92 69.7245 859.742 72.7629 860.522 76.1518C866.321 73.2692 870.447 75.2169 870.187 75.139C870.224 75.139 871.079 75.4896 871.041 75.4506C873.123 76.2686 876.803 78.7616 879.405 81.8C872.788 77.3593 867.362 74.4768 860.597 78.7227C860.56 78.7227 858.887 79.8523 858.887 79.8523C858.627 78.3332 858.404 72.1786 854.241 70.7762C851.007 69.7635 845.915 69.8414 842.569 69.9193C846.1 68.8286 851.044 68.1274 854.687 68.9454Z"
     fill="#7271B3"
     id="path32" />
  <path
     d="M1319.39 168.003C1316.19 164.731 1311.54 164.848 1307.34 166.367C1306.19 157.408 1301.06 153.941 1301.36 154.214C1301.32 154.214 1300.32 153.396 1300.39 153.474C1297.98 151.604 1292.59 149.111 1287.42 148.254C1297.05 152.812 1304.15 157.097 1304.52 168.237C1304.52 168.276 1304.56 171.12 1304.56 171.12C1306.38 170.302 1313.18 166.056 1317.75 169.951C1321.17 172.95 1324.89 179.066 1327.23 183.078C1325.82 178.053 1322.92 171.704 1319.39 168.003Z"
     fill="#7271B3"
     id="path34" />
  <path
     d="M830.221 435.334C827.024 432.062 822.378 432.179 818.178 433.698C817.026 424.739 811.896 421.272 812.194 421.545C812.156 421.545 811.153 420.727 811.227 420.804C808.811 418.935 803.421 416.442 798.255 415.585C807.882 420.142 814.981 424.427 815.353 435.568C815.353 435.607 815.39 438.45 815.39 438.45C817.211 437.632 824.014 433.386 828.585 437.282C832.005 440.281 835.722 446.397 838.064 450.409C836.651 445.384 833.752 439.035 830.221 435.334Z"
     fill="#7271B3"
     id="path36" />
  <path
     d="M803.57 188.606C799.073 191.995 798.18 197.877 799.073 203.603C788.405 203.136 783.312 208.901 783.684 208.589C783.647 208.628 782.532 209.719 782.606 209.68C779.93 212.329 775.841 218.678 773.723 225.105C781.119 213.809 787.587 205.707 800.634 207.654C800.671 207.654 803.979 208.238 803.979 208.238C803.421 205.745 799.965 196.163 805.503 191.177C809.74 187.476 817.62 184.087 822.787 181.945C816.654 182.607 808.662 184.906 803.57 188.606Z"
     fill="#7271B3"
     id="path38" />
  <path
     d="M490.842 399.512C485.265 400.293 481.631 405.003 479.632 410.443C470.531 404.857 463.281 407.427 463.757 407.335C463.706 407.351 462.202 407.763 462.286 407.765C458.66 408.783 452.004 412.35 447.033 416.942C458.982 410.654 468.569 406.708 479.031 414.742C479.064 414.76 481.673 416.876 481.673 416.876C482.395 414.426 484.022 404.37 491.284 402.698C496.785 401.518 505.32 402.379 510.877 403.013C505.193 400.616 497.09 398.747 490.842 399.512Z"
     fill="#7271B3"
     id="path40" />
  <path
     d="M916.297 134.765C912.134 133.09 907.897 135.037 904.589 138.192C900.166 130.402 894.181 129.311 894.553 129.428C894.516 129.428 893.289 129.116 893.363 129.116C890.464 128.376 884.554 128.298 879.462 129.623C890.055 129.895 898.158 130.908 902.656 141.036C902.656 141.075 903.771 143.685 903.771 143.685C905.146 142.205 909.83 135.505 915.48 137.219C919.754 138.582 925.441 142.711 929.084 145.438C925.961 141.426 920.906 136.751 916.297 134.765Z"
     fill="#7271B3"
     id="path42" />
  <defs
     id="defs49">
    <linearGradient
       id="paint0_linear"
       x1="686.72"
       y1="337.99"
       x2="1440.16"
       y2="337.99"
       gradientUnits="userSpaceOnUse">
      <stop
         stop-color="#BCE3F1"
         id="stop44" />
      <stop
         offset="1"
         stop-color="#D0F7FF"
         id="stop46" />
    </linearGradient>
  </defs>
  <path
     d="m 2478.8272,120.9388 c 3.907,-2.3469 8.447,-1.1979 12.298,1.2505 3.116,-8.2025 8.932,-10.2622 8.587,-10.078 0.04,-0.016 1.19,-0.5203 1.137,-0.4762 2.782,-1.2006 8.695,-2.3212 14.027,-1.9297 -10.561,2.0862 -18.512,4.4605 -21.329,14.9185 -0.012,0.0281 -0.66,2.7079 -0.66,2.7079 -1.622,-1.1937 -7.429,-6.7744 -12.827,-4.1363 -4.047,2.0537 -9.049,6.9555 -12.27,10.194 2.464,-4.4272 6.713,-9.7512 11.037,-12.4507 z"
     fill="#7271b3"
     id="path2289" />
  <path
     d="m 1894.7612,683.2085 h 741.594 c 6.562,0 11.873,6.773 11.873,15.142 v 7.98 h -765.34 v -7.98 c 0,-8.369 5.31,-15.142 11.873,-15.142 z"
     fill="#fee2bf"
     id="path2295" />
  <path
     d="m 2318.6642,214.4685 c 3.122,-1.363 6.839,-2.181 10.816,-2.22 3.68,-5.765 12.229,-9.622 21.968,-9.622 5.835,0 11.374,1.442 15.648,3.896 4.758,-7.168 15.649,-12.1925 28.026,-12.1925 8.141,0 15.835,2.1035 21.522,5.8815 0.818,-0.078 1.635,-0.116 2.453,-0.116 8.846,0 16.057,4.752 16.057,10.595 0,1.324 -0.371,2.61 -1.078,3.817 h -115.412 z"
     fill="#ffffff"
     id="path2299" />
  <path
     d="m 2608.8242,434.7165 c -1.227,-0.078 -2.453,-0.117 -3.68,-0.117 -9.144,-14.413 -30.517,-24.034 -54.751,-24.034 -14.571,0 -28.361,3.584 -39.029,9.699 -11.857,-17.879 -39.065,-30.422 -69.879,-30.422 -20.258,0 -39.475,5.297 -53.711,14.646 -2.044,-0.195 -4.088,-0.311 -6.17,-0.311 -22.079,0 -39.995,11.88 -39.995,26.449 0,0.039 0,0.078 0,0.117 0.038,5.219 4.163,9.387 9.107,9.387 h 257.959 c 3.308,-0.039 3.457,-5.219 0.149,-5.414 z"
     fill="#ffffff"
     id="path2301" />
  <path
     d="m 2572.4242,672.5405 c 6.244,-4.441 37.727,12.348 37.727,12.348 0,0 -19.402,-34.863 -12.043,-44.368 7.36,-9.465 17.954,7.323 17.954,7.323 0,0 -14.497,-28.007 1.449,-37.667 12.526,-7.596 24.012,12.932 26.465,17.49 v 78.568 h -76.273 c 0,-0.039 -1.561,-29.254 4.721,-33.694 z"
     fill="#238e3c"
     id="path2303" />
  <path
     d="m 2595.8052,300.4955 c -5.39,1.286 -8.4,6.349 -9.739,11.959 -9.627,-4.792 -16.466,-1.558 -16.02,-1.675 -0.037,0 -1.486,0.584 -1.412,0.545 -3.457,1.363 -9.553,5.531 -13.902,10.556 11.003,-7.362 19.998,-12.192 31.26,-5.103 0.037,0.039 2.862,1.909 2.862,1.909 0.409,-2.493 0.818,-12.776 7.732,-15.114 5.278,-1.675 13.79,-1.597 19.328,-1.441 -5.836,-1.831 -14.05,-2.96 -20.109,-1.636 z"
     fill="#7271b3"
     id="path2305" />
  <path
     d="m 2033.1492,487.5135 c 3.457,0.818 5.39,4.09 6.245,7.674 6.207,-3.077 10.593,-1.013 10.296,-1.091 0.037,0 0.966,0.39 0.892,0.351 2.23,0.857 6.133,3.545 8.921,6.817 -7.1,-4.753 -12.861,-7.83 -20.109,-3.272 -0.038,0 -1.859,1.207 -1.859,1.207 -0.26,-1.597 -0.52,-8.219 -4.981,-9.699 -3.382,-1.091 -8.883,-1.013 -12.452,-0.935 3.866,-1.169 9.144,-1.909 13.047,-1.052 z"
     fill="#7271b3"
     id="path2307" />
  <path
     d="m 2063.6042,164.6867 c 3.233,0.779 5.055,3.8174 5.835,7.2063 5.799,-2.8825 9.925,-0.9349 9.665,-1.0128 0.037,0 0.892,0.3506 0.854,0.3116 2.082,0.8181 5.762,3.3111 8.364,6.3494 -6.617,-4.4407 -12.043,-7.3232 -18.808,-3.0773 -0.037,0 -1.71,1.1296 -1.71,1.1296 -0.26,-1.5191 -0.483,-7.6737 -4.646,-9.076 -3.234,-1.0128 -8.326,-0.9349 -11.672,-0.857 3.531,-1.0907 8.475,-1.7919 12.118,-0.9738 z"
     fill="#7271b3"
     id="path2309" />
  <path
     d="m 2528.3022,263.7445 c -3.197,-3.272 -7.843,-3.155 -12.043,-1.636 -1.152,-8.959 -6.282,-12.426 -5.984,-12.153 -0.038,0 -1.041,-0.818 -0.967,-0.741 -2.416,-1.869 -7.805,-4.362 -12.972,-5.219 9.627,4.557 16.726,8.842 17.098,19.983 0,0.039 0.037,2.882 0.037,2.882 1.821,-0.818 8.624,-5.064 13.195,-1.168 3.42,2.999 7.137,9.115 9.479,13.127 -1.413,-5.025 -4.312,-11.374 -7.843,-15.075 z"
     fill="#7271b3"
     id="path2311" />
  <path
     d="m 2012.4872,284.3475 c -4.498,3.389 -5.39,9.271 -4.498,14.997 -10.667,-0.468 -15.76,5.297 -15.388,4.986 -0.037,0.039 -1.152,1.129 -1.078,1.09 -2.676,2.649 -6.765,8.999 -8.883,15.426 7.396,-11.297 13.864,-19.399 26.911,-17.451 0.037,0 3.345,0.584 3.345,0.584 -0.558,-2.493 -4.014,-12.075 1.524,-17.061 4.237,-3.701 12.117,-7.09 17.284,-9.232 -6.133,0.662 -14.125,2.96 -19.217,6.661 z"
     fill="#7271b3"
     id="path2313" />
  <path
     d="m 1825.806,497.0185 c -5.577,0.781 -9.2113,5.491 -11.2099,10.931 -9.1008,-5.586 -16.3508,-3.016 -15.8746,-3.108 -0.051,0.016 -1.5557,0.429 -1.4718,0.431 -3.6254,1.017 -10.2815,4.585 -15.2529,9.176 11.9492,-6.287 21.536,-10.233 31.9985,-2.2 0.033,0.019 2.6414,2.135 2.6414,2.135 0.7223,-2.451 2.3497,-12.507 9.6118,-14.179 5.5007,-1.179 14.0353,-0.319 19.5924,0.315 -5.6839,-2.397 -13.7866,-4.265 -20.0349,-3.501 z"
     fill="#7271b3"
     id="path2315" />
  <path
     d="m 2125.2142,230.5055 c -4.163,-1.675 -8.4,0.273 -11.708,3.428 -4.423,-7.791 -10.408,-8.881 -10.036,-8.764 -0.037,0 -1.264,-0.312 -1.19,-0.312 -2.899,-0.74 -8.809,-0.818 -13.901,0.506 10.593,0.273 18.696,1.286 23.194,11.414 0,0.039 1.115,2.648 1.115,2.648 1.375,-1.48 6.059,-8.18 11.709,-6.466 4.274,1.364 9.961,5.493 13.604,8.219 -3.123,-4.012 -8.178,-8.686 -12.787,-10.673 z"
     fill="#7271b3"
     id="path2317" />
  <g
     id="g2730"
     transform="matrix(0.86909037,0,0,0.86909037,-512.11439,694.28324)"
     style="stroke-width:1.15063">
    <path
       d="m 1801.4113,-445.78823 9.09,-1.721 c 0,0 0.428,3.55 -3.538,4.431 -4.833,1.048 -5.552,-2.71 -5.552,-2.71 z"
       fill="#ffffff"
       id="path2291"
       style="stroke-width:1.32395" />
    <path
       d="m 2121.3323,-497.75923 8.768,2.955 c 0,0 -1.368,3.304 -5.257,2.129 -4.726,-1.456 -3.511,-5.084 -3.511,-5.084 z"
       fill="#ffffff"
       id="path2293"
       style="stroke-width:1.32395" />
    <path
       fill-rule="evenodd"
       clip-rule="evenodd"
       d="m 1935.6773,-364.14223 31.651,24.206 1.012,0.682 c 1.586,0.625 3.137,1.309 4.215,1.952 1.65,0.84 3.164,1.347 4.556,1.692 1.731,0.49 5.009,1.885 5.705,2.401 0.814,0.622 2.398,1.983 3.339,2.823 0.371,0.331 0.777,0.669 1.162,0.989 0.59,0.491 1.131,0.942 1.422,1.265 0.298,0.319 1.094,0.713 1.713,0.949 0.904,0.385 0.903,1.703 0.01,2.063 -0.844,0.355 -2.083,-0.117 -2.82,-0.459 -1.219,-0.487 -2.623,-1.516 -3.622,-2.248 -0.757,-0.555 -1.281,-0.939 -1.316,-0.788 -0.065,0.282 1.836,3.953 2.755,5.729 0.226,0.435 0.392,0.756 0.456,0.886 0.042,0.085 0.135,0.268 0.266,0.526 0.89,1.746 3.525,6.921 3.772,8.199 0.287,1.524 -0.552,1.936 -1.249,1.42 -0.579,-0.411 -6.034,-9.136 -6.034,-9.136 0,0 -0.689,-1.09 -0.855,-0.446 -0.101,0.441 1.804,3.743 3.364,6.445 0.917,1.588 1.714,2.968 1.914,3.44 0.544,1.331 0.307,2.439 -0.922,2.081 -1.51,-0.451 -6.261,-9.232 -6.261,-9.232 0,0 -0.634,-1.095 -0.927,-0.67 -0.198,0.245 1.113,2.503 2.3,4.549 0.898,1.547 1.725,2.972 1.776,3.314 0.119,0.792 -0.52,1.647 -1.551,1.043 -1.257,-0.7 -5.442,-8.554 -5.442,-8.554 0,0 -0.475,-0.477 -0.61,-0.122 -0.056,0.176 0.518,1.356 1.182,2.724 0.891,1.833 1.945,4.003 1.863,4.535 -0.102,0.753 -0.762,0.692 -0.762,0.692 -0.98,0.152 -2.299,-2.266 -3.627,-4.7 -0.787,-1.443 -1.577,-2.892 -2.302,-3.814 -0.829,-1.055 -1.489,-2.341 -2.176,-3.68 -0.215,-0.419 -0.433,-0.844 -0.659,-1.268 l -3.508,-4.513 c -0.997,-0.88 -2.431,-2.675 -3.827,-4.453 l -40.883,-21.123 -8.041,-44.807 c 2.697,-0.715 5.263,-2.154 7.831,-3.593 2.515,-1.41 5.031,-2.82 7.673,-3.553 4.245,20.022 7.462,42.554 7.462,42.554 z"
       fill="#ffa97a"
       id="path2319"
       style="stroke-width:1.32395" />
    <path
       d="m 1918.9503,-478.60523 c 0.386,-10.107 -1.094,-20.086 -5.533,-29.485 -3.86,-8.111 -13.445,-12.682 -22.194,-12.682 -27.727,-0.065 -31.266,36.824 -48.957,50.987 -5.404,4.313 -11.451,7.854 -16.533,12.553 -18.85,17.318 -10.358,49.313 6.948,64.442 12.03,10.493 30.879,16.48 45.675,8.24 7.72,-4.313 13.574,-11.395 17.756,-19.249 5.918,-11.072 9.778,-23.884 13.96,-35.729 4.567,-12.554 8.363,-25.622 8.878,-39.077 z"
       fill="#2d2861"
       id="path2321"
       style="stroke-width:1.32395" />
    <path
       d="m 1923.5173,-429.67823 c -8.684,-26.331 -20.071,-25.88 -20.071,-25.88 l 9.264,56.008 c 5.339,-1.48 12.287,-4.699 17.691,-6.244 -1.866,-8.305 -4.761,-17.382 -6.884,-23.884 z"
       fill="#f7cc7f"
       id="path2323"
       style="stroke-width:1.32395" />
    <path
       d="m 1832.2963,-153.17723 c 0,0 -1.93,13.584 -5.34,17.961 -1.158,1.481 -3.216,3.348 -4.567,5.987 -2.123,4.121 -0.965,10.301 0.643,13.713 0.772,1.738 -0.064,1.738 1.737,2.317 5.404,1.674 11.129,-1.158 13.381,-6.309 1.287,-2.897 2.38,-6.759 2.638,-11.587 0.579,-12.361 4.374,-18.606 4.374,-18.606 z"
       fill="#f7a491"
       id="path2325"
       style="stroke-width:1.32395" />
    <path
       d="m 1891.0913,-146.99723 c 0,0 1.223,15.322 0.258,20.344 -0.515,2.639 -3.474,8.176 -2.123,10.686 1.351,2.511 2.895,3.155 2.895,3.155 l 34.739,0.579 c 1.865,0 0.643,-1.159 -0.901,-2.317 -2.509,-1.867 -4.503,-3.091 -12.48,-6.953 -0.515,-0.258 -2.445,-1.481 -3.088,-1.867 -1.737,-1.03 -3.474,-2.704 -4.954,-4.378 -2.509,-2.768 -2.702,-16.288 -2.702,-16.288 z"
       fill="#f7a491"
       id="path2327"
       style="stroke-width:1.32395" />
    <path
       d="m 1918.2423,-350.75123 c 0,0 4.375,24.914 1.48,41.201 -2.895,16.288 -16.662,167.575 -16.662,167.575 l -15.311,0.837 c 0,0 -3.217,-63.219 -2.638,-71.974 0.579,-8.82 5.147,-23.498 5.147,-23.498 l -1.544,-50.987 19.3,-67.017 z"
       fill="#352e73"
       id="path2329"
       style="stroke-width:1.32395" />
    <path
       d="m 1873.2093,-355.96623 c 0,0 -12.03,18.219 -14.925,33.283 -2.895,15.065 2.123,61.352 -3.41,81.116 -2.959,10.686 -14.346,27.167 -16.018,41.008 -1.737,13.841 -8.492,49.957 -8.492,49.957 l 15.311,3.026 35.575,-90.322 27.92,-81.63 7.141,-42.039 z"
       fill="#2d2861"
       id="path2331"
       style="stroke-width:1.32395" />
    <path
       d="m 1882.9893,-459.55023 c 0,0 -15.61,0 -23.515,4.958 -6.304,6.888 15.281,62.446 16.439,71.201 1.158,8.755 -5.854,32.125 -5.854,32.125 0,0 37.505,7.596 48.248,0.45 0,0 1.158,-63.219 0,-69.463 -1.158,-6.309 -10.743,-31.803 -12.995,-34.313 -2.38,-2.447 -22.323,-4.958 -22.323,-4.958 z"
       fill="#f4cc1a"
       id="path2333"
       style="stroke-width:1.32395" />
    <path
       d="m 1888.2653,-480.98723 c 0,0 -0.064,0.451 -0.257,1.288 -0.708,3.862 -3.474,16.609 -5.276,20.15 -2.251,4.249 7.656,17.768 17.177,16.094 2.831,-0.515 -2.38,-12.425 -2.123,-13.712 0.45,-2.447 1.158,-5.73 1.801,-9.142 0.386,-1.931 0.772,-3.862 1.094,-5.665 1.029,-5.15 1.866,-9.399 1.866,-9.399 z"
       fill="#ffa97a"
       id="path2335"
       style="stroke-width:1.32395" />
    <path
       d="m 1888.0713,-479.69923 c 0.129,-0.773 0.258,-1.288 0.258,-1.288 l 14.281,-0.386 c 0,0 -0.836,4.249 -1.865,9.399 -0.386,1.802 -0.708,3.734 -1.094,5.665 -2.187,-0.322 -4.503,-1.416 -6.819,-3.412 -2.509,-2.189 -4.182,-4.893 -5.147,-7.725 0.129,-0.837 0.258,-1.61 0.386,-2.253 z"
       fill="#f47458"
       id="path2337"
       style="stroke-width:1.32395" />
    <path
       d="m 1897.9143,-513.49723 c 0,0 -6.755,-0.773 -10.937,4.699 -4.246,5.472 -8.749,22.403 1.737,31.609 10.486,9.206 20.844,-1.223 22.388,-12.231 1.479,-11.073 2.058,-24.464 -13.188,-24.077 z"
       fill="#ffa97a"
       id="path2339"
       style="stroke-width:1.32395" />
    <path
       d="m 1914.1263,-489.61323 c -1.223,2.446 -3.346,3.798 -4.697,3.025 -1.351,-0.772 -1.415,-3.347 -0.128,-5.794 1.222,-2.446 3.345,-3.798 4.696,-3.025 1.351,0.708 1.415,3.347 0.129,5.794 z"
       fill="#f7a491"
       id="path2341"
       style="stroke-width:1.32395" />
    <path
       d="m 1898.6853,-515.30023 c 0,0 -9.006,16.094 -15.439,16.867 -6.433,0.772 -7.27,9.27 -7.27,9.27 0,0 2.316,-19.699 8.685,-23.498 6.305,-3.798 14.024,-2.639 14.024,-2.639 z"
       fill="#13375b"
       id="path2343"
       style="stroke-width:1.32395" />
    <path
       d="m 1839.1793,-122.21123 c -8.363,1.545 -13.896,-3.348 -16.791,-7.018 -2.123,4.121 -3.152,10.365 -1.608,13.777 1.351,3.026 5.404,2.898 8.556,3.026 3.345,0.129 5.918,-1.738 7.591,-4.635 0.836,-1.416 1.608,-3.09 2.252,-5.15 z"
       fill="#8cd334"
       id="path2345"
       style="stroke-width:1.32395" />
    <path
       d="m 1910.3293,-123.43423 c -9.2,2.382 -15.954,0.772 -19.75,-0.773 -0.965,2.768 -2.252,6.245 -1.608,8.305 0.836,2.446 2.058,3.026 3.088,3.026 8.363,0.193 30.75,0.515 37.119,0.579 0.901,0 1.415,-1.03 0.836,-1.738 -1.608,-1.803 -18.978,-8.949 -19.685,-9.399 z"
       fill="#8cd334"
       id="path2347"
       style="stroke-width:1.32395" />
    <path
       d="m 1884.9183,-494.44223 c 0.515,2.833 -0.515,5.472 -2.38,5.858 -1.801,0.387 -3.731,-1.609 -4.246,-4.506 -0.515,-2.832 0.515,-5.472 2.38,-5.858 1.802,-0.386 3.731,1.674 4.246,4.506 z"
       fill="#f7a491"
       id="path2349"
       style="stroke-width:1.32395" />
    <path
       d="m 1895.4053,-484.52823 c 1.034,-3.643 8.326,-0.883 8.106,0.386 -0.22,1.269 -0.322,3.09 -3.924,3.026 -4.31,-0.129 -5.215,0.23 -4.182,-3.412 z"
       fill="#ffffff"
       id="path2351"
       style="stroke-width:1.32395" />
    <path
       fill-rule="evenodd"
       clip-rule="evenodd"
       d="m 1873.7963,-415.14523 c 0.451,1.047 0.997,2.176 1.547,3.314 0.818,1.691 1.644,3.4 2.178,4.878 7.762,-1.955 27.737,-13.029 33.633,-16.298 0.897,-0.497 1.468,-0.814 1.621,-0.891 0.495,-0.234 1.594,-3.273 2.84,-6.722 1.828,-5.059 3.976,-11.001 5.008,-10.273 0.833,0.586 0.232,2.738 -0.378,4.928 -0.664,2.38 -1.34,4.805 -0.201,5.308 1.072,0.455 6.342,-1.945 11.314,-4.21 4.876,-2.221 9.466,-4.312 9.53,-3.451 0.113,1.888 -3.76,3.888 -6.915,5.517 -2.223,1.147 -4.09,2.111 -3.957,2.723 0.138,0.609 2.308,-0.233 4.846,-1.218 3.366,-1.306 7.379,-2.863 8.149,-1.615 0.81,1.313 -3.356,2.835 -6.876,4.12 -2.348,0.858 -4.408,1.61 -4.511,2.125 -0.103,0.492 1.813,0.443 4.095,0.383 3.39,-0.088 7.586,-0.196 7.163,1.42 -0.183,0.702 -2.649,1.1 -5.146,1.503 -2.77,0.447 -5.577,0.9 -5.34,1.78 0.213,0.79 2.099,1.493 3.973,2.192 2.099,0.782 4.182,1.559 3.876,2.443 -0.267,0.77 -1.675,0.383 -3.513,-0.123 -2.16,-0.593 -4.913,-1.35 -7.102,-0.585 -1.375,0.444 -2.673,0.59 -4.015,0.74 -2.742,0.307 -5.671,0.635 -9.816,3.573 -1.012,0.714 -2.697,2.009 -4.843,3.658 -10.821,8.315 -33.34,25.617 -39.997,22.609 -2.637,-1.159 -7.977,-11.46 -11.708,-20.859 0.01,-0.005 0.017,-0.011 0.025,-0.016 -3.441,-8.214 -9.179,-24.366 -7.041,-36.526 0.934,-8.609 8.237,-12.894 13.792,-9.878 4.973,2.645 7.33,33.106 7.769,39.451 z"
       fill="#ffa97a"
       id="path2353"
       style="stroke-width:1.32395" />
    <path
       d="m 2120.1003,-139.07423 -13.721,2.025 c 0,0 -2.828,-12.6 -6.371,-29.337 6,-0.235 12.058,-0.026 18.172,0.118 0.912,15.767 1.92,27.194 1.92,27.194 z"
       fill="#ff8a63"
       id="path2355"
       style="stroke-width:1.32395" />
    <path
       d="m 2107.5183,-143.22023 c 0,0 4.683,5.796 6.494,5.057 1.846,-0.754 3.416,-6.761 5.654,-5.758 2.238,1.002 8.806,15.099 7.87,17.483 -0.937,2.384 -1.431,5.95 -3.312,6.718 -1.881,0.768 -38.556,7.481 -44.197,7.101 -5.641,-0.379 -6.427,-8.575 -0.238,-10.038 6.219,-1.389 17.963,-26.966 27.729,-20.563 z"
       fill="#352e73"
       id="path2357"
       style="stroke-width:1.32395" />
    <path
       d="m 2118.2853,-129.09123 c 3.08,-0.917 6.119,-1.136 8.731,-1.01 0.531,1.699 0.873,3.731 0.833,4.429 -0.111,3.112 -1.714,5.257 -3.595,6.025 -1.881,0.768 -38.556,7.481 -44.197,7.101 -3.049,-0.203 -4.689,-2.727 -4.564,-5.206 1.02,0.308 2.353,0.488 3.955,0.43 5.646,-0.304 30.001,-9.226 38.837,-11.769 z"
       fill="#f3ffff"
       id="path2359"
       style="stroke-width:1.32395" />
    <path
       d="m 2075.2813,-132.53123 -13.822,-1.15 c 0,0 0.112,-12.913 0.47,-30.017 5.896,1.135 11.748,2.717 17.669,4.249 -2.7,15.561 -4.317,26.918 -4.317,26.918 z"
       fill="#ff8a63"
       id="path2361"
       style="stroke-width:1.32395" />
    <path
       d="m 2063.9723,-139.43123 c 0,0 3.241,6.709 5.173,6.401 1.969,-0.314 4.865,-5.806 6.816,-4.321 1.951,1.486 5.14,16.707 3.686,18.815 -1.454,2.109 -2.747,5.469 -4.753,5.789 -2.006,0.32 -39.247,-1.487 -44.654,-3.14 -5.407,-1.653 -4.308,-9.813 2.052,-9.829 6.372,0.062 23.626,-22.172 31.68,-13.715 z"
       fill="#352e73"
       id="path2363"
       style="stroke-width:1.32395" />
    <path
       d="m 2071.2423,-123.22423 c 3.208,-0.192 6.217,0.286 8.732,1.003 0.13,1.776 0,3.833 -0.197,4.503 -0.816,3.005 -2.865,4.729 -4.871,5.049 -2.006,0.319 -39.247,-1.487 -44.653,-3.14 -2.924,-0.891 -3.946,-3.722 -3.26,-6.107 0.923,0.531 2.18,1.01 3.753,1.318 5.567,0.988 31.313,-2.159 40.496,-2.626 z"
       fill="#f3ffff"
       id="path2365"
       style="stroke-width:1.32395" />
    <path
       d="m 1966.6243,-378.74023 c 6.76,-0.25 6.62,0.904 7.472,0.793 1.044,-0.087 11.655,-8.436 11.655,-8.436 0,0 31.462,-24.408 33.115,-25.807 l 18.786,-36.961 21.272,5.052 c 0,0 -21.503,39.577 -22.998,41.444 -1.495,1.867 -48.076,29.664 -52.114,32.236 0,0 -3.561,4.914 -5.94,7.961 -2.332,2.976 -5.964,4.778 -6.754,5.501 -0.108,0.084 -2.946,2.413 -7.19,4.276 -3.669,1.622 -1.015,-1.607 -1.015,-1.607 0,0 6.194,-4.261 5.736,-4.668 -0.325,-0.371 -3.559,2.162 -7.623,3.99 -1.031,0.459 -2.063,0.919 -2.974,1.355 -2.47,1.065 -3.903,-0.144 -1.543,-1.75 0.827,-0.543 2.265,-1.461 3.356,-1.933 1.211,-0.496 2.097,-1.364 3.031,-1.992 1.881,-1.196 3.211,-2.029 3.139,-2.077 -0.144,-0.096 0.07,-0.577 -1.021,-0.105 -1.319,0.581 -3.894,2.356 -5.946,3.023 -1.175,0.364 -3.55,1.285 -3.55,1.285 0,0 -4.234,1.299 -4.416,0.711 -0.329,-1.309 2.152,-2.626 3.844,-2.908 0.911,-0.748 3.477,-1.645 3.477,-1.645 0,0 4.637,-3.007 4.178,-3.727 -0.181,-0.275 -3.143,0.827 -6.346,1.667 -3.372,0.936 -5.832,1.436 -6.146,0.812 -0.52,-1.02 2.167,-1.941 2.167,-1.941 0,0 2.327,-0.849 3.07,-1.188 0.863,-0.363 3.38,-1.813 3.38,-1.813 0,0 8.544,-5.302 8.11,-5.901 -0.495,-0.587 -2.288,-1.723 -2.948,-1.589 -0.66,0.134 -1.666,1.027 -2.326,1.161 -0.66,0.134 -2.064,0.295 -2.355,-0.521 -0.291,-0.817 3.027,-3.242 3.027,-3.242 0,0 2.409,-1.366 4.39,-1.456 z"
       fill="#ff8a63"
       id="path2367"
       style="stroke-width:1.32395" />
    <path
       d="m 2024.1023,-425.76023 c 0,0 7.46,4.423 10.491,5.807 2.477,1.122 14.135,4.065 14.135,4.065 0,0 7.263,-18.36 10.234,-27.406 3.576,-10.982 4.496,-26.425 3.091,-26.577 -3.953,-0.384 -9.187,-0.007 -13.487,3.119 -14.841,10.897 -24.464,40.992 -24.464,40.992 z"
       fill="#d6007e"
       id="path2369"
       style="stroke-width:1.32395" />
    <path
       d="m 1974.4663,-371.51923 c -2.735,0.994 -5.725,1.039 -7.438,-1.238 0.323,3.123 5.248,3.684 7.438,1.238 z"
       fill="#fe875e"
       id="path2371"
       style="stroke-width:1.32395" />
    <path
       d="m 2111.0143,-354.09123 c 0,0 4.102,21.323 2.449,37.499 -1.653,16.175 -1.837,73.649 -1.837,73.649 l 7.715,91.908 -16.532,0.367 c 0,0 -18.001,-91.908 -17.695,-89.518 0.306,2.389 -6.062,-64.703 -6.062,-64.703 l 21.492,-51.224 z"
       fill="#2ba14c"
       id="path2373"
       style="stroke-width:1.32395" />
    <path
       d="m 2105.2553,-367.87723 c 0,0 18.675,19.668 11.695,41.175 -2.817,8.639 -28.778,91.111 -29.145,97.851 -0.306,6.74 -8.817,81.247 -8.817,81.247 l -17.695,-0.551 -3.796,-82.84 5.082,-111.577 10.715,-18.81 z"
       fill="#8cd334"
       id="path2375"
       style="stroke-width:1.32395" />
    <path
       d="m 2047.0903,-460.27123 c 8.669,-2.93 25.025,-4.916 25.025,-4.916 0,0 10.217,-2.06 13.587,-1.432 4.974,0.897 14.204,1.093 15.719,22.396 1.094,15.304 15.067,99.058 21.536,105.293 l -63.082,-4.098 c 5.005,-12.158 -7.485,-47.428 -8.757,-53.414 -2.858,-13.413 -12.197,-61.04 -4.028,-63.829 z"
       fill="#fc008b"
       id="path2377"
       style="stroke-width:1.32395" />
    <path
       d="m 2044.6803,-482.11423 5.602,17.663 c 0,0 3.925,14.064 4.587,14.433 6.387,3.518 21.561,-19.377 21.561,-19.377 l -17.719,-21.484 z"
       fill="#ff8a63"
       id="path2379"
       style="stroke-width:1.32395" />
    <path
       opacity="0.68"
       d="m 2062.7443,-485.87623 -4.034,-5.003 -13.993,8.758 5.602,17.663 c 1.86,-0.977 3.462,-2.069 4.669,-3.374 3.475,-3.64 6.33,-10.711 7.756,-18.044 z"
       fill="#ff4900"
       id="path2381"
       style="stroke-width:1.32395" />
    <path
       d="m 2038.2033,-522.97223 c 0,0 -0.821,-0.172 -3.957,6.87 -2.227,5.01 -3.07,10.662 -4.036,16.09 -1.402,8.071 -2.219,16.731 1.492,24.356 1.951,4 18.392,2.037 24.229,-2.842 5.829,-4.918 9.657,-17.79 7.64,-26.029 -1.942,-8.254 -22.757,-20.639 -25.368,-18.445 z"
       fill="#ff8a63"
       id="path2383"
       style="stroke-width:1.32395" />
    <path
       opacity="0.68"
       d="m 2031.9393,-508.84823 c 0.582,-2.506 1.301,-4.914 2.354,-7.222 0.909,-2.032 1.621,-3.449 2.174,-4.463 5.131,1.077 12.048,2.843 16.153,3.912 1.233,0.877 2.434,1.802 3.56,2.741 l 0.197,16.391 -4.645,-7.156 c 0,0 -3.988,-5.177 -10.873,-5.34 -3.617,-0.171 -6.762,0.475 -8.92,1.137 z"
       fill="#ff4900"
       id="path2385"
       style="stroke-width:1.32395" />
    <path
       d="m 2056.7133,-484.46923 c 1.417,2.04 3.203,2.316 8.316,1.456 6.556,-1.136 12.018,-7.553 11.868,-17.348 -0.519,-29.95 -28.091,-31.997 -35.38,-33.444 -2.706,-0.553 -4.521,0.663 -5.749,2.468 -1.934,2.848 -4.941,4.623 -8.276,4.687 -1.452,0.031 -5.266,0.682 -5.855,3.148 -1.677,7.051 -0.452,13.833 10.601,11.707 25.032,-4.812 21.712,23.4 24.475,27.326 z"
       fill="#2d2861"
       id="path2387"
       style="stroke-width:1.32395" />
    <path
       d="m 2052.4883,-500.70423 c 0,0 2.785,-8.874 4.995,-4.139 2.202,4.695 2.968,14.826 -2.392,12.761 -5.352,-2.026 -2.603,-8.622 -2.603,-8.622 z"
       fill="#ff8a63"
       id="path2389"
       style="stroke-width:1.32395" />
    <path
       d="m 2041.5333,-482.45023 -9.626,0.176 c 0,0 0.183,-3.717 4.405,-3.927 5.141,-0.23 5.221,3.751 5.221,3.751 z"
       fill="#ffffff"
       id="path2391"
       style="stroke-width:1.32395" />
    <path
       d="m 2045.1273,-329.36723 c 0.987,-3.288 0.468,-7.437 2.058,-11.244 0.55,-1.276 1.527,-2.82 2.717,-4.498 9.881,-11.158 35.74,-40.044 36.544,-41.918 0.903,-2.165 10.83,-45.504 10.83,-45.504 l -21.002,1.964 -8.049,40.019 c -1.152,1.795 -24.204,34.146 -24.204,34.146 0,0 -4.51,6.696 -7.046,9.974 -1.364,1.542 -2.726,2.696 -4.029,3.638 -1.595,1.23 -4.418,4.022 -4.926,4.833 -0.587,0.965 -1.663,2.993 -2.29,4.229 -0.627,1.236 -1.467,2.607 -1.742,3.341 -0.177,0.445 -0.839,1.177 -1.384,1.678 -0.779,0.77 -0.225,2.071 0.859,2.039 1.027,-0.013 2.117,-1.014 2.74,-1.669 1.869,-1.771 3.633,-5.441 3.863,-5.13 0.231,0.311 -0.505,7.127 -0.567,7.921 -0.063,0.794 -0.863,8.791 -0.543,10.362 0.339,1.63 1.385,1.675 1.893,0.864 0.429,-0.656 2.447,-11.629 2.447,-11.629 0,0 0.26,-1.374 0.702,-0.81 0.461,0.623 -1.318,10.552 -1.346,12.043 -0.01,1.55 0.702,2.543 1.83,1.658 1.381,-1.096 2.642,-11.822 2.642,-11.822 0,0 0.201,-1.355 0.684,-1.061 0.541,0.274 -1.153,8.692 -0.945,9.527 0.209,0.834 1.232,1.402 2.051,0.361 1.014,-1.234 2.075,-10.799 2.075,-10.799 0,0 0.294,-0.676 0.583,-0.384 0.308,0.351 -0.663,7.63 -0.126,8.486 0.422,0.7 1.083,0.355 1.083,0.355 1.726,-0.435 1.612,-7.682 2.598,-10.97 z"
       fill="#ff8a63"
       id="path2393"
       style="stroke-width:1.32395" />
    <path
       d="m 2093.9243,-475.43523 c 24.773,-6.451 48.036,25.558 44.878,30.146 16.524,28.741 15.104,46.725 17.354,64.947 2.227,18.172 -10.445,21.216 -26.868,23.525 -16.436,2.348 -19.59,-17.201 -21.314,-34.436 -1.723,-17.235 -15.996,-81.028 -14.05,-84.182 z"
       fill="#fcc13f"
       id="path2395"
       style="stroke-width:1.32395" />
    <path
       d="m 2101.2153,-469.29223 c -17.143,-12.798 -32.097,-2.652 -35.913,17.14 -0.852,48.12 50.151,84.237 50.151,84.237 l -1.957,-17.27 c 0,0 -22.683,-10.114 -37.612,-45.117 -10.282,-24.1 -4.345,-28.831 3.359,-32.504 12.454,-5.937 19.362,3.07 19.362,3.07 z"
       fill="#fcc13f"
       id="path2397"
       style="stroke-width:1.32395" />
    <path
       d="m 2098.1833,-411.62123 c 0,0 -7.01,0.035 -11.751,-0.478 -3.154,-0.388 -17.027,-2.429 -17.027,-2.429 0,0 -1.978,-23.397 -1.037,-32.343 3.381,-32.82 24.325,-17.813 27.807,-13.858 7.812,8.921 2.008,49.108 2.008,49.108 z"
       fill="#d6007e"
       id="path2399"
       style="stroke-width:1.32395" />
    <path
       d="m 2142.4663,-380.92023 c -4.739,2.538 -13.392,5.144 -17.042,2.441 -1.788,-1.342 -2.88,-3.603 -3.483,-5.58 -0.339,-2.081 -0.565,-3.468 -0.565,-3.468 14.034,0.676 22.911,-5.21 22.911,-5.21 0.443,3.314 2.919,9.279 -1.821,11.817 z"
       fill="#fee2bf"
       id="path2401"
       style="stroke-width:1.32395" />
  </g>
</svg>
