<svg width="760" height="543" viewBox="0 0 760 543" fill="none" xmlns="http://www.w3.org/2000/svg">
<path d="M733.06 105.035C655.556 -25.0844 597.319 152.149 484.031 36.3316C208.259 -52.132 309.939 305.455 255.228 293.024C177.228 275.215 167.981 181.337 77.6408 259.9C55.0945 279.54 24.8782 329.889 16.5277 388.772C7.74424 450.539 18.5999 522.593 18.5999 522.593L736.524 541.922C756.132 474.115 794.637 208.382 733.06 105.035Z" fill="url(#paint0_linear)"/>
<path d="M12.2144 519.69H753.809C760.371 519.69 765.682 526.463 765.682 534.832V542.811H0.341309V534.832C0.341309 526.463 5.65215 519.69 12.2144 519.69Z" fill="#FEE2BF"/>
<path opacity="0.22" d="M563.945 309.249C563.982 314.585 564.019 319.883 564.056 325.219C496.147 324.129 428.237 323.077 360.328 321.986C249.599 321.986 142.549 279.41 76.1266 231.459C75.7177 231.147 75.2717 230.875 74.8628 230.563C103.632 231.498 134.26 232.238 162.175 240.379C189.383 248.248 211.425 268.776 238.076 278.631C304.536 303.25 378.913 266.867 447.974 281.67C487.114 290.045 524.396 314.78 563.945 308.976C563.945 309.054 563.945 309.171 563.945 309.249Z" fill="#FEE2BF"/>
<path d="M319.589 97.5382C322.712 96.1748 326.429 95.3568 330.406 95.3179C334.086 89.5528 342.635 85.6964 352.373 85.6964C358.209 85.6964 363.747 87.1377 368.022 89.5918C372.779 82.4244 383.67 77.3994 396.048 77.3994C404.188 77.3994 411.882 79.5029 417.569 83.2813C418.387 83.2034 419.205 83.1645 420.022 83.1645C428.869 83.1645 436.08 87.9168 436.08 93.7597C436.08 95.0841 435.708 96.3696 435.002 97.5771H319.589V97.5382Z" fill="white"/>
<path d="M436.117 50.9502C439.239 49.5868 442.956 48.7688 446.934 48.7298C450.613 42.9648 459.162 39.1084 468.901 39.1084C474.737 39.1084 480.275 40.5497 484.549 43.0037C489.307 35.8364 500.198 30.8114 512.576 30.8114C520.716 30.8114 528.41 32.9149 534.097 36.6933C534.915 36.6154 535.732 36.5765 536.55 36.5765C545.397 36.5765 552.608 41.3287 552.608 47.1717C552.608 48.4961 552.236 49.7816 551.53 50.9891H436.117V50.9502Z" fill="white"/>
<path d="M578.775 260.284C577.548 260.206 576.322 260.167 575.095 260.167C565.951 245.755 544.579 236.133 520.344 236.133C505.773 236.133 491.983 239.717 481.316 245.833C469.458 227.953 442.25 215.41 411.436 215.41C391.179 215.41 371.962 220.708 357.726 230.057C355.681 229.862 353.637 229.745 351.555 229.745C329.476 229.745 311.561 241.626 311.561 256.194C311.561 256.233 311.561 256.272 311.561 256.311C311.598 261.531 315.724 265.699 320.667 265.699H578.626C581.934 265.66 582.083 260.479 578.775 260.284Z" fill="white"/>
<path d="M689.877 509.022C696.122 504.581 727.605 521.37 727.605 521.37C727.605 521.37 708.202 486.507 715.562 477.002C722.921 467.536 733.515 484.325 733.515 484.325C733.515 484.325 719.018 456.318 734.964 446.658C747.491 439.062 758.976 459.59 761.429 464.148V542.716H685.156C685.156 542.677 683.595 513.462 689.877 509.022Z" fill="#238E3C"/>
<path d="M713.259 136.977C707.869 138.262 704.858 143.326 703.52 148.936C693.893 144.144 687.054 147.377 687.5 147.261C687.463 147.261 686.013 147.845 686.088 147.806C682.631 149.169 676.535 153.337 672.186 158.362C683.188 151 692.183 146.17 703.446 153.259C703.483 153.298 706.308 155.168 706.308 155.168C706.717 152.675 707.126 142.391 714.039 140.054C719.317 138.379 727.829 138.457 733.368 138.613C727.532 136.782 719.317 135.653 713.259 136.977Z" fill="#7271B3"/>
<path d="M490.72 138.166C494.177 138.984 496.11 142.256 496.965 145.84C503.172 142.763 507.558 144.827 507.261 144.749C507.298 144.749 508.227 145.139 508.153 145.1C510.383 145.957 514.286 148.645 517.073 151.917C509.974 147.164 504.213 144.087 496.965 148.645C496.927 148.645 495.106 149.852 495.106 149.852C494.846 148.255 494.586 141.633 490.125 140.153C486.743 139.062 481.242 139.14 477.673 139.218C481.539 138.049 486.817 137.309 490.72 138.166Z" fill="#7271B3"/>
<path d="M181.057 1.1681C184.291 1.94717 186.112 4.98551 186.893 8.37444C192.691 5.4919 196.817 7.43956 196.557 7.36165C196.594 7.36165 197.449 7.71223 197.412 7.67328C199.493 8.49129 203.173 10.9843 205.775 14.0226C199.159 9.58198 193.732 6.69945 186.967 10.9453C186.93 10.9453 185.257 12.075 185.257 12.075C184.997 10.5558 184.774 4.40121 180.611 2.9989C177.377 1.98612 172.285 2.06403 168.939 2.14193C172.471 1.05124 177.414 0.350088 181.057 1.1681Z" fill="#7271B3"/>
<path d="M645.755 100.226C642.559 96.9539 637.912 97.0707 633.712 98.5899C632.56 89.6307 627.43 86.1639 627.728 86.4365C627.691 86.4365 626.687 85.6185 626.761 85.6964C624.345 83.8267 618.956 81.3337 613.789 80.4767C623.416 85.0342 630.515 89.3191 630.887 100.46C630.887 100.499 630.924 103.342 630.924 103.342C632.746 102.524 639.548 98.2783 644.12 102.174C647.539 105.173 651.256 111.289 653.598 115.301C652.185 110.276 649.286 103.927 645.755 100.226Z" fill="#7271B3"/>
<path d="M129.941 120.829C125.443 124.218 124.551 130.099 125.443 135.826C114.775 135.358 109.683 141.123 110.055 140.812C110.018 140.851 108.903 141.941 108.977 141.902C106.301 144.551 102.212 150.9 100.093 157.328C107.49 146.031 113.958 137.929 127.004 139.877C127.041 139.877 130.35 140.461 130.35 140.461C129.792 137.968 126.335 128.386 131.873 123.4C136.111 119.699 143.991 116.31 149.157 114.168C143.024 114.83 135.033 117.128 129.941 120.829Z" fill="#7271B3"/>
<path d="M242.668 66.9871C238.505 65.3121 234.268 67.2598 230.959 70.415C226.536 62.6243 220.552 61.5337 220.924 61.6505C220.886 61.6505 219.66 61.3389 219.734 61.3389C216.835 60.5988 210.925 60.5209 205.833 61.8453C216.426 62.118 224.529 63.1307 229.027 73.2585C229.027 73.2975 230.142 75.9074 230.142 75.9074C231.517 74.4272 236.2 67.7272 241.85 69.4411C246.125 70.8045 251.812 74.9335 255.454 77.6603C252.332 73.6481 247.277 68.9737 242.668 66.9871Z" fill="#7271B3"/>
<path d="M179.239 290.49C182.547 287.023 191.394 290.685 195.371 292.087C197.527 292.827 233.284 287.764 237.373 281.453C241.462 275.143 236.778 245.85 235.366 229.684C233.953 213.519 241.573 207.208 241.573 207.208C244.844 203.78 256.627 204.053 259.303 211.415C260.901 215.817 270.9 256.679 262.834 281.687C252.65 313.161 193.773 298.787 192.657 298.787C191.319 298.787 189.981 301.942 188.68 301.942C187.342 301.942 181.469 299.488 180.8 298.787C180.094 298.086 175.931 293.996 179.239 290.49Z" fill="#FFA97A"/>
<path d="M48.8843 443.148C48.8843 403.805 79.4008 371.824 116.942 371.824C154.484 371.824 185.001 403.805 185.001 443.148C185.001 482.49 154.484 514.471 116.942 514.471C79.4008 514.471 48.8843 482.451 48.8843 443.148ZM57.3962 443.148C57.3962 477.543 84.1213 505.551 116.942 505.551C149.763 505.551 176.489 477.543 176.489 443.148C176.489 408.752 149.763 380.745 116.942 380.745C84.0842 380.745 57.3962 408.713 57.3962 443.148Z" fill="#2D2861"/>
<path d="M64.124 443.148C64.124 412.647 87.8013 387.795 116.942 387.795C146.047 387.795 169.761 412.608 169.761 443.148C169.761 473.648 146.084 498.5 116.942 498.5C87.8013 498.5 64.124 473.648 64.124 443.148ZM66.2427 443.148C66.2427 472.44 88.9907 496.28 116.942 496.28C144.894 496.28 167.642 472.44 167.642 443.148C167.642 413.855 144.894 390.015 116.942 390.015C88.9907 390.015 66.2427 413.855 66.2427 443.148Z" fill="#F3FFFF"/>
<path d="M116.942 491.527C142.404 491.527 163.107 469.831 163.107 443.148C163.107 435.357 161.397 427.917 158.015 421.022C157.755 420.477 157.123 420.243 156.565 420.555C156.045 420.827 155.822 421.49 156.119 422.074C159.353 428.618 160.989 435.746 160.989 443.187C160.989 468.623 141.214 489.346 116.942 489.346C110.549 489.346 104.379 487.944 98.6176 485.178C98.0972 484.905 97.4653 485.178 97.2051 485.723C96.9449 486.269 97.2051 486.931 97.7255 487.204C103.784 490.047 110.215 491.527 116.942 491.527Z" fill="#F3FFFF"/>
<path d="M84.0097 411.946C84.3071 411.946 84.5672 411.829 84.7903 411.596C93.0791 402.325 104.825 396.988 116.942 396.988C117.537 396.988 118.02 396.482 118.02 395.858C118.02 395.235 117.537 394.729 116.942 394.729C104.23 394.729 91.9269 400.299 83.2291 410.037C82.8203 410.505 82.8574 411.206 83.2663 411.596C83.4893 411.829 83.7495 411.946 84.0097 411.946Z" fill="#F3FFFF"/>
<path d="M190.613 446.497C192.36 446.497 193.81 445.017 193.81 443.148C193.81 398.741 159.316 362.593 116.943 362.593C98.7666 362.593 81.1481 369.37 67.3209 381.641C65.9827 382.848 65.7969 384.952 66.9492 386.354C68.1014 387.756 70.1086 387.951 71.4467 386.743C84.1217 375.486 100.291 369.292 116.98 369.292C155.86 369.292 187.454 402.442 187.454 443.148C187.417 444.978 188.829 446.497 190.613 446.497Z" fill="#FC008B"/>
<path d="M242.688 390.21L255.698 402.052C255.698 402.052 260.084 402.558 261.682 400.143C263.281 397.767 262.946 395.118 262.946 395.118L250.792 379.888L242.688 390.21Z" fill="#FF8A63"/>
<path d="M270.529 405.48C271.198 404.662 271.235 403.415 270.529 402.558C269.749 401.624 268.41 401.507 267.518 402.325L249.565 418.451C248.673 419.269 248.562 420.672 249.342 421.606C250.123 422.541 251.461 422.658 252.353 421.84L270.306 405.714C270.38 405.636 270.455 405.558 270.529 405.48Z" fill="#322783"/>
<path d="M236.109 448.835C236.48 448.835 236.815 448.64 237.001 448.289L258.596 411.245C258.894 410.739 258.745 410.037 258.262 409.726C257.779 409.414 257.11 409.57 256.812 410.076L235.217 447.121C234.919 447.627 235.068 448.328 235.551 448.64C235.7 448.796 235.886 448.835 236.109 448.835Z" fill="#322783"/>
<path d="M252.947 399.52C250.122 398.352 252.947 399.52 249.713 409.96C246.702 416.854 243.431 419.62 244.547 421.022C245.662 422.424 247.223 423.009 247.223 423.009L270.045 400.338C270.045 400.338 264.655 391.184 262.425 394.456C252.724 403.104 252.947 399.52 252.947 399.52Z" fill="#8CD334"/>
<path d="M278.483 298.476L265.993 297.774C265.993 297.774 199.013 295.437 192.694 313.122C186.338 330.924 247.669 402.091 247.669 402.091L259.526 388.73C259.526 388.73 228.117 339.337 229.381 334.78C230.608 330.261 313.125 323.717 315.429 316.472C317.734 309.227 305.765 296.606 305.765 296.606L278.483 298.476Z" fill="#2D2861"/>
<path d="M315.429 316.472C315.467 316.316 315.504 316.16 315.541 316.004C315.541 315.966 315.541 315.927 315.578 315.888C315.615 315.732 315.652 315.576 315.652 315.42C315.69 315.264 315.69 315.109 315.69 314.914C315.69 314.875 315.69 314.836 315.69 314.797C315.69 314.641 315.69 314.446 315.69 314.291C315.69 314.096 315.69 313.862 315.652 313.628V313.589C315.615 313.395 315.615 313.161 315.578 312.966V312.927V312.888C315.541 312.693 315.504 312.46 315.467 312.265V312.226C315.467 312.187 315.467 312.187 315.467 312.148C315.429 311.953 315.355 311.72 315.318 311.525C315.318 311.525 315.318 311.525 315.318 311.486C315.318 311.447 315.318 311.447 315.281 311.408C315.206 311.174 315.132 310.941 315.058 310.746V310.707C314.983 310.473 314.909 310.239 314.798 310.045V310.006C314.723 309.772 314.612 309.577 314.537 309.343C314.537 309.305 314.5 309.266 314.5 309.227C314.389 308.993 314.314 308.798 314.203 308.564C314.203 308.525 314.166 308.525 314.166 308.486C314.166 308.486 314.166 308.448 314.128 308.448C314.017 308.214 313.905 308.019 313.794 307.785C313.794 307.746 313.757 307.707 313.757 307.668C313.645 307.435 313.534 307.24 313.422 307.006C313.422 307.006 313.422 307.006 313.422 306.967C313.422 306.967 313.422 306.928 313.385 306.928C313.274 306.695 313.125 306.5 313.013 306.266C313.013 306.266 313.013 306.266 313.013 306.227C312.902 305.993 312.753 305.799 312.604 305.565L312.567 305.526C312.567 305.526 312.567 305.487 312.53 305.487C312.419 305.292 312.27 305.059 312.158 304.864C312.158 304.825 312.121 304.825 312.121 304.786L312.084 304.747C311.935 304.552 311.824 304.319 311.675 304.124C311.638 304.085 311.638 304.046 311.601 304.007C311.452 303.812 311.341 303.617 311.192 303.384C311.192 303.384 311.192 303.345 311.155 303.345C311.155 303.345 311.155 303.306 311.118 303.306C310.82 302.877 310.56 302.488 310.263 302.098C310.263 302.059 310.226 302.059 310.226 302.02C310.077 301.826 309.965 301.67 309.817 301.475L309.78 301.436C309.78 301.436 309.78 301.397 309.742 301.397C309.594 301.202 309.482 301.046 309.334 300.891L309.296 300.852C309.296 300.852 309.296 300.813 309.259 300.813C309.111 300.657 308.999 300.462 308.887 300.306C308.887 300.267 308.85 300.267 308.85 300.228C308.702 300.073 308.59 299.878 308.441 299.722C308.293 299.566 308.181 299.41 308.07 299.255C307.958 299.099 307.847 298.982 307.735 298.826C307.735 298.787 307.698 298.787 307.698 298.748C307.587 298.631 307.475 298.514 307.401 298.359L307.364 298.32C307.364 298.32 307.364 298.32 307.364 298.281C307.252 298.164 307.178 298.047 307.066 297.93L307.029 297.891C306.806 297.619 306.62 297.424 306.434 297.229C306.397 297.19 306.323 297.112 306.286 297.073C306.211 296.995 306.174 296.917 306.1 296.878C305.951 296.723 305.84 296.606 305.84 296.606L278.594 298.476L268.781 305.877C249.23 312.07 217.896 315.42 215.405 323.639C212.246 334.04 237.521 375.486 254.805 394.067L255.437 393.365L259.526 388.769C259.526 388.769 253.653 379.537 247.111 368.669C245.401 366.137 243.952 363.761 243.06 361.891C235.7 349.465 228.786 337 229.381 334.819C230.608 330.222 313.125 323.717 315.429 316.472Z" fill="#2D2861"/>
<path d="M262.202 443.148C262.202 403.805 292.719 371.824 330.26 371.824C367.802 371.824 398.318 403.805 398.318 443.148C398.318 482.49 367.802 514.471 330.26 514.471C292.719 514.471 262.202 482.451 262.202 443.148ZM270.714 443.148C270.714 477.543 297.439 505.551 330.26 505.551C363.081 505.551 389.806 477.543 389.806 443.148C389.806 408.752 363.081 380.745 330.26 380.745C297.402 380.745 270.714 408.713 270.714 443.148Z" fill="#2D2861"/>
<path d="M277.442 443.148C277.442 412.647 301.119 387.795 330.26 387.795C359.364 387.795 383.079 412.608 383.079 443.148C383.079 473.648 359.402 498.5 330.26 498.5C301.119 498.5 277.442 473.648 277.442 443.148ZM279.561 443.148C279.561 472.44 302.309 496.28 330.26 496.28C358.212 496.28 380.96 472.44 380.96 443.148C380.96 413.855 358.212 390.015 330.26 390.015C302.309 390.015 279.561 413.855 279.561 443.148Z" fill="#F3FFFF"/>
<path d="M330.26 491.527C355.722 491.527 376.425 469.831 376.425 443.148C376.425 435.357 374.715 427.917 371.333 421.022C371.073 420.477 370.441 420.243 369.883 420.555C369.363 420.827 369.14 421.49 369.437 422.074C372.671 428.657 374.307 435.746 374.307 443.187C374.307 468.623 354.532 489.346 330.26 489.346C323.867 489.346 317.697 487.944 311.935 485.178C311.415 484.905 310.783 485.178 310.523 485.723C310.263 486.269 310.523 486.931 311.043 487.204C317.102 490.047 323.532 491.527 330.26 491.527Z" fill="#F3FFFF"/>
<path d="M297.328 411.946C297.625 411.946 297.886 411.829 298.109 411.596C306.397 402.325 318.143 396.988 330.261 396.988C330.855 396.988 331.339 396.482 331.339 395.858C331.339 395.235 330.855 394.729 330.261 394.729C317.548 394.729 305.245 400.299 296.547 410.037C296.139 410.505 296.176 411.206 296.585 411.596C296.808 411.829 297.068 411.946 297.328 411.946Z" fill="#F3FFFF"/>
<path d="M282.683 387.523C283.426 387.523 284.133 387.25 284.727 386.744C297.44 375.486 313.571 369.292 330.261 369.292C344.311 369.292 357.878 373.616 369.512 381.796C370.962 382.809 372.969 382.42 373.935 380.901C374.902 379.381 374.53 377.278 373.08 376.265C360.405 367.345 345.612 362.631 330.261 362.631C312.085 362.631 294.466 369.409 280.639 381.68C279.301 382.887 279.115 384.991 280.267 386.393C280.862 387.133 281.754 387.523 282.683 387.523Z" fill="#FC008B"/>
<path d="M330.261 435.785C330.744 435.785 331.116 435.396 331.153 434.889C331.19 434.383 330.781 433.955 330.298 433.916L236.593 429.358C236.11 429.319 235.701 429.748 235.663 430.254C235.626 430.76 236.035 431.189 236.518 431.228L330.224 435.785C330.224 435.785 330.224 435.785 330.261 435.785Z" fill="#352E73"/>
<path d="M235.216 456.898H235.254L330.26 452.341C330.743 452.302 331.115 451.873 331.115 451.367C331.078 450.86 330.669 450.471 330.185 450.471L235.142 455.028C234.659 455.067 234.287 455.496 234.287 456.002C234.361 456.509 234.733 456.898 235.216 456.898Z" fill="#352E73"/>
<path d="M330.261 453.275C335.576 453.275 339.925 448.718 339.925 443.148C339.925 437.577 335.576 433.02 330.261 433.02C324.945 433.02 320.596 437.577 320.596 443.148C320.559 448.718 324.908 453.275 330.261 453.275Z" fill="#352E73"/>
<path d="M247.632 426.904C248.672 426.904 249.676 426.242 250.085 425.19C250.642 423.788 250.01 422.152 248.635 421.568C236.927 416.504 227.262 407.233 221.427 395.469L206.41 365.163C201.318 354.841 193.549 346.271 183.997 340.389L174.295 334.39C173.031 333.611 171.396 334.04 170.653 335.364C169.909 336.689 170.318 338.403 171.582 339.182L181.283 345.18C189.981 350.556 197.006 358.347 201.652 367.734L216.669 398.04C223.099 410.972 233.693 421.178 246.554 426.748C246.963 426.865 247.297 426.904 247.632 426.904Z" fill="#FC008B"/>
<path d="M240.087 441.628C241.016 441.628 241.908 441.122 242.391 440.187L301.045 330.261C301.752 328.937 301.306 327.223 300.005 326.483C298.741 325.743 297.105 326.21 296.399 327.535L237.745 437.46C237.039 438.785 237.485 440.499 238.749 441.239C239.232 441.511 239.678 441.628 240.087 441.628Z" fill="#FC008B"/>
<path d="M261.236 445.913H330.261C331.71 445.913 332.937 444.667 332.937 443.109C332.937 441.589 331.748 440.304 330.261 440.304H261.236C241.09 440.304 222.803 428.657 213.547 409.96L198.531 379.654C193.438 369.331 185.67 360.762 176.117 354.88L166.416 348.881C165.152 348.102 163.517 348.53 162.773 349.855C162.03 351.179 162.439 352.893 163.702 353.672L173.404 359.671C182.102 365.047 189.127 372.837 193.773 382.225L208.79 412.53C219.011 433.137 239.12 445.913 261.236 445.913Z" fill="#FC008B"/>
<path d="M330.26 445.368C330.632 445.368 331.004 445.251 331.338 445.056C332.342 444.433 332.713 443.07 332.119 442.018L284.987 357.022C284.393 355.971 283.092 355.581 282.088 356.204C281.085 356.827 280.713 358.191 281.308 359.243L328.402 444.238C328.811 444.978 329.517 445.368 330.26 445.368Z" fill="#FC008B"/>
<path d="M236.555 457.833C244.286 457.833 250.568 451.25 250.568 443.148C250.568 435.045 244.286 428.462 236.555 428.462C228.823 428.462 222.542 435.045 222.542 443.148C222.542 451.25 228.823 457.833 236.555 457.833Z" fill="#352E73"/>
<path d="M338.14 442.446C338.512 447.549 334.498 451.795 329.628 451.367C325.8 451.055 322.678 447.783 322.38 443.771C322.009 438.668 326.023 434.422 330.892 434.851C334.721 435.201 337.843 438.434 338.14 442.446Z" fill="#F3FFFF"/>
<path d="M248.784 442.485C249.155 450.12 243.171 456.353 235.923 455.963C229.716 455.652 224.661 450.315 224.326 443.81C223.954 436.175 229.939 429.942 237.187 430.332C243.394 430.644 248.486 435.941 248.784 442.485Z" fill="#F3FFFF"/>
<path d="M226.444 485.217C227.485 485.217 228.377 484.438 228.563 483.308C228.749 482.101 227.931 480.971 226.779 480.776L203.399 477.154C202.247 476.959 201.169 477.816 200.983 479.023C200.797 480.231 201.615 481.361 202.767 481.555L226.147 485.178C226.258 485.178 226.333 485.217 226.444 485.217Z" fill="#352E73"/>
<path d="M214.736 482.296C215.108 482.296 215.442 482.101 215.628 481.75L237.41 444.823C237.707 444.316 237.558 443.615 237.075 443.303C236.592 442.992 235.923 443.148 235.625 443.654L213.844 480.582C213.547 481.088 213.695 481.789 214.179 482.101C214.364 482.218 214.55 482.296 214.736 482.296Z" fill="#352E73"/>
<path d="M313.386 323.639H292.645C291.121 323.639 289.857 324.964 289.857 326.561V330.067C289.857 331.664 291.121 332.988 292.645 332.988H318.85C320.894 332.988 322.269 330.729 321.377 328.82C319.89 325.743 316.88 323.639 313.386 323.639Z" fill="#352E73"/>
<path d="M226.222 453.12L225.739 472.557C225.739 472.557 227.783 476.414 230.571 476.414C233.359 476.414 235.329 474.661 235.329 474.661L239.417 447.9L226.222 453.12Z" fill="#FFA97A"/>
<path d="M225.999 468.584C225.293 465.507 225.999 468.584 215.963 471.817C208.864 473.219 204.812 472.012 204.366 473.765C203.92 475.518 204.366 477.193 204.366 477.193L235.217 483.698C235.217 483.698 239.269 473.804 235.44 473.804C223.1 470.454 225.999 468.584 225.999 468.584Z" fill="#8CD334"/>
<path d="M265.956 294.541C265.956 294.541 225.738 333.339 219.717 363.255C213.695 393.171 224.623 459.001 224.623 459.001C224.623 459.001 229.567 462.235 241.387 460.754C241.387 460.754 241.721 375.174 245.959 369.215C250.196 363.255 315.615 325.938 318.812 314.797C322.008 303.656 313.794 291.386 313.794 291.386L265.956 294.541Z" fill="#352E73"/>
<path d="M232.801 452.302L232.355 445.952C232.318 445.446 232.69 445.017 233.173 444.978C233.656 444.939 234.065 445.329 234.102 445.835L234.548 452.185C234.585 452.691 234.214 453.12 233.73 453.159C233.693 453.159 233.693 453.159 233.656 453.159C233.247 453.159 232.838 452.769 232.801 452.302ZM231.946 439.603L231.5 433.253C231.463 432.747 231.835 432.319 232.318 432.28C232.801 432.241 233.21 432.63 233.247 433.137L233.693 439.486C233.73 439.992 233.359 440.421 232.876 440.46C232.838 440.46 232.838 440.46 232.801 440.46C232.355 440.46 231.983 440.07 231.946 439.603ZM231.091 426.904L230.683 420.555C230.645 420.048 231.017 419.62 231.5 419.581C231.983 419.542 232.392 419.932 232.429 420.438L232.838 426.787C232.876 427.294 232.504 427.722 232.021 427.761C231.983 427.761 231.983 427.761 231.946 427.761C231.5 427.761 231.129 427.411 231.091 426.904ZM230.274 414.205C230.125 412.102 230.013 409.96 229.865 407.856C229.828 407.35 230.199 406.921 230.683 406.882C231.166 406.843 231.575 407.233 231.612 407.739C231.76 409.843 231.872 411.946 232.021 414.089C232.058 414.595 231.686 415.023 231.203 415.062C231.166 415.062 231.166 415.062 231.129 415.062C230.683 415.062 230.311 414.712 230.274 414.205ZM229.456 401.507C229.307 399.364 229.196 397.222 229.084 395.157C229.047 394.651 229.419 394.222 229.902 394.184C230.385 394.145 230.794 394.534 230.831 395.04C230.943 397.105 231.091 399.247 231.203 401.39C231.24 401.896 230.868 402.325 230.385 402.364C230.348 402.364 230.348 402.364 230.311 402.364C229.865 402.364 229.493 402.013 229.456 401.507ZM228.675 388.808C228.564 386.588 228.415 384.445 228.304 382.459C228.266 381.952 228.638 381.524 229.121 381.485C229.605 381.446 230.013 381.835 230.051 382.342C230.162 384.328 230.274 386.471 230.422 388.691C230.46 389.197 230.088 389.626 229.605 389.665H229.567C229.121 389.665 228.713 389.314 228.675 388.808ZM228.006 376.109C227.895 373.616 227.783 371.435 227.746 369.721C227.746 369.215 228.118 368.786 228.601 368.786C229.084 368.747 229.493 369.176 229.493 369.682C229.53 371.396 229.642 373.538 229.753 376.031C229.79 376.538 229.419 376.966 228.898 377.005H228.861C228.415 376.966 228.043 376.577 228.006 376.109ZM229.233 364.384C228.824 364.112 228.675 363.566 228.898 363.138C229.716 361.619 231.017 359.905 232.764 357.996C233.099 357.645 233.656 357.606 234.028 357.957C234.362 358.308 234.4 358.892 234.065 359.281C232.43 361.073 231.203 362.709 230.422 364.073C230.274 364.384 229.976 364.54 229.642 364.54C229.493 364.501 229.344 364.462 229.233 364.384ZM237.15 354.841C236.816 354.451 236.853 353.867 237.224 353.555C238.637 352.27 240.198 350.868 241.908 349.465C242.28 349.154 242.837 349.232 243.134 349.621C243.432 350.011 243.395 350.595 242.986 350.907C241.276 352.348 239.715 353.711 238.34 354.958C238.154 355.113 237.968 355.191 237.745 355.191C237.559 355.152 237.336 355.036 237.15 354.841ZM246.591 346.777C246.294 346.388 246.368 345.804 246.777 345.492C248.301 344.284 249.974 342.999 251.684 341.714C252.092 341.402 252.613 341.519 252.91 341.908C253.208 342.337 253.096 342.882 252.724 343.194C251.014 344.479 249.342 345.765 247.855 346.933C247.706 347.05 247.521 347.128 247.335 347.128C247 347.167 246.74 347.05 246.591 346.777ZM256.404 339.337C256.144 338.909 256.218 338.325 256.627 338.052C258.3 336.844 259.972 335.637 261.645 334.429C262.054 334.157 262.611 334.235 262.872 334.663C263.132 335.092 263.058 335.676 262.649 335.949C260.976 337.156 259.303 338.325 257.631 339.532C257.482 339.649 257.296 339.688 257.11 339.688C256.85 339.727 256.59 339.571 256.404 339.337ZM266.44 332.17C266.18 331.742 266.291 331.157 266.7 330.885C268.41 329.677 270.12 328.508 271.755 327.379C272.164 327.106 272.722 327.223 272.982 327.651C273.242 328.08 273.131 328.664 272.722 328.937C271.049 330.067 269.376 331.274 267.667 332.443C267.518 332.56 267.332 332.599 267.183 332.599C266.923 332.56 266.626 332.404 266.44 332.17ZM276.587 325.158C276.327 324.73 276.439 324.146 276.848 323.873L281.94 320.406C282.349 320.134 282.906 320.25 283.166 320.679C283.427 321.107 283.315 321.692 282.906 321.964L277.814 325.431C277.665 325.548 277.479 325.587 277.331 325.587C277.033 325.548 276.773 325.431 276.587 325.158ZM286.772 318.147C286.512 317.718 286.623 317.134 287.032 316.861C289.114 315.42 290.749 314.252 292.05 313.278C292.459 312.966 292.979 313.083 293.277 313.511C293.574 313.94 293.463 314.524 293.054 314.797C291.753 315.771 290.117 316.939 287.999 318.42C287.85 318.536 287.664 318.575 287.515 318.575C287.218 318.575 286.921 318.42 286.772 318.147ZM296.622 310.668C296.213 310.395 296.102 309.811 296.362 309.382C297.217 308.058 297.774 306.149 298.034 303.773C298.072 303.267 298.518 302.916 299.001 302.955C299.484 302.994 299.819 303.462 299.781 303.968C299.484 306.656 298.815 308.798 297.811 310.395C297.626 310.668 297.365 310.824 297.068 310.824C296.919 310.824 296.771 310.785 296.622 310.668ZM298.109 297.619C297.997 295.71 297.737 293.606 297.403 291.425C297.328 290.919 297.663 290.451 298.109 290.373C298.592 290.295 299.038 290.646 299.112 291.113C299.484 293.373 299.707 295.515 299.856 297.502C299.893 298.008 299.521 298.437 299.038 298.476C299.001 298.476 299.001 298.476 298.964 298.476C298.518 298.476 298.146 298.125 298.109 297.619Z" fill="#7271B3"/>
<path d="M265.956 294.541L313.757 291.386C313.757 291.386 316.247 295.126 317.957 300.345C310.858 307.785 301.342 306.305 289.188 303.812C279.152 301.748 265.213 299.566 262.686 297.813C264.767 295.749 265.956 294.541 265.956 294.541Z" fill="#2D2861"/>
<path d="M297.031 285.972C297.105 285.972 297.179 285.972 297.254 285.933C297.737 285.816 298.034 285.31 297.886 284.803C297.44 282.894 297.105 281.687 297.105 281.648C296.956 281.142 296.473 280.869 295.99 281.025C295.507 281.181 295.247 281.687 295.395 282.154C295.395 282.154 295.73 283.362 296.176 285.232C296.287 285.699 296.659 285.972 297.031 285.972Z" fill="#F7604B"/>
<path d="M254.619 199.106C254.619 199.106 245.587 203.936 242.911 213.947C240.234 223.958 239.008 245.343 242.911 252.589C246.813 259.834 254.619 294.931 260.455 296.995C266.29 299.021 313.459 298.67 316.99 297.735C320.521 296.801 295.357 238.488 286.697 219.907C278.036 201.326 254.619 199.106 254.619 199.106Z" fill="#FCC13F"/>
<path d="M269.636 203.547C286.734 192.445 312.382 210.792 311.118 215.038C330.818 232.606 334.312 246.551 340.557 259.756C346.838 272.922 337.992 278.415 326.172 284.297C314.352 290.179 307.066 276.233 301.417 263.652C295.804 251.031 268.967 206.39 269.636 203.547Z" fill="#8CD334"/>
<path d="M311.155 214.999C301.602 220.608 288.295 226.49 278.706 207.014C287.701 227.737 299 221.738 303.461 220.764C307.958 219.829 311.155 214.999 311.155 214.999Z" fill="#2BA14C"/>
<path d="M327.956 245.188C331.896 251.381 339.553 264.781 336.319 268.404C333.085 272.065 323.458 277.285 319.964 271.949C316.47 266.612 311.155 253.485 311.155 253.485C322.157 251.381 327.956 245.188 327.956 245.188Z" fill="#2BA14C"/>
<path d="M329.48 255.471C326.284 258.315 320.039 261.938 316.731 260.496C315.095 259.795 313.497 258.432 312.642 256.991C311.973 255.238 311.899 253.718 311.936 254.225C322.938 252.16 328.439 246.24 328.439 246.24C329.369 248.81 332.677 252.628 329.48 255.471Z" fill="#FFB9AB"/>
<path d="M328.699 254.653C325.502 257.497 319.258 261.12 315.95 259.678C314.314 258.977 313.05 257.419 312.233 256.017C311.564 254.459 311.155 253.446 311.155 253.446C322.157 251.381 327.956 245.149 327.956 245.149C328.885 247.681 331.896 251.81 328.699 254.653Z" fill="#2BA14C"/>
<path d="M277.182 202.183C261.013 196.808 251.683 204.521 253.839 228.282C265.288 264.859 312.939 279.35 312.939 279.35L307.104 266.807C307.104 266.807 287.441 264.859 267.332 242.188C253.505 226.568 258.188 211.104 264.061 207.754C268.893 204.988 278.148 204.599 278.148 204.599L277.182 202.183Z" fill="#8CD334"/>
<path d="M258.188 285.465C262.277 279.155 257.593 249.862 256.181 233.697C254.768 217.531 262.388 211.221 262.388 211.221C265.659 207.793 277.442 208.065 280.118 215.428C281.717 219.829 291.715 260.691 283.649 285.699C283.649 285.738 283.612 285.816 283.612 285.855C281.085 293.567 273.762 298.359 265.994 297.774C263.355 297.58 261.385 297.307 260.492 296.995C258.745 296.372 256.85 292.866 254.917 287.997C256.478 287.179 257.63 286.322 258.188 285.465Z" fill="#FFA42F"/>
<path d="M237.336 191.861C237.336 191.861 238.712 193.575 240.273 195.99C243.544 201.015 244.585 207.286 243.023 213.168C241.834 217.726 240.422 224.387 240.422 230.736C240.422 241.877 254.583 199.106 254.583 199.106L246.889 183.369L237.336 191.861Z" fill="#FFA97A"/>
<path opacity="0.68" d="M237.336 191.861L246.889 183.369L249.751 189.212C248.302 192.679 245.44 196.652 242.28 199.924C241.76 198.561 241.091 197.236 240.273 195.99C238.712 193.575 237.336 191.861 237.336 191.861Z" fill="#FF4900"/>
<path d="M260.307 156.414C260.307 156.414 260.976 149.441 265.064 136.625C269.153 123.81 283.835 114.539 294.912 121.94C305.988 129.341 312.307 121.94 322.938 112.981C333.569 104.061 347.284 107.878 355.09 117.46C362.896 127.043 377.912 126.848 374.976 147.61C372.039 168.333 348.994 180.915 335.501 170.476C322.046 160.036 319.667 164.165 309.482 173.553C299.335 182.98 274.468 166.97 269.116 161.984C263.801 156.959 260.307 156.414 260.307 156.414Z" fill="#2D2861"/>
<path d="M116.906 445.913C117.835 445.913 118.765 445.407 119.248 444.472L190.837 307.941C191.506 306.617 191.878 305.176 191.878 303.656V294.814C191.878 293.061 192.993 292.243 193.476 291.932C193.959 291.659 195.223 291.075 196.636 291.971L209.087 299.8C210.351 300.579 211.987 300.151 212.73 298.826C213.474 297.502 213.065 295.788 211.801 295.009L199.349 287.179C196.71 285.504 193.513 285.465 190.8 287.062C188.124 288.659 186.488 291.542 186.488 294.775V303.618C186.488 304.163 186.339 304.708 186.116 305.215L114.601 441.784C113.895 443.148 114.378 444.823 115.642 445.563C116.051 445.797 116.497 445.913 116.906 445.913Z" fill="#FC008B"/>
<path d="M124.822 442.446C125.194 447.549 121.179 451.795 116.31 451.367C112.482 451.055 109.359 447.783 109.062 443.771C108.69 438.668 112.705 434.422 117.574 434.851C121.402 435.201 124.525 438.434 124.822 442.446Z" fill="#F3FFFF"/>
<path d="M198.53 288.348C201.838 284.881 210.684 288.543 214.661 289.945C216.817 290.685 252.575 285.621 256.663 279.311C260.752 273 256.069 243.708 254.656 227.542C253.244 211.376 260.864 205.066 260.864 205.066C264.134 201.638 275.917 201.911 278.594 209.273C280.192 213.675 290.191 254.537 282.125 279.544C271.94 311.019 213.063 296.645 211.948 296.645C210.61 296.645 209.272 299.8 207.971 299.8C206.633 299.8 200.76 297.346 200.091 296.645C199.385 295.905 195.222 291.815 198.53 288.348Z" fill="#FFA97A"/>
<path d="M226.11 156.998C226.11 156.998 221.427 159.686 220.46 172.579C219.494 185.473 221.947 198.756 226.965 199.924C232.02 201.093 244.435 193.341 248.486 187.031C252.538 180.72 246.033 160.075 239.38 156.998C232.763 153.921 226.11 156.998 226.11 156.998Z" fill="#FFA97A"/>
<path d="M260.938 146.948C262.462 148.545 265.362 155.985 265.362 164.477C265.362 172.969 254.545 188.706 251.72 189.991C248.858 191.316 237.336 183.369 234.362 164.477C233.656 160.036 225.255 157.777 225.255 157.777C225.255 157.777 224.289 149.402 231.797 146.441C239.306 143.481 241.759 149.129 247.78 147.337C253.802 145.546 258.039 143.948 260.938 146.948Z" fill="#2D2861"/>
<path d="M237.336 176.474C237.336 176.474 236.593 170.826 239.529 170.826C242.465 170.826 245.997 177.098 244.101 179.785C242.205 182.473 238.748 180.72 238.748 180.72L237.336 176.474Z" fill="#FFA97A"/>
<path d="M508.078 275.398C511.014 275.398 525.993 254.909 534.951 242.327C539.375 236.094 542.534 228.966 544.244 221.37L546.809 209.996L569.111 211.554C569.111 211.554 561.231 240.107 558.368 243.145C558.331 243.184 558.294 243.223 558.257 243.262C550.563 250.468 522.425 276.917 519.526 279.371C515.549 282.721 511.349 287.006 511.349 292.109C511.349 297.212 494.027 293.823 494.027 289.85C494.065 285.877 503.84 275.398 508.078 275.398Z" fill="#FF8A63"/>
<path d="M578.923 171.978C578.923 171.978 587.658 179.651 581.711 200.374C575.764 221.097 565.356 241.197 565.356 241.197C565.356 241.197 547.998 235.043 537.888 224.331C537.925 224.331 549.485 156.163 578.923 171.978Z" fill="#D6007E"/>
<path d="M506.07 419.135C513.169 416.331 525.658 414.11 533.13 413.292C541.01 412.513 541.53 412.552 551.417 413.292C569.073 414.734 576.767 409.085 596.281 404.489C608.882 401.49 616.725 399.737 632.634 399.386C638.804 399.269 645.048 399.464 651.33 400.516L651.442 401.606C642.409 405.852 626.761 410.293 616.019 412.396C608.25 413.916 592.49 415.357 588.661 415.474C582.417 415.746 577.139 415.24 570.151 415.707C553.053 416.915 548.518 422.446 533.91 423.07C524.766 423.459 514.842 423.031 506.107 420.226L506.07 419.135Z" fill="white"/>
<path d="M570.338 382.87L559.819 392.063C559.819 392.063 551.493 382.753 540.639 370.21C545.546 366.782 550.712 363.627 555.879 360.472C564.093 373.56 570.338 382.87 570.338 382.87Z" fill="#FFBA94"/>
<path d="M557.885 386.103C557.885 386.103 564.539 388.596 565.691 386.921C566.88 385.285 565.356 379.247 567.698 378.897C570.04 378.546 582.194 387.155 582.566 389.726C582.9 392.297 584.201 395.647 582.975 397.322C581.748 398.997 554.317 424.628 549.448 427.393C544.541 430.12 540.006 423.459 544.504 418.863C549.002 414.266 546.697 385.869 557.885 386.103Z" fill="#352E73"/>
<path d="M582.863 400.749C583.532 399.931 583.569 398.685 582.863 397.828C582.083 396.893 580.744 396.776 579.852 397.594L561.936 413.838C561.044 414.656 560.933 416.058 561.713 416.993C562.494 417.928 563.832 418.045 564.724 417.227L582.64 400.983C582.715 400.905 582.789 400.827 582.863 400.749Z" fill="#2D255D"/>
<path d="M546.698 449.207C547.069 449.207 547.404 449.012 547.59 448.662L569.408 411.734C569.706 411.228 569.557 410.527 569.074 410.215C568.591 409.904 567.922 410.059 567.624 410.566L545.805 447.493C545.508 448 545.657 448.701 546.14 449.012C546.326 449.168 546.512 449.207 546.698 449.207Z" fill="black"/>
<path d="M573.534 392.452C575.69 389.998 578.106 388.168 580.336 386.843C581.6 388.012 582.826 389.609 583.124 390.193C584.499 392.92 584.164 395.647 582.975 397.322C581.748 398.997 554.317 424.628 549.448 427.393C546.809 428.874 544.244 427.588 543.203 425.407C544.207 425.134 545.396 424.589 546.734 423.615C551.269 420.343 567.401 399.464 573.534 392.452Z" fill="#F3FFFF"/>
<path d="M595.315 269.789C595.315 269.789 501.759 288.097 498.079 315.169C495.737 332.27 547.552 386.843 547.552 386.843L564.279 374.261C564.279 374.261 539.561 333.01 536.736 327.518C532.015 318.442 596.431 320.74 599.999 317C603.53 313.222 595.315 269.789 595.315 269.789Z" fill="#2BA14C"/>
<path opacity="0.32" d="M595.316 269.789C595.316 269.789 585.54 271.698 572.159 275.203C568.59 287.318 564.167 306.6 561.379 320.506C567.884 320.039 574.835 319.688 580.968 319.337C586.432 314.78 590.781 310.651 591.933 309.443C594.015 307.262 596.059 293.395 597.434 282.059C596.319 275.009 595.316 269.789 595.316 269.789Z" fill="#2BA14C"/>
<path d="M500.644 448.467C502.391 448.467 503.841 446.987 503.841 445.117C503.841 400.672 469.347 364.484 426.899 364.484C408.723 364.484 391.067 371.262 377.203 383.532C375.865 384.74 375.679 386.843 376.831 388.245C377.983 389.648 379.99 389.843 381.329 388.635C394.041 377.377 410.21 371.145 426.899 371.145C465.816 371.145 497.447 404.294 497.447 445.078C497.447 446.948 498.86 448.467 500.644 448.467Z" fill="#FC008B"/>
<path d="M572.27 445.117C572.27 405.774 602.824 373.755 640.365 373.755C677.907 373.755 708.498 405.774 708.498 445.117C708.498 484.46 677.944 516.479 640.365 516.479C602.787 516.479 572.27 484.46 572.27 445.117ZM580.819 445.117C580.819 479.551 607.544 507.559 640.402 507.559C673.261 507.559 699.986 479.551 699.986 445.117C699.986 410.682 673.261 382.675 640.402 382.675C607.544 382.675 580.819 410.682 580.819 445.117Z" fill="#2D2861"/>
<path d="M577.994 445.117C577.994 409.046 605.983 379.715 640.402 379.715C674.821 379.715 702.81 409.046 702.81 445.117C702.81 481.188 674.821 510.519 640.402 510.519C605.983 510.519 577.994 481.188 577.994 445.117ZM581.19 445.117C581.19 479.318 607.73 507.169 640.402 507.169C673.037 507.169 699.614 479.357 699.614 445.117C699.614 410.916 673.074 383.065 640.402 383.065C607.767 383.065 581.19 410.916 581.19 445.117Z" fill="#7271B3"/>
<g opacity="0.57">
<path opacity="0.57" d="M587.547 445.117C587.547 414.578 611.261 389.726 640.402 389.726C669.544 389.726 693.258 414.578 693.258 445.117C693.258 475.656 669.544 500.509 640.402 500.509C611.261 500.509 587.547 475.656 587.547 445.117ZM589.666 445.117C589.666 474.449 612.414 498.288 640.402 498.288C668.391 498.288 691.139 474.449 691.139 445.117C691.139 415.785 668.391 391.946 640.402 391.946C612.414 391.946 589.666 415.785 589.666 445.117Z" fill="#F3FFFF"/>
</g>
<g opacity="0.57">
<path opacity="0.57" d="M640.403 493.536C665.901 493.536 686.605 471.8 686.605 445.117C686.605 437.326 684.895 429.886 681.513 422.992C681.252 422.446 680.621 422.213 680.063 422.524C679.543 422.797 679.32 423.459 679.617 424.043C682.851 430.626 684.486 437.716 684.486 445.156C684.486 470.631 664.712 491.354 640.403 491.354C634.009 491.354 627.839 489.952 622.078 487.186C621.558 486.914 620.926 487.186 620.666 487.732C620.405 488.277 620.666 488.939 621.186 489.212C627.245 492.095 633.712 493.536 640.403 493.536Z" fill="#F3FFFF"/>
</g>
<path d="M607.433 413.877C607.73 413.877 607.991 413.76 608.214 413.526C616.503 404.216 628.248 398.919 640.403 398.919C640.998 398.919 641.481 398.412 641.481 397.789C641.481 397.166 640.998 396.659 640.403 396.659C627.654 396.659 615.387 402.23 606.652 411.968C606.244 412.435 606.281 413.137 606.69 413.526C606.913 413.799 607.173 413.877 607.433 413.877Z" fill="#F3FFFF"/>
<path d="M592.789 389.453C593.532 389.453 594.238 389.18 594.833 388.674C607.545 377.417 623.714 371.184 640.403 371.184C654.49 371.184 668.058 375.508 679.692 383.688C681.141 384.701 683.148 384.311 684.115 382.792C685.081 381.273 684.71 379.169 683.26 378.157C670.585 369.236 655.754 364.523 640.403 364.523C622.227 364.523 604.571 371.301 590.707 383.571C589.369 384.779 589.183 386.882 590.335 388.285C590.967 389.064 591.859 389.453 592.789 389.453Z" fill="#FC008B"/>
<path d="M550.191 443.598C551.12 443.598 552.012 443.091 552.532 442.157L611.224 332.153C611.93 330.79 611.484 329.115 610.183 328.374C608.882 327.634 607.284 328.102 606.578 329.465L547.886 439.469C547.18 440.832 547.626 442.507 548.927 443.247C549.298 443.481 549.744 443.598 550.191 443.598Z" fill="#FC008B"/>
<path d="M545.135 449.051C643.97 447.259 641.331 449.285 642.743 446.402C643.747 444.377 646.461 450.609 594.943 357.55L483.173 335.931C481.463 335.62 479.939 337.022 480.051 338.853C480.125 340.255 479.121 337.918 545.135 449.051ZM488.154 342.553L591.598 362.575L635.83 442.39L548.109 443.442L488.154 342.553Z" fill="#FC008B"/>
<path d="M483.173 335.931L488.563 336.983L483.694 345.787C479.902 339.359 480.051 339.398 480.014 338.814C479.939 337.022 481.501 335.581 483.173 335.931Z" fill="#D6007E"/>
<path d="M606.54 329.426C607.246 328.063 608.882 327.595 610.145 328.336C611.446 329.076 611.892 330.79 611.186 332.114L607.841 338.346L602.34 337.217L606.54 329.426Z" fill="#D6007E"/>
<path d="M640.402 437.677C640.848 437.677 641.183 437.326 641.22 436.859C641.257 436.392 640.885 435.963 640.439 435.963L546.66 431.406C546.214 431.367 545.805 431.756 545.805 432.224C545.768 432.691 546.139 433.12 546.585 433.12L640.365 437.677H640.402Z" fill="#352E73"/>
<path d="M545.285 458.828H545.322L640.44 454.271C640.886 454.232 641.258 453.843 641.221 453.375C641.184 452.908 640.812 452.518 640.366 452.557L545.248 457.115C544.802 457.153 544.43 457.543 544.467 458.01C544.505 458.478 544.839 458.828 545.285 458.828Z" fill="#352E73"/>
<path d="M561.9 444.611C562.197 453.882 554.949 461.439 546.14 461.127C538.148 460.854 531.606 454.037 531.346 445.624C531.049 436.353 538.297 428.796 547.143 429.068C555.135 429.38 561.64 436.197 561.9 444.611Z" fill="#352E73"/>
<path d="M533.279 452.986L542.162 429.809C543.575 429.341 545.062 429.107 546.623 429.107C551.12 429.107 555.172 431.133 557.96 434.405C557.365 438.144 556.473 441.572 555.246 442.235C552.384 443.793 549.782 451.233 548.147 455.673C547.515 457.387 546.846 459.335 546.214 461.127C540.676 461.01 535.844 457.738 533.279 452.986Z" fill="#352E73"/>
<path d="M524.804 484.304C525.176 484.304 525.51 484.109 525.696 483.758L547.515 446.831C547.812 446.325 547.664 445.624 547.18 445.312C546.697 445 546.028 445.156 545.731 445.663L523.912 482.59C523.615 483.096 523.763 483.797 524.246 484.109C524.432 484.226 524.618 484.304 524.804 484.304Z" fill="black"/>
<path d="M523.912 488.121C524.953 488.199 525.882 487.459 526.105 486.329C526.328 485.122 525.622 483.953 524.47 483.681L501.313 478.617C500.161 478.383 499.046 479.123 498.786 480.331C498.563 481.538 499.269 482.707 500.421 482.979L523.578 488.004C523.727 488.082 523.838 488.121 523.912 488.121Z" fill="#352E73"/>
<path d="M623.527 325.492H602.786C601.262 325.492 599.999 326.816 599.999 328.413V331.919C599.999 333.516 601.262 334.841 602.786 334.841H628.991C631.035 334.841 632.448 332.581 631.518 330.673C630.032 327.595 627.021 325.492 623.527 325.492Z" fill="#352E73"/>
<path d="M540.935 466.463L527.628 463.191C527.628 463.191 529.747 450.609 532.758 433.976C538.333 436.002 543.797 438.456 549.336 440.871C544.281 455.634 540.935 466.463 540.935 466.463Z" fill="#FF8A63"/>
<path d="M530.974 457.972C530.974 457.972 533.093 465.022 535.026 465.022C536.996 465.022 540.676 460.114 542.348 461.867C544.021 463.62 544.764 478.967 543.017 480.798C541.27 482.629 539.486 485.706 537.479 485.706C535.472 485.706 499.417 478.149 494.399 475.695C489.381 473.241 491.723 465.451 497.93 466.424C504.137 467.476 524.432 448.467 530.974 457.972Z" fill="#352E73"/>
<path d="M535.546 474.916C538.706 475.228 541.568 476.163 543.91 477.253C543.761 479.006 543.315 480.993 543.018 481.616C541.754 484.421 539.486 485.784 537.479 485.784C535.472 485.784 499.417 478.227 494.399 475.773C491.686 474.449 491.128 471.527 492.169 469.307C492.987 469.969 494.139 470.631 495.626 471.177C500.904 473.008 526.514 473.942 535.546 474.916Z" fill="#F3FFFF"/>
<path d="M582.046 270.139L612.451 258.882C612.451 258.882 635.013 279.956 630.887 294.018C626.761 308.08 593.234 343.216 577.139 372.275C567.587 389.492 553.611 439.625 546.251 461.127C540.713 458.712 529.302 452.245 523.726 450.22C528.93 421.433 545.879 364.172 550.377 354.94C557.476 340.411 582.046 270.139 582.046 270.139Z" fill="#8CD334"/>
<path opacity="0.32" d="M581.154 272.672C587.064 267.802 606.206 265.894 618.398 265.193C624.754 272.516 633.6 284.786 630.887 294.057C630.85 294.135 630.85 294.213 630.813 294.252C617.952 292.421 582.975 286.539 579.593 277.112C580.225 275.32 580.782 273.84 581.154 272.672Z" fill="#2BA14C"/>
<path d="M552.05 178.678C551.269 180.937 550.526 183.235 549.968 185.416C547.292 195.466 546.065 216.852 549.968 224.097C553.871 231.342 574.463 275.476 580.299 277.541C586.135 279.566 624.828 288.175 635.385 280.423C642.373 275.32 611.224 193.675 602.526 175.055C598.921 167.303 590.298 163.33 581.934 161.967C580.039 161.655 555.767 168.004 552.05 178.678Z" fill="#FC008B"/>
<path d="M554.279 144.204L556.361 161.889C556.361 161.889 557.513 175.873 558.071 176.34C563.46 180.82 581.934 161.967 581.934 161.967L569.11 138.478L554.279 144.204Z" fill="#FF8A63"/>
<path opacity="0.68" d="M572.01 143.931L569.111 138.478L554.317 144.204L556.399 161.889C558.332 161.304 560.042 160.564 561.417 159.552C565.357 156.747 569.334 150.592 572.01 143.931Z" fill="#FF4900"/>
<path d="M555.58 104.472C555.58 104.472 554.837 104.16 550.6 110.237C547.589 114.561 545.768 119.742 543.872 124.689C541.084 132.051 538.742 140.075 540.861 147.944C541.976 152.073 557.848 153.202 564.241 149.658C570.634 146.074 576.582 134.622 576.173 126.48C575.838 118.339 558.443 102.875 555.58 104.472Z" fill="#FF8A63"/>
<path opacity="0.68" d="M547.107 116.664C548.111 114.405 549.226 112.262 550.638 110.276C551.865 108.523 552.794 107.315 553.5 106.458C558.146 108.406 564.354 111.328 568.034 113.08C569.037 114.132 570.004 115.223 570.896 116.314L568.108 131.817L565.023 124.221C565.023 124.221 562.198 118.612 555.73 117.21C552.348 116.391 549.263 116.43 547.107 116.664Z" fill="#FF4900"/>
<path d="M566.063 144.165C567.029 146.346 568.665 146.931 573.646 147.048C580.039 147.164 586.358 142.101 587.993 132.83C592.937 104.472 567.289 97.5382 560.673 94.8504C558.22 93.8376 556.287 94.6557 554.8 96.1359C552.459 98.4731 549.299 99.6027 546.14 99.0574C544.764 98.8236 541.047 98.7457 540.044 100.966C537.182 107.315 537.107 113.937 547.924 113.937C572.419 113.937 564.167 139.958 566.063 144.165Z" fill="#2D2861"/>
<path d="M565.022 128.077C565.022 128.077 569.26 120.209 570.486 125.078C571.713 129.908 570.598 139.608 565.914 136.686C561.231 133.804 565.022 128.077 565.022 128.077Z" fill="#FF8A63"/>
<path d="M640.402 457.037C646.684 457.037 651.776 451.7 651.776 445.117C651.776 438.534 646.684 433.198 640.402 433.198C634.121 433.198 629.028 438.534 629.028 445.117C629.028 451.7 634.121 457.037 640.402 457.037Z" fill="#352E73"/>
<path d="M650.104 444.455C650.476 450.609 645.644 455.673 639.771 455.284C634.939 454.972 630.999 450.843 630.701 445.779C630.33 439.625 635.162 434.561 641.035 434.95C645.867 435.262 649.807 439.391 650.104 444.455Z" fill="#ADEFF7"/>
<path d="M637.69 444.611C637.392 446.597 638.99 448.272 640.886 447.922C642.038 447.727 642.931 446.753 643.116 445.584C643.414 443.598 641.815 441.923 639.92 442.234C638.805 442.468 637.875 443.442 637.69 444.611Z" fill="#F3FFFF"/>
<g opacity="0.57">
<path opacity="0.57" d="M428.014 493.536C453.512 493.536 474.216 471.8 474.216 445.117C474.216 437.326 472.506 429.886 469.124 422.992C468.864 422.446 468.232 422.213 467.674 422.524C467.154 422.797 466.931 423.459 467.228 424.043C470.462 430.626 472.097 437.716 472.097 445.156C472.097 470.631 452.323 491.354 428.014 491.354C421.62 491.354 415.45 489.952 409.689 487.186C409.168 486.914 408.537 487.186 408.276 487.732C408.016 488.277 408.276 488.939 408.797 489.212C414.855 492.095 421.323 493.536 428.014 493.536Z" fill="#F3FFFF"/>
</g>
<path d="M359.918 445.117C359.918 405.774 390.472 373.755 428.051 373.755C465.593 373.755 496.183 405.774 496.183 445.117C496.183 484.46 465.63 516.479 428.051 516.479C390.472 516.479 359.918 484.46 359.918 445.117ZM368.43 445.117C368.43 479.551 395.156 507.559 428.014 507.559C460.872 507.559 487.597 479.551 487.597 445.117C487.597 410.682 460.872 382.675 428.014 382.675C395.156 382.675 368.43 410.682 368.43 445.117Z" fill="#2D2861"/>
<path d="M365.605 445.117C365.605 409.046 393.594 379.715 428.014 379.715C462.433 379.715 490.422 409.046 490.422 445.117C490.422 481.188 462.433 510.519 428.014 510.519C393.594 510.519 365.605 481.188 365.605 445.117ZM368.802 445.117C368.802 479.318 395.341 507.169 428.014 507.169C460.649 507.169 487.225 479.357 487.225 445.117C487.225 410.916 460.686 383.065 428.014 383.065C395.379 383.065 368.802 410.916 368.802 445.117Z" fill="#7271B3"/>
<g opacity="0.57">
<path opacity="0.57" d="M375.158 445.117C375.158 414.578 398.873 389.726 428.014 389.726C457.155 389.726 480.87 414.578 480.87 445.117C480.87 475.656 457.155 500.509 428.014 500.509C398.873 500.509 375.158 475.656 375.158 445.117ZM377.277 445.117C377.277 474.449 400.025 498.288 428.014 498.288C456.003 498.288 478.751 474.449 478.751 445.117C478.751 415.785 456.003 391.946 428.014 391.946C400.062 391.946 377.277 415.785 377.277 445.117Z" fill="#F3FFFF"/>
</g>
<path d="M426.899 447.922C427.828 447.922 428.757 447.415 429.241 446.48L500.867 309.794C501.536 308.469 501.908 306.989 501.908 305.509V296.667C501.908 294.914 503.023 294.057 503.506 293.784C503.989 293.511 505.253 292.927 506.703 293.823L519.192 301.653C520.456 302.432 522.091 302.003 522.834 300.679C523.578 299.354 523.169 297.64 521.905 296.861L509.416 289.032C506.777 287.357 503.58 287.318 500.867 288.915C498.191 290.512 496.555 293.395 496.555 296.628V305.509C496.555 306.054 496.407 306.6 496.146 307.106L424.483 443.754C423.777 445.117 424.26 446.792 425.524 447.532C426.007 447.805 426.453 447.922 426.899 447.922Z" fill="#FC008B"/>
<path d="M428.014 457.037C434.295 457.037 439.388 451.7 439.388 445.117C439.388 438.534 434.295 433.198 428.014 433.198C421.732 433.198 416.64 438.534 416.64 445.117C416.64 451.7 421.769 457.037 428.014 457.037Z" fill="#352E73"/>
<path d="M437.715 444.455C438.087 450.609 433.255 455.673 427.382 455.284C422.55 454.972 418.61 450.843 418.313 445.779C417.941 439.625 422.773 434.561 428.646 434.95C433.478 435.262 437.418 439.391 437.715 444.455Z" fill="#ADEFF7"/>
<path d="M425.3 444.611C425.003 446.597 426.601 448.272 428.497 447.922C429.649 447.727 430.541 446.753 430.727 445.584C431.024 443.598 429.426 441.923 427.53 442.234C426.415 442.468 425.486 443.442 425.3 444.611Z" fill="#F3FFFF"/>
<path d="M583.794 162.2C604.423 148.8 635.348 170.926 633.861 176.068C657.65 197.258 661.813 214.086 669.396 230.018C676.941 245.911 666.311 252.533 652.038 259.622C637.764 266.751 628.955 249.884 622.153 234.692C615.351 219.5 582.976 165.667 583.794 162.2Z" fill="#FCC13F"/>
<path d="M633.861 176.068C622.375 182.846 606.281 189.935 594.721 166.407C605.574 191.415 619.178 184.17 624.605 183.001C630.032 181.833 633.861 176.068 633.861 176.068Z" fill="#FCC13F"/>
<path d="M654.119 212.45C658.876 219.929 668.132 236.056 664.192 240.457C660.289 244.859 648.655 251.169 644.454 244.703C640.254 238.237 633.824 222.422 633.824 222.422C647.131 219.968 654.119 212.45 654.119 212.45Z" fill="#FCC13F"/>
<path d="M655.977 224.876C652.111 228.304 644.603 232.667 640.588 230.953C638.618 230.096 636.685 228.46 635.682 226.746C634.864 224.642 634.753 222.811 634.827 223.435C648.097 220.942 654.75 213.813 654.75 213.813C655.828 216.813 659.842 221.448 655.977 224.876Z" fill="#FFB9AB"/>
<path d="M655.048 223.902C651.182 227.33 643.674 231.693 639.659 229.979C637.689 229.122 636.165 227.252 635.162 225.538C634.381 223.668 633.861 222.422 633.861 222.422C647.131 219.929 654.119 212.45 654.119 212.45C655.271 215.449 658.914 220.474 655.048 223.902Z" fill="#FEE2BF"/>
<path d="M592.305 165.589C572.79 159.123 562.234 172.913 564.762 192.116C578.589 236.25 636.054 253.701 636.054 253.701L629.028 238.549C629.028 238.549 605.277 236.211 581.042 208.827C564.353 189.974 568.33 183.858 574.24 178.171C583.793 168.978 592.825 175.094 592.825 175.094L592.305 165.589Z" fill="#FCC13F"/>
<path opacity="0.5" d="M591.524 186.39C591.524 186.39 600.482 194.454 594.535 215.216C588.588 235.939 585.094 246.534 577.957 255.61C577.102 256.701 571.453 256.973 570.932 257.519C570.895 257.558 570.858 257.597 570.821 257.636C570.114 258.298 569.26 259.077 568.293 260.012C564.242 252.611 559.967 244.119 556.51 237.107C562.643 221.448 583.607 179.028 591.524 186.39Z" fill="#D6007E"/>
<path d="M517.11 283.033C520.047 283.033 535.026 262.544 543.984 249.962C548.407 243.729 551.567 236.601 553.277 229.005L555.841 217.631L578.143 219.189C578.143 219.189 570.263 247.742 567.401 250.78C567.364 250.819 567.327 250.858 567.29 250.897C559.595 258.103 531.458 284.552 528.559 287.006C524.581 290.356 520.381 294.641 520.381 299.744C520.381 304.847 503.06 301.458 503.06 297.485C503.097 293.511 512.873 283.033 517.11 283.033Z" fill="#FF8A63"/>
<path d="M524.135 274.58C526.068 270.607 549.633 231.031 550.6 226.668L553.164 215.294L575.466 216.852C575.466 216.852 554.28 229.901 551.009 235.783C545.731 239.756 529.376 275.359 524.135 274.58Z" fill="#EF7352"/>
<path d="M587.955 179.651C587.955 179.651 596.69 187.325 590.743 208.048C584.796 228.771 574.388 248.871 574.388 248.871C574.388 248.871 557.03 242.717 546.92 232.004C546.957 232.004 558.517 163.836 587.955 179.651Z" fill="#D6007E"/>
<defs>
<linearGradient id="paint0_linear" x1="13.0891" y1="270.213" x2="766.529" y2="270.213" gradientUnits="userSpaceOnUse">
<stop stop-color="#BCE3F1"/>
<stop offset="1" stop-color="#D0F7FF"/>
</linearGradient>
</defs>
</svg>
