<?xml version="1.0" encoding="UTF-8" standalone="no"?>
<svg
   width="1441"
   height="611"
   viewBox="0 0 1441 611"
   fill="none"
   version="1.1"
   id="svg51"
   sodipodi:docname="stage-697326382.svg"
   inkscape:version="1.1 (c68e22c387, 2021-05-23)"
   xmlns:inkscape="http://www.inkscape.org/namespaces/inkscape"
   xmlns:sodipodi="http://sodipodi.sourceforge.net/DTD/sodipodi-0.dtd"
   xmlns="http://www.w3.org/2000/svg"
   xmlns:svg="http://www.w3.org/2000/svg">
  <sodipodi:namedview
     id="namedview53"
     pagecolor="#ffffff"
     bordercolor="#666666"
     borderopacity="1.0"
     inkscape:pageshadow="2"
     inkscape:pageopacity="0.0"
     inkscape:pagecheckerboard="0"
     showgrid="false"
     inkscape:snap-global="true"
     inkscape:snap-page="true"
     inkscape:snap-nodes="true"
     inkscape:snap-bbox="true"
     inkscape:zoom="0.54075758"
     inkscape:cx="711.96413"
     inkscape:cy="378.17316"
     inkscape:window-width="1857"
     inkscape:window-height="1057"
     inkscape:window-x="-8"
     inkscape:window-y="-8"
     inkscape:window-maximized="1"
     inkscape:current-layer="svg51" />
  <defs
     id="defs49">
    <linearGradient
       id="paint0_linear"
       x1="686.72"
       y1="337.99"
       x2="1440.16"
       y2="337.99"
       gradientUnits="userSpaceOnUse">
      <stop
         stop-color="#BCE3F1"
         id="stop44" />
      <stop
         offset="1"
         stop-color="#D0F7FF"
         id="stop46" />
    </linearGradient>
    <linearGradient
       id="paint0_linear-1"
       x1="113.845"
       y1="337.401"
       x2="867.285"
       y2="337.401"
       gradientUnits="userSpaceOnUse">
      <stop
         stop-color="#BCE3F1"
         id="stop1337" />
      <stop
         offset="1"
         stop-color="#D0F7FF"
         id="stop1339" />
    </linearGradient>
  </defs>
  <g
     style="fill:none"
     id="g1426"
     transform="translate(578.814,1.095)">
    <path
       d="m 491.681,527.733 c 5.196,-3.122 11.236,-1.594 16.357,1.663 4.145,-10.91 11.882,-13.65 11.422,-13.405 0.054,-0.021 1.583,-0.692 1.513,-0.633 3.7,-1.597 11.566,-3.088 18.658,-2.567 -14.047,2.775 -24.623,5.933 -28.37,19.843 -0.016,0.038 -0.879,3.602 -0.879,3.602 -2.157,-1.588 -9.882,-9.011 -17.061,-5.502 -5.383,2.732 -12.036,9.252 -16.321,13.56 3.278,-5.889 8.93,-12.971 14.681,-16.561 z"
       fill="#7271b3"
       id="path1187" />
    <path
       d="m 697.037,24.6088 c 3.907,-2.3469 8.447,-1.1979 12.298,1.2505 3.116,-8.2025 8.932,-10.2622 8.587,-10.0781 0.04,-0.016 1.19,-0.5202 1.137,-0.4762 2.782,-1.2005 8.695,-2.3211 14.027,-1.9296 -10.561,2.0862 -18.512,4.4604 -21.329,14.9185 -0.012,0.0281 -0.66,2.7078 -0.66,2.7078 -1.622,-1.1937 -7.429,-6.7743 -12.827,-4.1363 -4.047,2.0538 -9.049,6.9556 -12.27,10.1941 2.464,-4.4272 6.713,-9.7512 11.037,-12.4507 z"
       fill="#7271b3"
       id="path1189" />
    <path
       d="m 383.376,479.083 c 3.375,1.807 4.488,5.659 4.392,9.519 7.313,-1.342 11.313,1.988 11.024,1.825 0.039,0.01 0.9,0.668 0.833,0.607 2.087,1.499 5.412,5.32 7.415,9.415 -6.086,-6.814 -11.24,-11.557 -20.045,-9.017 -0.038,-0.01 -2.268,0.691 -2.268,0.691 0.169,-1.686 1.721,-8.443 -2.517,-11.205 -3.223,-2.061 -8.975,-3.546 -12.713,-4.481 4.348,-0.081 10.05,0.672 13.879,2.646 z"
       fill="#7271b3"
       id="path1191" />
    <path
       d="m 317.759,255.531 9.09,-1.721 c 0,0 0.428,3.55 -3.538,4.432 -4.833,1.047 -5.552,-2.711 -5.552,-2.711 z"
       fill="#ffffff"
       id="path1193" />
    <path
       d="m 637.68,203.561 8.768,2.954 c 0,0 -1.368,3.304 -5.257,2.129 -4.726,-1.455 -3.511,-5.083 -3.511,-5.083 z"
       fill="#ffffff"
       id="path1195" />
    <path
       d="M 833.817,172.223 C 756.312,42.1042 698.075,219.338 584.787,103.52 309.015,15.0566 410.695,372.644 355.984,360.212 c -78,-17.809 -87.247,-111.686 -177.587,-33.124 -22.546,19.641 -52.762,69.99 -61.113,128.873 -8.783,61.766 2.072,133.821 2.072,133.821 l 717.925,19.329 c 19.608,-67.807 58.113,-333.54 -3.464,-436.888 z"
       fill="url(#paint0_linear)"
       id="path1197"
       style="fill:url(#paint0_linear-1)" />
    <path
       d="m 112.971,586.878 h 741.594 c 6.562,0 11.873,6.773 11.873,15.142 V 610 h -765.34 v -7.98 c 0,-8.369 5.31,-15.142 11.873,-15.142 z"
       fill="#fee2bf"
       id="path1199" />
    <path
       opacity="0.22"
       d="m 664.701,376.437 c 0.037,5.337 0.074,10.634 0.111,15.971 -67.909,-1.091 -135.818,-2.143 -203.728,-3.233 -110.729,0 -217.778,-42.576 -284.201,-90.527 -0.409,-0.312 -0.855,-0.585 -1.264,-0.896 28.77,0.935 59.398,1.675 87.312,9.816 27.209,7.868 49.25,28.397 75.901,38.252 66.46,24.618 140.837,-11.764 209.899,3.038 39.14,8.375 76.421,33.11 115.97,27.306 0,0.078 0,0.195 0,0.273 z"
       fill="#fee2bf"
       id="path1201" />
    <path
       d="m 420.346,164.727 c 3.122,-1.364 6.839,-2.182 10.816,-2.221 3.68,-5.765 12.229,-9.621 21.968,-9.621 5.835,0 11.374,1.441 15.648,3.895 4.758,-7.167 15.649,-12.192 28.026,-12.192 8.14,0 15.835,2.103 21.522,5.882 0.817,-0.078 1.635,-0.117 2.453,-0.117 8.846,0 16.057,4.752 16.057,10.595 0,1.325 -0.371,2.61 -1.078,3.818 H 420.346 Z"
       fill="#ffffff"
       id="path1203" />
    <path
       d="m 536.874,118.139 c 3.122,-1.364 6.839,-2.182 10.816,-2.221 3.68,-5.765 12.229,-9.621 21.968,-9.621 5.835,0 11.374,1.441 15.648,3.895 4.758,-7.167 15.649,-12.1921 28.026,-12.1921 8.141,0 15.835,2.1031 21.522,5.8821 0.818,-0.078 1.635,-0.117 2.453,-0.117 8.846,0 16.057,4.752 16.057,10.595 0,1.325 -0.371,2.61 -1.078,3.818 H 536.874 Z"
       fill="#ffffff"
       id="path1205" />
    <path
       d="m 481.36,268.572 c -1.227,-0.078 -2.453,-0.117 -3.68,-0.117 -9.144,-14.413 -30.516,-24.034 -54.751,-24.034 -14.571,0 -28.361,3.584 -39.029,9.699 -11.857,-17.879 -39.065,-30.422 -69.879,-30.422 -20.258,0 -39.474,5.298 -53.71,14.646 -2.045,-0.194 -4.089,-0.311 -6.171,-0.311 -22.079,0 -39.994,11.88 -39.994,26.449 0,0.039 0,0.078 0,0.117 0.037,5.219 4.163,9.387 9.106,9.387 h 257.959 c 3.308,-0.039 3.457,-5.219 0.149,-5.414 z"
       fill="#ffffff"
       id="path1207" />
    <path
       d="m 790.634,576.21 c 6.244,-4.441 37.727,12.348 37.727,12.348 0,0 -19.402,-34.863 -12.043,-44.367 7.36,-9.466 17.954,7.323 17.954,7.323 0,0 -14.497,-28.007 1.449,-37.668 12.526,-7.596 24.012,12.933 26.465,17.49 v 78.569 h -76.273 c 0,-0.039 -1.561,-29.254 4.721,-33.695 z"
       fill="#238e3c"
       id="path1209" />
    <path
       d="m 814.015,204.166 c -5.39,1.285 -8.4,6.349 -9.739,11.958 -9.627,-4.791 -16.466,-1.558 -16.02,-1.675 -0.037,0 -1.486,0.584 -1.412,0.545 -3.457,1.364 -9.553,5.532 -13.902,10.557 11.003,-7.362 19.998,-12.193 31.26,-5.103 0.037,0.039 2.862,1.909 2.862,1.909 0.409,-2.493 0.818,-12.777 7.732,-15.114 5.278,-1.675 13.79,-1.597 19.328,-1.441 -5.836,-1.831 -14.05,-2.961 -20.109,-1.636 z"
       fill="#7271b3"
       id="path1211" />
    <path
       d="m 591.476,205.355 c 3.457,0.818 5.39,4.09 6.245,7.674 6.207,-3.078 10.593,-1.013 10.296,-1.091 0.037,0 0.966,0.389 0.892,0.351 2.23,0.856 6.133,3.544 8.921,6.816 -7.1,-4.752 -12.861,-7.829 -20.109,-3.272 -0.037,0 -1.859,1.208 -1.859,1.208 -0.26,-1.597 -0.52,-8.219 -4.98,-9.7 -3.383,-1.09 -8.884,-1.012 -12.452,-0.934 3.865,-1.169 9.143,-1.909 13.046,-1.052 z"
       fill="#7271b3"
       id="path1213" />
    <path
       d="m 281.814,68.3566 c 3.233,0.7791 5.055,3.8175 5.835,7.2064 5.799,-2.8826 9.925,-0.9349 9.665,-1.0128 0.037,0 0.892,0.3506 0.854,0.3116 2.082,0.818 5.762,3.311 8.364,6.3494 -6.617,-4.4407 -12.043,-7.3232 -18.808,-3.0773 -0.037,0 -1.71,1.1296 -1.71,1.1296 -0.26,-1.5192 -0.483,-7.6737 -4.646,-9.0761 -3.234,-1.0127 -8.326,-0.9348 -11.672,-0.8569 3.531,-1.0907 8.475,-1.7919 12.118,-0.9739 z"
       fill="#7271b3"
       id="path1215" />
    <path
       d="m 746.512,167.414 c -3.197,-3.272 -7.843,-3.155 -12.043,-1.636 -1.152,-8.959 -6.282,-12.426 -5.984,-12.153 -0.038,0 -1.041,-0.818 -0.967,-0.74 -2.416,-1.87 -7.805,-4.363 -12.972,-5.22 9.627,4.558 16.726,8.843 17.098,19.983 0,0.039 0.037,2.883 0.037,2.883 1.821,-0.818 8.624,-5.064 13.195,-1.169 3.42,3 7.137,9.115 9.479,13.127 -1.413,-5.025 -4.312,-11.374 -7.843,-15.075 z"
       fill="#7271b3"
       id="path1217" />
    <path
       d="m 230.697,188.017 c -4.498,3.389 -5.39,9.271 -4.498,14.997 -10.667,-0.467 -15.76,5.298 -15.388,4.986 -0.037,0.039 -1.152,1.13 -1.078,1.091 -2.676,2.649 -6.765,8.998 -8.883,15.425 7.396,-11.296 13.864,-19.398 26.911,-17.451 0.037,0 3.345,0.585 3.345,0.585 -0.558,-2.493 -4.014,-12.076 1.524,-17.062 4.237,-3.701 12.117,-7.089 17.284,-9.232 -6.133,0.662 -14.125,2.961 -19.217,6.661 z"
       fill="#7271b3"
       id="path1219" />
    <path
       d="m 44.0158,400.689 c -5.577,0.78 -9.2113,5.491 -11.2099,10.93 -9.1008,-5.585 -16.3508,-3.015 -15.8746,-3.107 -0.0514,0.016 -1.5557,0.428 -1.4718,0.43 -3.6254,1.018 -10.28148,4.585 -15.252875,9.177 11.949175,-6.288 21.535975,-10.234 31.998475,-2.2 0.0325,0.018 2.6414,2.134 2.6414,2.134 0.7223,-2.45 2.3497,-12.506 9.6118,-14.178 5.5007,-1.18 14.0353,-0.319 19.5924,0.315 -5.6839,-2.397 -13.7866,-4.266 -20.0349,-3.501 z"
       fill="#7271b3"
       id="path1221" />
    <path
       d="m 343.424,134.176 c -4.163,-1.675 -8.4,0.272 -11.708,3.428 -4.423,-7.791 -10.408,-8.882 -10.036,-8.765 -0.037,0 -1.264,-0.312 -1.19,-0.312 -2.899,-0.74 -8.809,-0.818 -13.901,0.507 10.593,0.272 18.696,1.285 23.194,11.413 0,0.039 1.115,2.649 1.115,2.649 1.375,-1.48 6.059,-8.18 11.709,-6.466 4.274,1.363 9.961,5.492 13.604,8.219 -3.123,-4.012 -8.178,-8.687 -12.787,-10.673 z"
       fill="#7271b3"
       id="path1223" />
    <path
       d="m 457.887,523.734 c 1.747,0 3.197,-1.481 3.197,-3.35 0,-44.446 -34.494,-80.634 -76.942,-80.634 -18.176,0 -35.832,6.778 -49.696,19.049 -1.338,1.207 -1.524,3.311 -0.372,4.713 1.152,1.402 3.16,1.597 4.498,0.389 12.712,-11.257 28.881,-17.49 45.57,-17.49 38.917,0 70.549,33.15 70.549,73.934 0,1.869 1.412,3.389 3.196,3.389 z"
       fill="#fc008b"
       id="path1225" />
    <path
       d="m 529.514,520.383 c 0,-39.342 30.553,-71.362 68.095,-71.362 37.541,0 68.132,32.02 68.132,71.362 0,39.343 -30.553,71.362 -68.132,71.362 -37.579,0 -68.095,-32.019 -68.095,-71.362 z m 8.549,0 c 0,34.435 26.725,62.442 59.583,62.442 32.858,0 59.583,-28.007 59.583,-62.442 0,-34.434 -26.725,-62.442 -59.583,-62.442 -32.858,0 -59.583,28.008 -59.583,62.442 z"
       fill="#2d2861"
       id="path1227" />
    <path
       d="m 535.238,520.384 c 0,-36.071 27.989,-65.403 62.409,-65.403 34.419,0 62.408,29.332 62.408,65.403 0,36.07 -27.989,65.402 -62.408,65.402 -34.42,0 -62.409,-29.332 -62.409,-65.402 z m 3.197,0 c 0,34.2 26.539,62.052 59.212,62.052 32.635,0 59.211,-27.813 59.211,-62.052 0,-34.201 -26.539,-62.053 -59.211,-62.053 -32.636,0 -59.212,27.852 -59.212,62.053 z"
       fill="#7271b3"
       id="path1229" />
    <g
       opacity="0.57"
       id="g1233">
      <path
         opacity="0.57"
         d="m 544.791,520.384 c 0,-30.54 23.714,-55.392 52.856,-55.392 29.141,0 52.855,24.852 52.855,55.392 0,30.539 -23.714,55.391 -52.855,55.391 -29.142,0 -52.856,-24.852 -52.856,-55.391 z m 2.119,0 c 0,29.331 22.748,53.171 50.737,53.171 27.989,0 50.737,-23.84 50.737,-53.171 0,-29.332 -22.748,-53.171 -50.737,-53.171 -27.989,0 -50.737,23.839 -50.737,53.171 z"
         fill="#f3ffff"
         id="path1231" />
    </g>
    <g
       opacity="0.57"
       id="g1237">
      <path
         opacity="0.57"
         d="m 597.646,568.802 c 25.498,0 46.202,-21.736 46.202,-48.418 0,-7.791 -1.71,-15.231 -5.092,-22.126 -0.26,-0.545 -0.892,-0.779 -1.45,-0.467 -0.52,0.272 -0.743,0.935 -0.446,1.519 3.234,6.583 4.869,13.672 4.869,21.112 0,25.476 -19.774,46.199 -44.083,46.199 -6.393,0 -12.563,-1.402 -18.325,-4.168 -0.52,-0.273 -1.152,0 -1.412,0.545 -0.26,0.546 0,1.208 0.52,1.48 6.059,2.883 12.526,4.324 19.217,4.324 z"
         fill="#f3ffff"
         id="path1235" />
    </g>
    <path
       d="m 564.677,489.143 c 0.297,0 0.557,-0.117 0.78,-0.35 8.289,-9.31 20.035,-14.608 32.19,-14.608 0.594,0 1.078,-0.506 1.078,-1.13 0,-0.623 -0.484,-1.129 -1.078,-1.129 -12.75,0 -25.016,5.57 -33.751,15.308 -0.409,0.468 -0.372,1.169 0.037,1.559 0.223,0.272 0.483,0.35 0.744,0.35 z"
       fill="#f3ffff"
       id="path1239" />
    <path
       d="m 550.033,464.72 c 0.744,0 1.45,-0.273 2.045,-0.779 12.712,-11.258 28.881,-17.49 45.57,-17.49 14.087,0 27.654,4.323 39.288,12.504 1.45,1.012 3.457,0.623 4.424,-0.896 0.966,-1.52 0.594,-3.623 -0.855,-4.636 -12.675,-8.92 -27.506,-13.633 -42.857,-13.633 -18.176,0 -35.832,6.777 -49.696,19.048 -1.338,1.207 -1.524,3.311 -0.372,4.713 0.632,0.779 1.524,1.169 2.453,1.169 z"
       fill="#fc008b"
       id="path1241" />
    <path
       d="m 507.435,518.864 c 0.929,0 1.821,-0.506 2.342,-1.441 l 58.691,-110.004 c 0.707,-1.363 0.261,-3.038 -1.04,-3.778 -1.301,-0.74 -2.9,-0.273 -3.606,1.091 l -58.691,110.003 c -0.707,1.364 -0.261,3.039 1.04,3.779 0.372,0.233 0.818,0.35 1.264,0.35 z"
       fill="#fc008b"
       id="path1243" />
    <path
       d="m 502.38,524.318 c 98.835,-1.792 96.196,0.233 97.609,-2.649 1.003,-2.026 3.717,4.207 -47.801,-88.852 l -111.77,-21.619 c -1.71,-0.312 -3.234,1.09 -3.122,2.921 0.074,1.403 -0.929,-0.935 65.084,110.199 z m -56.981,-106.498 103.444,20.022 44.232,79.815 -87.721,1.051 z"
       fill="#fc008b"
       id="path1245" />
    <path
       d="m 440.418,411.198 5.39,1.052 -4.87,8.803 c -3.791,-6.427 -3.642,-6.388 -3.68,-6.973 -0.074,-1.791 1.487,-3.233 3.16,-2.882 z"
       fill="#d6007e"
       id="path1247" />
    <path
       d="m 563.785,404.693 c 0.706,-1.364 2.342,-1.831 3.606,-1.091 1.3,0.74 1.747,2.454 1.04,3.778 l -3.345,6.233 -5.501,-1.13 z"
       fill="#d6007e"
       id="path1249" />
    <path
       d="m 597.645,512.944 c 0.446,0 0.781,-0.351 0.818,-0.819 0.037,-0.467 -0.335,-0.895 -0.781,-0.895 l -93.78,-4.558 c -0.446,-0.039 -0.855,0.351 -0.855,0.818 -0.037,0.468 0.335,0.896 0.781,0.896 l 93.78,4.558 z"
       fill="#352e73"
       id="path1251" />
    <path
       d="m 502.529,534.095 h 0.037 l 95.118,-4.557 c 0.446,-0.039 0.818,-0.429 0.781,-0.896 -0.037,-0.468 -0.409,-0.857 -0.855,-0.818 l -95.118,4.557 c -0.446,0.039 -0.818,0.428 -0.78,0.896 0.037,0.467 0.371,0.818 0.817,0.818 z"
       fill="#352e73"
       id="path1253" />
    <path
       d="m 519.144,519.877 c 0.298,9.271 -6.95,16.828 -15.76,16.516 -7.991,-0.272 -14.533,-7.089 -14.793,-15.503 -0.297,-9.271 6.951,-16.828 15.797,-16.555 7.992,0.312 14.496,7.128 14.756,15.542 z"
       fill="#352e73"
       id="path1255" />
    <path
       d="m 482.048,559.57 c 0.372,0 0.706,-0.194 0.892,-0.545 l 21.819,-36.927 c 0.297,-0.507 0.149,-1.208 -0.335,-1.52 -0.483,-0.311 -1.152,-0.155 -1.449,0.351 l -21.819,36.927 c -0.297,0.507 -0.149,1.208 0.335,1.52 0.185,0.116 0.371,0.194 0.557,0.194 z"
       fill="#000000"
       id="path1257" />
    <path
       d="m 481.156,563.388 c 1.041,0.078 1.97,-0.663 2.193,-1.792 0.223,-1.208 -0.483,-2.376 -1.635,-2.649 l -23.157,-5.064 c -1.152,-0.234 -2.268,0.507 -2.528,1.714 -0.223,1.208 0.484,2.376 1.636,2.649 l 23.157,5.025 c 0.148,0.078 0.26,0.117 0.334,0.117 z"
       fill="#352e73"
       id="path1259" />
    <path
       d="M 580.771,400.758 H 560.03 c -1.524,0 -2.788,1.325 -2.788,2.922 v 3.506 c 0,1.597 1.264,2.921 2.788,2.921 h 26.205 c 2.044,0 3.456,-2.259 2.527,-4.168 -1.487,-3.077 -4.497,-5.181 -7.991,-5.181 z"
       fill="#352e73"
       id="path1261" />
    <path
       d="m 597.645,532.303 c 6.282,0 11.374,-5.336 11.374,-11.919 0,-6.583 -5.092,-11.92 -11.374,-11.92 -6.281,0 -11.374,5.337 -11.374,11.92 0,6.583 5.093,11.919 11.374,11.919 z"
       fill="#352e73"
       id="path1263" />
    <path
       d="m 607.347,519.721 c 0.371,6.155 -4.461,11.219 -10.334,10.829 -4.832,-0.311 -8.772,-4.44 -9.069,-9.504 -0.372,-6.155 4.46,-11.219 10.333,-10.829 4.832,0.311 8.772,4.44 9.07,9.504 z"
       fill="#adeff7"
       id="path1265" />
    <path
       d="m 594.934,519.877 c -0.297,1.987 1.301,3.662 3.197,3.311 1.152,-0.195 2.044,-1.168 2.23,-2.337 0.297,-1.987 -1.301,-3.662 -3.197,-3.35 -1.115,0.234 -2.044,1.207 -2.23,2.376 z"
       fill="#f3ffff"
       id="path1267" />
    <g
       opacity="0.57"
       id="g1271">
      <path
         opacity="0.57"
         d="m 385.257,568.802 c 25.499,0 46.203,-21.736 46.203,-48.418 0,-7.791 -1.71,-15.231 -5.093,-22.126 -0.26,-0.545 -0.892,-0.779 -1.449,-0.467 -0.521,0.272 -0.744,0.935 -0.446,1.519 3.234,6.583 4.869,13.672 4.869,21.112 0,25.476 -19.774,46.199 -44.084,46.199 -6.393,0 -12.563,-1.402 -18.325,-4.168 -0.52,-0.273 -1.152,0 -1.412,0.545 -0.26,0.546 0,1.208 0.52,1.48 6.059,2.883 12.527,4.324 19.217,4.324 z"
         fill="#f3ffff"
         id="path1269" />
    </g>
    <path
       d="m 317.162,520.383 c 0,-39.342 30.554,-71.362 68.133,-71.362 37.541,0 68.132,32.02 68.132,71.362 0,39.343 -30.554,71.362 -68.132,71.362 -37.579,0 -68.133,-32.019 -68.133,-71.362 z m 8.512,0 c 0,34.435 26.725,62.442 59.583,62.442 32.859,0 59.584,-28.007 59.584,-62.442 0,-34.434 -26.725,-62.442 -59.584,-62.442 -32.858,0 -59.583,28.008 -59.583,62.442 z"
       fill="#2d2861"
       id="path1273" />
    <path
       d="m 322.85,520.384 c 0,-36.071 27.989,-65.403 62.408,-65.403 34.419,0 62.408,29.332 62.408,65.403 0,36.07 -27.989,65.402 -62.408,65.402 -34.419,0 -62.408,-29.332 -62.408,-65.402 z m 3.196,0 c 0,34.2 26.54,62.052 59.212,62.052 32.635,0 59.212,-27.813 59.212,-62.052 0,-34.201 -26.54,-62.053 -59.212,-62.053 -32.635,0 -59.212,27.852 -59.212,62.053 z"
       fill="#7271b3"
       id="path1275" />
    <g
       opacity="0.57"
       id="g1279">
      <path
         opacity="0.57"
         d="m 332.402,520.384 c 0,-30.54 23.715,-55.392 52.856,-55.392 29.141,0 52.856,24.852 52.856,55.392 0,30.539 -23.715,55.391 -52.856,55.391 -29.141,0 -52.856,-24.852 -52.856,-55.391 z m 2.119,0 c 0,29.331 22.748,53.171 50.737,53.171 27.989,0 50.737,-23.84 50.737,-53.171 0,-29.332 -22.748,-53.171 -50.737,-53.171 -27.952,0 -50.737,23.839 -50.737,53.171 z"
         fill="#f3ffff"
         id="path1277" />
    </g>
    <path
       d="m 384.143,523.188 c 0.929,0 1.858,-0.506 2.341,-1.441 L 458.111,385.06 c 0.669,-1.324 1.04,-2.804 1.04,-4.284 v -8.843 c 0,-1.753 1.116,-2.61 1.599,-2.882 0.483,-0.273 1.747,-0.857 3.196,0.039 l 12.489,7.829 c 1.264,0.779 2.9,0.351 3.643,-0.974 0.744,-1.324 0.335,-3.038 -0.929,-3.817 l -12.489,-7.83 c -2.639,-1.675 -5.836,-1.714 -8.549,-0.117 -2.677,1.598 -4.312,4.48 -4.312,7.713 v 8.882 c 0,0.545 -0.149,1.09 -0.409,1.597 L 381.726,519.02 c -0.706,1.364 -0.223,3.039 1.041,3.779 0.483,0.272 0.929,0.389 1.376,0.389 z"
       fill="#fc008b"
       id="path1281" />
    <path
       d="m 385.257,532.303 c 6.282,0 11.374,-5.336 11.374,-11.919 0,-6.583 -5.092,-11.92 -11.374,-11.92 -6.282,0 -11.374,5.337 -11.374,11.92 0,6.583 5.129,11.919 11.374,11.919 z"
       fill="#352e73"
       id="path1283" />
    <path
       d="m 394.96,519.721 c 0.371,6.155 -4.461,11.219 -10.333,10.829 -4.832,-0.311 -8.772,-4.44 -9.07,-9.504 -0.371,-6.155 4.461,-11.219 10.333,-10.829 4.832,0.311 8.772,4.44 9.07,9.504 z"
       fill="#adeff7"
       id="path1285" />
    <path
       d="m 382.544,519.877 c -0.298,1.987 1.301,3.662 3.196,3.311 1.153,-0.195 2.045,-1.168 2.23,-2.337 0.298,-1.987 -1.301,-3.662 -3.196,-3.35 -1.115,0.234 -2.045,1.207 -2.23,2.376 z"
       fill="#f3ffff"
       id="path1287" />
    <path
       d="m 689.668,571.27 -13.186,1.946 c 0,0 -2.718,-12.108 -6.122,-28.193 5.765,-0.225 11.588,-0.025 17.462,0.114 0.876,15.152 1.846,26.133 1.846,26.133 z"
       fill="#ff8a63"
       id="path1289" />
    <path
       d="m 677.576,567.286 c 0,0 4.5,5.57 6.241,4.859 1.773,-0.724 3.282,-6.497 5.433,-5.533 2.151,0.963 8.463,14.509 7.563,16.8 -0.9,2.291 -1.375,5.718 -3.183,6.456 -1.807,0.738 -37.051,7.189 -42.472,6.824 -5.42,-0.365 -6.176,-8.241 -0.229,-9.646 5.976,-1.335 17.262,-25.913 26.647,-19.76 z"
       fill="#352e73"
       id="path1291" />
    <path
       d="m 687.923,580.863 c 2.96,-0.881 5.881,-1.092 8.39,-0.971 0.511,1.633 0.839,3.586 0.801,4.257 -0.107,2.99 -1.647,5.051 -3.455,5.789 -1.807,0.738 -37.051,7.189 -42.471,6.824 -2.931,-0.195 -4.507,-2.62 -4.386,-5.002 0.98,0.295 2.261,0.468 3.8,0.412 5.426,-0.292 28.83,-8.866 37.321,-11.309 z"
       fill="#f3ffff"
       id="path1293" />
    <path
       d="m 646.598,577.557 -13.282,-1.105 c 0,0 0.107,-12.409 0.452,-28.846 5.665,1.092 11.289,2.612 16.978,4.083 -2.594,14.955 -4.148,25.868 -4.148,25.868 z"
       fill="#ff8a63"
       id="path1295" />
    <path
       d="m 635.73,570.926 c 0,0 3.115,6.448 4.971,6.152 1.892,-0.302 4.675,-5.58 6.55,-4.152 1.875,1.427 4.94,16.054 3.542,18.08 -1.397,2.026 -2.64,5.255 -4.567,5.563 -1.928,0.307 -37.716,-1.429 -42.911,-3.017 -5.196,-1.589 -4.14,-9.43 1.971,-9.446 6.124,0.06 22.705,-21.306 30.444,-13.18 z"
       fill="#352e73"
       id="path1297" />
    <path
       d="m 642.717,586.501 c 3.082,-0.185 5.974,0.275 8.39,0.964 0.126,1.706 0.002,3.683 -0.188,4.327 -0.784,2.887 -2.753,4.544 -4.681,4.851 -1.928,0.308 -37.715,-1.428 -42.911,-3.017 -2.809,-0.856 -3.792,-3.577 -3.132,-5.869 0.887,0.511 2.095,0.971 3.606,1.267 5.35,0.95 30.091,-2.075 38.916,-2.523 z"
       fill="#f3ffff"
       id="path1299" />
    <path
       d="m 500.325,304.829 c 5.876,2.78 5.246,3.702 6.022,3.985 0.929,0.388 13.675,-2.035 13.675,-2.035 0,0 37.64,-6.89 39.669,-7.351 l 32.386,-23.208 15.907,13.726 c 0,0 -35.862,24.236 -37.963,25.167 -2.101,0.931 -54.137,4.017 -58.719,4.423 0,0 -5.214,2.614 -8.592,4.16 -3.306,1.506 -7.202,1.435 -8.196,1.702 -0.129,0.024 -3.58,0.754 -8.026,0.464 -3.847,-0.241 -0.153,-1.819 -0.153,-1.819 0,0 7.169,-0.893 6.959,-1.443 -0.113,-0.461 -3.993,0.269 -8.269,0.028 -1.083,-0.064 -2.166,-0.129 -3.136,-0.161 -2.578,-0.185 -3.265,-1.85 -0.541,-2.175 0.945,-0.097 2.578,-0.244 3.718,-0.163 1.252,0.112 2.392,-0.236 3.467,-0.357 2.134,-0.187 3.637,-0.309 3.597,-0.382 -0.081,-0.146 0.315,-0.461 -0.825,-0.542 -1.382,-0.088 -4.364,0.285 -6.409,-0.054 -1.164,-0.209 -3.597,-0.475 -3.597,-0.475 0,0 -4.187,-0.767 -4.082,-1.349 0.299,-1.262 2.999,-1.287 4.567,-0.778 1.107,-0.235 3.694,0.136 3.694,0.136 0,0 5.286,-0.512 5.213,-1.329 -0.032,-0.315 -3.047,-0.686 -6.151,-1.388 -3.29,-0.695 -5.609,-1.357 -5.601,-2.028 0.008,-1.1 2.707,-0.697 2.707,-0.697 0,0 2.361,0.307 3.145,0.347 0.897,0.072 3.685,-0.05 3.685,-0.05 0,0 9.635,-0.74 9.53,-1.444 -0.162,-0.719 -1.189,-2.482 -1.811,-2.66 -0.622,-0.177 -1.875,0.139 -2.498,-0.039 -0.622,-0.178 -1.891,-0.662 -1.778,-1.487 0.113,-0.825 4.017,-1.425 4.017,-1.425 0,0 2.659,-0.099 4.389,0.701 z"
       fill="#ff8a63"
       id="path1301" />
    <path
       d="m 570.165,290.172 c 0,0 4.405,7.074 6.377,9.597 1.617,2.053 10.257,9.725 10.257,9.725 0,0 14.322,-12.444 20.861,-18.844 7.912,-7.783 15.534,-20.548 14.402,-21.3 -3.201,-2.077 -7.832,-4.073 -12.884,-3.311 -17.482,2.725 -39.013,24.133 -39.013,24.133 z"
       fill="#d6007e"
       id="path1303" />
    <path
       d="m 503.816,314.46 c -2.772,-0.363 -5.342,-1.647 -5.795,-4.348 -1.107,2.806 2.845,5.465 5.795,4.348 z"
       fill="#fe875e"
       id="path1305" />
    <path
       d="m 680.935,364.646 c 0,0 3.943,20.49 2.354,36.035 -1.589,15.544 -1.765,70.774 -1.765,70.774 l 7.413,88.32 -15.886,0.353 c 0,0 -17.299,-88.32 -17.004,-86.024 0.294,2.297 -5.825,-62.177 -5.825,-62.177 l 20.652,-49.224 z"
       fill="#2ba14c"
       id="path1307" />
    <path
       d="m 675.402,351.398 c 0,0 17.946,18.9 11.238,39.567 -2.707,8.302 -27.654,87.555 -28.007,94.032 -0.294,6.477 -8.473,78.075 -8.473,78.075 l -17.004,-0.529 -3.648,-79.607 4.883,-107.221 10.297,-18.076 z"
       fill="#8cd334"
       id="path1309" />
    <path
       d="m 595.283,271.196 c 7.452,-4.669 22.299,-10.166 22.299,-10.166 0,0 9.093,-4.201 12.383,-4.364 4.849,-0.269 13.522,-2.141 19.681,17.436 4.429,14.062 36.139,89.246 43.575,93.635 l -59.883,10.214 c 1.972,-12.48 -17.556,-42.67 -20.078,-47.983 -5.658,-11.902 -24.993,-54.345 -17.977,-58.772 z"
       fill="#fc008b"
       id="path1311" />
    <path
       d="m 595.384,242.863 2.081,17.685 c 0,0 1.153,13.984 1.71,14.451 5.39,4.48 23.863,-14.374 23.863,-14.374 l -12.823,-23.488 z"
       fill="#ff8a63"
       id="path1313" />
    <path
       opacity="0.68"
       d="m 613.114,242.59 -2.9,-5.453 -14.793,5.726 2.081,17.685 c 1.933,-0.585 3.643,-1.325 5.018,-2.338 3.94,-2.804 7.918,-8.959 10.594,-15.62 z"
       fill="#ff4900"
       id="path1315" />
    <path
       d="m 596.684,203.131 c 0,0 -0.743,-0.312 -4.98,5.765 -3.011,4.324 -4.832,9.504 -6.728,14.451 -2.788,7.363 -5.13,15.387 -3.011,23.255 1.115,4.129 16.987,5.259 23.38,1.714 6.393,-3.583 12.341,-15.036 11.932,-23.177 -0.335,-8.141 -17.73,-23.605 -20.593,-22.008 z"
       fill="#ff8a63"
       id="path1317" />
    <path
       opacity="0.68"
       d="m 588.211,215.323 c 1.004,-2.259 2.119,-4.402 3.531,-6.388 1.227,-1.753 2.156,-2.961 2.862,-3.818 4.646,1.948 10.854,4.869 14.534,6.622 1.003,1.052 1.97,2.143 2.862,3.233 l -2.788,15.504 -3.085,-7.596 c 0,0 -2.825,-5.609 -9.293,-7.012 -3.382,-0.818 -6.467,-0.779 -8.623,-0.545 z"
       fill="#ff4900"
       id="path1319" />
    <path
       d="m 607.167,242.824 c 0.966,2.181 2.602,2.766 7.583,2.882 6.393,0.117 12.712,-4.947 14.347,-14.217 4.944,-28.358 -20.703,-35.292 -27.32,-37.98 -2.453,-1.012 -4.386,-0.194 -5.873,1.286 -2.341,2.337 -5.501,3.467 -8.66,2.921 -1.376,-0.233 -5.093,-0.311 -6.096,1.909 -2.862,6.349 -2.937,12.971 7.88,12.971 24.495,0 16.243,26.021 18.139,30.228 z"
       fill="#2d2861"
       id="path1321" />
    <path
       d="m 606.126,226.736 c 0,0 4.237,-7.868 5.464,-2.999 1.226,4.83 0.111,14.529 -4.572,11.608 -4.684,-2.883 -0.892,-8.609 -0.892,-8.609 z"
       fill="#ff8a63"
       id="path1323" />
    <path
       d="m 592.476,241.975 -9.116,-1.581 c 0,0 0.847,-3.474 4.87,-2.907 4.893,0.717 4.246,4.488 4.246,4.488 z"
       fill="#ffffff"
       id="path1325" />
    <path
       d="m 537.312,348.455 c 2.554,-2.088 4.373,-5.671 7.686,-7.848 1.124,-0.72 2.732,-1.424 4.583,-2.121 13.87,-3.572 49.998,-12.668 51.647,-13.729 1.883,-1.238 33.097,-30.413 33.097,-30.413 l -17.782,-9.73 -27.932,27.54 c -1.883,0.81 -37.64,14.176 -37.64,14.176 0,0 -7.193,2.907 -10.976,4.154 -1.915,0.494 -3.621,0.68 -5.165,0.73 -1.931,0.122 -5.682,0.827 -6.522,1.199 -0.986,0.454 -2.934,1.489 -4.098,2.137 -1.164,0.647 -2.57,1.287 -3.184,1.724 -0.38,0.259 -1.302,0.486 -2.005,0.591 -1.034,0.195 -1.293,1.529 -0.412,2.087 0.824,0.541 2.231,0.33 3.079,0.144 2.441,-0.405 5.82,-2.38 5.836,-2.008 0.016,0.372 -4.235,5.404 -4.712,6.003 -0.477,0.598 -5.415,6.537 -6.005,7.96 -0.606,1.481 0.202,2.079 1.043,1.706 0.695,-0.291 8.203,-7.945 8.203,-7.945 0,0 0.946,-0.955 0.994,-0.267 0.033,0.744 -6.724,7.694 -7.549,8.867 -0.84,1.229 -0.808,2.402 0.566,2.304 1.69,-0.13 8.462,-7.993 8.462,-7.993 0,0 0.889,-0.971 1.116,-0.478 0.283,0.509 -5.593,6.302 -5.876,7.079 -0.283,0.776 0.226,1.779 1.439,1.39 1.471,-0.437 7.46,-7.484 7.46,-7.484 0,0 0.598,-0.38 0.671,0.008 0.056,0.445 -4.632,5.72 -4.664,6.69 -0.04,0.785 0.671,0.866 0.671,0.866 1.608,0.581 5.415,-5.251 7.969,-7.339 z"
       fill="#ff8a63"
       id="path1327" />
    <path
       d="m 635.688,246.593 c 21.721,-11.545 50.595,13.198 48.664,18.19 21.846,23.189 24.522,40.316 30.684,56.849 6.127,16.492 -5.041,22.16 -19.88,27.975 -14.841,5.853 -22.143,-11.719 -27.591,-27.447 -5.448,-15.728 -32.995,-72.185 -31.877,-75.567 z"
       fill="#fcc13f"
       id="path1329" />
    <path
       d="m 643.871,250.713 c -18.874,-8.147 -30.595,4.667 -29.756,24.019 9.917,45.173 65.637,67.58 65.637,67.58 l -5.674,-15.709 c 0,0 -23.456,-4.404 -45.205,-33.802 -14.978,-20.239 -10.481,-25.984 -4.097,-31.133 10.32,-8.323 18.783,-1.441 18.783,-1.441 z"
       fill="#fcc13f"
       id="path1331" />
    <path
       d="m 623.801,311.484 c 0,0 -5.601,-3.742 -9.101,-6.7 -2.303,-2.005 -12.253,-11.091 -12.253,-11.091 0,0 11.008,-19.698 16.568,-26.315 20.343,-24.319 28.952,-1.104 29.599,3.918 1.422,11.306 -24.813,40.188 -24.813,40.188 z"
       fill="#d6007e"
       id="path1333" />
    <path
       d="m 702.11,324.14 c -3.866,3.428 -11.374,7.79 -15.389,6.076 -1.97,-0.857 -3.494,-2.726 -4.497,-4.44 -0.781,-1.87 -1.301,-3.116 -1.301,-3.116 13.27,-2.493 20.258,-9.972 20.258,-9.972 1.152,2.999 4.795,8.024 0.929,11.452 z"
       fill="#fee2bf"
       id="path1335" />
  </g>
</svg>
