<?xml version="1.0" encoding="UTF-8" standalone="no"?>
<svg
   width="197"
   height="39.5"
   viewBox="0 0 394 79"
   fill="none"
   version="1.1"
   id="svg66"
   sodipodi:docname="stage-1772654073.svg"
   inkscape:version="1.1 (c68e22c387, 2021-05-23)"
   xmlns:inkscape="http://www.inkscape.org/namespaces/inkscape"
   xmlns:sodipodi="http://sodipodi.sourceforge.net/DTD/sodipodi-0.dtd"
   xmlns="http://www.w3.org/2000/svg"
   xmlns:svg="http://www.w3.org/2000/svg">
  <defs
     id="defs70" />
  <sodipodi:namedview
     id="namedview68"
     pagecolor="#ffffff"
     bordercolor="#666666"
     borderopacity="1.0"
     inkscape:pageshadow="2"
     inkscape:pageopacity="0.0"
     inkscape:pagecheckerboard="0"
     showgrid="false"
     inkscape:zoom="4"
     inkscape:cx="67.5"
     inkscape:cy="-28.875"
     inkscape:window-width="1857"
     inkscape:window-height="1057"
     inkscape:window-x="-8"
     inkscape:window-y="-8"
     inkscape:window-maximized="1"
     inkscape:current-layer="svg66"
     scale-x="2" />
  <g
     id="g1470"
     transform="matrix(2.0000225,0,0,2.0000225,-0.1000023,-0.10000221)"
     style="stroke-width:0.499994">
    <g
       id="g1267"
       transform="matrix(0.25648508,-0.05878566,0.05878566,0.25648508,71.714919,6.5942487)"
       style="stroke-width:1.90014">
      <path
         d="m 108.966,51.2749 c -0.835,0.2238 -1.338,1.117 -1.099,2.0107 5.693,21.2444 26.815,34.1238 47.105,28.6872 8.688,-2.3279 16.259,-7.8289 21.314,-15.4696 0.485,-0.7486 0.305,-1.7779 -0.426,-2.3006 -0.73,-0.5227 -1.715,-0.3587 -2.199,0.3899 -4.635,7.009 -11.565,12.0589 -19.542,14.1964 -18.602,4.9844 -37.967,-6.8093 -43.191,-26.3035 -0.239,-0.8937 -1.109,-1.439 -1.962,-1.2105 z"
         fill="#fc008b"
         id="path2"
         style="stroke-width:6.76677" />
      <path
         d="M 75.16,62.05 C 80.1989,80.8553 69.6955,100.073 51.7512,104.882 33.8068,109.69 15.0838,98.3028 10.045,79.4975 5.0061,60.6922 15.5094,41.4741 33.4716,36.6612 51.4337,31.8482 70.1211,43.2447 75.16,62.05 Z m -4.0863,1.0949 C 66.6634,46.6856 50.3021,36.7214 34.5963,40.9297 18.8905,45.1381 9.70331,61.9481 14.1136,78.4073 18.5238,94.8666 34.8852,104.831 50.5909,100.623 66.2967,96.4142 75.4839,79.6042 71.0737,63.1449 Z"
         fill="#2d2861"
         id="path4"
         style="stroke-width:6.76677" />
      <path
         d="M 72.4233,62.7833 C 77.0431,80.0245 67.4215,97.6295 50.9695,102.038 34.5175,106.446 17.3824,96.0106 12.7626,78.7693 8.14279,61.528 17.7645,43.9231 34.2165,39.5148 c 16.452,-4.4083 33.587,6.0272 38.2068,23.2685 z m -1.5279,0.4094 C 66.5151,46.8451 50.2625,36.9315 34.6455,41.116 19.0463,45.2958 9.90523,61.9937 14.2905,78.3599 18.6709,94.7075 34.9234,104.621 50.5404,100.437 66.1396,96.2567 75.2757,79.5402 70.8954,63.1927 Z"
         fill="#7271b3"
         id="path6"
         style="stroke-width:6.76677" />
      <g
         opacity="0.57"
         id="g10"
         style="stroke-width:6.76677">
        <path
           opacity="0.57"
           d="M 67.8568,64.0067 C 71.7682,78.604 63.616,93.5203 49.6869,97.2526 35.7578,100.985 21.2396,92.1431 17.3282,77.5458 13.4169,62.9484 21.5691,48.0321 35.4982,44.2998 49.4274,40.5675 63.9455,49.4093 67.8568,64.0067 Z M 66.8441,64.278 C 63.0874,50.2578 49.161,41.7764 35.7826,45.3611 22.4043,48.9458 14.5843,63.2542 18.341,77.2744 22.0977,91.2946 36.0242,99.776 49.4025,96.1913 62.7809,92.6066 70.6008,78.2982 66.8441,64.278 Z"
           fill="#f3ffff"
           id="path8"
           style="stroke-width:24.0979" />
      </g>
      <g
         opacity="0.57"
         id="g14"
         style="stroke-width:6.76677">
        <path
           opacity="0.57"
           d="m 36.3926,47.6326 c -12.188,3.2658 -19.3002,16.3069 -15.8827,29.0609 0.9978,3.7239 2.7679,7.0611 5.2677,9.9235 0.1943,0.2274 0.5262,0.2581 0.7528,0.0378 0.2138,-0.197 0.2356,-0.5421 0.0187,-0.7833 -2.3889,-2.7325 -4.0786,-5.9117 -5.0315,-9.4679 -3.2628,-12.1769 3.535,-24.6149 15.1544,-27.7283 3.0559,-0.8188 6.1847,-0.9388 9.2928,-0.3547 0.2836,0.0636 0.5507,-0.1476 0.6053,-0.4416 0.0545,-0.294 -0.1547,-0.5772 -0.4383,-0.6409 -3.2652,-0.6018 -6.5412,-0.4624 -9.7392,0.3945 z"
           fill="#f3ffff"
           id="path12"
           style="stroke-width:24.0979" />
      </g>
      <path
         d="m 62.3531,81.4861 c -0.1421,0.038 -0.2515,0.1272 -0.3282,0.2675 -2.7697,5.5116 -7.7055,9.5482 -13.5152,11.1049 -0.2843,0.0762 -0.4504,0.3801 -0.3706,0.678 0.0798,0.2979 0.3757,0.4781 0.6599,0.4019 6.0941,-1.6329 11.2437,-5.8664 14.1716,-11.64 0.1356,-0.2758 0.0281,-0.6062 -0.2173,-0.74 -0.1415,-0.1018 -0.2758,-0.1057 -0.4002,-0.0723 z"
         fill="#f3ffff"
         id="path16"
         style="stroke-width:6.76677" />
      <path
         d="m 72.4822,91.2847 c -0.3553,0.0952 -0.658,0.316 -0.8774,0.6342 -4.6344,7.0091 -11.5646,12.0591 -19.5418,14.1961 -6.7336,1.805 -13.7723,1.476 -20.3809,-0.944 -0.8227,-0.299 -1.7322,0.144 -1.9995,0.994 -0.2674,0.85 0.1797,1.808 1.0023,2.107 7.2009,2.64 14.8935,2.993 22.2312,1.027 8.6879,-2.328 16.259,-7.829 21.3144,-15.4694 0.485,-0.7486 0.3044,-1.7778 -0.426,-2.3005 -0.4018,-0.2915 -0.8781,-0.3634 -1.3223,-0.2444 z"
         fill="#fc008b"
         id="path18"
         style="stroke-width:6.76677" />
      <path
         d="m 85.9084,59.9486 c -0.4441,0.119 -0.8057,0.4753 -0.9347,0.9888 L 71.0088,121.035 c -0.163,0.742 0.2647,1.485 0.9814,1.672 0.7166,0.188 1.4207,-0.241 1.5837,-0.983 L 87.5388,61.6271 c 0.163,-0.7422 -0.2648,-1.4856 -0.9814,-1.6728 -0.2076,-0.0641 -0.4358,-0.0628 -0.649,-0.0057 z"
         fill="#fc008b"
         id="path20"
         style="stroke-width:6.76677" />
      <path
         d="M 87.6266,56.6947 C 40.6143,70.2096 41.6163,68.9034 41.3103,70.4621 41.0901,71.5588 38.9948,68.9273 75.5382,106.81 l 56.1938,-3.981 c 0.857,-0.07 1.406,-0.936 1.118,-1.797 -0.215,-0.66 0.564,0.328 -45.2234,-44.3373 z M 128.503,100.301 76.4936,103.98 45.1288,71.4944 86.9236,59.7567 Z"
         fill="#fc008b"
         id="path22"
         style="stroke-width:6.76677" />
      <path
         d="m 131.732,102.828 -2.711,0.188 1.2,-4.8317 c 2.635,2.5867 2.559,2.5867 2.652,2.8617 0.265,0.847 -0.297,1.736 -1.141,1.782 z"
         fill="#d6007e"
         id="path24"
         style="stroke-width:6.76677" />
      <path
         d="m 73.597,121.738 c -0.163,0.742 -0.8848,1.175 -1.5837,0.983 -0.7166,-0.187 -1.1493,-0.949 -0.9814,-1.672 l 0.8008,-3.408 2.7741,-0.164 z"
         fill="#d6007e"
         id="path26"
         style="stroke-width:6.76677" />
      <path
         d="m 43.5482,74.3322 c -0.2132,0.0571 -0.3282,0.2675 -0.2861,0.4957 0.0421,0.2282 0.2746,0.3854 0.4878,0.3283 l 45.4092,-9.8326 c 0.2182,-0.0385 0.3638,-0.2771 0.3039,-0.5005 -0.0421,-0.2282 -0.2746,-0.3854 -0.4878,-0.3282 l -45.4093,9.8325 z"
         fill="#352e73"
         id="path28"
         style="stroke-width:6.76677" />
      <path
         d="m 86.3014,52.0401 -0.0177,0.0048 -44.8815,14.3607 c -0.2082,0.0758 -0.336,0.3096 -0.2583,0.5282 0.0776,0.2187 0.3052,0.3573 0.5134,0.2815 L 86.5387,52.8546 c 0.2082,-0.0757 0.336,-0.3095 0.2584,-0.5282 -0.0777,-0.2187 -0.2825,-0.3434 -0.4957,-0.2863 z"
         fill="#352e73"
         id="path30"
         style="stroke-width:6.76677" />
      <path
         d="m 80.1813,60.9639 c -1.3295,-4.3932 1.1671,-8.9336 5.4177,-9.9129 3.8548,-0.8932 7.8548,1.5273 9.0568,5.5157 1.3295,4.3932 -1.1671,8.9336 -5.4305,9.9363 -3.8598,0.8746 -7.842,-1.5507 -9.044,-5.5391 z"
         fill="#352e73"
         id="path32"
         style="stroke-width:6.76677" />
      <path
         d="m 92.8307,37.2399 c -0.1777,0.0476 -0.3127,0.1836 -0.3566,0.375 l -5.6996,20.4452 c -0.0773,0.2802 0.0836,0.5963 0.3545,0.6833 0.2709,0.0871 0.5707,-0.0731 0.648,-0.3532 l 5.6996,-20.4453 c 0.0773,-0.2801 -0.0836,-0.5962 -0.3545,-0.6833 -0.1038,-0.032 -0.2026,-0.0455 -0.2914,-0.0217 z"
         fill="#000000"
         id="path34"
         style="stroke-width:6.76677" />
      <path
         d="m 92.7678,35.3011 c -0.5074,0.096 -0.8568,0.5688 -0.8187,1.1373 0.048,0.6058 0.5353,1.0739 1.1209,1.0567 l 11.717,-0.5454 c 0.581,-0.0358 1.019,-0.5324 0.989,-1.1429 -0.048,-0.6058 -0.535,-1.0739 -1.121,-1.0567 l -11.7123,0.564 c -0.0811,-0.0182 -0.1394,-0.0225 -0.1749,-0.013 z"
         fill="#352e73"
         id="path36"
         style="stroke-width:6.76677" />
      <path
         d="m 65.9803,125.794 9.9138,-2.656 c 0.7284,-0.196 1.1628,-0.99 0.9583,-1.754 l -0.449,-1.676 c -0.2046,-0.763 -0.9783,-1.234 -1.7067,-1.039 l -12.5255,3.356 c -0.9771,0.262 -1.3629,1.523 -0.6743,2.316 1.1048,1.281 2.8133,1.901 4.4834,1.453 z"
         fill="#352e73"
         id="path38"
         style="stroke-width:6.76677" />
      <path
         d="m 41.0668,65.0786 c -3.0025,0.8046 -4.7531,4.0076 -3.91,7.1542 0.8432,3.1466 3.9607,5.0452 6.9633,4.2406 3.0025,-0.8045 4.7531,-4.0075 3.9099,-7.1541 -0.8431,-3.1466 -3.9606,-5.0452 -6.9632,-4.2407 z"
         fill="#352e73"
         id="path40"
         style="stroke-width:6.76677" />
      <path
         d="m 38.041,72.3352 c -0.9659,-2.8943 0.6952,-5.9337 3.5523,-6.4997 2.3496,-0.4699 4.7617,0.9991 5.5524,3.3816 0.9659,2.8942 -0.6952,5.9336 -3.5523,6.4996 -2.3496,0.4699 -4.7617,-0.9991 -5.5524,-3.3815 z"
         fill="#adeff7"
         id="path42"
         style="stroke-width:6.76677" />
      <path
         d="m 43.9531,70.671 c -0.1124,-0.9877 -1.0908,-1.5836 -1.952,-1.1732 -0.5259,0.2406 -0.8275,0.8204 -0.7667,1.4028 0.1123,0.9876 1.0908,1.5836 1.957,1.1918 0.503,-0.2545 0.8225,-0.839 0.7617,-1.4214 z"
         fill="#f3ffff"
         id="path44"
         style="stroke-width:6.76677" />
      <g
         opacity="0.57"
         id="g48"
         style="stroke-width:6.76677">
        <path
           opacity="0.57"
           d="m 137.911,20.4308 c -12.188,3.2658 -19.3,16.3069 -15.883,29.0609 0.998,3.7239 2.768,7.0611 5.268,9.9235 0.194,0.2273 0.526,0.2581 0.753,0.0378 0.214,-0.197 0.235,-0.5421 0.018,-0.7833 -2.388,-2.7325 -4.078,-5.9117 -5.031,-9.4679 -3.263,-12.1769 3.535,-24.6149 15.154,-27.7284 3.056,-0.8188 6.185,-0.9388 9.293,-0.3547 0.284,0.0637 0.551,-0.1476 0.606,-0.4416 0.054,-0.294 -0.155,-0.5771 -0.439,-0.6408 -3.265,-0.6019 -6.541,-0.4624 -9.739,0.3945 z"
           fill="#f3ffff"
           id="path46"
           style="stroke-width:24.0979" />
      </g>
      <path
         d="m 176.661,34.8529 c 5.039,18.8053 -5.464,38.0234 -23.427,42.8363 -17.944,4.8082 -36.667,-6.5787 -41.706,-25.384 -5.039,-18.8053 5.465,-38.0234 23.427,-42.83632 17.962,-4.81296 36.667,6.57872 41.706,25.38402 z m -4.069,1.0902 c -4.41,-16.4593 -20.771,-26.42357 -36.477,-22.2152 -15.706,4.2083 -24.893,21.0183 -20.483,37.4776 4.41,16.4593 20.772,26.4236 36.478,22.2152 15.705,-4.2084 24.893,-21.0184 20.482,-37.4776 z"
         fill="#2d2861"
         id="path50"
         style="stroke-width:6.76677" />
      <path
         d="m 173.942,35.5811 c 4.62,17.2413 -5.002,34.8462 -21.454,39.2545 -16.452,4.4083 -33.587,-6.0272 -38.207,-23.2685 -4.62,-17.2412 5.002,-34.8462 21.454,-39.2545 16.452,-4.40826 33.587,6.0272 38.207,23.2685 z m -1.528,0.4094 c -4.38,-16.3476 -20.633,-26.26115 -36.25,-22.0766 -15.599,4.1798 -24.74,20.8776 -20.355,37.2438 4.38,16.3476 20.633,26.2612 36.25,22.0767 15.599,-4.1798 24.735,-20.8963 20.355,-37.2439 z"
         fill="#7271b3"
         id="path52"
         style="stroke-width:6.76677" />
      <g
         opacity="0.57"
         id="g56"
         style="stroke-width:6.76677">
        <path
           opacity="0.57"
           d="m 169.377,36.8048 c 3.912,14.5974 -4.241,29.5136 -18.17,33.2459 -13.929,3.7323 -28.447,-5.1094 -32.358,-19.7068 -3.912,-14.5974 4.241,-29.5136 18.17,-33.2459 13.929,-3.7323 28.447,5.1094 32.358,19.7068 z m -1.012,0.2714 C 164.608,23.056 150.681,14.5746 137.303,18.1593 c -13.378,3.5847 -21.198,17.8931 -17.442,31.9133 3.757,14.0202 17.684,22.5016 31.062,18.9169 13.361,-3.58 21.198,-17.8931 17.442,-31.9133 z"
           fill="#f3ffff"
           id="path54"
           style="stroke-width:24.0979" />
      </g>
      <path
         d="m 144.287,42.0909 c -0.444,0.119 -0.824,0.4801 -0.935,0.9888 l -16.73,74.5083 c -0.15,0.718 -0.138,1.474 0.051,2.181 l 1.133,4.227 c 0.224,0.838 -0.199,1.39 -0.395,1.582 -0.196,0.192 -0.725,0.634 -1.533,0.391 l -6.972,-2.143 c -0.704,-0.21 -1.431,0.204 -1.617,0.932 -0.186,0.728 0.229,1.495 0.933,1.706 l 6.973,2.143 c 1.476,0.462 3.009,0.071 4.101,-1.039 1.075,-1.107 1.487,-2.694 1.073,-4.239 l -1.137,-4.245 c -0.07,-0.261 -0.069,-0.541 -0.009,-0.816 l 16.753,-74.4943 c 0.162,-0.7421 -0.283,-1.4809 -0.982,-1.6728 -0.266,-0.0684 -0.494,-0.0671 -0.707,-0.01 z"
         fill="#fc008b"
         id="path58"
         style="stroke-width:6.76677" />
      <path
         d="m 142.586,37.8768 c -3.002,0.8045 -4.753,4.0075 -3.91,7.1542 0.843,3.1466 3.961,5.0452 6.964,4.2406 3.002,-0.8045 4.753,-4.0075 3.91,-7.1541 -0.844,-3.1466 -3.979,-5.0405 -6.964,-4.2407 z"
         fill="#352e73"
         id="path60"
         style="stroke-width:6.76677" />
      <path
         d="m 139.561,45.1335 c -0.966,-2.8942 0.695,-5.9336 3.552,-6.4996 2.349,-0.4699 4.761,0.9991 5.552,3.3816 0.966,2.8942 -0.695,5.9336 -3.552,6.4995 -2.35,0.4699 -4.762,-0.9991 -5.552,-3.3815 z"
         fill="#adeff7"
         id="path62"
         style="stroke-width:6.76677" />
      <path
         d="m 145.474,43.4689 c -0.113,-0.9877 -1.091,-1.5836 -1.952,-1.1733 -0.526,0.2407 -0.828,0.8204 -0.767,1.4028 0.112,0.9877 1.091,1.5836 1.957,1.1919 0.503,-0.2546 0.822,-0.8391 0.762,-1.4214 z"
         fill="#f3ffff"
         id="path64"
         style="stroke-width:6.76677" />
    </g>
    <g
       style="fill:none;stroke-width:1.90014"
       id="g1059"
       transform="matrix(0.26313563,0,0,0.26313563,151.3065,7.996972)">
      <path
         d="m 70.3048,79.6695 c 0.8645,0 1.5818,-0.7324 1.5818,-1.6577 0,-21.9938 -17.0691,-39.9012 -38.0745,-39.9012 -8.9944,0 -17.7313,3.354 -24.59207,9.4259 -0.66216,0.5976 -0.75413,1.6385 -0.18393,2.3324 0.5702,0.694 1.5634,0.7903 2.2256,0.1928 6.2906,-5.5708 14.2917,-8.6549 22.5504,-8.6549 19.258,0 34.9108,16.4038 34.9108,36.5857 0,0.9253 0.699,1.677 1.5819,1.677 z"
         fill="#74c412"
         id="path957"
         style="stroke-width:6.76677" />
      <path
         d="m 105.75,78.0117 c 0,-19.4687 15.119,-35.3135 33.697,-35.3135 18.577,0 33.715,15.8448 33.715,35.3135 0,19.4687 -15.119,35.3133 -33.715,35.3133 -18.596,0 -33.697,-15.8446 -33.697,-35.3133 z m 4.23,0 c 0,17.0399 13.225,30.8993 29.485,30.8993 16.26,0 29.485,-13.8594 29.485,-30.8993 0,-17.0399 -13.225,-30.8993 -29.485,-30.8993 -16.26,0 -29.485,13.8594 -29.485,30.8993 z"
         fill="#2d2861"
         id="path959"
         style="stroke-width:6.76677" />
      <path
         d="m 108.582,78.0117 c 0,-17.8495 13.85,-32.3643 30.883,-32.3643 17.032,0 30.882,14.5148 30.882,32.3643 0,17.8495 -13.85,32.3643 -30.882,32.3643 -17.033,0 -30.883,-14.5148 -30.883,-32.3643 z m 1.582,0 c 0,16.9242 13.133,30.7063 29.301,30.7063 16.149,0 29.301,-13.7628 29.301,-30.7063 0,-16.9243 -13.133,-30.7066 -29.301,-30.7066 -16.15,0 -29.301,13.7823 -29.301,30.7066 z"
         fill="#7271b3"
         id="path961"
         style="stroke-width:6.76677" />
      <g
         opacity="0.57"
         id="g965"
         style="stroke-width:6.76677">
        <path
           opacity="0.57"
           d="m 113.31,78.0117 c 0,-15.1123 11.735,-27.4104 26.155,-27.4104 14.421,0 26.156,12.2981 26.156,27.4104 0,15.1123 -11.735,27.4103 -26.156,27.4103 -14.42,0 -26.155,-12.298 -26.155,-27.4103 z m 1.048,0 c 0,14.5148 11.257,26.3113 25.107,26.3113 13.85,0 25.107,-11.7965 25.107,-26.3113 0,-14.5148 -11.257,-26.3117 -25.107,-26.3117 -13.85,0 -25.107,11.7969 -25.107,26.3117 z"
           fill="#f3ffff"
           id="path963"
           style="stroke-width:24.0979" />
      </g>
      <g
         opacity="0.57"
         id="g969"
         style="stroke-width:6.76677">
        <path
           opacity="0.57"
           d="m 139.464,101.972 c 12.618,0 22.863,-10.7563 22.863,-23.9603 0,-3.8552 -0.846,-7.5369 -2.52,-10.9488 -0.129,-0.2698 -0.441,-0.3855 -0.717,-0.2313 -0.258,0.135 -0.368,0.4627 -0.221,0.7518 1.6,3.2576 2.41,6.7658 2.41,10.4475 0,12.6065 -9.786,22.8611 -21.815,22.8611 -3.164,0 -6.217,-0.694 -9.068,-2.0623 -0.258,-0.135 -0.57,0 -0.699,0.2698 -0.129,0.2699 0,0.5976 0.257,0.7325 2.999,1.426 6.199,2.14 9.51,2.14 z"
           fill="#f3ffff"
           id="path967"
           style="stroke-width:24.0979" />
      </g>
      <path
         d="m 123.149,62.5524 c 0.147,0 0.276,-0.0578 0.387,-0.1735 4.101,-4.6069 9.914,-7.2285 15.928,-7.2285 0.295,0 0.534,-0.2506 0.534,-0.559 0,-0.3084 -0.239,-0.559 -0.534,-0.559 -6.309,0 -12.379,2.7565 -16.701,7.5755 -0.202,0.2313 -0.184,0.5783 0.018,0.771 0.111,0.135 0.239,0.1735 0.368,0.1735 z"
         fill="#f3ffff"
         id="path971"
         style="stroke-width:6.76677" />
      <path
         d="m 115.903,50.4665 c 0.368,0 0.718,-0.135 1.012,-0.3856 6.291,-5.5707 14.292,-8.6549 22.55,-8.6549 6.971,0 13.685,2.1397 19.442,6.1876 0.718,0.5012 1.711,0.3084 2.189,-0.4433 0.478,-0.7518 0.294,-1.7927 -0.423,-2.2939 -6.272,-4.4142 -13.611,-6.7466 -21.208,-6.7466 -8.994,0 -17.731,3.3541 -24.592,9.426 -0.662,0.5975 -0.754,1.6384 -0.184,2.3324 0.313,0.3855 0.755,0.5783 1.214,0.5783 z"
         fill="#74c412"
         id="path973"
         style="stroke-width:6.76677" />
      <path
         d="m 94.8251,77.26 c 0.4598,0 0.9013,-0.2506 1.1588,-0.7132 L 125.027,22.1116 c 0.35,-0.6746 0.129,-1.5035 -0.515,-1.8697 -0.643,-0.3663 -1.434,-0.135 -1.784,0.5397 L 93.6847,75.2168 c -0.3495,0.6746 -0.1288,1.5035 0.515,1.8697 0.1839,0.1157 0.4047,0.1735 0.6254,0.1735 z"
         fill="#74c312"
         id="path975"
         style="stroke-width:6.76677" />
      <path
         d="m 92.3241,79.9584 c 48.9079,-0.8866 47.6019,0.1157 48.3009,-1.3107 0.497,-1.0024 1.84,2.0818 -23.654,-43.9683 L 61.6622,23.9812 c -0.8461,-0.1542 -1.6003,0.5398 -1.5451,1.4457 0.0368,0.694 -0.4598,-0.4626 32.207,54.5315 z M 64.1269,27.2582 115.316,37.166 137.204,76.6623 93.7956,77.1827 Z"
         fill="#74c412"
         id="path977"
         style="stroke-width:6.76677" />
      <path
         d="m 61.6614,23.9814 2.6671,0.5204 -2.4096,4.3564 c -1.8761,-3.1805 -1.8026,-3.1613 -1.821,-3.4504 -0.0367,-0.8867 0.7358,-1.5999 1.5635,-1.4264 z"
         fill="#2ba14c"
         id="path979"
         style="stroke-width:6.76677" />
      <path
         d="m 122.709,20.7622 c 0.35,-0.6746 1.159,-0.9059 1.784,-0.5397 0.644,0.3663 0.865,1.2144 0.515,1.8698 l -1.655,3.0841 -2.722,-0.559 z"
         fill="#2ba14c"
         id="path981"
         style="stroke-width:6.76677" />
      <path
         d="m 139.464,74.33 c 0.221,0 0.386,-0.1735 0.405,-0.4048 0.018,-0.2313 -0.166,-0.4433 -0.387,-0.4433 L 93.0757,71.2266 c -0.2207,-0.0193 -0.4231,0.1735 -0.4231,0.4048 -0.0184,0.2313 0.1656,0.4433 0.3863,0.4433 L 139.446,74.33 Z"
         fill="#352e73"
         id="path983"
         style="stroke-width:6.76677" />
      <path
         d="m 92.3962,84.7968 h 0.0183 l 47.0685,-2.2552 c 0.221,-0.0193 0.405,-0.212 0.387,-0.4434 -0.019,-0.2313 -0.203,-0.424 -0.423,-0.4047 l -47.0692,2.2552 c -0.2208,0.0193 -0.4047,0.212 -0.3863,0.4433 0.0184,0.2313 0.1839,0.4048 0.4047,0.4048 z"
         fill="#352e73"
         id="path985"
         style="stroke-width:6.76677" />
      <path
         d="m 100.617,77.7612 c 0.147,4.5876 -3.4396,8.3272 -7.7989,8.1729 -3.9546,-0.1349 -7.1918,-3.5082 -7.3206,-7.6718 -0.1471,-4.5876 3.4396,-8.3272 7.8172,-8.1922 3.9546,0.1542 7.1733,3.5275 7.3023,7.6911 z"
         fill="#352e73"
         id="path987"
         style="stroke-width:6.76677" />
      <path
         d="m 82.2623,97.4032 c 0.184,0 0.3495,-0.0964 0.4415,-0.2699 l 10.797,-18.2735 c 0.1471,-0.2505 0.0735,-0.5975 -0.1656,-0.7517 -0.2391,-0.1542 -0.5702,-0.0771 -0.7173,0.1735 L 81.8209,96.555 c -0.1472,0.2506 -0.0736,0.5976 0.1655,0.7518 0.092,0.0578 0.184,0.0964 0.2759,0.0964 z"
         fill="#000000"
         id="path989"
         style="stroke-width:6.76677" />
      <path
         d="m 81.8205,99.2922 c 0.515,0.0385 0.9748,-0.3277 1.0852,-0.8867 0.1103,-0.5976 -0.2391,-1.1759 -0.8093,-1.3108 L 70.6372,94.5888 c -0.5701,-0.1156 -1.1219,0.2506 -1.2507,0.8482 -0.1104,0.5975 0.2391,1.1758 0.8093,1.3107 l 11.4591,2.4866 c 0.0736,0.0386 0.1288,0.0579 0.1656,0.0579 z"
         fill="#352e73"
         id="path991"
         style="stroke-width:6.76677" />
      <path
         d="m 131.113,18.8154 h -10.264 c -0.754,0 -1.379,0.6554 -1.379,1.4457 v 1.7348 c 0,0.7904 0.625,1.4457 1.379,1.4457 h 12.968 c 1.011,0 1.71,-1.118 1.25,-2.0625 -0.735,-1.5228 -2.225,-2.5637 -3.954,-2.5637 z"
         fill="#352e73"
         id="path993"
         style="stroke-width:6.76677" />
      <path
         d="m 139.463,83.9101 c 3.109,0 5.629,-2.6408 5.629,-5.8984 0,-3.2576 -2.52,-5.8984 -5.629,-5.8984 -3.108,0 -5.628,2.6408 -5.628,5.8984 0,3.2576 2.52,5.8984 5.628,5.8984 z"
         fill="#352e73"
         id="path995"
         style="stroke-width:6.76677" />
      <path
         d="m 144.264,77.6839 c 0.184,3.0457 -2.208,5.5516 -5.114,5.3588 -2.391,-0.1542 -4.341,-2.1975 -4.488,-4.7034 -0.184,-3.0456 2.208,-5.5515 5.114,-5.3587 2.391,0.1542 4.341,2.1974 4.488,4.7033 z"
         fill="#adeff7"
         id="path997"
         style="stroke-width:6.76677" />
      <path
         d="m 138.122,77.7611 c -0.147,0.9831 0.644,1.812 1.582,1.6385 0.57,-0.0964 1.012,-0.5783 1.104,-1.1566 0.147,-0.9831 -0.644,-1.8119 -1.582,-1.6577 -0.552,0.1156 -1.012,0.5975 -1.104,1.1758 z"
         fill="#f3ffff"
         id="path999"
         style="stroke-width:6.76677" />
      <g
         opacity="0.57"
         id="g1003"
         style="stroke-width:6.76677">
        <path
           opacity="0.57"
           d="m 34.3653,101.972 c 12.618,0 22.8632,-10.7563 22.8632,-23.9603 0,-3.8552 -0.8461,-7.5369 -2.5199,-10.9488 -0.1288,-0.2698 -0.4415,-0.3855 -0.7174,-0.2313 -0.2575,0.135 -0.3678,0.4627 -0.2207,0.7518 1.6003,3.2576 2.4096,6.7658 2.4096,10.4475 0,12.6065 -9.7854,22.8611 -21.8148,22.8611 -3.1637,0 -6.217,-0.694 -9.068,-2.0623 -0.2575,-0.135 -0.5702,0 -0.6989,0.2698 -0.1288,0.2699 0,0.5976 0.2575,0.7325 2.9981,1.426 6.1986,2.14 9.5094,2.14 z"
           fill="#f3ffff"
           id="path1001"
           style="stroke-width:24.0979" />
      </g>
      <path
         d="m 0.666992,78.0116 c 0,-19.4687 15.119408,-35.3135 33.715208,-35.3135 18.5774,0 33.7153,15.8448 33.7153,35.3135 0,19.4686 -15.1195,35.3134 -33.7153,35.3134 -18.5958,0 -33.715208,-15.8448 -33.715208,-35.3134 z m 4.212088,0 c 0,17.0399 13.22492,30.8994 29.48472,30.8994 16.2599,0 29.4848,-13.8595 29.4848,-30.8994 0,-17.0399 -13.2249,-30.8993 -29.4848,-30.8993 -16.2598,0 -29.48472,13.8594 -29.48472,30.8993 z"
         fill="#2d2861"
         id="path1005"
         style="stroke-width:6.76677" />
      <path
         d="m 3.48438,78.0118 c 0,-17.8495 13.85032,-32.3643 30.88262,-32.3643 17.0324,0 30.8827,14.5148 30.8827,32.3643 0,17.8495 -13.8503,32.3642 -30.8827,32.3642 -17.0323,0 -30.88262,-14.5147 -30.88262,-32.3642 z m 1.58183,0 c 0,16.9243 13.13299,30.7062 29.30079,30.7062 16.1495,0 29.3009,-13.7627 29.3009,-30.7062 0,-16.9243 -13.133,-30.7066 -29.3009,-30.7066 -16.1494,0 -29.30079,13.7823 -29.30079,30.7066 z"
         fill="#7271b3"
         id="path1007"
         style="stroke-width:6.76677" />
      <g
         opacity="0.57"
         id="g1011"
         style="stroke-width:6.76677">
        <path
           opacity="0.57"
           d="m 8.20996,78.0117 c 0,-15.1123 11.73504,-27.4104 26.15554,-27.4104 14.4205,0 26.1556,12.2981 26.1556,27.4104 0,15.1123 -11.7351,27.4103 -26.1556,27.4103 -14.4205,0 -26.15554,-12.298 -26.15554,-27.4103 z m 1.04842,0 c 0,14.5148 11.25682,26.3113 25.10712,26.3113 13.8503,0 25.1072,-11.7965 25.1072,-26.3113 C 59.4727,63.4969 48.2158,51.7 34.3655,51.7 20.5336,51.7 9.25838,63.4969 9.25838,78.0117 Z"
           fill="#f3ffff"
           id="path1009"
           style="stroke-width:24.0979" />
      </g>
      <path
         d="m 33.812,79.3996 c 0.4599,0 0.9197,-0.2506 1.1588,-0.7132 L 70.4151,11.0472 c 0.331,-0.6554 0.515,-1.38785 0.515,-2.12033 V 4.55124 c 0,-0.86742 0.5518,-1.29148 0.7909,-1.42641 0.2391,-0.13493 0.8645,-0.42408 1.5818,0.01927 l 6.1803,3.87445 c 0.6253,0.38552 1.4346,0.17348 1.8025,-0.4819 0.3679,-0.65538 0.1655,-1.50351 -0.4598,-1.88903 L 74.6456,0.773166 C 73.3396,-0.0556973 71.7578,-0.0749708 70.4151,0.715341 69.0907,1.50565 68.2814,2.93207 68.2814,4.53197 v 4.3949 c 0,0.26986 -0.0735,0.53972 -0.2023,0.79031 L 32.6164,77.3371 c -0.3494,0.6746 -0.1103,1.5035 0.5151,1.8697 0.2391,0.1349 0.4598,0.1928 0.6805,0.1928 z"
         fill="#74c412"
         id="path1013"
         style="stroke-width:6.76677" />
      <path
         d="m 34.3647,83.9101 c 3.1085,0 5.6284,-2.6408 5.6284,-5.8984 0,-3.2576 -2.5199,-5.8984 -5.6284,-5.8984 -3.1085,0 -5.6284,2.6408 -5.6284,5.8984 0,3.2576 2.5383,5.8984 5.6284,5.8984 z"
         fill="#352e73"
         id="path1015"
         style="stroke-width:6.76677" />
      <path
         d="m 39.166,77.6839 c 0.1839,3.0457 -2.2072,5.5516 -5.1134,5.3588 -2.3911,-0.1542 -4.3408,-2.1975 -4.488,-4.7034 -0.1839,-3.0456 2.2072,-5.5515 5.1134,-5.3587 2.3911,0.1542 4.3408,2.1974 4.488,4.7033 z"
         fill="#adeff7"
         id="path1017"
         style="stroke-width:6.76677" />
      <path
         d="m 33.0216,77.7611 c -0.1471,0.9831 0.6438,1.812 1.5819,1.6385 0.5702,-0.0964 1.0116,-0.5783 1.1036,-1.1566 0.1471,-0.9831 -0.6438,-1.8119 -1.5819,-1.6577 -0.5518,0.1156 -1.0116,0.5975 -1.1036,1.1758 z"
         fill="#f3ffff"
         id="path1019"
         style="stroke-width:6.76677" />
    </g>
    <g
       style="fill:none;stroke-width:1.90014"
       id="g1233"
       transform="matrix(0.26313563,0,0,0.26313563,-2.9072282,-3.718757)">
      <path
         d="m 77.4428,102.051 c 0.7871,0.357 1.7432,-0.013 2.1257,-0.856 C 88.6624,81.1697 80.525,57.8071 61.3993,49.1219 53.2097,45.403 43.8679,44.8444 35.1104,47.5362 c -0.85,0.2703 -1.3641,1.18 -1.1318,2.0476 0.2322,0.8676 1.0967,1.3661 1.9467,1.0958 8.031,-2.4713 16.5914,-1.9712 24.1111,1.4436 17.5347,7.9627 25.0042,29.3707 16.6595,47.7466 -0.3826,0.8422 -0.057,1.8162 0.7469,2.1812 z"
         fill="#74c412"
         id="path1131"
         style="stroke-width:6.76677" />
      <path
         d="m 110.401,115.197 c 8.05,-17.7266 28.367,-25.902 45.282,-18.2207 16.915,7.6817 24.147,28.3677 16.097,46.0937 -8.049,17.727 -28.367,25.902 -45.299,18.213 -16.932,-7.689 -24.13,-28.36 -16.08,-46.086 z m 3.852,1.749 c -7.046,15.515 -0.735,33.603 14.07,40.326 14.805,6.723 32.577,-0.428 39.622,-15.943 7.046,-15.516 0.735,-33.603 -14.07,-40.326 -14.805,-6.723 -32.577,0.428 -39.622,15.943 z"
         fill="#2d2861"
         id="path1133"
         style="stroke-width:6.76677" />
      <path
         d="m 112.98,116.368 c 7.38,-16.252 25.992,-23.7415 41.5,-16.699 15.509,7.042 22.118,25.985 14.738,42.237 -7.381,16.253 -25.993,23.742 -41.501,16.699 -15.508,-7.042 -22.118,-25.985 -14.737,-42.237 z m 1.44,0.654 c -6.998,15.41 -0.739,33.389 13.982,40.074 14.705,6.677 32.37,-0.416 39.375,-15.844 6.998,-15.409 0.739,-33.389 -13.982,-40.074 -14.704,-6.677 -32.377,0.434 -39.375,15.844 z"
         fill="#7271b3"
         id="path1135"
         style="stroke-width:6.76677" />
      <g
         opacity="0.57"
         id="g1139"
         style="stroke-width:6.76677">
        <path
           opacity="0.57"
           d="m 117.284,118.323 c 6.248,-13.76 22.018,-20.1059 35.148,-14.143 13.13,5.962 18.73,22.012 12.482,35.772 -6.249,13.76 -22.019,20.105 -35.149,14.143 -13.13,-5.963 -18.73,-22.012 -12.481,-35.772 z m 0.954,0.433 c -6.001,13.216 -0.629,28.612 11.981,34.338 12.611,5.727 27.739,-0.36 33.74,-13.576 6.002,-13.216 0.63,-28.611 -11.981,-34.338 -12.611,-5.7267 -27.738,0.36 -33.74,13.576 z"
           fill="#f3ffff"
           id="path1137"
           style="stroke-width:24.0979" />
      </g>
      <g
         opacity="0.57"
         id="g1143"
         style="stroke-width:6.76677">
        <path
           opacity="0.57"
           d="m 131.191,150.953 c 11.489,5.217 25.265,-0.34 30.724,-12.363 1.594,-3.51 2.346,-7.212 2.233,-11.011 -0.006,-0.299 -0.242,-0.533 -0.557,-0.507 -0.291,0.017 -0.527,0.269 -0.512,0.593 0.11,3.628 -0.604,7.157 -2.126,10.509 -5.213,11.479 -18.362,16.77 -29.315,11.796 -2.881,-1.308 -5.374,-3.202 -7.404,-5.627 -0.179,-0.23 -0.519,-0.236 -0.748,-0.044 -0.229,0.193 -0.247,0.544 -0.068,0.774 2.14,2.538 4.759,4.511 7.773,5.88 z"
           fill="#f3ffff"
           id="path1141"
           style="stroke-width:24.0979" />
      </g>
      <path
         d="m 132.635,108.315 c 0.134,0.061 0.275,0.061 0.423,0.002 5.64,-2.499 12.016,-2.483 17.492,0.004 0.268,0.122 0.59,-0.007 0.717,-0.288 0.128,-0.281 0.014,-0.608 -0.254,-0.73 -5.745,-2.608 -12.411,-2.608 -18.339,-0.008 -0.28,0.127 -0.407,0.451 -0.302,0.71 0.044,0.168 0.146,0.257 0.263,0.31 z"
         fill="#f3ffff"
         id="path1145"
         style="stroke-width:6.76677" />
      <path
         d="m 131.035,94.3148 c 0.335,0.1521 0.709,0.1737 1.081,0.0672 8.031,-2.4712 16.591,-1.9711 24.111,1.4436 6.347,2.8824 11.575,7.6064 15.143,13.6724 0.446,0.753 1.43,0.988 2.177,0.502 0.746,-0.487 1.009,-1.511 0.563,-2.264 -3.886,-6.612 -9.604,-11.7707 -16.52,-14.9116 -8.19,-3.719 -17.532,-4.2776 -26.289,-1.5857 -0.85,0.2703 -1.364,1.18 -1.132,2.0476 0.125,0.4803 0.448,0.8383 0.866,1.0285 z"
         fill="#74c412"
         id="path1147"
         style="stroke-width:6.76677" />
      <path
         d="m 100.765,109.995 c 0.419,0.191 0.924,0.145 1.35,-0.17 l 48.952,-37.5551 c 0.597,-0.4698 0.739,-1.3157 0.304,-1.9154 -0.434,-0.5996 -1.25,-0.716 -1.847,-0.2463 l -48.952,37.5558 c -0.5975,0.469 -0.7392,1.315 -0.304,1.915 0.119,0.181 0.296,0.325 0.497,0.416 z"
         fill="#74c312"
         id="path1149"
         style="stroke-width:6.76677" />
      <path
         d="m 97.3727,111.418 c 44.8983,19.415 43.2953,19.788 44.5213,18.778 0.866,-0.707 0.814,2.656 -3.358,-49.8139 L 92.5997,47.7723 c -0.7066,-0.4903 -1.6802,-0.1702 -2.0045,0.6775 -0.2535,0.647 -0.2275,-0.6114 6.7775,62.9682 z M 93.489,51.7751 136.001,81.9617 139.6,126.974 99.8602,109.499 Z"
         fill="#74c412"
         id="path1151"
         style="stroke-width:6.76677" />
      <path
         d="m 92.5985,47.7721 2.2132,1.5767 -3.9952,2.9702 c -0.3932,-3.6717 -0.3342,-3.6237 -0.2314,-3.8946 0.3331,-0.8225 1.3314,-1.1525 2.0134,-0.6523 z"
         fill="#2ba14c"
         id="path1153"
         style="stroke-width:6.76677" />
      <path
         d="m 149.515,70.0828 c 0.597,-0.4698 1.429,-0.3458 1.847,0.2463 0.435,0.5996 0.285,1.4631 -0.304,1.9153 l -2.782,2.1237 -2.248,-1.6345 z"
         fill="#2ba14c"
         id="path1155"
         style="stroke-width:6.76677" />
      <path
         d="m 142.62,125.784 c 0.201,0.092 0.424,0.002 0.536,-0.201 0.112,-0.203 0.033,-0.472 -0.168,-0.563 l -41.322,-21.242 c -0.193,-0.108 -0.457,-0.017 -0.552,0.194 -0.113,0.203 -0.033,0.472 0.168,0.563 l 41.321,21.242 z"
         fill="#352e73"
         id="path1157"
         style="stroke-width:6.76677" />
      <path
         d="m 95.4365,115.853 0.0167,0.008 43.7898,17.408 c 0.209,0.074 0.456,-0.025 0.535,-0.244 0.079,-0.218 -0.009,-0.469 -0.218,-0.543 L 95.7704,115.074 c -0.2089,-0.074 -0.4561,0.025 -0.535,0.243 -0.0789,0.219 1e-4,0.445 0.2011,0.536 z"
         fill="#352e73"
         id="path1159"
         style="stroke-width:6.76677" />
      <path
         d="m 105.831,112.846 c -1.763,4.238 -6.5748,6.16 -10.4802,4.217 -3.5449,-1.758 -5.0977,-6.168 -3.4934,-10.012 1.7629,-4.238 6.5749,-6.16 10.5046,-4.227 3.537,1.776 5.073,6.178 3.469,10.022 z"
         fill="#352e73"
         id="path1161"
         style="stroke-width:6.76677" />
      <path
         d="m 80.9972,123.141 c 0.1674,0.076 0.358,0.057 0.5135,-0.063 l 17.3865,-12.174 c 0.2375,-0.167 0.314,-0.513 0.1601,-0.753 -0.154,-0.239 -0.4873,-0.306 -0.7249,-0.138 l -17.3865,12.174 c -0.2376,0.167 -0.3141,0.513 -0.1601,0.753 0.0598,0.09 0.1276,0.163 0.2114,0.201 z"
         fill="#000000"
         id="path1163"
         style="stroke-width:6.76677" />
      <path
         d="m 79.814,124.679 c 0.453,0.248 1.0231,0.104 1.3548,-0.359 0.3475,-0.498 0.2684,-1.169 -0.195,-1.528 l -9.3976,-7.02 c -0.4713,-0.341 -1.1252,-0.235 -1.4895,0.255 -0.3475,0.499 -0.2684,1.17 0.195,1.529 l 9.4055,7.002 c 0.051,0.065 0.0933,0.106 0.1268,0.121 z"
         fill="#352e73"
         id="path1165"
         style="stroke-width:6.76677" />
      <path
         d="m 157.97,71.7846 -9.345,-4.2437 c -0.686,-0.3118 -1.527,0.0264 -1.854,0.7459 l -0.717,1.5796 c -0.327,0.7196 -0.028,1.5749 0.658,1.8867 l 11.807,5.3617 c 0.921,0.4183 2.02,-0.3107 1.992,-1.3608 -0.04,-1.6907 -0.966,-3.2545 -2.541,-3.9694 z"
         fill="#352e73"
         id="path1167"
         style="stroke-width:6.76677" />
      <path
         d="m 138.659,134.507 c 2.83,1.286 6.217,-0.077 7.564,-3.043 1.347,-2.966 0.144,-6.413 -2.686,-7.698 -2.831,-1.285 -6.217,0.077 -7.564,3.043 -1.347,2.967 -0.144,6.413 2.686,7.698 z"
         fill="#352e73"
         id="path1169"
         style="stroke-width:6.76677" />
      <path
         d="m 145.604,130.823 c -1.092,2.849 -4.305,4.142 -6.872,2.765 -2.113,-1.129 -3.043,-3.796 -2.141,-6.138 1.092,-2.849 4.305,-4.142 6.871,-2.765 2.114,1.129 3.044,3.796 2.142,6.138 z"
         fill="#adeff7"
         id="path1171"
         style="stroke-width:6.76677" />
      <path
         d="m 139.98,128.354 c -0.54,0.834 -0.163,1.916 0.763,2.146 0.559,0.148 1.16,-0.109 1.483,-0.597 0.541,-0.834 0.163,-1.916 -0.755,-2.163 -0.55,-0.123 -1.168,0.125 -1.491,0.614 z"
         fill="#f3ffff"
         id="path1173"
         style="stroke-width:6.76677" />
      <g
         opacity="0.57"
         id="g1177"
         style="stroke-width:6.76677">
        <path
           opacity="0.57"
           d="m 35.4971,107.497 c 11.4889,5.217 25.2646,-0.34 30.7241,-12.3627 1.5941,-3.5102 2.3459,-7.2123 2.2326,-11.0109 -0.0056,-0.2989 -0.2425,-0.5335 -0.5575,-0.5072 -0.2903,0.0164 -0.5262,0.2691 -0.5118,0.5932 0.1101,3.6278 -0.6036,7.1567 -2.1259,10.509 -5.2124,11.4786 -18.3622,16.7696 -29.3152,11.7956 -2.8806,-1.308 -5.3738,-3.202 -7.4038,-5.627 -0.1786,-0.23 -0.5191,-0.236 -0.7479,-0.044 -0.2289,0.193 -0.2471,0.544 -0.0684,0.774 2.14,2.538 4.7592,4.511 7.7738,5.88 z"
           fill="#f3ffff"
           id="path1175"
           style="stroke-width:24.0979" />
      </g>
      <path
         d="M 14.722,71.7477 C 22.7718,54.0212 43.0897,45.8457 60.0215,53.5347 76.9365,61.216 84.1683,81.902 76.1185,99.6285 68.0687,117.355 47.7508,125.53 30.819,117.842 13.8872,110.153 6.67219,89.4742 14.722,71.7477 Z m 3.8352,1.7416 c -7.0456,15.5151 -0.7346,33.6027 14.0702,40.3257 14.8048,6.723 32.5768,-0.428 39.6224,-15.9433 7.0456,-15.5151 0.7346,-33.6024 -14.0702,-40.3255 -14.8048,-6.723 -32.5769,0.428 -39.6224,15.9431 z"
         fill="#2d2861"
         id="path1179"
         style="stroke-width:6.76677" />
      <path
         d="M 17.2861,72.9127 C 24.6665,56.6604 43.2789,49.1713 58.7871,56.2137 74.2953,63.2562 80.9047,82.1989 73.5244,98.4511 66.1441,114.703 47.5317,122.193 32.0234,115.15 16.5152,108.108 9.90581,89.1649 17.2861,72.9127 Z m 1.4403,0.654 c -6.9977,15.4098 -0.7386,33.3893 13.9825,40.0743 14.7043,6.677 32.3695,-0.417 39.3752,-15.8439 6.9978,-15.4098 0.7387,-33.389 -13.9824,-40.074 -14.7044,-6.6774 -32.3775,0.4338 -39.3753,15.8436 z"
         fill="#7271b3"
         id="path1181"
         style="stroke-width:6.76677" />
      <g
         opacity="0.57"
         id="g1185"
         style="stroke-width:6.76677">
        <path
           opacity="0.57"
           d="M 21.5893,74.8666 C 27.8379,61.1066 43.6078,54.7612 56.7379,60.7237 69.868,66.6863 75.468,82.736 69.2194,96.496 62.9708,110.256 47.201,116.601 34.0709,110.639 20.9408,104.676 15.3408,88.6266 21.5893,74.8666 Z m 0.9546,0.4335 C 16.5424,88.516 21.9142,103.912 34.5252,109.638 47.1361,115.365 62.2633,109.278 68.2648,96.0625 74.2663,82.8466 68.8945,67.4509 56.2836,61.7241 43.6894,56.005 28.5454,62.0842 22.5439,75.3001 Z"
           fill="#f3ffff"
           id="path1183"
           style="stroke-width:24.0979" />
      </g>
      <path
         d="m 44.3266,86.716 c 0.4186,0.1901 0.9409,0.1521 1.3499,-0.1703 L 105.916,39.6146 c 0.573,-0.4599 1.043,-1.0508 1.346,-1.7177 l 1.809,-3.9841 c 0.359,-0.7898 1.036,-0.9477 1.31,-0.9717 0.273,-0.024 0.962,-0.0287 1.432,0.6716 l 4.025,6.0831 c 0.411,0.6096 1.235,0.7512 1.841,0.3065 0.606,-0.4446 0.772,-1.3005 0.362,-1.9101 l -4.025,-6.0831 c -0.846,-1.2947 -2.278,-1.9663 -3.828,-1.8019 -1.532,0.172 -2.859,1.1362 -3.521,2.5929 l -1.817,4.0016 c -0.111,0.2458 -0.29,0.461 -0.511,0.636 l -60.2482,46.906 c -0.5972,0.4698 -0.7222,1.3233 -0.3042,1.9154 0.1619,0.2217 0.339,0.3656 0.54,0.4569 z"
         fill="#74c412"
         id="path1187"
         style="stroke-width:6.76677" />
      <path
         d="m 42.9648,91.0513 c 2.8304,1.2853 6.2167,-0.0772 7.5636,-3.0433 1.347,-2.9662 0.1445,-6.4125 -2.6859,-7.6978 -2.8303,-1.2853 -6.2166,0.0772 -7.5636,3.0433 -1.3469,2.9661 -0.1276,6.4201 2.6859,7.6978 z"
         fill="#352e73"
         id="path1189"
         style="stroke-width:6.76677" />
      <path
         d="m 49.9106,87.3677 c -1.0918,2.8491 -4.3051,4.1421 -6.8715,2.765 -2.1134,-1.1291 -3.0438,-3.7957 -2.1417,-6.1382 1.0919,-2.8491 4.3051,-4.1421 6.8715,-2.765 2.1134,1.1291 3.0438,3.7957 2.1417,6.1382 z"
         fill="#adeff7"
         id="path1191"
         style="stroke-width:6.76677" />
      <path
         d="m 44.284,84.8973 c -0.5405,0.8343 -0.163,1.9161 0.7628,2.146 0.559,0.148 1.1602,-0.1083 1.4831,-0.5968 0.5404,-0.8343 0.163,-1.916 -0.7549,-2.1635 -0.5502,-0.1228 -1.1682,0.1258 -1.491,0.6143 z"
         fill="#f3ffff"
         id="path1193"
         style="stroke-width:6.76677" />
    </g>
  </g>
</svg>
