<?xml version="1.0" encoding="UTF-8" standalone="no"?>
<svg
   width="1441"
   height="611"
   viewBox="0 0 1441 611"
   fill="none"
   version="1.1"
   id="svg51"
   sodipodi:docname="Group 24.svg"
   inkscape:version="1.1 (c68e22c387, 2021-05-23)"
   xmlns:inkscape="http://www.inkscape.org/namespaces/inkscape"
   xmlns:sodipodi="http://sodipodi.sourceforge.net/DTD/sodipodi-0.dtd"
   xmlns="http://www.w3.org/2000/svg"
   xmlns:svg="http://www.w3.org/2000/svg">
  <sodipodi:namedview
     id="namedview53"
     pagecolor="#ffffff"
     bordercolor="#666666"
     borderopacity="1.0"
     inkscape:pageshadow="2"
     inkscape:pageopacity="0.0"
     inkscape:pagecheckerboard="0"
     showgrid="false"
     inkscape:snap-global="true"
     inkscape:snap-page="true"
     inkscape:snap-nodes="true"
     inkscape:snap-bbox="true"
     inkscape:zoom="0.7647467"
     inkscape:cx="1246.1642"
     inkscape:cy="543.31715"
     inkscape:window-width="1857"
     inkscape:window-height="1057"
     inkscape:window-x="-8"
     inkscape:window-y="-8"
     inkscape:window-maximized="1"
     inkscape:current-layer="svg51" />
  <path
     d="M1064.56 528.322C1069.75 525.2 1075.79 526.728 1080.91 529.985C1085.06 519.074 1092.79 516.335 1092.33 516.58C1092.39 516.559 1093.92 515.888 1093.85 515.946C1097.55 514.35 1105.41 512.859 1112.5 513.38C1098.46 516.155 1087.88 519.313 1084.13 533.223C1084.12 533.26 1083.26 536.825 1083.26 536.825C1081.1 535.237 1073.37 527.814 1066.19 531.323C1060.81 534.055 1054.16 540.575 1049.87 544.882C1053.15 538.994 1058.8 531.912 1064.56 528.322Z"
     fill="#7271B3"
     id="path2" />
  <path
     d="M1269.91 25.1977C1273.82 22.8508 1278.36 23.9998 1282.21 26.4481C1285.33 18.2456 1291.14 16.1859 1290.8 16.3701C1290.84 16.3541 1291.99 15.8498 1291.93 15.8939C1294.71 14.6934 1300.63 13.5727 1305.96 13.9643C1295.4 16.0505 1287.45 18.4247 1284.63 28.8828C1284.62 28.9108 1283.97 31.5906 1283.97 31.5906C1282.35 30.3969 1276.54 24.8162 1271.14 27.4543C1267.1 29.5081 1262.1 34.4098 1258.87 37.6484C1261.34 33.2212 1265.59 27.8972 1269.91 25.1977Z"
     fill="#7271B3"
     id="path4" />
  <path
     d="M956.249 479.671C959.624 481.479 960.737 485.331 960.641 489.191C967.954 487.849 971.954 491.179 971.666 491.016C971.704 491.026 972.565 491.683 972.498 491.623C974.585 493.122 977.911 496.943 979.913 501.038C973.827 494.224 968.673 489.481 959.868 492.021C959.83 492.011 957.6 492.712 957.6 492.712C957.769 491.026 959.321 484.269 955.083 481.507C951.86 479.445 946.108 477.961 942.37 477.025C946.718 476.944 952.42 477.697 956.249 479.671Z"
     fill="#7271B3"
     id="path6" />
  <path
     d="M890.632 256.12L899.722 254.399C899.722 254.399 900.15 257.949 896.184 258.831C891.351 259.878 890.632 256.12 890.632 256.12Z"
     fill="white"
     id="path8" />
  <path
     d="M1210.55 204.15L1219.32 207.104C1219.32 207.104 1217.95 210.408 1214.07 209.233C1209.34 207.778 1210.55 204.15 1210.55 204.15Z"
     fill="white"
     id="path10" />
  <path
     d="M1406.69 172.812C1329.19 42.6931 1270.95 219.927 1157.66 104.109C881.889 15.6455 983.569 373.233 928.858 360.801C850.858 342.992 841.611 249.115 751.271 327.677C728.725 347.318 698.509 397.667 690.158 456.549C681.375 518.316 692.23 590.371 692.23 590.371L1410.15 609.7C1429.76 541.893 1468.27 276.16 1406.69 172.812Z"
     fill="url(#paint0_linear)"
     id="path12" />
  <path
     d="M22.4883 587.467H1416.99C1429.33 587.467 1439.31 594.24 1439.31 602.609V610.589H0.162109V602.609C0.162109 594.24 10.1486 587.467 22.4883 587.467Z"
     fill="#FEE2BF"
     id="path14" />
  <path
     opacity="0.22"
     d="M1453.86 411.823C1453.91 419.519 1453.97 427.16 1454.02 434.856C1356.08 433.283 1258.14 431.766 1160.2 430.193C1000.5 430.193 846.111 368.789 750.315 299.633C749.725 299.183 749.082 298.79 748.492 298.341C789.984 299.689 834.157 300.756 874.416 312.498C913.657 323.846 945.446 353.452 983.882 367.666C1079.73 403.171 1187 350.7 1286.6 372.048C1343.05 384.126 1396.82 419.8 1453.86 411.429C1453.86 411.542 1453.86 411.71 1453.86 411.823Z"
     fill="white"
     id="path16" />
  <path
     d="M993.22 165.316C996.342 163.952 1000.06 163.134 1004.04 163.095C1007.72 157.33 1016.27 153.474 1026 153.474C1031.84 153.474 1037.38 154.915 1041.65 157.369C1046.41 150.202 1057.3 145.177 1069.68 145.177C1077.82 145.177 1085.51 147.28 1091.2 151.059C1092.02 150.981 1092.84 150.942 1093.65 150.942C1102.5 150.942 1109.71 155.694 1109.71 161.537C1109.71 162.861 1109.34 164.147 1108.63 165.354H993.22V165.316Z"
     fill="white"
     id="path18" />
  <path
     d="M1266.48 334.071C1272.02 331.652 1278.62 330.201 1285.67 330.131C1292.2 319.903 1307.37 313.061 1324.65 313.061C1335 313.061 1344.83 315.618 1352.41 319.972C1360.85 307.256 1380.18 298.341 1402.14 298.341C1416.58 298.341 1430.23 302.073 1440.32 308.776C1441.77 308.638 1443.22 308.569 1444.67 308.569C1460.37 308.569 1473.16 317 1473.16 327.367C1473.16 329.717 1472.5 331.997 1471.25 334.14H1266.48V334.071Z"
     fill="white"
     id="path20" />
  <path
     d="M1109.75 118.728C1112.87 117.364 1116.59 116.546 1120.56 116.507C1124.24 110.742 1132.79 106.886 1142.53 106.886C1148.37 106.886 1153.91 108.327 1158.18 110.781C1162.94 103.614 1173.83 98.5889 1186.21 98.5889C1194.35 98.5889 1202.04 100.692 1207.73 104.471C1208.55 104.393 1209.36 104.354 1210.18 104.354C1219.03 104.354 1226.24 109.106 1226.24 114.949C1226.24 116.274 1225.87 117.559 1225.16 118.767H1109.75V118.728Z"
     fill="white"
     id="path22" />
  <path
     d="M1054.23 269.161C1053.01 269.083 1051.78 269.044 1050.55 269.044C1041.41 254.631 1020.04 245.01 995.802 245.01C981.231 245.01 967.441 248.594 956.774 254.709C944.916 236.83 917.708 224.287 886.894 224.287C866.637 224.287 847.42 229.584 833.184 238.933C831.139 238.738 829.095 238.622 827.013 238.622C804.934 238.622 787.019 250.502 787.019 265.071C787.019 265.11 787.019 265.149 787.019 265.188C787.056 270.407 791.182 274.575 796.125 274.575H1054.08C1057.39 274.536 1057.54 269.356 1054.23 269.161Z"
     fill="white"
     id="path24" />
  <path
     d="M1103.51 570C1111.19 564.541 1149.88 585.178 1149.88 585.178C1149.88 585.178 1126.03 542.325 1135.08 530.642C1144.13 519.007 1157.15 539.644 1157.15 539.644C1157.15 539.644 1139.33 505.218 1158.93 493.343C1174.33 484.007 1188.45 509.24 1191.46 514.842V611.416H1097.71C1097.71 611.368 1095.79 575.458 1103.51 570Z"
     fill="#238E3C"
     id="path26" />
  <path
     d="M1386.89 204.754C1381.5 206.04 1378.49 211.104 1377.15 216.713C1367.52 211.922 1360.68 215.155 1361.13 215.038C1361.09 215.038 1359.64 215.622 1359.72 215.583C1356.26 216.947 1350.17 221.115 1345.82 226.14C1356.82 218.778 1365.81 213.947 1377.08 221.037C1377.11 221.076 1379.94 222.946 1379.94 222.946C1380.35 220.453 1380.76 210.169 1387.67 207.832C1392.95 206.157 1401.46 206.235 1407 206.391C1401.16 204.56 1392.95 203.43 1386.89 204.754Z"
     fill="#7271B3"
     id="path28" />
  <path
     d="M979.946 459.375C974.556 460.66 971.545 465.724 970.207 471.333C960.58 466.542 953.741 469.775 954.187 469.658C954.15 469.658 952.7 470.242 952.775 470.204C949.318 471.567 943.222 475.735 938.873 480.76C949.875 473.398 958.87 468.568 970.133 475.657C970.17 475.696 972.995 477.566 972.995 477.566C973.404 475.073 973.813 464.789 980.726 462.452C986.004 460.777 994.516 460.855 1000.05 461.011C994.219 459.18 986.004 458.05 979.946 459.375Z"
     fill="#7271B3"
     id="path30" />
  <path
     d="M854.687 68.9454C857.92 69.7245 859.742 72.7629 860.522 76.1518C866.321 73.2692 870.447 75.2169 870.187 75.139C870.224 75.139 871.079 75.4896 871.041 75.4506C873.123 76.2686 876.803 78.7616 879.405 81.8C872.788 77.3593 867.362 74.4768 860.597 78.7227C860.56 78.7227 858.887 79.8523 858.887 79.8523C858.627 78.3332 858.404 72.1786 854.241 70.7762C851.007 69.7635 845.915 69.8414 842.569 69.9193C846.1 68.8286 851.044 68.1274 854.687 68.9454Z"
     fill="#7271B3"
     id="path32" />
  <path
     d="M1319.39 168.003C1316.19 164.731 1311.54 164.848 1307.34 166.367C1306.19 157.408 1301.06 153.941 1301.36 154.214C1301.32 154.214 1300.32 153.396 1300.39 153.474C1297.98 151.604 1292.59 149.111 1287.42 148.254C1297.05 152.812 1304.15 157.097 1304.52 168.237C1304.52 168.276 1304.56 171.12 1304.56 171.12C1306.38 170.302 1313.18 166.056 1317.75 169.951C1321.17 172.95 1324.89 179.066 1327.23 183.078C1325.82 178.053 1322.92 171.704 1319.39 168.003Z"
     fill="#7271B3"
     id="path34" />
  <path
     d="M830.221 435.334C827.024 432.062 822.378 432.179 818.178 433.698C817.026 424.739 811.896 421.272 812.194 421.545C812.156 421.545 811.153 420.727 811.227 420.804C808.811 418.935 803.421 416.442 798.255 415.585C807.882 420.142 814.981 424.427 815.353 435.568C815.353 435.607 815.39 438.45 815.39 438.45C817.211 437.632 824.014 433.386 828.585 437.282C832.005 440.281 835.722 446.397 838.064 450.409C836.651 445.384 833.752 439.035 830.221 435.334Z"
     fill="#7271B3"
     id="path36" />
  <path
     d="M803.57 188.606C799.073 191.995 798.18 197.877 799.073 203.603C788.405 203.136 783.312 208.901 783.684 208.589C783.647 208.628 782.532 209.719 782.606 209.68C779.93 212.329 775.841 218.678 773.723 225.105C781.119 213.809 787.587 205.707 800.634 207.654C800.671 207.654 803.979 208.238 803.979 208.238C803.421 205.745 799.965 196.163 805.503 191.177C809.74 187.476 817.62 184.087 822.787 181.945C816.654 182.607 808.662 184.906 803.57 188.606Z"
     fill="#7271B3"
     id="path38" />
  <path
     d="M490.842 399.512C485.265 400.293 481.631 405.003 479.632 410.443C470.531 404.857 463.281 407.427 463.757 407.335C463.706 407.351 462.202 407.763 462.286 407.765C458.66 408.783 452.004 412.35 447.033 416.942C458.982 410.654 468.569 406.708 479.031 414.742C479.064 414.76 481.673 416.876 481.673 416.876C482.395 414.426 484.022 404.37 491.284 402.698C496.785 401.518 505.32 402.379 510.877 403.013C505.193 400.616 497.09 398.747 490.842 399.512Z"
     fill="#7271B3"
     id="path40" />
  <path
     d="M916.297 134.765C912.134 133.09 907.897 135.037 904.589 138.192C900.166 130.402 894.181 129.311 894.553 129.428C894.516 129.428 893.289 129.116 893.363 129.116C890.464 128.376 884.554 128.298 879.462 129.623C890.055 129.895 898.158 130.908 902.656 141.036C902.656 141.075 903.771 143.685 903.771 143.685C905.146 142.205 909.83 135.505 915.48 137.219C919.754 138.582 925.441 142.711 929.084 145.438C925.961 141.426 920.906 136.751 916.297 134.765Z"
     fill="#7271B3"
     id="path42" />
  <defs
     id="defs49">
    <linearGradient
       id="paint0_linear"
       x1="686.72"
       y1="337.99"
       x2="1440.16"
       y2="337.99"
       gradientUnits="userSpaceOnUse">
      <stop
         stop-color="#BCE3F1"
         id="stop44" />
      <stop
         offset="1"
         stop-color="#D0F7FF"
         id="stop46" />
    </linearGradient>
  </defs>
  <path
     id="rect1006"
     style="fill:#02bbd0;stroke-width:3.00001;stroke-linecap:round"
     d="m 1243.0705,490.35846 197.9295,0 v 121.05753 h -257.2146 l 0,-55.65916 c 0,-55.73742 26.472,-65.39837 59.2851,-65.39837 z"
     sodipodi:nodetypes="cccccc" />
  <g
     style="fill:none"
     id="g982"
     transform="translate(1215.7124,286.5632)">
    <path
       d="m 55.47,65.6287 c -0.9821,0.0635 -3.6216,0.9536 -7.4888,8.5192 C 43.0704,83.8114 35.827,112.993 35.827,112.993 l 21.546,8.328 2.7623,-6.103 4.5424,-46.9191 c 0,0 -8.9621,-2.7338 -9.2077,-2.6702 z"
       fill="#d5017d"
       id="path916" />
    <path
       d="m 83.9536,61.3689 c -6.1384,0 -21.3618,1.8437 -28.4824,4.196 0,0 -5.2176,46.2201 4.6652,81.3771 2.2099,7.884 -1.8415,32.615 -1.8415,32.615 l 63.7781,-0.89 c 0,0 -7.55,-59.825 -4.726,-69.489 2.823,-9.6635 2.885,-43.3588 2.885,-43.3588 0,0 -0.43,-0.0636 -14.364,-2.543 -6.3228,-1.0808 -15.3463,-1.9073 -21.9144,-1.9073 z"
       fill="#f70064"
       id="path918" />
    <path
       d="m 91.3803,265.385 c 0,0 -1.4119,16.847 -3.99,21.552 -2.5781,4.641 0.1228,12.588 0.2456,13.732 0.1227,1.081 5.4631,2.671 13.9341,1.717 8.471,-0.954 8.348,-2.988 7.673,-6.23 -0.675,-3.243 -5.218,-7.502 -5.463,-10.618 -0.246,-3.115 2.578,-14.304 2.578,-14.304 z"
       fill="#f7a491"
       id="path920" />
    <path
       d="m 65.538,165.634 c 0,0 -44.0741,-2.543 -53.8956,3.624 -9.8215,6.167 6.9979,36.429 6.9979,36.429 0,0 30.6308,-1.462 90.6647,2.098 14.241,0.826 15.469,-38.4 12.768,-41.642 -2.639,-3.179 -56.535,-0.509 -56.535,-0.509 z"
       fill="#2ba04b"
       id="path922" />
    <path
       d="m 102.614,303.657 c 8.716,-0.953 7.611,-5.404 6.936,-8.773 -0.43,-2.098 -2.946,-4.578 -4.42,-6.93 -0.798,0.636 -2.025,1.78 -5.8311,2.925 -3.9286,1.208 -9.3305,-1.208 -12.768,-2.671 -1.2277,4.705 -1.289,10.745 -1.1662,11.635 0.1227,1.144 8.5324,4.832 17.2493,3.814 z"
       fill="#dd513a"
       id="path924" />
    <path
       d="M 97.8268,198.312 C 96.0467,212.108 87.3302,280.77 87.3302,280.77 l 20.1958,2.607 c 0,0 24.86,-89.579 23.571,-103.311 -1.289,-13.733 -10.558,-14.877 -10.558,-14.877 0,0 -18.047,-3.433 -22.7122,33.123 z"
       fill="#8dd041"
       id="path926" />
    <path
       d="m 121.031,71.0328 c -5.955,-2.2888 -8.901,53.3402 -9.699,76.2912 -10.558,1.081 -28.9736,0 -33.5774,-0.318 -2.1485,-0.191 -7.1206,-2.034 -9.2691,-2.352 -2.2098,-0.318 -4.1742,-0.445 -5.2791,-0.254 -0.3683,0.063 -11.4175,4.704 -12.3383,5.785 -1.1663,1.271 -4.2968,4.45 -3.8058,5.849 0.5525,1.399 6.0771,-3.878 6.0771,-3.878 l 2.7009,-1.59 c -3.3762,3.434 -9.8216,7.884 -8.9008,9.537 0.9208,1.589 6.691,-2.988 10.8651,-6.04 -3.5603,3.306 -7.98,9.282 -6.9365,10.172 0.9208,0.827 5.893,-6.039 11.2948,-8.01 1.9643,-0.763 3.99,1.271 5.5246,1.526 1.1663,0.19 2.9464,0.572 4.0513,0.254 l 5.7702,-1.717 c 1.9643,0.191 2.0257,1.399 3.99,1.844 2.3326,0.509 6.1385,1.017 9.0849,1.78 17.0031,4.323 22.6511,6.294 27.8681,6.294 15.776,-0.063 16.697,-89.7057 2.579,-95.1732 z"
       fill="#f7a491"
       id="path928" />
    <path
       d="m 132.325,123.292 c 1.105,-23.4595 0.982,-52.3866 -11.725,-57.3456 -5.033,-1.9708 -13.872,9.7907 -12.276,57.7906 6.813,0.636 16.757,1.081 24.001,-0.445 z"
       fill="#d5017d"
       id="path930" />
    <path
       d="m 32.2692,279.817 c 0,0 1.7801,5.849 -1.4119,9.727 -3.1306,3.878 -16.267,7.692 -17.9858,9.79 -1.7187,2.098 -1.5959,3.879 -1.5959,3.879 l 36.8308,-1.081 -0.4296,-11.508 -1.7188,-8.264 z"
       fill="#f7a491"
       id="path932" />
    <path
       d="m 28.585,291.514 c 0,0 9.4532,3.942 14.057,1.59 4.5425,-2.353 4.4198,-2.988 5.7702,-2.098 1.3505,0.89 1.7802,11.698 1.7802,11.698 l -41.43462,1.271 c -2.88508,-0.063 -4.35834,-2.288 -2.02572,-4.132 1.596,-1.272 3.43754,-2.162 4.54244,-2.797 3.2534,-1.971 17.3105,-5.532 17.3105,-5.532 z"
       fill="#dd513a"
       id="path934" />
    <path
       d="m 33.6806,176.442 c -2.8236,-6.231 -9.3303,-14.305 -20.6864,-9.409 -10.86496,4.641 -13.811407,16.021 -10.3739,27.719 3.43751,11.698 26.0268,80.36 26.7634,89.769 l 18.047,0.127 c 0,0 -3.2534,-54.357 -4.0514,-67.517 -0.8593,-12.589 -4.788,-29.945 -9.6987,-40.689 z"
       fill="#8dd041"
       id="path936" />
    <path
       d="M 4.39955,113.247 H 64.6175 c 1.596,0 3.0079,1.018 3.6217,2.543 l 18.538,46.983 h 33.2088 c 0.921,0 1.658,0.763 1.658,1.717 0,0.953 -0.737,1.716 -1.658,1.716 H 25.4543 c -2.5781,0 -4.9721,-1.589 -6.0156,-4.069 L 0.777863,118.906 c -1.10492,-2.607 0.798007,-5.659 3.621687,-5.659 z"
       fill="#03290b"
       id="path938" />
    <path
       d="m 36.8111,140.585 c 0.4297,2.098 2.1486,3.496 3.9288,3.178 1.7802,-0.381 2.8851,-2.352 2.4554,-4.513 -0.4297,-2.098 -2.2099,-3.497 -3.9901,-3.179 -1.6574,0.445 -2.7624,2.416 -2.3941,4.514 z"
       fill="#ffffff"
       id="path940" />
    <path
       d="m 69.6507,4.91357 c 1.8415,-0.63576 3.6217,-1.33509 5.3405,-2.22516 1.9643,-0.95364 4.481,-2.098009 6.077,-2.352313 3.3761,-0.508609 9.1463,-0.190727 12.3382,3.433103 3.99,4.45032 11.0496,0.82649 9.6376,24.1589 C 101.448,54.3757 87.2066,51.5148 86.8997,51.0698 86.5314,50.6247 74.2545,34.1585 74.2545,34.1585 c 0,0 -4.2969,9.7907 -4.2969,9.4093 C 69.8348,43.1863 47.7979,12.5427 69.6507,4.91357 Z"
       fill="#0e2e35"
       id="path942" />
    <path
       d="m 80.3931,52.9773 -1.2277,9.4728 c 0,0 -2.7623,13.6053 0.798,16.2754 3.5604,2.6067 15.0395,-16.6569 15.0395,-16.6569 L 93.7752,38.1005 Z"
       fill="#f7a491"
       id="path944" />
    <path
       d="M 94.2041,45.8567 C 91.2576,54.0581 84.3212,59.0806 79.4104,60.9878 L 80.454,52.9773 93.7744,38.1005 Z"
       fill="#f47458"
       id="path946" />
    <path
       d="M 81.1288,12.0341 C 73.64,10.7626 66.9492,16.993 67.1334,24.8129 c 0.0614,3.3695 0.3683,7.5655 1.0435,12.143 1.6574,10.9351 8.8392,20.535 13.5657,19.645 4.7265,-0.8901 16.6962,-10.2993 14.6092,-25.8119 -1.3504,-9.6 -7.3659,-17.4198 -15.223,-18.7549 z"
       fill="#f7a491"
       id="path948" />
    <path
       d="m 93.0378,32.6328 c 0.4297,2.4159 2.2712,4.0688 4.174,3.751 1.9029,-0.3179 3.0692,-2.5431 2.7009,-4.959 -0.4297,-2.4158 -2.2712,-4.0688 -4.1741,-3.7509 -1.9029,0.3179 -3.1305,2.543 -2.7008,4.9589 z"
       fill="#f7a491"
       id="path950" />
    <path
       d="m 95.7366,27.6738 c 0,0 -5.7702,1.4622 -7.8573,-2.3523 -2.1485,-3.8146 -9.7603,-12.0795 -19.4591,-8.6464 -9.6989,3.4331 8.5326,-8.32845 9.3306,-8.32845 0.798,0 10.0671,-0.06357 10.0671,-0.06357 0,0 7.1821,6.10332 7.4276,6.80262 0.2456,0.6994 2.3326,8.0106 2.3326,8.0106 z"
       fill="#0e2e35"
       id="path952" />
    <path
       d="m 85.1823,43.6315 -10.4357,2.098 c 0,0 0.9821,4.0689 5.6475,3.3059 5.5862,-0.9536 4.7882,-5.4039 4.7882,-5.4039 z"
       fill="#ffffff"
       id="path954" />
  </g>
</svg>
