<svg width="1440" height="611" viewBox="0 0 1440 611" fill="none" xmlns="http://www.w3.org/2000/svg">
<path d="M1064.39 528.133C1069.59 525.011 1075.63 526.54 1080.75 529.796C1084.9 518.886 1092.63 516.146 1092.17 516.391C1092.23 516.37 1093.75 515.699 1093.68 515.758C1097.38 514.161 1105.25 512.671 1112.34 513.191C1098.3 515.966 1087.72 519.124 1083.97 533.035C1083.96 533.072 1083.09 536.636 1083.09 536.636C1080.94 535.049 1073.21 527.626 1066.03 531.135C1060.65 533.866 1054 540.386 1049.71 544.694C1052.99 538.805 1058.64 531.724 1064.39 528.133Z" fill="#7271B3"/>
<path d="M1269.75 25.0093C1273.66 22.6624 1278.2 23.8114 1282.05 26.2597C1285.16 18.0572 1290.98 15.9975 1290.63 16.1817C1290.67 16.1657 1291.82 15.6614 1291.77 15.7055C1294.55 14.5049 1300.47 13.3843 1305.8 13.7759C1295.24 15.8621 1287.29 18.2363 1284.47 28.6943C1284.46 28.7224 1283.81 31.4022 1283.81 31.4022C1282.19 30.2085 1276.38 24.6278 1270.98 27.2659C1266.93 29.3197 1261.93 34.2214 1258.71 37.46C1261.18 33.0327 1265.43 27.7088 1269.75 25.0093Z" fill="#7271B3"/>
<path d="M956.087 479.483C959.462 481.291 960.575 485.142 960.479 489.002C967.792 487.66 971.792 490.99 971.503 490.827C971.542 490.838 972.403 491.495 972.336 491.435C974.423 492.933 977.748 496.755 979.751 500.849C973.665 494.036 968.511 489.293 959.706 491.833C959.668 491.822 957.438 492.523 957.438 492.523C957.607 490.838 959.159 484.08 954.92 481.319C951.698 479.257 945.946 477.772 942.208 476.837C946.556 476.756 952.258 477.509 956.087 479.483Z" fill="#7271B3"/>
<path d="M890.47 255.932L899.56 254.211C899.56 254.211 899.988 257.761 896.022 258.642C891.189 259.69 890.47 255.932 890.47 255.932Z" fill="white"/>
<path d="M1210.39 203.961L1219.16 206.916C1219.16 206.916 1217.79 210.22 1213.9 209.045C1209.18 207.589 1210.39 203.961 1210.39 203.961Z" fill="white"/>
<path d="M1406.53 172.624C1329.02 42.5046 1270.79 219.738 1157.5 103.921C881.727 15.4571 983.407 373.044 928.696 360.613C850.696 342.804 841.449 248.926 751.109 327.489C728.563 347.129 698.346 397.478 689.996 456.361C681.213 518.128 692.068 590.182 692.068 590.182L1409.99 609.511C1429.6 541.704 1468.11 275.971 1406.53 172.624Z" fill="url(#paint0_linear)"/>
<path d="M22.3262 587.279H1416.82C1429.16 587.279 1439.15 594.052 1439.15 602.421V610.4H0V602.421C0 594.052 9.98653 587.279 22.3262 587.279Z" fill="#FEE2BF"/>
<path opacity="0.22" d="M1453.7 411.634C1453.75 419.331 1453.8 426.971 1453.86 434.668C1355.92 433.095 1257.98 431.578 1160.03 430.005C1000.34 430.005 845.949 368.601 750.153 299.444C749.563 298.995 748.92 298.602 748.33 298.152C789.822 299.5 833.995 300.568 874.254 312.309C913.494 323.657 945.284 353.264 983.72 367.477C1079.57 402.983 1186.84 350.511 1286.44 371.859C1342.89 383.938 1396.66 419.612 1453.7 411.241C1453.7 411.353 1453.7 411.522 1453.7 411.634Z" fill="white"/>
<path d="M993.058 165.127C996.18 163.764 999.897 162.946 1003.87 162.907C1007.55 157.142 1016.1 153.285 1025.84 153.285C1031.68 153.285 1037.22 154.727 1041.49 157.181C1046.25 150.013 1057.14 144.988 1069.52 144.988C1077.66 144.988 1085.35 147.092 1091.04 150.87C1091.86 150.792 1092.67 150.753 1093.49 150.753C1102.34 150.753 1109.55 155.506 1109.55 161.349C1109.55 162.673 1109.18 163.959 1108.47 165.166H993.058V165.127Z" fill="white"/>
<path d="M1266.32 333.882C1271.86 331.463 1278.46 330.012 1285.51 329.943C1292.04 319.715 1307.21 312.873 1324.49 312.873C1334.84 312.873 1344.67 315.43 1352.25 319.784C1360.69 307.067 1380.01 298.152 1401.97 298.152C1416.42 298.152 1430.07 301.884 1440.16 308.588C1441.61 308.45 1443.06 308.38 1444.51 308.38C1460.2 308.38 1473 316.812 1473 327.179C1473 329.528 1472.34 331.809 1471.09 333.951H1266.32V333.882Z" fill="white"/>
<path d="M1109.59 118.539C1112.71 117.176 1116.43 116.358 1120.4 116.319C1124.08 110.554 1132.63 106.697 1142.37 106.697C1148.21 106.697 1153.74 108.139 1158.02 110.593C1162.78 103.425 1173.67 98.4004 1186.04 98.4004C1194.18 98.4004 1201.88 100.504 1207.57 104.282C1208.38 104.204 1209.2 104.165 1210.02 104.165C1218.87 104.165 1226.08 108.918 1226.08 114.761C1226.08 116.085 1225.7 117.371 1225 118.578H1109.59V118.539Z" fill="white"/>
<path d="M1054.07 268.972C1052.84 268.894 1051.62 268.855 1050.39 268.855C1041.25 254.443 1019.87 244.821 995.64 244.821C981.069 244.821 967.279 248.405 956.611 254.521C944.754 236.641 917.546 224.098 886.732 224.098C866.474 224.098 847.258 229.396 833.021 238.745C830.977 238.55 828.933 238.433 826.851 238.433C804.772 238.433 786.856 250.314 786.856 264.882C786.856 264.921 786.856 264.96 786.856 264.999C786.894 270.219 791.019 274.387 795.963 274.387H1053.92C1057.23 274.348 1057.38 269.167 1054.07 268.972Z" fill="white"/>
<path d="M1363.35 576.611C1369.59 572.17 1401.07 588.959 1401.07 588.959C1401.07 588.959 1381.67 554.096 1389.03 544.591C1396.39 535.125 1406.98 551.914 1406.98 551.914C1406.98 551.914 1392.49 523.907 1408.43 514.247C1420.96 506.651 1432.44 527.179 1434.9 531.737V610.305H1358.63C1358.63 610.266 1357.06 581.051 1363.35 576.611Z" fill="#238E3C"/>
<path d="M1386.73 204.566C1381.34 205.851 1378.33 210.915 1376.99 216.525C1367.36 211.733 1360.52 214.966 1360.97 214.85C1360.93 214.85 1359.48 215.434 1359.56 215.395C1356.1 216.758 1350 220.926 1345.65 225.951C1356.66 218.589 1365.65 213.759 1376.91 220.848C1376.95 220.887 1379.78 222.757 1379.78 222.757C1380.18 220.264 1380.59 209.98 1387.51 207.643C1392.79 205.968 1401.3 206.046 1406.84 206.202C1401 204.371 1392.79 203.242 1386.73 204.566Z" fill="#7271B3"/>
<path d="M854.525 68.7571C857.758 69.5362 859.58 72.5745 860.36 75.9634C866.159 73.0809 870.285 75.0285 870.024 74.9506C870.062 74.9506 870.917 75.3012 870.879 75.2623C872.961 76.0803 876.641 78.5733 879.243 81.6116C872.626 77.171 867.2 74.2884 860.435 78.5343C860.397 78.5343 858.725 79.664 858.725 79.664C858.465 78.1448 858.242 71.9902 854.079 70.5879C850.845 69.5751 845.753 69.653 842.407 69.7309C845.938 68.6402 850.882 67.9391 854.525 68.7571Z" fill="#7271B3"/>
<path d="M1319.22 167.815C1316.03 164.543 1311.38 164.66 1307.18 166.179C1306.03 157.22 1300.9 153.753 1301.2 154.026C1301.16 154.026 1300.16 153.207 1300.23 153.285C1297.81 151.416 1292.42 148.923 1287.26 148.066C1296.88 152.623 1303.98 156.908 1304.36 168.049C1304.36 168.088 1304.39 170.931 1304.39 170.931C1306.21 170.113 1313.02 165.867 1317.59 169.763C1321.01 172.762 1324.72 178.878 1327.07 182.89C1325.65 177.865 1322.76 171.515 1319.22 167.815Z" fill="#7271B3"/>
<path d="M803.408 188.418C798.91 191.807 798.018 197.688 798.91 203.415C788.243 202.947 783.15 208.712 783.522 208.401C783.485 208.44 782.37 209.53 782.444 209.491C779.768 212.14 775.679 218.489 773.561 224.917C780.957 213.62 787.425 205.518 800.472 207.466C800.509 207.466 803.817 208.05 803.817 208.05C803.259 205.557 799.802 195.974 805.341 190.988C809.578 187.288 817.458 183.899 822.625 181.757C816.492 182.419 808.5 184.717 803.408 188.418Z" fill="#7271B3"/>
<path d="M490.68 399.324C485.103 400.104 481.469 404.814 479.47 410.254C470.369 404.669 463.119 407.238 463.595 407.146C463.544 407.162 462.04 407.575 462.124 407.577C458.498 408.594 451.842 412.162 446.871 416.754C458.82 410.466 468.407 406.52 478.869 414.554C478.902 414.572 481.511 416.688 481.511 416.688C482.233 414.238 483.86 404.182 491.122 402.509C496.623 401.33 505.158 402.191 510.715 402.825C505.031 400.427 496.928 398.559 490.68 399.324Z" fill="#7271B3"/>
<path d="M916.135 134.576C911.972 132.901 907.735 134.849 904.427 138.004C900.003 130.213 894.019 129.123 894.391 129.24C894.354 129.24 893.127 128.928 893.201 128.928C890.302 128.188 884.392 128.11 879.3 129.434C889.893 129.707 897.996 130.72 902.494 140.848C902.494 140.886 903.609 143.496 903.609 143.496C904.984 142.016 909.668 135.316 915.317 137.03C919.592 138.393 925.279 142.523 928.922 145.249C925.799 141.237 920.744 136.563 916.135 134.576Z" fill="#7271B3"/>
<path d="M671.389 518.651C673.136 518.651 674.586 517.171 674.586 515.301C674.586 470.855 640.092 434.668 597.644 434.668C579.468 434.668 561.812 441.446 547.948 453.716C546.61 454.923 546.424 457.027 547.576 458.429C548.728 459.832 550.736 460.026 552.074 458.819C564.786 447.561 580.955 441.329 597.644 441.329C636.561 441.329 668.192 474.478 668.192 515.262C668.192 517.132 669.605 518.651 671.389 518.651Z" fill="#FC008B"/>
<path d="M743.016 515.301C743.016 475.958 773.569 443.938 811.111 443.938C848.652 443.938 879.243 475.958 879.243 515.301C879.243 554.643 848.69 586.663 811.111 586.663C773.532 586.663 743.016 554.643 743.016 515.301ZM751.565 515.301C751.565 549.735 778.29 577.742 811.148 577.742C844.006 577.742 870.731 549.735 870.731 515.301C870.731 480.866 844.006 452.859 811.148 452.859C778.29 452.859 751.565 480.866 751.565 515.301Z" fill="#2D2861"/>
<path d="M748.738 515.301C748.738 479.23 776.727 449.898 811.147 449.898C845.566 449.898 873.555 479.23 873.555 515.301C873.555 551.371 845.566 580.703 811.147 580.703C776.727 580.703 748.738 551.371 748.738 515.301ZM751.935 515.301C751.935 549.502 778.474 577.353 811.147 577.353C843.782 577.353 870.358 549.541 870.358 515.301C870.358 481.1 843.819 453.248 811.147 453.248C778.511 453.248 751.935 481.1 751.935 515.301Z" fill="#7271B3"/>
<g opacity="0.57">
<path opacity="0.57" d="M758.291 515.301C758.291 484.762 782.005 459.909 811.147 459.909C840.288 459.909 864.002 484.762 864.002 515.301C864.002 545.84 840.288 570.692 811.147 570.692C782.005 570.692 758.291 545.84 758.291 515.301ZM760.41 515.301C760.41 544.633 783.158 568.472 811.147 568.472C839.136 568.472 861.884 544.633 861.884 515.301C861.884 485.969 839.136 462.13 811.147 462.13C783.158 462.13 760.41 485.969 760.41 515.301Z" fill="#F3FFFF"/>
</g>
<g opacity="0.57">
<path opacity="0.57" d="M811.148 563.72C836.646 563.72 857.35 541.984 857.35 515.301C857.35 507.51 855.64 500.07 852.258 493.175C851.998 492.63 851.366 492.396 850.808 492.708C850.288 492.981 850.065 493.643 850.362 494.227C853.596 500.81 855.231 507.9 855.231 515.34C855.231 540.815 835.457 561.538 811.148 561.538C804.755 561.538 798.584 560.136 792.823 557.37C792.303 557.098 791.671 557.37 791.411 557.916C791.15 558.461 791.411 559.123 791.931 559.396C797.99 562.278 804.457 563.72 811.148 563.72Z" fill="#F3FFFF"/>
</g>
<path d="M778.177 484.06C778.474 484.06 778.734 483.944 778.957 483.71C787.246 474.4 798.992 469.102 811.147 469.102C811.741 469.102 812.225 468.596 812.225 467.973C812.225 467.349 811.741 466.843 811.147 466.843C798.397 466.843 786.131 472.413 777.396 482.152C776.987 482.619 777.024 483.32 777.433 483.71C777.656 483.983 777.916 484.06 778.177 484.06Z" fill="#F3FFFF"/>
<path d="M763.533 459.637C764.277 459.637 764.983 459.364 765.578 458.858C778.29 447.6 794.459 441.368 811.148 441.368C825.235 441.368 838.802 445.692 850.436 453.872C851.886 454.885 853.893 454.495 854.86 452.976C855.826 451.457 855.454 449.353 854.005 448.34C841.33 439.42 826.499 434.707 811.148 434.707C792.972 434.707 775.316 441.485 761.452 453.755C760.114 454.963 759.928 457.066 761.08 458.468C761.712 459.247 762.604 459.637 763.533 459.637Z" fill="#FC008B"/>
<path d="M720.935 513.782C721.864 513.782 722.756 513.275 723.277 512.34L781.968 402.337C782.675 400.973 782.229 399.298 780.928 398.558C779.627 397.818 778.028 398.285 777.322 399.649L718.631 509.652C717.924 511.016 718.37 512.691 719.671 513.431C720.043 513.665 720.489 513.782 720.935 513.782Z" fill="#FC008B"/>
<path d="M715.88 519.235C814.715 517.443 812.076 519.469 813.489 516.586C814.492 514.56 817.206 520.793 765.688 427.734L653.918 406.115C652.208 405.803 650.684 407.206 650.796 409.037C650.87 410.439 649.867 408.102 715.88 519.235ZM658.899 412.737L762.343 432.759L806.575 512.574L718.854 513.626L658.899 412.737Z" fill="#FC008B"/>
<path d="M653.918 406.115L659.308 407.167L654.438 415.97C650.647 409.543 650.796 409.582 650.758 408.998C650.684 407.206 652.245 405.765 653.918 406.115Z" fill="#D6007E"/>
<path d="M777.285 399.61C777.991 398.247 779.627 397.779 780.891 398.519C782.191 399.259 782.638 400.973 781.931 402.298L778.586 408.53L773.085 407.4L777.285 399.61Z" fill="#D6007E"/>
<path d="M811.147 507.861C811.593 507.861 811.928 507.51 811.965 507.043C812.002 506.575 811.63 506.147 811.184 506.147L717.404 501.589C716.958 501.55 716.549 501.94 716.549 502.407C716.512 502.875 716.884 503.303 717.33 503.303L811.11 507.861H811.147Z" fill="#352E73"/>
<path d="M716.029 529.012H716.066L811.184 524.455C811.63 524.416 812.002 524.026 811.965 523.559C811.928 523.091 811.556 522.702 811.11 522.741L715.992 527.298C715.546 527.337 715.174 527.727 715.212 528.194C715.249 528.662 715.583 529.012 716.029 529.012Z" fill="#352E73"/>
<path d="M732.644 514.794C732.942 524.065 725.694 531.622 716.884 531.311C708.893 531.038 702.351 524.221 702.091 515.807C701.794 506.536 709.042 498.979 717.888 499.252C725.88 499.564 732.384 506.381 732.644 514.794Z" fill="#352E73"/>
<path d="M695.548 554.488C695.92 554.488 696.254 554.293 696.44 553.942L718.259 517.015C718.556 516.508 718.408 515.807 717.924 515.496C717.441 515.184 716.772 515.34 716.475 515.846L694.656 552.774C694.359 553.28 694.507 553.981 694.991 554.293C695.176 554.41 695.362 554.488 695.548 554.488Z" fill="black"/>
<path d="M694.656 558.305C695.697 558.383 696.626 557.643 696.849 556.513C697.072 555.305 696.366 554.137 695.214 553.864L672.057 548.8C670.905 548.567 669.789 549.307 669.529 550.514C669.306 551.722 670.013 552.89 671.165 553.163L694.322 558.188C694.47 558.266 694.582 558.305 694.656 558.305Z" fill="#352E73"/>
<path d="M794.271 395.676H773.53C772.006 395.676 770.742 397 770.742 398.597V402.103C770.742 403.7 772.006 405.024 773.53 405.024H799.735C801.779 405.024 803.191 402.765 802.262 400.856C800.775 397.779 797.765 395.676 794.271 395.676Z" fill="#352E73"/>
<path d="M811.147 527.22C817.429 527.22 822.521 521.884 822.521 515.301C822.521 508.718 817.429 503.381 811.147 503.381C804.866 503.381 799.773 508.718 799.773 515.301C799.773 521.884 804.866 527.22 811.147 527.22Z" fill="#352E73"/>
<path d="M820.849 514.638C821.22 520.793 816.388 525.857 810.515 525.468C805.683 525.156 801.743 521.027 801.446 515.963C801.074 509.808 805.906 504.744 811.779 505.134C816.611 505.445 820.551 509.575 820.849 514.638Z" fill="#ADEFF7"/>
<path d="M808.434 514.794C808.137 516.781 809.735 518.456 811.631 518.105C812.783 517.911 813.675 516.937 813.861 515.768C814.158 513.782 812.56 512.106 810.664 512.418C809.549 512.652 808.62 513.626 808.434 514.794Z" fill="#F3FFFF"/>
<g opacity="0.57">
<path opacity="0.57" d="M598.759 563.72C624.258 563.72 644.962 541.984 644.962 515.301C644.962 507.51 643.252 500.07 639.869 493.175C639.609 492.63 638.977 492.396 638.42 492.708C637.899 492.981 637.676 493.643 637.974 494.227C641.207 500.81 642.843 507.9 642.843 515.34C642.843 540.815 623.068 561.538 598.759 561.538C592.366 561.538 586.196 560.136 580.434 557.37C579.914 557.098 579.282 557.37 579.022 557.916C578.762 558.461 579.022 559.123 579.542 559.396C585.601 562.278 592.069 563.72 598.759 563.72Z" fill="#F3FFFF"/>
</g>
<path d="M530.663 515.301C530.663 475.958 561.217 443.938 598.796 443.938C636.337 443.938 666.928 475.958 666.928 515.301C666.928 554.643 636.374 586.663 598.796 586.663C561.217 586.663 530.663 554.643 530.663 515.301ZM539.175 515.301C539.175 549.735 565.9 577.742 598.758 577.742C631.617 577.742 658.342 549.735 658.342 515.301C658.342 480.866 631.617 452.859 598.758 452.859C565.9 452.859 539.175 480.866 539.175 515.301Z" fill="#2D2861"/>
<path d="M536.35 515.301C536.35 479.23 564.339 449.898 598.758 449.898C633.177 449.898 661.166 479.23 661.166 515.301C661.166 551.371 633.177 580.703 598.758 580.703C564.339 580.703 536.35 551.371 536.35 515.301ZM539.546 515.301C539.546 549.502 566.086 577.353 598.758 577.353C631.393 577.353 657.97 549.541 657.97 515.301C657.97 481.1 631.43 453.248 598.758 453.248C566.123 453.248 539.546 481.1 539.546 515.301Z" fill="#7271B3"/>
<g opacity="0.57">
<path opacity="0.57" d="M545.902 515.301C545.902 484.762 569.617 459.909 598.758 459.909C627.899 459.909 651.614 484.762 651.614 515.301C651.614 545.84 627.899 570.692 598.758 570.692C569.617 570.692 545.902 545.84 545.902 515.301ZM548.021 515.301C548.021 544.633 570.769 568.472 598.758 568.472C626.747 568.472 649.495 544.633 649.495 515.301C649.495 485.969 626.747 462.13 598.758 462.13C570.806 462.13 548.021 485.969 548.021 515.301Z" fill="#F3FFFF"/>
</g>
<path d="M597.644 518.105C598.574 518.105 599.503 517.599 599.986 516.664L671.613 379.978C672.282 378.653 672.653 377.173 672.653 375.693V366.85C672.653 365.098 673.768 364.241 674.252 363.968C674.735 363.695 675.999 363.111 677.448 364.007L689.937 371.836C691.201 372.615 692.837 372.187 693.58 370.863C694.323 369.538 693.915 367.824 692.651 367.045L680.162 359.216C677.523 357.541 674.326 357.502 671.613 359.099C668.936 360.696 667.301 363.578 667.301 366.811V375.693C667.301 376.238 667.152 376.783 666.892 377.29L595.228 513.937C594.522 515.301 595.005 516.976 596.269 517.716C596.752 517.989 597.198 518.105 597.644 518.105Z" fill="#FC008B"/>
<path d="M598.759 527.22C605.04 527.22 610.133 521.884 610.133 515.301C610.133 508.718 605.04 503.381 598.759 503.381C592.477 503.381 587.385 508.718 587.385 515.301C587.385 521.884 592.514 527.22 598.759 527.22Z" fill="#352E73"/>
<path d="M608.46 514.638C608.831 520.793 603.999 525.857 598.127 525.468C593.295 525.156 589.355 521.027 589.057 515.963C588.686 509.808 593.518 504.744 599.39 505.134C604.222 505.445 608.162 509.575 608.46 514.638Z" fill="#ADEFF7"/>
<path d="M596.046 514.794C595.748 516.781 597.347 518.456 599.242 518.105C600.394 517.911 601.287 516.937 601.472 515.768C601.77 513.782 600.171 512.106 598.276 512.418C597.161 512.652 596.231 513.626 596.046 514.794Z" fill="#F3FFFF"/>
<path d="M1097.95 518.651C1099.69 518.651 1101.14 517.171 1101.14 515.301C1101.14 470.855 1066.65 434.668 1024.2 434.668C1006.02 434.668 988.369 441.446 974.504 453.716C973.166 454.923 972.98 457.027 974.133 458.429C975.285 459.831 977.292 460.026 978.63 458.819C991.342 447.561 1007.51 441.329 1024.2 441.329C1063.12 441.329 1094.75 474.478 1094.75 515.262C1094.75 517.132 1096.16 518.651 1097.95 518.651Z" fill="#74C412"/>
<path d="M1169.57 515.301C1169.57 475.958 1200.13 443.938 1237.67 443.938C1275.21 443.938 1305.8 475.958 1305.8 515.301C1305.8 554.643 1275.25 586.663 1237.67 586.663C1200.09 586.663 1169.57 554.643 1169.57 515.301ZM1178.12 515.301C1178.12 549.735 1204.85 577.742 1237.7 577.742C1270.56 577.742 1297.29 549.735 1297.29 515.301C1297.29 480.866 1270.56 452.859 1237.7 452.859C1204.85 452.859 1178.12 480.866 1178.12 515.301Z" fill="#2D2861"/>
<path d="M1175.29 515.301C1175.29 479.23 1203.28 449.898 1237.7 449.898C1272.12 449.898 1300.11 479.23 1300.11 515.301C1300.11 551.371 1272.12 580.703 1237.7 580.703C1203.28 580.703 1175.29 551.371 1175.29 515.301ZM1178.49 515.301C1178.49 549.502 1205.03 577.353 1237.7 577.353C1270.34 577.353 1296.91 549.541 1296.91 515.301C1296.91 481.1 1270.38 453.248 1237.7 453.248C1205.07 453.248 1178.49 481.1 1178.49 515.301Z" fill="#7271B3"/>
<g opacity="0.57">
<path opacity="0.57" d="M1184.85 515.301C1184.85 484.761 1208.56 459.909 1237.7 459.909C1266.84 459.909 1290.56 484.761 1290.56 515.301C1290.56 545.84 1266.84 570.692 1237.7 570.692C1208.56 570.692 1184.85 545.84 1184.85 515.301ZM1186.97 515.301C1186.97 544.633 1209.71 568.472 1237.7 568.472C1265.69 568.472 1288.44 544.633 1288.44 515.301C1288.44 485.969 1265.69 462.13 1237.7 462.13C1209.71 462.13 1186.97 485.969 1186.97 515.301Z" fill="#F3FFFF"/>
</g>
<g opacity="0.57">
<path opacity="0.57" d="M1237.7 563.719C1263.2 563.719 1283.91 541.984 1283.91 515.301C1283.91 507.51 1282.2 500.07 1278.81 493.175C1278.55 492.63 1277.92 492.396 1277.36 492.708C1276.84 492.981 1276.62 493.643 1276.92 494.227C1280.15 500.81 1281.79 507.9 1281.79 515.34C1281.79 540.815 1262.01 561.538 1237.7 561.538C1231.31 561.538 1225.14 560.136 1219.38 557.37C1218.86 557.097 1218.23 557.37 1217.97 557.915C1217.71 558.461 1217.97 559.123 1218.49 559.396C1224.55 562.278 1231.01 563.719 1237.7 563.719Z" fill="#F3FFFF"/>
</g>
<path d="M1204.73 484.06C1205.03 484.06 1205.29 483.944 1205.51 483.71C1213.8 474.4 1225.55 469.102 1237.7 469.102C1238.3 469.102 1238.78 468.596 1238.78 467.973C1238.78 467.349 1238.3 466.843 1237.7 466.843C1224.95 466.843 1212.69 472.413 1203.95 482.152C1203.54 482.619 1203.58 483.32 1203.99 483.71C1204.21 483.982 1204.47 484.06 1204.73 484.06Z" fill="#F3FFFF"/>
<path d="M1190.09 459.637C1190.83 459.637 1191.54 459.364 1192.13 458.858C1204.85 447.6 1221.02 441.368 1237.7 441.368C1251.79 441.368 1265.36 445.692 1276.99 453.872C1278.44 454.885 1280.45 454.495 1281.42 452.976C1282.38 451.457 1282.01 449.353 1280.56 448.34C1267.89 439.42 1253.06 434.707 1237.7 434.707C1219.53 434.707 1201.87 441.485 1188.01 453.755C1186.67 454.962 1186.48 457.066 1187.64 458.468C1188.27 459.247 1189.16 459.637 1190.09 459.637Z" fill="#74C412"/>
<path d="M1147.49 513.781C1148.42 513.781 1149.31 513.275 1149.83 512.34L1208.53 402.337C1209.23 400.973 1208.79 399.298 1207.48 398.558C1206.18 397.818 1204.59 398.285 1203.88 399.649L1145.19 509.652C1144.48 511.016 1144.93 512.691 1146.23 513.431C1146.6 513.665 1147.05 513.781 1147.49 513.781Z" fill="#74C312"/>
<path d="M1142.44 519.235C1241.27 517.443 1238.63 519.469 1240.05 516.586C1241.05 514.56 1243.76 520.793 1192.24 427.734L1080.47 406.115C1078.76 405.803 1077.24 407.206 1077.35 409.036C1077.43 410.439 1076.42 408.102 1142.44 519.235ZM1085.46 412.737L1188.9 432.759L1233.13 512.574L1145.41 513.626L1085.46 412.737Z" fill="#74C412"/>
<path d="M1080.47 406.115L1085.86 407.167L1080.99 415.97C1077.2 409.543 1077.35 409.582 1077.32 408.998C1077.24 407.206 1078.8 405.764 1080.47 406.115Z" fill="#2BA14C"/>
<path d="M1203.84 399.61C1204.55 398.246 1206.18 397.779 1207.45 398.519C1208.75 399.259 1209.19 400.973 1208.49 402.298L1205.14 408.53L1199.64 407.4L1203.84 399.61Z" fill="#2BA14C"/>
<path d="M1237.7 507.861C1238.15 507.861 1238.48 507.51 1238.52 507.043C1238.56 506.575 1238.19 506.147 1237.74 506.147L1143.96 501.589C1143.51 501.55 1143.11 501.94 1143.11 502.407C1143.07 502.875 1143.44 503.303 1143.89 503.303L1237.67 507.861H1237.7Z" fill="#352E73"/>
<path d="M1142.59 529.012H1142.62L1237.74 524.455C1238.19 524.416 1238.56 524.026 1238.52 523.559C1238.48 523.091 1238.11 522.702 1237.67 522.741L1142.55 527.298C1142.1 527.337 1141.73 527.727 1141.77 528.194C1141.81 528.662 1142.14 529.012 1142.59 529.012Z" fill="#352E73"/>
<path d="M1159.2 514.794C1159.5 524.065 1152.25 531.622 1143.44 531.311C1135.45 531.038 1128.91 524.221 1128.65 515.807C1128.35 506.536 1135.6 498.979 1144.44 499.252C1152.44 499.564 1158.94 506.381 1159.2 514.794Z" fill="#352E73"/>
<path d="M1122.1 554.487C1122.48 554.487 1122.81 554.293 1123 553.942L1144.82 517.015C1145.11 516.508 1144.96 515.807 1144.48 515.496C1144 515.184 1143.33 515.34 1143.03 515.846L1121.21 552.774C1120.92 553.28 1121.06 553.981 1121.55 554.293C1121.73 554.41 1121.92 554.487 1122.1 554.487Z" fill="black"/>
<path d="M1121.21 558.305C1122.25 558.383 1123.18 557.643 1123.41 556.513C1123.63 555.305 1122.92 554.137 1121.77 553.864L1098.61 548.8C1097.46 548.567 1096.35 549.307 1096.09 550.514C1095.86 551.722 1096.57 552.89 1097.72 553.163L1120.88 558.188C1121.03 558.266 1121.14 558.305 1121.21 558.305Z" fill="#352E73"/>
<path d="M1220.83 395.676H1200.09C1198.56 395.676 1197.3 397 1197.3 398.597V402.103C1197.3 403.7 1198.56 405.024 1200.09 405.024H1226.29C1228.34 405.024 1229.75 402.765 1228.82 400.856C1227.33 397.779 1224.32 395.676 1220.83 395.676Z" fill="#352E73"/>
<path d="M1237.7 527.22C1243.99 527.22 1249.08 521.884 1249.08 515.301C1249.08 508.718 1243.99 503.381 1237.7 503.381C1231.42 503.381 1226.33 508.718 1226.33 515.301C1226.33 521.884 1231.42 527.22 1237.7 527.22Z" fill="#352E73"/>
<path d="M1247.41 514.638C1247.78 520.793 1242.94 525.857 1237.07 525.468C1232.24 525.156 1228.3 521.027 1228 515.963C1227.63 509.808 1232.46 504.744 1238.34 505.134C1243.17 505.445 1247.11 509.574 1247.41 514.638Z" fill="#ADEFF7"/>
<path d="M1234.99 514.794C1234.69 516.781 1236.29 518.456 1238.19 518.105C1239.34 517.911 1240.23 516.937 1240.42 515.768C1240.71 513.781 1239.12 512.106 1237.22 512.418C1236.11 512.652 1235.18 513.626 1234.99 514.794Z" fill="#F3FFFF"/>
<g opacity="0.57">
<path opacity="0.57" d="M1025.32 563.719C1050.81 563.719 1071.52 541.984 1071.52 515.301C1071.52 507.51 1069.81 500.07 1066.43 493.175C1066.17 492.63 1065.53 492.396 1064.98 492.708C1064.46 492.981 1064.23 493.643 1064.53 494.227C1067.76 500.81 1069.4 507.9 1069.4 515.34C1069.4 540.815 1049.63 561.538 1025.32 561.538C1018.92 561.538 1012.75 560.136 1006.99 557.37C1006.47 557.097 1005.84 557.37 1005.58 557.915C1005.32 558.461 1005.58 559.123 1006.1 559.396C1012.16 562.278 1018.63 563.719 1025.32 563.719Z" fill="#F3FFFF"/>
</g>
<path d="M957.22 515.301C957.22 475.958 987.773 443.938 1025.35 443.938C1062.89 443.938 1093.48 475.958 1093.48 515.301C1093.48 554.643 1062.93 586.663 1025.35 586.663C987.773 586.663 957.22 554.643 957.22 515.301ZM965.732 515.301C965.732 549.735 992.457 577.742 1025.32 577.742C1058.17 577.742 1084.9 549.735 1084.9 515.301C1084.9 480.866 1058.17 452.859 1025.32 452.859C992.457 452.859 965.732 480.866 965.732 515.301Z" fill="#2D2861"/>
<path d="M962.906 515.301C962.906 479.23 990.895 449.898 1025.31 449.898C1059.73 449.898 1087.72 479.23 1087.72 515.301C1087.72 551.371 1059.73 580.703 1025.31 580.703C990.895 580.703 962.906 551.371 962.906 515.301ZM966.103 515.301C966.103 549.502 992.642 577.353 1025.31 577.353C1057.95 577.353 1084.53 549.541 1084.53 515.301C1084.53 481.1 1057.99 453.248 1025.31 453.248C992.679 453.248 966.103 481.1 966.103 515.301Z" fill="#7271B3"/>
<g opacity="0.57">
<path opacity="0.57" d="M972.459 515.301C972.459 484.761 996.173 459.909 1025.31 459.909C1054.46 459.909 1078.17 484.761 1078.17 515.301C1078.17 545.84 1054.46 570.692 1025.31 570.692C996.173 570.692 972.459 545.84 972.459 515.301ZM974.578 515.301C974.578 544.633 997.326 568.472 1025.31 568.472C1053.3 568.472 1076.05 544.633 1076.05 515.301C1076.05 485.969 1053.3 462.13 1025.31 462.13C997.363 462.13 974.578 485.969 974.578 515.301Z" fill="#F3FFFF"/>
</g>
<path d="M1024.2 518.105C1025.13 518.105 1026.06 517.599 1026.54 516.664L1098.17 379.978C1098.84 378.653 1099.21 377.173 1099.21 375.693V366.85C1099.21 365.097 1100.33 364.24 1100.81 363.968C1101.29 363.695 1102.56 363.111 1104 364.007L1116.49 371.836C1117.76 372.615 1119.39 372.187 1120.14 370.863C1120.88 369.538 1120.47 367.824 1119.21 367.045L1106.72 359.216C1104.08 357.541 1100.88 357.502 1098.17 359.099C1095.49 360.696 1093.86 363.578 1093.86 366.811V375.693C1093.86 376.238 1093.71 376.783 1093.45 377.29L1021.79 513.937C1021.08 515.301 1021.56 516.976 1022.83 517.716C1023.31 517.988 1023.76 518.105 1024.2 518.105Z" fill="#74C412"/>
<path d="M1025.32 527.22C1031.6 527.22 1036.69 521.884 1036.69 515.301C1036.69 508.718 1031.6 503.381 1025.32 503.381C1019.03 503.381 1013.94 508.718 1013.94 515.301C1013.94 521.884 1019.07 527.22 1025.32 527.22Z" fill="#352E73"/>
<path d="M1035.02 514.638C1035.39 520.793 1030.56 525.857 1024.68 525.468C1019.85 525.156 1015.91 521.027 1015.61 515.963C1015.24 509.808 1020.07 504.744 1025.95 505.134C1030.78 505.445 1034.72 509.574 1035.02 514.638Z" fill="#ADEFF7"/>
<path d="M1022.6 514.794C1022.3 516.781 1023.9 518.456 1025.8 518.105C1026.95 517.911 1027.84 516.937 1028.03 515.768C1028.33 513.781 1026.73 512.106 1024.83 512.418C1023.72 512.652 1022.79 513.626 1022.6 514.794Z" fill="#F3FFFF"/>
<defs>
<linearGradient id="paint0_linear" x1="686.557" y1="337.802" x2="1440" y2="337.802" gradientUnits="userSpaceOnUse">
<stop stop-color="#BCE3F1"/>
<stop offset="1" stop-color="#D0F7FF"/>
</linearGradient>
</defs>
</svg>
