<svg width="880" height="530" viewBox="0 0 880 530" fill="none" xmlns="http://www.w3.org/2000/svg">
<path d="M103.385 252.912C104.502 252.912 105.362 256.92 105.362 256.92C105.362 256.92 109.445 256.491 109.789 257.563C110.133 258.635 106.609 260.671 106.609 260.671C106.609 260.671 108.263 264.421 107.361 265.064C106.458 265.729 103.406 262.985 103.406 262.985C103.406 262.985 100.355 265.729 99.452 265.064C98.5494 264.4 100.183 260.671 100.183 260.671C100.183 260.671 96.6367 258.613 96.9805 257.563C97.3244 256.513 101.408 256.92 101.408 256.92C101.408 256.92 102.267 252.912 103.385 252.912Z" fill="#00D6C2"/>
<path d="M103.385 252.698C104.502 252.698 105.362 256.706 105.362 256.706C105.362 256.706 109.445 256.277 109.789 257.349C110.133 258.421 106.609 260.457 106.609 260.457C106.609 260.457 108.263 264.207 107.361 264.85C106.458 265.515 103.406 262.771 103.406 262.771C103.406 262.771 100.355 265.515 99.452 264.85C98.5279 264.207 100.183 260.457 100.183 260.457C100.183 260.457 96.6367 258.399 96.9805 257.349C97.3244 256.299 101.408 256.706 101.408 256.706C101.408 256.706 102.267 252.698 103.385 252.698Z" fill="url(#paint0_linear)"/>
<path d="M103.384 252.699C104.459 252.699 105.275 256.514 105.275 256.514C105.275 256.514 109.165 256.107 109.487 257.114C109.81 258.122 106.436 260.072 106.436 260.072C106.436 260.072 108.026 263.63 107.145 264.251C106.285 264.873 103.384 262.279 103.384 262.279C103.384 262.279 100.483 264.873 99.623 264.251C98.7634 263.63 100.332 260.072 100.332 260.072C100.332 260.072 96.9581 258.122 97.3019 257.114C97.6243 256.107 101.514 256.514 101.514 256.514C101.514 256.514 102.331 252.699 103.384 252.699Z" fill="url(#paint1_radial)"/>
<path d="M106.435 259.815C106.435 259.815 108.026 263.244 107.166 263.844C106.306 264.444 103.405 261.937 103.405 261.937C103.405 261.937 100.504 264.444 99.6442 263.844C98.7846 263.244 100.375 259.815 100.375 259.815C100.375 259.815 96.9578 257.929 97.3017 256.964C97.6455 256 101.514 256.386 101.514 256.386C101.514 256.386 102.331 252.699 103.384 252.699C104.458 252.699 105.275 256.364 105.275 256.364C105.275 256.364 108.585 256.043 109.358 256.75C109.423 256.814 109.466 256.879 109.487 256.943C109.831 257.929 106.435 259.815 106.435 259.815Z" fill="url(#paint2_linear)"/>
<path d="M106.436 259.728C106.436 259.728 108.026 263.157 107.166 263.757C106.307 264.357 103.405 261.592 103.405 261.592C103.405 261.592 100.483 264.357 99.6229 263.757C98.7632 263.157 100.354 259.728 100.354 259.728C100.354 259.728 96.9579 257.842 97.3018 256.877C97.6457 255.913 101.514 256.299 101.514 256.299C101.514 256.299 102.331 252.612 103.384 252.612C104.458 252.612 105.275 256.277 105.275 256.277C105.275 256.277 108.585 255.956 109.358 256.663C109.423 256.727 109.466 256.792 109.487 256.856C109.831 257.842 106.436 259.728 106.436 259.728Z" fill="url(#paint3_linear)"/>
<path d="M109.361 256.749C109.318 256.813 109.254 256.856 109.168 256.92C107.535 258.078 104.44 257.863 101.044 257.113C97.7775 256.385 97.3262 256.899 97.3047 256.942C97.6485 255.977 101.517 256.363 101.517 256.363C101.517 256.363 102.334 252.698 103.387 252.698C104.461 252.698 105.278 256.363 105.278 256.363C105.278 256.363 108.588 256.042 109.361 256.749Z" fill="url(#paint4_linear)"/>
<path d="M102.352 253.94C102.352 253.94 102.867 252.847 103.211 252.868C103.555 252.89 103.233 253.726 103.125 253.811C103.018 253.897 102.459 254.026 102.352 253.94Z" fill="white"/>
<path d="M107.344 262.878C107.258 262.728 107.086 263.928 107.172 263.843C107.258 263.778 107.666 263.435 107.344 262.878Z" fill="white"/>
<path d="M807.004 63.5994C773.416 7.26091 561.674 27.0069 498.955 27.0062C282.707 35.9233 227.674 27.0059 175.419 27.0062C97.7847 27.0066 53.225 76.6524 41.6331 167.473C36.5175 207.553 34.3991 288.298 39.4133 367.375C30.0039 433.504 41.6331 510.648 41.6331 510.648L810.715 531.342C831.721 458.746 879.624 151.319 807.004 63.5994Z" fill="#7E7A6E"/>
<path d="M38.6143 366.991L836.164 366.992C843.084 366.992 842.487 392.525 862.274 467.903L879.234 532.469H0.3125L17.9811 451.769C31.0402 394.924 35.3451 366.991 38.6143 366.991Z" fill="#444C4F"/>
<g opacity="0.5">
<path opacity="0.5" d="M551.804 103.729H355.91V349.155H551.804V103.729Z" fill="#13415B"/>
<path opacity="0.5" d="M543.674 111.287H364.129V341.598H543.674V111.287Z" fill="#116A94"/>
<g opacity="0.5">
<g opacity="0.5">
<path opacity="0.5" d="M418.38 259.695H387.102V341.598H418.38V259.695Z" fill="#95B3C1"/>
<path opacity="0.5" d="M414.033 244.015H391.543V259.791H414.033V244.015Z" fill="#95B3C1"/>
<path opacity="0.5" d="M387.1 236.457H364.137V341.599H387.1V236.457Z" fill="#95B3C1"/>
<path opacity="0.5" d="M441.439 279.25H418.477V341.598H441.439V279.25Z" fill="#95B3C1"/>
<g opacity="0.5">
<path opacity="0.5" d="M398.441 266.025H393.527V271.221H398.441V266.025Z" fill="#B3D1DD"/>
<path opacity="0.5" d="M398.441 273.582H393.527V278.778H398.441V273.582Z" fill="#B3D1DD"/>
<path opacity="0.5" d="M398.441 281.14H393.527V286.335H398.441V281.14Z" fill="#B3D1DD"/>
<path opacity="0.5" d="M398.441 288.698H393.527V293.894H398.441V288.698Z" fill="#B3D1DD"/>
<path opacity="0.5" d="M398.441 296.254H393.527V301.45H398.441V296.254Z" fill="#B3D1DD"/>
<path opacity="0.5" d="M398.441 303.812H393.527V309.007H398.441V303.812Z" fill="#B3D1DD"/>
<path opacity="0.5" d="M398.441 311.37H393.527V316.566H398.441V311.37Z" fill="#B3D1DD"/>
</g>
<g opacity="0.5">
<path opacity="0.5" d="M407.32 266.024H402.406V271.22H407.32V266.024Z" fill="#B3D1DD"/>
<path opacity="0.5" d="M407.32 273.583H402.406V278.779H407.32V273.583Z" fill="#B3D1DD"/>
<path opacity="0.5" d="M407.32 281.14H402.406V286.335H407.32V281.14Z" fill="#B3D1DD"/>
<path opacity="0.5" d="M407.32 288.697H402.406V293.893H407.32V288.697Z" fill="#B3D1DD"/>
<path opacity="0.5" d="M407.32 296.254H402.406V301.45H407.32V296.254Z" fill="#B3D1DD"/>
<path opacity="0.5" d="M407.32 303.812H402.406V309.007H407.32V303.812Z" fill="#B3D1DD"/>
<path opacity="0.5" d="M407.32 311.369H402.406V316.565H407.32V311.369Z" fill="#B3D1DD"/>
</g>
<g opacity="0.5">
<path opacity="0.5" d="M419.891 288.32H417.812V290.493H419.891V288.32Z" fill="#B3D1DD"/>
<path opacity="0.5" d="M424.899 288.32H422.82V290.493H424.899V288.32Z" fill="#B3D1DD"/>
<path opacity="0.5" d="M430.001 288.32H427.922V290.493H430.001V288.32Z" fill="#B3D1DD"/>
<path opacity="0.5" d="M435.009 288.32H432.93V290.493H435.009V288.32Z" fill="#B3D1DD"/>
<path opacity="0.5" d="M440.02 288.32H437.941V290.493H440.02V288.32Z" fill="#B3D1DD"/>
</g>
<g opacity="0.5">
<path opacity="0.5" d="M396.079 250.72H394V252.892H396.079V250.72Z" fill="#B3D1DD"/>
<path opacity="0.5" d="M401.087 250.72H399.008V252.892H401.087V250.72Z" fill="#B3D1DD"/>
<path opacity="0.5" d="M406.188 250.72H404.109V252.892H406.188V250.72Z" fill="#B3D1DD"/>
<path opacity="0.5" d="M411.196 250.72H409.117V252.892H411.196V250.72Z" fill="#B3D1DD"/>
</g>
<g opacity="0.5">
<path opacity="0.5" d="M419.891 295.121H417.812V297.294H419.891V295.121Z" fill="#B3D1DD"/>
<path opacity="0.5" d="M424.899 295.121H422.82V297.294H424.899V295.121Z" fill="#B3D1DD"/>
<path opacity="0.5" d="M430.001 295.121H427.922V297.294H430.001V295.121Z" fill="#B3D1DD"/>
<path opacity="0.5" d="M435.009 295.121H432.93V297.294H435.009V295.121Z" fill="#B3D1DD"/>
<path opacity="0.5" d="M440.02 295.121H437.941V297.294H440.02V295.121Z" fill="#B3D1DD"/>
</g>
<g opacity="0.5">
<path opacity="0.5" d="M419.891 302.019H417.812V304.191H419.891V302.019Z" fill="#B3D1DD"/>
<path opacity="0.5" d="M424.899 302.019H422.82V304.191H424.899V302.019Z" fill="#B3D1DD"/>
<path opacity="0.5" d="M430.001 302.019H427.922V304.191H430.001V302.019Z" fill="#B3D1DD"/>
<path opacity="0.5" d="M435.009 302.019H432.93V304.191H435.009V302.019Z" fill="#B3D1DD"/>
<path opacity="0.5" d="M440.02 302.019H437.941V304.191H440.02V302.019Z" fill="#B3D1DD"/>
</g>
<g opacity="0.5">
<path opacity="0.5" d="M419.891 308.818H417.812V310.991H419.891V308.818Z" fill="#B3D1DD"/>
<path opacity="0.5" d="M424.899 308.817H422.82V310.99H424.899V308.817Z" fill="#B3D1DD"/>
<path opacity="0.5" d="M430.001 308.817H427.922V310.99H430.001V308.817Z" fill="#B3D1DD"/>
<path opacity="0.5" d="M435.009 308.817H432.93V310.99H435.009V308.817Z" fill="#B3D1DD"/>
<path opacity="0.5" d="M440.02 308.817H437.941V310.99H440.02V308.817Z" fill="#B3D1DD"/>
</g>
<g opacity="0.5">
<path opacity="0.5" d="M419.891 315.714H417.812V317.887H419.891V315.714Z" fill="#B3D1DD"/>
<path opacity="0.5" d="M424.899 315.714H422.82V317.887H424.899V315.714Z" fill="#B3D1DD"/>
<path opacity="0.5" d="M430.001 315.714H427.922V317.887H430.001V315.714Z" fill="#B3D1DD"/>
<path opacity="0.5" d="M435.009 315.714H432.93V317.887H435.009V315.714Z" fill="#B3D1DD"/>
<path opacity="0.5" d="M440.02 315.714H437.941V317.887H440.02V315.714Z" fill="#B3D1DD"/>
</g>
<g opacity="0.5">
<path opacity="0.5" d="M419.891 322.517H417.812V324.689H419.891V322.517Z" fill="#B3D1DD"/>
<path opacity="0.5" d="M424.899 322.517H422.82V324.689H424.899V322.517Z" fill="#B3D1DD"/>
<path opacity="0.5" d="M430.001 322.517H427.922V324.689H430.001V322.517Z" fill="#B3D1DD"/>
<path opacity="0.5" d="M435.009 322.517H432.93V324.689H435.009V322.517Z" fill="#B3D1DD"/>
<path opacity="0.5" d="M440.02 322.517H437.941V324.689H440.02V322.517Z" fill="#B3D1DD"/>
</g>
<g opacity="0.5">
<path opacity="0.5" d="M419.891 329.413H417.812V331.586H419.891V329.413Z" fill="#B3D1DD"/>
<path opacity="0.5" d="M424.899 329.413H422.82V331.586H424.899V329.413Z" fill="#B3D1DD"/>
<path opacity="0.5" d="M430.001 329.413H427.922V331.586H430.001V329.413Z" fill="#B3D1DD"/>
<path opacity="0.5" d="M435.009 329.413H432.93V331.586H435.009V329.413Z" fill="#B3D1DD"/>
<path opacity="0.5" d="M440.02 329.413H437.941V331.586H440.02V329.413Z" fill="#B3D1DD"/>
</g>
<path opacity="0.5" d="M382.941 245.715H367.16V247.793H382.941V245.715Z" fill="#B3D1DD"/>
<path opacity="0.5" d="M382.941 249.683H367.16V251.761H382.941V249.683Z" fill="#B3D1DD"/>
<path opacity="0.5" d="M382.941 253.745H367.16V255.823H382.941V253.745Z" fill="#B3D1DD"/>
<path opacity="0.5" d="M382.941 257.712H367.16V259.79H382.941V257.712Z" fill="#B3D1DD"/>
<path opacity="0.5" d="M382.941 261.773H367.16V263.852H382.941V261.773Z" fill="#B3D1DD"/>
<path opacity="0.5" d="M382.941 265.742H367.16V267.82H382.941V265.742Z" fill="#B3D1DD"/>
<path opacity="0.5" d="M382.941 269.804H367.16V271.882H382.941V269.804Z" fill="#B3D1DD"/>
<path opacity="0.5" d="M382.941 273.771H367.16V275.85H382.941V273.771Z" fill="#B3D1DD"/>
<path opacity="0.5" d="M382.941 277.833H367.16V279.911H382.941V277.833Z" fill="#B3D1DD"/>
<path opacity="0.5" d="M382.941 281.802H367.16V283.88H382.941V281.802Z" fill="#B3D1DD"/>
<g opacity="0.5">
<path opacity="0.5" d="M382.937 291.813H367.156V293.892H382.937V291.813Z" fill="#B3D1DD"/>
<path opacity="0.5" d="M382.937 295.876H367.156V297.954H382.937V295.876Z" fill="#B3D1DD"/>
<path opacity="0.5" d="M382.937 299.843H367.156V301.921H382.937V299.843Z" fill="#B3D1DD"/>
<path opacity="0.5" d="M382.937 303.904H367.156V305.983H382.937V303.904Z" fill="#B3D1DD"/>
<path opacity="0.5" d="M382.937 307.872H367.156V309.95H382.937V307.872Z" fill="#B3D1DD"/>
<path opacity="0.5" d="M382.937 311.934H367.156V314.012H382.937V311.934Z" fill="#B3D1DD"/>
<path opacity="0.5" d="M382.937 315.903H367.156V317.982H382.937V315.903Z" fill="#B3D1DD"/>
<path opacity="0.5" d="M382.937 319.964H367.156V322.042H382.937V319.964Z" fill="#B3D1DD"/>
<path opacity="0.5" d="M382.937 323.933H367.156V326.011H382.937V323.933Z" fill="#B3D1DD"/>
<path opacity="0.5" d="M382.937 327.899H367.156V329.978H382.937V327.899Z" fill="#B3D1DD"/>
</g>
<path opacity="0.5" d="M438.978 276.134H425.938V279.157H438.978V276.134Z" fill="#95B3C1"/>
</g>
<g opacity="0.5">
<path opacity="0.5" d="M489.34 222.004H441.43V341.505H489.34V222.004Z" fill="#95B3C1"/>
<path opacity="0.5" d="M520.615 259.979H489.336V341.599H520.615V259.979Z" fill="#95B3C1"/>
<path opacity="0.5" d="M531.767 237.307C525.625 237.307 520.711 242.597 520.711 249.115V341.598H543.674V237.307H531.767Z" fill="#95B3C1"/>
<g opacity="0.5">
<path opacity="0.5" d="M538.955 259.412H534.797V263.758H538.955V259.412Z" fill="#B3D1DD"/>
<path opacity="0.5" d="M538.955 265.837H534.797V270.182H538.955V265.837Z" fill="#B3D1DD"/>
<path opacity="0.5" d="M538.955 272.165H534.797V276.511H538.955V272.165Z" fill="#B3D1DD"/>
<path opacity="0.5" d="M538.955 278.59H534.797V282.935H538.955V278.59Z" fill="#B3D1DD"/>
<path opacity="0.5" d="M538.955 284.919H534.797V289.264H538.955V284.919Z" fill="#B3D1DD"/>
<path opacity="0.5" d="M538.955 291.342H534.797V295.687H538.955V291.342Z" fill="#B3D1DD"/>
<path opacity="0.5" d="M538.955 297.672H534.797V302.017H538.955V297.672Z" fill="#B3D1DD"/>
</g>
<g opacity="0.5">
<path opacity="0.5" d="M529.787 268.104H525.629V272.449H529.787V268.104Z" fill="#B3D1DD"/>
<path opacity="0.5" d="M529.787 274.527H525.629V278.873H529.787V274.527Z" fill="#B3D1DD"/>
<path opacity="0.5" d="M529.787 280.855H525.629V285.201H529.787V280.855Z" fill="#B3D1DD"/>
<path opacity="0.5" d="M529.787 287.28H525.629V291.626H529.787V287.28Z" fill="#B3D1DD"/>
<path opacity="0.5" d="M529.787 293.609H525.629V297.955H529.787V293.609Z" fill="#B3D1DD"/>
<path opacity="0.5" d="M529.787 300.032H525.629V304.378H529.787V300.032Z" fill="#B3D1DD"/>
<path opacity="0.5" d="M529.787 306.362H525.629V310.708H529.787V306.362Z" fill="#B3D1DD"/>
</g>
<path opacity="0.5" d="M481.5 237.307H450.41V241.747H481.5V237.307Z" fill="#B3D1DD"/>
<path opacity="0.5" d="M481.5 247.037H450.41V251.477H481.5V247.037Z" fill="#B3D1DD"/>
<path opacity="0.5" d="M481.5 256.862H450.41V261.302H481.5V256.862Z" fill="#B3D1DD"/>
<path opacity="0.5" d="M481.5 266.593H450.41V271.033H481.5V266.593Z" fill="#B3D1DD"/>
<path opacity="0.5" d="M481.5 276.322H450.41V280.762H481.5V276.322Z" fill="#B3D1DD"/>
<path opacity="0.5" d="M481.5 286.146H450.41V290.586H481.5V286.146Z" fill="#B3D1DD"/>
<path opacity="0.5" d="M481.5 295.877H450.41V300.317H481.5V295.877Z" fill="#B3D1DD"/>
<path opacity="0.5" d="M481.5 305.608H450.41V310.048H481.5V305.608Z" fill="#B3D1DD"/>
<g opacity="0.5">
<path opacity="0.5" d="M495.954 269.239H493.875V271.412H495.954V269.239Z" fill="#B3D1DD"/>
<path opacity="0.5" d="M501.055 269.238H498.977V271.411H501.055V269.238Z" fill="#B3D1DD"/>
<path opacity="0.5" d="M506.063 269.238H503.984V271.411H506.063V269.238Z" fill="#B3D1DD"/>
<path opacity="0.5" d="M511.071 269.238H508.992V271.411H511.071V269.238Z" fill="#B3D1DD"/>
<path opacity="0.5" d="M516.087 269.238H514.008V271.411H516.087V269.238Z" fill="#B3D1DD"/>
</g>
<g opacity="0.5">
<path opacity="0.5" d="M495.954 278.118H493.875V280.291H495.954V278.118Z" fill="#B3D1DD"/>
<path opacity="0.5" d="M501.055 278.118H498.977V280.291H501.055V278.118Z" fill="#B3D1DD"/>
<path opacity="0.5" d="M506.063 278.118H503.984V280.291H506.063V278.118Z" fill="#B3D1DD"/>
<path opacity="0.5" d="M511.071 278.118H508.992V280.291H511.071V278.118Z" fill="#B3D1DD"/>
<path opacity="0.5" d="M516.087 278.118H514.008V280.291H516.087V278.118Z" fill="#B3D1DD"/>
</g>
<g opacity="0.5">
<path opacity="0.5" d="M495.954 286.997H493.875V289.17H495.954V286.997Z" fill="#B3D1DD"/>
<path opacity="0.5" d="M501.055 286.997H498.977V289.17H501.055V286.997Z" fill="#B3D1DD"/>
<path opacity="0.5" d="M506.063 286.997H503.984V289.17H506.063V286.997Z" fill="#B3D1DD"/>
<path opacity="0.5" d="M511.071 286.997H508.992V289.17H511.071V286.997Z" fill="#B3D1DD"/>
<path opacity="0.5" d="M516.087 286.997H514.008V289.17H516.087V286.997Z" fill="#B3D1DD"/>
</g>
<g opacity="0.5">
<path opacity="0.5" d="M495.954 295.877H493.875V298.05H495.954V295.877Z" fill="#B3D1DD"/>
<path opacity="0.5" d="M501.055 295.877H498.977V298.05H501.055V295.877Z" fill="#B3D1DD"/>
<path opacity="0.5" d="M506.063 295.877H503.984V298.05H506.063V295.877Z" fill="#B3D1DD"/>
<path opacity="0.5" d="M511.071 295.877H508.992V298.05H511.071V295.877Z" fill="#B3D1DD"/>
<path opacity="0.5" d="M516.087 295.877H514.008V298.05H516.087V295.877Z" fill="#B3D1DD"/>
</g>
<g opacity="0.5">
<path opacity="0.5" d="M495.954 304.757H493.875V306.93H495.954V304.757Z" fill="#B3D1DD"/>
<path opacity="0.5" d="M501.055 304.756H498.977V306.929H501.055V304.756Z" fill="#B3D1DD"/>
<path opacity="0.5" d="M506.063 304.756H503.984V306.929H506.063V304.756Z" fill="#B3D1DD"/>
<path opacity="0.5" d="M511.071 304.756H508.992V306.929H511.071V304.756Z" fill="#B3D1DD"/>
<path opacity="0.5" d="M516.087 304.756H514.008V306.929H516.087V304.756Z" fill="#B3D1DD"/>
</g>
<g opacity="0.5">
<path opacity="0.5" d="M495.954 313.639H493.875V315.811H495.954V313.639Z" fill="#B3D1DD"/>
<path opacity="0.5" d="M501.055 313.638H498.977V315.81H501.055V313.638Z" fill="#B3D1DD"/>
<path opacity="0.5" d="M506.063 313.638H503.984V315.81H506.063V313.638Z" fill="#B3D1DD"/>
<path opacity="0.5" d="M511.071 313.638H508.992V315.81H511.071V313.638Z" fill="#B3D1DD"/>
<path opacity="0.5" d="M516.087 313.638H514.008V315.81H516.087V313.638Z" fill="#B3D1DD"/>
</g>
<g opacity="0.5">
<path opacity="0.5" d="M495.954 322.517H493.875V324.689H495.954V322.517Z" fill="#B3D1DD"/>
<path opacity="0.5" d="M501.055 322.517H498.977V324.689H501.055V322.517Z" fill="#B3D1DD"/>
<path opacity="0.5" d="M506.063 322.517H503.984V324.689H506.063V322.517Z" fill="#B3D1DD"/>
<path opacity="0.5" d="M511.071 322.517H508.992V324.689H511.071V322.517Z" fill="#B3D1DD"/>
<path opacity="0.5" d="M516.087 322.517H514.008V324.689H516.087V322.517Z" fill="#B3D1DD"/>
</g>
<path opacity="0.5" d="M512.3 240.331H495.668V259.98H512.3V240.331Z" fill="#95B3C1"/>
<path opacity="0.5" d="M512.304 234.19H505.027V240.331H512.304V234.19Z" fill="#95B3C1"/>
<path opacity="0.5" d="M483.005 215.958H447.285V222.004H483.005V215.958Z" fill="#95B3C1"/>
</g>
</g>
<g opacity="0.5">
<path opacity="0.7" d="M442.937 341.599H411.375L477.523 111.193H509.086L442.937 341.599Z" fill="white" fill-opacity="0.5"/>
<path opacity="0.7" d="M376.41 341.599L442.559 111.193H464.671L398.523 341.599" fill="white" fill-opacity="0.5"/>
<path opacity="0.7" d="M449.18 341.599L515.328 111.193H527.991L461.842 341.599" fill="white" fill-opacity="0.5"/>
</g>
</g>
<g opacity="0.5">
<path opacity="0.5" d="M769.148 103.729H573.254V349.155H769.148V103.729Z" fill="#052638"/>
<path opacity="0.5" d="M761.018 111.286H581.473V341.597H761.018V111.286Z" fill="#116A94"/>
<g opacity="0.5">
<g opacity="0.5">
<path opacity="0.5" d="M734.087 251.947H697.422V341.88H734.087V251.947Z" fill="#95B3C1"/>
<path opacity="0.5" d="M728.794 234.66H702.523V251.948H728.794V234.66Z" fill="#95B3C1"/>
<path opacity="0.5" d="M697.42 226.347H670.488V341.88H697.42V226.347Z" fill="#95B3C1"/>
<path opacity="0.5" d="M761.018 273.391H734.086V341.879H761.018V273.391Z" fill="#95B3C1"/>
<g opacity="0.5">
<path opacity="0.5" d="M710.65 258.844H704.98V264.512H710.65V258.844Z" fill="#B3D1DD"/>
<path opacity="0.5" d="M710.65 267.156H704.98V272.824H710.65V267.156Z" fill="#B3D1DD"/>
<path opacity="0.5" d="M710.65 275.47H704.98V281.138H710.65V275.47Z" fill="#B3D1DD"/>
<path opacity="0.5" d="M710.65 283.783H704.98V289.451H710.65V283.783Z" fill="#B3D1DD"/>
<path opacity="0.5" d="M710.65 292.096H704.98V297.764H710.65V292.096Z" fill="#B3D1DD"/>
<path opacity="0.5" d="M710.65 300.408H704.98V306.076H710.65V300.408Z" fill="#B3D1DD"/>
<path opacity="0.5" d="M710.65 308.722H704.98V314.39H710.65V308.722Z" fill="#B3D1DD"/>
</g>
<g opacity="0.5">
<path opacity="0.5" d="M721.045 258.845H715.375V264.513H721.045V258.845Z" fill="#B3D1DD"/>
<path opacity="0.5" d="M721.045 267.157H715.375V272.825H721.045V267.157Z" fill="#B3D1DD"/>
<path opacity="0.5" d="M721.045 275.47H715.375V281.138H721.045V275.47Z" fill="#B3D1DD"/>
<path opacity="0.5" d="M721.045 283.784H715.375V289.452H721.045V283.784Z" fill="#B3D1DD"/>
<path opacity="0.5" d="M721.045 292.098H715.375V297.766H721.045V292.098Z" fill="#B3D1DD"/>
<path opacity="0.5" d="M721.045 300.409H715.375V306.077H721.045V300.409Z" fill="#B3D1DD"/>
<path opacity="0.5" d="M721.045 308.722H715.375V314.39H721.045V308.722Z" fill="#B3D1DD"/>
</g>
<g opacity="0.5">
<path opacity="0.5" d="M735.785 283.405H733.328V285.861H735.785V283.405Z" fill="#B3D1DD"/>
<path opacity="0.5" d="M741.64 283.405H739.184V285.861H741.64V283.405Z" fill="#B3D1DD"/>
<path opacity="0.5" d="M747.598 283.405H745.141V285.861H747.598V283.405Z" fill="#B3D1DD"/>
<path opacity="0.5" d="M753.457 283.405H751V285.861H753.457V283.405Z" fill="#B3D1DD"/>
<path opacity="0.5" d="M759.316 283.405H756.859V285.861H759.316V283.405Z" fill="#B3D1DD"/>
</g>
<g opacity="0.5">
<path opacity="0.5" d="M707.906 242.123H705.449V244.579H707.906V242.123Z" fill="#B3D1DD"/>
<path opacity="0.5" d="M713.863 242.123H711.406V244.579H713.863V242.123Z" fill="#B3D1DD"/>
<path opacity="0.5" d="M719.719 242.123H717.262V244.579H719.719V242.123Z" fill="#B3D1DD"/>
<path opacity="0.5" d="M725.582 242.123H723.125V244.579H725.582V242.123Z" fill="#B3D1DD"/>
</g>
<g opacity="0.5">
<path opacity="0.5" d="M735.785 290.868H733.328V293.324H735.785V290.868Z" fill="#B3D1DD"/>
<path opacity="0.5" d="M741.64 290.868H739.184V293.324H741.64V290.868Z" fill="#B3D1DD"/>
<path opacity="0.5" d="M747.598 290.868H745.141V293.324H747.598V290.868Z" fill="#B3D1DD"/>
<path opacity="0.5" d="M753.457 290.868H751V293.324H753.457V290.868Z" fill="#B3D1DD"/>
<path opacity="0.5" d="M759.316 290.868H756.859V293.324H759.316V290.868Z" fill="#B3D1DD"/>
</g>
<g opacity="0.5">
<path opacity="0.5" d="M735.785 298.426H733.328V300.882H735.785V298.426Z" fill="#B3D1DD"/>
<path opacity="0.5" d="M741.64 298.426H739.184V300.882H741.64V298.426Z" fill="#B3D1DD"/>
<path opacity="0.5" d="M747.598 298.426H745.141V300.882H747.598V298.426Z" fill="#B3D1DD"/>
<path opacity="0.5" d="M753.457 298.426H751V300.882H753.457V298.426Z" fill="#B3D1DD"/>
<path opacity="0.5" d="M759.316 298.426H756.859V300.882H759.316V298.426Z" fill="#B3D1DD"/>
</g>
<g opacity="0.5">
<path opacity="0.5" d="M735.785 305.982H733.328V308.439H735.785V305.982Z" fill="#B3D1DD"/>
<path opacity="0.5" d="M741.64 305.982H739.184V308.439H741.64V305.982Z" fill="#B3D1DD"/>
<path opacity="0.5" d="M747.598 305.982H745.141V308.439H747.598V305.982Z" fill="#B3D1DD"/>
<path opacity="0.5" d="M753.457 305.982H751V308.439H753.457V305.982Z" fill="#B3D1DD"/>
<path opacity="0.5" d="M759.316 305.982H756.859V308.439H759.316V305.982Z" fill="#B3D1DD"/>
</g>
<g opacity="0.5">
<path opacity="0.5" d="M735.785 313.444H733.328V315.9H735.785V313.444Z" fill="#B3D1DD"/>
<path opacity="0.5" d="M741.64 313.444H739.184V315.9H741.64V313.444Z" fill="#B3D1DD"/>
<path opacity="0.5" d="M747.598 313.444H745.141V315.9H747.598V313.444Z" fill="#B3D1DD"/>
<path opacity="0.5" d="M753.457 313.444H751V315.9H753.457V313.444Z" fill="#B3D1DD"/>
<path opacity="0.5" d="M759.316 313.444H756.859V315.9H759.316V313.444Z" fill="#B3D1DD"/>
</g>
<g opacity="0.5">
<path opacity="0.5" d="M735.785 321.003H733.328V323.459H735.785V321.003Z" fill="#B3D1DD"/>
<path opacity="0.5" d="M741.64 321.003H739.184V323.459H741.64V321.003Z" fill="#B3D1DD"/>
<path opacity="0.5" d="M747.598 321.003H745.141V323.459H747.598V321.003Z" fill="#B3D1DD"/>
<path opacity="0.5" d="M753.457 321.003H751V323.459H753.457V321.003Z" fill="#B3D1DD"/>
<path opacity="0.5" d="M759.316 321.003H756.859V323.459H759.316V321.003Z" fill="#B3D1DD"/>
</g>
<g opacity="0.5">
<path opacity="0.5" d="M735.785 328.561H733.328V331.017H735.785V328.561Z" fill="#B3D1DD"/>
<path opacity="0.5" d="M741.64 328.561H739.184V331.017H741.64V328.561Z" fill="#B3D1DD"/>
<path opacity="0.5" d="M747.598 328.561H745.141V331.017H747.598V328.561Z" fill="#B3D1DD"/>
<path opacity="0.5" d="M753.457 328.561H751V331.017H753.457V328.561Z" fill="#B3D1DD"/>
<path opacity="0.5" d="M759.316 328.561H756.859V331.017H759.316V328.561Z" fill="#B3D1DD"/>
</g>
<path opacity="0.5" d="M692.505 236.55H674.078V238.911H692.505V236.55Z" fill="#B3D1DD"/>
<path opacity="0.5" d="M692.505 240.989H674.078V243.351H692.505V240.989Z" fill="#B3D1DD"/>
<path opacity="0.5" d="M692.505 245.334H674.078V247.696H692.505V245.334Z" fill="#B3D1DD"/>
<path opacity="0.5" d="M692.505 249.774H674.078V252.136H692.505V249.774Z" fill="#B3D1DD"/>
<path opacity="0.5" d="M692.505 254.215H674.078V256.577H692.505V254.215Z" fill="#B3D1DD"/>
<path opacity="0.5" d="M692.505 258.561H674.078V260.922H692.505V258.561Z" fill="#B3D1DD"/>
<path opacity="0.5" d="M692.505 263H674.078V265.362H692.505V263Z" fill="#B3D1DD"/>
<path opacity="0.5" d="M692.505 267.44H674.078V269.802H692.505V267.44Z" fill="#B3D1DD"/>
<path opacity="0.5" d="M692.505 271.785H674.078V274.147H692.505V271.785Z" fill="#B3D1DD"/>
<path opacity="0.5" d="M692.505 276.226H674.078V278.587H692.505V276.226Z" fill="#B3D1DD"/>
<g opacity="0.5">
<path opacity="0.5" d="M692.505 287.279H674.078V289.641H692.505V287.279Z" fill="#B3D1DD"/>
<path opacity="0.5" d="M692.505 291.72H674.078V294.081H692.505V291.72Z" fill="#B3D1DD"/>
<path opacity="0.5" d="M692.505 296.065H674.078V298.427H692.505V296.065Z" fill="#B3D1DD"/>
<path opacity="0.5" d="M692.505 300.505H674.078V302.867H692.505V300.505Z" fill="#B3D1DD"/>
<path opacity="0.5" d="M692.505 304.85H674.078V307.211H692.505V304.85Z" fill="#B3D1DD"/>
<path opacity="0.5" d="M692.505 309.29H674.078V311.652H692.505V309.29Z" fill="#B3D1DD"/>
<path opacity="0.5" d="M692.505 313.729H674.078V316.091H692.505V313.729Z" fill="#B3D1DD"/>
<path opacity="0.5" d="M692.505 318.075H674.078V320.437H692.505V318.075Z" fill="#B3D1DD"/>
<path opacity="0.5" d="M692.505 322.516H674.078V324.877H692.505V322.516Z" fill="#B3D1DD"/>
<path opacity="0.5" d="M692.505 326.956H674.078V329.318H692.505V326.956Z" fill="#B3D1DD"/>
</g>
<path opacity="0.5" d="M758.089 269.991H742.875V273.392H758.089V269.991Z" fill="#95B3C1"/>
</g>
<g opacity="0.5">
<path opacity="0.5" d="M640.342 226.347H613.41V341.88H640.342V226.347Z" fill="#95B3C1"/>
<path opacity="0.5" d="M633.635 216.238C629.95 216.238 626.926 219.261 626.926 222.945V226.346H640.344V222.945C640.344 219.167 637.321 216.238 633.635 216.238Z" fill="#95B3C1"/>
<path opacity="0.5" d="M636.277 240.517H617.566V242.973H636.277V240.517Z" fill="#B3D1DD"/>
<path opacity="0.5" d="M636.277 247.129H617.566V249.585H636.277V247.129Z" fill="#B3D1DD"/>
<path opacity="0.5" d="M636.277 253.836H617.566V256.292H636.277V253.836Z" fill="#B3D1DD"/>
<path opacity="0.5" d="M636.277 260.448H617.566V262.904H636.277V260.448Z" fill="#B3D1DD"/>
<path opacity="0.5" d="M636.277 267.156H617.566V269.612H636.277V267.156Z" fill="#B3D1DD"/>
<path opacity="0.5" d="M636.277 273.77H617.566V276.226H636.277V273.77Z" fill="#B3D1DD"/>
<path opacity="0.5" d="M636.277 280.476H617.566V282.932H636.277V280.476Z" fill="#B3D1DD"/>
<path opacity="0.5" d="M636.277 287.182H617.566V289.638H636.277V287.182Z" fill="#B3D1DD"/>
<path opacity="0.5" d="M636.277 293.796H617.566V296.252H636.277V293.796Z" fill="#B3D1DD"/>
<path opacity="0.5" d="M636.277 300.502H617.566V302.958H636.277V300.502Z" fill="#B3D1DD"/>
<path opacity="0.5" d="M636.277 307.116H617.566V309.572H636.277V307.116Z" fill="#B3D1DD"/>
<path opacity="0.5" d="M636.277 313.823H617.566V316.279H636.277V313.823Z" fill="#B3D1DD"/>
<path opacity="0.5" d="M613.409 253.836H581.469V341.879H613.409V253.836Z" fill="#95B3C1"/>
<path opacity="0.5" d="M670.488 242.972H640.344V341.973H670.488V242.972Z" fill="#95B3C1"/>
<path opacity="0.5" d="M667.369 233.809H652.816V242.877H667.369V233.809Z" fill="#95B3C1"/>
<g opacity="0.5">
<path opacity="0.5" d="M588.269 264.038H586.379V265.927H588.269V264.038Z" fill="#B3D1DD"/>
<path opacity="0.5" d="M592.898 264.038H591.008V265.927H592.898V264.038Z" fill="#B3D1DD"/>
<path opacity="0.5" d="M597.527 264.038H595.637V265.927H597.527V264.038Z" fill="#B3D1DD"/>
<path opacity="0.5" d="M602.163 264.038H600.273V265.927H602.163V264.038Z" fill="#B3D1DD"/>
<path opacity="0.5" d="M606.886 264.038H604.996V265.927H606.886V264.038Z" fill="#B3D1DD"/>
</g>
<g opacity="0.5">
<path opacity="0.5" d="M588.269 269.707H586.379V271.596H588.269V269.707Z" fill="#B3D1DD"/>
<path opacity="0.5" d="M592.898 269.707H591.008V271.596H592.898V269.707Z" fill="#B3D1DD"/>
<path opacity="0.5" d="M597.527 269.707H595.637V271.596H597.527V269.707Z" fill="#B3D1DD"/>
<path opacity="0.5" d="M602.163 269.707H600.273V271.596H602.163V269.707Z" fill="#B3D1DD"/>
<path opacity="0.5" d="M606.886 269.707H604.996V271.596H606.886V269.707Z" fill="#B3D1DD"/>
</g>
<g opacity="0.5">
<path opacity="0.5" d="M588.269 275.469H586.379V277.358H588.269V275.469Z" fill="#B3D1DD"/>
<path opacity="0.5" d="M592.898 275.469H591.008V277.358H592.898V275.469Z" fill="#B3D1DD"/>
<path opacity="0.5" d="M597.527 275.469H595.637V277.358H597.527V275.469Z" fill="#B3D1DD"/>
<path opacity="0.5" d="M602.163 275.469H600.273V277.358H602.163V275.469Z" fill="#B3D1DD"/>
<path opacity="0.5" d="M606.886 275.469H604.996V277.358H606.886V275.469Z" fill="#B3D1DD"/>
</g>
<g opacity="0.5">
<path opacity="0.5" d="M588.269 281.137H586.379V283.026H588.269V281.137Z" fill="#B3D1DD"/>
<path opacity="0.5" d="M592.898 281.137H591.008V283.026H592.898V281.137Z" fill="#B3D1DD"/>
<path opacity="0.5" d="M597.527 281.137H595.637V283.026H597.527V281.137Z" fill="#B3D1DD"/>
<path opacity="0.5" d="M602.163 281.137H600.273V283.026H602.163V281.137Z" fill="#B3D1DD"/>
<path opacity="0.5" d="M606.886 281.137H604.996V283.026H606.886V281.137Z" fill="#B3D1DD"/>
</g>
<g opacity="0.5">
<path opacity="0.5" d="M588.269 286.899H586.379V288.789H588.269V286.899Z" fill="#B3D1DD"/>
<path opacity="0.5" d="M592.898 286.899H591.008V288.789H592.898V286.899Z" fill="#B3D1DD"/>
<path opacity="0.5" d="M597.527 286.899H595.637V288.789H597.527V286.899Z" fill="#B3D1DD"/>
<path opacity="0.5" d="M602.163 286.899H600.273V288.789H602.163V286.899Z" fill="#B3D1DD"/>
<path opacity="0.5" d="M606.886 286.899H604.996V288.789H606.886V286.899Z" fill="#B3D1DD"/>
</g>
<g opacity="0.5">
<path opacity="0.5" d="M588.269 292.568H586.379V294.458H588.269V292.568Z" fill="#B3D1DD"/>
<path opacity="0.5" d="M592.898 292.568H591.008V294.458H592.898V292.568Z" fill="#B3D1DD"/>
<path opacity="0.5" d="M597.527 292.568H595.637V294.458H597.527V292.568Z" fill="#B3D1DD"/>
<path opacity="0.5" d="M602.163 292.568H600.273V294.458H602.163V292.568Z" fill="#B3D1DD"/>
<path opacity="0.5" d="M606.886 292.568H604.996V294.458H606.886V292.568Z" fill="#B3D1DD"/>
</g>
<g opacity="0.5">
<path opacity="0.5" d="M588.269 298.331H586.379V300.22H588.269V298.331Z" fill="#B3D1DD"/>
<path opacity="0.5" d="M592.898 298.331H591.008V300.22H592.898V298.331Z" fill="#B3D1DD"/>
<path opacity="0.5" d="M597.527 298.331H595.637V300.22H597.527V298.331Z" fill="#B3D1DD"/>
<path opacity="0.5" d="M602.163 298.331H600.273V300.22H602.163V298.331Z" fill="#B3D1DD"/>
<path opacity="0.5" d="M606.886 298.331H604.996V300.22H606.886V298.331Z" fill="#B3D1DD"/>
</g>
<g opacity="0.5">
<path opacity="0.5" d="M588.269 303.999H586.379V305.888H588.269V303.999Z" fill="#B3D1DD"/>
<path opacity="0.5" d="M592.898 303.999H591.008V305.888H592.898V303.999Z" fill="#B3D1DD"/>
<path opacity="0.5" d="M597.527 303.999H595.637V305.888H597.527V303.999Z" fill="#B3D1DD"/>
<path opacity="0.5" d="M602.163 303.999H600.273V305.888H602.163V303.999Z" fill="#B3D1DD"/>
<path opacity="0.5" d="M606.886 303.999H604.996V305.888H606.886V303.999Z" fill="#B3D1DD"/>
</g>
<g opacity="0.5">
<path opacity="0.5" d="M588.269 309.666H586.379V311.555H588.269V309.666Z" fill="#B3D1DD"/>
<path opacity="0.5" d="M592.898 309.666H591.008V311.555H592.898V309.666Z" fill="#B3D1DD"/>
<path opacity="0.5" d="M597.527 309.666H595.637V311.555H597.527V309.666Z" fill="#B3D1DD"/>
<path opacity="0.5" d="M602.163 309.666H600.273V311.555H602.163V309.666Z" fill="#B3D1DD"/>
<path opacity="0.5" d="M606.886 309.666H604.996V311.555H606.886V309.666Z" fill="#B3D1DD"/>
</g>
<g opacity="0.5">
<path opacity="0.5" d="M588.269 315.429H586.379V317.318H588.269V315.429Z" fill="#B3D1DD"/>
<path opacity="0.5" d="M592.898 315.429H591.008V317.318H592.898V315.429Z" fill="#B3D1DD"/>
<path opacity="0.5" d="M597.527 315.429H595.637V317.318H597.527V315.429Z" fill="#B3D1DD"/>
<path opacity="0.5" d="M602.163 315.429H600.273V317.318H602.163V315.429Z" fill="#B3D1DD"/>
<path opacity="0.5" d="M606.886 315.429H604.996V317.318H606.886V315.429Z" fill="#B3D1DD"/>
</g>
<g opacity="0.5">
<path opacity="0.5" d="M588.269 321.098H586.379V322.987H588.269V321.098Z" fill="#B3D1DD"/>
<path opacity="0.5" d="M592.898 321.098H591.008V322.987H592.898V321.098Z" fill="#B3D1DD"/>
<path opacity="0.5" d="M597.527 321.098H595.637V322.987H597.527V321.098Z" fill="#B3D1DD"/>
<path opacity="0.5" d="M602.163 321.098H600.273V322.987H602.163V321.098Z" fill="#B3D1DD"/>
<path opacity="0.5" d="M606.886 321.098H604.996V322.987H606.886V321.098Z" fill="#B3D1DD"/>
</g>
<g opacity="0.5">
<path opacity="0.5" d="M650.451 261.017H644.781V266.685H650.451V261.017Z" fill="#B3D1DD"/>
<path opacity="0.5" d="M650.451 269.329H644.781V274.997H650.451V269.329Z" fill="#B3D1DD"/>
<path opacity="0.5" d="M650.451 277.644H644.781V283.312H650.451V277.644Z" fill="#B3D1DD"/>
<path opacity="0.5" d="M650.451 285.957H644.781V291.625H650.451V285.957Z" fill="#B3D1DD"/>
<path opacity="0.5" d="M650.451 294.27H644.781V299.938H650.451V294.27Z" fill="#B3D1DD"/>
<path opacity="0.5" d="M650.451 302.583H644.781V308.251H650.451V302.583Z" fill="#B3D1DD"/>
<path opacity="0.5" d="M650.451 310.896H644.781V316.564H650.451V310.896Z" fill="#B3D1DD"/>
</g>
<g opacity="0.5">
<path opacity="0.5" d="M660.846 261.017H655.176V266.685H660.846V261.017Z" fill="#B3D1DD"/>
<path opacity="0.5" d="M660.846 269.329H655.176V274.997H660.846V269.329Z" fill="#B3D1DD"/>
<path opacity="0.5" d="M660.846 277.644H655.176V283.312H660.846V277.644Z" fill="#B3D1DD"/>
<path opacity="0.5" d="M660.846 285.957H655.176V291.625H660.846V285.957Z" fill="#B3D1DD"/>
<path opacity="0.5" d="M660.846 294.27H655.176V299.938H660.846V294.27Z" fill="#B3D1DD"/>
<path opacity="0.5" d="M660.846 302.583H655.176V308.251H660.846V302.583Z" fill="#B3D1DD"/>
<path opacity="0.5" d="M660.846 310.896H655.176V316.564H660.846V310.896Z" fill="#B3D1DD"/>
</g>
</g>
</g>
<g opacity="0.5">
<path opacity="0.7" d="M660.281 341.598H628.719L694.867 111.192H726.429L660.281 341.598Z" fill="white" fill-opacity="0.3"/>
<path opacity="0.7" d="M593.758 341.598L659.906 111.192H682.019L615.87 341.598" fill="white" fill-opacity="0.3"/>
<path opacity="0.7" d="M666.516 341.598L732.664 111.192H745.327L679.178 341.598" fill="white" fill-opacity="0.3"/>
</g>
<g opacity="0.5">
<path opacity="0.7" d="M219.164 341.598H187.602L253.75 111.192H285.312L219.164 341.598Z" fill="white"/>
<path opacity="0.7" d="M152.641 341.598L218.789 111.192H240.901L174.753 341.598" fill="white"/>
<path opacity="0.7" d="M225.398 341.598L291.547 111.192H304.209L238.061 341.598" fill="white"/>
</g>
</g>
<g opacity="0.5">
<path opacity="0.5" d="M334.46 103.729H138.566V349.155H334.46V103.729Z" fill="#13415B"/>
<path opacity="0.5" d="M326.335 111.286H146.789V341.597H326.335V111.286Z" fill="#116A94"/>
<g opacity="0.5">
<g opacity="0.5">
<path opacity="0.5" d="M195.073 228.992H146.785V341.975H195.073V228.992Z" fill="#95B3C1"/>
<path opacity="0.5" d="M226.448 264.89H194.98V342.069H226.448V264.89Z" fill="#95B3C1"/>
<path opacity="0.5" d="M237.69 243.446C231.547 243.446 226.539 248.453 226.539 254.593V341.975H249.691V243.446H237.69Z" fill="#95B3C1"/>
<g opacity="0.5">
<path opacity="0.5" d="M244.873 264.323H240.715V268.48H244.873V264.323Z" fill="#B3D1DD"/>
<path opacity="0.5" d="M244.873 270.369H240.715V274.526H244.873V270.369Z" fill="#B3D1DD"/>
<path opacity="0.5" d="M244.873 276.414H240.715V280.571H244.873V276.414Z" fill="#B3D1DD"/>
<path opacity="0.5" d="M244.873 282.461H240.715V286.617H244.873V282.461Z" fill="#B3D1DD"/>
<path opacity="0.5" d="M244.873 288.506H240.715V292.662H244.873V288.506Z" fill="#B3D1DD"/>
<path opacity="0.5" d="M244.873 294.458H240.715V298.615H244.873V294.458Z" fill="#B3D1DD"/>
<path opacity="0.5" d="M244.873 300.503H240.715V304.659H244.873V300.503Z" fill="#B3D1DD"/>
</g>
<g opacity="0.5">
<path opacity="0.5" d="M235.701 272.541H231.543V276.698H235.701V272.541Z" fill="#B3D1DD"/>
<path opacity="0.5" d="M235.701 278.587H231.543V282.743H235.701V278.587Z" fill="#B3D1DD"/>
<path opacity="0.5" d="M235.701 284.632H231.543V288.788H235.701V284.632Z" fill="#B3D1DD"/>
<path opacity="0.5" d="M235.701 290.679H231.543V294.835H235.701V290.679Z" fill="#B3D1DD"/>
<path opacity="0.5" d="M235.701 296.631H231.543V300.787H235.701V296.631Z" fill="#B3D1DD"/>
<path opacity="0.5" d="M235.701 302.677H231.543V306.833H235.701V302.677Z" fill="#B3D1DD"/>
<path opacity="0.5" d="M235.701 308.722H231.543V312.878H235.701V308.722Z" fill="#B3D1DD"/>
</g>
<path opacity="0.5" d="M187.044 243.446H155.766V247.603H187.044V243.446Z" fill="#B3D1DD"/>
<path opacity="0.5" d="M187.044 252.608H155.766V256.765H187.044V252.608Z" fill="#B3D1DD"/>
<path opacity="0.5" d="M187.044 261.867H155.766V266.024H187.044V261.867Z" fill="#B3D1DD"/>
<path opacity="0.5" d="M187.044 271.124H155.766V275.281H187.044V271.124Z" fill="#B3D1DD"/>
<path opacity="0.5" d="M187.044 280.382H155.766V284.538H187.044V280.382Z" fill="#B3D1DD"/>
<path opacity="0.5" d="M187.044 289.545H155.766V293.701H187.044V289.545Z" fill="#B3D1DD"/>
<path opacity="0.5" d="M187.044 298.803H155.766V302.959H187.044V298.803Z" fill="#B3D1DD"/>
<path opacity="0.5" d="M187.044 308.061H155.766V312.217H187.044V308.061Z" fill="#B3D1DD"/>
<g opacity="0.5">
<path opacity="0.5" d="M201.688 273.581H199.609V275.659H201.688V273.581Z" fill="#B3D1DD"/>
<path opacity="0.5" d="M206.696 273.581H204.617V275.659H206.696V273.581Z" fill="#B3D1DD"/>
<path opacity="0.5" d="M211.798 273.581H209.719V275.659H211.798V273.581Z" fill="#B3D1DD"/>
<path opacity="0.5" d="M216.903 273.581H214.824V275.659H216.903V273.581Z" fill="#B3D1DD"/>
<path opacity="0.5" d="M221.911 273.581H219.832V275.659H221.911V273.581Z" fill="#B3D1DD"/>
</g>
<g opacity="0.5">
<path opacity="0.5" d="M201.688 281.988H199.609V284.067H201.688V281.988Z" fill="#B3D1DD"/>
<path opacity="0.5" d="M206.696 281.988H204.617V284.067H206.696V281.988Z" fill="#B3D1DD"/>
<path opacity="0.5" d="M211.798 281.988H209.719V284.067H211.798V281.988Z" fill="#B3D1DD"/>
<path opacity="0.5" d="M216.903 281.988H214.824V284.067H216.903V281.988Z" fill="#B3D1DD"/>
<path opacity="0.5" d="M221.911 281.988H219.832V284.067H221.911V281.988Z" fill="#B3D1DD"/>
</g>
<g opacity="0.5">
<path opacity="0.5" d="M201.688 290.396H199.609V292.474H201.688V290.396Z" fill="#B3D1DD"/>
<path opacity="0.5" d="M206.696 290.396H204.617V292.474H206.696V290.396Z" fill="#B3D1DD"/>
<path opacity="0.5" d="M211.798 290.396H209.719V292.474H211.798V290.396Z" fill="#B3D1DD"/>
<path opacity="0.5" d="M216.903 290.396H214.824V292.474H216.903V290.396Z" fill="#B3D1DD"/>
<path opacity="0.5" d="M221.911 290.396H219.832V292.474H221.911V290.396Z" fill="#B3D1DD"/>
</g>
<g opacity="0.5">
<path opacity="0.5" d="M201.688 298.803H199.609V300.881H201.688V298.803Z" fill="#B3D1DD"/>
<path opacity="0.5" d="M206.696 298.803H204.617V300.881H206.696V298.803Z" fill="#B3D1DD"/>
<path opacity="0.5" d="M211.798 298.803H209.719V300.881H211.798V298.803Z" fill="#B3D1DD"/>
<path opacity="0.5" d="M216.903 298.803H214.824V300.881H216.903V298.803Z" fill="#B3D1DD"/>
<path opacity="0.5" d="M221.911 298.803H219.832V300.881H221.911V298.803Z" fill="#B3D1DD"/>
</g>
<g opacity="0.5">
<path opacity="0.5" d="M201.688 307.21H199.609V309.288H201.688V307.21Z" fill="#B3D1DD"/>
<path opacity="0.5" d="M206.696 307.21H204.617V309.288H206.696V307.21Z" fill="#B3D1DD"/>
<path opacity="0.5" d="M211.798 307.21H209.719V309.288H211.798V307.21Z" fill="#B3D1DD"/>
<path opacity="0.5" d="M216.903 307.21H214.824V309.288H216.903V307.21Z" fill="#B3D1DD"/>
<path opacity="0.5" d="M221.911 307.21H219.832V309.288H221.911V307.21Z" fill="#B3D1DD"/>
</g>
<g opacity="0.5">
<path opacity="0.5" d="M201.688 315.617H199.609V317.695H201.688V315.617Z" fill="#B3D1DD"/>
<path opacity="0.5" d="M206.696 315.617H204.617V317.695H206.696V315.617Z" fill="#B3D1DD"/>
<path opacity="0.5" d="M211.798 315.617H209.719V317.695H211.798V315.617Z" fill="#B3D1DD"/>
<path opacity="0.5" d="M216.903 315.617H214.824V317.695H216.903V315.617Z" fill="#B3D1DD"/>
<path opacity="0.5" d="M221.911 315.617H219.832V317.695H221.911V315.617Z" fill="#B3D1DD"/>
</g>
<g opacity="0.5">
<path opacity="0.5" d="M201.688 324.025H199.609V326.104H201.688V324.025Z" fill="#B3D1DD"/>
<path opacity="0.5" d="M206.696 324.025H204.617V326.104H206.696V324.025Z" fill="#B3D1DD"/>
<path opacity="0.5" d="M211.798 324.025H209.719V326.104H211.798V324.025Z" fill="#B3D1DD"/>
<path opacity="0.5" d="M216.903 324.025H214.824V326.104H216.903V324.025Z" fill="#B3D1DD"/>
<path opacity="0.5" d="M221.911 324.025H219.832V326.104H221.911V324.025Z" fill="#B3D1DD"/>
</g>
<path opacity="0.5" d="M218.039 246.279H201.312V264.889H218.039V246.279Z" fill="#95B3C1"/>
<path opacity="0.5" d="M218.133 240.422H210.762V246.184H218.133V240.422Z" fill="#95B3C1"/>
<path opacity="0.5" d="M188.644 223.229H152.641V228.992H188.644V223.229Z" fill="#95B3C1"/>
</g>
<g opacity="0.5">
<path opacity="0.5" d="M300.343 242.596H277.191V342.07H300.343V242.596Z" fill="#95B3C1"/>
<path opacity="0.5" d="M294.581 233.81C291.368 233.81 288.816 236.36 288.816 239.572V242.501H300.345V239.572C300.345 236.455 297.794 233.81 294.581 233.81Z" fill="#95B3C1"/>
<path opacity="0.5" d="M296.752 254.78H280.688V256.859H296.752V254.78Z" fill="#B3D1DD"/>
<path opacity="0.5" d="M296.752 260.449H280.688V262.528H296.752V260.449Z" fill="#B3D1DD"/>
<path opacity="0.5" d="M296.752 266.212H280.688V268.29H296.752V266.212Z" fill="#B3D1DD"/>
<path opacity="0.5" d="M296.752 271.975H280.688V274.053H296.752V271.975Z" fill="#B3D1DD"/>
<path opacity="0.5" d="M296.752 277.643H280.688V279.721H296.752V277.643Z" fill="#B3D1DD"/>
<path opacity="0.5" d="M296.752 283.404H280.688V285.483H296.752V283.404Z" fill="#B3D1DD"/>
<path opacity="0.5" d="M296.752 289.166H280.688V291.244H296.752V289.166Z" fill="#B3D1DD"/>
<path opacity="0.5" d="M296.752 294.835H280.688V296.913H296.752V294.835Z" fill="#B3D1DD"/>
<path opacity="0.5" d="M296.752 300.599H280.688V302.677H296.752V300.599Z" fill="#B3D1DD"/>
<path opacity="0.5" d="M296.752 306.359H280.688V308.438H296.752V306.359Z" fill="#B3D1DD"/>
<path opacity="0.5" d="M296.752 312.027H280.688V314.106H296.752V312.027Z" fill="#B3D1DD"/>
<path opacity="0.5" d="M296.752 317.791H280.688V319.869H296.752V317.791Z" fill="#B3D1DD"/>
<path opacity="0.5" d="M277.19 266.212H249.691V341.975H277.19V266.212Z" fill="#95B3C1"/>
<path opacity="0.5" d="M326.331 256.859H300.344V342.069H326.331V256.859Z" fill="#95B3C1"/>
<path opacity="0.5" d="M323.591 249.019H311.117V256.859H323.591V249.019Z" fill="#95B3C1"/>
<g opacity="0.5">
<path opacity="0.5" d="M255.454 274.996H253.848V276.602H255.454V274.996Z" fill="#B3D1DD"/>
<path opacity="0.5" d="M259.517 274.996H257.91V276.602H259.517V274.996Z" fill="#B3D1DD"/>
<path opacity="0.5" d="M263.485 274.996H261.879V276.602H263.485V274.996Z" fill="#B3D1DD"/>
<path opacity="0.5" d="M267.552 274.996H265.945V276.602H267.552V274.996Z" fill="#B3D1DD"/>
<path opacity="0.5" d="M271.521 274.996H269.914V276.602H271.521V274.996Z" fill="#B3D1DD"/>
</g>
<g opacity="0.5">
<path opacity="0.5" d="M255.454 279.909H253.848V281.515H255.454V279.909Z" fill="#B3D1DD"/>
<path opacity="0.5" d="M259.517 279.909H257.91V281.515H259.517V279.909Z" fill="#B3D1DD"/>
<path opacity="0.5" d="M263.485 279.909H261.879V281.515H263.485V279.909Z" fill="#B3D1DD"/>
<path opacity="0.5" d="M267.552 279.909H265.945V281.515H267.552V279.909Z" fill="#B3D1DD"/>
<path opacity="0.5" d="M271.521 279.909H269.914V281.515H271.521V279.909Z" fill="#B3D1DD"/>
</g>
<g opacity="0.5">
<path opacity="0.5" d="M255.454 284.821H253.848V286.427H255.454V284.821Z" fill="#B3D1DD"/>
<path opacity="0.5" d="M259.517 284.821H257.91V286.427H259.517V284.821Z" fill="#B3D1DD"/>
<path opacity="0.5" d="M263.485 284.821H261.879V286.427H263.485V284.821Z" fill="#B3D1DD"/>
<path opacity="0.5" d="M267.552 284.821H265.945V286.427H267.552V284.821Z" fill="#B3D1DD"/>
<path opacity="0.5" d="M271.521 284.821H269.914V286.427H271.521V284.821Z" fill="#B3D1DD"/>
</g>
<g opacity="0.5">
<path opacity="0.5" d="M255.454 289.734H253.848V291.34H255.454V289.734Z" fill="#B3D1DD"/>
<path opacity="0.5" d="M259.517 289.734H257.91V291.34H259.517V289.734Z" fill="#B3D1DD"/>
<path opacity="0.5" d="M263.485 289.734H261.879V291.34H263.485V289.734Z" fill="#B3D1DD"/>
<path opacity="0.5" d="M267.552 289.734H265.945V291.34H267.552V289.734Z" fill="#B3D1DD"/>
<path opacity="0.5" d="M271.521 289.734H269.914V291.34H271.521V289.734Z" fill="#B3D1DD"/>
</g>
<g opacity="0.5">
<path opacity="0.5" d="M255.454 294.646H253.848V296.252H255.454V294.646Z" fill="#B3D1DD"/>
<path opacity="0.5" d="M259.517 294.646H257.91V296.252H259.517V294.646Z" fill="#B3D1DD"/>
<path opacity="0.5" d="M263.485 294.646H261.879V296.252H263.485V294.646Z" fill="#B3D1DD"/>
<path opacity="0.5" d="M267.552 294.646H265.945V296.252H267.552V294.646Z" fill="#B3D1DD"/>
<path opacity="0.5" d="M271.521 294.646H269.914V296.252H271.521V294.646Z" fill="#B3D1DD"/>
</g>
<g opacity="0.5">
<path opacity="0.5" d="M255.454 299.558H253.848V301.164H255.454V299.558Z" fill="#B3D1DD"/>
<path opacity="0.5" d="M259.517 299.558H257.91V301.164H259.517V299.558Z" fill="#B3D1DD"/>
<path opacity="0.5" d="M263.485 299.558H261.879V301.164H263.485V299.558Z" fill="#B3D1DD"/>
<path opacity="0.5" d="M267.552 299.558H265.945V301.164H267.552V299.558Z" fill="#B3D1DD"/>
<path opacity="0.5" d="M271.521 299.558H269.914V301.164H271.521V299.558Z" fill="#B3D1DD"/>
</g>
<g opacity="0.5">
<path opacity="0.5" d="M255.454 304.47H253.848V306.076H255.454V304.47Z" fill="#B3D1DD"/>
<path opacity="0.5" d="M259.517 304.47H257.91V306.076H259.517V304.47Z" fill="#B3D1DD"/>
<path opacity="0.5" d="M263.485 304.47H261.879V306.076H263.485V304.47Z" fill="#B3D1DD"/>
<path opacity="0.5" d="M267.552 304.47H265.945V306.076H267.552V304.47Z" fill="#B3D1DD"/>
<path opacity="0.5" d="M271.521 304.47H269.914V306.076H271.521V304.47Z" fill="#B3D1DD"/>
</g>
<g opacity="0.5">
<path opacity="0.5" d="M255.454 309.383H253.848V310.989H255.454V309.383Z" fill="#B3D1DD"/>
<path opacity="0.5" d="M259.517 309.383H257.91V310.989H259.517V309.383Z" fill="#B3D1DD"/>
<path opacity="0.5" d="M263.485 309.383H261.879V310.989H263.485V309.383Z" fill="#B3D1DD"/>
<path opacity="0.5" d="M267.552 309.383H265.945V310.989H267.552V309.383Z" fill="#B3D1DD"/>
<path opacity="0.5" d="M271.521 309.383H269.914V310.989H271.521V309.383Z" fill="#B3D1DD"/>
</g>
<g opacity="0.5">
<path opacity="0.5" d="M255.454 314.295H253.848V315.901H255.454V314.295Z" fill="#B3D1DD"/>
<path opacity="0.5" d="M259.517 314.295H257.91V315.901H259.517V314.295Z" fill="#B3D1DD"/>
<path opacity="0.5" d="M263.485 314.295H261.879V315.901H263.485V314.295Z" fill="#B3D1DD"/>
<path opacity="0.5" d="M267.552 314.295H265.945V315.901H267.552V314.295Z" fill="#B3D1DD"/>
<path opacity="0.5" d="M271.521 314.295H269.914V315.901H271.521V314.295Z" fill="#B3D1DD"/>
</g>
<g opacity="0.5">
<path opacity="0.5" d="M255.454 319.208H253.848V320.814H255.454V319.208Z" fill="#B3D1DD"/>
<path opacity="0.5" d="M259.517 319.208H257.91V320.814H259.517V319.208Z" fill="#B3D1DD"/>
<path opacity="0.5" d="M263.485 319.208H261.879V320.814H263.485V319.208Z" fill="#B3D1DD"/>
<path opacity="0.5" d="M267.552 319.208H265.945V320.814H267.552V319.208Z" fill="#B3D1DD"/>
<path opacity="0.5" d="M271.521 319.208H269.914V320.814H271.521V319.208Z" fill="#B3D1DD"/>
</g>
<g opacity="0.5">
<path opacity="0.5" d="M255.454 324.119H253.848V325.725H255.454V324.119Z" fill="#B3D1DD"/>
<path opacity="0.5" d="M259.517 324.119H257.91V325.725H259.517V324.119Z" fill="#B3D1DD"/>
<path opacity="0.5" d="M263.485 324.119H261.879V325.725H263.485V324.119Z" fill="#B3D1DD"/>
<path opacity="0.5" d="M267.552 324.119H265.945V325.725H267.552V324.119Z" fill="#B3D1DD"/>
<path opacity="0.5" d="M271.521 324.119H269.914V325.725H271.521V324.119Z" fill="#B3D1DD"/>
</g>
<g opacity="0.5">
<path opacity="0.5" d="M309.133 272.447H304.219V277.36H309.133V272.447Z" fill="#B3D1DD"/>
<path opacity="0.5" d="M309.133 279.532H304.219V284.445H309.133V279.532Z" fill="#B3D1DD"/>
<path opacity="0.5" d="M309.133 286.711H304.219V291.623H309.133V286.711Z" fill="#B3D1DD"/>
<path opacity="0.5" d="M309.133 293.797H304.219V298.709H309.133V293.797Z" fill="#B3D1DD"/>
<path opacity="0.5" d="M309.133 300.977H304.219V305.889H309.133V300.977Z" fill="#B3D1DD"/>
<path opacity="0.5" d="M309.133 308.156H304.219V313.069H309.133V308.156Z" fill="#B3D1DD"/>
<path opacity="0.5" d="M309.133 315.24H304.219V320.153H309.133V315.24Z" fill="#B3D1DD"/>
</g>
<g opacity="0.5">
<path opacity="0.5" d="M318.015 272.447H313.102V277.36H318.015V272.447Z" fill="#B3D1DD"/>
<path opacity="0.5" d="M318.015 279.532H313.102V284.445H318.015V279.532Z" fill="#B3D1DD"/>
<path opacity="0.5" d="M318.015 286.712H313.102V291.624H318.015V286.712Z" fill="#B3D1DD"/>
<path opacity="0.5" d="M318.015 293.797H313.102V298.709H318.015V293.797Z" fill="#B3D1DD"/>
<path opacity="0.5" d="M318.015 300.977H313.102V305.889H318.015V300.977Z" fill="#B3D1DD"/>
<path opacity="0.5" d="M318.015 308.154H313.102V313.067H318.015V308.154Z" fill="#B3D1DD"/>
<path opacity="0.5" d="M318.015 315.24H313.102V320.153H318.015V315.24Z" fill="#B3D1DD"/>
</g>
</g>
</g>
</g>
<path d="M667.781 95.3592L654.026 60.9967L669.461 25.6796L667.123 24.6578L651.688 59.975L617.213 73.2593L667.781 95.3592Z" fill="#95B3C1"/>
<g clip-path="url(#clip0)">
<path d="M417.779 204.89C418.848 211.876 419.916 218.862 419.259 225.848C418.108 239.08 411.122 250.997 404.383 262.339C412.108 256.422 420.081 250.833 428.299 245.655C427.971 256.504 430.354 267.353 435.121 277.051C436.354 262.257 438.819 247.463 442.6 233.081C452.627 229.3 463.064 226.67 473.667 225.191C465.777 220.424 457.229 216.561 448.435 213.849C456.161 206.616 463.804 199.466 471.53 192.234C460.188 197.74 448.764 203.247 437.422 208.671C436.6 203 435.121 197.494 433.066 192.151C430.765 199.466 430.272 211.054 426.08 217.218C420.492 211.958 419.998 199.63 416.136 192.891C416.547 196.918 417.204 200.863 417.779 204.89Z" fill="#B9CEE0"/>
<path d="M398.548 266.448C397.891 266.941 397.233 267.517 396.905 268.256C396.658 268.75 396.494 269.407 396.411 269.982C395.179 277.379 395.918 284.94 396 292.502C396.083 299.981 395.425 307.871 391.645 314.363C393.535 310.994 395.425 307.706 397.233 304.337C397.644 303.597 398.137 302.775 398.302 301.871C398.63 300.474 398.384 299.077 398.22 297.597C397.315 290.694 397.891 283.708 398.548 276.804C398.713 275.242 398.877 273.599 399.452 272.119C400.11 270.476 401.26 269.078 402.411 267.681C409.561 258.969 416.876 250.504 424.437 242.203C420.41 246.641 414.575 250.093 410.137 254.202C410.383 254.202 410.548 254.12 410.794 254.038C407.753 258.723 402.74 262.914 398.548 266.448Z" fill="#A1B6C8"/>
<path d="M437.093 281.489C431.339 288.147 424.518 293.982 417.121 298.666C419.422 305.077 422.956 311.077 427.394 316.255C433.476 315.515 439.64 315.268 445.804 315.433C445.722 322.336 445.558 329.24 445.476 336.144C446.133 328.089 446.873 320.035 447.53 311.981C440.216 311.816 432.819 311.323 425.586 310.501C424.6 307.132 423.45 303.844 422.299 300.557C428.134 295.461 433.969 290.283 439.887 285.188C436.353 274.832 434.791 263.983 433.312 253.135C432.654 258.641 432.572 264.148 433.065 269.654C432.983 269.079 432.819 268.586 432.737 268.011C434.052 272.449 435.531 276.969 437.093 281.489Z" fill="#A1B6C8"/>
<path d="M472.6 190.672C471.449 184.343 470.71 177.933 470.216 171.522C473.997 173.988 478.6 175.138 483.12 174.563C491.667 164.372 500.872 154.674 510.653 145.551C504.324 156.81 496.845 167.413 488.38 177.111C488.051 177.439 487.722 177.85 487.311 178.015C486.736 178.261 486.161 178.179 485.503 178.179C482.709 177.933 479.915 177.604 477.038 177.357C476.956 181.878 477.285 186.398 477.942 190.836C475.559 191.658 473.504 193.137 471.367 194.617C463.148 200.37 454.93 206.205 446.711 211.958C450.163 207.356 454.272 203.328 458.957 200.041C461.012 198.644 472.846 192.397 472.6 190.672Z" fill="#A1B6C8"/>
</g>
<g clip-path="url(#clip1)">
<path d="M707.323 292.344C707.936 287.597 708.549 282.851 710.289 278.43C713.524 270.038 720.326 263.601 726.859 257.492C720.699 259.886 714.441 262.02 708.098 263.839C710.349 256.843 710.827 249.335 709.531 242.127C705.95 251.52 701.562 260.68 696.392 269.325C689.13 269.894 681.815 269.638 674.609 268.602C678.871 273.191 683.732 277.315 688.97 280.737C682.564 283.986 676.227 287.198 669.821 290.447C678.266 289.002 686.766 287.573 695.196 286.182C694.669 290.026 694.602 293.888 694.942 297.751C697.819 293.425 700.316 285.979 704.212 282.759C706.877 287.234 704.886 295.348 706.146 300.461C706.633 297.763 706.943 295.072 707.323 292.344Z" fill="#A1B6C8"/>
<path d="M731.444 255.919C731.966 255.722 732.504 255.471 732.858 255.052C733.111 254.778 733.342 254.381 733.504 254.022C735.698 249.442 736.633 244.383 737.998 239.448C739.348 234.567 741.258 229.558 744.948 226.046C743.08 227.882 741.228 229.665 739.414 231.516C739.006 231.92 738.53 232.362 738.253 232.919C737.776 233.766 737.675 234.721 737.504 235.715C736.8 240.377 735.113 244.814 733.388 249.181C732.987 250.166 732.571 251.205 731.918 252.059C731.179 253.004 730.165 253.696 729.151 254.388C722.843 258.709 716.475 262.837 709.976 266.813C713.44 264.685 717.901 263.539 721.573 261.702C721.412 261.655 721.289 261.678 721.112 261.685C723.979 259.21 728.042 257.428 731.444 255.919Z" fill="#A1B6C8"/>
<path d="M709.078 238.868C714.087 235.621 719.64 233.11 725.353 231.457C725.052 226.852 723.868 222.283 721.939 218.077C717.826 217.412 713.751 216.411 709.754 215.142C711.103 210.666 712.506 206.205 713.855 201.729C711.914 206.845 709.919 211.946 707.978 217.062C712.728 218.548 717.469 220.263 722.041 222.161C722.054 224.539 722.189 226.895 722.324 229.251C717.554 231.466 712.769 233.735 707.946 235.935C708.312 243.338 707.297 250.691 706.228 258.028C707.691 254.57 708.778 251.002 709.489 247.327C709.434 247.717 709.449 248.068 709.395 248.458C709.368 245.323 709.25 242.103 709.078 238.868Z" fill="#A1B6C8"/>
<path d="M668.829 291.261C668.394 295.595 667.674 299.906 666.794 304.169C664.785 301.853 661.994 300.236 658.932 299.759C651.433 304.778 643.598 309.353 635.494 313.444C641.743 307.312 648.62 301.824 655.972 297.11C656.249 296.958 656.541 296.752 656.84 296.723C657.262 296.671 657.623 296.833 658.052 296.957C659.832 297.644 661.597 298.384 663.431 299.087C664.332 296.162 664.966 293.159 665.369 290.147C667.081 290.062 668.701 289.487 670.375 288.927C676.826 286.733 683.292 284.486 689.743 282.292C686.623 284.636 683.182 286.481 679.504 287.737C677.899 288.259 668.992 290.092 668.829 291.261Z" fill="#A1B6C8"/>
</g>
<path d="M552.451 475.609C550.524 485.157 608.108 492.636 615.04 499.537C625.424 503.075 683.588 480.392 684.307 478.237C690.305 484.286 700.629 485.518 707.9 480.963C706.082 488.463 706.119 496.262 706.219 503.971C713.75 504.913 721.425 504.892 729.03 504.025C730.335 503.874 731.779 503.621 732.813 502.815C733.771 502.022 734.18 500.78 734.588 499.537C736.434 493.983 738.356 488.417 740.202 482.863C740.475 482.191 740.722 481.367 741.456 481.082C742.113 480.81 742.801 481.158 743.4 481.443C749.627 484.33 755.853 487.218 762.004 490.119C763.023 490.564 764.054 491.086 765.145 491.05C766.236 491.015 767.323 490.512 768.321 489.946C773.927 486.62 778.44 481.535 781.082 475.608C783.787 469.591 784.494 462.91 785.215 456.306C786.231 446.917 787.247 437.529 788.276 428.216C788.548 425.748 788.677 422.916 787.026 421.098C785.875 419.895 784.208 419.329 782.555 418.839C776.653 416.909 771.048 413.991 766.07 410.182C765.431 409.669 764.793 409.157 763.979 408.988C761.933 408.488 760.071 410.376 758.79 412.006C755.211 416.615 751.543 421.162 747.964 425.771C747.324 426.586 746.455 427.441 745.477 427.222C744.664 427.053 744.276 426.184 743.915 425.467C742.365 421.993 740.775 418.291 741.125 414.483C741.262 412.586 741.881 410.76 742.26 408.898C743.036 404.391 742.122 399.634 739.656 395.852C733.836 386.805 721.793 384.705 711.138 383.375C709.856 383.21 708.372 383.237 707.695 384.292C707.382 384.737 707.412 385.357 707.429 385.9C707.657 388.982 709.695 391.668 710.468 394.733C711.165 397.81 709.308 401.961 706.234 401.408C705.193 401.279 704.362 400.566 703.545 399.929C699.268 396.543 694.915 393.17 690.638 389.785C688.812 388.31 686.91 386.849 684.672 386.149C678.046 384.112 671.314 389.509 667.912 395.57C666.536 397.997 664.936 400.931 662.146 401.109C661.145 401.207 660.14 400.837 659.135 400.467C654.949 398.938 650.852 397.472 646.666 395.944C644.107 402.793 648.114 410.441 653.659 415.244C659.203 420.046 666.064 422.978 671.797 427.513C668.865 430.448 665.932 433.382 662.152 435.061C658.373 436.739 653.719 437.01 650.388 434.55C646.879 431.966 645.786 427.085 642.667 424.042C643.997 425.37 643.243 435.805 643.592 438.241C644.075 441.435 595.175 417.546 595.175 444.289C597.537 446.138 564.05 460.095 618.832 457.146C624.016 458.109 547.564 473.657 552.451 475.609Z" fill="#333D41"/>
<path d="M214.764 397.707C207.776 394.19 184.652 397.496 177.491 397.985C172.088 400.721 157.319 419.362 155.182 430.017C148.925 430.416 143.226 433.134 144.949 437.123C139.537 434.25 145.8 446.843 139.737 444.606C137.091 447.07 148.999 450.577 147.75 453.6C147.538 454.12 147.37 454.72 147.739 455.334C148.117 455.917 148.986 456.432 149.856 456.947C153.736 459.256 157.608 461.597 161.489 463.906C161.946 464.204 162.529 464.537 162.566 464.888C162.612 465.207 162.165 465.355 161.79 465.489C157.951 466.904 154.111 468.319 150.281 469.703C149.674 469.942 149.004 470.164 148.755 470.571C148.506 470.979 148.625 471.523 148.814 472.053C149.998 475.074 152.835 478.216 156.807 480.925C160.833 483.684 165.885 485.911 170.874 488.121C177.968 491.259 185.062 494.397 192.094 497.517C193.957 498.344 196.142 499.226 197.984 499.161C199.217 499.096 200.083 498.657 200.886 498.2C203.893 496.62 207.6 495.441 211.844 494.752C212.407 494.67 212.97 494.589 213.309 494.343C214.219 493.745 213.213 492.511 212.261 491.564C209.559 488.902 206.929 486.227 204.227 483.565C203.751 483.092 203.302 482.524 203.721 482.232C204.06 481.986 204.838 482.101 205.491 482.181C208.605 482.641 211.907 483.154 214.8 484.404C216.251 485.013 217.523 485.777 218.885 486.464C222.218 488.075 226.174 489.145 229.761 489.362C238.32 489.912 243.018 486.147 246.76 482.661C247.214 482.243 247.57 481.695 246.915 481.138C246.646 480.892 246.153 480.721 245.723 480.567C243.252 479.741 240.632 479.691 238.037 479.069C235.45 478.415 232.671 476.515 233.883 475.559C234.248 475.218 235.017 475.126 235.723 475.017C239.458 474.458 243.203 473.868 246.938 473.31C248.556 473.08 250.182 472.818 251.298 472.21C254.572 470.399 262.745 473.371 258.861 470.345C257.309 469.129 244.725 460.668 245.293 459.6C245.471 459.207 259.663 464.581 246.559 458.693C248.818 457.62 275.101 472.173 277.359 471.1C272.644 468.149 280.153 459.071 274.987 459.673C269.821 460.275 262 449.575 256.995 450.324C255.441 448.392 245.868 446.828 245.512 444.957C245.156 443.087 272.006 447.342 252.546 441.065C255.459 440.549 239.162 438.824 242.335 438.586C249.534 428.249 247.369 431.307 245.373 430.716C242.75 429.95 249.4 430.377 228.459 422.492C226.412 422.806 223.972 406.502 212.394 427.312C210.325 428.915 217.532 396.503 214.764 397.707Z" fill="#333D41"/>
<path d="M260.419 411.006L226.72 426.315L190.735 412.507L189.821 414.889L225.806 428.697L240.649 462.53L260.419 411.006Z" fill="#95B3C1"/>
<path fill-rule="evenodd" clip-rule="evenodd" d="M320.118 28.1591C314.105 34.6725 308.065 41.1705 301.96 47.7725C310.021 54.2551 314.74 63.0704 320.357 71.2391C324.61 77.4099 329.272 83.3074 333.695 89.3665C334.627 90.6292 335.582 90.7023 337.017 90.2404C342.484 88.4619 347.981 86.8027 353.482 85.1475C354.025 84.9819 354.683 85.1936 355.28 85.236L355.326 85.9674C354.717 86.1907 354.102 86.4447 353.49 86.6372C347.873 88.3926 342.272 90.2019 336.609 91.8456C334.946 92.3307 334.219 93.0929 333.857 94.7982C330.843 109.407 332.398 123.77 335.67 138.148C336.609 142.297 338.091 144.765 342.807 145.019C346.056 145.181 349.251 146.232 352.462 146.89C352.523 147.109 352.581 147.329 352.627 147.556C352.1 147.737 351.522 148.122 351.041 148.033C347.063 147.318 343.097 146.534 339.146 145.681C337.703 145.369 336.567 145.573 335.343 146.443C326.959 152.418 321.08 160.356 316.6 169.321C313.608 175.288 311.126 181.486 308.412 187.572C308.034 188.426 307.592 189.254 307.095 190.293C313.104 195.698 319.236 201.211 325.38 206.723C324.672 208.34 323.991 207.62 323.228 206.942C318.567 202.766 313.889 198.616 309.243 194.439C305.34 190.944 305.355 190.936 300.643 193.423C294.245 196.807 287.794 200.079 281.477 203.59C276.106 206.557 271.425 210.349 267.568 215.115C266.764 216.116 266.567 216.928 267.041 218.191C269.535 224.735 271.93 231.314 274.347 237.877C274.393 238.004 274.482 238.124 274.497 238.262C274.559 239.082 274.601 239.921 274.647 240.749C274.112 240.114 273.377 239.567 273.108 238.847C270.577 232.319 268.136 225.756 265.786 219.161C265.235 217.613 264.492 217.144 262.86 217.163C252.005 217.259 241.499 219.561 230.982 221.894C225.173 223.184 219.357 224.55 213.552 225.824C212.37 226.075 211.866 226.606 211.596 227.749C210.295 233.25 208.905 238.716 207.546 244.194C207.366 244.899 207.173 245.599 207.008 246.265C205.244 246.404 205.649 245.465 205.872 244.583C207.35 238.582 208.89 232.596 210.218 226.548C210.534 225.162 210.445 223.457 209.918 222.136C205.121 210.003 195.563 203.921 182.817 202.054C178.202 201.38 173.555 200.949 168.94 200.321C167.7 200.14 166.938 200.487 166.118 201.38C160.654 207.321 155.157 213.231 149.627 219.111C149.192 219.55 148.46 219.723 147.879 220.019C147.729 219.792 147.563 219.573 147.413 219.346C153.703 212.547 160.005 205.753 166.476 198.755C165.179 197.257 163.951 195.76 162.626 194.351C158.146 189.716 153.545 185.204 149.153 180.477C142.297 173.097 140.01 169.125 135.114 156.98C134.202 157.241 133.247 157.492 132.308 157.788C127.603 159.251 122.896 160.74 118.191 162.157C117.595 162.346 116.863 162.142 116.205 162.111C116.744 161.672 117.221 161.045 117.833 160.837C122.911 159.178 127.992 157.549 133.116 156.025C134.536 155.609 135.195 154.858 135.564 153.473C138.194 143.806 137.685 134.148 135.507 124.536C134.059 118.172 132.265 111.898 130.487 105.623C130.294 104.969 129.278 104.241 128.508 104.072C124.455 103.129 120.343 102.37 116.251 101.546L116.07 100.888C116.594 100.719 117.16 100.334 117.641 100.411C120.613 100.919 123.585 101.412 126.514 102.143C128.339 102.605 129.486 102.262 130.86 100.873C138.24 93.3662 143.991 84.8741 147.771 75.1272C150.701 67.5898 152.298 59.7791 152.775 51.7567C152.818 50.8444 152.31 49.6664 151.655 48.9928C147.413 44.6082 143.052 40.3275 138.671 35.9506C139.164 34.8227 139.776 35.3 140.522 36.0237C144.661 40.0503 148.799 44.0846 152.995 48.0419C153.503 48.5193 154.431 48.9851 155.054 48.8696C169.544 46.1595 183.037 41.1975 194.37 31.6006C196.237 30.0262 197.88 28.1938 199.659 26.5308C200.629 25.6339 200.748 24.7138 200.375 23.4627C198.404 16.6876 196.525 9.87778 194.608 3.07952C194.52 2.76386 194.354 2.42895 194.37 2.10944C194.389 1.46657 194.493 0.831403 194.566 0.192383C194.966 0.669723 195.598 1.08932 195.763 1.63595C197.137 6.28232 198.435 10.9479 199.767 15.5943C200.425 17.9233 201.172 20.2407 201.726 22.585C202.038 23.9362 202.785 24.5791 204.04 25.0795C216.273 29.9376 228.777 29.9954 241.442 27.2545C244.787 26.5308 248.074 25.5145 251.389 24.7138C252.628 24.4213 253.171 23.8207 253.448 22.5927C254.973 15.91 256.574 9.24646 258.183 2.58294C258.333 2.0286 258.814 1.55126 259.138 1.04313C259.376 1.14706 259.604 1.2587 259.846 1.37034C259.769 1.93237 259.727 2.50594 259.607 3.05643C258.125 9.40429 256.609 15.7367 255.215 22.1193C255.05 22.9238 255.304 24.1556 255.854 24.7485C267.672 37.3287 282.312 44.5427 299.596 46.6022C300.281 46.683 301.282 46.1711 301.79 45.6321C307.195 39.9117 312.542 34.1298 317.905 28.3863C318.478 27.7857 319.056 26.6116 320.133 28.1591H320.118ZM167.573 197.577C170.503 194.432 173.293 191.487 175.984 188.457C176.342 188.053 176.404 187.067 176.165 186.528C175.103 183.906 173.942 181.325 172.685 178.791C167.727 168.824 161.06 160.163 152.056 153.33C151.428 152.861 150.504 152.218 149.935 152.383C145.558 153.603 141.208 155.012 136.788 156.383C138.806 163.631 142.047 169.983 146.855 175.392C153.518 182.879 160.525 190.055 167.573 197.577ZM332.875 91.4491C328.333 85.1321 323.929 79.0729 319.629 72.9252C315.876 67.5628 312.411 61.9926 308.516 56.711C306.425 53.8662 303.719 51.4526 301.117 48.6694C297.772 52.2687 294.757 55.4599 291.839 58.7513C291.531 59.1093 291.697 60.141 291.982 60.6914C293.953 64.4563 295.893 68.2404 298.041 71.9128C303.265 80.809 309.874 88.5466 318.49 94.5056C319.052 94.8944 319.91 95.3718 320.461 95.214C324.657 94.0322 328.818 92.7041 332.875 91.4491ZM212.462 224.5C229.893 221.051 246.554 215.704 264.462 215.627C263.041 211.793 261.786 208.201 260.335 204.66C259.912 203.797 259.175 203.129 258.275 202.793C253.479 201.268 248.54 201.33 243.62 202.107C234.193 203.601 225.501 207.32 216.72 210.738C216.452 210.853 216.212 211.023 216.014 211.236C215.815 211.45 215.664 211.702 215.569 211.978C214.51 216.008 213.556 220.05 212.462 224.5ZM131.16 102.632C131.669 102.925 131.876 103.117 132.119 103.171C136.019 103.972 139.895 104.776 143.814 105.481C144.322 105.569 145.092 105.188 145.5 104.792C157.333 93.32 163.458 79.3154 164.694 63.159C164.724 62.5777 164.798 61.7616 164.47 61.4344C161.302 58.2278 158.049 55.1058 154.477 51.6258C152.864 71.6395 145.561 88.6621 131.149 102.632H131.16ZM155.813 50.3401C158.996 53.5737 162.01 56.6726 165.106 59.706C165.448 60.0486 166.257 60.1679 166.78 60.0717C179.553 57.6388 191.413 53.2234 201.195 44.4619C205.302 40.7856 205.287 40.7663 203.824 35.6542C202.998 32.7668 202.166 29.8809 201.329 26.9966C188.915 40.4083 173.132 46.7331 155.813 50.3247V50.3401ZM151.12 150.297C155.705 148.872 159.947 147.587 164.162 146.166C164.701 145.989 165.252 145.135 165.36 144.522C165.852 141.678 166.391 138.829 166.526 135.965C166.842 129.151 164.732 122.715 163.315 116.14C162.392 111.898 160.629 109.611 156.013 109.357C152.937 109.195 149.904 108.26 146.647 107.625C147.074 122.057 151.898 135.696 151.12 150.277V150.297ZM332.625 93.089C328.729 94.2824 325.234 95.4488 321.677 96.4112C320.068 96.8423 319.406 97.643 319.075 99.2405C316.434 112.029 317.866 124.574 320.857 137.12C321.527 139.915 322.705 141.154 325.592 141.493C328.803 141.859 331.967 142.682 334.908 143.248C333.568 134.887 332.013 126.726 331.012 118.496C330.015 110.131 330.758 101.766 332.625 93.089ZM305.994 189.235C312.896 172.497 319.379 155.998 334.881 144.834C330.519 143.953 326.639 143.11 322.724 142.413C322.116 142.301 321.204 142.64 320.711 143.071C317.847 145.566 314.825 147.941 312.311 150.739C307.099 156.552 303.65 163.447 300.62 170.526C299.184 173.844 297.81 177.189 296.359 180.646L305.994 189.235ZM146.47 105.996C151.444 106.997 155.986 107.937 160.555 108.76C161.048 108.849 161.795 108.329 162.23 107.894C171.357 98.821 176.227 87.8537 177.212 75.1964C177.258 74.5844 177.197 73.7413 176.823 73.3448C173.551 69.9226 170.206 66.5928 166.876 63.2398C166.68 63.3091 166.472 63.3823 166.295 63.4554C164.821 79.8236 158.646 94.0899 146.47 105.993V105.996ZM252.663 25.8186C235.921 30.8615 219.561 32.8556 202.8 26.1343C203.859 29.9222 204.89 33.1789 205.653 36.5011C206.068 38.3527 207.073 39.265 208.832 39.9425C222.155 45.0431 235.363 43.4764 248.555 39.4575C248.819 39.347 249.056 39.1822 249.252 38.974C249.448 38.7657 249.597 38.5186 249.691 38.2487C250.696 34.2876 251.604 30.2995 252.663 25.8186ZM254.38 25.476C253.379 29.7375 252.455 33.51 251.635 37.3056C251.594 37.613 251.617 37.9255 251.703 38.2236C251.788 38.5217 251.934 38.7989 252.132 39.0379C261.959 49.6433 274.101 55.9758 288.59 57.9583C289.222 58.0391 290.13 58.0391 290.492 57.6734C293.46 54.64 296.32 51.5103 299.515 48.092C281.619 45.7476 266.725 38.4566 254.38 25.476ZM290.13 60.4682C286.92 63.9058 283.898 67.0932 280.988 70.3576C280.703 70.6848 280.83 71.6125 281.076 72.113C282.166 74.3534 283.317 76.5553 284.525 78.7534C288.918 86.7604 294.369 93.9321 301.929 99.3599C302.553 99.8103 303.477 100.415 304.066 100.249C308.577 98.9788 313.027 97.5468 318.012 95.9993C304.859 86.8335 296.836 74.3149 290.13 60.4682ZM167.207 61.5576C169.552 63.902 171.673 66.0692 173.84 68.1903C178.128 72.3709 178.144 72.3863 184.026 70.885C193.242 68.5175 201.653 64.6642 208.509 57.9737C209.433 57.0614 209.733 56.2722 209.329 54.9711C208.313 51.8414 207.504 48.654 206.596 45.4858C206.326 44.5158 205.999 43.5457 205.595 42.2676C194.989 53.3119 181.739 58.5242 167.207 61.5537V61.5576ZM317.801 97.6507C313.539 98.9595 309.732 100.214 305.859 101.288C304.347 101.716 303.665 102.424 303.334 103.972C301.063 114.881 302.379 125.594 305.282 136.2C305.44 136.82 306.387 137.501 307.103 137.678C309.613 138.305 312.176 138.725 314.733 139.233C316.438 139.56 318.124 139.903 320.137 140.292C316.365 126.129 314.567 112.252 317.801 97.6391V97.6507ZM319.544 141.878C318.817 141.666 318.378 141.504 317.943 141.416C314.448 140.704 310.987 139.918 307.461 139.376C306.46 139.222 305.143 139.472 304.304 140.034C300.393 142.628 297.079 145.935 294.823 149.946C291.147 156.51 287.874 163.285 284.441 169.952C288.163 173.29 291.478 176.25 295.138 179.518C300.959 165.341 306.495 151.378 319.544 141.878ZM152.244 151.482C164.509 160.714 172.246 172.651 177.743 186.07C178.071 185.974 178.236 185.982 178.309 185.897C180.223 183.884 182.12 181.847 184.014 179.819C187.302 176.254 187.302 176.246 185.285 171.796C181.131 162.638 175.484 154.585 167.365 148.36C166.73 147.872 165.698 147.356 165.055 147.537C160.925 148.691 156.844 150.043 152.244 151.482ZM249.098 40.8664C234.924 45.047 221.108 46.5291 206.915 40.7471C208.259 45.5205 209.456 49.8281 210.711 54.1165C210.799 54.409 211.188 54.6823 211.504 54.8209C222.379 59.4442 233.4 58.8437 244.456 55.5369C244.983 55.3753 245.711 54.9711 245.818 54.5438C246.935 50.1438 247.951 45.7091 249.098 40.8664ZM288.806 59.5558C281.353 58.3471 274.482 56.4031 268.038 53.1194C261.648 49.8473 256.12 45.455 250.911 40.1389L247.655 53.9933C248.475 54.7632 249.248 55.4215 249.934 56.1221C257.286 63.5478 266.152 68.1826 276.557 69.938C277.481 70.0881 278.859 70.1035 279.375 69.58C282.535 66.4272 285.519 63.0935 288.806 59.5558ZM265.813 214.73C269.803 209.73 274.733 205.56 280.326 202.454C286.385 199.047 292.598 195.91 298.738 192.638C300.458 191.729 302.16 190.774 304.062 189.747C300.978 186.99 298.176 184.423 295.289 181.951C294.934 181.632 293.995 181.543 293.56 181.763C287.035 185.17 280.487 188.561 274.035 192.122C269.54 194.573 265.596 197.922 262.448 201.961C262.036 202.508 261.721 203.478 261.929 204.067C263.076 207.508 264.392 210.892 265.817 214.73H265.813ZM168.693 198.577C169.529 198.724 169.979 198.82 170.426 198.882C175.041 199.494 179.672 199.971 184.265 200.741C196.475 202.785 205.737 208.802 210.876 220.181C210.996 220.439 211.25 220.666 211.581 221.097C212.462 217.525 213.328 214.21 214.075 210.88C214.225 210.276 214.075 209.533 213.867 208.936C210.518 199.721 204.17 193.585 194.312 191.475C189.173 190.378 183.899 189.885 178.687 189.165C178.194 189.096 177.478 189.196 177.193 189.504C174.387 192.411 171.654 195.386 168.693 198.566V198.577ZM131.915 104.618C136.577 121.206 141.789 137.316 136.769 154.739C141.042 153.403 144.88 152.252 148.676 150.97C149.092 150.82 149.496 149.939 149.496 149.396C149.511 146.243 149.646 143.067 149.257 139.945C147.944 129.371 146.451 118.812 144.969 108.248C144.892 107.806 144.357 107.174 143.937 107.082C140.087 106.243 136.199 105.5 131.915 104.638V104.618ZM259.103 201.184C257.571 197.053 256.162 193.161 254.638 189.315C254.449 188.83 253.637 188.33 253.075 188.272C250.007 187.987 246.931 187.495 243.901 187.691C237.326 188.107 231.352 190.801 225.154 192.711C220.927 194.02 218.672 196.206 218.221 200.56C217.936 203.355 216.966 206.088 216.235 209.137C220.581 207.524 224.511 205.965 228.515 204.587C236.687 201.78 244.96 199.374 253.802 200.344C255.481 200.521 257.132 200.864 259.103 201.184ZM260.885 201.403C269.381 190.624 282.185 186.779 293.237 180.057C289.996 177.159 286.935 174.387 283.817 171.673C283.486 171.384 282.635 171.273 282.246 171.481C276.237 174.691 270.136 177.771 264.354 181.324C261.632 182.998 259.465 185.581 257.182 187.868C256.732 188.315 256.512 189.385 256.709 189.989C257.952 193.677 259.357 197.311 260.885 201.403ZM215.099 206.9C216.069 202.912 216.997 199.163 217.879 195.398C217.967 195.032 217.836 194.593 217.702 194.216C215.238 187.048 210.769 181.67 203.062 179.719C198.639 178.606 194.054 178.113 189.511 177.471C188.884 177.39 187.987 177.917 187.479 178.425C185.654 180.242 183.93 182.163 182.19 184.057C181.173 185.162 180.188 186.297 179.006 187.614C182.856 188.114 186.309 188.542 189.746 189.019C200.995 190.594 209.764 195.606 214.483 206.211C214.56 206.361 214.741 206.48 215.099 206.9ZM179.426 75.439L178.814 75.7546C177.516 88.5774 172.57 99.791 163.054 109.288C167.146 110.1 170.83 110.874 174.514 111.528C174.96 111.609 175.665 111.201 176.05 110.828C183.175 103.687 187.002 95.0677 187.837 85.1513C187.879 84.6124 187.718 83.8964 187.356 83.523C184.761 80.7859 182.086 78.1182 179.426 75.439ZM301.636 101.058C291.058 93.4778 284.726 83.2804 279.275 72.1476C276.626 74.977 274.193 77.5177 271.884 80.1469C271.591 80.4895 271.664 81.4019 271.899 81.8946C272.923 84.0157 274.028 86.106 275.179 88.1693C278.539 94.1669 282.651 99.5678 288.298 103.721C288.875 104.153 289.818 104.626 290.419 104.461C294.034 103.471 297.598 102.312 301.636 101.058ZM189.846 83.265C193.134 86.5949 196.302 89.8246 199.528 93.0043C199.828 93.3046 200.536 93.3777 201.006 93.2969C205.683 92.4385 210.149 90.9949 214.195 88.4426C218.044 85.9943 218.044 86.0021 216.824 81.6021L216.258 79.6696C215.48 76.921 214.691 74.1725 213.898 71.3931C205.591 75.1695 196.853 77.4715 189.846 83.265ZM301.344 102.744C298.237 103.702 294.834 104.699 291.485 105.842C290.942 106.031 290.442 106.843 290.288 107.448C288.167 116.305 289.183 125.028 291.574 133.675C291.672 133.942 291.832 134.183 292.04 134.378C292.248 134.573 292.498 134.717 292.771 134.799C296.282 135.572 299.816 136.238 303.373 136.95C302.48 131.168 301.209 125.591 300.878 119.963C300.539 114.338 301.148 108.645 301.344 102.744ZM303.584 138.567C301.267 138.105 299.435 138.001 297.833 137.351C292.817 135.314 289.353 137.432 286.346 141.108C285.526 142.113 284.51 143.006 283.925 144.111C281.064 149.669 278.261 155.258 275.517 160.875C275.352 161.191 275.429 161.857 275.668 162.076C278.193 164.405 280.772 166.692 283.601 169.217C288.336 157.761 292.833 146.497 303.584 138.567ZM163.362 110.901C166.634 122.311 170.01 133.343 166.826 145.308C168.751 144.734 170.306 144.284 171.846 143.791C178.971 141.551 179.164 141.22 179.303 133.705C179.406 126.946 177.332 120.605 175.507 114.215C175.403 113.826 175.03 113.28 174.687 113.207C171.041 112.417 167.381 111.709 163.362 110.901ZM188.414 175.088C190.955 172.37 193.238 169.972 195.428 167.5C195.592 167.276 195.703 167.017 195.754 166.744C195.804 166.471 195.793 166.19 195.721 165.922C192.345 157.338 187.506 149.723 180.003 143.964C179.572 143.629 178.837 143.241 178.39 143.375C174.953 144.365 171.534 145.469 167.723 146.663C177.628 154.235 183.841 163.901 188.414 175.088ZM214.749 68.4559C215.153 68.3597 215.469 68.2096 215.765 68.2365C216.154 68.2673 216.558 68.402 216.932 68.556C224.996 71.8589 233.138 71.3354 241.311 69.0141C241.838 68.864 242.566 68.4521 242.673 68.0286C243.613 64.4832 244.417 60.9032 245.364 56.8843C233.92 60.1564 222.833 61.0841 211.346 56.303C212.582 60.7646 213.644 64.5487 214.749 68.4559ZM247.3 55.6601L244.548 67.3781C245.534 68.1711 246.346 68.71 247.031 69.3875C252.767 75.1002 259.611 78.7996 267.676 80.247C268.3 80.3587 269.254 80.4703 269.585 80.1354C272.226 77.4792 274.759 74.7114 277.608 71.6587C265.54 69.7186 255.719 64.5179 247.3 55.6601ZM287.855 105.33C279.486 99.0558 274.47 90.8986 270.17 81.9216C266.841 85.5055 263.803 88.7622 260.982 91.8033L263.576 96.6267C265.998 101.1 268.823 105.288 272.931 108.479C273.531 108.941 274.594 109.346 275.248 109.161C279.313 108.033 283.328 106.72 287.855 105.33ZM190.058 85.6787C189.846 85.7903 189.638 85.9174 189.431 86.0367C188.233 95.9184 184.369 104.614 177.062 112.067C181.708 112.995 185.92 113.876 190.162 114.608C190.701 114.696 191.525 114.146 191.971 113.669C196.391 108.991 198.889 103.413 199.709 97.1156C199.797 96.4458 199.709 95.5181 199.305 95.0715C196.287 91.8841 193.165 88.793 190.073 85.6787H190.058ZM253.752 186.767C252.513 183.376 251.45 180.327 250.242 177.34C250.014 176.785 249.198 176.15 248.617 176.119C245.895 175.938 243.031 175.396 240.46 176.015C234.886 177.343 229.477 179.303 224.015 181.035C223.611 181.17 223.087 181.551 222.983 181.917C222.044 185.52 221.178 189.146 220.204 193.069C231.179 189.069 241.592 184.319 253.752 186.767ZM288.794 106.655C284.856 107.863 281.33 109.061 277.727 110C276.049 110.431 275.425 111.328 275.14 112.86C274.082 118.777 274.578 124.609 276.064 130.387C276.183 130.88 276.68 131.577 277.115 131.665C281.296 132.581 285.492 133.382 290.003 134.287C287.72 125.075 286.569 116.105 288.794 106.655ZM290.019 135.861C286.462 135.141 283.267 134.718 280.206 133.805C277.423 132.97 275.456 133.813 273.65 135.726C273.273 136.115 272.854 136.473 272.499 136.877C268.688 141.008 266.656 146.082 264.627 151.151C264.492 151.486 264.596 152.145 264.847 152.372C267.765 155.062 270.717 157.699 273.901 160.536C277.742 151.228 281.388 142.205 290.019 135.861ZM179.884 141.266C183.872 140.026 187.367 138.86 190.909 137.874C192.299 137.486 192.88 136.739 193.165 135.422C194.104 130.957 193.045 126.672 192.372 122.284C191.652 117.634 189.55 115.166 184.596 115.077C182.786 115.031 180.981 114.388 179.164 114.046C178.544 113.926 177.917 113.838 177.051 113.696C179.68 122.834 182.324 131.6 179.876 141.266H179.884ZM281.827 169.868C279.159 167.469 276.615 165.137 274.001 162.904C273.708 162.642 272.834 162.746 272.407 162.973C268.762 164.821 264.977 166.499 261.574 168.717C258.426 170.768 255.658 173.398 252.778 175.834C252.374 176.177 251.958 176.97 252.093 177.386C253.152 180.577 254.364 183.722 255.642 187.217C262.572 178.444 272.819 175.272 281.827 169.868ZM197.307 165.541C200.19 162.434 202.835 159.643 205.418 156.768C205.718 156.414 205.806 155.624 205.637 155.178C203.3 149.111 199.951 143.706 194.77 139.537C194.277 139.149 193.488 138.671 193.022 138.806C189.05 139.957 185.119 141.235 180.804 142.594C188.661 148.78 193.619 156.487 197.307 165.541ZM218.429 191.771C218.581 191.701 218.731 191.628 218.879 191.552C219.372 189.612 219.88 187.664 220.327 185.732C220.612 184.511 221.247 183.125 220.931 182.036C219.28 176.358 216.189 171.6 210.137 169.779C206.434 168.659 202.504 168.282 198.666 167.627C198.25 167.55 197.592 167.627 197.338 167.885C194.874 170.441 192.468 173.055 189.704 176.019C202.072 176.997 213.325 179.087 218.429 191.771ZM242.211 70.373C233.05 72.9368 224.273 73.2178 215.072 69.5954L218.972 83.4267C220.134 83.4806 221.062 83.3074 221.809 83.5884C227.083 85.5978 232.399 85.4477 237.761 84.0965C238.346 83.9464 239.093 83.3112 239.243 82.7685C240.271 78.8111 241.149 74.823 242.196 70.373H242.211ZM268.08 81.8869C259.119 80.2047 251.774 76.4052 245.718 70.2614C244.748 69.2682 244.048 69.4992 243.732 70.8272C242.793 74.7999 241.853 78.7803 240.98 82.4528C242.1 83.1919 243.124 83.6769 243.882 84.3929C247.662 87.9884 252.039 90.5098 257.174 91.6608C257.821 91.8033 258.822 91.7494 259.188 91.3606C262.125 88.3695 264.947 85.2629 268.08 81.8869ZM188.526 82.2642C194.831 77.2136 202.388 74.5266 209.814 71.5702C210.768 71.204 211.684 70.7436 212.547 70.1959C212.905 69.9726 213.271 69.3144 213.19 68.9718C212.293 65.5495 211.292 62.1581 210.23 58.4087C201.657 66.9623 191.094 71.0621 179.876 73.4064C182.744 76.3475 185.57 79.2307 188.526 82.2642ZM272.18 161.241C269.089 158.477 266.248 155.863 263.307 153.369C262.96 153.068 262.036 153.099 261.555 153.33C259.284 154.412 256.94 155.444 254.865 156.849C252.355 158.535 250.053 160.544 247.735 162.488C247.335 162.823 246.962 163.616 247.096 164.016C248.351 167.673 249.714 171.292 251.173 175.249C256.705 168.212 264.797 165.587 272.18 161.241ZM223.507 179.495C231.991 176.416 240.013 172.982 249.214 174.564C247.897 171.011 246.581 167.766 245.507 164.451C245.002 162.885 244.109 162.423 242.539 162.346C237.153 162.076 232.353 164.078 227.51 165.918C227.167 166.049 226.763 166.411 226.69 166.723C225.632 170.853 224.615 174.995 223.507 179.495ZM198.862 166.138C208.944 166.884 217.682 169.082 221.805 179.688C222.883 175.296 223.791 171.612 224.688 167.924C224.735 167.735 224.808 167.485 224.719 167.335C223.437 165.171 222.39 162.769 220.746 160.887C217.536 157.222 212.859 156.922 208.347 156.494C208.02 156.456 207.57 156.787 207.315 157.06C204.629 159.909 201.969 162.792 198.862 166.138ZM253.456 99.9181L255.192 102.339C257.463 105.508 259.673 108.718 262.01 111.832C262.379 112.317 263.365 112.81 263.88 112.66C266.633 111.959 269.316 111.047 271.98 110.212C269.739 107.656 267.468 105.415 265.636 102.863C263.78 100.307 262.364 97.4544 260.778 94.7058C260.162 93.6164 259.523 93.3623 258.599 94.3786C256.863 96.2649 255.103 98.1473 253.456 99.9181ZM274.778 132.812C271.968 132.246 269.712 131.707 267.426 131.396C266.523 131.292 265.611 131.497 264.839 131.977C260.477 135.022 258.672 139.714 256.832 144.361C256.72 144.673 256.92 145.3 257.209 145.55C259.03 147.259 260.901 148.903 262.96 150.739C265.778 144.076 268.396 137.547 274.778 132.812ZM273.862 111.263C271.133 112.106 268.758 112.725 266.486 113.599C266.094 113.774 265.741 114.029 265.45 114.346C265.159 114.663 264.937 115.036 264.797 115.443C263.723 119.693 264.054 123.958 265.112 128.177C265.232 128.632 265.593 129.313 265.948 129.394C268.7 130.037 271.475 130.553 274.54 131.18C272.938 124.47 272.284 118.115 273.862 111.263ZM201.969 97.0656L201.264 97.516C200.294 104.164 197.53 110.019 192.78 115.185C195.782 115.797 198.381 116.402 201.01 116.787C201.637 116.875 202.577 116.406 203.027 115.897C205.807 112.843 207.58 109.007 208.105 104.911C208.182 104.372 208.074 103.648 207.747 103.283C205.883 101.158 203.913 99.1251 201.969 97.0656ZM192.379 116.679C194.2 123.342 196.187 129.729 194.5 136.673C197.057 135.884 199.174 135.145 201.341 134.591C202.777 134.225 203.297 133.409 203.493 132.065C204.151 127.6 202.865 123.431 201.626 119.25C201.522 118.862 200.921 118.415 200.49 118.315C197.95 117.753 195.413 117.276 192.379 116.679ZM207.227 154.839C209.183 152.733 210.872 150.951 212.47 149.146C212.755 148.826 212.936 148.129 212.786 147.752C211.038 143.248 208.647 139.141 204.779 136.038C204.374 135.711 203.628 135.484 203.15 135.622C200.671 136.311 198.223 137.131 195.413 138.013C201.014 142.582 204.598 148.199 207.242 154.839H207.227ZM238.562 85.7711C235.506 86.0713 232.711 86.6372 229.962 86.5179C227.125 86.3908 224.33 85.5478 221.493 85.0974C220.238 84.9011 219.669 85.6633 219.961 86.7989C220.658 89.4435 221.447 92.0727 222.032 94.1091C223.526 94.19 224.646 94.0552 225.616 94.3555C228.781 95.3256 232.146 95.4437 235.371 94.6981C235.898 94.5788 236.595 94.009 236.734 93.5163C237.415 91.0103 237.954 88.4465 238.562 85.7788V85.7711ZM201.73 94.7828C203.924 97.0463 205.957 99.1674 208.047 101.258C208.228 101.419 208.69 101.419 208.99 101.362C212.84 100.661 216.577 99.5408 219.776 97.208C220.269 96.8577 220.777 95.9762 220.673 95.4757C220.046 92.8273 219.237 90.2173 218.402 87.2839C213.44 91.3991 207.781 93.4432 201.73 94.7828ZM238.531 93.1198C239.786 93.8589 240.718 94.4286 241.653 94.9791C244.329 96.5459 246.977 98.1473 249.699 99.6525C250.141 99.8988 251.111 99.9797 251.385 99.714C253.414 97.7123 255.338 95.6066 257.405 93.4008C249.629 90.9063 248.49 90.2943 242.693 85.3438C241.572 84.3853 240.633 84.4007 240.24 85.8442C239.524 88.4157 239.012 91.0372 238.531 93.1198ZM261.39 151.59C259.346 149.758 257.617 148.16 255.804 146.632C255.465 146.339 254.73 146.043 254.437 146.197C250.807 148.141 246.769 149.538 244.175 152.988C243.874 153.392 243.393 153.985 243.513 154.327C244.294 156.71 245.202 159.051 246.203 161.776C250.322 156.668 256.043 154.658 261.39 151.59ZM209.167 155.078C216.608 155.601 222.402 157.85 225.27 164.775C226.105 162.219 226.717 159.782 227.302 157.334C227.364 157.087 227.391 156.768 227.271 156.571C226.555 155.42 225.762 154.316 225.062 153.165C222.941 149.7 219.461 148.93 215.727 148.668C215.399 148.645 214.934 148.907 214.683 149.177C212.963 150.97 211.277 152.807 209.167 155.078ZM244.159 160.933C243.316 158.662 242.481 156.691 241.873 154.658C241.438 153.257 240.648 152.522 239.197 152.853C236.21 153.538 233.254 154.323 230.297 155.109C229.955 155.201 229.504 155.555 229.431 155.859C228.7 158.542 228.041 161.245 227.264 164.336C232.923 162.219 238.123 160.305 244.159 160.933ZM260.755 113.707C258.333 109.988 255.989 106.408 253.671 102.824C253.048 101.854 252.197 101.458 251.327 102.286C249.479 104.118 247.77 106.073 246.296 107.663C247.162 108.649 247.828 109.307 248.355 110.062C249.552 111.755 250.626 113.557 251.897 115.193C252.236 115.628 253.229 115.94 253.775 115.79C256.212 115.17 258.603 114.361 260.755 113.707ZM263.903 130.66C261.024 130.071 258.633 129.556 256.228 129.132C255.835 129.055 255.319 129.301 254.942 129.548C251.943 131.534 250.642 134.641 249.414 137.794C249.31 138.063 249.491 138.602 249.714 138.825C251.473 140.465 253.271 142.055 255.254 143.849C257.302 138.868 259.303 134.24 263.903 130.66ZM262.964 128.87V114.673C260.316 115.478 257.798 116.244 255.304 117.048C255.05 117.125 254.734 117.487 254.734 117.734C254.688 120.586 254.63 123.454 254.734 126.31C254.749 126.711 255.577 127.311 256.108 127.446C258.422 128.004 260.785 128.428 262.964 128.87ZM205.633 132.962C213.652 130.834 214.61 132.146 212.532 122.811C212.428 122.357 212.339 121.872 212.116 121.468C211.92 121.087 211.608 120.578 211.25 120.498C208.709 119.916 206.141 119.427 203.793 118.958C204.44 123.812 205.037 128.412 205.633 132.962ZM214.776 146.724C216.389 144.988 218.167 143.083 220.273 140.812C218.556 138.317 216.866 135.761 215.072 133.297C214.73 132.835 213.864 132.343 213.413 132.454C210.949 133.097 208.543 133.925 206.499 134.568C209.279 138.648 211.981 142.605 214.776 146.724ZM236.137 96.1802C232.029 96.9847 228.322 96.8346 224.65 95.699C224.276 95.5951 222.933 96.8038 223.022 97.2003C223.603 99.895 224.442 102.54 225.308 105.581C226.398 104.029 227.356 103.856 228.746 104.349C229.985 104.78 231.437 104.811 232.78 104.765C233.334 104.734 234.166 104.137 234.316 103.637C235.001 101.335 235.479 98.9672 236.137 96.1802ZM236.121 103.394C237.484 104.083 238.5 104.537 239.44 105.088C240.606 105.785 241.68 106.628 242.889 107.248C243.301 107.467 244.198 107.444 244.483 107.159C246.311 105.365 248.009 103.471 249.822 101.543C247.905 100.653 246.176 100.018 244.633 99.075C243.07 98.1357 241.723 96.85 240.225 95.7952C239.074 94.9945 238.073 95.2717 237.715 96.6229C237.08 99.0211 236.583 101.446 236.121 103.394ZM204.617 117.51C205.706 117.734 207.1 118.034 208.467 118.311C213.278 119.289 214.052 118.858 215.711 114.227C215.904 113.661 216.116 113.076 216.173 112.487C216.219 112.059 216.158 111.478 215.904 111.197C214.021 109.188 212.097 107.24 210.349 105.454C208.378 109.611 206.538 113.449 204.598 117.51H204.617ZM242.404 151.54C246.173 149.142 249.741 146.878 253.456 144.503C251.697 142.936 249.96 141.354 248.155 139.861C247.855 139.607 247.05 139.56 246.735 139.772C244.644 141.135 242.631 142.575 240.629 144.041C240.329 144.261 240.013 144.85 240.102 145.146C240.833 147.34 241.661 149.519 242.404 151.54ZM210.11 103.117C211.985 104.992 213.917 106.943 215.888 108.861C216.085 109.038 216.516 109.161 216.77 109.084C218.787 108.472 220.804 107.867 222.76 107.09C223.164 106.928 223.611 106.016 223.507 105.565C222.925 103.109 222.171 100.688 221.536 98.486C217.686 100.049 213.933 101.573 210.11 103.117ZM227.514 154.362C227.695 154.339 227.857 154.316 228.022 154.285L229.92 146.617C229.158 145.951 228.634 145.635 228.318 145.196C227.81 144.499 227.514 143.622 226.96 142.971C225.705 141.485 222.791 140.588 221.882 141.47C220.104 143.171 218.475 145.031 216.504 147.148C221.794 147.671 225.585 149.704 227.514 154.362ZM240.375 150.866C239.79 149.254 239.224 147.475 238.466 145.781C238.119 145.05 237.284 143.876 236.853 143.949C235.174 144.234 232.73 144.48 232.118 145.577C230.894 147.76 230.682 150.493 230.028 153.122C233.623 152.341 236.911 151.633 240.375 150.866ZM250.669 116.744C249.306 114.6 248.144 112.645 246.858 110.747C246.076 109.565 245.022 109.111 243.844 110.3C242.723 111.451 241.665 112.675 240.602 113.838C241.422 114.377 242.315 114.704 242.766 115.332C245.006 118.484 244.96 118.523 248.744 117.372C249.383 117.168 250.022 116.952 250.669 116.744ZM247.516 136.82C249.352 133.929 251.058 131.234 252.863 128.374C251.127 128.135 248.856 127.119 247.516 127.819C245.868 128.662 244.748 130.837 243.928 132.658C243.69 133.205 245.183 134.541 245.957 135.453C246.442 136.003 247.066 136.438 247.516 136.82ZM216.116 131.538L221.432 139.499C222.76 138.067 224.015 136.696 225.254 135.372C224.315 133.809 223.522 132.331 222.521 130.984C222.178 130.506 221.266 130.075 220.712 130.179C219.149 130.476 217.625 131.068 216.116 131.538ZM215.307 130.091C215.95 129.91 216.67 129.71 217.37 129.486C221.181 128.297 221.389 127.985 220.358 124.235C220.131 123.431 219.626 122.33 218.968 122.084C217.413 121.502 215.696 121.344 214.006 121.025C214.456 124.101 214.861 126.98 215.307 130.091ZM252.698 126.738V117.872L246.854 119.635C246.823 120.351 246.823 120.875 246.765 121.398C246.338 125.479 246.323 125.479 250.426 126.33C251.158 126.472 251.893 126.595 252.698 126.738ZM233.623 106.651C231.606 106.358 229.843 105.904 228.111 105.962C227.333 105.977 225.901 107.097 225.959 107.582C226.182 109.434 226.898 111.22 227.256 112.491C228.842 112.329 229.989 112.275 231.098 112.048C231.621 111.936 232.387 111.594 232.534 111.182C233.011 109.738 233.265 108.221 233.623 106.651ZM246.007 138.044C241.723 134.071 242.346 132.824 237.315 137.736C237.911 139.283 238.535 140.865 239.151 142.467L246.007 138.044ZM242.631 109.226C240.999 108.071 239.617 106.859 238.015 106.054C237.384 105.739 235.702 106.093 235.521 106.532C234.863 108.214 234.612 110.05 234.355 111.22C236.102 111.967 237.43 112.521 238.955 113.149L242.631 109.226ZM224.061 139.06C226.244 140.727 228.23 142.232 230.47 143.945C230.932 142.174 231.44 140.296 231.783 138.948C230.886 138.098 230.186 137.636 229.766 136.993C228.615 135.214 227.81 135.08 226.344 136.616C225.512 137.501 224.673 138.394 224.061 139.06ZM218.133 112.883C216.878 115.439 215.908 117.395 214.845 119.543C216.608 119.893 218.325 120.378 220.046 120.471C220.643 120.517 221.509 119.666 221.836 119.016C222.136 118.454 222.121 117.41 221.763 116.918C220.731 115.524 219.461 114.315 218.133 112.883ZM224.315 108.318C222.117 109.122 220.146 109.846 218.16 110.589C217.998 110.851 217.832 111.12 217.651 111.39C218.61 112.048 219.638 112.598 220.473 113.361C222.698 115.416 222.652 115.451 225.851 113.869L224.315 108.318ZM237.072 142.016C236.491 140.442 235.998 139.064 235.444 137.705C235.34 137.455 234.928 137.077 234.759 137.131C234.428 137.228 233.993 137.516 233.904 137.813C233.411 139.456 233.015 141.112 232.53 143.013L237.072 142.016ZM227.795 122.022C229.589 121.217 231.14 120.082 232.83 119.87C234.551 119.67 236.383 120.386 238.166 120.69C234.339 117.249 228.634 118.096 227.795 122.022ZM242.75 119.119L243.193 118.438C241.977 117.48 240.818 116.352 239.432 115.713C239.039 115.532 237.95 116.81 237.026 117.549C238.054 118.003 238.978 118.111 239.205 118.55C240.194 120.501 241.48 119.589 242.75 119.119ZM244.945 127.115C242.735 126.28 241.811 126.676 240.645 128.624C239.586 130.395 240.922 130.934 241.992 131.75C243.02 130.148 243.974 128.632 244.945 127.115ZM228.38 131.8C227.826 130.895 227.483 129.702 226.694 129.19C225.947 128.728 224.723 128.982 223.214 128.886C224.107 130.21 224.619 130.899 225.066 131.627C226.555 134.094 226.602 134.102 228.38 131.8ZM222.629 127.742C223.957 127.304 225.539 127.523 225.331 125.433C225.139 123.35 224.061 122.572 221.94 122.784C222.163 124.382 222.386 125.937 222.629 127.742ZM241.915 121.125C242.492 124.967 242.492 124.967 245.126 124.844C244.929 123.439 244.748 122.049 244.567 120.663C243.674 120.821 242.781 120.979 241.915 121.125ZM232.176 114.346C231.906 114.011 231.637 113.676 231.356 113.353C230.355 113.792 228.965 113.988 228.472 114.743C228.041 115.424 228.576 116.714 228.696 117.737C228.965 117.799 229.25 117.857 229.516 117.911C230.413 116.721 231.294 115.524 232.176 114.346ZM235.586 133.182C236.025 133.975 236.399 134.695 236.834 135.468L240.283 133.082C238.681 130.164 237.238 131.992 235.586 133.182ZM232.907 116.332L233.627 117.037C234.924 116.379 236.241 115.724 237.538 115.058C237.476 114.731 237.403 114.408 237.346 114.08C236.372 113.946 235.178 113.411 234.509 113.78C233.727 114.211 233.411 115.443 232.907 116.332ZM233.173 133.778C232.076 133.317 231.248 132.958 230.232 132.527L228.931 133.975C230.035 134.768 230.994 135.438 231.933 136.111C232.384 135.276 232.819 134.444 233.173 133.778ZM227.021 119.066L226.455 115.57C225.558 115.959 224.931 116.221 224.022 116.61C225.035 117.437 225.735 118.019 227.021 119.066ZM225.839 121.649L226.109 121.021C225.424 120.324 224.735 119.624 223.899 118.758C223.468 119.697 223.183 120.332 222.81 121.125L225.839 121.649Z" fill="#929497"/>
<path d="M291.89 258.645C290.734 260.786 289.667 262.652 289.254 263.382C289.848 262.673 291.631 260.756 293.537 258.473C292.968 258.542 292.42 258.599 291.89 258.645Z" fill="black"/>
<path d="M275.516 247.326C274.72 247.326 273.957 247.642 273.394 248.205C272.832 248.767 272.516 249.531 272.516 250.326C272.516 251.122 272.832 251.885 273.394 252.447C273.957 253.01 274.72 253.326 275.516 253.326C276.311 253.326 277.074 253.01 277.637 252.447C278.2 251.885 278.516 251.122 278.516 250.326C278.516 249.531 278.2 248.767 277.637 248.205C277.074 247.642 276.311 247.326 275.516 247.326Z" fill="#2C2828"/>
<path d="M265.191 247.326C264.396 247.326 263.633 247.642 263.07 248.205C262.507 248.767 262.191 249.531 262.191 250.326C262.191 251.122 262.507 251.885 263.07 252.447C263.633 253.01 264.396 253.326 265.191 253.326C265.987 253.326 266.75 253.01 267.313 252.447C267.875 251.885 268.191 251.122 268.191 250.326C268.191 249.531 267.875 248.767 267.313 248.205C266.75 247.642 265.987 247.326 265.191 247.326Z" fill="#2C2828"/>
<path d="M299.061 255.923C295.59 254.416 286.54 255.123 284.223 254.529C284.436 254.018 284.589 253.489 284.704 252.95C287.517 252.378 291.121 251.34 295.189 249.44C296.562 248.798 295.467 251.596 293.845 254.878C294.695 254.871 295.527 254.882 296.322 254.915C299.097 251.077 300.881 247.345 297.551 246.949C295.748 246.735 293.09 247.304 290.554 247.966C295.028 243.923 300.981 237.858 296.643 236.788C294.665 236.301 291.425 236.702 288.575 237.111C286.399 228.754 274.933 224.965 271.393 223.984V130.929H269.294V223.985C265.754 224.965 254.288 228.755 252.113 237.112C249.262 236.703 246.022 236.301 244.045 236.789C239.708 237.858 245.66 243.924 250.134 247.967C247.598 247.306 244.939 246.737 243.137 246.95C239.806 247.346 241.59 251.078 244.365 254.916C245.19 254.883 246.016 254.871 246.841 254.879C245.219 251.597 244.124 248.799 245.497 249.441C249.566 251.34 253.169 252.379 255.983 252.951C256.098 253.49 256.252 254.019 256.464 254.53C254.147 255.124 245.097 254.417 241.626 255.924C235.665 258.512 252.283 267.682 254.7 269.237C252.782 267.454 241.578 257.176 244.662 257.626C250.77 258.517 255.557 258.129 258.52 257.643C258.926 258.077 259.37 258.487 259.85 258.871C257.827 259.405 254.603 260.046 253.185 261.09C249.965 263.463 261.382 266.758 263.073 267.371C261.649 266.551 253.343 261.853 255.274 261.707C258.149 261.491 260.467 260.938 262.173 260.382C264.504 261.595 267.315 262.305 270.344 262.305C273.25 262.305 275.951 261.645 278.224 260.521C279.953 261.11 282.37 261.716 285.416 261.946C287.344 262.091 279.041 266.788 277.614 267.608C279.306 266.995 290.72 263.7 287.504 261.327C286.031 260.244 282.622 259.597 280.622 259.051C281.175 258.625 281.692 258.155 282.168 257.645C285.131 258.131 289.918 258.519 296.025 257.628C299.109 257.179 287.906 267.456 285.987 269.239C288.404 267.682 305.024 258.512 299.061 255.923ZM255.955 249.463C254.925 249.281 253.447 248.866 251.803 248.415C248.842 244.4 244.495 238.192 246.605 238.873C248.3 239.421 250.023 239.874 251.768 240.23C251.881 243.232 253.655 245.763 256.515 247.632C256.264 248.221 256.077 248.835 255.955 249.463ZM261.95 230.085C261.95 230.085 265.707 227.04 270.344 227.04C274.981 227.04 278.739 230.085 278.739 230.085C278.739 230.085 275.884 229.372 272.082 229.189C275.883 229.872 278.737 232.527 278.737 232.527C278.737 232.527 274.979 231.309 270.344 231.309C265.707 231.309 261.949 232.526 261.949 232.526C261.949 232.526 264.804 229.871 268.606 229.188C264.805 229.372 261.95 230.085 261.95 230.085ZM260.682 250.326C260.682 249.133 261.156 247.988 262 247.144C262.844 246.3 263.989 245.826 265.182 245.826C266.376 245.826 267.52 246.3 268.364 247.144C269.208 247.988 269.682 249.133 269.682 250.326C269.682 251.52 269.208 252.664 268.364 253.508C267.52 254.352 266.376 254.826 265.182 254.826C263.989 254.826 262.844 254.352 262 253.508C261.156 252.664 260.682 251.52 260.682 250.326ZM270.344 258.442C268.734 258.442 267.43 257.669 267.43 256.716C267.43 255.766 268.734 256.525 270.344 256.525C271.953 256.525 273.258 255.766 273.258 256.716C273.258 257.669 271.953 258.442 270.344 258.442ZM275.506 254.826C274.313 254.826 273.168 254.352 272.324 253.508C271.48 252.664 271.006 251.52 271.006 250.326C271.006 249.133 271.48 247.988 272.324 247.144C273.168 246.3 274.313 245.826 275.506 245.826C276.7 245.826 277.844 246.3 278.688 247.144C279.532 247.988 280.006 249.133 280.006 250.326C280.006 251.52 279.532 252.664 278.688 253.508C277.844 254.352 276.7 254.826 275.506 254.826ZM288.92 240.23C290.665 239.873 292.389 239.42 294.083 238.873C296.192 238.192 291.846 244.4 288.885 248.415C287.24 248.866 285.763 249.281 284.733 249.463C284.612 248.835 284.424 248.221 284.173 247.633C287.033 245.763 288.807 243.232 288.92 240.23Z" fill="#2C2828"/>
<path d="M251.435 263.383C251.022 262.653 249.956 260.786 248.798 258.646C248.249 258.597 247.7 258.54 247.152 258.474C249.058 260.757 250.841 262.674 251.435 263.383Z" fill="black"/>
<circle cx="265.828" cy="249.918" r="1.58143" fill="white"/>
<circle cx="275.515" cy="249.918" r="1.58143" fill="white"/>
<defs>
<linearGradient id="paint0_linear" x1="103.394" y1="264.963" x2="103.394" y2="252.701" gradientUnits="userSpaceOnUse">
<stop stop-color="#008EC2"/>
<stop offset="1" stop-color="#003BC2"/>
</linearGradient>
<radialGradient id="paint1_radial" cx="0" cy="0" r="1" gradientUnits="userSpaceOnUse" gradientTransform="translate(103.393 258.535) scale(5.98719 5.97074)">
<stop stop-color="#FFBD00"/>
<stop offset="1" stop-color="#FF772C"/>
</radialGradient>
<linearGradient id="paint2_linear" x1="103.392" y1="263.943" x2="103.392" y2="252.703" gradientUnits="userSpaceOnUse">
<stop stop-color="#FFF300"/>
<stop offset="1" stop-color="#FF9700"/>
</linearGradient>
<linearGradient id="paint3_linear" x1="103.393" y1="263.845" x2="103.393" y2="252.612" gradientUnits="userSpaceOnUse">
<stop stop-color="#FFCC00"/>
<stop offset="1" stop-color="#FF9700"/>
</linearGradient>
<linearGradient id="paint4_linear" x1="97.2982" y1="255.221" x2="109.36" y2="255.221" gradientUnits="userSpaceOnUse">
<stop stop-color="#FFD540"/>
<stop offset="0.822917" stop-color="#FBCC53"/>
</linearGradient>
<clipPath id="clip0">
<rect width="144.9" height="231.8" fill="white" transform="translate(391.543 145.551)"/>
</clipPath>
<clipPath id="clip1">
<rect width="81" height="129" fill="white" transform="translate(713.324 335.893) rotate(-163.911)"/>
</clipPath>
</defs>
</svg>
