<svg width="880" height="507" viewBox="0 0 880 507" fill="none" xmlns="http://www.w3.org/2000/svg">
<path d="M103.385 229.912C104.502 229.912 105.362 233.92 105.362 233.92C105.362 233.92 109.445 233.491 109.789 234.563C110.133 235.635 106.609 237.671 106.609 237.671C106.609 237.671 108.263 241.421 107.361 242.064C106.458 242.729 103.406 239.985 103.406 239.985C103.406 239.985 100.355 242.729 99.452 242.064C98.5494 241.4 100.183 237.671 100.183 237.671C100.183 237.671 96.6367 235.613 96.9805 234.563C97.3244 233.513 101.408 233.92 101.408 233.92C101.408 233.92 102.267 229.912 103.385 229.912Z" fill="#00D6C2"/>
<path d="M103.385 229.698C104.502 229.698 105.362 233.706 105.362 233.706C105.362 233.706 109.445 233.277 109.789 234.349C110.133 235.421 106.609 237.457 106.609 237.457C106.609 237.457 108.263 241.207 107.361 241.85C106.458 242.515 103.406 239.771 103.406 239.771C103.406 239.771 100.355 242.515 99.452 241.85C98.5279 241.207 100.183 237.457 100.183 237.457C100.183 237.457 96.6367 235.399 96.9805 234.349C97.3244 233.299 101.408 233.706 101.408 233.706C101.408 233.706 102.267 229.698 103.385 229.698Z" fill="url(#paint0_linear)"/>
<path d="M103.384 229.699C104.459 229.699 105.275 233.514 105.275 233.514C105.275 233.514 109.165 233.107 109.487 234.114C109.81 235.122 106.436 237.072 106.436 237.072C106.436 237.072 108.026 240.63 107.145 241.251C106.285 241.873 103.384 239.279 103.384 239.279C103.384 239.279 100.483 241.873 99.623 241.251C98.7634 240.63 100.332 237.072 100.332 237.072C100.332 237.072 96.9581 235.122 97.3019 234.114C97.6243 233.107 101.514 233.514 101.514 233.514C101.514 233.514 102.331 229.699 103.384 229.699Z" fill="url(#paint1_radial)"/>
<path d="M106.435 236.815C106.435 236.815 108.026 240.244 107.166 240.844C106.306 241.444 103.405 238.937 103.405 238.937C103.405 238.937 100.504 241.444 99.6442 240.844C98.7846 240.244 100.375 236.815 100.375 236.815C100.375 236.815 96.9578 234.929 97.3017 233.964C97.6455 233 101.514 233.386 101.514 233.386C101.514 233.386 102.331 229.699 103.384 229.699C104.458 229.699 105.275 233.364 105.275 233.364C105.275 233.364 108.585 233.043 109.358 233.75C109.423 233.814 109.466 233.879 109.487 233.943C109.831 234.929 106.435 236.815 106.435 236.815Z" fill="url(#paint2_linear)"/>
<path d="M106.436 236.728C106.436 236.728 108.026 240.157 107.166 240.757C106.307 241.357 103.405 238.592 103.405 238.592C103.405 238.592 100.483 241.357 99.6229 240.757C98.7632 240.157 100.354 236.728 100.354 236.728C100.354 236.728 96.9579 234.842 97.3018 233.877C97.6457 232.913 101.514 233.299 101.514 233.299C101.514 233.299 102.331 229.612 103.384 229.612C104.458 229.612 105.275 233.277 105.275 233.277C105.275 233.277 108.585 232.956 109.358 233.663C109.423 233.727 109.466 233.792 109.487 233.856C109.831 234.842 106.436 236.728 106.436 236.728Z" fill="url(#paint3_linear)"/>
<path d="M109.361 233.749C109.318 233.813 109.254 233.856 109.168 233.92C107.535 235.078 104.44 234.863 101.044 234.113C97.7775 233.385 97.3262 233.899 97.3047 233.942C97.6485 232.977 101.517 233.363 101.517 233.363C101.517 233.363 102.334 229.698 103.387 229.698C104.461 229.698 105.278 233.363 105.278 233.363C105.278 233.363 108.588 233.042 109.361 233.749Z" fill="url(#paint4_linear)"/>
<path d="M102.352 230.94C102.352 230.94 102.867 229.847 103.211 229.868C103.555 229.89 103.233 230.726 103.125 230.811C103.018 230.897 102.459 231.026 102.352 230.94Z" fill="white"/>
<path d="M107.344 239.878C107.258 239.728 107.086 240.928 107.172 240.843C107.258 240.778 107.666 240.435 107.344 239.878Z" fill="white"/>
<path d="M807.004 40.5994C773.416 -15.7391 561.674 4.00687 498.955 4.00625C282.707 12.9233 227.674 4.0059 175.419 4.00618C97.7848 4.00659 53.225 53.6524 41.6331 144.473C36.5175 184.553 34.3991 265.298 39.4133 344.375C30.0039 410.504 41.6331 487.648 41.6331 487.648L810.715 508.342C831.721 435.746 879.624 128.319 807.004 40.5994Z" fill="#E6E6E6"/>
<path d="M38.6143 343.991L836.164 343.992C843.084 343.992 842.487 369.525 862.274 444.903L879.234 509.469H0.3125L17.9811 428.769C31.0402 371.924 35.3451 343.991 38.6143 343.991Z" fill="#427083"/>
<g opacity="0.5">
<path opacity="0.5" d="M551.804 80.7295H355.91V326.155H551.804V80.7295Z" fill="#13415B"/>
<path opacity="0.5" d="M543.674 88.2871H364.129V318.598H543.674V88.2871Z" fill="#116A94"/>
<g opacity="0.5">
<g opacity="0.5">
<path opacity="0.5" d="M418.38 236.695H387.102V318.598H418.38V236.695Z" fill="#95B3C1"/>
<path opacity="0.5" d="M414.033 221.015H391.543V236.791H414.033V221.015Z" fill="#95B3C1"/>
<path opacity="0.5" d="M387.1 213.457H364.137V318.599H387.1V213.457Z" fill="#95B3C1"/>
<path opacity="0.5" d="M441.439 256.25H418.477V318.598H441.439V256.25Z" fill="#95B3C1"/>
<g opacity="0.5">
<path opacity="0.5" d="M398.441 243.025H393.527V248.221H398.441V243.025Z" fill="#B3D1DD"/>
<path opacity="0.5" d="M398.441 250.582H393.527V255.778H398.441V250.582Z" fill="#B3D1DD"/>
<path opacity="0.5" d="M398.441 258.14H393.527V263.335H398.441V258.14Z" fill="#B3D1DD"/>
<path opacity="0.5" d="M398.441 265.698H393.527V270.894H398.441V265.698Z" fill="#B3D1DD"/>
<path opacity="0.5" d="M398.441 273.254H393.527V278.45H398.441V273.254Z" fill="#B3D1DD"/>
<path opacity="0.5" d="M398.441 280.812H393.527V286.007H398.441V280.812Z" fill="#B3D1DD"/>
<path opacity="0.5" d="M398.441 288.37H393.527V293.566H398.441V288.37Z" fill="#B3D1DD"/>
</g>
<g opacity="0.5">
<path opacity="0.5" d="M407.32 243.024H402.406V248.22H407.32V243.024Z" fill="#B3D1DD"/>
<path opacity="0.5" d="M407.32 250.583H402.406V255.779H407.32V250.583Z" fill="#B3D1DD"/>
<path opacity="0.5" d="M407.32 258.14H402.406V263.335H407.32V258.14Z" fill="#B3D1DD"/>
<path opacity="0.5" d="M407.32 265.697H402.406V270.893H407.32V265.697Z" fill="#B3D1DD"/>
<path opacity="0.5" d="M407.32 273.254H402.406V278.45H407.32V273.254Z" fill="#B3D1DD"/>
<path opacity="0.5" d="M407.32 280.812H402.406V286.007H407.32V280.812Z" fill="#B3D1DD"/>
<path opacity="0.5" d="M407.32 288.369H402.406V293.565H407.32V288.369Z" fill="#B3D1DD"/>
</g>
<g opacity="0.5">
<path opacity="0.5" d="M419.891 265.32H417.812V267.493H419.891V265.32Z" fill="#B3D1DD"/>
<path opacity="0.5" d="M424.899 265.32H422.82V267.493H424.899V265.32Z" fill="#B3D1DD"/>
<path opacity="0.5" d="M430.001 265.32H427.922V267.493H430.001V265.32Z" fill="#B3D1DD"/>
<path opacity="0.5" d="M435.009 265.32H432.93V267.493H435.009V265.32Z" fill="#B3D1DD"/>
<path opacity="0.5" d="M440.02 265.32H437.941V267.493H440.02V265.32Z" fill="#B3D1DD"/>
</g>
<g opacity="0.5">
<path opacity="0.5" d="M396.079 227.72H394V229.892H396.079V227.72Z" fill="#B3D1DD"/>
<path opacity="0.5" d="M401.087 227.72H399.008V229.892H401.087V227.72Z" fill="#B3D1DD"/>
<path opacity="0.5" d="M406.188 227.72H404.109V229.892H406.188V227.72Z" fill="#B3D1DD"/>
<path opacity="0.5" d="M411.196 227.72H409.117V229.892H411.196V227.72Z" fill="#B3D1DD"/>
</g>
<g opacity="0.5">
<path opacity="0.5" d="M419.891 272.121H417.812V274.294H419.891V272.121Z" fill="#B3D1DD"/>
<path opacity="0.5" d="M424.899 272.121H422.82V274.294H424.899V272.121Z" fill="#B3D1DD"/>
<path opacity="0.5" d="M430.001 272.121H427.922V274.294H430.001V272.121Z" fill="#B3D1DD"/>
<path opacity="0.5" d="M435.009 272.121H432.93V274.294H435.009V272.121Z" fill="#B3D1DD"/>
<path opacity="0.5" d="M440.02 272.121H437.941V274.294H440.02V272.121Z" fill="#B3D1DD"/>
</g>
<g opacity="0.5">
<path opacity="0.5" d="M419.891 279.019H417.812V281.191H419.891V279.019Z" fill="#B3D1DD"/>
<path opacity="0.5" d="M424.899 279.019H422.82V281.191H424.899V279.019Z" fill="#B3D1DD"/>
<path opacity="0.5" d="M430.001 279.019H427.922V281.191H430.001V279.019Z" fill="#B3D1DD"/>
<path opacity="0.5" d="M435.009 279.019H432.93V281.191H435.009V279.019Z" fill="#B3D1DD"/>
<path opacity="0.5" d="M440.02 279.019H437.941V281.191H440.02V279.019Z" fill="#B3D1DD"/>
</g>
<g opacity="0.5">
<path opacity="0.5" d="M419.891 285.818H417.812V287.991H419.891V285.818Z" fill="#B3D1DD"/>
<path opacity="0.5" d="M424.899 285.817H422.82V287.99H424.899V285.817Z" fill="#B3D1DD"/>
<path opacity="0.5" d="M430.001 285.817H427.922V287.99H430.001V285.817Z" fill="#B3D1DD"/>
<path opacity="0.5" d="M435.009 285.817H432.93V287.99H435.009V285.817Z" fill="#B3D1DD"/>
<path opacity="0.5" d="M440.02 285.817H437.941V287.99H440.02V285.817Z" fill="#B3D1DD"/>
</g>
<g opacity="0.5">
<path opacity="0.5" d="M419.891 292.714H417.812V294.887H419.891V292.714Z" fill="#B3D1DD"/>
<path opacity="0.5" d="M424.899 292.714H422.82V294.887H424.899V292.714Z" fill="#B3D1DD"/>
<path opacity="0.5" d="M430.001 292.714H427.922V294.887H430.001V292.714Z" fill="#B3D1DD"/>
<path opacity="0.5" d="M435.009 292.714H432.93V294.887H435.009V292.714Z" fill="#B3D1DD"/>
<path opacity="0.5" d="M440.02 292.714H437.941V294.887H440.02V292.714Z" fill="#B3D1DD"/>
</g>
<g opacity="0.5">
<path opacity="0.5" d="M419.891 299.517H417.812V301.689H419.891V299.517Z" fill="#B3D1DD"/>
<path opacity="0.5" d="M424.899 299.517H422.82V301.689H424.899V299.517Z" fill="#B3D1DD"/>
<path opacity="0.5" d="M430.001 299.517H427.922V301.689H430.001V299.517Z" fill="#B3D1DD"/>
<path opacity="0.5" d="M435.009 299.517H432.93V301.689H435.009V299.517Z" fill="#B3D1DD"/>
<path opacity="0.5" d="M440.02 299.517H437.941V301.689H440.02V299.517Z" fill="#B3D1DD"/>
</g>
<g opacity="0.5">
<path opacity="0.5" d="M419.891 306.413H417.812V308.586H419.891V306.413Z" fill="#B3D1DD"/>
<path opacity="0.5" d="M424.899 306.413H422.82V308.586H424.899V306.413Z" fill="#B3D1DD"/>
<path opacity="0.5" d="M430.001 306.413H427.922V308.586H430.001V306.413Z" fill="#B3D1DD"/>
<path opacity="0.5" d="M435.009 306.413H432.93V308.586H435.009V306.413Z" fill="#B3D1DD"/>
<path opacity="0.5" d="M440.02 306.413H437.941V308.586H440.02V306.413Z" fill="#B3D1DD"/>
</g>
<path opacity="0.5" d="M382.941 222.715H367.16V224.793H382.941V222.715Z" fill="#B3D1DD"/>
<path opacity="0.5" d="M382.941 226.683H367.16V228.761H382.941V226.683Z" fill="#B3D1DD"/>
<path opacity="0.5" d="M382.941 230.745H367.16V232.823H382.941V230.745Z" fill="#B3D1DD"/>
<path opacity="0.5" d="M382.941 234.712H367.16V236.79H382.941V234.712Z" fill="#B3D1DD"/>
<path opacity="0.5" d="M382.941 238.773H367.16V240.852H382.941V238.773Z" fill="#B3D1DD"/>
<path opacity="0.5" d="M382.941 242.742H367.16V244.82H382.941V242.742Z" fill="#B3D1DD"/>
<path opacity="0.5" d="M382.941 246.804H367.16V248.882H382.941V246.804Z" fill="#B3D1DD"/>
<path opacity="0.5" d="M382.941 250.771H367.16V252.85H382.941V250.771Z" fill="#B3D1DD"/>
<path opacity="0.5" d="M382.941 254.833H367.16V256.911H382.941V254.833Z" fill="#B3D1DD"/>
<path opacity="0.5" d="M382.941 258.802H367.16V260.88H382.941V258.802Z" fill="#B3D1DD"/>
<g opacity="0.5">
<path opacity="0.5" d="M382.937 268.813H367.156V270.892H382.937V268.813Z" fill="#B3D1DD"/>
<path opacity="0.5" d="M382.937 272.876H367.156V274.954H382.937V272.876Z" fill="#B3D1DD"/>
<path opacity="0.5" d="M382.937 276.843H367.156V278.921H382.937V276.843Z" fill="#B3D1DD"/>
<path opacity="0.5" d="M382.937 280.904H367.156V282.983H382.937V280.904Z" fill="#B3D1DD"/>
<path opacity="0.5" d="M382.937 284.872H367.156V286.95H382.937V284.872Z" fill="#B3D1DD"/>
<path opacity="0.5" d="M382.937 288.934H367.156V291.012H382.937V288.934Z" fill="#B3D1DD"/>
<path opacity="0.5" d="M382.937 292.903H367.156V294.982H382.937V292.903Z" fill="#B3D1DD"/>
<path opacity="0.5" d="M382.937 296.964H367.156V299.042H382.937V296.964Z" fill="#B3D1DD"/>
<path opacity="0.5" d="M382.937 300.933H367.156V303.011H382.937V300.933Z" fill="#B3D1DD"/>
<path opacity="0.5" d="M382.937 304.899H367.156V306.978H382.937V304.899Z" fill="#B3D1DD"/>
</g>
<path opacity="0.5" d="M438.978 253.134H425.938V256.157H438.978V253.134Z" fill="#95B3C1"/>
</g>
<g opacity="0.5">
<path opacity="0.5" d="M489.34 199.004H441.43V318.505H489.34V199.004Z" fill="#95B3C1"/>
<path opacity="0.5" d="M520.615 236.979H489.336V318.599H520.615V236.979Z" fill="#95B3C1"/>
<path opacity="0.5" d="M531.767 214.307C525.625 214.307 520.711 219.597 520.711 226.115V318.598H543.674V214.307H531.767Z" fill="#95B3C1"/>
<g opacity="0.5">
<path opacity="0.5" d="M538.955 236.412H534.797V240.758H538.955V236.412Z" fill="#B3D1DD"/>
<path opacity="0.5" d="M538.955 242.837H534.797V247.182H538.955V242.837Z" fill="#B3D1DD"/>
<path opacity="0.5" d="M538.955 249.165H534.797V253.511H538.955V249.165Z" fill="#B3D1DD"/>
<path opacity="0.5" d="M538.955 255.59H534.797V259.935H538.955V255.59Z" fill="#B3D1DD"/>
<path opacity="0.5" d="M538.955 261.919H534.797V266.264H538.955V261.919Z" fill="#B3D1DD"/>
<path opacity="0.5" d="M538.955 268.342H534.797V272.687H538.955V268.342Z" fill="#B3D1DD"/>
<path opacity="0.5" d="M538.955 274.672H534.797V279.017H538.955V274.672Z" fill="#B3D1DD"/>
</g>
<g opacity="0.5">
<path opacity="0.5" d="M529.787 245.104H525.629V249.449H529.787V245.104Z" fill="#B3D1DD"/>
<path opacity="0.5" d="M529.787 251.527H525.629V255.873H529.787V251.527Z" fill="#B3D1DD"/>
<path opacity="0.5" d="M529.787 257.855H525.629V262.201H529.787V257.855Z" fill="#B3D1DD"/>
<path opacity="0.5" d="M529.787 264.28H525.629V268.626H529.787V264.28Z" fill="#B3D1DD"/>
<path opacity="0.5" d="M529.787 270.609H525.629V274.955H529.787V270.609Z" fill="#B3D1DD"/>
<path opacity="0.5" d="M529.787 277.032H525.629V281.378H529.787V277.032Z" fill="#B3D1DD"/>
<path opacity="0.5" d="M529.787 283.362H525.629V287.708H529.787V283.362Z" fill="#B3D1DD"/>
</g>
<path opacity="0.5" d="M481.5 214.307H450.41V218.747H481.5V214.307Z" fill="#B3D1DD"/>
<path opacity="0.5" d="M481.5 224.037H450.41V228.477H481.5V224.037Z" fill="#B3D1DD"/>
<path opacity="0.5" d="M481.5 233.862H450.41V238.302H481.5V233.862Z" fill="#B3D1DD"/>
<path opacity="0.5" d="M481.5 243.593H450.41V248.033H481.5V243.593Z" fill="#B3D1DD"/>
<path opacity="0.5" d="M481.5 253.322H450.41V257.762H481.5V253.322Z" fill="#B3D1DD"/>
<path opacity="0.5" d="M481.5 263.146H450.41V267.586H481.5V263.146Z" fill="#B3D1DD"/>
<path opacity="0.5" d="M481.5 272.877H450.41V277.317H481.5V272.877Z" fill="#B3D1DD"/>
<path opacity="0.5" d="M481.5 282.608H450.41V287.048H481.5V282.608Z" fill="#B3D1DD"/>
<g opacity="0.5">
<path opacity="0.5" d="M495.954 246.239H493.875V248.412H495.954V246.239Z" fill="#B3D1DD"/>
<path opacity="0.5" d="M501.055 246.238H498.977V248.411H501.055V246.238Z" fill="#B3D1DD"/>
<path opacity="0.5" d="M506.063 246.238H503.984V248.411H506.063V246.238Z" fill="#B3D1DD"/>
<path opacity="0.5" d="M511.071 246.238H508.992V248.411H511.071V246.238Z" fill="#B3D1DD"/>
<path opacity="0.5" d="M516.087 246.238H514.008V248.411H516.087V246.238Z" fill="#B3D1DD"/>
</g>
<g opacity="0.5">
<path opacity="0.5" d="M495.954 255.118H493.875V257.291H495.954V255.118Z" fill="#B3D1DD"/>
<path opacity="0.5" d="M501.055 255.118H498.977V257.291H501.055V255.118Z" fill="#B3D1DD"/>
<path opacity="0.5" d="M506.063 255.118H503.984V257.291H506.063V255.118Z" fill="#B3D1DD"/>
<path opacity="0.5" d="M511.071 255.118H508.992V257.291H511.071V255.118Z" fill="#B3D1DD"/>
<path opacity="0.5" d="M516.087 255.118H514.008V257.291H516.087V255.118Z" fill="#B3D1DD"/>
</g>
<g opacity="0.5">
<path opacity="0.5" d="M495.954 263.997H493.875V266.17H495.954V263.997Z" fill="#B3D1DD"/>
<path opacity="0.5" d="M501.055 263.997H498.977V266.17H501.055V263.997Z" fill="#B3D1DD"/>
<path opacity="0.5" d="M506.063 263.997H503.984V266.17H506.063V263.997Z" fill="#B3D1DD"/>
<path opacity="0.5" d="M511.071 263.997H508.992V266.17H511.071V263.997Z" fill="#B3D1DD"/>
<path opacity="0.5" d="M516.087 263.997H514.008V266.17H516.087V263.997Z" fill="#B3D1DD"/>
</g>
<g opacity="0.5">
<path opacity="0.5" d="M495.954 272.877H493.875V275.05H495.954V272.877Z" fill="#B3D1DD"/>
<path opacity="0.5" d="M501.055 272.877H498.977V275.05H501.055V272.877Z" fill="#B3D1DD"/>
<path opacity="0.5" d="M506.063 272.877H503.984V275.05H506.063V272.877Z" fill="#B3D1DD"/>
<path opacity="0.5" d="M511.071 272.877H508.992V275.05H511.071V272.877Z" fill="#B3D1DD"/>
<path opacity="0.5" d="M516.087 272.877H514.008V275.05H516.087V272.877Z" fill="#B3D1DD"/>
</g>
<g opacity="0.5">
<path opacity="0.5" d="M495.954 281.757H493.875V283.93H495.954V281.757Z" fill="#B3D1DD"/>
<path opacity="0.5" d="M501.055 281.756H498.977V283.929H501.055V281.756Z" fill="#B3D1DD"/>
<path opacity="0.5" d="M506.063 281.756H503.984V283.929H506.063V281.756Z" fill="#B3D1DD"/>
<path opacity="0.5" d="M511.071 281.756H508.992V283.929H511.071V281.756Z" fill="#B3D1DD"/>
<path opacity="0.5" d="M516.087 281.756H514.008V283.929H516.087V281.756Z" fill="#B3D1DD"/>
</g>
<g opacity="0.5">
<path opacity="0.5" d="M495.954 290.639H493.875V292.811H495.954V290.639Z" fill="#B3D1DD"/>
<path opacity="0.5" d="M501.055 290.638H498.977V292.81H501.055V290.638Z" fill="#B3D1DD"/>
<path opacity="0.5" d="M506.063 290.638H503.984V292.81H506.063V290.638Z" fill="#B3D1DD"/>
<path opacity="0.5" d="M511.071 290.638H508.992V292.81H511.071V290.638Z" fill="#B3D1DD"/>
<path opacity="0.5" d="M516.087 290.638H514.008V292.81H516.087V290.638Z" fill="#B3D1DD"/>
</g>
<g opacity="0.5">
<path opacity="0.5" d="M495.954 299.517H493.875V301.689H495.954V299.517Z" fill="#B3D1DD"/>
<path opacity="0.5" d="M501.055 299.517H498.977V301.689H501.055V299.517Z" fill="#B3D1DD"/>
<path opacity="0.5" d="M506.063 299.517H503.984V301.689H506.063V299.517Z" fill="#B3D1DD"/>
<path opacity="0.5" d="M511.071 299.517H508.992V301.689H511.071V299.517Z" fill="#B3D1DD"/>
<path opacity="0.5" d="M516.087 299.517H514.008V301.689H516.087V299.517Z" fill="#B3D1DD"/>
</g>
<path opacity="0.5" d="M512.3 217.331H495.668V236.98H512.3V217.331Z" fill="#95B3C1"/>
<path opacity="0.5" d="M512.304 211.19H505.027V217.331H512.304V211.19Z" fill="#95B3C1"/>
<path opacity="0.5" d="M483.005 192.958H447.285V199.004H483.005V192.958Z" fill="#95B3C1"/>
</g>
</g>
<g opacity="0.5">
<path opacity="0.7" d="M442.937 318.599H411.375L477.523 88.1934H509.086L442.937 318.599Z" fill="white"/>
<path opacity="0.7" d="M376.41 318.599L442.559 88.1934H464.671L398.523 318.599" fill="white"/>
<path opacity="0.7" d="M449.18 318.599L515.328 88.1934H527.991L461.842 318.599" fill="white"/>
</g>
</g>
<g opacity="0.5">
<path opacity="0.5" d="M769.148 80.7295H573.254V326.155H769.148V80.7295Z" fill="#052638"/>
<path opacity="0.5" d="M761.018 88.2861H581.473V318.597H761.018V88.2861Z" fill="#116A94"/>
<g opacity="0.5">
<g opacity="0.5">
<path opacity="0.5" d="M734.087 228.947H697.422V318.88H734.087V228.947Z" fill="#95B3C1"/>
<path opacity="0.5" d="M728.794 211.66H702.523V228.948H728.794V211.66Z" fill="#95B3C1"/>
<path opacity="0.5" d="M697.42 203.347H670.488V318.88H697.42V203.347Z" fill="#95B3C1"/>
<path opacity="0.5" d="M761.018 250.391H734.086V318.879H761.018V250.391Z" fill="#95B3C1"/>
<g opacity="0.5">
<path opacity="0.5" d="M710.65 235.844H704.98V241.512H710.65V235.844Z" fill="#B3D1DD"/>
<path opacity="0.5" d="M710.65 244.156H704.98V249.824H710.65V244.156Z" fill="#B3D1DD"/>
<path opacity="0.5" d="M710.65 252.47H704.98V258.138H710.65V252.47Z" fill="#B3D1DD"/>
<path opacity="0.5" d="M710.65 260.783H704.98V266.451H710.65V260.783Z" fill="#B3D1DD"/>
<path opacity="0.5" d="M710.65 269.096H704.98V274.764H710.65V269.096Z" fill="#B3D1DD"/>
<path opacity="0.5" d="M710.65 277.408H704.98V283.076H710.65V277.408Z" fill="#B3D1DD"/>
<path opacity="0.5" d="M710.65 285.722H704.98V291.39H710.65V285.722Z" fill="#B3D1DD"/>
</g>
<g opacity="0.5">
<path opacity="0.5" d="M721.045 235.845H715.375V241.513H721.045V235.845Z" fill="#B3D1DD"/>
<path opacity="0.5" d="M721.045 244.157H715.375V249.825H721.045V244.157Z" fill="#B3D1DD"/>
<path opacity="0.5" d="M721.045 252.47H715.375V258.138H721.045V252.47Z" fill="#B3D1DD"/>
<path opacity="0.5" d="M721.045 260.784H715.375V266.452H721.045V260.784Z" fill="#B3D1DD"/>
<path opacity="0.5" d="M721.045 269.098H715.375V274.766H721.045V269.098Z" fill="#B3D1DD"/>
<path opacity="0.5" d="M721.045 277.409H715.375V283.077H721.045V277.409Z" fill="#B3D1DD"/>
<path opacity="0.5" d="M721.045 285.722H715.375V291.39H721.045V285.722Z" fill="#B3D1DD"/>
</g>
<g opacity="0.5">
<path opacity="0.5" d="M735.785 260.405H733.328V262.861H735.785V260.405Z" fill="#B3D1DD"/>
<path opacity="0.5" d="M741.64 260.405H739.184V262.861H741.64V260.405Z" fill="#B3D1DD"/>
<path opacity="0.5" d="M747.598 260.405H745.141V262.861H747.598V260.405Z" fill="#B3D1DD"/>
<path opacity="0.5" d="M753.457 260.405H751V262.861H753.457V260.405Z" fill="#B3D1DD"/>
<path opacity="0.5" d="M759.316 260.405H756.859V262.861H759.316V260.405Z" fill="#B3D1DD"/>
</g>
<g opacity="0.5">
<path opacity="0.5" d="M707.906 219.123H705.449V221.579H707.906V219.123Z" fill="#B3D1DD"/>
<path opacity="0.5" d="M713.863 219.123H711.406V221.579H713.863V219.123Z" fill="#B3D1DD"/>
<path opacity="0.5" d="M719.719 219.123H717.262V221.579H719.719V219.123Z" fill="#B3D1DD"/>
<path opacity="0.5" d="M725.582 219.123H723.125V221.579H725.582V219.123Z" fill="#B3D1DD"/>
</g>
<g opacity="0.5">
<path opacity="0.5" d="M735.785 267.868H733.328V270.324H735.785V267.868Z" fill="#B3D1DD"/>
<path opacity="0.5" d="M741.64 267.868H739.184V270.324H741.64V267.868Z" fill="#B3D1DD"/>
<path opacity="0.5" d="M747.598 267.868H745.141V270.324H747.598V267.868Z" fill="#B3D1DD"/>
<path opacity="0.5" d="M753.457 267.868H751V270.324H753.457V267.868Z" fill="#B3D1DD"/>
<path opacity="0.5" d="M759.316 267.868H756.859V270.324H759.316V267.868Z" fill="#B3D1DD"/>
</g>
<g opacity="0.5">
<path opacity="0.5" d="M735.785 275.426H733.328V277.882H735.785V275.426Z" fill="#B3D1DD"/>
<path opacity="0.5" d="M741.64 275.426H739.184V277.882H741.64V275.426Z" fill="#B3D1DD"/>
<path opacity="0.5" d="M747.598 275.426H745.141V277.882H747.598V275.426Z" fill="#B3D1DD"/>
<path opacity="0.5" d="M753.457 275.426H751V277.882H753.457V275.426Z" fill="#B3D1DD"/>
<path opacity="0.5" d="M759.316 275.426H756.859V277.882H759.316V275.426Z" fill="#B3D1DD"/>
</g>
<g opacity="0.5">
<path opacity="0.5" d="M735.785 282.982H733.328V285.439H735.785V282.982Z" fill="#B3D1DD"/>
<path opacity="0.5" d="M741.64 282.982H739.184V285.439H741.64V282.982Z" fill="#B3D1DD"/>
<path opacity="0.5" d="M747.598 282.982H745.141V285.439H747.598V282.982Z" fill="#B3D1DD"/>
<path opacity="0.5" d="M753.457 282.982H751V285.439H753.457V282.982Z" fill="#B3D1DD"/>
<path opacity="0.5" d="M759.316 282.982H756.859V285.439H759.316V282.982Z" fill="#B3D1DD"/>
</g>
<g opacity="0.5">
<path opacity="0.5" d="M735.785 290.444H733.328V292.9H735.785V290.444Z" fill="#B3D1DD"/>
<path opacity="0.5" d="M741.64 290.444H739.184V292.9H741.64V290.444Z" fill="#B3D1DD"/>
<path opacity="0.5" d="M747.598 290.444H745.141V292.9H747.598V290.444Z" fill="#B3D1DD"/>
<path opacity="0.5" d="M753.457 290.444H751V292.9H753.457V290.444Z" fill="#B3D1DD"/>
<path opacity="0.5" d="M759.316 290.444H756.859V292.9H759.316V290.444Z" fill="#B3D1DD"/>
</g>
<g opacity="0.5">
<path opacity="0.5" d="M735.785 298.003H733.328V300.459H735.785V298.003Z" fill="#B3D1DD"/>
<path opacity="0.5" d="M741.64 298.003H739.184V300.459H741.64V298.003Z" fill="#B3D1DD"/>
<path opacity="0.5" d="M747.598 298.003H745.141V300.459H747.598V298.003Z" fill="#B3D1DD"/>
<path opacity="0.5" d="M753.457 298.003H751V300.459H753.457V298.003Z" fill="#B3D1DD"/>
<path opacity="0.5" d="M759.316 298.003H756.859V300.459H759.316V298.003Z" fill="#B3D1DD"/>
</g>
<g opacity="0.5">
<path opacity="0.5" d="M735.785 305.561H733.328V308.017H735.785V305.561Z" fill="#B3D1DD"/>
<path opacity="0.5" d="M741.64 305.561H739.184V308.017H741.64V305.561Z" fill="#B3D1DD"/>
<path opacity="0.5" d="M747.598 305.561H745.141V308.017H747.598V305.561Z" fill="#B3D1DD"/>
<path opacity="0.5" d="M753.457 305.561H751V308.017H753.457V305.561Z" fill="#B3D1DD"/>
<path opacity="0.5" d="M759.316 305.561H756.859V308.017H759.316V305.561Z" fill="#B3D1DD"/>
</g>
<path opacity="0.5" d="M692.505 213.55H674.078V215.911H692.505V213.55Z" fill="#B3D1DD"/>
<path opacity="0.5" d="M692.505 217.989H674.078V220.351H692.505V217.989Z" fill="#B3D1DD"/>
<path opacity="0.5" d="M692.505 222.334H674.078V224.696H692.505V222.334Z" fill="#B3D1DD"/>
<path opacity="0.5" d="M692.505 226.774H674.078V229.136H692.505V226.774Z" fill="#B3D1DD"/>
<path opacity="0.5" d="M692.505 231.215H674.078V233.577H692.505V231.215Z" fill="#B3D1DD"/>
<path opacity="0.5" d="M692.505 235.561H674.078V237.922H692.505V235.561Z" fill="#B3D1DD"/>
<path opacity="0.5" d="M692.505 240H674.078V242.362H692.505V240Z" fill="#B3D1DD"/>
<path opacity="0.5" d="M692.505 244.44H674.078V246.802H692.505V244.44Z" fill="#B3D1DD"/>
<path opacity="0.5" d="M692.505 248.785H674.078V251.147H692.505V248.785Z" fill="#B3D1DD"/>
<path opacity="0.5" d="M692.505 253.226H674.078V255.587H692.505V253.226Z" fill="#B3D1DD"/>
<g opacity="0.5">
<path opacity="0.5" d="M692.505 264.279H674.078V266.641H692.505V264.279Z" fill="#B3D1DD"/>
<path opacity="0.5" d="M692.505 268.72H674.078V271.081H692.505V268.72Z" fill="#B3D1DD"/>
<path opacity="0.5" d="M692.505 273.065H674.078V275.427H692.505V273.065Z" fill="#B3D1DD"/>
<path opacity="0.5" d="M692.505 277.505H674.078V279.867H692.505V277.505Z" fill="#B3D1DD"/>
<path opacity="0.5" d="M692.505 281.85H674.078V284.211H692.505V281.85Z" fill="#B3D1DD"/>
<path opacity="0.5" d="M692.505 286.29H674.078V288.652H692.505V286.29Z" fill="#B3D1DD"/>
<path opacity="0.5" d="M692.505 290.729H674.078V293.091H692.505V290.729Z" fill="#B3D1DD"/>
<path opacity="0.5" d="M692.505 295.075H674.078V297.437H692.505V295.075Z" fill="#B3D1DD"/>
<path opacity="0.5" d="M692.505 299.516H674.078V301.877H692.505V299.516Z" fill="#B3D1DD"/>
<path opacity="0.5" d="M692.505 303.956H674.078V306.318H692.505V303.956Z" fill="#B3D1DD"/>
</g>
<path opacity="0.5" d="M758.089 246.991H742.875V250.392H758.089V246.991Z" fill="#95B3C1"/>
</g>
<g opacity="0.5">
<path opacity="0.5" d="M640.342 203.347H613.41V318.88H640.342V203.347Z" fill="#95B3C1"/>
<path opacity="0.5" d="M633.635 193.238C629.95 193.238 626.926 196.261 626.926 199.945V203.346H640.344V199.945C640.344 196.167 637.321 193.238 633.635 193.238Z" fill="#95B3C1"/>
<path opacity="0.5" d="M636.277 217.517H617.566V219.973H636.277V217.517Z" fill="#B3D1DD"/>
<path opacity="0.5" d="M636.277 224.129H617.566V226.585H636.277V224.129Z" fill="#B3D1DD"/>
<path opacity="0.5" d="M636.277 230.836H617.566V233.292H636.277V230.836Z" fill="#B3D1DD"/>
<path opacity="0.5" d="M636.277 237.448H617.566V239.904H636.277V237.448Z" fill="#B3D1DD"/>
<path opacity="0.5" d="M636.277 244.156H617.566V246.612H636.277V244.156Z" fill="#B3D1DD"/>
<path opacity="0.5" d="M636.277 250.77H617.566V253.226H636.277V250.77Z" fill="#B3D1DD"/>
<path opacity="0.5" d="M636.277 257.476H617.566V259.932H636.277V257.476Z" fill="#B3D1DD"/>
<path opacity="0.5" d="M636.277 264.182H617.566V266.638H636.277V264.182Z" fill="#B3D1DD"/>
<path opacity="0.5" d="M636.277 270.796H617.566V273.252H636.277V270.796Z" fill="#B3D1DD"/>
<path opacity="0.5" d="M636.277 277.502H617.566V279.958H636.277V277.502Z" fill="#B3D1DD"/>
<path opacity="0.5" d="M636.277 284.116H617.566V286.572H636.277V284.116Z" fill="#B3D1DD"/>
<path opacity="0.5" d="M636.277 290.823H617.566V293.279H636.277V290.823Z" fill="#B3D1DD"/>
<path opacity="0.5" d="M613.409 230.836H581.469V318.879H613.409V230.836Z" fill="#95B3C1"/>
<path opacity="0.5" d="M670.488 219.972H640.344V318.973H670.488V219.972Z" fill="#95B3C1"/>
<path opacity="0.5" d="M667.369 210.809H652.816V219.877H667.369V210.809Z" fill="#95B3C1"/>
<g opacity="0.5">
<path opacity="0.5" d="M588.269 241.038H586.379V242.927H588.269V241.038Z" fill="#B3D1DD"/>
<path opacity="0.5" d="M592.898 241.038H591.008V242.927H592.898V241.038Z" fill="#B3D1DD"/>
<path opacity="0.5" d="M597.527 241.038H595.637V242.927H597.527V241.038Z" fill="#B3D1DD"/>
<path opacity="0.5" d="M602.163 241.038H600.273V242.927H602.163V241.038Z" fill="#B3D1DD"/>
<path opacity="0.5" d="M606.886 241.038H604.996V242.927H606.886V241.038Z" fill="#B3D1DD"/>
</g>
<g opacity="0.5">
<path opacity="0.5" d="M588.269 246.707H586.379V248.596H588.269V246.707Z" fill="#B3D1DD"/>
<path opacity="0.5" d="M592.898 246.707H591.008V248.596H592.898V246.707Z" fill="#B3D1DD"/>
<path opacity="0.5" d="M597.527 246.707H595.637V248.596H597.527V246.707Z" fill="#B3D1DD"/>
<path opacity="0.5" d="M602.163 246.707H600.273V248.596H602.163V246.707Z" fill="#B3D1DD"/>
<path opacity="0.5" d="M606.886 246.707H604.996V248.596H606.886V246.707Z" fill="#B3D1DD"/>
</g>
<g opacity="0.5">
<path opacity="0.5" d="M588.269 252.469H586.379V254.358H588.269V252.469Z" fill="#B3D1DD"/>
<path opacity="0.5" d="M592.898 252.469H591.008V254.358H592.898V252.469Z" fill="#B3D1DD"/>
<path opacity="0.5" d="M597.527 252.469H595.637V254.358H597.527V252.469Z" fill="#B3D1DD"/>
<path opacity="0.5" d="M602.163 252.469H600.273V254.358H602.163V252.469Z" fill="#B3D1DD"/>
<path opacity="0.5" d="M606.886 252.469H604.996V254.358H606.886V252.469Z" fill="#B3D1DD"/>
</g>
<g opacity="0.5">
<path opacity="0.5" d="M588.269 258.137H586.379V260.026H588.269V258.137Z" fill="#B3D1DD"/>
<path opacity="0.5" d="M592.898 258.137H591.008V260.026H592.898V258.137Z" fill="#B3D1DD"/>
<path opacity="0.5" d="M597.527 258.137H595.637V260.026H597.527V258.137Z" fill="#B3D1DD"/>
<path opacity="0.5" d="M602.163 258.137H600.273V260.026H602.163V258.137Z" fill="#B3D1DD"/>
<path opacity="0.5" d="M606.886 258.137H604.996V260.026H606.886V258.137Z" fill="#B3D1DD"/>
</g>
<g opacity="0.5">
<path opacity="0.5" d="M588.269 263.899H586.379V265.789H588.269V263.899Z" fill="#B3D1DD"/>
<path opacity="0.5" d="M592.898 263.899H591.008V265.789H592.898V263.899Z" fill="#B3D1DD"/>
<path opacity="0.5" d="M597.527 263.899H595.637V265.789H597.527V263.899Z" fill="#B3D1DD"/>
<path opacity="0.5" d="M602.163 263.899H600.273V265.789H602.163V263.899Z" fill="#B3D1DD"/>
<path opacity="0.5" d="M606.886 263.899H604.996V265.789H606.886V263.899Z" fill="#B3D1DD"/>
</g>
<g opacity="0.5">
<path opacity="0.5" d="M588.269 269.568H586.379V271.458H588.269V269.568Z" fill="#B3D1DD"/>
<path opacity="0.5" d="M592.898 269.568H591.008V271.458H592.898V269.568Z" fill="#B3D1DD"/>
<path opacity="0.5" d="M597.527 269.568H595.637V271.458H597.527V269.568Z" fill="#B3D1DD"/>
<path opacity="0.5" d="M602.163 269.568H600.273V271.458H602.163V269.568Z" fill="#B3D1DD"/>
<path opacity="0.5" d="M606.886 269.568H604.996V271.458H606.886V269.568Z" fill="#B3D1DD"/>
</g>
<g opacity="0.5">
<path opacity="0.5" d="M588.269 275.331H586.379V277.22H588.269V275.331Z" fill="#B3D1DD"/>
<path opacity="0.5" d="M592.898 275.331H591.008V277.22H592.898V275.331Z" fill="#B3D1DD"/>
<path opacity="0.5" d="M597.527 275.331H595.637V277.22H597.527V275.331Z" fill="#B3D1DD"/>
<path opacity="0.5" d="M602.163 275.331H600.273V277.22H602.163V275.331Z" fill="#B3D1DD"/>
<path opacity="0.5" d="M606.886 275.331H604.996V277.22H606.886V275.331Z" fill="#B3D1DD"/>
</g>
<g opacity="0.5">
<path opacity="0.5" d="M588.269 280.999H586.379V282.888H588.269V280.999Z" fill="#B3D1DD"/>
<path opacity="0.5" d="M592.898 280.999H591.008V282.888H592.898V280.999Z" fill="#B3D1DD"/>
<path opacity="0.5" d="M597.527 280.999H595.637V282.888H597.527V280.999Z" fill="#B3D1DD"/>
<path opacity="0.5" d="M602.163 280.999H600.273V282.888H602.163V280.999Z" fill="#B3D1DD"/>
<path opacity="0.5" d="M606.886 280.999H604.996V282.888H606.886V280.999Z" fill="#B3D1DD"/>
</g>
<g opacity="0.5">
<path opacity="0.5" d="M588.269 286.666H586.379V288.555H588.269V286.666Z" fill="#B3D1DD"/>
<path opacity="0.5" d="M592.898 286.666H591.008V288.555H592.898V286.666Z" fill="#B3D1DD"/>
<path opacity="0.5" d="M597.527 286.666H595.637V288.555H597.527V286.666Z" fill="#B3D1DD"/>
<path opacity="0.5" d="M602.163 286.666H600.273V288.555H602.163V286.666Z" fill="#B3D1DD"/>
<path opacity="0.5" d="M606.886 286.666H604.996V288.555H606.886V286.666Z" fill="#B3D1DD"/>
</g>
<g opacity="0.5">
<path opacity="0.5" d="M588.269 292.429H586.379V294.318H588.269V292.429Z" fill="#B3D1DD"/>
<path opacity="0.5" d="M592.898 292.429H591.008V294.318H592.898V292.429Z" fill="#B3D1DD"/>
<path opacity="0.5" d="M597.527 292.429H595.637V294.318H597.527V292.429Z" fill="#B3D1DD"/>
<path opacity="0.5" d="M602.163 292.429H600.273V294.318H602.163V292.429Z" fill="#B3D1DD"/>
<path opacity="0.5" d="M606.886 292.429H604.996V294.318H606.886V292.429Z" fill="#B3D1DD"/>
</g>
<g opacity="0.5">
<path opacity="0.5" d="M588.269 298.098H586.379V299.987H588.269V298.098Z" fill="#B3D1DD"/>
<path opacity="0.5" d="M592.898 298.098H591.008V299.987H592.898V298.098Z" fill="#B3D1DD"/>
<path opacity="0.5" d="M597.527 298.098H595.637V299.987H597.527V298.098Z" fill="#B3D1DD"/>
<path opacity="0.5" d="M602.163 298.098H600.273V299.987H602.163V298.098Z" fill="#B3D1DD"/>
<path opacity="0.5" d="M606.886 298.098H604.996V299.987H606.886V298.098Z" fill="#B3D1DD"/>
</g>
<g opacity="0.5">
<path opacity="0.5" d="M650.451 238.017H644.781V243.685H650.451V238.017Z" fill="#B3D1DD"/>
<path opacity="0.5" d="M650.451 246.329H644.781V251.997H650.451V246.329Z" fill="#B3D1DD"/>
<path opacity="0.5" d="M650.451 254.644H644.781V260.312H650.451V254.644Z" fill="#B3D1DD"/>
<path opacity="0.5" d="M650.451 262.957H644.781V268.625H650.451V262.957Z" fill="#B3D1DD"/>
<path opacity="0.5" d="M650.451 271.27H644.781V276.938H650.451V271.27Z" fill="#B3D1DD"/>
<path opacity="0.5" d="M650.451 279.583H644.781V285.251H650.451V279.583Z" fill="#B3D1DD"/>
<path opacity="0.5" d="M650.451 287.896H644.781V293.564H650.451V287.896Z" fill="#B3D1DD"/>
</g>
<g opacity="0.5">
<path opacity="0.5" d="M660.846 238.017H655.176V243.685H660.846V238.017Z" fill="#B3D1DD"/>
<path opacity="0.5" d="M660.846 246.329H655.176V251.997H660.846V246.329Z" fill="#B3D1DD"/>
<path opacity="0.5" d="M660.846 254.644H655.176V260.312H660.846V254.644Z" fill="#B3D1DD"/>
<path opacity="0.5" d="M660.846 262.957H655.176V268.625H660.846V262.957Z" fill="#B3D1DD"/>
<path opacity="0.5" d="M660.846 271.27H655.176V276.938H660.846V271.27Z" fill="#B3D1DD"/>
<path opacity="0.5" d="M660.846 279.583H655.176V285.251H660.846V279.583Z" fill="#B3D1DD"/>
<path opacity="0.5" d="M660.846 287.896H655.176V293.564H660.846V287.896Z" fill="#B3D1DD"/>
</g>
</g>
</g>
<g opacity="0.5">
<path opacity="0.7" d="M660.281 318.598H628.719L694.867 88.1924H726.429L660.281 318.598Z" fill="white"/>
<path opacity="0.7" d="M593.758 318.598L659.906 88.1924H682.019L615.87 318.598" fill="white"/>
<path opacity="0.7" d="M666.516 318.598L732.664 88.1924H745.327L679.178 318.598" fill="white"/>
</g>
</g>
<g opacity="0.5">
<path opacity="0.5" d="M334.46 80.7295H138.566V326.155H334.46V80.7295Z" fill="#13415B"/>
<path opacity="0.5" d="M326.335 88.2861H146.789V318.597H326.335V88.2861Z" fill="#116A94"/>
<g opacity="0.5">
<g opacity="0.5">
<path opacity="0.5" d="M195.073 205.992H146.785V318.975H195.073V205.992Z" fill="#95B3C1"/>
<path opacity="0.5" d="M226.448 241.89H194.98V319.069H226.448V241.89Z" fill="#95B3C1"/>
<path opacity="0.5" d="M237.69 220.446C231.547 220.446 226.539 225.453 226.539 231.593V318.975H249.691V220.446H237.69Z" fill="#95B3C1"/>
<g opacity="0.5">
<path opacity="0.5" d="M244.873 241.323H240.715V245.48H244.873V241.323Z" fill="#B3D1DD"/>
<path opacity="0.5" d="M244.873 247.369H240.715V251.526H244.873V247.369Z" fill="#B3D1DD"/>
<path opacity="0.5" d="M244.873 253.414H240.715V257.571H244.873V253.414Z" fill="#B3D1DD"/>
<path opacity="0.5" d="M244.873 259.461H240.715V263.617H244.873V259.461Z" fill="#B3D1DD"/>
<path opacity="0.5" d="M244.873 265.506H240.715V269.662H244.873V265.506Z" fill="#B3D1DD"/>
<path opacity="0.5" d="M244.873 271.458H240.715V275.615H244.873V271.458Z" fill="#B3D1DD"/>
<path opacity="0.5" d="M244.873 277.503H240.715V281.659H244.873V277.503Z" fill="#B3D1DD"/>
</g>
<g opacity="0.5">
<path opacity="0.5" d="M235.701 249.541H231.543V253.698H235.701V249.541Z" fill="#B3D1DD"/>
<path opacity="0.5" d="M235.701 255.587H231.543V259.743H235.701V255.587Z" fill="#B3D1DD"/>
<path opacity="0.5" d="M235.701 261.632H231.543V265.788H235.701V261.632Z" fill="#B3D1DD"/>
<path opacity="0.5" d="M235.701 267.679H231.543V271.835H235.701V267.679Z" fill="#B3D1DD"/>
<path opacity="0.5" d="M235.701 273.631H231.543V277.787H235.701V273.631Z" fill="#B3D1DD"/>
<path opacity="0.5" d="M235.701 279.677H231.543V283.833H235.701V279.677Z" fill="#B3D1DD"/>
<path opacity="0.5" d="M235.701 285.722H231.543V289.878H235.701V285.722Z" fill="#B3D1DD"/>
</g>
<path opacity="0.5" d="M187.044 220.446H155.766V224.603H187.044V220.446Z" fill="#B3D1DD"/>
<path opacity="0.5" d="M187.044 229.608H155.766V233.765H187.044V229.608Z" fill="#B3D1DD"/>
<path opacity="0.5" d="M187.044 238.867H155.766V243.024H187.044V238.867Z" fill="#B3D1DD"/>
<path opacity="0.5" d="M187.044 248.124H155.766V252.281H187.044V248.124Z" fill="#B3D1DD"/>
<path opacity="0.5" d="M187.044 257.382H155.766V261.538H187.044V257.382Z" fill="#B3D1DD"/>
<path opacity="0.5" d="M187.044 266.545H155.766V270.701H187.044V266.545Z" fill="#B3D1DD"/>
<path opacity="0.5" d="M187.044 275.803H155.766V279.959H187.044V275.803Z" fill="#B3D1DD"/>
<path opacity="0.5" d="M187.044 285.061H155.766V289.217H187.044V285.061Z" fill="#B3D1DD"/>
<g opacity="0.5">
<path opacity="0.5" d="M201.688 250.581H199.609V252.659H201.688V250.581Z" fill="#B3D1DD"/>
<path opacity="0.5" d="M206.696 250.581H204.617V252.659H206.696V250.581Z" fill="#B3D1DD"/>
<path opacity="0.5" d="M211.798 250.581H209.719V252.659H211.798V250.581Z" fill="#B3D1DD"/>
<path opacity="0.5" d="M216.903 250.581H214.824V252.659H216.903V250.581Z" fill="#B3D1DD"/>
<path opacity="0.5" d="M221.911 250.581H219.832V252.659H221.911V250.581Z" fill="#B3D1DD"/>
</g>
<g opacity="0.5">
<path opacity="0.5" d="M201.688 258.988H199.609V261.067H201.688V258.988Z" fill="#B3D1DD"/>
<path opacity="0.5" d="M206.696 258.988H204.617V261.067H206.696V258.988Z" fill="#B3D1DD"/>
<path opacity="0.5" d="M211.798 258.988H209.719V261.067H211.798V258.988Z" fill="#B3D1DD"/>
<path opacity="0.5" d="M216.903 258.988H214.824V261.067H216.903V258.988Z" fill="#B3D1DD"/>
<path opacity="0.5" d="M221.911 258.988H219.832V261.067H221.911V258.988Z" fill="#B3D1DD"/>
</g>
<g opacity="0.5">
<path opacity="0.5" d="M201.688 267.396H199.609V269.474H201.688V267.396Z" fill="#B3D1DD"/>
<path opacity="0.5" d="M206.696 267.396H204.617V269.474H206.696V267.396Z" fill="#B3D1DD"/>
<path opacity="0.5" d="M211.798 267.396H209.719V269.474H211.798V267.396Z" fill="#B3D1DD"/>
<path opacity="0.5" d="M216.903 267.396H214.824V269.474H216.903V267.396Z" fill="#B3D1DD"/>
<path opacity="0.5" d="M221.911 267.396H219.832V269.474H221.911V267.396Z" fill="#B3D1DD"/>
</g>
<g opacity="0.5">
<path opacity="0.5" d="M201.688 275.803H199.609V277.881H201.688V275.803Z" fill="#B3D1DD"/>
<path opacity="0.5" d="M206.696 275.803H204.617V277.881H206.696V275.803Z" fill="#B3D1DD"/>
<path opacity="0.5" d="M211.798 275.803H209.719V277.881H211.798V275.803Z" fill="#B3D1DD"/>
<path opacity="0.5" d="M216.903 275.803H214.824V277.881H216.903V275.803Z" fill="#B3D1DD"/>
<path opacity="0.5" d="M221.911 275.803H219.832V277.881H221.911V275.803Z" fill="#B3D1DD"/>
</g>
<g opacity="0.5">
<path opacity="0.5" d="M201.688 284.21H199.609V286.288H201.688V284.21Z" fill="#B3D1DD"/>
<path opacity="0.5" d="M206.696 284.21H204.617V286.288H206.696V284.21Z" fill="#B3D1DD"/>
<path opacity="0.5" d="M211.798 284.21H209.719V286.288H211.798V284.21Z" fill="#B3D1DD"/>
<path opacity="0.5" d="M216.903 284.21H214.824V286.288H216.903V284.21Z" fill="#B3D1DD"/>
<path opacity="0.5" d="M221.911 284.21H219.832V286.288H221.911V284.21Z" fill="#B3D1DD"/>
</g>
<g opacity="0.5">
<path opacity="0.5" d="M201.688 292.617H199.609V294.695H201.688V292.617Z" fill="#B3D1DD"/>
<path opacity="0.5" d="M206.696 292.617H204.617V294.695H206.696V292.617Z" fill="#B3D1DD"/>
<path opacity="0.5" d="M211.798 292.617H209.719V294.695H211.798V292.617Z" fill="#B3D1DD"/>
<path opacity="0.5" d="M216.903 292.617H214.824V294.695H216.903V292.617Z" fill="#B3D1DD"/>
<path opacity="0.5" d="M221.911 292.617H219.832V294.695H221.911V292.617Z" fill="#B3D1DD"/>
</g>
<g opacity="0.5">
<path opacity="0.5" d="M201.688 301.025H199.609V303.104H201.688V301.025Z" fill="#B3D1DD"/>
<path opacity="0.5" d="M206.696 301.025H204.617V303.104H206.696V301.025Z" fill="#B3D1DD"/>
<path opacity="0.5" d="M211.798 301.025H209.719V303.104H211.798V301.025Z" fill="#B3D1DD"/>
<path opacity="0.5" d="M216.903 301.025H214.824V303.104H216.903V301.025Z" fill="#B3D1DD"/>
<path opacity="0.5" d="M221.911 301.025H219.832V303.104H221.911V301.025Z" fill="#B3D1DD"/>
</g>
<path opacity="0.5" d="M218.039 223.279H201.312V241.889H218.039V223.279Z" fill="#95B3C1"/>
<path opacity="0.5" d="M218.133 217.422H210.762V223.184H218.133V217.422Z" fill="#95B3C1"/>
<path opacity="0.5" d="M188.644 200.229H152.641V205.992H188.644V200.229Z" fill="#95B3C1"/>
</g>
<g opacity="0.5">
<path opacity="0.5" d="M300.343 219.596H277.191V319.07H300.343V219.596Z" fill="#95B3C1"/>
<path opacity="0.5" d="M294.581 210.81C291.368 210.81 288.816 213.36 288.816 216.572V219.501H300.345V216.572C300.345 213.455 297.794 210.81 294.581 210.81Z" fill="#95B3C1"/>
<path opacity="0.5" d="M296.752 231.78H280.688V233.859H296.752V231.78Z" fill="#B3D1DD"/>
<path opacity="0.5" d="M296.752 237.449H280.688V239.528H296.752V237.449Z" fill="#B3D1DD"/>
<path opacity="0.5" d="M296.752 243.212H280.688V245.29H296.752V243.212Z" fill="#B3D1DD"/>
<path opacity="0.5" d="M296.752 248.975H280.688V251.053H296.752V248.975Z" fill="#B3D1DD"/>
<path opacity="0.5" d="M296.752 254.643H280.688V256.721H296.752V254.643Z" fill="#B3D1DD"/>
<path opacity="0.5" d="M296.752 260.404H280.688V262.483H296.752V260.404Z" fill="#B3D1DD"/>
<path opacity="0.5" d="M296.752 266.166H280.688V268.244H296.752V266.166Z" fill="#B3D1DD"/>
<path opacity="0.5" d="M296.752 271.835H280.688V273.913H296.752V271.835Z" fill="#B3D1DD"/>
<path opacity="0.5" d="M296.752 277.599H280.688V279.677H296.752V277.599Z" fill="#B3D1DD"/>
<path opacity="0.5" d="M296.752 283.359H280.688V285.438H296.752V283.359Z" fill="#B3D1DD"/>
<path opacity="0.5" d="M296.752 289.027H280.688V291.106H296.752V289.027Z" fill="#B3D1DD"/>
<path opacity="0.5" d="M296.752 294.791H280.688V296.869H296.752V294.791Z" fill="#B3D1DD"/>
<path opacity="0.5" d="M277.19 243.212H249.691V318.975H277.19V243.212Z" fill="#95B3C1"/>
<path opacity="0.5" d="M326.331 233.859H300.344V319.069H326.331V233.859Z" fill="#95B3C1"/>
<path opacity="0.5" d="M323.591 226.019H311.117V233.859H323.591V226.019Z" fill="#95B3C1"/>
<g opacity="0.5">
<path opacity="0.5" d="M255.454 251.996H253.848V253.602H255.454V251.996Z" fill="#B3D1DD"/>
<path opacity="0.5" d="M259.517 251.996H257.91V253.602H259.517V251.996Z" fill="#B3D1DD"/>
<path opacity="0.5" d="M263.485 251.996H261.879V253.602H263.485V251.996Z" fill="#B3D1DD"/>
<path opacity="0.5" d="M267.552 251.996H265.945V253.602H267.552V251.996Z" fill="#B3D1DD"/>
<path opacity="0.5" d="M271.521 251.996H269.914V253.602H271.521V251.996Z" fill="#B3D1DD"/>
</g>
<g opacity="0.5">
<path opacity="0.5" d="M255.454 256.909H253.848V258.515H255.454V256.909Z" fill="#B3D1DD"/>
<path opacity="0.5" d="M259.517 256.909H257.91V258.515H259.517V256.909Z" fill="#B3D1DD"/>
<path opacity="0.5" d="M263.485 256.909H261.879V258.515H263.485V256.909Z" fill="#B3D1DD"/>
<path opacity="0.5" d="M267.552 256.909H265.945V258.515H267.552V256.909Z" fill="#B3D1DD"/>
<path opacity="0.5" d="M271.521 256.909H269.914V258.515H271.521V256.909Z" fill="#B3D1DD"/>
</g>
<g opacity="0.5">
<path opacity="0.5" d="M255.454 261.821H253.848V263.427H255.454V261.821Z" fill="#B3D1DD"/>
<path opacity="0.5" d="M259.517 261.821H257.91V263.427H259.517V261.821Z" fill="#B3D1DD"/>
<path opacity="0.5" d="M263.485 261.821H261.879V263.427H263.485V261.821Z" fill="#B3D1DD"/>
<path opacity="0.5" d="M267.552 261.821H265.945V263.427H267.552V261.821Z" fill="#B3D1DD"/>
<path opacity="0.5" d="M271.521 261.821H269.914V263.427H271.521V261.821Z" fill="#B3D1DD"/>
</g>
<g opacity="0.5">
<path opacity="0.5" d="M255.454 266.734H253.848V268.34H255.454V266.734Z" fill="#B3D1DD"/>
<path opacity="0.5" d="M259.517 266.734H257.91V268.34H259.517V266.734Z" fill="#B3D1DD"/>
<path opacity="0.5" d="M263.485 266.734H261.879V268.34H263.485V266.734Z" fill="#B3D1DD"/>
<path opacity="0.5" d="M267.552 266.734H265.945V268.34H267.552V266.734Z" fill="#B3D1DD"/>
<path opacity="0.5" d="M271.521 266.734H269.914V268.34H271.521V266.734Z" fill="#B3D1DD"/>
</g>
<g opacity="0.5">
<path opacity="0.5" d="M255.454 271.646H253.848V273.252H255.454V271.646Z" fill="#B3D1DD"/>
<path opacity="0.5" d="M259.517 271.646H257.91V273.252H259.517V271.646Z" fill="#B3D1DD"/>
<path opacity="0.5" d="M263.485 271.646H261.879V273.252H263.485V271.646Z" fill="#B3D1DD"/>
<path opacity="0.5" d="M267.552 271.646H265.945V273.252H267.552V271.646Z" fill="#B3D1DD"/>
<path opacity="0.5" d="M271.521 271.646H269.914V273.252H271.521V271.646Z" fill="#B3D1DD"/>
</g>
<g opacity="0.5">
<path opacity="0.5" d="M255.454 276.558H253.848V278.164H255.454V276.558Z" fill="#B3D1DD"/>
<path opacity="0.5" d="M259.517 276.558H257.91V278.164H259.517V276.558Z" fill="#B3D1DD"/>
<path opacity="0.5" d="M263.485 276.558H261.879V278.164H263.485V276.558Z" fill="#B3D1DD"/>
<path opacity="0.5" d="M267.552 276.558H265.945V278.164H267.552V276.558Z" fill="#B3D1DD"/>
<path opacity="0.5" d="M271.521 276.558H269.914V278.164H271.521V276.558Z" fill="#B3D1DD"/>
</g>
<g opacity="0.5">
<path opacity="0.5" d="M255.454 281.47H253.848V283.076H255.454V281.47Z" fill="#B3D1DD"/>
<path opacity="0.5" d="M259.517 281.47H257.91V283.076H259.517V281.47Z" fill="#B3D1DD"/>
<path opacity="0.5" d="M263.485 281.47H261.879V283.076H263.485V281.47Z" fill="#B3D1DD"/>
<path opacity="0.5" d="M267.552 281.47H265.945V283.076H267.552V281.47Z" fill="#B3D1DD"/>
<path opacity="0.5" d="M271.521 281.47H269.914V283.076H271.521V281.47Z" fill="#B3D1DD"/>
</g>
<g opacity="0.5">
<path opacity="0.5" d="M255.454 286.383H253.848V287.989H255.454V286.383Z" fill="#B3D1DD"/>
<path opacity="0.5" d="M259.517 286.383H257.91V287.989H259.517V286.383Z" fill="#B3D1DD"/>
<path opacity="0.5" d="M263.485 286.383H261.879V287.989H263.485V286.383Z" fill="#B3D1DD"/>
<path opacity="0.5" d="M267.552 286.383H265.945V287.989H267.552V286.383Z" fill="#B3D1DD"/>
<path opacity="0.5" d="M271.521 286.383H269.914V287.989H271.521V286.383Z" fill="#B3D1DD"/>
</g>
<g opacity="0.5">
<path opacity="0.5" d="M255.454 291.295H253.848V292.901H255.454V291.295Z" fill="#B3D1DD"/>
<path opacity="0.5" d="M259.517 291.295H257.91V292.901H259.517V291.295Z" fill="#B3D1DD"/>
<path opacity="0.5" d="M263.485 291.295H261.879V292.901H263.485V291.295Z" fill="#B3D1DD"/>
<path opacity="0.5" d="M267.552 291.295H265.945V292.901H267.552V291.295Z" fill="#B3D1DD"/>
<path opacity="0.5" d="M271.521 291.295H269.914V292.901H271.521V291.295Z" fill="#B3D1DD"/>
</g>
<g opacity="0.5">
<path opacity="0.5" d="M255.454 296.208H253.848V297.814H255.454V296.208Z" fill="#B3D1DD"/>
<path opacity="0.5" d="M259.517 296.208H257.91V297.814H259.517V296.208Z" fill="#B3D1DD"/>
<path opacity="0.5" d="M263.485 296.208H261.879V297.814H263.485V296.208Z" fill="#B3D1DD"/>
<path opacity="0.5" d="M267.552 296.208H265.945V297.814H267.552V296.208Z" fill="#B3D1DD"/>
<path opacity="0.5" d="M271.521 296.208H269.914V297.814H271.521V296.208Z" fill="#B3D1DD"/>
</g>
<g opacity="0.5">
<path opacity="0.5" d="M255.454 301.119H253.848V302.725H255.454V301.119Z" fill="#B3D1DD"/>
<path opacity="0.5" d="M259.517 301.119H257.91V302.725H259.517V301.119Z" fill="#B3D1DD"/>
<path opacity="0.5" d="M263.485 301.119H261.879V302.725H263.485V301.119Z" fill="#B3D1DD"/>
<path opacity="0.5" d="M267.552 301.119H265.945V302.725H267.552V301.119Z" fill="#B3D1DD"/>
<path opacity="0.5" d="M271.521 301.119H269.914V302.725H271.521V301.119Z" fill="#B3D1DD"/>
</g>
<g opacity="0.5">
<path opacity="0.5" d="M309.133 249.447H304.219V254.36H309.133V249.447Z" fill="#B3D1DD"/>
<path opacity="0.5" d="M309.133 256.532H304.219V261.445H309.133V256.532Z" fill="#B3D1DD"/>
<path opacity="0.5" d="M309.133 263.711H304.219V268.623H309.133V263.711Z" fill="#B3D1DD"/>
<path opacity="0.5" d="M309.133 270.797H304.219V275.709H309.133V270.797Z" fill="#B3D1DD"/>
<path opacity="0.5" d="M309.133 277.977H304.219V282.889H309.133V277.977Z" fill="#B3D1DD"/>
<path opacity="0.5" d="M309.133 285.156H304.219V290.069H309.133V285.156Z" fill="#B3D1DD"/>
<path opacity="0.5" d="M309.133 292.24H304.219V297.153H309.133V292.24Z" fill="#B3D1DD"/>
</g>
<g opacity="0.5">
<path opacity="0.5" d="M318.015 249.447H313.102V254.36H318.015V249.447Z" fill="#B3D1DD"/>
<path opacity="0.5" d="M318.015 256.532H313.102V261.445H318.015V256.532Z" fill="#B3D1DD"/>
<path opacity="0.5" d="M318.015 263.712H313.102V268.624H318.015V263.712Z" fill="#B3D1DD"/>
<path opacity="0.5" d="M318.015 270.797H313.102V275.709H318.015V270.797Z" fill="#B3D1DD"/>
<path opacity="0.5" d="M318.015 277.977H313.102V282.889H318.015V277.977Z" fill="#B3D1DD"/>
<path opacity="0.5" d="M318.015 285.154H313.102V290.067H318.015V285.154Z" fill="#B3D1DD"/>
<path opacity="0.5" d="M318.015 292.24H313.102V297.153H318.015V292.24Z" fill="#B3D1DD"/>
</g>
</g>
</g>
<g opacity="0.5">
<path opacity="0.7" d="M225.593 318.975H194.031L260.18 88.1924H291.742L225.593 318.975Z" fill="white"/>
<path opacity="0.7" d="M159.07 318.975L225.219 88.1924H247.331L181.183 318.975" fill="white"/>
<path opacity="0.7" d="M231.832 318.975L297.98 88.1924H310.643L244.495 318.975" fill="white"/>
</g>
</g>
<path d="M203.447 371.218C247.443 371.218 283.108 367.285 283.108 362.433C283.108 357.581 247.443 353.647 203.447 353.647C159.451 353.647 123.785 357.581 123.785 362.433C123.785 367.285 159.451 371.218 203.447 371.218Z" fill="#355E70"/>
<path d="M159.223 362.434H150.246L156.861 325.592H165.838L159.223 362.434Z" fill="#6A8E99"/>
<path d="M247.58 362.434H256.557L249.942 325.592H240.965L247.58 362.434Z" fill="#6A8E99"/>
<path d="M264.584 342.878C261.466 342.878 258.914 340.328 258.914 337.21C258.914 333.148 255.607 329.842 251.543 329.842H155.156C151.092 329.842 147.785 333.148 147.785 337.21C147.785 340.328 145.234 342.878 142.115 342.878C138.997 342.878 136.445 340.328 136.445 337.21C136.445 326.913 144.856 318.506 155.156 318.506H251.543C261.844 318.506 270.254 326.913 270.254 337.21C270.254 340.328 267.703 342.878 264.584 342.878Z" fill="#48646D"/>
<path d="M698.839 65.1743L672.474 39.1959V0.65332H669.923V39.1959L643.652 65.1743H698.839Z" fill="#95B3C1"/>
<path d="M481.491 69.6773L455.126 43.6988V5.15625H452.575V43.6988L426.305 69.6773H481.491Z" fill="#95B3C1"/>
<path d="M264.148 69.6773L237.783 43.6988V5.15625H235.231V43.6988L208.961 69.6773H264.148Z" fill="#95B3C1"/>
<ellipse cx="318.301" cy="444.831" rx="185.551" ry="20.08" fill="#355E70"/>
<path d="M486.167 217.079C486.167 217.079 497.616 213.48 500.822 215.33C504.039 217.203 518.853 214.19 522.08 210.651C523.075 209.542 514.904 210.002 523.142 206.659C527.248 204.993 516.771 202.674 512.313 202.618C509.835 202.599 493.007 208.646 493.638 207.027C484.53 210.4 484.588 206.823 484.588 206.823L486.167 217.079Z" fill="#F7A491"/>
<path fill-rule="evenodd" clip-rule="evenodd" d="M470.533 206.701C467.104 207.154 463.368 207.647 460.682 207.786C458.025 207.554 455.389 207.29 452.79 207.006C448.839 205.741 443.338 204.754 435.722 204.285C426.317 203.348 386.81 199.721 386.81 199.721C369.026 200.899 371.406 208.532 372.739 212.806C372.867 213.218 372.985 213.598 373.075 213.939C375.478 223.034 385.404 230.343 394.259 232.416C397.529 232.135 423.461 229.705 428.599 229.122C432.611 228.667 438.367 227.462 443.983 225.948C452.365 226.097 461.98 225.871 472.343 225.128C485.531 224.182 494.18 224.204 494.18 224.204C493.712 221.963 493.258 219.594 492.814 217.28C491.364 209.725 490.027 202.76 488.731 202.777C485.298 204.091 480.531 205.807 478.174 205.862C476.599 205.9 473.697 206.283 470.533 206.701Z" fill="#E0E3E6"/>
<path d="M413.425 417.356C413.425 417.356 414.961 431.5 414.161 436.118C413.735 438.609 411.094 443.76 412.425 446.024C413.757 448.317 415.226 448.853 415.226 448.853L445.699 448.427C447.492 448.41 447.874 446.267 446.392 445.247C440.661 441.866 442.95 443.642 435.279 440.276C434.777 440.048 432.954 438.977 432.295 438.632C430.63 437.708 428.918 436.211 427.453 434.677C425.001 432.171 424.47 419.695 424.47 419.695L413.425 417.356Z" fill="#F7A491"/>
<path d="M402.948 284.605C402.948 284.605 447.5 359.722 446.943 372.128C446.385 384.534 436.486 422.194 436.486 422.194L397.236 421.482C397.236 421.482 414.22 385.405 413.628 378.894C413.032 372.358 362.47 329.585 362.47 329.585L375.704 318.207L392.881 283.404L402.948 284.605Z" fill="#DBDEE0"/>
<path d="M226.987 411.567C226.987 411.567 217.767 422.441 213.299 422.592C208.805 422.725 199.317 427.988 198.384 433.609C198.109 435.36 198.828 436.966 199.944 438.323C203.291 442.392 209.288 443.215 213.84 440.457C216.362 438.912 219.299 436.547 222.038 432.956C229.036 423.789 235.354 420.957 235.354 420.957L226.987 411.567Z" fill="#F7A491"/>
<path d="M361.58 277.1C361.58 277.1 346.551 282.442 336.341 292.48C326.114 302.543 301.861 337.279 287.077 349.513C279.064 356.151 261.475 365.375 252.819 375.053C244.163 384.731 214.347 410.786 214.347 410.786L237.77 432.756L310.365 372.026L375.533 323.97L403.41 295.467L361.58 277.1Z" fill="white"/>
<path d="M367.701 189.966C367.701 189.966 357.652 191.084 351.653 197.464C338.622 206.599 341.124 258.699 343.693 271.037C349.7 284.409 353.508 290.368 353.508 290.368C353.508 290.368 391.014 297.141 401.187 290.58C401.187 290.58 407.716 265.587 398.398 229.797C397.316 223.992 386.951 196.329 384.756 194.001C382.592 191.703 367.701 189.966 367.701 189.966Z" fill="white"/>
<ellipse cx="654.809" cy="444.832" rx="114.332" ry="20.08" fill="#355E70"/>
<path d="M607.051 174.827C607.051 174.827 599.24 168.569 596.186 169.089C593.117 169.624 582.512 162.834 581.076 159.063C580.639 157.887 586.853 160.676 581.462 155.575C578.774 153.032 587.624 154.297 591.107 155.575C593.039 156.295 604.29 166.094 604.29 164.62C610.349 170.004 611.388 167.142 611.388 167.142L607.051 174.827Z" fill="#F7A491"/>
<path fill-rule="evenodd" clip-rule="evenodd" d="M622.355 171.213C624.884 172.59 627.639 174.09 629.685 174.997C631.821 175.601 633.95 176.173 636.057 176.718C639.513 176.885 644.088 177.732 650.151 179.618C657.748 181.664 689.566 190.5 689.566 190.5C703.036 196.712 698.87 202.074 696.538 205.076C696.313 205.365 696.106 205.633 695.932 205.877C691.306 212.395 681.371 215.26 673.858 214.281C671.4 213.088 651.974 203.463 648.156 201.476C645.174 199.923 641.063 197.258 637.155 194.387C630.594 192.019 623.189 188.988 615.359 185.324C605.392 180.659 598.66 178.112 598.66 178.112C599.703 176.469 600.775 174.72 601.822 173.012C605.241 167.437 608.393 162.296 609.396 162.695C611.666 164.757 614.853 167.536 616.668 168.279C617.881 168.776 620.022 169.942 622.355 171.213Z" fill="#E0E3E6"/>
<path d="M654.755 418.388C654.755 418.388 653.115 430.296 655.533 433.125C657.975 435.959 660.007 444.806 657.004 448.609C656.06 449.785 654.648 450.266 653.17 450.361C648.735 450.646 644.848 447.438 644.02 443.06C643.572 440.624 643.404 437.463 644.117 433.719C645.936 424.155 644.161 418.65 644.161 418.65L654.755 418.388Z" fill="#F7A491"/>
<path d="M510.926 161.311C510.926 161.311 503.991 151.493 500.294 151.078C496.574 150.675 486.592 139.314 486.189 134.485C486.075 132.982 486.778 131.666 487.793 130.587C490.837 127.35 498.323 133.325 501.918 135.957C503.909 137.431 506.19 139.626 508.227 142.847C513.43 151.075 518.486 153.884 518.486 153.884L510.926 161.311Z" fill="#F7A491"/>
<path d="M645.388 255.459C645.388 255.459 645.717 236.79 634.673 229.866C623.63 222.943 519.921 146.764 519.921 146.764L502.558 165.988C502.558 165.988 553.58 212.695 559.007 216.972C564.452 221.267 578.805 231.189 578.805 231.189L626.735 272.865L642.225 263.49L645.388 255.459Z" fill="white"/>
<path d="M663.467 258.518C663.467 258.518 668.563 270.81 668.004 282.845C667.439 294.904 659.278 329.75 659.912 345.854C660.252 354.586 664.352 370.681 663.145 381.555C661.939 392.429 662.351 425.7 662.351 425.7L635.4 423.953L632.697 344.502L620.209 269.933L632.834 240.743L663.467 258.518Z" fill="white"/>
<path d="M711.891 196.618C711.891 196.618 717.187 203.159 716.942 210.529C719.226 223.675 686.664 253.827 677.78 259.814C666.239 264.423 660.424 265.817 660.424 265.817C660.424 265.817 634.127 248.044 632.003 238.129C632.003 238.129 643.036 219.155 669.915 202.876C674.02 199.985 696.671 189.247 699.363 189.116C702.018 188.984 711.891 196.618 711.891 196.618Z" fill="white"/>
<path d="M710.648 176.678C710.648 176.678 710.58 177.04 710.426 177.672C709.775 180.691 707.89 190.778 708.168 193.908C708.513 197.678 697.182 204.475 690.736 200.351C688.821 199.13 696.271 192.072 696.469 191.067C696.849 189.163 697.379 186.568 697.938 183.901C698.23 182.406 698.566 180.873 698.852 179.459C699.687 175.402 700.363 172.06 700.363 172.06L710.648 176.678Z" fill="#F7A491"/>
<path d="M709.266 181.182C709.355 180.532 709.424 180.175 709.424 180.175L698.84 176.217C698.84 176.217 698.388 179.572 697.806 183.698C697.611 185.127 697.407 186.663 697.187 188.165C698.925 188.494 700.929 188.288 703.176 187.378C705.621 186.372 707.542 184.832 709.027 182.977C709.108 182.27 709.188 181.645 709.266 181.182Z" fill="#F47458"/>
<path d="M704.806 151.581C704.806 151.581 709.759 165.222 714.691 166.633C719.622 168.044 719.192 174.777 719.192 174.777C719.192 174.777 719.907 159.175 715.441 155.416C710.948 151.653 704.806 151.581 704.806 151.581Z" fill="#13375B"/>
<path d="M670.686 265.298C670.686 265.298 667.018 267.026 665.796 267.466C664.573 267.906 654.034 262.009 647.226 256.4C640.418 250.791 630.176 242.948 629.538 241.081C629.538 241.081 629.559 234.882 633.777 235.547C637.994 236.211 670.686 265.298 670.686 265.298Z" fill="#2D2861"/>
<path d="M665.798 267.465C666.435 267.237 669.007 267.055 669.286 265.979C670.339 265.315 659.58 262.449 656.497 259.992C656.497 259.992 659.311 262.805 665.669 265.468C665.669 265.468 659.664 268.191 629.537 241.076C630.175 242.944 640.418 250.788 647.224 256.395C654.031 262.003 664.574 267.906 665.798 267.465Z" fill="#67718E"/>
<path d="M711.78 179.205C716.91 176.669 719.76 175.655 722.001 167.257C724.242 158.86 722.432 153.281 718.486 149.794C714.126 145.94 697.578 143.419 692.771 160.104L713.962 165.935L711.78 179.205Z" fill="#2D2861"/>
<path d="M720.303 155.141C719.774 153.947 718.753 148.18 727.411 146.504C736.069 144.829 745.545 152.571 742.729 159.073C739.912 165.574 739.034 177.237 746.24 178.122C753.445 179.008 749.587 187.1 742.211 191.25C734.836 195.4 743.092 201.569 743.092 201.569C743.092 201.569 732.33 202.741 731.824 198.362C731.074 191.896 739.187 187.196 734.859 184.403C730.532 181.61 724.885 179.765 724.758 177.764C724.631 175.764 730.584 150.302 721.138 157.331L720.303 155.141Z" fill="#2D2861"/>
<path d="M706.167 152.016C706.167 152.016 710.607 153.398 713.211 158.18C715.814 162.962 717.18 176.69 707.832 182.478C698.483 188.266 691.736 178.866 691.954 170.09C692.147 161.31 694.288 149.723 706.167 152.016Z" fill="#F7A491"/>
<path d="M712.55 169.336C711.78 171.477 712.254 173.667 713.63 174.18C715.006 174.693 716.734 173.387 717.503 171.245C718.273 169.104 717.798 166.914 716.422 166.401C715.076 165.867 713.349 167.173 712.55 169.336Z" fill="#F7A491"/>
<path d="M694.45 174.239L695.417 173.86L696.796 173.844L698.526 174.387L699.885 175.433C699.885 175.433 699.154 177.94 696.234 177.366C692.683 176.65 694.45 174.239 694.45 174.239Z" fill="white"/>
<path d="M693.151 159.702C693.151 159.702 700.471 154.47 703.936 158.637C708.033 155.574 715.286 163.01 715.258 165.817C715.258 165.817 714.805 160.319 713.463 154.887C712.122 149.456 700.547 149.904 700.547 149.904L696.781 153.192L693.151 159.702Z" fill="#2D2861"/>
<path d="M629.433 235.46C629.029 248.978 620.528 273.049 618.903 291.303C617.8 302.56 613.97 313.428 607.626 323.304C607.626 323.304 616.97 325.602 624.207 320.323C624.207 320.323 626.651 295.074 629.868 275.52C634.305 248.518 629.433 235.46 629.433 235.46Z" fill="#2D2861"/>
<path d="M629.156 237.523C622.061 252.251 606.062 296.2 606.062 296.2L613.057 302.041L632.846 234.683L629.156 237.523Z" fill="#2D2861"/>
<path d="M704.435 148.866C703.158 149.58 701.315 148.714 700.426 149.567C698.428 151.447 698.264 155.298 699.56 157.756C701.449 161.32 713.41 163.286 714.365 170.29C714.365 170.29 718.09 161.878 711.285 156.152C703.374 149.518 704.435 148.866 704.435 148.866Z" fill="#2D2861"/>
<path d="M708.438 205.378C706.36 204.159 703.691 205.073 702.671 207.232C701.278 210.204 699.8 214.829 701.078 219.364C703.23 226.924 710.467 253.068 708.328 256.218C706.172 259.35 677.52 249.687 677.52 249.687C677.52 249.687 674.777 245.933 672.078 244.813C669.38 243.693 664.671 244.159 664.863 245.212C665.037 246.282 668.593 246.224 668.913 246.585C669.217 246.928 668.576 247.914 666.795 248.267C665.014 248.62 663.136 247.772 663.136 247.772C663.136 247.772 664.306 252.95 669.093 254.282C673.88 255.614 675.847 256.127 675.847 256.127C675.847 256.127 714.582 273.541 719.652 269.664C724.415 266.058 724.884 214.933 708.438 205.378Z" fill="#F7A491"/>
<path d="M707.163 257.008C703.171 256.426 696.263 254.524 693.72 254.225C691.894 254.012 688.318 252.307 685.749 251.017C684.435 250.878 682.193 260.195 679.944 267.639C679.944 267.639 686.662 268.242 696.834 269.94C724.082 274.488 723.27 267.467 722.593 264.284C721.525 245.695 708.571 235.088 707.163 257.008Z" fill="#E0E3E6"/>
<path d="M723.781 255.15C723.84 251.117 720.465 217.101 720.43 214.541C718.089 207.838 717.527 202.421 710.122 201.289C706.967 200.806 699.414 197.858 699.924 213.089C699.924 213.089 705.911 243.451 707.394 250.673C710.839 271.5 717.364 271.155 720.431 270.069C723.209 269.084 723.663 263.34 723.781 255.15Z" fill="#E0E3E6"/>
<path d="M347.693 281.138C347.693 281.138 341.603 286.779 342.448 288.063C343.293 289.347 364.758 292.677 375.352 292.308C385.945 291.939 401.445 291.939 403.418 290.652C403.418 290.652 407.927 284.854 403.418 282.46C398.909 280.066 347.693 281.138 347.693 281.138Z" fill="#F70065"/>
<path d="M401.695 283.162C399.603 298.924 405.113 328.44 403.569 349.926C402.738 363.193 405.216 376.519 410.865 389.159C410.865 389.159 399.341 390.088 391.759 382.616C391.759 382.616 393.66 352.861 393.562 329.57C393.431 297.409 401.695 283.162 401.695 283.162Z" fill="#F70065"/>
<path d="M402.708 289.256C408.326 307.666 418.952 361.644 418.952 361.644L409.542 367.122L398.871 285.273L402.708 289.256Z" fill="#F70065"/>
<path d="M364.707 215.124C366.876 213.876 367.591 210.19 366.354 207.261C364.644 203.239 361.601 197.737 357.106 195.324C349.601 191.325 323.764 177.27 322.319 172.284C320.898 167.296 344.838 144.085 344.838 144.085C344.838 144.085 349.491 144.239 351.921 142.229C354.352 140.219 356.571 134.679 355.585 134.004C354.595 133.295 352.674 137.232 352.195 137.279C357.396 129.877 356.564 132.134 357.256 129.89C357.947 127.646 354.405 129.964 354.405 129.964C354.405 129.964 349.433 126.893 345.669 131.008C341.905 135.122 340.388 136.843 340.388 136.843C340.388 136.843 304.391 164.567 304.819 173.369C305.191 181.607 347.619 225.08 364.707 215.124Z" fill="#F7A491"/>
<path d="M322.303 170.342C325 166.468 332.439 163.312 334.097 160.783C335.286 158.965 339.164 157.152 341.664 155.426C344.771 160.464 338.355 149.076 333.385 140.361C333.385 140.361 322.397 147.502 313.47 155.062C289.396 175.45 304.648 179.168 307.68 181.101C323.792 195.554 339.825 190.302 322.303 170.342Z" fill="#E0E3E6"/>
<path d="M323.14 203.182C326.475 206.634 343.501 223.582 345.658 225.695C352.552 228.768 362.136 227.551 367.183 220.405C369.334 217.361 375.979 211.579 362.979 199.338C362.979 199.338 334.312 180.372 327.46 175.926C308.163 162.193 304.836 169.618 304.044 173.884C303.328 177.749 316.367 196.17 323.14 203.182Z" fill="#E0E3E6"/>
<path d="M370.384 174.221L367.414 191.387C367.414 191.387 379.244 201.784 385.749 200.031C387.124 196.812 385.746 185.805 385.746 185.805C385.746 185.805 383.927 180.789 384.819 175.922C385.68 171.055 370.384 174.221 370.384 174.221Z" fill="#F7A491"/>
<path d="M384.79 175.898C385.681 171.031 370.384 174.197 370.384 174.197L370.147 175.61C370.592 176.552 371.127 177.389 371.81 177.991C375.226 181.209 380.572 183.146 385.176 183.277C384.701 180.712 384.433 177.886 384.79 175.898Z" fill="#F47458"/>
<path d="M367.888 149.912C367.443 149.781 364.413 169.458 370.175 174.875C375.937 180.292 387.135 182.071 391.174 177.806C395.629 173.096 395.392 151.927 386.452 146.353C377.482 140.78 367.888 149.912 367.888 149.912Z" fill="#F7A491"/>
<path d="M383.03 135.834C376.11 137.064 371.625 140.753 369.991 142.349C366.843 142.663 362.596 144.181 358.17 150.566C352.764 158.416 356.744 167.103 363.071 171.394C369.368 175.66 369.308 180.605 369.308 180.605L370.288 178.041C371.031 176.104 371.328 174.063 371.09 172.022C370.942 170.819 370.645 169.484 370.08 168.411C368.566 165.559 373.347 163.675 374.684 161.294C375.724 159.462 375.753 155.302 377.387 152.266L379.318 149.964C379.318 149.964 383.802 146.928 388.169 147.766C392.505 148.629 391.881 134.238 383.03 135.834Z" fill="#13375B"/>
<path d="M374.357 164.8C374.417 167.208 373.169 169.17 371.565 169.196C369.991 169.222 368.655 167.286 368.625 164.879C368.566 162.471 369.813 160.509 371.417 160.483C372.991 160.457 374.298 162.393 374.357 164.8Z" fill="#F7A491"/>
<path d="M391.237 170.452L390.207 169.912L388.639 169.669L386.567 169.928L384.823 170.753C384.823 170.753 385.185 173.39 388.619 173.297C392.798 173.163 391.237 170.452 391.237 170.452Z" fill="white"/>
<defs>
<linearGradient id="paint0_linear" x1="103.394" y1="241.963" x2="103.394" y2="229.701" gradientUnits="userSpaceOnUse">
<stop stop-color="#008EC2"/>
<stop offset="1" stop-color="#003BC2"/>
</linearGradient>
<radialGradient id="paint1_radial" cx="0" cy="0" r="1" gradientUnits="userSpaceOnUse" gradientTransform="translate(103.393 235.535) scale(5.98719 5.97074)">
<stop stop-color="#FFBD00"/>
<stop offset="1" stop-color="#FF772C"/>
</radialGradient>
<linearGradient id="paint2_linear" x1="103.392" y1="240.943" x2="103.392" y2="229.703" gradientUnits="userSpaceOnUse">
<stop stop-color="#FFF300"/>
<stop offset="1" stop-color="#FF9700"/>
</linearGradient>
<linearGradient id="paint3_linear" x1="103.393" y1="240.845" x2="103.393" y2="229.612" gradientUnits="userSpaceOnUse">
<stop stop-color="#FFCC00"/>
<stop offset="1" stop-color="#FF9700"/>
</linearGradient>
<linearGradient id="paint4_linear" x1="97.2982" y1="232.221" x2="109.36" y2="232.221" gradientUnits="userSpaceOnUse">
<stop stop-color="#FFD540"/>
<stop offset="0.822917" stop-color="#FBCC53"/>
</linearGradient>
</defs>
</svg>
