<?xml version="1.0" encoding="UTF-8" standalone="no"?>
<svg
   width="1441"
   height="617"
   viewBox="0 0 1441 617"
   fill="none"
   version="1.1"
   id="svg351"
   sodipodi:docname="stage--1740391412.svg"
   inkscape:version="1.1 (c68e22c387, 2021-05-23)"
   xmlns:inkscape="http://www.inkscape.org/namespaces/inkscape"
   xmlns:sodipodi="http://sodipodi.sourceforge.net/DTD/sodipodi-0.dtd"
   xmlns="http://www.w3.org/2000/svg"
   xmlns:svg="http://www.w3.org/2000/svg">
  <sodipodi:namedview
     id="namedview353"
     pagecolor="#ffffff"
     bordercolor="#666666"
     borderopacity="1.0"
     inkscape:pageshadow="2"
     inkscape:pageopacity="0.0"
     inkscape:pagecheckerboard="0"
     showgrid="false"
     inkscape:zoom="0.7647467"
     inkscape:cx="720.5"
     inkscape:cy="307.9451"
     inkscape:window-width="1857"
     inkscape:window-height="1057"
     inkscape:window-x="-8"
     inkscape:window-y="-8"
     inkscape:window-maximized="1"
     inkscape:current-layer="svg351" />
  <path
     d="M1059.36 548.103C1064.62 545.11 1070.74 546.575 1075.92 549.698C1080.12 539.235 1087.96 536.608 1087.49 536.843C1087.55 536.823 1089.09 536.179 1089.02 536.236C1092.77 534.704 1100.74 533.275 1107.92 533.774C1093.69 536.435 1082.98 539.464 1079.19 552.804C1079.17 552.84 1078.3 556.258 1078.3 556.258C1076.11 554.735 1068.29 547.617 1061.02 550.982C1055.57 553.601 1048.83 559.854 1044.49 563.985C1047.81 558.338 1053.53 551.547 1059.36 548.103Z"
     fill="#7271B3"
     id="path2" />
  <path
     d="M1267.33 65.6123C1271.28 63.3616 1275.88 64.4635 1279.78 66.8115C1282.94 58.9454 1288.83 56.9701 1288.48 57.1467C1288.52 57.1314 1289.68 56.6478 1289.63 56.6901C1292.44 55.5388 1298.43 54.4641 1303.83 54.8396C1293.14 56.8402 1285.09 59.1171 1282.23 69.1462C1282.22 69.1732 1281.56 71.7431 1281.56 71.7431C1279.92 70.5983 1274.04 65.2465 1268.57 67.7764C1264.48 69.7459 1259.41 74.4467 1256.15 77.5524C1258.64 73.3067 1262.95 68.2011 1267.33 65.6123Z"
     fill="#7271B3"
     id="path4" />
  <path
     d="M949.676 501.448C953.095 503.182 954.221 506.875 954.124 510.577C961.53 509.29 965.581 512.483 965.289 512.327C965.328 512.337 966.2 512.967 966.132 512.909C968.246 514.347 971.613 518.012 973.642 521.938C967.478 515.404 962.259 510.856 953.342 513.291C953.303 513.281 951.045 513.954 951.045 513.954C951.216 512.337 952.788 505.857 948.495 503.209C945.231 501.231 939.407 499.808 935.621 498.911C940.024 498.833 945.798 499.555 949.676 501.448Z"
     fill="#7271B3"
     id="path6" />
  <path
     d="M883.224 287.065L892.43 285.414C892.43 285.414 892.863 288.819 888.847 289.664C883.952 290.668 883.224 287.065 883.224 287.065Z"
     fill="white"
     id="path8" />
  <path
     d="M1207.22 237.225L1216.09 240.059C1216.09 240.059 1214.71 243.228 1210.77 242.1C1205.99 240.705 1207.22 237.225 1207.22 237.225Z"
     fill="white"
     id="path10" />
  <path
     d="M1388.37 102.995C1236.91 -52.8153 1133.79 102.995 901.717 20.727C470.228 -97.0094 561.51 342.988 454.594 328.102C302.169 306.776 284.098 194.363 107.558 288.438C63.4982 311.956 4.44996 372.246 -11.8684 442.755C-29.0329 516.717 -7.81901 602.999 -7.81901 602.999L1395.14 626.144C1433.45 544.949 1508.7 226.748 1388.37 102.995Z"
     fill="url(#paint0_linear)"
     id="path12" />
  <path
     d="M4.0379 604.823H1416.27C1428.77 604.823 1438.88 611.318 1438.88 619.344V626.997H-18.5723V619.344C-18.5723 611.318 -8.45872 604.823 4.0379 604.823Z"
     fill="#FEE2BF"
     id="path14" />
  <path
     opacity="0.22"
     d="M1453.61 436.382C1453.67 443.763 1453.72 451.09 1453.78 458.471C1354.59 456.962 1255.4 455.508 1156.22 453.999C994.49 453.999 838.137 395.113 741.122 328.793C740.525 328.362 739.874 327.985 739.276 327.554C781.296 328.847 826.031 329.87 866.802 341.13C906.541 352.013 938.735 380.405 977.66 394.036C1074.73 428.085 1183.36 377.766 1284.23 398.238C1341.4 409.821 1395.85 444.032 1453.61 436.005C1453.61 436.113 1453.61 436.274 1453.61 436.382Z"
     fill="white"
     id="path16" />
  <path
     d="M987.117 199.984C990.279 198.677 994.043 197.892 998.071 197.855C1001.8 192.326 1010.46 188.628 1020.32 188.628C1026.23 188.628 1031.84 190.01 1036.17 192.364C1040.98 185.49 1052.01 180.671 1064.55 180.671C1072.79 180.671 1080.58 182.689 1086.34 186.312C1087.17 186.237 1088 186.2 1088.83 186.2C1097.79 186.2 1105.09 190.757 1105.09 196.361C1105.09 197.631 1104.71 198.864 1104 200.022H987.117V199.984Z"
     fill="white"
     id="path18" />
  <path
     d="M1263.86 361.819C1269.47 359.499 1276.14 358.107 1283.29 358.041C1289.9 348.232 1305.26 341.671 1322.76 341.671C1333.25 341.671 1343.2 344.123 1350.88 348.298C1359.43 336.103 1378.99 327.554 1401.23 327.554C1415.86 327.554 1429.68 331.133 1439.9 337.561C1441.37 337.429 1442.84 337.363 1444.31 337.363C1460.21 337.363 1473.16 345.448 1473.16 355.39C1473.16 357.643 1472.49 359.83 1471.22 361.885H1263.86V361.819Z"
     fill="white"
     id="path20" />
  <path
     d="M1105.13 155.307C1108.29 153.999 1112.05 153.215 1116.08 153.178C1119.81 147.649 1128.47 143.951 1138.33 143.951C1144.24 143.951 1149.85 145.333 1154.18 147.686C1158.99 140.813 1170.02 135.994 1182.56 135.994C1190.8 135.994 1198.59 138.011 1204.35 141.635C1205.18 141.56 1206.01 141.523 1206.84 141.523C1215.8 141.523 1223.1 146.08 1223.1 151.683C1223.1 152.953 1222.72 154.186 1222.01 155.344H1105.13V155.307Z"
     fill="white"
     id="path22" />
  <path
     d="M1102.69 370.587C1101.45 370.513 1100.2 370.475 1098.96 370.475C1089.7 356.654 1068.06 347.427 1043.52 347.427C1028.76 347.427 1014.79 350.864 1003.99 356.728C991.982 339.582 964.428 327.554 933.222 327.554C912.707 327.554 893.246 332.634 878.828 341.599C876.758 341.413 874.688 341.301 872.58 341.301C850.22 341.301 832.076 352.694 832.076 366.665C832.076 366.702 832.076 366.74 832.076 366.777C832.114 371.783 836.292 375.78 841.299 375.78H1102.54C1105.89 375.742 1106.04 370.774 1102.69 370.587Z"
     fill="white"
     id="path24" />
  <path
     d="M1301.11 553.741C1313.74 545.238 1377.4 577.386 1377.4 577.386C1377.4 577.386 1338.17 510.628 1353.05 492.428C1367.93 474.302 1389.35 506.451 1389.35 506.451C1389.35 506.451 1360.04 452.82 1392.28 434.322C1417.61 419.776 1440.84 459.086 1445.8 467.813V618.262H1291.56C1291.56 618.187 1288.41 562.245 1301.11 553.741Z"
     fill="#238E3C"
     id="path26" />
  <path
     d="M1196.07 504.185C1190.61 505.418 1187.56 510.274 1186.21 515.653C1176.46 511.059 1169.53 514.159 1169.98 514.047C1169.94 514.047 1168.48 514.607 1168.55 514.57C1165.05 515.877 1158.88 519.875 1154.47 524.693C1165.61 517.633 1174.72 513.001 1186.13 519.8C1186.17 519.837 1189.03 521.63 1189.03 521.63C1189.44 519.239 1189.86 509.378 1196.86 507.136C1202.2 505.53 1210.82 505.605 1216.43 505.754C1210.52 503.998 1202.2 502.915 1196.07 504.185Z"
     fill="#7271B3"
     id="path28" />
  <path
     d="M846.822 107.566C850.097 108.313 851.942 111.227 852.732 114.477C858.604 111.713 862.783 113.581 862.519 113.506C862.557 113.506 863.423 113.842 863.385 113.805C865.493 114.589 869.22 116.98 871.855 119.894C865.154 115.635 859.658 112.871 852.807 116.943C852.77 116.943 851.076 118.026 851.076 118.026C850.812 116.569 850.587 110.667 846.371 109.322C843.096 108.351 837.939 108.426 834.551 108.5C838.127 107.454 843.133 106.782 846.822 107.566Z"
     fill="#7271B3"
     id="path30" />
  <path
     d="M826.732 516.404C823.495 513.266 818.789 513.378 814.536 514.835C813.369 506.243 808.174 502.919 808.475 503.18C808.438 503.18 807.421 502.396 807.497 502.471C805.05 500.677 799.592 498.287 794.359 497.465C804.109 501.835 811.299 505.945 811.675 516.628C811.675 516.666 811.713 519.393 811.713 519.393C813.557 518.608 820.446 514.536 825.076 518.272C828.539 521.148 832.303 527.013 834.675 530.861C833.244 526.042 830.308 519.953 826.732 516.404Z"
     fill="#7271B3"
     id="path32" />
  <path
     d="M795.055 222.319C790.5 225.569 789.597 231.21 790.5 236.701C779.697 236.253 774.54 241.782 774.916 241.483C774.879 241.52 773.749 242.566 773.825 242.529C771.114 245.069 766.974 251.158 764.828 257.322C772.319 246.489 778.869 238.719 792.081 240.586C792.119 240.586 795.469 241.147 795.469 241.147C794.905 238.756 791.404 229.566 797.013 224.785C801.304 221.236 809.284 217.986 814.516 215.932C808.305 216.567 800.212 218.771 795.055 222.319Z"
     fill="#7271B3"
     id="path34" />
  <path
     d="M478.349 424.576C472.701 425.325 469.02 429.842 466.996 435.058C457.78 429.702 450.437 432.166 450.92 432.078C450.868 432.093 449.344 432.489 449.429 432.491C445.758 433.467 439.017 436.888 433.982 441.291C446.083 435.261 455.792 431.477 466.388 439.182C466.421 439.199 469.063 441.228 469.063 441.228C469.794 438.879 471.442 429.235 478.797 427.631C484.367 426.5 493.011 427.326 498.638 427.933C492.882 425.635 484.676 423.843 478.349 424.576Z"
     fill="#7271B3"
     id="path36" />
  <path
     d="M909.216 170.686C905 169.08 900.709 170.948 897.359 173.973C892.879 166.502 886.819 165.456 887.195 165.568C887.157 165.568 885.915 165.269 885.99 165.269C883.054 164.56 877.069 164.485 871.912 165.755C882.64 166.017 890.846 166.988 895.401 176.7C895.401 176.738 896.53 179.24 896.53 179.24C897.923 177.821 902.666 171.396 908.388 173.039C912.717 174.347 918.476 178.307 922.165 180.921C919.003 177.074 913.884 172.591 909.216 170.686Z"
     fill="#7271B3"
     id="path38" />
  <path
     d="M987.531 473.991L983.142 472.217C981.448 471.532 979.513 472.353 978.828 474.047L970.667 494.235C969.982 495.929 970.803 497.864 972.497 498.549L976.885 500.323C978.579 501.008 980.515 500.187 981.199 498.493L989.361 478.305C990.046 476.611 989.225 474.676 987.531 473.991Z"
     fill="#2196F3"
     id="path58" />
  <path
     d="M1014.65 486.487L1006.36 483.137C1006.36 483.137 1008.74 481.036 1010.52 476.647C1012.65 471.381 1009.41 468.029 1007.65 467.319C1005.9 466.609 1004.66 467.132 1002.89 471.521C1001.2 475.692 995.807 477.415 992.51 478.094L983.718 499.84C986.002 502.277 990.849 506.479 999.583 510.01L1002.39 511.146C1005.81 512.53 1009.72 511.25 1011.66 508.114L1018.24 497.498C1020.72 493.495 1019 488.247 1014.65 486.487Z"
     fill="#FFC107"
     id="path60" />
  <path
     d="M181.528 476.876L177.395 478.601C175.8 479.267 175.044 481.107 175.709 482.702L183.644 501.714C184.31 503.309 186.149 504.065 187.744 503.399L191.878 501.675C193.473 501.009 194.229 499.169 193.563 497.574L185.629 478.562C184.963 476.967 183.123 476.211 181.528 476.876Z"
     fill="#2196F3"
     id="path62" />
  <path
     d="M208.086 467.249L200.283 470.505C200.283 470.505 200.488 467.508 198.763 463.375C196.693 458.415 192.283 458.315 190.63 459.005C188.977 459.694 188.495 460.866 190.22 464.999C191.859 468.927 189.375 473.676 187.607 476.325L196.155 496.805C199.313 496.925 205.369 496.529 213.594 493.097L216.239 491.993C219.462 490.647 221.241 487.188 220.462 483.786L217.828 472.267C216.832 467.927 212.186 465.537 208.086 467.249Z"
     fill="#FFC107"
     id="path64" />
  <path
     d="M438.225 513.849L433.767 513.418C432.046 513.252 430.511 514.517 430.345 516.238L428.365 536.743C428.199 538.464 429.464 539.999 431.184 540.165L435.642 540.596C437.363 540.762 438.898 539.497 439.064 537.776L441.044 517.271C441.21 515.55 439.945 514.015 438.225 513.849Z"
     fill="#2196F3"
     id="path66" />
  <path
     d="M466.181 517.898L457.765 517.085C457.765 517.085 459.36 514.54 459.791 510.082C460.307 504.733 456.467 502.562 454.684 502.39C452.901 502.218 451.923 503.023 451.493 507.481C451.084 511.718 446.652 514.731 443.843 516.232L441.71 538.322C444.437 539.918 449.963 542.428 458.834 543.285L461.687 543.56C465.164 543.896 468.365 541.685 469.284 538.319L472.401 526.921C473.571 522.625 470.603 518.325 466.181 517.898Z"
     fill="#FFC107"
     id="path68" />
  <path
     d="M712.62 59.7867L708.162 59.3562C706.442 59.1901 704.907 60.4547 704.741 62.1754L702.761 82.6811C702.595 84.4018 703.859 85.9367 705.58 86.1029L710.038 86.5333C711.758 86.6995 713.293 85.4349 713.459 83.7142L715.439 63.2084C715.605 61.4877 714.341 59.9528 712.62 59.7867Z"
     fill="#2196F3"
     id="path70" />
  <path
     d="M740.576 63.8357L732.16 63.023C732.16 63.023 733.756 60.4775 734.186 56.0197C734.703 50.6704 730.863 48.4999 729.08 48.3277C727.297 48.1555 726.319 48.961 725.889 53.4188C725.479 57.6554 721.047 60.6686 718.239 62.1701L716.106 84.2593C718.833 85.8562 724.359 88.3659 733.23 89.2225L736.083 89.498C739.56 89.8337 742.761 87.6231 743.68 84.2564L746.796 72.859C747.967 68.5627 744.998 64.2627 740.576 63.8357Z"
     fill="#FFC107"
     id="path72" />
  <path
     d="M1236.44 420.671L1231.99 420.241C1230.26 420.075 1228.73 421.339 1228.56 423.06L1226.58 443.566C1226.42 445.286 1227.68 446.821 1229.4 446.987L1233.86 447.418C1235.58 447.584 1237.12 446.319 1237.28 444.599L1239.26 424.093C1239.43 422.372 1238.16 420.837 1236.44 420.671Z"
     fill="#2196F3"
     id="path74" />
  <path
     d="M1264.4 424.72L1255.98 423.908C1255.98 423.908 1257.58 421.362 1258.01 416.904C1258.53 411.555 1254.69 409.384 1252.9 409.212C1251.12 409.04 1250.14 409.846 1249.71 414.303C1249.3 418.54 1244.87 421.553 1242.06 423.055L1239.93 445.144C1242.66 446.741 1248.18 449.25 1257.05 450.107L1259.91 450.382C1263.38 450.718 1266.58 448.508 1267.5 445.141L1270.62 433.744C1271.79 429.447 1268.82 425.147 1264.4 424.72Z"
     fill="#FFC107"
     id="path76" />
  <path
     d="M327.527 358.536C325.415 357.481 323.069 356.894 320.84 356.19C318.377 355.369 315.796 354.665 313.332 353.727C310.282 352.553 307.701 350.676 305.942 347.861C304.182 345.163 303.478 342.23 304.182 338.945C305.12 335.191 307.467 332.61 311.338 331.437C313.684 330.733 316.03 331.203 318.142 332.493C319.55 333.314 320.723 334.37 321.661 335.543C321.779 335.661 321.779 335.778 321.896 335.778C321.896 335.778 321.896 335.778 322.013 335.778C322.131 335.191 322.248 334.605 322.365 334.018C322.834 332.258 323.421 330.733 324.594 329.326C326.94 326.745 329.756 325.806 333.158 326.51C336.677 327.214 339.141 329.208 340.666 332.376C342.074 335.543 342.074 338.711 340.9 341.995C339.962 344.576 338.202 346.688 336.443 348.682C333.744 351.615 331.164 354.43 328.465 357.363C328.113 357.832 327.879 358.184 327.527 358.536Z"
     fill="url(#paint3_radial)"
     id="path78" />
  <path
     d="M327.527 358.536C325.415 357.481 323.069 356.894 320.84 356.19C318.377 355.369 315.796 354.665 313.332 353.727C310.282 352.553 307.701 350.676 305.942 347.861C304.182 345.163 303.478 342.23 304.182 338.945C305.12 335.191 307.467 332.61 311.338 331.437C313.684 330.733 316.03 331.203 318.142 332.493C319.55 333.314 320.723 334.37 321.661 335.543C321.779 335.661 321.779 335.778 321.896 335.778C321.896 335.778 321.896 335.778 322.013 335.778C322.131 335.191 322.248 334.605 322.365 334.018C322.834 332.258 323.421 330.733 324.594 329.326C326.94 326.745 329.756 325.806 333.158 326.51C336.677 327.214 339.141 329.208 340.666 332.376C342.074 335.543 342.074 338.711 340.9 341.995C339.962 344.576 338.202 346.688 336.443 348.682C333.744 351.615 331.164 354.43 328.465 357.363C328.113 357.832 327.879 358.184 327.527 358.536Z"
     fill="url(#paint4_radial)"
     id="path80" />
  <path
     d="M327.527 358.536C325.415 357.481 323.069 356.894 320.84 356.19C318.377 355.369 315.796 354.665 313.332 353.727C310.282 352.553 307.701 350.676 305.942 347.861C304.182 345.163 303.478 342.23 304.182 338.945C305.12 335.191 307.467 332.61 311.338 331.437C313.684 330.733 316.03 331.203 318.142 332.493C319.55 333.314 320.723 334.37 321.661 335.543C321.779 335.661 321.779 335.778 321.896 335.778C321.896 335.778 321.896 335.778 322.013 335.778C322.131 335.191 322.248 334.605 322.365 334.018C322.834 332.258 323.421 330.733 324.594 329.326C326.94 326.745 329.756 325.806 333.158 326.51C336.677 327.214 339.141 329.208 340.666 332.376C342.074 335.543 342.074 338.711 340.9 341.995C339.962 344.576 338.202 346.688 336.443 348.682C333.744 351.615 331.164 354.43 328.465 357.363C328.113 357.832 327.879 358.184 327.527 358.536Z"
     fill="url(#paint5_radial)"
     id="path82" />
  <path
     d="M327.527 358.536C325.415 357.481 323.069 356.894 320.84 356.19C318.377 355.369 315.796 354.665 313.332 353.727C310.282 352.553 307.701 350.676 305.942 347.861C304.182 345.163 303.478 342.23 304.182 338.945C305.12 335.191 307.467 332.61 311.338 331.437C313.684 330.733 316.03 331.203 318.142 332.493C319.55 333.314 320.723 334.37 321.661 335.543C321.779 335.661 321.779 335.778 321.896 335.778C321.896 335.778 321.896 335.778 322.013 335.778C322.131 335.191 322.248 334.605 322.365 334.018C322.834 332.258 323.421 330.733 324.594 329.326C326.94 326.745 329.756 325.806 333.158 326.51C336.677 327.214 339.141 329.208 340.666 332.376C342.074 335.543 342.074 338.711 340.9 341.995C339.962 344.576 338.202 346.688 336.443 348.682C333.744 351.615 331.164 354.43 328.465 357.363C328.113 357.832 327.879 358.184 327.527 358.536Z"
     fill="url(#paint6_radial)"
     id="path84" />
  <path
     d="M1061.95 397.764C1060.49 395.912 1058.61 394.384 1056.89 392.801C1055.01 391.011 1052.97 389.278 1051.14 387.382C1048.88 385.025 1047.34 382.229 1046.94 378.933C1046.5 375.743 1047.1 372.789 1049.14 370.114C1051.58 367.114 1054.8 365.773 1058.8 366.355C1061.23 366.714 1063.15 368.135 1064.51 370.2C1065.44 371.542 1066.05 372.996 1066.41 374.456C1066.46 374.612 1066.41 374.719 1066.52 374.768C1066.52 374.768 1066.52 374.768 1066.62 374.818C1066.98 374.337 1067.33 373.856 1067.69 373.374C1068.86 371.981 1070.04 370.849 1071.7 370.073C1074.92 368.732 1077.87 369.078 1080.65 371.16C1083.54 373.292 1084.92 376.143 1084.96 379.659C1084.89 383.124 1083.54 385.992 1081.08 388.467C1079.14 390.406 1076.65 391.57 1074.21 392.628C1070.52 394.138 1066.99 395.591 1063.3 397.101C1062.78 397.376 1062.42 397.595 1061.95 397.764Z"
     fill="url(#paint7_radial)"
     id="path86" />
  <path
     d="M1061.95 397.764C1060.49 395.912 1058.61 394.384 1056.89 392.801C1055.01 391.011 1052.97 389.278 1051.14 387.382C1048.88 385.025 1047.34 382.229 1046.94 378.933C1046.5 375.743 1047.1 372.789 1049.14 370.114C1051.58 367.114 1054.8 365.773 1058.8 366.355C1061.23 366.714 1063.15 368.135 1064.51 370.2C1065.44 371.542 1066.05 372.996 1066.41 374.456C1066.46 374.612 1066.41 374.719 1066.52 374.768C1066.52 374.768 1066.52 374.768 1066.62 374.818C1066.98 374.337 1067.33 373.856 1067.69 373.374C1068.86 371.981 1070.04 370.849 1071.7 370.073C1074.92 368.732 1077.87 369.078 1080.65 371.16C1083.54 373.292 1084.92 376.143 1084.96 379.659C1084.89 383.124 1083.54 385.992 1081.08 388.467C1079.14 390.406 1076.65 391.57 1074.21 392.628C1070.52 394.138 1066.99 395.591 1063.3 397.101C1062.78 397.376 1062.42 397.595 1061.95 397.764Z"
     fill="url(#paint8_radial)"
     id="path88" />
  <path
     d="M1061.95 397.764C1060.49 395.912 1058.61 394.384 1056.89 392.801C1055.01 391.011 1052.97 389.278 1051.14 387.382C1048.88 385.025 1047.34 382.229 1046.94 378.933C1046.5 375.743 1047.1 372.789 1049.14 370.114C1051.58 367.114 1054.8 365.773 1058.8 366.355C1061.23 366.714 1063.15 368.135 1064.51 370.2C1065.44 371.542 1066.05 372.996 1066.41 374.456C1066.46 374.612 1066.41 374.719 1066.52 374.768C1066.52 374.768 1066.52 374.768 1066.62 374.818C1066.98 374.337 1067.33 373.856 1067.69 373.374C1068.86 371.981 1070.04 370.849 1071.7 370.073C1074.92 368.732 1077.87 369.078 1080.65 371.16C1083.54 373.292 1084.92 376.143 1084.96 379.659C1084.89 383.124 1083.54 385.992 1081.08 388.467C1079.14 390.406 1076.65 391.57 1074.21 392.628C1070.52 394.138 1066.99 395.591 1063.3 397.101C1062.78 397.376 1062.42 397.595 1061.95 397.764Z"
     fill="url(#paint9_radial)"
     id="path90" />
  <path
     d="M1061.95 397.764C1060.49 395.912 1058.61 394.384 1056.89 392.801C1055.01 391.011 1052.97 389.278 1051.14 387.382C1048.88 385.025 1047.34 382.229 1046.94 378.933C1046.5 375.743 1047.1 372.789 1049.14 370.114C1051.58 367.114 1054.8 365.773 1058.8 366.355C1061.23 366.714 1063.15 368.135 1064.51 370.2C1065.44 371.542 1066.05 372.996 1066.41 374.456C1066.46 374.612 1066.41 374.719 1066.52 374.768C1066.52 374.768 1066.52 374.768 1066.62 374.818C1066.98 374.337 1067.33 373.856 1067.69 373.374C1068.86 371.981 1070.04 370.849 1071.7 370.073C1074.92 368.732 1077.87 369.078 1080.65 371.16C1083.54 373.292 1084.92 376.143 1084.96 379.659C1084.89 383.124 1083.54 385.992 1081.08 388.467C1079.14 390.406 1076.65 391.57 1074.21 392.628C1070.52 394.138 1066.99 395.591 1063.3 397.101C1062.78 397.376 1062.42 397.595 1061.95 397.764Z"
     fill="url(#paint10_radial)"
     id="path92" />
  <path
     d="M794.298 62.858C792.834 61.0054 790.959 59.4781 789.24 57.8943C787.358 56.1047 785.321 54.3716 783.489 52.4758C781.225 50.1185 779.686 47.3232 779.288 44.0269C778.841 40.8369 779.449 37.8828 781.481 35.2078C783.925 32.2076 787.145 30.8672 791.148 31.449C793.571 31.808 795.496 33.2292 796.86 35.2942C797.786 36.6354 798.399 38.0894 798.751 39.5501C798.807 39.7061 798.758 39.8123 798.864 39.8621C798.864 39.8621 798.864 39.8621 798.97 39.9119C799.325 39.4307 799.681 38.9494 800.036 38.4682C801.208 37.0743 802.387 35.9427 804.046 35.1663C807.267 33.826 810.214 34.1718 812.995 36.2537C815.883 38.3854 817.266 41.2371 817.302 44.7524C817.232 48.2178 815.887 51.0855 813.43 53.5612C811.484 55.4993 808.994 56.6639 806.554 57.7222C802.866 59.2317 799.334 60.6849 795.646 62.1944C795.128 62.4698 794.766 62.6888 794.298 62.858Z"
     fill="url(#paint11_radial)"
     id="path94" />
  <path
     d="M794.298 62.858C792.834 61.0054 790.959 59.4781 789.24 57.8943C787.358 56.1047 785.321 54.3716 783.489 52.4758C781.225 50.1185 779.686 47.3232 779.288 44.0269C778.841 40.8369 779.449 37.8828 781.481 35.2078C783.925 32.2076 787.145 30.8672 791.148 31.449C793.571 31.808 795.496 33.2292 796.86 35.2942C797.786 36.6354 798.399 38.0894 798.751 39.5501C798.807 39.7061 798.758 39.8123 798.864 39.8621C798.864 39.8621 798.864 39.8621 798.97 39.9119C799.325 39.4307 799.681 38.9494 800.036 38.4682C801.208 37.0743 802.387 35.9427 804.046 35.1663C807.267 33.826 810.214 34.1718 812.995 36.2537C815.883 38.3854 817.266 41.2371 817.302 44.7524C817.232 48.2178 815.887 51.0855 813.43 53.5612C811.484 55.4993 808.994 56.6639 806.554 57.7222C802.866 59.2317 799.334 60.6849 795.646 62.1944C795.128 62.4698 794.766 62.6888 794.298 62.858Z"
     fill="url(#paint12_radial)"
     id="path96" />
  <path
     d="M794.298 62.858C792.834 61.0054 790.959 59.4781 789.24 57.8943C787.358 56.1047 785.321 54.3716 783.489 52.4758C781.225 50.1185 779.686 47.3232 779.288 44.0269C778.841 40.8369 779.449 37.8828 781.481 35.2078C783.925 32.2076 787.145 30.8672 791.148 31.449C793.571 31.808 795.496 33.2292 796.86 35.2942C797.786 36.6354 798.399 38.0894 798.751 39.5501C798.807 39.7061 798.758 39.8123 798.864 39.8621C798.864 39.8621 798.864 39.8621 798.97 39.9119C799.325 39.4307 799.681 38.9494 800.036 38.4682C801.208 37.0743 802.387 35.9427 804.046 35.1663C807.267 33.826 810.214 34.1718 812.995 36.2537C815.883 38.3854 817.266 41.2371 817.302 44.7524C817.232 48.2178 815.887 51.0855 813.43 53.5612C811.484 55.4993 808.994 56.6639 806.554 57.7222C802.866 59.2317 799.334 60.6849 795.646 62.1944C795.128 62.4698 794.766 62.6888 794.298 62.858Z"
     fill="url(#paint13_radial)"
     id="path98" />
  <path
     d="M794.298 62.858C792.834 61.0054 790.959 59.4781 789.24 57.8943C787.358 56.1047 785.321 54.3716 783.489 52.4758C781.225 50.1185 779.686 47.3232 779.288 44.0269C778.841 40.8369 779.449 37.8828 781.481 35.2078C783.925 32.2076 787.145 30.8672 791.148 31.449C793.571 31.808 795.496 33.2292 796.86 35.2942C797.786 36.6354 798.399 38.0894 798.751 39.5501C798.807 39.7061 798.758 39.8123 798.864 39.8621C798.864 39.8621 798.864 39.8621 798.97 39.9119C799.325 39.4307 799.681 38.9494 800.036 38.4682C801.208 37.0743 802.387 35.9427 804.046 35.1663C807.267 33.826 810.214 34.1718 812.995 36.2537C815.883 38.3854 817.266 41.2371 817.302 44.7524C817.232 48.2178 815.887 51.0855 813.43 53.5612C811.484 55.4993 808.994 56.6639 806.554 57.7222C802.866 59.2317 799.334 60.6849 795.646 62.1944C795.128 62.4698 794.766 62.6888 794.298 62.858Z"
     fill="url(#paint14_radial)"
     id="path100" />
  <path
     d="M1085.93 472.179C1084.47 470.327 1082.59 468.799 1080.87 467.216C1078.99 465.426 1076.95 463.693 1075.12 461.797C1072.86 459.44 1071.32 456.644 1070.92 453.348C1070.47 450.158 1071.08 447.204 1073.11 444.529C1075.56 441.529 1078.78 440.189 1082.78 440.77C1085.2 441.129 1087.13 442.55 1088.49 444.615C1089.42 445.957 1090.03 447.411 1090.38 448.871C1090.44 449.027 1090.39 449.134 1090.5 449.183C1090.5 449.183 1090.5 449.183 1090.6 449.233C1090.96 448.752 1091.31 448.271 1091.67 447.79C1092.84 446.396 1094.02 445.264 1095.68 444.488C1098.9 443.147 1101.85 443.493 1104.63 445.575C1107.52 447.707 1108.9 450.558 1108.93 454.074C1108.86 457.539 1107.52 460.407 1105.06 462.883C1103.12 464.821 1100.63 465.985 1098.19 467.044C1094.5 468.553 1090.97 470.006 1087.28 471.516C1086.76 471.791 1086.4 472.01 1085.93 472.179Z"
     fill="url(#paint15_radial)"
     id="path102" />
  <path
     d="M1085.93 472.179C1084.47 470.327 1082.59 468.799 1080.87 467.216C1078.99 465.426 1076.95 463.693 1075.12 461.797C1072.86 459.44 1071.32 456.644 1070.92 453.348C1070.47 450.158 1071.08 447.204 1073.11 444.529C1075.56 441.529 1078.78 440.189 1082.78 440.77C1085.2 441.129 1087.13 442.55 1088.49 444.615C1089.42 445.957 1090.03 447.411 1090.38 448.871C1090.44 449.027 1090.39 449.134 1090.5 449.183C1090.5 449.183 1090.5 449.183 1090.6 449.233C1090.96 448.752 1091.31 448.271 1091.67 447.79C1092.84 446.396 1094.02 445.264 1095.68 444.488C1098.9 443.147 1101.85 443.493 1104.63 445.575C1107.52 447.707 1108.9 450.558 1108.93 454.074C1108.86 457.539 1107.52 460.407 1105.06 462.883C1103.12 464.821 1100.63 465.985 1098.19 467.044C1094.5 468.553 1090.97 470.006 1087.28 471.516C1086.76 471.791 1086.4 472.01 1085.93 472.179Z"
     fill="url(#paint16_radial)"
     id="path104" />
  <path
     d="M1085.93 472.179C1084.47 470.327 1082.59 468.799 1080.87 467.216C1078.99 465.426 1076.95 463.693 1075.12 461.797C1072.86 459.44 1071.32 456.644 1070.92 453.348C1070.47 450.158 1071.08 447.204 1073.11 444.529C1075.56 441.529 1078.78 440.189 1082.78 440.77C1085.2 441.129 1087.13 442.55 1088.49 444.615C1089.42 445.957 1090.03 447.411 1090.38 448.871C1090.44 449.027 1090.39 449.134 1090.5 449.183C1090.5 449.183 1090.5 449.183 1090.6 449.233C1090.96 448.752 1091.31 448.271 1091.67 447.79C1092.84 446.396 1094.02 445.264 1095.68 444.488C1098.9 443.147 1101.85 443.493 1104.63 445.575C1107.52 447.707 1108.9 450.558 1108.93 454.074C1108.86 457.539 1107.52 460.407 1105.06 462.883C1103.12 464.821 1100.63 465.985 1098.19 467.044C1094.5 468.553 1090.97 470.006 1087.28 471.516C1086.76 471.791 1086.4 472.01 1085.93 472.179Z"
     fill="url(#paint17_radial)"
     id="path106" />
  <path
     d="M1085.93 472.179C1084.47 470.327 1082.59 468.799 1080.87 467.216C1078.99 465.426 1076.95 463.693 1075.12 461.797C1072.86 459.44 1071.32 456.644 1070.92 453.348C1070.47 450.158 1071.08 447.204 1073.11 444.529C1075.56 441.529 1078.78 440.189 1082.78 440.77C1085.2 441.129 1087.13 442.55 1088.49 444.615C1089.42 445.957 1090.03 447.411 1090.38 448.871C1090.44 449.027 1090.39 449.134 1090.5 449.183C1090.5 449.183 1090.5 449.183 1090.6 449.233C1090.96 448.752 1091.31 448.271 1091.67 447.79C1092.84 446.396 1094.02 445.264 1095.68 444.488C1098.9 443.147 1101.85 443.493 1104.63 445.575C1107.52 447.707 1108.9 450.558 1108.93 454.074C1108.86 457.539 1107.52 460.407 1105.06 462.883C1103.12 464.821 1100.63 465.985 1098.19 467.044C1094.5 468.553 1090.97 470.006 1087.28 471.516C1086.76 471.791 1086.4 472.01 1085.93 472.179Z"
     fill="url(#paint18_radial)"
     id="path108" />
  <path
     d="M1342.89 353.294C1340.73 352.329 1338.36 351.843 1336.11 351.235C1333.61 350.519 1331 349.926 1328.5 349.093C1325.4 348.05 1322.75 346.285 1320.87 343.547C1318.99 340.926 1318.17 338.026 1318.73 334.714C1319.51 330.924 1321.74 328.245 1325.56 326.909C1327.87 326.105 1330.24 326.475 1332.4 327.674C1333.84 328.435 1335.06 329.439 1336.05 330.572C1336.17 330.684 1336.18 330.801 1336.29 330.796C1336.29 330.796 1336.29 330.796 1336.41 330.791C1336.5 330.2 1336.59 329.609 1336.69 329.018C1337.08 327.24 1337.6 325.691 1338.71 324.235C1340.95 321.557 1343.72 320.499 1347.15 321.058C1350.7 321.611 1353.24 323.499 1354.9 326.599C1356.44 329.703 1356.58 332.868 1355.55 336.2C1354.72 338.818 1353.05 341.003 1351.38 343.07C1348.8 346.115 1346.35 349.038 1343.77 352.083C1343.44 352.566 1343.22 352.928 1342.89 353.294Z"
     fill="url(#paint19_radial)"
     id="path110" />
  <path
     d="M1342.89 353.294C1340.73 352.329 1338.36 351.843 1336.11 351.235C1333.61 350.519 1331 349.926 1328.5 349.093C1325.4 348.05 1322.75 346.285 1320.87 343.547C1318.99 340.926 1318.17 338.026 1318.73 334.714C1319.51 330.924 1321.74 328.245 1325.56 326.909C1327.87 326.105 1330.24 326.475 1332.4 327.674C1333.84 328.435 1335.06 329.439 1336.05 330.572C1336.17 330.684 1336.18 330.801 1336.29 330.796C1336.29 330.796 1336.29 330.796 1336.41 330.791C1336.5 330.2 1336.59 329.609 1336.69 329.018C1337.08 327.24 1337.6 325.691 1338.71 324.235C1340.95 321.557 1343.72 320.499 1347.15 321.058C1350.7 321.611 1353.24 323.499 1354.9 326.599C1356.44 329.703 1356.58 332.868 1355.55 336.2C1354.72 338.818 1353.05 341.003 1351.38 343.07C1348.8 346.115 1346.35 349.038 1343.77 352.083C1343.44 352.566 1343.22 352.928 1342.89 353.294Z"
     fill="url(#paint20_radial)"
     id="path112" />
  <path
     d="M1342.89 353.294C1340.73 352.329 1338.36 351.843 1336.11 351.235C1333.61 350.519 1331 349.926 1328.5 349.093C1325.4 348.05 1322.75 346.285 1320.87 343.547C1318.99 340.926 1318.17 338.026 1318.73 334.714C1319.51 330.924 1321.74 328.245 1325.56 326.909C1327.87 326.105 1330.24 326.475 1332.4 327.674C1333.84 328.435 1335.06 329.439 1336.05 330.572C1336.17 330.684 1336.18 330.801 1336.29 330.796C1336.29 330.796 1336.29 330.796 1336.41 330.791C1336.5 330.2 1336.59 329.609 1336.69 329.018C1337.08 327.24 1337.6 325.691 1338.71 324.235C1340.95 321.557 1343.72 320.499 1347.15 321.058C1350.7 321.611 1353.24 323.499 1354.9 326.599C1356.44 329.703 1356.58 332.868 1355.55 336.2C1354.72 338.818 1353.05 341.003 1351.38 343.07C1348.8 346.115 1346.35 349.038 1343.77 352.083C1343.44 352.566 1343.22 352.928 1342.89 353.294Z"
     fill="url(#paint21_radial)"
     id="path114" />
  <path
     d="M1342.89 353.294C1340.73 352.329 1338.36 351.843 1336.11 351.235C1333.61 350.519 1331 349.926 1328.5 349.093C1325.4 348.05 1322.75 346.285 1320.87 343.547C1318.99 340.926 1318.17 338.026 1318.73 334.714C1319.51 330.924 1321.74 328.245 1325.56 326.909C1327.87 326.105 1330.24 326.475 1332.4 327.674C1333.84 328.435 1335.06 329.439 1336.05 330.572C1336.17 330.684 1336.18 330.801 1336.29 330.796C1336.29 330.796 1336.29 330.796 1336.41 330.791C1336.5 330.2 1336.59 329.609 1336.69 329.018C1337.08 327.24 1337.6 325.691 1338.71 324.235C1340.95 321.557 1343.72 320.499 1347.15 321.058C1350.7 321.611 1353.24 323.499 1354.9 326.599C1356.44 329.703 1356.58 332.868 1355.55 336.2C1354.72 338.818 1353.05 341.003 1351.38 343.07C1348.8 346.115 1346.35 349.038 1343.77 352.083C1343.44 352.566 1343.22 352.928 1342.89 353.294Z"
     fill="url(#paint22_radial)"
     id="path116" />
  <path
     d="M518.562 515.303C517.099 513.451 515.224 511.923 513.505 510.34C511.623 508.55 509.585 506.817 507.753 504.921C505.49 502.564 503.951 499.769 503.553 496.472C503.106 493.282 503.714 490.328 505.746 487.653C508.189 484.653 511.41 483.313 515.413 483.894C517.836 484.253 519.761 485.674 521.125 487.739C522.05 489.081 522.664 490.535 523.016 491.995C523.072 492.151 523.022 492.258 523.128 492.307C523.128 492.307 523.128 492.307 523.235 492.357C523.59 491.876 523.945 491.395 524.3 490.914C525.473 489.52 526.651 488.388 528.311 487.612C531.531 486.271 534.479 486.617 537.26 488.699C540.147 490.831 541.531 493.682 541.567 497.198C541.496 500.663 540.151 503.531 537.694 506.007C535.749 507.945 533.259 509.109 530.819 510.168C527.131 511.677 523.598 513.13 519.91 514.64C519.392 514.915 519.031 515.134 518.562 515.303Z"
     fill="url(#paint23_radial)"
     id="path118" />
  <path
     d="M518.562 515.303C517.099 513.451 515.224 511.923 513.505 510.34C511.623 508.55 509.585 506.817 507.753 504.921C505.49 502.564 503.951 499.769 503.553 496.472C503.106 493.282 503.714 490.328 505.746 487.653C508.189 484.653 511.41 483.313 515.413 483.894C517.836 484.253 519.761 485.674 521.125 487.739C522.05 489.081 522.664 490.535 523.016 491.995C523.072 492.151 523.022 492.258 523.128 492.307C523.128 492.307 523.128 492.307 523.235 492.357C523.59 491.876 523.945 491.395 524.3 490.914C525.473 489.52 526.651 488.388 528.311 487.612C531.531 486.271 534.479 486.617 537.26 488.699C540.147 490.831 541.531 493.682 541.567 497.198C541.496 500.663 540.151 503.531 537.694 506.007C535.749 507.945 533.259 509.109 530.819 510.168C527.131 511.677 523.598 513.13 519.91 514.64C519.392 514.915 519.031 515.134 518.562 515.303Z"
     fill="url(#paint24_radial)"
     id="path120" />
  <path
     d="M518.562 515.303C517.099 513.451 515.224 511.923 513.505 510.34C511.623 508.55 509.585 506.817 507.753 504.921C505.49 502.564 503.951 499.769 503.553 496.472C503.106 493.282 503.714 490.328 505.746 487.653C508.189 484.653 511.41 483.313 515.413 483.894C517.836 484.253 519.761 485.674 521.125 487.739C522.05 489.081 522.664 490.535 523.016 491.995C523.072 492.151 523.022 492.258 523.128 492.307C523.128 492.307 523.128 492.307 523.235 492.357C523.59 491.876 523.945 491.395 524.3 490.914C525.473 489.52 526.651 488.388 528.311 487.612C531.531 486.271 534.479 486.617 537.26 488.699C540.147 490.831 541.531 493.682 541.567 497.198C541.496 500.663 540.151 503.531 537.694 506.007C535.749 507.945 533.259 509.109 530.819 510.168C527.131 511.677 523.598 513.13 519.91 514.64C519.392 514.915 519.031 515.134 518.562 515.303Z"
     fill="url(#paint25_radial)"
     id="path122" />
  <path
     d="M518.562 515.303C517.099 513.451 515.224 511.923 513.505 510.34C511.623 508.55 509.585 506.817 507.753 504.921C505.49 502.564 503.951 499.769 503.553 496.472C503.106 493.282 503.714 490.328 505.746 487.653C508.189 484.653 511.41 483.313 515.413 483.894C517.836 484.253 519.761 485.674 521.125 487.739C522.05 489.081 522.664 490.535 523.016 491.995C523.072 492.151 523.022 492.258 523.128 492.307C523.128 492.307 523.128 492.307 523.235 492.357C523.59 491.876 523.945 491.395 524.3 490.914C525.473 489.52 526.651 488.388 528.311 487.612C531.531 486.271 534.479 486.617 537.26 488.699C540.147 490.831 541.531 493.682 541.567 497.198C541.496 500.663 540.151 503.531 537.694 506.007C535.749 507.945 533.259 509.109 530.819 510.168C527.131 511.677 523.598 513.13 519.91 514.64C519.392 514.915 519.031 515.134 518.562 515.303Z"
     fill="url(#paint26_radial)"
     id="path124" />
  <defs
     id="defs349">
    <filter
       id="filter0_d"
       x="631.163"
       y="328.264"
       width="178"
       height="79"
       filterUnits="userSpaceOnUse"
       color-interpolation-filters="sRGB">
      <feFlood
         flood-opacity="0"
         result="BackgroundImageFix"
         id="feFlood126" />
      <feColorMatrix
         in="SourceAlpha"
         type="matrix"
         values="0 0 0 0 0 0 0 0 0 0 0 0 0 0 0 0 0 0 127 0"
         result="hardAlpha"
         id="feColorMatrix128" />
      <feOffset
         id="feOffset130" />
      <feGaussianBlur
         stdDeviation="5"
         id="feGaussianBlur132" />
      <feComposite
         in2="hardAlpha"
         operator="out"
         id="feComposite134" />
      <feColorMatrix
         type="matrix"
         values="0 0 0 0 0 0 0 0 0 0 0 0 0 0 0 0 0 0 0.35 0"
         id="feColorMatrix136" />
      <feBlend
         mode="normal"
         in2="BackgroundImageFix"
         result="effect1_dropShadow"
         id="feBlend138" />
      <feBlend
         mode="normal"
         in="SourceGraphic"
         in2="effect1_dropShadow"
         result="shape"
         id="feBlend140" />
    </filter>
    <filter
       id="filter1_d"
       x="640.163"
       y="336.264"
       width="160"
       height="62"
       filterUnits="userSpaceOnUse"
       color-interpolation-filters="sRGB">
      <feFlood
         flood-opacity="0"
         result="BackgroundImageFix"
         id="feFlood143" />
      <feColorMatrix
         in="SourceAlpha"
         type="matrix"
         values="0 0 0 0 0 0 0 0 0 0 0 0 0 0 0 0 0 0 127 0"
         result="hardAlpha"
         id="feColorMatrix145" />
      <feOffset
         id="feOffset147" />
      <feGaussianBlur
         stdDeviation="2"
         id="feGaussianBlur149" />
      <feComposite
         in2="hardAlpha"
         operator="out"
         id="feComposite151" />
      <feColorMatrix
         type="matrix"
         values="0 0 0 0 0 0 0 0 0 0 0 0 0 0 0 0 0 0 0.25 0"
         id="feColorMatrix153" />
      <feBlend
         mode="normal"
         in2="BackgroundImageFix"
         result="effect1_dropShadow"
         id="feBlend155" />
      <feBlend
         mode="normal"
         in="SourceGraphic"
         in2="effect1_dropShadow"
         result="shape"
         id="feBlend157" />
    </filter>
    <linearGradient
       id="paint0_linear"
       x1="-18.588"
       y1="300.786"
       x2="1453.77"
       y2="300.786"
       gradientUnits="userSpaceOnUse">
      <stop
         stop-color="#BCE3F1"
         id="stop160" />
      <stop
         offset="1"
         stop-color="#D0F7FF"
         id="stop162" />
    </linearGradient>
    <linearGradient
       id="paint1_linear"
       x1="764.227"
       y1="342.504"
       x2="764.227"
       y2="396.911"
       gradientUnits="userSpaceOnUse">
      <stop
         stop-color="white"
         id="stop165" />
      <stop
         offset="0.2"
         stop-color="#FCFCFC"
         id="stop167" />
      <stop
         offset="0.37"
         stop-color="#F1F1F1"
         id="stop169" />
      <stop
         offset="0.53"
         stop-color="#E0E0E0"
         id="stop171" />
      <stop
         offset="0.68"
         stop-color="#C8C8C8"
         id="stop173" />
      <stop
         offset="0.82"
         stop-color="#ABABAB"
         id="stop175" />
      <stop
         offset="1"
         stop-color="white"
         id="stop177" />
    </linearGradient>
    <radialGradient
       id="paint2_radial"
       cx="0"
       cy="0"
       r="1"
       gradientUnits="userSpaceOnUse"
       gradientTransform="translate(768.71 415.845) scale(114.726 100.417)">
      <stop
         offset="0.17"
         stop-color="#858585"
         id="stop180" />
      <stop
         offset="0.36"
         stop-color="#575757"
         id="stop182" />
      <stop
         offset="0.55"
         stop-color="#313131"
         id="stop184" />
      <stop
         offset="0.73"
         stop-color="#161616"
         id="stop186" />
      <stop
         offset="0.88"
         stop-color="#060606"
         id="stop188" />
      <stop
         offset="1"
         id="stop190" />
    </radialGradient>
    <radialGradient
       id="paint3_radial"
       cx="0"
       cy="0"
       r="1"
       gradientUnits="userSpaceOnUse"
       gradientTransform="translate(311.297 338.807) rotate(-15.6817) scale(29.7708)">
      <stop
         stop-color="#E33737"
         id="stop193" />
      <stop
         offset="0.526"
         stop-color="#B60000"
         id="stop195" />
      <stop
         offset="1"
         stop-color="#640D04"
         id="stop197" />
    </radialGradient>
    <radialGradient
       id="paint4_radial"
       cx="0"
       cy="0"
       r="1"
       gradientUnits="userSpaceOnUse"
       gradientTransform="translate(326.112 332.354) rotate(-15.6817) scale(20.0228)">
      <stop
         stop-color="#E33737"
         id="stop200" />
      <stop
         offset="0.0775086"
         stop-color="#E33737"
         stop-opacity="0.9225"
         id="stop202" />
      <stop
         offset="1"
         stop-color="#E33737"
         stop-opacity="0"
         id="stop204" />
    </radialGradient>
    <radialGradient
       id="paint5_radial"
       cx="0"
       cy="0"
       r="1"
       gradientUnits="userSpaceOnUse"
       gradientTransform="translate(316.981 337.355) rotate(-15.6817) scale(23.7937)">
      <stop
         stop-color="#B00000"
         stop-opacity="0"
         id="stop207" />
      <stop
         offset="0.9225"
         stop-color="#B00000"
         stop-opacity="0.9225"
         id="stop209" />
      <stop
         offset="1"
         stop-color="#B00000"
         id="stop211" />
    </radialGradient>
    <radialGradient
       id="paint6_radial"
       cx="0"
       cy="0"
       r="1"
       gradientUnits="userSpaceOnUse"
       gradientTransform="translate(324.745 352.244) rotate(-15.6817) scale(24.7009)">
      <stop
         stop-color="#B00000"
         id="stop214" />
      <stop
         offset="1"
         stop-color="#B00000"
         stop-opacity="0"
         id="stop216" />
    </radialGradient>
    <radialGradient
       id="paint7_radial"
       cx="0"
       cy="0"
       r="1"
       gradientUnits="userSpaceOnUse"
       gradientTransform="translate(1055.64 373.01) rotate(9.44578) scale(29.7708)">
      <stop
         stop-color="#E33737"
         id="stop219" />
      <stop
         offset="0.526"
         stop-color="#B60000"
         id="stop221" />
      <stop
         offset="1"
         stop-color="#640D04"
         id="stop223" />
    </radialGradient>
    <radialGradient
       id="paint8_radial"
       cx="0"
       cy="0"
       r="1"
       gradientUnits="userSpaceOnUse"
       gradientTransform="translate(1071.79 373.459) rotate(9.44578) scale(20.0228)">
      <stop
         stop-color="#E33737"
         id="stop226" />
      <stop
         offset="0.0775086"
         stop-color="#E33737"
         stop-opacity="0.9225"
         id="stop228" />
      <stop
         offset="1"
         stop-color="#E33737"
         stop-opacity="0"
         id="stop230" />
    </radialGradient>
    <radialGradient
       id="paint9_radial"
       cx="0"
       cy="0"
       r="1"
       gradientUnits="userSpaceOnUse"
       gradientTransform="translate(1061.4 374.109) rotate(9.44578) scale(23.7937)">
      <stop
         stop-color="#B00000"
         stop-opacity="0"
         id="stop233" />
      <stop
         offset="0.9225"
         stop-color="#B00000"
         stop-opacity="0.9225"
         id="stop235" />
      <stop
         offset="1"
         stop-color="#B00000"
         id="stop237" />
    </radialGradient>
    <radialGradient
       id="paint10_radial"
       cx="0"
       cy="0"
       r="1"
       gradientUnits="userSpaceOnUse"
       gradientTransform="translate(1062.1 390.886) rotate(9.44578) scale(24.7009)">
      <stop
         stop-color="#B00000"
         id="stop240" />
      <stop
         offset="1"
         stop-color="#B00000"
         stop-opacity="0"
         id="stop242" />
    </radialGradient>
    <radialGradient
       id="paint11_radial"
       cx="0"
       cy="0"
       r="1"
       gradientUnits="userSpaceOnUse"
       gradientTransform="translate(787.981 38.104) rotate(9.44578) scale(29.7708)">
      <stop
         stop-color="#E33737"
         id="stop245" />
      <stop
         offset="0.526"
         stop-color="#B60000"
         id="stop247" />
      <stop
         offset="1"
         stop-color="#640D04"
         id="stop249" />
    </radialGradient>
    <radialGradient
       id="paint12_radial"
       cx="0"
       cy="0"
       r="1"
       gradientUnits="userSpaceOnUse"
       gradientTransform="translate(804.135 38.5531) rotate(9.44578) scale(20.0228)">
      <stop
         stop-color="#E33737"
         id="stop252" />
      <stop
         offset="0.0775086"
         stop-color="#E33737"
         stop-opacity="0.9225"
         id="stop254" />
      <stop
         offset="1"
         stop-color="#E33737"
         stop-opacity="0"
         id="stop256" />
    </radialGradient>
    <radialGradient
       id="paint13_radial"
       cx="0"
       cy="0"
       r="1"
       gradientUnits="userSpaceOnUse"
       gradientTransform="translate(793.744 39.2027) rotate(9.44578) scale(23.7937)">
      <stop
         stop-color="#B00000"
         stop-opacity="0"
         id="stop259" />
      <stop
         offset="0.9225"
         stop-color="#B00000"
         stop-opacity="0.9225"
         id="stop261" />
      <stop
         offset="1"
         stop-color="#B00000"
         id="stop263" />
    </radialGradient>
    <radialGradient
       id="paint14_radial"
       cx="0"
       cy="0"
       r="1"
       gradientUnits="userSpaceOnUse"
       gradientTransform="translate(794.45 55.9801) rotate(9.44578) scale(24.7009)">
      <stop
         stop-color="#B00000"
         id="stop266" />
      <stop
         offset="1"
         stop-color="#B00000"
         stop-opacity="0"
         id="stop268" />
    </radialGradient>
    <radialGradient
       id="paint15_radial"
       cx="0"
       cy="0"
       r="1"
       gradientUnits="userSpaceOnUse"
       gradientTransform="translate(1079.61 447.425) rotate(9.44578) scale(29.7708)">
      <stop
         stop-color="#E33737"
         id="stop271" />
      <stop
         offset="0.526"
         stop-color="#B60000"
         id="stop273" />
      <stop
         offset="1"
         stop-color="#640D04"
         id="stop275" />
    </radialGradient>
    <radialGradient
       id="paint16_radial"
       cx="0"
       cy="0"
       r="1"
       gradientUnits="userSpaceOnUse"
       gradientTransform="translate(1095.77 447.874) rotate(9.44578) scale(20.0228)">
      <stop
         stop-color="#E33737"
         id="stop278" />
      <stop
         offset="0.0775086"
         stop-color="#E33737"
         stop-opacity="0.9225"
         id="stop280" />
      <stop
         offset="1"
         stop-color="#E33737"
         stop-opacity="0"
         id="stop282" />
    </radialGradient>
    <radialGradient
       id="paint17_radial"
       cx="0"
       cy="0"
       r="1"
       gradientUnits="userSpaceOnUse"
       gradientTransform="translate(1085.38 448.524) rotate(9.44578) scale(23.7937)">
      <stop
         stop-color="#B00000"
         stop-opacity="0"
         id="stop285" />
      <stop
         offset="0.9225"
         stop-color="#B00000"
         stop-opacity="0.9225"
         id="stop287" />
      <stop
         offset="1"
         stop-color="#B00000"
         id="stop289" />
    </radialGradient>
    <radialGradient
       id="paint18_radial"
       cx="0"
       cy="0"
       r="1"
       gradientUnits="userSpaceOnUse"
       gradientTransform="translate(1086.08 465.301) rotate(9.44578) scale(24.7009)">
      <stop
         stop-color="#B00000"
         id="stop292" />
      <stop
         offset="1"
         stop-color="#B00000"
         stop-opacity="0"
         id="stop294" />
    </radialGradient>
    <radialGradient
       id="paint19_radial"
       cx="0"
       cy="0"
       r="1"
       gradientUnits="userSpaceOnUse"
       gradientTransform="translate(1325.83 334.274) rotate(-18.1194) scale(29.7708)">
      <stop
         stop-color="#E33737"
         id="stop297" />
      <stop
         offset="0.526"
         stop-color="#B60000"
         id="stop299" />
      <stop
         offset="1"
         stop-color="#640D04"
         id="stop301" />
    </radialGradient>
    <radialGradient
       id="paint20_radial"
       cx="0"
       cy="0"
       r="1"
       gradientUnits="userSpaceOnUse"
       gradientTransform="translate(1340.36 327.196) rotate(-18.1194) scale(20.0228)">
      <stop
         stop-color="#E33737"
         id="stop304" />
      <stop
         offset="0.0775086"
         stop-color="#E33737"
         stop-opacity="0.9225"
         id="stop306" />
      <stop
         offset="1"
         stop-color="#E33737"
         stop-opacity="0"
         id="stop308" />
    </radialGradient>
    <radialGradient
       id="paint21_radial"
       cx="0"
       cy="0"
       r="1"
       gradientUnits="userSpaceOnUse"
       gradientTransform="translate(1331.45 332.581) rotate(-18.1194) scale(23.7937)">
      <stop
         stop-color="#B00000"
         stop-opacity="0"
         id="stop311" />
      <stop
         offset="0.9225"
         stop-color="#B00000"
         stop-opacity="0.9225"
         id="stop313" />
      <stop
         offset="1"
         stop-color="#B00000"
         id="stop315" />
    </radialGradient>
    <radialGradient
       id="paint22_radial"
       cx="0"
       cy="0"
       r="1"
       gradientUnits="userSpaceOnUse"
       gradientTransform="translate(1339.84 347.127) rotate(-18.1194) scale(24.7009)">
      <stop
         stop-color="#B00000"
         id="stop318" />
      <stop
         offset="1"
         stop-color="#B00000"
         stop-opacity="0"
         id="stop320" />
    </radialGradient>
    <radialGradient
       id="paint23_radial"
       cx="0"
       cy="0"
       r="1"
       gradientUnits="userSpaceOnUse"
       gradientTransform="translate(512.246 490.549) rotate(9.44578) scale(29.7708)">
      <stop
         stop-color="#E33737"
         id="stop323" />
      <stop
         offset="0.526"
         stop-color="#B60000"
         id="stop325" />
      <stop
         offset="1"
         stop-color="#640D04"
         id="stop327" />
    </radialGradient>
    <radialGradient
       id="paint24_radial"
       cx="0"
       cy="0"
       r="1"
       gradientUnits="userSpaceOnUse"
       gradientTransform="translate(528.4 490.998) rotate(9.44578) scale(20.0228)">
      <stop
         stop-color="#E33737"
         id="stop330" />
      <stop
         offset="0.0775086"
         stop-color="#E33737"
         stop-opacity="0.9225"
         id="stop332" />
      <stop
         offset="1"
         stop-color="#E33737"
         stop-opacity="0"
         id="stop334" />
    </radialGradient>
    <radialGradient
       id="paint25_radial"
       cx="0"
       cy="0"
       r="1"
       gradientUnits="userSpaceOnUse"
       gradientTransform="translate(518.009 491.648) rotate(9.44578) scale(23.7937)">
      <stop
         stop-color="#B00000"
         stop-opacity="0"
         id="stop337" />
      <stop
         offset="0.9225"
         stop-color="#B00000"
         stop-opacity="0.9225"
         id="stop339" />
      <stop
         offset="1"
         stop-color="#B00000"
         id="stop341" />
    </radialGradient>
    <radialGradient
       id="paint26_radial"
       cx="0"
       cy="0"
       r="1"
       gradientUnits="userSpaceOnUse"
       gradientTransform="translate(518.715 508.425) rotate(9.44578) scale(24.7009)">
      <stop
         stop-color="#B00000"
         id="stop344" />
      <stop
         offset="1"
         stop-color="#B00000"
         stop-opacity="0"
         id="stop346" />
    </radialGradient>
  </defs>
</svg>
