<svg width="717" height="549" viewBox="0 0 717 549" fill="none" xmlns="http://www.w3.org/2000/svg">
<path d="M721.19 44.3819C639.552 -70.054 550.634 79.2229 383.777 62.1405C74.7898 18.8053 185.924 259.756 113.62 281.408C82.9773 295.197 100.453 285.253 68.6602 308.377C44.9113 325.65 13.0832 369.93 4.28734 421.716C-4.96462 476.038 6.47002 539.408 6.47002 539.408L772.63 547.361C793.284 487.727 786.052 135.273 721.19 44.3819Z" fill="url(#paint0_linear)"/>
<path d="M12.7937 529.217H769.803C776.502 529.217 781.923 535.174 781.923 542.534V549.552H0.673828V542.534C0.673828 535.174 6.09506 529.217 12.7937 529.217Z" fill="#FEE2BF"/>
<path d="M575.856 213.536H447.958C435.765 213.536 425.897 202.231 425.897 188.262V137.664C425.897 123.696 435.765 112.39 447.958 112.39H575.856C588.049 112.39 597.918 123.696 597.918 137.664V188.262C597.918 202.231 588.049 213.536 575.856 213.536Z" fill="white"/>
<path d="M486.95 179.117L490.11 250.768L447.156 177.409L486.95 179.117Z" fill="white"/>
<path d="M457.397 139.175C457.348 138.11 460.668 133.141 463.911 132.24L463.77 134.933C463.77 134.933 460.741 138.967 460.654 139.014C460.567 139.06 458.044 140.152 458.044 140.152L457.397 139.175Z" fill="#DAE3E6"/>
<path d="M454.175 184.148C454.36 185.818 453.417 189.312 453.525 192.68C453.617 195.635 454.597 195.794 454.638 196.762C454.689 197.966 454.082 198.709 451.113 198.337C448.145 197.965 443.788 198.713 443.417 198.152C443.2 197.82 443.28 197.021 444.049 196.57C444.579 196.259 445.143 196.5 446.467 196.235C449.713 195.585 450.762 194.906 450.854 193.701C450.946 192.495 447.96 180.903 447.96 180.903L454.175 184.148Z" fill="#FFBA94"/>
<path d="M501.783 179.629C503.665 181.479 509.831 188.999 511.828 190.571C513.692 192.038 515.547 193.244 518.026 193.728C520.505 194.211 520.225 194.475 519.844 195.015C519.463 195.555 518.194 195.962 514.743 195.251C511.292 194.54 509.982 195.818 509.028 195.246C508.075 194.673 508.635 192.098 508.137 191.242C507.639 190.386 499.492 184.912 498.23 183.184L501.783 179.629Z" fill="#FFBA94"/>
<path d="M479.816 164.697C479.816 164.697 484.665 168.662 487.489 170.573C490.643 172.706 494.795 174.51 498.133 176.549C501.471 178.589 503.233 180.074 503.233 180.074C503.233 180.074 501.378 186.473 496.37 189.163C496.37 189.163 491.776 187.123 490.039 185.362C488.302 183.6 481.44 180.539 480.141 179.798C478.843 179.056 473.966 178.352 470.145 178.607C466.324 178.863 465.21 179.418 462.613 180.439C460.016 181.461 456.401 183.411 456.03 183.782C455.659 184.153 454.917 186.934 454.917 186.934C454.917 186.934 450.372 186.285 446.756 183.318C446.756 183.318 446.756 176.825 448.147 175.436C449.539 174.046 458.45 170.572 462.614 165.871L479.816 164.697Z" fill="#F2F2F2"/>
<path fill-rule="evenodd" clip-rule="evenodd" d="M487.19 171.016L487.19 171.016C485.761 170.049 483.829 168.569 482.264 167.339C481.479 166.722 480.783 166.166 480.283 165.763C480.033 165.562 479.832 165.399 479.693 165.286C479.675 165.272 479.658 165.258 479.642 165.245L462.866 166.39C460.715 168.744 457.459 170.768 454.601 172.362C453.652 172.892 452.732 173.381 451.908 173.82C451.462 174.058 451.044 174.28 450.664 174.486C450.118 174.782 449.65 175.045 449.278 175.274C448.897 175.509 448.652 175.688 448.525 175.814C448.292 176.047 448.057 176.579 447.862 177.38C447.675 178.149 447.548 179.062 447.462 179.949C447.376 180.833 447.333 181.677 447.312 182.3C447.301 182.611 447.296 182.867 447.293 183.044C447.293 183.051 447.293 183.057 447.293 183.064C448.985 184.399 450.87 185.231 452.363 185.732C453.136 185.991 453.799 186.16 454.266 186.264C454.364 186.286 454.452 186.305 454.532 186.321C454.608 186.054 454.71 185.702 454.824 185.337C454.942 184.962 455.073 184.566 455.202 184.237C455.266 184.073 455.332 183.917 455.398 183.785C455.456 183.667 455.54 183.516 455.652 183.404C455.743 183.313 455.886 183.214 456.021 183.126C456.171 183.028 456.361 182.912 456.581 182.784C457.022 182.528 457.598 182.214 458.24 181.88C459.524 181.214 461.095 180.462 462.417 179.942C462.625 179.86 462.825 179.781 463.018 179.704C464.015 179.308 464.843 178.979 465.778 178.721C466.904 178.41 468.176 178.203 470.109 178.074C472.062 177.943 474.271 178.058 476.156 178.298C477.1 178.419 477.97 178.571 478.692 178.743C479.401 178.911 480.012 179.108 480.406 179.333C480.712 179.508 481.364 179.828 482.227 180.252L482.255 180.266C483.102 180.682 484.129 181.186 485.17 181.722C486.222 182.263 487.295 182.84 488.218 183.395C489.129 183.943 489.934 184.494 490.42 184.986C491.224 185.803 492.739 186.72 494.108 187.451C494.782 187.812 495.403 188.118 495.855 188.334C496.056 188.43 496.223 188.508 496.346 188.565C498.601 187.274 500.182 185.179 501.213 183.347C501.744 182.405 502.122 181.544 502.367 180.92C502.473 180.651 502.554 180.426 502.611 180.258C502.599 180.249 502.587 180.24 502.575 180.23C502.362 180.063 502.043 179.817 501.619 179.508C500.772 178.89 499.51 178.017 497.854 177.005C496.41 176.123 494.812 175.285 493.191 174.436C492.959 174.314 492.726 174.192 492.493 174.069C490.645 173.097 488.794 172.101 487.19 171.016ZM503.233 180.074C503.233 180.074 501.378 186.473 496.37 189.163C496.37 189.163 491.776 187.123 490.039 185.362C488.741 184.045 484.58 182.002 482.018 180.745C481.152 180.32 480.469 179.985 480.141 179.798C478.843 179.056 473.966 178.352 470.145 178.607C466.637 178.842 465.41 179.329 463.222 180.198C463.027 180.275 462.825 180.356 462.613 180.439C460.016 181.461 456.401 183.411 456.03 183.782C455.659 184.153 454.917 186.934 454.917 186.934C454.917 186.934 450.372 186.285 446.756 183.318C446.756 183.318 446.756 176.825 448.147 175.436C448.618 174.966 449.949 174.258 451.665 173.344C455.023 171.556 459.858 168.982 462.614 165.871L479.816 164.697C479.816 164.697 484.665 168.662 487.489 170.573C489.264 171.773 491.354 172.869 493.438 173.962C495.058 174.811 496.673 175.657 498.133 176.549C501.471 178.589 503.233 180.074 503.233 180.074Z" fill="#323C6B"/>
<path d="M463.911 132.235C463.911 132.235 467.171 132.134 472.165 130.244C477.159 128.353 476.895 130.448 481.625 129.614C486.354 128.78 485.704 128.13 481.625 127.203C477.545 126.276 478.601 127.77 475.349 127.469C472.096 127.168 460.268 128.323 459.572 129.388C459.118 130.082 459.002 134.499 460.546 140.147L464.57 134.769L463.911 132.235Z" fill="#FFBA94"/>
<path d="M479.824 163.323C479.824 163.323 480.616 164.879 480.338 165.372C480.06 165.866 475.334 166.645 471.849 166.503C468.363 166.361 463.264 166.361 462.614 165.867C462.614 165.867 462.522 164.172 464.006 163.253C465.489 162.333 479.824 163.323 479.824 163.323Z" fill="#F7004A"/>
<path d="M492.264 150.745C494.773 150.444 497.668 150.915 500.286 150.827C502.751 150.745 503.998 150.394 505.621 150.496C506.946 150.576 506.37 152.314 509.144 151.92C511.918 151.526 514.047 151.595 511.283 152.709C510.042 153.209 509.328 154.102 508.07 154.054C506.528 153.997 505.323 152.979 504.801 153.028C503.852 153.117 492.264 154.899 492.264 154.899V150.745Z" fill="#FFBA94"/>
<path d="M472.166 143.302C472.537 143.726 475.689 144.087 479.307 144.087C482.926 144.087 485.79 147.73 488.767 149.188C490.807 150.186 495.163 149.995 495.163 150.459C495.163 150.923 496.276 155.679 491.083 159.017C491.083 159.017 484.684 157.255 481.067 153.823C481.067 153.823 481.018 157.897 479.821 163.469C479.821 163.469 479.428 164.303 474.962 164.489C470.496 164.675 468.64 163.377 466.601 163.84C464.561 164.303 463.354 164.118 463.354 164.118C463.354 164.118 462.497 163.065 462.611 161.668C462.983 157.105 461.145 149.286 459.83 145.762C458.068 141.032 457.396 139.182 457.396 139.182C457.769 139.152 458.135 139.062 458.479 138.915C460.704 138 463.59 134.457 463.905 132.247C463.905 132.247 466.246 137.973 466.802 138.915C467.358 139.858 467.752 141.112 469.563 141.743C472.24 142.668 472.166 143.302 472.166 143.302Z" fill="#F2F2F2"/>
<path fill-rule="evenodd" clip-rule="evenodd" d="M471.619 143.373C471.599 143.349 471.566 143.315 471.518 143.273C471.277 143.064 470.701 142.702 469.389 142.248L469.388 142.248C467.651 141.643 467.032 140.475 466.574 139.61C466.493 139.458 466.417 139.316 466.341 139.187C466.04 138.676 465.298 136.964 464.653 135.436C464.407 134.854 464.171 134.289 463.972 133.81C463.579 134.681 462.988 135.588 462.323 136.404C461.26 137.71 459.916 138.901 458.685 139.409C458.501 139.487 458.312 139.551 458.119 139.6C458.204 139.832 458.315 140.134 458.454 140.513C458.842 141.566 459.45 143.211 460.331 145.575C461.001 147.371 461.796 150.237 462.378 153.223C462.958 156.202 463.336 159.356 463.144 161.712C463.097 162.291 463.251 162.81 463.426 163.195C463.505 163.367 463.586 163.508 463.65 163.609C463.779 163.617 463.964 163.623 464.201 163.618C464.724 163.607 465.5 163.542 466.482 163.319C467.564 163.073 468.598 163.272 469.748 163.493C469.822 163.507 469.897 163.521 469.972 163.536C471.234 163.776 472.768 164.046 474.94 163.955C477.147 163.863 478.303 163.612 478.888 163.405C479.129 163.32 479.263 163.246 479.332 163.201C479.903 160.505 480.204 158.173 480.361 156.506C480.441 155.657 480.484 154.982 480.507 154.52C480.518 154.289 480.525 154.112 480.528 153.993C480.53 153.934 480.531 153.889 480.532 153.859L480.532 153.826L480.532 153.819L480.361 153.295M481.042 154.525C481.064 154.07 481.067 153.823 481.067 153.823C481.235 153.982 481.408 154.138 481.587 154.29C485.264 157.415 491.083 159.017 491.083 159.017C495.809 155.979 495.312 151.768 495.185 150.685C495.172 150.577 495.163 150.501 495.163 150.459C495.163 150.258 494.35 150.18 493.262 150.076C491.832 149.938 489.925 149.755 488.767 149.188C487.724 148.677 486.696 147.899 485.644 147.102C483.692 145.625 481.659 144.087 479.307 144.087C475.689 144.087 472.537 143.726 472.166 143.302C472.166 143.302 472.24 142.668 469.563 141.743C468.038 141.212 467.518 140.239 467.06 139.382C466.974 139.221 466.89 139.064 466.802 138.915C466.379 138.199 464.925 134.718 464.252 133.09C464.04 132.576 463.905 132.247 463.905 132.247C463.867 132.516 463.79 132.806 463.681 133.108C462.896 135.282 460.433 138.112 458.479 138.915C458.302 138.99 458.12 139.051 457.934 139.096C457.758 139.138 457.578 139.167 457.396 139.182C457.396 139.182 457.456 139.345 457.586 139.7C457.893 140.537 458.593 142.439 459.83 145.762C461.145 149.286 462.983 157.105 462.611 161.668C462.497 163.065 463.354 164.118 463.354 164.118C463.354 164.118 464.561 164.303 466.601 163.84C467.57 163.62 468.498 163.798 469.683 164.025C470.993 164.276 472.618 164.587 474.962 164.489C479.428 164.303 479.821 163.469 479.821 163.469C480.724 159.268 480.973 155.918 481.042 154.525ZM481.587 153.544C493.003 161.221 491.083 158.139 494.549 153.544C494.826 152.3 494.719 151.346 494.659 150.81C494.658 150.8 494.656 150.791 494.655 150.782C494.583 150.767 494.49 150.751 494.375 150.734C494.067 150.69 493.677 150.653 493.224 150.609C493.051 150.592 492.867 150.575 492.676 150.556C491.354 150.423 489.653 150.217 488.532 149.668C487.743 149.282 486.975 148.758 486.225 148.206C485.913 147.977 485.61 147.747 485.308 147.519C484.866 147.184 484.427 146.852 483.968 146.526C482.442 145.443 480.939 144.621 479.307 144.621C477.483 144.621 475.77 144.53 474.46 144.385C473.806 144.312 473.242 144.224 472.809 144.125C472.594 144.075 472.398 144.019 472.236 143.955C472.094 143.9 471.9 143.81 471.763 143.654L471.607 143.475L471.619 143.373" fill="#352E73"/>
<path d="M474.428 149.971C473.346 149.075 470.387 143.205 470.387 143.205L472.165 143.301L476.329 144.001L477.167 145.383L475.211 149.971H474.428Z" fill="#FFBA94"/>
<path d="M475.84 143.301C477.493 143.764 477.738 143.95 477.738 143.95C477.738 143.95 477.53 148.63 475.886 150.792L474.428 149.972C474.428 149.972 476.834 146.525 476.338 144.914L475.84 143.301Z" fill="#C2D1D6"/>
<path d="M481.019 157.896C481.019 157.894 481.019 157.893 481.019 157.891C480.666 156.759 478.769 153.084 475.89 150.791C473.01 148.498 470.696 143.228 470.696 143.228L471.605 142.669L471.63 142.653L470.989 141.679H470.314C470.11 141.697 469.91 141.751 469.725 141.838C469.245 142.106 467.967 142.546 467.758 142.687C467.722 142.71 472.231 149.803 474.994 152.066C477.91 154.454 480.481 158.176 480.496 159.896C480.496 159.896 480.496 159.902 480.496 159.906C480.496 159.909 481.367 159.022 481.019 157.896Z" fill="#E7E8E9"/>
<path d="M470.502 138.907C470.85 140.089 471.022 142.551 470.697 143.227C470.583 143.464 472.354 144.906 474.074 145.246C475.245 145.479 476.28 145.443 476.34 144.913C476.395 144.411 475.415 142.87 475.861 142.386C476.308 141.902 471.187 138.93 471.187 138.93L470.502 138.907Z" fill="#FFBA94"/>
<g style="mix-blend-mode:multiply" opacity="0.3">
<path d="M475.842 143.3C475.734 142.918 475.688 142.573 475.861 142.386C476.307 141.904 471.187 138.93 471.187 138.93L470.502 138.907C470.643 139.437 470.739 139.978 470.789 140.524V140.529C470.811 140.746 470.83 140.971 470.842 141.191C471.173 142.119 472.664 143.151 475.842 143.3Z" fill="#FACE94"/>
</g>
<path d="M478.023 133.4C478.451 133.825 479.994 133.933 480.05 134.821C480.05 134.821 480.416 134.614 480.438 134.371C480.459 134.129 480.329 133.081 480.208 132.562C480.087 132.044 479.186 131.227 478.558 130.48C477.93 129.734 476.306 129.115 475.074 128.632C473.841 128.15 470.981 128.483 470.146 130.191C470.146 130.191 468.18 130.574 467.824 133.017C467.468 135.459 468.623 138.331 469.584 139.323C470.545 140.315 471.41 140.139 471.41 140.139C471.41 140.139 475.435 134.421 475.508 134.358C475.58 134.296 478.023 133.4 478.023 133.4Z" fill="#0E2E35"/>
<path d="M472.353 137.862C471.931 137.291 471.218 136.878 470.73 137.289C470.242 137.7 470.224 138.281 470.508 138.912C471.101 140.225 471.914 140.521 472.372 140.427C472.372 140.427 472.474 141.23 473.364 141.818C474.255 142.405 476.654 143.537 477.358 143.564C478.063 143.591 478.49 142.993 478.504 142.482C478.518 141.971 478.806 142.114 479.037 141.783C479.267 141.452 478.978 141.319 478.978 141.319C478.978 141.319 479.465 141.204 479.388 141.018C479.311 140.832 479.129 140.306 479.29 140.214C479.451 140.122 480.108 139.986 479.989 139.6C479.87 139.215 479.267 138.246 479.327 137.74C479.386 137.235 479.954 136.808 480.056 136.557C480.158 136.306 480.135 134.867 479.948 134.199C479.948 134.199 478.866 132.153 475.944 133.561C473.022 134.97 472.353 137.862 472.353 137.862Z" fill="#FFBA94"/>
<path d="M480.339 165.372C480.484 165.115 480.339 164.576 480.168 164.114C480.162 164.114 477.181 165.281 475.623 165.246C475.623 165.246 477.182 165.482 479.818 164.691C479.818 164.691 478.588 167.316 462.613 165.866C463.263 166.361 468.363 166.361 471.848 166.502C475.332 166.644 480.061 165.866 480.339 165.372Z" fill="#B5107D"/>
<path d="M471.445 166.28C473.207 170.283 473.494 187.75 473.777 187.677C474.061 187.603 476.084 183.871 476.11 183.502C476.136 183.133 474.048 167.942 472.847 166.297C471.645 164.652 471.445 166.28 471.445 166.28Z" fill="#EA1B66"/>
<path d="M468.875 166.348C468.042 167.116 467.177 182.446 466.913 183.65C466.649 184.854 469.364 186.432 469.364 186.432C469.364 186.432 469.117 167.911 470.371 165.981L468.875 166.348Z" fill="#F7004A"/>
<path d="M472.018 168.291C473.316 171.281 474.404 185.729 474.404 185.729C474.404 185.729 475.31 184.661 476.113 183.501C476.087 183.87 474.064 187.602 473.78 187.676C473.53 187.744 473.293 174.55 472.018 168.291Z" fill="#AF0F5C"/>
<path d="M467.925 172.177C467.925 172.285 467.384 183.468 467.384 183.735C467.384 184.002 468.782 185.564 469.324 185.452C469.348 186.069 469.363 186.433 469.363 186.433C469.363 186.433 466.65 184.856 466.912 183.65C467.074 182.915 467.459 176.913 467.925 172.177Z" fill="#C6145C"/>
<path d="M480.294 134.707C480.294 134.707 480.458 134.744 480.494 136.253C480.52 137.326 480.242 138.4 480.004 139.444C479.645 140.994 479.133 142.601 477.871 143.653C477.208 144.205 474.347 142.511 473.65 141.166C472.959 139.815 473.241 137.213 474.24 135.913C475.226 134.604 479.984 134.104 480.294 134.707Z" fill="#FFBA94"/>
<path d="M480.056 134.332C479.945 133.707 479.314 133.45 478.778 132.799C478.778 132.799 478.667 133.871 477.243 134.293C475.061 134.942 472.382 136.252 472.15 137.368C472.15 137.368 471.451 134.065 472.74 132.627C474.029 131.189 476.664 130.571 477.962 130.679C479.259 130.787 480.235 133.008 480.235 133.008L480.056 134.332Z" fill="#0E2E35"/>
<path d="M510.626 132.51C507.348 130.238 502.556 127.592 503.312 126.71C504.069 125.829 506.342 124.944 507.978 125.701C509.614 126.457 510.25 127.936 511.383 128.963C512.516 129.99 513.779 131.127 513.779 131.127L510.626 132.51Z" fill="#F8B785"/>
<path d="M539.362 193.066C539.727 194.167 538.795 196.731 539.811 197.341C540.827 197.952 542.291 198.441 543.941 199.539C545.591 200.637 549.983 201.25 548.519 199.539C547.055 197.828 543.758 195.752 542.784 193.066C541.81 190.38 539.362 193.066 539.362 193.066Z" fill="#F8B785"/>
<path d="M541.139 146.766L512.379 128.969C512.379 128.969 509.458 132.48 509.041 133.059C509.041 133.059 523.508 144.895 526.707 147.544C529.906 150.193 533.941 154.629 534.775 156.092C535.609 157.555 536.306 165.488 536.445 167.296C536.583 169.104 537.975 193.309 537.975 193.309C537.975 193.309 542.146 194.979 544.72 193.309C544.72 193.309 545.07 171.884 545.486 170.079C545.903 168.274 547.18 161.507 547.18 161.507L541.713 147.449C541.601 147.165 541.399 146.925 541.139 146.766Z" fill="#F2F2F2"/>
<path fill-rule="evenodd" clip-rule="evenodd" d="M540.86 147.222L540.857 147.22L512.493 129.668C512.443 129.728 512.388 129.795 512.328 129.868C512.048 130.206 511.67 130.662 511.279 131.137C510.716 131.821 510.138 132.527 509.782 132.975L511.69 134.536C513.096 135.687 515.005 137.249 517.013 138.894C521.029 142.184 525.447 145.806 527.048 147.132C528.671 148.476 530.496 150.265 532.019 151.898C533.527 153.516 534.787 155.034 535.239 155.827C535.378 156.07 535.494 156.408 535.596 156.777C535.7 157.157 535.8 157.61 535.894 158.106C536.081 159.1 536.253 160.298 536.401 161.499C536.698 163.902 536.908 166.346 536.978 167.255C537.047 168.166 537.43 174.677 537.795 180.949C537.978 184.088 538.156 187.17 538.289 189.468C538.355 190.617 538.41 191.569 538.448 192.235L538.488 192.926C538.581 192.957 538.693 192.993 538.821 193.032C539.235 193.157 539.812 193.307 540.463 193.407C541.699 193.596 543.101 193.588 544.191 193.001C544.193 192.847 544.197 192.636 544.202 192.375C544.212 191.786 544.227 190.941 544.247 189.923C544.286 187.885 544.343 185.15 544.413 182.357C544.482 179.566 544.565 176.715 544.657 174.448C544.702 173.316 544.751 172.326 544.8 171.561C544.849 170.816 544.902 170.236 544.965 169.959C545.171 169.068 545.592 166.936 545.964 165.014C546.15 164.056 546.322 163.155 546.449 162.492C546.512 162.161 546.563 161.89 546.599 161.701L546.626 161.558L541.216 147.646C541.216 147.645 541.216 147.645 541.215 147.645C541.146 147.469 541.021 147.32 540.86 147.222ZM541.713 147.449L547.18 161.507C547.18 161.507 545.903 168.274 545.486 170.079C545.07 171.884 544.72 193.309 544.72 193.309C542.146 194.979 537.975 193.309 537.975 193.309C537.975 193.309 536.583 169.104 536.445 167.296C536.306 165.488 535.609 157.555 534.775 156.092C533.941 154.629 529.906 150.193 526.707 147.544C523.509 144.895 509.048 133.065 509.041 133.059C509.458 132.48 512.379 128.969 512.379 128.969L541.139 146.766C541.399 146.925 541.601 147.165 541.713 147.449Z" fill="#352E73"/>
<path d="M543.483 145.514C541.767 145.792 540.26 146.696 540.26 148.386C540.26 149.496 541.411 157.007 542.478 158.955C543.545 160.903 545.749 163.48 549.944 161.614L543.483 145.514Z" fill="#2D2861"/>
<path d="M568.577 142.629C569.248 144.13 570.976 147.219 570.976 148.385C570.976 149.097 560.574 155.293 559.224 155.941C557.873 156.589 551.196 163.267 548.511 161.227C545.827 159.188 540.628 153.53 542.483 145.74C542.483 145.74 544.801 145.332 549.16 143.684C553.52 142.036 557.311 136.934 557.311 136.934C557.311 136.934 560.818 138.22 562.593 139.199C564.369 140.179 568.577 142.629 568.577 142.629Z" fill="#F2F2F2"/>
<path fill-rule="evenodd" clip-rule="evenodd" d="M542.483 145.74C540.628 153.53 545.826 159.188 548.511 161.227C550.544 162.771 554.865 159.319 557.43 157.27C558.253 156.612 558.896 156.099 559.224 155.941C560.574 155.293 570.976 149.097 570.976 148.385C570.976 147.522 570.03 145.606 569.266 144.06C568.997 143.517 568.752 143.019 568.577 142.629C568.577 142.629 564.369 140.179 562.593 139.199C560.818 138.22 557.311 136.934 557.311 136.934C557.311 136.934 553.52 142.036 549.16 143.684C544.801 145.332 542.483 145.74 542.483 145.74ZM557.492 137.572C557.553 137.595 557.622 137.621 557.696 137.649C558.05 137.784 558.54 137.975 559.086 138.195C560.184 138.639 561.478 139.195 562.335 139.668C563.218 140.154 564.709 141.009 565.984 141.744C566.62 142.111 567.202 142.448 567.624 142.693C567.835 142.815 568.006 142.915 568.124 142.984L568.161 143.005C568.325 143.362 568.534 143.786 568.756 144.234L568.786 144.295C569.034 144.798 569.299 145.334 569.544 145.859C569.799 146.406 570.028 146.932 570.193 147.387C570.329 147.764 570.407 148.055 570.432 148.254C570.378 148.309 570.297 148.383 570.185 148.477C569.916 148.701 569.519 148.993 569.025 149.336C568.04 150.019 566.706 150.875 565.324 151.733C562.549 153.456 559.637 155.15 558.992 155.459C558.767 155.567 558.474 155.776 558.163 156.012C557.858 156.243 557.496 156.533 557.099 156.85L557.024 156.91C556.165 157.596 555.134 158.416 554.065 159.152C552.99 159.891 551.91 160.522 550.955 160.847C549.983 161.178 549.289 161.147 548.835 160.802C546.249 158.837 541.37 153.504 542.928 146.194C542.96 146.187 542.994 146.18 543.03 146.172C543.324 146.106 543.758 146.001 544.328 145.845C545.469 145.533 547.154 145.014 549.349 144.184C551.635 143.32 553.737 141.569 555.247 140.07C556.007 139.315 556.628 138.614 557.059 138.1C557.236 137.89 557.382 137.711 557.492 137.572Z" fill="#352E73"/>
<path d="M561.324 141.783L557.307 147.543L566.292 144.015L567.872 142.255L565.575 141.472L561.324 141.783Z" fill="#F8B785"/>
<path d="M567.544 139.619C567.615 138.791 570.75 138.073 571.557 134.624C572.365 131.176 571.557 128.926 569.906 127.555C568.082 126.04 562.895 126.504 561.475 128.95L567.544 139.619Z" fill="#2D2861"/>
<path d="M557.307 147.543L563.412 140.321L560.5 138.437L555.992 148.026L557.307 147.543Z" fill="#C1D0D5"/>
<path d="M560.529 130.145C560.326 129.701 561.286 128.262 562.884 127.618C564.481 126.974 560.622 130.395 560.622 130.395L560.529 130.145Z" fill="#2D2861"/>
<path d="M562.131 139.536C562.772 139.645 562.722 141.695 561.527 142.546C561.527 142.546 562.66 143.296 563.883 143.303C565.405 143.303 568.297 143.565 567.744 141.098C567.69 140.854 567.426 139.439 567.496 138.44C567.614 136.765 569.377 134.653 565.852 135.172C561.983 135.742 562.131 139.536 562.131 139.536Z" fill="#F8B785"/>
<g style="mix-blend-mode:multiply" opacity="0.3">
<path d="M567.28 136.846C567.28 136.846 563.98 139.272 562.464 139.914C562.605 140.347 562.548 141.081 562.225 141.717C567.672 141.74 567.28 136.846 567.28 136.846Z" fill="#F8B785"/>
</g>
<path d="M566.665 137.797C566.703 139.912 563.034 140.286 561.387 140.322C559.683 140.357 559.548 139.773 559.686 139.208C559.825 138.643 559.674 138.322 559.398 138.28C559.122 138.238 559.356 138.236 559.275 137.546C559.275 137.546 559.113 137.155 559.194 136.857C559.275 136.559 559.15 136.18 559.15 136.18C559.606 135.8 559.646 135.897 559.398 135.562C559.15 135.226 559.253 135.214 559.589 134.631C559.924 134.048 559.927 133.752 559.9 133.18C559.873 132.608 559.74 132.153 560.19 130.917C560.64 129.682 561.638 128.674 562.238 128.39C562.837 128.105 565.885 128.667 566.73 130.166C567.575 131.666 567.061 135.089 567.061 135.089C567.061 135.089 567.585 134.322 568.36 134.907C568.87 135.292 568.322 136.339 568.1 136.871C567.878 137.403 567.884 138.053 567.177 138.094C566.651 138.123 566.665 137.797 566.665 137.797Z" fill="#F8B785"/>
<path d="M571.095 129.315C570.927 128.964 570.568 127.251 573.138 126.671C575.708 126.091 578.609 128.316 577.828 130.283C577.047 132.25 576.892 135.741 579.052 135.939C581.212 136.137 580.134 138.589 577.97 139.896C575.806 141.203 578.328 142.969 578.328 142.969C578.328 142.969 575.125 143.418 574.934 142.115C574.65 140.191 577.03 138.713 575.712 137.919C574.394 137.125 572.69 136.626 572.634 136.03C572.578 135.433 574.121 127.776 571.365 129.961L571.095 129.315Z" fill="#2D2861"/>
<path d="M561.467 128.95C561.467 128.95 561.434 129.955 563.068 131.068C564.702 132.18 567.037 133.944 567.061 135.088C567.061 135.088 569.299 133.381 568.684 131.186C568.07 128.99 562.895 127.785 562.895 127.785L561.907 128.51L561.467 128.95Z" fill="#2D2861"/>
<path d="M557.306 136.931C555.647 136.652 542.572 137.039 541.054 138.436C538.862 140.454 541.717 143.923 543.483 145.514C545.249 147.104 555.992 140.362 555.992 140.362L557.306 136.931Z" fill="#F2F2F2"/>
<path fill-rule="evenodd" clip-rule="evenodd" d="M541.416 138.829C540.98 139.231 540.805 139.685 540.795 140.18C540.784 140.695 540.953 141.279 541.262 141.895C541.881 143.13 542.983 144.343 543.841 145.116C543.895 145.165 544.068 145.245 544.491 145.216C544.891 145.188 545.408 145.07 546.017 144.871C547.232 144.476 548.711 143.798 550.156 143.058C551.597 142.321 552.986 141.534 554.015 140.929C554.53 140.628 554.954 140.372 555.249 140.192C555.377 140.114 555.481 140.05 555.557 140.003L556.552 137.405C556.017 137.382 555.237 137.374 554.287 137.387C552.813 137.405 550.985 137.471 549.161 137.588C547.336 137.706 545.525 137.876 544.083 138.1C543.361 138.213 542.743 138.337 542.266 138.473C541.762 138.616 541.504 138.748 541.416 138.829ZM556.753 136.88C553.759 136.716 542.459 137.143 541.054 138.436C538.862 140.454 541.717 143.923 543.483 145.514C545.249 147.104 555.992 140.362 555.992 140.362L557.306 136.931C557.182 136.91 556.994 136.893 556.753 136.88Z" fill="#352E73"/>
<path d="M567.748 141.094C567.871 142.256 566.293 144.015 566.293 144.015L557.843 147.347L555.01 148.386C555.01 148.386 566.754 146.928 567.494 146.585C568.234 146.242 568.979 143.032 569.015 142.69C569.051 142.348 567.748 141.094 567.748 141.094Z" fill="#C1D0D5"/>
<path d="M552.588 152.138C552.983 151.495 554.026 151.113 554.752 151.044C555.478 150.975 558.785 149.57 559.22 149.82C559.22 149.82 556.387 153.13 556.178 153.13H553.465L552.588 152.138Z" fill="#DAE3E6"/>
<path d="M570.976 148.385C571.969 149.635 564.476 162.154 563.585 163.083C562.695 164.011 560.789 165.223 555.992 158.403L570.976 148.385Z" fill="#F2F2F2"/>
<path fill-rule="evenodd" clip-rule="evenodd" d="M571.003 148.425C570.995 148.411 570.986 148.397 570.976 148.385L555.992 158.403C556.097 158.552 556.2 158.697 556.302 158.838C560.872 165.17 562.714 163.991 563.585 163.083C564.396 162.238 570.674 151.793 571.049 148.979C571.082 148.731 571.069 148.543 571.003 148.425ZM570.409 149.407L556.747 158.541C558.963 161.608 560.462 162.79 561.437 163.146C561.923 163.324 562.264 163.291 562.515 163.2C562.781 163.103 562.999 162.921 563.199 162.713C563.271 162.638 563.459 162.384 563.754 161.94C564.037 161.513 564.396 160.949 564.8 160.291C565.607 158.974 566.592 157.291 567.518 155.598C568.445 153.902 569.306 152.209 569.873 150.87C570.115 150.296 570.298 149.801 570.409 149.407Z" fill="#352E73"/>
<path d="M558.364 150.738C558.544 147.395 555.275 147.505 553.88 149.115C553.231 149.84 553.957 151.083 554.146 150.954C555.103 150.305 554.346 149.812 554.861 150.012C554.921 150.039 554.974 150.077 555.018 150.125C555.062 150.173 555.096 150.23 555.118 150.291C555.226 150.832 554.526 151.729 555.032 152.272C555.032 152.277 558.183 154.083 558.364 150.738Z" fill="#F8B785"/>
<path d="M554.35 144.738C554.458 145.223 550.7 150.88 548.414 149.78C546.608 148.914 549.469 145.038 549.469 145.038L554.35 144.738Z" fill="#DAE3E6"/>
<path d="M549.473 147.288C549.716 147.989 550.835 147.79 551.264 148.14C551.676 148.477 550.93 149.965 551.723 149.784C553.801 149.308 555.425 146.471 552.395 145.064C549.365 143.657 549.473 147.288 549.473 147.288Z" fill="#F8B785"/>
<path d="M561.47 155.127C560.799 153.682 560.26 151.487 559.809 150.582C559.484 149.933 559.268 149.91 559.224 149.825C558.986 149.36 555.555 153.071 552.588 152.142C552.588 152.142 554.227 156.092 555.993 158.406C560.79 165.224 562.681 163.999 563.586 163.086C564.405 162.26 562.832 158.06 561.47 155.127Z" fill="#E0E3E6"/>
<path fill-rule="evenodd" clip-rule="evenodd" d="M552.855 152.759C552.684 152.374 552.588 152.142 552.588 152.142C552.798 152.208 553.011 152.251 553.225 152.273C555.076 152.466 557.003 151.147 558.162 150.354C558.757 149.947 559.149 149.678 559.224 149.825C559.236 149.847 559.259 149.866 559.294 149.892C559.39 149.966 559.57 150.105 559.809 150.582C560.02 151.007 560.251 151.715 560.506 152.497C560.795 153.382 561.113 154.36 561.47 155.127C562.832 158.06 564.405 162.26 563.586 163.086C562.681 163.999 560.79 165.224 555.993 158.406C554.655 156.653 553.39 153.961 552.855 152.759ZM553.471 152.825C553.639 153.196 553.856 153.66 554.108 154.17C554.734 155.439 555.567 156.967 556.418 158.082L556.424 158.09L556.43 158.099C558.822 161.497 560.413 162.771 561.432 163.143C561.917 163.319 562.259 163.287 562.512 163.196C562.78 163.099 563 162.918 563.206 162.71C563.206 162.711 563.206 162.711 563.206 162.711C563.205 162.711 563.237 162.672 563.259 162.541C563.281 162.404 563.285 162.21 563.26 161.958C563.212 161.453 563.061 160.798 562.834 160.052C562.383 158.565 561.66 156.806 560.985 155.352C560.633 154.596 560.322 153.655 560.048 152.818C560.035 152.776 560.021 152.734 560.008 152.693C559.743 151.882 559.523 151.208 559.33 150.821M553.471 152.825C554.85 152.866 556.193 152.222 557.204 151.616C557.684 151.329 558.124 151.028 558.475 150.787C558.595 150.706 558.704 150.631 558.801 150.566C558.907 150.496 558.992 150.44 559.061 150.399C559.116 150.457 559.208 150.577 559.33 150.821M559.234 150.307C559.234 150.307 559.233 150.308 559.23 150.309C559.233 150.308 559.234 150.307 559.234 150.307Z" fill="#352E73"/>
<path d="M541.053 138.435C539.449 138.868 538.397 143.804 548.411 149.781C548.411 149.781 550.673 144.739 554.347 144.739C554.347 144.739 554.347 143.811 549.432 142.216C546.196 141.167 543.71 137.716 541.053 138.435Z" fill="#E0E3E6"/>
<path fill-rule="evenodd" clip-rule="evenodd" d="M541.193 138.951L541.193 138.951C541.029 138.995 540.768 139.195 540.634 139.69C540.502 140.174 540.511 140.899 540.874 141.836C541.576 143.65 543.586 146.185 548.194 149.024C548.242 148.934 548.297 148.835 548.358 148.728C548.637 148.238 549.051 147.582 549.587 146.923C550.434 145.88 551.651 144.753 553.183 144.355C552.556 143.968 551.394 143.415 549.267 142.725M553.93 144.224C553.398 143.795 552.187 143.11 549.432 142.216C548.121 141.791 546.934 140.972 545.808 140.196C544.154 139.056 542.634 138.007 541.053 138.435C539.474 138.861 538.43 143.652 547.951 149.502C548.102 149.595 548.255 149.688 548.411 149.781C548.411 149.781 548.494 149.598 548.652 149.302C549.279 148.128 551.101 145.179 553.754 144.783C553.774 144.78 553.793 144.778 553.813 144.775C553.988 144.752 554.165 144.739 554.347 144.739C554.347 144.739 554.347 144.56 553.93 144.224ZM541.193 138.951C542.261 138.662 543.353 139.192 544.729 140.108L541.193 138.951ZM544.729 140.108C544.971 140.268 545.22 140.441 545.477 140.618L544.729 140.108ZM545.477 140.618C546.605 141.397 547.874 142.273 549.267 142.724L545.477 140.618Z" fill="#352E73"/>
<path d="M560.38 130.68C560.38 130.68 560.221 130.646 559.615 132.007C559.185 132.976 559.022 134.068 558.835 135.117C558.564 136.677 558.406 138.351 559.124 139.824C559.501 140.597 562.678 140.218 563.806 139.275C564.933 138.324 565.672 135.837 565.283 134.244C564.907 132.649 560.885 130.256 560.38 130.68Z" fill="#F8B785"/>
<path d="M561.468 128.508C561.094 128.733 560.535 128.492 560.278 128.755C559.699 129.335 559.686 130.486 560.096 131.208C560.693 132.254 564.283 132.729 564.633 134.811C564.633 134.811 565.667 132.265 563.581 130.619C561.158 128.712 561.468 128.508 561.468 128.508Z" fill="#2D2861"/>
<path d="M551.72 149.783C550.772 150.023 550.015 148.794 550.219 148.686C551.261 148.14 551.325 149.081 551.391 148.476C551.457 147.871 552.791 148.003 552.791 148.003L551.72 149.783Z" fill="#F8B785"/>
<path d="M545.182 174.828C542.006 175.811 540.021 175.527 540.021 175.527C540.021 175.527 541.844 176.238 544.543 175.952C544.543 175.952 542.897 176.779 541.384 176.57C541.384 176.57 542.261 177.148 545.101 177.138L545.182 174.828Z" fill="#E7E8E9"/>
<path d="M543.003 156.163C543.327 159.301 542.469 165.144 542.708 169.417C542.837 172.056 542.451 174.694 541.572 177.185C541.572 177.185 543.364 177.41 544.544 175.952C544.544 175.952 544.249 170.035 544.266 165.409C544.287 159.022 543.003 156.163 543.003 156.163Z" fill="#2D2861"/>
<path d="M541.885 153.961C541.262 157.678 540.344 168.507 540.344 168.507L541.876 169.48L542.426 153.126L541.885 153.961Z" fill="#2D2861"/>
<path d="M200.741 255.61C200.741 255.61 186.363 251.908 184.649 267.218C182.934 282.529 190.729 284.882 186.5 292.286C182.272 299.667 177.54 294.137 176.603 315.115C175.688 336.092 223.782 361.571 236.468 349.117C277.659 308.648 228.788 292.149 230.754 279.764C232.742 267.356 227.074 256.844 219.553 252.365C212.033 247.818 202.455 247.818 200.741 255.61Z" fill="#475B6F"/>
<path d="M249.589 515.703C249.589 515.703 249.338 519.702 251.372 521.964C253.406 524.227 260.972 525.438 261.978 528.02C262.984 530.602 254.366 530.762 251.463 529.962C248.56 529.162 241.017 528.545 239.12 528.454C237.223 528.363 241.543 515.795 241.932 515.452C242.32 515.086 249.589 515.703 249.589 515.703Z" fill="#FF7446"/>
<path d="M205.427 513.234C205.427 513.234 207.301 521.666 207.119 524.911C206.936 528.156 202.981 533.206 199.941 533.046C196.901 532.886 194.387 530.853 195.118 526.899C195.85 522.946 198.158 513.531 198.158 513.531L205.427 513.234Z" fill="#FF7446"/>
<path d="M182.866 371.009C182.866 371.009 180.923 306.843 183.963 303.804C185.174 302.593 195.163 299.302 201.975 298.182C212.17 296.514 220.17 297.223 220.17 297.223C220.17 297.223 230.571 309.677 230.571 314.293C230.571 318.908 231.234 371.512 231.234 371.512C239.28 374.483 251.737 427.749 252.652 441.482C253.589 455.216 251.577 519.062 251.577 519.062L239.851 517.783C233.451 507.751 230.571 454.942 228.696 448.384C226.113 439.312 213.999 411.547 213.999 411.547L207.758 408.828C207.758 408.828 209.198 450.691 208.673 460.358C208.147 470.001 208.741 516.754 208.741 516.754L196.992 516.115C187.803 499.616 181.22 423.521 181.448 419.545C181.677 415.569 177.608 409.034 176.763 397.608C176.1 388.559 182.866 371.009 182.866 371.009Z" fill="#02BBD0"/>
<path d="M203.423 371.557H224.27V369.34H203.423V371.557Z" fill="white"/>
<path d="M211.966 372.448H215.989C216.72 372.448 217.338 371.854 217.338 371.1V370.14C217.338 369.409 216.743 368.792 215.989 368.792H211.966C211.234 368.792 210.617 369.386 210.617 370.14V371.1C210.617 371.854 211.212 372.448 211.966 372.448Z" fill="#271798"/>
<path opacity="0.38" d="M182.865 371.008C182.865 371.008 181.15 314.04 183.482 304.923C186.522 302.866 196.237 299.233 198.614 299.05C198.18 303.734 202.431 330.082 206.797 343.61C209.54 352.156 209.152 362.622 208.1 370.78C207.46 375.853 206.454 380.743 205.311 385.016C205.06 385.085 198.591 388.558 187.345 388.558C186.865 388.535 182.659 388.261 177.836 387.507C179.642 379.349 182.865 371.008 182.865 371.008Z" fill="#001C41"/>
<path opacity="0.38" d="M217.405 385.633C217.154 384.834 219.074 375.556 219.668 370.757H219.691C223.646 338.674 220.08 297.816 220.034 297.199C220.263 297.428 220.948 298.205 221.863 299.302C224.651 302.866 230 310.064 230.526 313.744C230.526 313.858 230.549 313.972 230.549 314.063C230.549 314.086 230.549 314.132 230.549 314.155C230.549 314.726 230.549 315.892 230.572 317.491C230.572 317.811 230.595 318.131 230.617 318.451C230.755 331.979 231.257 371.511 231.257 371.511C233.863 372.471 236.903 378.687 239.898 387.096C230.183 387.69 218.091 387.873 217.405 385.633Z" fill="#001C41"/>
<path d="M171.482 379.373C171.46 387.416 193.129 387.988 203.415 383.372L202.295 348.501L198.752 298.822C198.752 298.822 185.746 301.404 181.311 304.421C181.311 304.421 179.871 356.065 178.614 366.576C177.357 377.065 171.482 375.717 171.482 379.373Z" fill="#F4CC1A"/>
<path d="M231.622 300.033C231.622 300.033 236.697 341.165 236.697 351.86C236.697 362.577 238.731 381.064 238.731 381.064C238.731 381.064 227.759 385.268 220.125 383.372C220.125 383.372 227.394 342.125 227.394 339.429C227.394 336.732 220.033 297.177 220.033 297.177C220.033 297.177 227.005 297.565 231.622 300.033Z" fill="#F4CC1A"/>
<path d="M238.411 518.559L252.629 519.473L252.652 515.817L237.84 514.994L238.411 518.559Z" fill="#271798"/>
<path d="M195.414 516.183L209.518 517.119L209.586 513.463L194.797 512.641L195.414 516.183Z" fill="#271798"/>
<path d="M239.92 521.164C241.04 522.581 244.697 525.483 255.395 524.203C258.184 525.323 261.338 526.397 261.978 527.997C262.984 530.579 254.366 530.739 251.463 529.939C248.56 529.139 241.017 528.522 239.12 528.431C238.091 528.385 238.914 524.637 239.92 521.164Z" fill="#001653"/>
<path d="M207.119 524.912C206.936 528.157 202.981 533.207 199.941 533.047C196.901 532.887 194.387 530.853 195.118 526.9C195.369 525.575 195.804 523.609 196.261 521.621C196.65 524.089 197.792 528.294 201.038 526.831C204.558 525.255 206.113 521.598 206.73 520.182C206.981 521.987 207.164 523.769 207.119 524.912Z" fill="#001653"/>
<path opacity="0.18" d="M237.475 367.604C233.36 367.398 228.126 367.124 222.982 366.873C223.28 365.09 223.6 363.262 223.92 361.411L237.086 362.12C237.2 363.925 237.337 365.799 237.475 367.604Z" fill="#001653"/>
<path opacity="0.18" d="M202.867 365.958C202.844 365.958 202.822 365.958 202.799 365.958C199.599 365.958 187.164 369.363 182.638 369.363C180.901 369.363 179.483 368.86 178.363 368.243C178.363 368.198 178.386 368.175 178.386 368.129C178.478 367.649 178.546 367.124 178.615 366.552C178.638 366.278 178.683 365.981 178.706 365.661C178.866 364.107 178.98 362.348 179.095 360.68H202.684L202.867 365.958Z" fill="#001653"/>
<path d="M231.53 300.124C231.53 300.124 235.37 300.924 240.81 319.113C246.227 337.303 242.639 360.657 238.89 363.079C235.141 365.501 198.774 364.61 198.774 364.61L198.637 351.516C198.637 351.516 226.181 347.22 228.901 343.861C229.564 343.039 228.421 339.52 228.65 335.521C229.358 323.227 231.53 300.124 231.53 300.124Z" fill="#FFBD00"/>
<path d="M230.182 341.919C230.182 341.919 233.953 339.337 235.37 337.6C236.788 335.864 239.622 333.533 239.736 334.767C239.874 336.001 238.571 337.783 238.571 337.783C238.571 337.783 243.714 334.196 244.399 334.744C245.085 335.293 245.748 339.154 245.291 343.405C244.811 347.655 232.765 350.74 232.765 350.74L230.182 341.919Z" fill="#FFA97A"/>
<path d="M182.09 366.644C195.211 368.838 222.892 359.08 234.115 355.561L229.91 341.005C229.91 341.005 196.857 350.145 192.514 348.203C190.365 347.243 184.879 337.051 182.867 326.7C180.81 316.12 181.313 304.42 181.313 304.42C181.313 304.42 171.804 316.851 174.501 343.13C176.536 363.193 176.307 365.661 182.09 366.644Z" fill="#FFBD00"/>
<path d="M185.402 336.755C185.402 336.755 188.488 339.383 190.911 341.348C193.334 343.313 197.105 348.615 197.105 348.615C197.105 348.615 192.625 349.689 191.048 349.849C189.471 350.008 184.305 347.129 182.499 347.312C180.693 347.495 181.219 344.821 183.436 345.278C185.63 345.735 187.825 345.964 187.825 345.964C187.825 345.964 182.659 342.582 180.236 340.594C177.813 338.629 179.779 337.143 181.745 338.743C183.71 340.342 185.859 341.256 185.859 341.256C185.859 341.256 178.91 335.384 179.916 334.15C180.922 332.916 185.402 336.755 185.402 336.755Z" fill="#FFA97A"/>
<path d="M213.908 282.826C213.908 282.826 214.639 293.223 215.622 295.486C215.896 296.126 216.377 296.605 216.902 296.971C219.645 298.799 214.754 321.947 212.262 321.422C209.588 320.873 202.936 306.523 200.81 301.861C200.17 300.49 200.742 298.822 202.136 298.205C202.136 298.205 202.136 298.205 202.159 298.205C204.467 297.177 202.776 278.142 202.776 278.142L213.908 282.826Z" fill="#FFA97A"/>
<path opacity="0.65" d="M204.204 277.388C204.204 277.388 203.72 277.685 203.781 278.507C203.882 280.107 204.628 282.095 205.254 283.535C208.181 290.162 212.419 293.361 215.326 293.818C214.599 290.459 214.074 282.095 214.074 282.095L204.204 277.388Z" fill="#DBA39A"/>
<path d="M202.363 269.96C202.363 269.96 206.15 271.186 209.701 260.226C215.324 258.009 220.49 259.677 222.433 267.013C224.376 274.348 221.564 286.002 218.135 289.589C214.707 293.177 202.775 287.19 202.363 269.96Z" fill="#FFA97A"/>
<path d="M204.056 272.337C204.056 272.337 201.244 267.973 199.507 270.486C197.77 273.023 199.301 279.055 202.593 279.352C205.839 279.695 204.056 272.337 204.056 272.337Z" fill="#F8A272"/>
<path d="M305.526 217.189H213.06C204.242 217.189 197.105 206.501 197.105 193.295V145.459C197.105 132.253 204.242 121.565 213.06 121.565H305.558C314.376 121.565 321.514 132.253 321.514 145.459V193.295C321.514 206.501 314.345 217.189 305.526 217.189Z" fill="white"/>
<path d="M233.662 208.339L229.498 255.086L270.441 207.091L233.662 208.339Z" fill="white"/>
<path d="M231.586 137.226H284.024V189.665H231.586V137.226Z" fill="#E7AA6C"/>
<path d="M284.023 190.096H231.585C231.47 190.096 231.36 190.051 231.279 189.97C231.198 189.889 231.152 189.779 231.152 189.664V137.225C231.152 137.111 231.198 137.001 231.279 136.92C231.36 136.839 231.47 136.793 231.585 136.793H284.023C284.138 136.793 284.248 136.839 284.329 136.92C284.41 137.001 284.456 137.111 284.456 137.225V189.664C284.456 189.779 284.41 189.889 284.329 189.97C284.248 190.051 284.138 190.096 284.023 190.096ZM232.016 189.231H283.591V137.658H232.017L232.016 189.231Z" fill="#323C6B"/>
<path d="M235.859 141.246H279.751V185.646H235.859V141.246Z" fill="#89C5CD"/>
<path d="M279.751 141.246V185.645H276.915V143.842H235.859V141.246H279.751Z" fill="#6EAAAD"/>
<path d="M228.4 189.664H287.211V193.283H228.4V189.664Z" fill="#E7AA6C"/>
<path d="M287.21 193.715H228.399C228.285 193.715 228.175 193.67 228.093 193.589C228.012 193.508 227.967 193.398 227.967 193.283V189.664C227.967 189.55 228.012 189.44 228.093 189.359C228.175 189.277 228.285 189.232 228.399 189.232H287.21C287.325 189.232 287.435 189.277 287.516 189.359C287.597 189.44 287.642 189.55 287.642 189.664V193.283C287.642 193.398 287.597 193.508 287.516 193.589C287.435 193.67 287.325 193.715 287.21 193.715ZM228.832 192.851H286.778V190.097H228.832V192.851Z" fill="#323C6B"/>
<path d="M252.141 150.458C252.027 150.458 251.917 150.413 251.836 150.331C251.755 150.25 251.709 150.14 251.709 150.026V149.201C251.709 149.087 251.755 148.977 251.836 148.896C251.917 148.815 252.027 148.769 252.141 148.769C252.256 148.769 252.366 148.815 252.447 148.896C252.528 148.977 252.574 149.087 252.574 149.201V150.026C252.574 150.14 252.528 150.25 252.447 150.331C252.366 150.413 252.256 150.458 252.141 150.458Z" fill="#323C6B"/>
<path d="M248.415 151.25C248.331 151.25 248.249 151.226 248.178 151.18C248.108 151.133 248.053 151.068 248.019 150.991L247.684 150.239C247.637 150.134 247.634 150.015 247.675 149.908C247.716 149.8 247.798 149.714 247.903 149.667C248.008 149.621 248.127 149.617 248.234 149.659C248.341 149.7 248.428 149.782 248.474 149.887L248.81 150.639C248.833 150.691 248.846 150.747 248.847 150.804C248.849 150.86 248.839 150.917 248.818 150.97C248.798 151.023 248.767 151.071 248.728 151.113C248.689 151.154 248.642 151.187 248.59 151.21C248.535 151.236 248.475 151.25 248.415 151.25Z" fill="#323C6B"/>
<path d="M245.326 153.492C245.219 153.492 245.116 153.453 245.036 153.381L244.424 152.83C244.339 152.753 244.288 152.645 244.282 152.531C244.276 152.416 244.316 152.304 244.393 152.219C244.469 152.133 244.577 152.082 244.692 152.076C244.806 152.07 244.918 152.11 245.004 152.187L245.616 152.739C245.681 152.797 245.727 152.874 245.747 152.959C245.768 153.045 245.762 153.134 245.731 153.216C245.699 153.297 245.644 153.368 245.572 153.417C245.499 153.467 245.414 153.493 245.326 153.493V153.492Z" fill="#323C6B"/>
<path d="M243.421 156.794C243.376 156.794 243.331 156.787 243.288 156.773L242.504 156.519C242.45 156.502 242.399 156.474 242.355 156.437C242.312 156.401 242.276 156.355 242.249 156.305C242.223 156.254 242.207 156.198 242.203 156.141C242.198 156.084 242.205 156.027 242.222 155.973C242.24 155.918 242.268 155.868 242.306 155.825C242.343 155.781 242.388 155.746 242.439 155.72C242.49 155.694 242.546 155.679 242.603 155.675C242.66 155.671 242.718 155.678 242.772 155.696L243.555 155.951C243.653 155.982 243.737 156.048 243.791 156.136C243.845 156.224 243.866 156.328 243.85 156.43C243.834 156.532 243.782 156.624 243.704 156.691C243.625 156.758 243.525 156.795 243.422 156.795L243.421 156.794Z" fill="#323C6B"/>
<path d="M242.202 160.671C242.087 160.677 241.975 160.637 241.889 160.56C241.804 160.483 241.753 160.375 241.747 160.261C241.741 160.146 241.781 160.034 241.857 159.948C241.934 159.863 242.042 159.812 242.157 159.806L242.976 159.719C243.032 159.713 243.09 159.717 243.145 159.733C243.199 159.749 243.251 159.775 243.295 159.811C243.339 159.847 243.376 159.892 243.403 159.942C243.43 159.992 243.446 160.047 243.451 160.104C243.463 160.218 243.429 160.332 243.357 160.421C243.285 160.51 243.181 160.567 243.067 160.579L242.248 160.666L242.202 160.671Z" fill="#323C6B"/>
<path d="M243.487 164.626C243.392 164.626 243.299 164.594 243.224 164.536C243.148 164.478 243.094 164.397 243.069 164.305C243.045 164.213 243.051 164.116 243.088 164.028C243.124 163.94 243.188 163.866 243.271 163.819L243.984 163.406C244.084 163.35 244.201 163.335 244.311 163.365C244.422 163.395 244.516 163.467 244.573 163.566C244.63 163.665 244.645 163.782 244.616 163.893C244.587 164.003 244.515 164.097 244.417 164.155L243.703 164.568C243.638 164.606 243.563 164.626 243.487 164.626Z" fill="#323C6B"/>
<path d="M258.958 153.492C258.87 153.492 258.785 153.465 258.713 153.416C258.641 153.366 258.585 153.296 258.554 153.214C258.523 153.133 258.517 153.043 258.537 152.958C258.558 152.873 258.604 152.796 258.669 152.738L259.281 152.186C259.366 152.109 259.479 152.069 259.593 152.075C259.708 152.081 259.815 152.132 259.892 152.218C259.969 152.303 260.009 152.415 260.003 152.53C259.997 152.644 259.946 152.752 259.861 152.829L259.248 153.38C259.169 153.452 259.065 153.492 258.958 153.492Z" fill="#323C6B"/>
<path d="M255.873 151.25C255.814 151.25 255.755 151.237 255.7 151.213C255.648 151.19 255.602 151.157 255.562 151.115C255.523 151.074 255.493 151.026 255.472 150.973C255.452 150.92 255.442 150.863 255.443 150.807C255.445 150.75 255.458 150.694 255.481 150.642L255.816 149.889C255.863 149.785 255.949 149.703 256.056 149.662C256.164 149.62 256.283 149.624 256.387 149.67C256.492 149.717 256.574 149.803 256.615 149.91C256.656 150.018 256.653 150.137 256.607 150.241L256.271 150.994C256.237 151.071 256.181 151.136 256.11 151.181C256.04 151.227 255.957 151.25 255.873 151.25Z" fill="#323C6B"/>
<path d="M256.903 154.286C255.713 153.119 254.139 152.427 252.476 152.34C250.812 152.253 249.174 152.776 247.87 153.812C246.565 154.847 245.684 156.324 245.391 157.964C245.099 159.604 245.416 161.294 246.282 162.717H256.903V154.286Z" fill="#FCD462"/>
<path d="M256.907 154.29V162.717H256.175V155.954C255.44 155.237 254.553 154.696 253.58 154.369C252.607 154.043 251.573 153.94 250.555 154.068C249.537 154.195 248.561 154.551 247.699 155.108C246.837 155.665 246.111 156.409 245.576 157.285C245.904 156.151 246.52 155.122 247.365 154.297C248.209 153.473 249.252 152.881 250.393 152.579C251.534 152.277 252.733 152.276 253.875 152.576C255.016 152.876 256.06 153.466 256.906 154.29H256.907Z" fill="#F7BE56"/>
<path d="M279.751 147.151V157.118H275.059C274.268 157.129 273.504 156.827 272.933 156.279C272.361 155.732 272.029 154.981 272.006 154.19C272.005 154.109 272.008 154.029 272.015 153.948C272.05 153.479 272.194 153.023 272.436 152.619C272.678 152.215 273.011 151.873 273.409 151.62C273.806 151.367 274.257 151.211 274.726 151.163C275.194 151.115 275.668 151.177 276.108 151.344C276.101 151.278 276.098 151.211 276.1 151.144C276.099 150.143 276.474 149.178 277.15 148.439C277.826 147.7 278.754 147.241 279.751 147.151Z" fill="#E0E0E0"/>
<path d="M279.75 157.551H275.058C274.152 157.563 273.277 157.217 272.625 156.588C271.972 155.959 271.594 155.098 271.573 154.192C271.571 154.097 271.575 154.001 271.584 153.905C271.622 153.42 271.762 152.949 271.994 152.522C272.226 152.095 272.546 151.721 272.933 151.426C273.319 151.131 273.764 150.921 274.237 150.809C274.71 150.697 275.202 150.686 275.68 150.777C275.761 149.733 276.212 148.751 276.95 148.008C277.689 147.265 278.668 146.809 279.712 146.721C279.772 146.716 279.832 146.723 279.889 146.742C279.946 146.762 279.998 146.793 280.042 146.833C280.087 146.874 280.122 146.923 280.146 146.979C280.17 147.034 280.183 147.093 280.182 147.153V157.118C280.182 157.233 280.137 157.343 280.056 157.424C279.975 157.505 279.865 157.551 279.75 157.551ZM275.033 151.583C274.88 151.583 274.726 151.597 274.575 151.623C274.009 151.724 273.493 152.01 273.108 152.437C272.722 152.863 272.489 153.406 272.445 153.979C272.439 154.05 272.436 154.121 272.437 154.192C272.458 154.869 272.744 155.511 273.235 155.978C273.725 156.446 274.38 156.7 275.058 156.688H279.317V147.655C278.524 147.83 277.815 148.273 277.307 148.908C276.8 149.542 276.526 150.332 276.53 151.145C276.529 151.193 276.53 151.242 276.535 151.29C276.545 151.364 276.535 151.439 276.507 151.508C276.479 151.577 276.433 151.638 276.375 151.684C276.316 151.73 276.247 151.761 276.174 151.772C276.1 151.784 276.025 151.776 275.955 151.75C275.66 151.639 275.348 151.581 275.033 151.581V151.583Z" fill="#323C6B"/>
<path d="M247.615 182.558C247.126 182.788 246.591 182.904 246.051 182.899H235.859V172.401C236.451 171.695 237.229 171.169 238.105 170.882C238.981 170.596 239.919 170.561 240.814 170.781C241.709 171.001 242.524 171.467 243.167 172.127C243.81 172.787 244.256 173.613 244.453 174.514C244.97 174.359 245.511 174.297 246.05 174.33C247.001 174.402 247.902 174.785 248.613 175.42C249.325 176.056 249.807 176.908 249.985 177.845C250.163 178.782 250.027 179.751 249.598 180.603C249.17 181.455 248.472 182.142 247.614 182.558L247.615 182.558Z" fill="#EEEFEE"/>
<path d="M248.254 182.175C248.591 181.472 248.729 180.689 248.654 179.913C248.556 178.894 248.101 177.942 247.371 177.226C246.64 176.509 245.68 176.073 244.659 175.994C244.12 175.961 243.579 176.023 243.062 176.178C242.821 175.079 242.212 174.096 241.336 173.391C240.46 172.686 239.37 172.302 238.245 172.301C237.409 172.299 236.586 172.514 235.857 172.925V172.401C236.449 171.695 237.227 171.169 238.103 170.882C238.979 170.596 239.917 170.561 240.812 170.781C241.707 171.001 242.522 171.467 243.165 172.127C243.808 172.787 244.254 173.613 244.451 174.514C244.968 174.359 245.509 174.297 246.048 174.33C246.936 174.396 247.782 174.734 248.471 175.298C249.16 175.861 249.659 176.623 249.899 177.48C250.14 178.337 250.111 179.248 249.817 180.088C249.522 180.928 248.976 181.657 248.253 182.175H248.254Z" fill="#E1E6E9"/>
<path d="M279.75 186.077H235.858C235.744 186.077 235.634 186.031 235.552 185.95C235.471 185.869 235.426 185.759 235.426 185.645V141.246C235.426 141.131 235.471 141.021 235.552 140.94C235.634 140.859 235.744 140.813 235.858 140.813H279.75C279.865 140.813 279.975 140.859 280.056 140.94C280.137 141.021 280.183 141.131 280.183 141.246V185.645C280.183 185.759 280.137 185.869 280.056 185.95C279.975 186.031 279.865 186.077 279.75 186.077ZM236.291 185.212H279.318V141.678H236.291V185.212Z" fill="#323C6B"/>
<path d="M256.903 163.149H246.283C246.208 163.149 246.135 163.13 246.07 163.093C246.005 163.057 245.95 163.004 245.912 162.94C245 161.427 244.671 159.634 244.985 157.896C245.299 156.158 246.235 154.593 247.619 153.495C249.002 152.397 250.738 151.84 252.502 151.929C254.266 152.017 255.938 152.745 257.204 153.976C257.246 154.016 257.279 154.064 257.302 154.117C257.324 154.171 257.336 154.228 257.336 154.286V162.718C257.336 162.832 257.29 162.942 257.209 163.023C257.128 163.104 257.018 163.149 256.903 163.149ZM246.533 162.284H256.471V154.473C255.353 153.438 253.903 152.836 252.381 152.774C250.859 152.713 249.365 153.196 248.168 154.138C246.97 155.079 246.148 156.417 245.848 157.91C245.548 159.403 245.791 160.955 246.533 162.285V162.284Z" fill="#323C6B"/>
<path d="M255.971 137.226H259.639V189.665H255.971V137.226Z" fill="#E7AA6C"/>
<path d="M259.639 190.096H255.971C255.857 190.096 255.747 190.051 255.666 189.97C255.585 189.889 255.539 189.779 255.539 189.664V137.225C255.539 137.111 255.585 137.001 255.666 136.92C255.747 136.839 255.857 136.793 255.971 136.793H259.639C259.753 136.793 259.863 136.839 259.944 136.92C260.025 137.001 260.071 137.111 260.071 137.225V189.664C260.071 189.779 260.025 189.889 259.944 189.97C259.863 190.051 259.753 190.096 259.639 190.096ZM256.404 189.231H259.206V137.658H256.404V189.231Z" fill="#323C6B"/>
<path d="M231.586 161.61H284.024V165.278H231.586V161.61Z" fill="#E7AA6C"/>
<path d="M284.023 165.711H231.585C231.47 165.711 231.36 165.666 231.279 165.584C231.198 165.503 231.152 165.393 231.152 165.279V161.612C231.152 161.497 231.198 161.387 231.279 161.306C231.36 161.225 231.47 161.179 231.585 161.179H284.023C284.138 161.179 284.248 161.225 284.329 161.306C284.41 161.387 284.456 161.497 284.456 161.612V165.28C284.455 165.394 284.41 165.504 284.329 165.585C284.248 165.666 284.138 165.711 284.023 165.711ZM232.016 164.846H283.591V162.044H232.017L232.016 164.846Z" fill="#323C6B"/>
<path d="M246.049 183.33H235.858C235.744 183.33 235.634 183.284 235.552 183.203C235.471 183.122 235.426 183.012 235.426 182.897V172.401C235.426 172.299 235.461 172.201 235.526 172.123C236.146 171.384 236.953 170.825 237.863 170.506C238.774 170.187 239.753 170.12 240.698 170.311C241.644 170.502 242.52 170.944 243.235 171.592C243.95 172.239 244.477 173.067 244.761 173.989C245.193 173.904 245.635 173.875 246.075 173.903C247.198 173.989 248.255 174.468 249.06 175.257C249.864 176.045 250.365 177.093 250.473 178.214C250.568 179.183 250.363 180.157 249.885 181.004C249.407 181.852 248.679 182.532 247.801 182.951C247.253 183.207 246.654 183.336 246.049 183.33ZM236.291 182.465H246.049C246.524 182.47 246.995 182.369 247.426 182.169C248.198 181.795 248.826 181.177 249.212 180.41C249.598 179.643 249.72 178.77 249.56 177.927C249.4 177.083 248.966 176.316 248.326 175.744C247.686 175.172 246.875 174.827 246.019 174.763C245.532 174.732 245.044 174.789 244.577 174.929C244.519 174.946 244.459 174.951 244.4 174.944C244.34 174.937 244.283 174.917 244.231 174.887C244.18 174.857 244.135 174.816 244.101 174.768C244.066 174.72 244.041 174.665 244.029 174.607C243.852 173.798 243.455 173.055 242.883 172.457C242.31 171.86 241.584 171.432 240.784 171.22C239.984 171.009 239.141 171.023 238.348 171.26C237.555 171.497 236.843 171.948 236.29 172.563L236.291 182.465Z" fill="#323C6B"/>
<path d="M228.991 142.688C228.876 142.688 228.766 142.643 228.685 142.562C228.604 142.48 228.559 142.371 228.559 142.256V134.631C228.559 134.516 228.604 134.406 228.685 134.325C228.766 134.244 228.876 134.199 228.991 134.199H232.508C232.622 134.199 232.732 134.244 232.813 134.325C232.894 134.406 232.94 134.516 232.94 134.631C232.94 134.746 232.894 134.856 232.813 134.937C232.732 135.018 232.622 135.064 232.508 135.064H229.423V142.256C229.423 142.371 229.378 142.48 229.297 142.562C229.216 142.643 229.106 142.688 228.991 142.688Z" fill="#323C6B"/>
<path d="M235.859 135.064H234.958C234.843 135.064 234.733 135.018 234.652 134.937C234.571 134.856 234.525 134.746 234.525 134.631C234.525 134.516 234.571 134.406 234.652 134.325C234.733 134.244 234.843 134.199 234.958 134.199H235.859C235.974 134.199 236.084 134.244 236.165 134.325C236.246 134.406 236.291 134.516 236.291 134.631C236.291 134.746 236.246 134.856 236.165 134.937C236.084 135.018 235.974 135.064 235.859 135.064Z" fill="#323C6B"/>
<path d="M286.618 160.455C286.503 160.455 286.393 160.409 286.312 160.328C286.231 160.247 286.186 160.137 286.186 160.022V159.013C286.186 158.898 286.231 158.788 286.312 158.707C286.393 158.626 286.503 158.581 286.618 158.581C286.733 158.581 286.843 158.626 286.924 158.707C287.005 158.788 287.05 158.898 287.05 159.013V160.022C287.05 160.137 287.005 160.247 286.924 160.328C286.843 160.409 286.733 160.455 286.618 160.455Z" fill="#323C6B"/>
<path d="M286.618 172.382C286.503 172.382 286.393 172.336 286.312 172.255C286.231 172.174 286.186 172.064 286.186 171.95V163.409C286.186 163.294 286.231 163.184 286.312 163.103C286.393 163.022 286.503 162.977 286.618 162.977C286.733 162.977 286.843 163.022 286.924 163.103C287.005 163.184 287.05 163.294 287.05 163.409V171.95C287.05 172.064 287.005 172.174 286.924 172.255C286.843 172.336 286.733 172.382 286.618 172.382Z" fill="#323C6B"/>
<path d="M262.552 172.773C262.409 172.773 262.271 172.716 262.17 172.614C262.069 172.513 262.012 172.375 262.012 172.232V171.678C262.012 171.534 262.069 171.397 262.17 171.296C262.271 171.194 262.409 171.137 262.552 171.137C262.696 171.137 262.833 171.194 262.934 171.296C263.036 171.397 263.093 171.534 263.093 171.678V172.232C263.093 172.375 263.036 172.513 262.934 172.614C262.833 172.716 262.696 172.773 262.552 172.773Z" fill="white"/>
<path d="M262.552 181.687C262.409 181.687 262.271 181.63 262.17 181.528C262.069 181.427 262.012 181.289 262.012 181.146V174.368C262.012 174.225 262.069 174.087 262.17 173.986C262.271 173.885 262.409 173.828 262.552 173.828C262.696 173.828 262.833 173.885 262.934 173.986C263.036 174.087 263.093 174.225 263.093 174.368V181.144C263.093 181.215 263.079 181.285 263.052 181.351C263.025 181.417 262.986 181.477 262.935 181.527C262.885 181.578 262.825 181.618 262.76 181.645C262.694 181.673 262.623 181.687 262.552 181.687Z" fill="white"/>
<path d="M210.755 281.419L219.175 281.433C219.175 281.433 218.951 284.68 215.255 284.79C210.756 284.901 210.755 281.419 210.755 281.419Z" fill="white"/>
<path d="M626.938 515.333C626.938 515.333 626.96 515.653 626.96 516.201C626.96 517.846 626.694 521.457 624.501 524.131C621.578 527.695 621.556 532.128 624.656 532.883C627.757 533.637 635.11 532.631 635.11 532.631C635.11 532.631 636.771 529.249 635.642 520.2C634.512 511.151 633.848 501.211 633.848 501.211L625.454 499.68L626.938 515.333Z" fill="#FF7446"/>
<path d="M625.279 519.173C625.279 519.173 622.156 524.131 621.425 526.188C620.694 528.245 620.849 533.386 621.425 533.912C626.452 538.573 636.02 534.369 636.02 534.369C636.02 534.369 636.685 530.964 637.017 526.759C637.349 522.577 637.172 518.67 636.02 518.67C634.891 518.67 634.691 520.864 632.1 520.247C629.531 519.653 627.936 518.556 625.279 519.173Z" fill="#422F7F"/>
<path d="M636.816 528.861C634.867 529.753 632.232 530.781 629.796 531.192C627.182 531.626 623.661 530.255 621.003 528.907C620.87 531.101 621.07 533.569 621.446 533.911C626.474 538.573 636.041 534.368 636.041 534.368C636.041 534.368 636.484 532.038 636.816 528.861Z" fill="white"/>
<path d="M602.688 509.369C603.773 513.39 602.71 517.801 599.897 520.452C598.923 521.366 597.815 522.234 596.553 522.874C591.658 525.387 585.324 524.816 584.438 529.958C583.552 535.099 615.467 528.518 615.467 528.518C615.467 528.518 613.252 516.018 613.119 513.916C612.986 511.814 613.318 504.136 613.318 504.136L601.004 503.107L602.688 509.369Z" fill="#FF7446"/>
<path d="M614.181 519.653C614.181 519.653 614.58 521.641 615.466 525C616.352 528.359 615.798 531.536 615.798 531.536C615.798 531.536 585.921 533.204 584.703 532.084C583.485 530.987 584.105 526.943 584.415 526.577C584.725 526.211 588.512 525.023 590.461 523.606C592.41 522.212 599.054 516.888 601.291 517.094C603.528 517.299 604.569 519.242 608.844 519.47C613.096 519.722 613.118 518.67 614.181 519.653Z" fill="#422F7F"/>
<path d="M584.705 532.083C585.924 533.18 615.801 531.535 615.801 531.535C615.801 531.535 616.177 529.455 615.823 526.873C600.231 530.255 584.417 526.576 584.417 526.576C584.107 526.942 583.487 530.986 584.705 532.083Z" fill="white"/>
<path d="M615.821 526.873C605.168 529.364 593.363 528.838 584.416 526.576C600.672 529.455 613.805 527.216 612.897 527.33C612.942 527.33 616.02 526.85 615.821 526.873Z" fill="#9CB9BD"/>
<path d="M639.275 386.43L636.463 513.048L623.041 511.06C623.041 511.06 618.789 409.441 616.286 406.425C613.806 403.408 612.809 406.607 612.809 406.607C612.809 406.607 602.09 448.882 604.083 457.314C606.076 465.746 614.98 510.923 614.98 510.923L602.09 511.517C602.09 511.517 587.384 476.875 587.384 452.79C587.384 428.704 596.464 388.646 596.464 388.646L639.275 386.43Z" fill="#422F7F"/>
<path d="M615.478 511.463H599.975V507.738H615.478V511.463Z" fill="#021753"/>
<path d="M637.656 513.051H621.998V508.343H637.656V513.051Z" fill="#021753"/>
<path d="M633.583 510.191C633.561 510.191 633.517 510.191 633.494 510.168C633.273 510.099 633.14 509.848 633.184 509.597C635.665 496.183 635.82 409.051 635.82 408.183C635.82 407.909 635.997 407.703 636.219 407.703C636.44 407.703 636.617 407.909 636.617 408.183C636.617 411.771 636.462 496.297 633.959 509.802C633.937 510.031 633.76 510.191 633.583 510.191Z" fill="#021753"/>
<path d="M612.787 510.192C612.632 510.192 612.477 510.078 612.411 509.872C611.813 507.884 597.661 461.108 598.458 454.664C599.255 448.288 608.292 408.207 608.668 406.493C608.734 406.242 608.934 406.082 609.155 406.151C609.377 406.219 609.487 406.493 609.443 406.745C609.355 407.156 600.031 448.494 599.255 454.801C598.48 461.016 613.031 509.05 613.164 509.53C613.23 509.781 613.142 510.055 612.92 510.147C612.876 510.192 612.832 510.192 612.787 510.192Z" fill="#021753"/>
<path d="M598.855 297.744L580.096 323.269L602.199 331.587L598.855 297.744Z" fill="#DCD9DB"/>
<path d="M647.648 289.517C644.791 286.57 638.168 284.422 633.85 283.256C631.369 282.593 628.778 282.434 626.231 282.799L616.508 284.17C616.508 284.17 603.862 292.557 599.122 297.447C594.383 302.337 590.086 332.958 590.086 332.958L592.235 344.635L589.754 396.004C590.839 396.004 623.462 400.117 641.601 394.519C641.601 394.519 641.601 367.12 642.111 350.484C644.259 337.802 651.435 293.402 647.648 289.517Z" fill="white"/>
<path d="M647.449 289.312C645.965 287.872 643.662 286.707 641.779 285.907C641.779 285.907 638.191 283.874 634.935 297.744C631.68 311.615 635.821 328.479 634.36 329.964C632.92 331.45 601.183 329.759 601.183 329.759C601.183 329.759 619.72 340.773 628.778 348.794C632.411 352.016 642.045 353.707 642.045 353.593C642.067 352.496 642.111 351.445 642.133 350.439C643.152 344.338 651.834 293.517 647.449 289.312Z" fill="#DCD9DB"/>
<path d="M567.384 318.538L583.33 349.615C583.707 350.347 584.46 350.781 585.235 350.735L604.171 349.593C605.522 349.501 606.43 348.084 605.965 346.759L596.198 318.401C595.932 317.601 595.223 317.052 594.404 317.007L569.289 315.453C567.694 315.316 566.631 317.075 567.384 318.538Z" fill="#F7CC7F"/>
<path d="M607.449 346.577L597.549 318.47C597.261 317.671 596.553 317.122 595.733 317.076L594.759 317.008C595.335 317.213 595.8 317.693 595.999 318.287L605.899 346.646C606.32 347.857 605.611 349.159 604.437 349.434L605.633 349.365C607.006 349.297 607.914 347.903 607.449 346.577Z" fill="#DB9044"/>
<path d="M643.15 327.313L641.644 332.889C641.644 332.889 609.596 324.365 605.831 322.491C602.797 320.983 590.704 317.647 586.186 317.967C585.455 318.012 585.367 319.087 586.076 319.269C588.91 319.978 594.558 321.44 594.558 322.034C594.558 322.811 588.888 323.954 589.287 324.914C590.106 326.833 592.897 327.93 593.429 329.735C593.96 331.518 599.718 330.124 601.69 330.124C603.661 330.124 640.226 353.021 651.278 347.582C662.329 342.143 655.641 318.058 655.641 318.058L643.15 327.313Z" fill="#F99662"/>
<path d="M583.064 339.265C582.333 338.511 582.378 336.637 581.514 335.768C580.672 334.9 579.742 336.66 579.52 334.672C579.299 332.684 580.65 329.621 579.343 329.781C578.037 329.941 576.221 335.517 576.221 335.517C575.268 337.802 579.52 346.303 581.78 345.732C584.039 345.16 584.902 342.395 584.902 341.116C584.902 339.836 583.795 340.019 583.064 339.265Z" fill="#F99662"/>
<path d="M616.508 284.171C616.486 284.171 616.486 284.194 616.464 284.194C616.464 284.194 616.441 284.194 616.441 284.217C616.419 284.217 616.419 284.239 616.397 284.239L616.375 284.262C616.353 284.285 616.331 284.285 616.309 284.308L616.286 284.331C616.264 284.354 616.22 284.376 616.198 284.399C616.198 284.399 616.198 284.399 616.176 284.399C616.176 284.399 616.153 284.399 616.153 284.422C616.153 284.422 616.131 284.422 616.131 284.445C616.109 284.445 616.109 284.468 616.087 284.468C616.087 284.468 616.065 284.468 616.065 284.491C615.998 284.536 615.932 284.582 615.866 284.628C615.843 284.628 615.843 284.651 615.821 284.651C614.625 285.45 612.056 287.21 609.199 289.289C609.199 289.289 608.025 294.202 608.579 297.333C609.133 300.487 610.329 301.469 612.012 300.761C613.695 300.052 616.884 295.414 617.615 295.665C618.346 295.916 623.241 302.269 625.61 301.286C627.205 300.624 631.989 289.838 634.381 283.417C634.204 283.371 634.049 283.325 633.871 283.28C631.391 282.617 628.8 282.457 626.253 282.823L616.508 284.171Z" fill="white"/>
<path d="M611.414 276.218C612.167 280.331 612.544 284.787 611.857 287.37C611.857 287.37 613.43 294.431 617.372 294.773C621.314 295.116 628.756 282.639 628.756 282.639L620.561 269.363L611.414 276.218Z" fill="#F99662"/>
<path opacity="0.4" d="M612.188 282.685C616.905 281.839 621.335 278.115 622.553 272.562L620.559 269.317L611.413 276.195C611.811 278.389 612.099 280.651 612.188 282.685Z" fill="#F26E5A"/>
<path d="M603.02 251.264C603.02 251.264 599.167 276.218 606.055 279.097C612.942 281.976 622.267 277.361 622.975 268.883C623.684 260.428 621.912 243.175 603.02 251.264Z" fill="#F99662"/>
<path d="M610.018 246.146C610.018 246.146 596.862 242.147 596.087 246.1C595.312 250.053 599.63 253.001 602.665 253.275C605.677 253.55 613.384 253.138 615.732 255.995C618.079 258.851 622.265 272.082 622.265 272.082L624.635 275.921C624.635 275.921 625.61 268.951 628.998 264.701C632.409 260.451 630.482 253.116 627.226 248.088C623.948 243.061 612.985 246.42 610.018 246.146Z" fill="#13375B"/>
<path d="M618.389 262.896C618.389 262.896 619.63 259.4 621.49 259.902C625.698 261.022 622.62 268.746 621.224 268.974C618.434 269.386 617.282 267.101 618.389 262.896Z" fill="#F99662"/>
<path d="M635.775 300.211C635.642 308.484 639.983 332.912 639.983 332.912C639.983 332.912 656.838 332.569 658.189 331.175C659.54 329.781 655.199 292.922 647.757 287.758C638.876 281.588 635.908 292.236 635.775 300.211Z" fill="#ECECEC"/>
<path d="M610.995 271.82C610.309 269.387 605.464 271.231 605.61 272.078C605.757 272.925 605.824 274.142 608.217 274.099C611.081 274.013 611.682 274.253 610.995 271.82Z" fill="white"/>
<path d="M301.927 519.849L311.188 521.236C311.188 521.236 313.097 512.609 315.488 501.151C311.439 500.99 307.349 501.133 303.223 501.231C302.608 512.026 301.927 519.849 301.927 519.849Z" fill="#FF8A63"/>
<path d="M332.18 524.327L341.509 523.54C341.509 523.54 341.434 514.699 341.192 502.989C337.213 503.767 333.262 504.85 329.266 505.898C331.088 516.552 332.18 524.327 332.18 524.327Z" fill="#FF8A63"/>
<path d="M405.517 355.769C400.955 355.598 401.049 356.388 400.474 356.312C399.769 356.252 392.607 350.536 392.607 350.536C392.607 350.536 371.371 333.826 370.256 332.868L357.576 307.564L343.218 311.022C343.218 311.022 357.732 338.118 358.741 339.396C359.75 340.674 391.19 359.704 393.916 361.465C393.916 361.465 396.32 364.83 397.926 366.916C399.499 368.953 401.951 370.187 402.484 370.682C402.557 370.74 404.473 372.334 407.337 373.61C409.814 374.72 408.022 372.51 408.022 372.51C408.022 372.51 403.842 369.592 404.15 369.313C404.37 369.059 406.553 370.794 409.296 372.045C409.992 372.36 410.688 372.674 411.303 372.973C412.97 373.702 413.938 372.874 412.345 371.775C411.787 371.403 410.816 370.774 410.08 370.451C409.262 370.111 408.664 369.517 408.034 369.087C406.764 368.269 405.866 367.698 405.915 367.666C406.012 367.6 405.868 367.271 406.604 367.594C407.494 367.991 409.233 369.206 410.617 369.663C411.411 369.913 413.013 370.543 413.013 370.543C413.013 370.543 415.872 371.432 415.994 371.03C416.216 370.134 414.542 369.232 413.399 369.039C412.785 368.527 411.053 367.912 411.053 367.912C411.053 367.912 407.923 365.854 408.233 365.361C408.355 365.173 410.354 365.928 412.516 366.502C414.792 367.143 416.452 367.485 416.664 367.058C417.015 366.36 415.202 365.729 415.202 365.729C415.202 365.729 413.631 365.148 413.13 364.916C412.547 364.668 410.848 363.675 410.848 363.675C410.848 363.675 405.081 360.045 405.375 359.635C405.708 359.233 406.919 358.455 407.364 358.547C407.81 358.639 408.488 359.25 408.934 359.342C409.379 359.434 410.327 359.544 410.524 358.985C410.72 358.426 408.481 356.765 408.481 356.765C408.481 356.765 406.855 355.831 405.517 355.769Z" fill="#FF8A63"/>
<path d="M366.722 323.578C366.722 323.578 361.687 326.606 359.641 327.553C357.969 328.321 350.1 330.336 350.1 330.336C350.1 330.336 345.198 317.767 343.193 311.574C340.779 304.055 340.158 293.482 341.107 293.378C343.774 293.115 347.307 293.374 350.21 295.514C360.227 302.974 366.722 323.578 366.722 323.578Z" fill="#D6007E"/>
<path d="M400.225 360.712C402.07 361.392 404.088 361.424 405.245 359.864C405.027 362.002 401.702 362.387 400.225 360.712Z" fill="#FE875E"/>
<path d="M308.06 372.643C308.06 372.643 305.291 387.241 306.407 398.315C307.523 409.39 307.647 448.737 307.647 448.737L302.44 511.66L313.598 511.912C313.598 511.912 325.748 448.989 325.541 450.625C325.335 452.261 329.633 406.328 329.633 406.328L315.127 371.259L308.06 372.643Z" fill="#2BA14C"/>
<path d="M311.945 363.204C311.945 363.204 299.34 376.669 304.051 391.393C305.952 397.308 323.475 453.771 323.723 458.385C323.929 462.999 329.674 514.008 329.674 514.008L341.617 513.631L344.18 456.917L340.75 380.529L333.517 367.651L311.945 363.204Z" fill="#8CD334"/>
<path d="M351.206 299.95C345.354 297.944 336.584 291.709 336.584 291.709C336.584 291.709 327.418 295.174 325.144 295.604C321.787 296.218 315.557 296.353 314.534 310.937C313.796 321.414 304.365 378.754 299.998 383.023L342.576 380.217C339.198 371.894 347.628 347.747 348.487 343.649C350.416 334.466 356.72 301.86 351.206 299.95Z" fill="#FC008B"/>
<path d="M352.831 284.995L349.05 297.088C349.05 297.088 346.4 306.717 345.954 306.969C341.642 309.378 331.4 293.703 331.4 293.703L343.36 278.994L352.831 284.995Z" fill="#FF8A63"/>
<path opacity="0.68" d="M340.64 282.42L343.363 278.995L352.807 284.99L349.026 297.083C347.77 296.414 346.689 295.667 345.875 294.773C343.529 292.281 341.602 287.44 340.64 282.42Z" fill="#FF4900"/>
<path d="M357.202 257.024C357.202 257.024 357.756 256.906 359.873 261.728C361.377 265.158 361.946 269.027 362.597 272.743C363.544 278.269 364.095 284.198 361.59 289.418C360.273 292.157 349.176 290.812 345.237 287.472C341.302 284.105 338.719 275.293 340.08 269.652C341.391 264.001 355.44 255.522 357.202 257.024Z" fill="#FF8A63"/>
<path opacity="0.68" d="M361.43 266.693C361.037 264.978 360.552 263.329 359.841 261.749C359.228 260.358 358.747 259.388 358.373 258.693C354.91 259.431 350.242 260.64 347.471 261.371C346.639 261.972 345.828 262.605 345.068 263.248L344.935 274.47L348.07 269.571C348.07 269.571 350.763 266.026 355.41 265.915C357.851 265.798 359.974 266.24 361.43 266.693Z" fill="#FF4900"/>
<path d="M344.71 283.384C343.754 284.78 342.548 284.969 339.097 284.381C334.672 283.603 330.985 279.21 331.087 272.504C331.437 251.999 350.047 250.598 354.967 249.608C356.793 249.229 358.018 250.061 358.847 251.297C360.153 253.247 362.182 254.462 364.434 254.506C365.413 254.527 367.987 254.973 368.385 256.661C369.517 261.488 368.69 266.131 361.23 264.676C344.334 261.381 346.575 280.696 344.71 283.384Z" fill="#2D2861"/>
<path d="M347.562 272.268C347.562 272.268 345.683 266.193 344.191 269.435C342.704 272.649 342.187 279.585 345.805 278.171C349.418 276.784 347.562 272.268 347.562 272.268Z" fill="#FF8A63"/>
<path d="M352.529 389.57C351.863 387.319 352.213 384.478 351.14 381.872C350.769 380.998 350.11 379.941 349.306 378.792C342.637 371.153 325.183 351.377 324.64 350.094C324.031 348.612 317.331 318.941 317.331 318.941L331.506 320.286L336.939 347.684C337.717 348.912 353.276 371.061 353.276 371.061C353.276 371.061 356.32 375.645 358.032 377.89C358.953 378.945 359.872 379.735 360.751 380.38C361.828 381.222 363.733 383.134 364.076 383.689C364.472 384.35 365.199 385.738 365.622 386.584C366.045 387.43 366.612 388.369 366.797 388.872C366.917 389.176 367.364 389.677 367.732 390.02C368.258 390.547 367.884 391.438 367.151 391.416C366.459 391.407 365.723 390.722 365.302 390.274C364.041 389.061 362.851 386.548 362.695 386.761C362.539 386.975 363.036 391.641 363.078 392.184C363.12 392.728 363.66 398.203 363.444 399.278C363.215 400.394 362.51 400.425 362.167 399.87C361.877 399.421 360.515 391.908 360.515 391.908C360.515 391.908 360.34 390.967 360.041 391.354C359.73 391.78 360.931 398.578 360.95 399.599C360.956 400.66 360.476 401.339 359.714 400.734C358.782 399.984 357.931 392.64 357.931 392.64C357.931 392.64 357.795 391.713 357.469 391.914C357.105 392.102 358.248 397.865 358.107 398.436C357.966 399.007 357.276 399.396 356.723 398.683C356.039 397.838 355.323 391.29 355.323 391.29C355.323 391.29 355.124 390.827 354.929 391.027C354.721 391.267 355.376 396.251 355.014 396.837C354.729 397.316 354.283 397.08 354.283 397.08C353.118 396.782 353.195 391.821 352.529 389.57Z" fill="#FF8A63"/>
<path d="M316.72 333.256C316.72 333.256 321.452 333.28 324.652 332.929C326.781 332.664 336.144 331.266 336.144 331.266C336.144 331.266 337.479 315.248 336.844 309.123C334.562 286.654 320.426 296.928 318.075 299.635C312.803 305.743 316.72 333.256 316.72 333.256Z" fill="#D6007E"/>
<path d="M359.978 283.074C359.291 280.642 354.447 282.485 354.593 283.332C354.739 284.18 354.807 285.396 357.2 285.353C360.063 285.267 360.665 285.507 359.978 283.074Z" fill="white"/>
<path d="M343.932 521.515C343.932 521.515 339.3 522.795 336.925 523.137C334.549 523.457 331.429 520.738 329.75 521.469C327.902 522.269 328.094 530.221 328.094 530.221C328.094 530.221 352.787 531.615 359.77 529.467C362.53 528.622 353.387 524.508 343.932 521.515Z" fill="#184655"/>
<path d="M313.46 519.736C313.46 519.736 308.656 519.644 306.281 519.295C303.913 518.925 301.697 515.43 299.879 515.652C297.88 515.893 295.798 523.57 295.798 523.57C295.798 523.57 319.071 531.941 326.377 531.871C329.263 531.847 321.671 525.299 313.46 519.736Z" fill="#184655"/>
<path d="M501.805 333.549C503.796 330.493 513.517 314.907 514.726 312.934C516.172 306.679 514.577 298.065 509.463 293.625C507.284 291.734 502.933 285.834 495.971 297.724C495.971 297.724 485.891 323.824 483.539 330.061C476.119 347.645 481.274 350.531 484.142 351.181C486.741 351.769 497.761 339.752 501.805 333.549Z" fill="#CACED1"/>
<path d="M553.271 502.312C553.271 502.312 554.323 512.938 556.997 514.881C559.695 516.823 563.283 524.044 561.477 527.952C560.906 529.163 559.786 529.871 558.529 530.26C554.757 531.425 550.734 529.46 549.111 525.849C548.22 523.838 547.42 521.142 547.26 517.76C546.848 509.122 544.174 504.735 544.174 504.735L553.271 502.312Z" fill="#F7A491"/>
<path d="M511.944 506.653C511.944 506.653 511.098 517.371 511.784 520.844C512.15 522.718 514.207 526.557 513.27 528.293C512.333 530.053 511.258 530.487 511.258 530.487L486.869 530.876C485.543 530.898 486.412 530.053 487.486 529.253C489.246 527.973 490.663 527.105 496.263 524.409C496.629 524.226 497.955 523.38 498.435 523.106C499.646 522.375 500.881 521.21 501.932 520.021C503.692 518.079 503.829 508.641 503.829 508.641L511.944 506.653Z" fill="#F7A491"/>
<path d="M492.88 364.223C492.88 364.223 489.817 381.613 491.829 393.015C493.84 404.418 495.931 511.657 495.931 511.657H518.943C518.943 511.657 519.354 450.21 518.943 444.086C518.531 437.939 516.527 422.569 516.527 422.569L513.636 408.371L500.058 361.526L492.88 364.223Z" fill="#DBDEE0"/>
<path fill-rule="evenodd" clip-rule="evenodd" d="M451.94 375.162C451.937 375.167 451.934 375.172 451.931 375.177C450.925 376.729 449.926 378.27 449.284 378.118C449.284 378.118 448.844 378.125 448.816 377.618C448.789 377.26 449.6 375.87 450.285 374.695C450.797 373.819 451.238 373.062 451.21 372.942C451.139 372.699 450.8 372.992 450.8 372.992C450.8 372.992 447.62 378.005 446.751 378.406C446.036 378.755 445.657 378.153 445.777 377.631C445.829 377.407 446.451 376.5 447.126 375.517C448.019 374.216 449.004 372.78 448.886 372.607C448.714 372.309 448.237 373.005 448.237 373.005C448.237 373.005 444.633 378.606 443.61 378.828C442.778 379.003 442.678 378.253 443.108 377.395C443.265 377.091 443.865 376.213 444.554 375.203C445.728 373.485 447.162 371.385 447.118 371.086C447.041 370.649 446.528 371.339 446.528 371.339C446.528 371.339 442.461 376.866 442.056 377.11C441.568 377.417 441.034 377.1 441.303 376.1C441.533 375.261 443.548 371.952 444.228 370.835C444.328 370.671 444.399 370.554 444.431 370.499C444.481 370.416 444.608 370.211 444.779 369.933C445.481 368.798 446.931 366.452 446.902 366.261C446.887 366.158 446.52 366.387 445.99 366.717C445.29 367.153 444.306 367.765 443.474 368.027C442.968 368.216 442.123 368.466 441.583 368.186C441.006 367.9 441.074 367.023 441.693 366.813C442.115 366.688 442.663 366.467 442.877 366.27C443.086 366.069 443.468 365.798 443.885 365.501C444.156 365.308 444.442 365.104 444.705 364.903C445.372 364.392 446.492 363.568 447.064 363.196C447.552 362.888 449.795 362.129 450.967 361.893C451.907 361.735 452.936 361.476 454.073 361.002C454.674 360.702 455.48 360.401 456.335 360.12L475.746 343.461C475.746 343.461 479.324 343.838 481.317 341.767C483.591 342.271 483.737 341.912 484.105 341.005C484.318 340.479 484.607 339.767 485.432 338.931L485.684 343.604L486.449 343.665C486.449 343.665 490.223 341.582 485.791 345.595L485.985 349.196L461.418 363.684C460.01 365.227 458.48 366.903 457.817 367.09C457.773 367.129 457.73 367.169 457.687 367.209L452.003 375.44L451.94 375.162Z" fill="#F7A491"/>
<path d="M471.573 345.026C468.592 347.421 462.812 350.99 460.964 352.562C459.638 353.692 456.146 355.075 453.592 356.027C452.647 356.849 457.669 364.418 461.385 370.784C461.385 370.784 479.906 357.024 487.651 351.057C508.394 335.076 489.23 340.594 486.583 339.01C484.996 338.061 476.57 341.012 471.573 345.026Z" fill="#CACED1"/>
<path d="M527.651 362.407C527.651 362.407 534.6 371.969 536.612 382.481C538.624 393.015 538.796 424.808 542.682 438.587C544.785 446.059 551.663 459.113 552.875 468.756C554.086 478.399 561.338 507.054 561.338 507.054L537.695 511.131L518.893 443.059L499.281 386L494.252 356.613L527.651 362.407Z" fill="#F2F2F2"/>
<path d="M517.635 288.174C517.635 288.174 525.064 289.019 529.499 293.841C539.133 300.746 537.283 340.125 535.383 349.451C530.943 359.558 528.127 364.063 528.127 364.063C528.127 364.063 500.4 369.181 492.88 364.223C492.88 364.223 485.991 342.716 492.88 315.664C493.68 311.276 500.4 293.43 502.023 291.67C503.623 289.933 517.635 288.174 517.635 288.174Z" fill="#F2F2F2"/>
<path d="M513.91 273.23C513.91 273.23 513.979 273.55 514.07 274.121C514.573 276.818 516.493 285.73 517.796 288.197C519.373 291.168 512.425 300.629 505.727 299.463C503.738 299.12 507.419 290.78 507.236 289.888C506.893 288.197 506.436 285.889 505.979 283.513C505.704 282.188 505.453 280.816 505.201 279.56C504.493 275.949 503.898 272.979 503.898 272.979L513.91 273.23Z" fill="#F7A491"/>
<path d="M514.705 277.611C514.59 277.04 514.545 276.72 514.545 276.72L504.51 276.469C504.51 276.469 505.104 279.417 505.813 283.05C506.064 284.307 506.338 285.655 506.59 286.98C508.144 286.752 509.767 285.998 511.39 284.581C513.15 283.027 514.316 281.176 515.025 279.188C514.887 278.571 514.773 278.023 514.705 277.611Z" fill="#F47458"/>
<path d="M507.254 252.705C507.254 252.705 513.563 263.947 518.089 264.473C522.615 264.999 523.209 270.963 523.209 270.963C523.209 270.963 521.586 257.183 517.129 254.533C512.648 251.882 507.254 252.705 507.254 252.705Z" fill="#13375B"/>
<path d="M548.381 523.952C554.233 525.026 558.141 521.598 560.176 519.039C561.661 521.941 562.576 525.552 561.479 527.951C560.519 530.053 557.89 530.625 555.673 530.716C553.318 530.807 551.124 529.573 549.958 527.54C549.432 526.557 548.861 525.369 548.381 523.952Z" fill="#2D2861"/>
<path d="M498.411 523.107C504.857 524.752 509.634 523.633 512.309 522.559C512.994 524.501 513.909 526.946 513.429 528.363C512.834 530.077 511.988 530.465 511.257 530.488C505.36 530.648 489.679 530.854 485.176 530.922C484.559 530.922 484.193 530.191 484.604 529.711C485.702 528.386 497.931 523.404 498.411 523.107Z" fill="#2D2861"/>
<path d="M533.334 359.134C533.334 359.134 531.681 362.334 531.056 363.305C530.431 364.276 519.814 365.808 511.982 365.529C504.151 365.251 492.692 365.251 491.233 364.278C491.233 364.278 487.9 359.895 491.233 358.086C494.567 356.276 533.334 359.134 533.334 359.134Z" fill="#2D2861"/>
<path d="M531.058 363.304C531.384 362.799 533.1 361.281 532.716 360.372C533.1 359.335 523.963 363.125 520.462 363.057C520.462 363.057 523.966 363.521 529.889 361.965C529.889 361.965 527.124 367.129 491.23 364.276C492.689 365.249 504.151 365.249 511.979 365.528C519.808 365.807 530.433 364.276 531.058 363.304Z" fill="#67718E"/>
<path d="M506.781 253.892C506.37 254.139 505.757 253.874 505.474 254.163C504.838 254.799 504.824 256.064 505.274 256.857C505.93 258.006 509.872 258.527 510.257 260.814C510.257 260.814 511.392 258.018 509.102 256.21C506.44 254.116 506.781 253.892 506.781 253.892Z" fill="#2D2861"/>
<path d="M517.354 275.912C521.485 272.949 523.838 271.649 524.591 263.965C525.344 256.282 522.953 251.652 518.991 249.164C514.614 246.415 499.746 246.591 497.937 261.91L517.354 263.965L517.354 275.912Z" fill="#2D2861"/>
<path d="M521.354 253.589C520.718 252.619 518.991 247.71 526.339 244.993C533.686 242.276 543.11 247.696 541.578 253.801C540.046 259.906 540.959 270.256 547.402 269.993C553.846 269.73 551.631 277.38 545.764 282.081C539.898 286.783 548.025 290.999 548.025 290.999C548.025 290.999 538.76 293.579 537.684 289.813C536.095 284.254 542.529 278.964 538.333 277.139C534.136 275.315 528.921 274.512 528.521 272.777C528.121 271.042 529.668 247.864 522.401 255.388L521.354 253.589Z" fill="#2D2861"/>
<path d="M508.511 252.887C508.511 252.887 512.602 253.458 515.574 257.274C518.545 261.091 521.723 272.928 514.362 279.349C507.002 285.77 499.733 278.503 498.659 270.78C497.561 263.056 497.767 252.59 508.511 252.887Z" fill="#F7A491"/>
<path d="M516.602 267.146C516.236 269.135 516.968 270.986 518.248 271.237C519.528 271.488 520.854 270.094 521.219 268.106C521.585 266.118 520.854 264.267 519.574 264.016C518.316 263.742 516.991 265.136 516.602 267.146Z" fill="#F7A491"/>
<path d="M498.21 261.502C498.21 261.502 503.872 255.86 507.51 259.013C510.66 255.737 518.09 261.209 518.47 263.674C518.47 263.674 517.28 258.92 515.321 254.352C513.362 249.784 503.281 251.846 503.281 251.846L500.453 255.271L498.21 261.502Z" fill="#2D2861"/>
<path d="M492.508 358.616C494.054 370.529 489.981 392.839 491.122 409.079C491.737 419.107 489.905 429.179 485.729 438.734C485.729 438.734 494.248 439.436 499.854 433.788C499.854 433.788 498.448 411.297 498.521 393.693C498.617 369.384 492.508 358.616 492.508 358.616Z" fill="#2D2861"/>
<path d="M491.759 363.223C487.606 377.138 479.751 417.937 479.751 417.937L486.707 422.078L494.596 360.213L491.759 363.223Z" fill="#2D2861"/>
<path d="M506.54 250.376C505.524 251.186 503.783 250.693 503.127 251.569C501.646 253.505 502.058 256.904 503.549 258.872C505.719 261.724 516.486 261.722 518.333 267.724C518.333 267.724 520.385 259.813 513.595 255.775C505.704 251.101 506.54 250.376 506.54 250.376Z" fill="#2D2861"/>
<path d="M464.563 321.722C464.469 320.544 469.816 321.029 470.383 320.02C470.951 319.012 464.184 317.186 464.181 316.164C464.175 314.298 471.687 317.691 471.725 316.858C471.773 315.982 464.202 312.13 465.435 310.937C466.668 309.744 472.884 315.779 473.326 314.916C473.779 314.011 467.04 309.84 467.699 307.79C468.07 306.686 478.323 316.421 479.839 316.189C481.407 315.925 479.845 309.976 481.166 309.471C482.487 308.967 482.704 321.185 483.394 321.762C484.043 322.328 497.845 335.77 503.224 338.705C504.431 336.928 506.584 334.729 507.675 333.056C510.316 336.175 512.418 337.958 515.184 340.932C511.222 346.396 506.076 352.177 504.186 352.491C498.454 353.505 482.911 331.892 479.695 328.093C476.448 324.24 473.978 324.583 471.511 323.018C469.139 321.432 464.658 322.901 464.563 321.722Z" fill="#F7A491"/>
<path d="M501.544 337.333C498.64 334.846 494.065 329.825 492.178 328.299C490.823 327.204 488.819 324.028 487.412 321.694C486.43 320.917 479.918 327.25 474.348 332.078C474.348 332.078 479.427 335.962 486.721 342.471C506.258 359.906 509.161 353.868 510.229 350.975C518.782 335.535 513.767 320.477 501.544 337.333Z" fill="#E0E3E6"/>
<path d="M524.093 336.03C526.18 332.827 536.372 316.486 537.64 314.416C539.156 307.858 537.483 298.827 532.121 294.172C529.837 292.189 525.275 286.003 517.975 298.469C517.975 298.469 507.407 325.834 504.941 332.373C497.162 350.81 502.566 353.836 505.574 354.518C508.299 355.134 519.852 342.535 524.093 336.03Z" fill="#E0E3E6"/>
<path d="M508.29 275.012C507.604 272.579 502.759 274.423 502.905 275.27C503.052 276.117 503.119 277.334 505.512 277.291C508.376 277.205 508.977 277.444 508.29 275.012Z" fill="white"/>
<defs>
<linearGradient id="paint0_linear" x1="-71.4049" y1="309.809" x2="722.222" y2="309.809" gradientUnits="userSpaceOnUse">
<stop stop-color="#BCE3F1"/>
<stop offset="1" stop-color="#D0F7FF"/>
</linearGradient>
</defs>
</svg>
