<?xml version="1.0" encoding="UTF-8" standalone="no"?>
<svg
   width="717"
   height="549"
   viewBox="0 0 717 549"
   fill="none"
   version="1.1"
   id="svg407"
   sodipodi:docname="stage_підтримав_адміністрацію - Copy.svg"
   inkscape:version="1.1 (c68e22c387, 2021-05-23)"
   xmlns:inkscape="http://www.inkscape.org/namespaces/inkscape"
   xmlns:sodipodi="http://sodipodi.sourceforge.net/DTD/sodipodi-0.dtd"
   xmlns="http://www.w3.org/2000/svg"
   xmlns:svg="http://www.w3.org/2000/svg">
  <sodipodi:namedview
     id="namedview409"
     pagecolor="#ffffff"
     bordercolor="#666666"
     borderopacity="1.0"
     inkscape:pageshadow="2"
     inkscape:pageopacity="0.0"
     inkscape:pagecheckerboard="0"
     showgrid="false"
     inkscape:zoom="1.3715847"
     inkscape:cx="358.70916"
     inkscape:cy="274.5"
     inkscape:window-width="1857"
     inkscape:window-height="1057"
     inkscape:window-x="-8"
     inkscape:window-y="-8"
     inkscape:window-maximized="1"
     inkscape:current-layer="svg407" />
  <path
     d="M721.19 44.3819C639.552 -70.054 550.634 79.2229 383.777 62.1405C74.7898 18.8053 185.924 259.756 113.62 281.408C82.9773 295.197 100.453 285.253 68.6602 308.377C44.9113 325.65 13.0832 369.93 4.28734 421.716C-4.96462 476.038 6.47002 539.408 6.47002 539.408L772.63 547.361C793.284 487.727 786.052 135.273 721.19 44.3819Z"
     fill="url(#paint0_linear)"
     id="path2" />
  <path
     d="M12.7937 529.217H769.803C776.502 529.217 781.923 535.174 781.923 542.534V549.552H0.673828V542.534C0.673828 535.174 6.09506 529.217 12.7937 529.217Z"
     fill="#FEE2BF"
     id="path4" />
  <path
     d="M200.741 255.61C200.741 255.61 186.363 251.908 184.649 267.218C182.934 282.529 190.729 284.882 186.5 292.286C182.272 299.667 177.54 294.137 176.603 315.115C175.688 336.092 223.782 361.571 236.468 349.117C277.659 308.648 228.788 292.149 230.754 279.764C232.742 267.356 227.074 256.844 219.553 252.365C212.033 247.818 202.455 247.818 200.741 255.61Z"
     fill="#475B6F"
     id="path132" />
  <path
     d="M249.589 515.703C249.589 515.703 249.338 519.702 251.372 521.964C253.406 524.227 260.972 525.438 261.978 528.02C262.984 530.602 254.366 530.762 251.463 529.962C248.56 529.162 241.017 528.545 239.12 528.454C237.223 528.363 241.543 515.795 241.932 515.452C242.32 515.086 249.589 515.703 249.589 515.703Z"
     fill="#FF7446"
     id="path134" />
  <path
     d="M205.427 513.234C205.427 513.234 207.301 521.666 207.119 524.911C206.936 528.156 202.981 533.206 199.941 533.046C196.901 532.886 194.387 530.853 195.118 526.899C195.85 522.946 198.158 513.531 198.158 513.531L205.427 513.234Z"
     fill="#FF7446"
     id="path136" />
  <path
     d="M182.866 371.009C182.866 371.009 180.923 306.843 183.963 303.804C185.174 302.593 195.163 299.302 201.975 298.182C212.17 296.514 220.17 297.223 220.17 297.223C220.17 297.223 230.571 309.677 230.571 314.293C230.571 318.908 231.234 371.512 231.234 371.512C239.28 374.483 251.737 427.749 252.652 441.482C253.589 455.216 251.577 519.062 251.577 519.062L239.851 517.783C233.451 507.751 230.571 454.942 228.696 448.384C226.113 439.312 213.999 411.547 213.999 411.547L207.758 408.828C207.758 408.828 209.198 450.691 208.673 460.358C208.147 470.001 208.741 516.754 208.741 516.754L196.992 516.115C187.803 499.616 181.22 423.521 181.448 419.545C181.677 415.569 177.608 409.034 176.763 397.608C176.1 388.559 182.866 371.009 182.866 371.009Z"
     fill="#02BBD0"
     id="path138" />
  <path
     d="M203.423 371.557H224.27V369.34H203.423V371.557Z"
     fill="white"
     id="path140" />
  <path
     d="M211.966 372.448H215.989C216.72 372.448 217.338 371.854 217.338 371.1V370.14C217.338 369.409 216.743 368.792 215.989 368.792H211.966C211.234 368.792 210.617 369.386 210.617 370.14V371.1C210.617 371.854 211.212 372.448 211.966 372.448Z"
     fill="#271798"
     id="path142" />
  <path
     opacity="0.38"
     d="M182.865 371.008C182.865 371.008 181.15 314.04 183.482 304.923C186.522 302.866 196.237 299.233 198.614 299.05C198.18 303.734 202.431 330.082 206.797 343.61C209.54 352.156 209.152 362.622 208.1 370.78C207.46 375.853 206.454 380.743 205.311 385.016C205.06 385.085 198.591 388.558 187.345 388.558C186.865 388.535 182.659 388.261 177.836 387.507C179.642 379.349 182.865 371.008 182.865 371.008Z"
     fill="#001C41"
     id="path144" />
  <path
     opacity="0.38"
     d="M217.405 385.633C217.154 384.834 219.074 375.556 219.668 370.757H219.691C223.646 338.674 220.08 297.816 220.034 297.199C220.263 297.428 220.948 298.205 221.863 299.302C224.651 302.866 230 310.064 230.526 313.744C230.526 313.858 230.549 313.972 230.549 314.063C230.549 314.086 230.549 314.132 230.549 314.155C230.549 314.726 230.549 315.892 230.572 317.491C230.572 317.811 230.595 318.131 230.617 318.451C230.755 331.979 231.257 371.511 231.257 371.511C233.863 372.471 236.903 378.687 239.898 387.096C230.183 387.69 218.091 387.873 217.405 385.633Z"
     fill="#001C41"
     id="path146" />
  <path
     d="M171.482 379.373C171.46 387.416 193.129 387.988 203.415 383.372L202.295 348.501L198.752 298.822C198.752 298.822 185.746 301.404 181.311 304.421C181.311 304.421 179.871 356.065 178.614 366.576C177.357 377.065 171.482 375.717 171.482 379.373Z"
     fill="#F4CC1A"
     id="path148" />
  <path
     d="M231.622 300.033C231.622 300.033 236.697 341.165 236.697 351.86C236.697 362.577 238.731 381.064 238.731 381.064C238.731 381.064 227.759 385.268 220.125 383.372C220.125 383.372 227.394 342.125 227.394 339.429C227.394 336.732 220.033 297.177 220.033 297.177C220.033 297.177 227.005 297.565 231.622 300.033Z"
     fill="#F4CC1A"
     id="path150" />
  <path
     d="M238.411 518.559L252.629 519.473L252.652 515.817L237.84 514.994L238.411 518.559Z"
     fill="#271798"
     id="path152" />
  <path
     d="M195.414 516.183L209.518 517.119L209.586 513.463L194.797 512.641L195.414 516.183Z"
     fill="#271798"
     id="path154" />
  <path
     d="M239.92 521.164C241.04 522.581 244.697 525.483 255.395 524.203C258.184 525.323 261.338 526.397 261.978 527.997C262.984 530.579 254.366 530.739 251.463 529.939C248.56 529.139 241.017 528.522 239.12 528.431C238.091 528.385 238.914 524.637 239.92 521.164Z"
     fill="#001653"
     id="path156" />
  <path
     d="M207.119 524.912C206.936 528.157 202.981 533.207 199.941 533.047C196.901 532.887 194.387 530.853 195.118 526.9C195.369 525.575 195.804 523.609 196.261 521.621C196.65 524.089 197.792 528.294 201.038 526.831C204.558 525.255 206.113 521.598 206.73 520.182C206.981 521.987 207.164 523.769 207.119 524.912Z"
     fill="#001653"
     id="path158" />
  <path
     opacity="0.18"
     d="M237.475 367.604C233.36 367.398 228.126 367.124 222.982 366.873C223.28 365.09 223.6 363.262 223.92 361.411L237.086 362.12C237.2 363.925 237.337 365.799 237.475 367.604Z"
     fill="#001653"
     id="path160" />
  <path
     opacity="0.18"
     d="M202.867 365.958C202.844 365.958 202.822 365.958 202.799 365.958C199.599 365.958 187.164 369.363 182.638 369.363C180.901 369.363 179.483 368.86 178.363 368.243C178.363 368.198 178.386 368.175 178.386 368.129C178.478 367.649 178.546 367.124 178.615 366.552C178.638 366.278 178.683 365.981 178.706 365.661C178.866 364.107 178.98 362.348 179.095 360.68H202.684L202.867 365.958Z"
     fill="#001653"
     id="path162" />
  <path
     d="M231.53 300.124C231.53 300.124 235.37 300.924 240.81 319.113C246.227 337.303 242.639 360.657 238.89 363.079C235.141 365.501 198.774 364.61 198.774 364.61L198.637 351.516C198.637 351.516 226.181 347.22 228.901 343.861C229.564 343.039 228.421 339.52 228.65 335.521C229.358 323.227 231.53 300.124 231.53 300.124Z"
     fill="#FFBD00"
     id="path164" />
  <path
     d="M230.182 341.919C230.182 341.919 233.953 339.337 235.37 337.6C236.788 335.864 239.622 333.533 239.736 334.767C239.874 336.001 238.571 337.783 238.571 337.783C238.571 337.783 243.714 334.196 244.399 334.744C245.085 335.293 245.748 339.154 245.291 343.405C244.811 347.655 232.765 350.74 232.765 350.74L230.182 341.919Z"
     fill="#FFA97A"
     id="path166" />
  <path
     d="M182.09 366.644C195.211 368.838 222.892 359.08 234.115 355.561L229.91 341.005C229.91 341.005 196.857 350.145 192.514 348.203C190.365 347.243 184.879 337.051 182.867 326.7C180.81 316.12 181.313 304.42 181.313 304.42C181.313 304.42 171.804 316.851 174.501 343.13C176.536 363.193 176.307 365.661 182.09 366.644Z"
     fill="#FFBD00"
     id="path168" />
  <path
     d="M185.402 336.755C185.402 336.755 188.488 339.383 190.911 341.348C193.334 343.313 197.105 348.615 197.105 348.615C197.105 348.615 192.625 349.689 191.048 349.849C189.471 350.008 184.305 347.129 182.499 347.312C180.693 347.495 181.219 344.821 183.436 345.278C185.63 345.735 187.825 345.964 187.825 345.964C187.825 345.964 182.659 342.582 180.236 340.594C177.813 338.629 179.779 337.143 181.745 338.743C183.71 340.342 185.859 341.256 185.859 341.256C185.859 341.256 178.91 335.384 179.916 334.15C180.922 332.916 185.402 336.755 185.402 336.755Z"
     fill="#FFA97A"
     id="path170" />
  <path
     d="M213.908 282.826C213.908 282.826 214.639 293.223 215.622 295.486C215.896 296.126 216.377 296.605 216.902 296.971C219.645 298.799 214.754 321.947 212.262 321.422C209.588 320.873 202.936 306.523 200.81 301.861C200.17 300.49 200.742 298.822 202.136 298.205C202.136 298.205 202.136 298.205 202.159 298.205C204.467 297.177 202.776 278.142 202.776 278.142L213.908 282.826Z"
     fill="#FFA97A"
     id="path172" />
  <path
     opacity="0.65"
     d="M204.204 277.388C204.204 277.388 203.72 277.685 203.781 278.507C203.882 280.107 204.628 282.095 205.254 283.535C208.181 290.162 212.419 293.361 215.326 293.818C214.599 290.459 214.074 282.095 214.074 282.095L204.204 277.388Z"
     fill="#DBA39A"
     id="path174" />
  <path
     d="M202.363 269.96C202.363 269.96 206.15 271.186 209.701 260.226C215.324 258.009 220.49 259.677 222.433 267.013C224.376 274.348 221.564 286.002 218.135 289.589C214.707 293.177 202.775 287.19 202.363 269.96Z"
     fill="#FFA97A"
     id="path176" />
  <path
     d="M204.056 272.337C204.056 272.337 201.244 267.973 199.507 270.486C197.77 273.023 199.301 279.055 202.593 279.352C205.839 279.695 204.056 272.337 204.056 272.337Z"
     fill="#F8A272"
     id="path178" />
  <path
     d="M305.526 217.189H213.06C204.242 217.189 197.105 206.501 197.105 193.295V145.459C197.105 132.253 204.242 121.565 213.06 121.565H305.558C314.376 121.565 321.514 132.253 321.514 145.459V193.295C321.514 206.501 314.345 217.189 305.526 217.189Z"
     fill="white"
     id="path180" />
  <path
     d="M233.662 208.339L229.498 255.086L270.441 207.091L233.662 208.339Z"
     fill="white"
     id="path182" />
  <path
     d="M231.586 137.226H284.024V189.665H231.586V137.226Z"
     fill="#E7AA6C"
     id="path184" />
  <path
     d="M284.023 190.096H231.585C231.47 190.096 231.36 190.051 231.279 189.97C231.198 189.889 231.152 189.779 231.152 189.664V137.225C231.152 137.111 231.198 137.001 231.279 136.92C231.36 136.839 231.47 136.793 231.585 136.793H284.023C284.138 136.793 284.248 136.839 284.329 136.92C284.41 137.001 284.456 137.111 284.456 137.225V189.664C284.456 189.779 284.41 189.889 284.329 189.97C284.248 190.051 284.138 190.096 284.023 190.096ZM232.016 189.231H283.591V137.658H232.017L232.016 189.231Z"
     fill="#323C6B"
     id="path186" />
  <path
     d="M235.859 141.246H279.751V185.646H235.859V141.246Z"
     fill="#89C5CD"
     id="path188" />
  <path
     d="M279.751 141.246V185.645H276.915V143.842H235.859V141.246H279.751Z"
     fill="#6EAAAD"
     id="path190" />
  <path
     d="M228.4 189.664H287.211V193.283H228.4V189.664Z"
     fill="#E7AA6C"
     id="path192" />
  <path
     d="M287.21 193.715H228.399C228.285 193.715 228.175 193.67 228.093 193.589C228.012 193.508 227.967 193.398 227.967 193.283V189.664C227.967 189.55 228.012 189.44 228.093 189.359C228.175 189.277 228.285 189.232 228.399 189.232H287.21C287.325 189.232 287.435 189.277 287.516 189.359C287.597 189.44 287.642 189.55 287.642 189.664V193.283C287.642 193.398 287.597 193.508 287.516 193.589C287.435 193.67 287.325 193.715 287.21 193.715ZM228.832 192.851H286.778V190.097H228.832V192.851Z"
     fill="#323C6B"
     id="path194" />
  <path
     d="M252.141 150.458C252.027 150.458 251.917 150.413 251.836 150.331C251.755 150.25 251.709 150.14 251.709 150.026V149.201C251.709 149.087 251.755 148.977 251.836 148.896C251.917 148.815 252.027 148.769 252.141 148.769C252.256 148.769 252.366 148.815 252.447 148.896C252.528 148.977 252.574 149.087 252.574 149.201V150.026C252.574 150.14 252.528 150.25 252.447 150.331C252.366 150.413 252.256 150.458 252.141 150.458Z"
     fill="#323C6B"
     id="path196" />
  <path
     d="M248.415 151.25C248.331 151.25 248.249 151.226 248.178 151.18C248.108 151.133 248.053 151.068 248.019 150.991L247.684 150.239C247.637 150.134 247.634 150.015 247.675 149.908C247.716 149.8 247.798 149.714 247.903 149.667C248.008 149.621 248.127 149.617 248.234 149.659C248.341 149.7 248.428 149.782 248.474 149.887L248.81 150.639C248.833 150.691 248.846 150.747 248.847 150.804C248.849 150.86 248.839 150.917 248.818 150.97C248.798 151.023 248.767 151.071 248.728 151.113C248.689 151.154 248.642 151.187 248.59 151.21C248.535 151.236 248.475 151.25 248.415 151.25Z"
     fill="#323C6B"
     id="path198" />
  <path
     d="M245.326 153.492C245.219 153.492 245.116 153.453 245.036 153.381L244.424 152.83C244.339 152.753 244.288 152.645 244.282 152.531C244.276 152.416 244.316 152.304 244.393 152.219C244.469 152.133 244.577 152.082 244.692 152.076C244.806 152.07 244.918 152.11 245.004 152.187L245.616 152.739C245.681 152.797 245.727 152.874 245.747 152.959C245.768 153.045 245.762 153.134 245.731 153.216C245.699 153.297 245.644 153.368 245.572 153.417C245.499 153.467 245.414 153.493 245.326 153.493V153.492Z"
     fill="#323C6B"
     id="path200" />
  <path
     d="M243.421 156.794C243.376 156.794 243.331 156.787 243.288 156.773L242.504 156.519C242.45 156.502 242.399 156.474 242.355 156.437C242.312 156.401 242.276 156.355 242.249 156.305C242.223 156.254 242.207 156.198 242.203 156.141C242.198 156.084 242.205 156.027 242.222 155.973C242.24 155.918 242.268 155.868 242.306 155.825C242.343 155.781 242.388 155.746 242.439 155.72C242.49 155.694 242.546 155.679 242.603 155.675C242.66 155.671 242.718 155.678 242.772 155.696L243.555 155.951C243.653 155.982 243.737 156.048 243.791 156.136C243.845 156.224 243.866 156.328 243.85 156.43C243.834 156.532 243.782 156.624 243.704 156.691C243.625 156.758 243.525 156.795 243.422 156.795L243.421 156.794Z"
     fill="#323C6B"
     id="path202" />
  <path
     d="M242.202 160.671C242.087 160.677 241.975 160.637 241.889 160.56C241.804 160.483 241.753 160.375 241.747 160.261C241.741 160.146 241.781 160.034 241.857 159.948C241.934 159.863 242.042 159.812 242.157 159.806L242.976 159.719C243.032 159.713 243.09 159.717 243.145 159.733C243.199 159.749 243.251 159.775 243.295 159.811C243.339 159.847 243.376 159.892 243.403 159.942C243.43 159.992 243.446 160.047 243.451 160.104C243.463 160.218 243.429 160.332 243.357 160.421C243.285 160.51 243.181 160.567 243.067 160.579L242.248 160.666L242.202 160.671Z"
     fill="#323C6B"
     id="path204" />
  <path
     d="M243.487 164.626C243.392 164.626 243.299 164.594 243.224 164.536C243.148 164.478 243.094 164.397 243.069 164.305C243.045 164.213 243.051 164.116 243.088 164.028C243.124 163.94 243.188 163.866 243.271 163.819L243.984 163.406C244.084 163.35 244.201 163.335 244.311 163.365C244.422 163.395 244.516 163.467 244.573 163.566C244.63 163.665 244.645 163.782 244.616 163.893C244.587 164.003 244.515 164.097 244.417 164.155L243.703 164.568C243.638 164.606 243.563 164.626 243.487 164.626Z"
     fill="#323C6B"
     id="path206" />
  <path
     d="M258.958 153.492C258.87 153.492 258.785 153.465 258.713 153.416C258.641 153.366 258.585 153.296 258.554 153.214C258.523 153.133 258.517 153.043 258.537 152.958C258.558 152.873 258.604 152.796 258.669 152.738L259.281 152.186C259.366 152.109 259.479 152.069 259.593 152.075C259.708 152.081 259.815 152.132 259.892 152.218C259.969 152.303 260.009 152.415 260.003 152.53C259.997 152.644 259.946 152.752 259.861 152.829L259.248 153.38C259.169 153.452 259.065 153.492 258.958 153.492Z"
     fill="#323C6B"
     id="path208" />
  <path
     d="M255.873 151.25C255.814 151.25 255.755 151.237 255.7 151.213C255.648 151.19 255.602 151.157 255.562 151.115C255.523 151.074 255.493 151.026 255.472 150.973C255.452 150.92 255.442 150.863 255.443 150.807C255.445 150.75 255.458 150.694 255.481 150.642L255.816 149.889C255.863 149.785 255.949 149.703 256.056 149.662C256.164 149.62 256.283 149.624 256.387 149.67C256.492 149.717 256.574 149.803 256.615 149.91C256.656 150.018 256.653 150.137 256.607 150.241L256.271 150.994C256.237 151.071 256.181 151.136 256.11 151.181C256.04 151.227 255.957 151.25 255.873 151.25Z"
     fill="#323C6B"
     id="path210" />
  <path
     d="M256.903 154.286C255.713 153.119 254.139 152.427 252.476 152.34C250.812 152.253 249.174 152.776 247.87 153.812C246.565 154.847 245.684 156.324 245.391 157.964C245.099 159.604 245.416 161.294 246.282 162.717H256.903V154.286Z"
     fill="#FCD462"
     id="path212" />
  <path
     d="M256.907 154.29V162.717H256.175V155.954C255.44 155.237 254.553 154.696 253.58 154.369C252.607 154.043 251.573 153.94 250.555 154.068C249.537 154.195 248.561 154.551 247.699 155.108C246.837 155.665 246.111 156.409 245.576 157.285C245.904 156.151 246.52 155.122 247.365 154.297C248.209 153.473 249.252 152.881 250.393 152.579C251.534 152.277 252.733 152.276 253.875 152.576C255.016 152.876 256.06 153.466 256.906 154.29H256.907Z"
     fill="#F7BE56"
     id="path214" />
  <path
     d="M279.751 147.151V157.118H275.059C274.268 157.129 273.504 156.827 272.933 156.279C272.361 155.732 272.029 154.981 272.006 154.19C272.005 154.109 272.008 154.029 272.015 153.948C272.05 153.479 272.194 153.023 272.436 152.619C272.678 152.215 273.011 151.873 273.409 151.62C273.806 151.367 274.257 151.211 274.726 151.163C275.194 151.115 275.668 151.177 276.108 151.344C276.101 151.278 276.098 151.211 276.1 151.144C276.099 150.143 276.474 149.178 277.15 148.439C277.826 147.7 278.754 147.241 279.751 147.151Z"
     fill="#E0E0E0"
     id="path216" />
  <path
     d="M279.75 157.551H275.058C274.152 157.563 273.277 157.217 272.625 156.588C271.972 155.959 271.594 155.098 271.573 154.192C271.571 154.097 271.575 154.001 271.584 153.905C271.622 153.42 271.762 152.949 271.994 152.522C272.226 152.095 272.546 151.721 272.933 151.426C273.319 151.131 273.764 150.921 274.237 150.809C274.71 150.697 275.202 150.686 275.68 150.777C275.761 149.733 276.212 148.751 276.95 148.008C277.689 147.265 278.668 146.809 279.712 146.721C279.772 146.716 279.832 146.723 279.889 146.742C279.946 146.762 279.998 146.793 280.042 146.833C280.087 146.874 280.122 146.923 280.146 146.979C280.17 147.034 280.183 147.093 280.182 147.153V157.118C280.182 157.233 280.137 157.343 280.056 157.424C279.975 157.505 279.865 157.551 279.75 157.551ZM275.033 151.583C274.88 151.583 274.726 151.597 274.575 151.623C274.009 151.724 273.493 152.01 273.108 152.437C272.722 152.863 272.489 153.406 272.445 153.979C272.439 154.05 272.436 154.121 272.437 154.192C272.458 154.869 272.744 155.511 273.235 155.978C273.725 156.446 274.38 156.7 275.058 156.688H279.317V147.655C278.524 147.83 277.815 148.273 277.307 148.908C276.8 149.542 276.526 150.332 276.53 151.145C276.529 151.193 276.53 151.242 276.535 151.29C276.545 151.364 276.535 151.439 276.507 151.508C276.479 151.577 276.433 151.638 276.375 151.684C276.316 151.73 276.247 151.761 276.174 151.772C276.1 151.784 276.025 151.776 275.955 151.75C275.66 151.639 275.348 151.581 275.033 151.581V151.583Z"
     fill="#323C6B"
     id="path218" />
  <path
     d="M247.615 182.558C247.126 182.788 246.591 182.904 246.051 182.899H235.859V172.401C236.451 171.695 237.229 171.169 238.105 170.882C238.981 170.596 239.919 170.561 240.814 170.781C241.709 171.001 242.524 171.467 243.167 172.127C243.81 172.787 244.256 173.613 244.453 174.514C244.97 174.359 245.511 174.297 246.05 174.33C247.001 174.402 247.902 174.785 248.613 175.42C249.325 176.056 249.807 176.908 249.985 177.845C250.163 178.782 250.027 179.751 249.598 180.603C249.17 181.455 248.472 182.142 247.614 182.558L247.615 182.558Z"
     fill="#EEEFEE"
     id="path220" />
  <path
     d="M248.254 182.175C248.591 181.472 248.729 180.689 248.654 179.913C248.556 178.894 248.101 177.942 247.371 177.226C246.64 176.509 245.68 176.073 244.659 175.994C244.12 175.961 243.579 176.023 243.062 176.178C242.821 175.079 242.212 174.096 241.336 173.391C240.46 172.686 239.37 172.302 238.245 172.301C237.409 172.299 236.586 172.514 235.857 172.925V172.401C236.449 171.695 237.227 171.169 238.103 170.882C238.979 170.596 239.917 170.561 240.812 170.781C241.707 171.001 242.522 171.467 243.165 172.127C243.808 172.787 244.254 173.613 244.451 174.514C244.968 174.359 245.509 174.297 246.048 174.33C246.936 174.396 247.782 174.734 248.471 175.298C249.16 175.861 249.659 176.623 249.899 177.48C250.14 178.337 250.111 179.248 249.817 180.088C249.522 180.928 248.976 181.657 248.253 182.175H248.254Z"
     fill="#E1E6E9"
     id="path222" />
  <path
     d="M279.75 186.077H235.858C235.744 186.077 235.634 186.031 235.552 185.95C235.471 185.869 235.426 185.759 235.426 185.645V141.246C235.426 141.131 235.471 141.021 235.552 140.94C235.634 140.859 235.744 140.813 235.858 140.813H279.75C279.865 140.813 279.975 140.859 280.056 140.94C280.137 141.021 280.183 141.131 280.183 141.246V185.645C280.183 185.759 280.137 185.869 280.056 185.95C279.975 186.031 279.865 186.077 279.75 186.077ZM236.291 185.212H279.318V141.678H236.291V185.212Z"
     fill="#323C6B"
     id="path224" />
  <path
     d="M256.903 163.149H246.283C246.208 163.149 246.135 163.13 246.07 163.093C246.005 163.057 245.95 163.004 245.912 162.94C245 161.427 244.671 159.634 244.985 157.896C245.299 156.158 246.235 154.593 247.619 153.495C249.002 152.397 250.738 151.84 252.502 151.929C254.266 152.017 255.938 152.745 257.204 153.976C257.246 154.016 257.279 154.064 257.302 154.117C257.324 154.171 257.336 154.228 257.336 154.286V162.718C257.336 162.832 257.29 162.942 257.209 163.023C257.128 163.104 257.018 163.149 256.903 163.149ZM246.533 162.284H256.471V154.473C255.353 153.438 253.903 152.836 252.381 152.774C250.859 152.713 249.365 153.196 248.168 154.138C246.97 155.079 246.148 156.417 245.848 157.91C245.548 159.403 245.791 160.955 246.533 162.285V162.284Z"
     fill="#323C6B"
     id="path226" />
  <path
     d="M255.971 137.226H259.639V189.665H255.971V137.226Z"
     fill="#E7AA6C"
     id="path228" />
  <path
     d="M259.639 190.096H255.971C255.857 190.096 255.747 190.051 255.666 189.97C255.585 189.889 255.539 189.779 255.539 189.664V137.225C255.539 137.111 255.585 137.001 255.666 136.92C255.747 136.839 255.857 136.793 255.971 136.793H259.639C259.753 136.793 259.863 136.839 259.944 136.92C260.025 137.001 260.071 137.111 260.071 137.225V189.664C260.071 189.779 260.025 189.889 259.944 189.97C259.863 190.051 259.753 190.096 259.639 190.096ZM256.404 189.231H259.206V137.658H256.404V189.231Z"
     fill="#323C6B"
     id="path230" />
  <path
     d="M231.586 161.61H284.024V165.278H231.586V161.61Z"
     fill="#E7AA6C"
     id="path232" />
  <path
     d="M284.023 165.711H231.585C231.47 165.711 231.36 165.666 231.279 165.584C231.198 165.503 231.152 165.393 231.152 165.279V161.612C231.152 161.497 231.198 161.387 231.279 161.306C231.36 161.225 231.47 161.179 231.585 161.179H284.023C284.138 161.179 284.248 161.225 284.329 161.306C284.41 161.387 284.456 161.497 284.456 161.612V165.28C284.455 165.394 284.41 165.504 284.329 165.585C284.248 165.666 284.138 165.711 284.023 165.711ZM232.016 164.846H283.591V162.044H232.017L232.016 164.846Z"
     fill="#323C6B"
     id="path234" />
  <path
     d="M246.049 183.33H235.858C235.744 183.33 235.634 183.284 235.552 183.203C235.471 183.122 235.426 183.012 235.426 182.897V172.401C235.426 172.299 235.461 172.201 235.526 172.123C236.146 171.384 236.953 170.825 237.863 170.506C238.774 170.187 239.753 170.12 240.698 170.311C241.644 170.502 242.52 170.944 243.235 171.592C243.95 172.239 244.477 173.067 244.761 173.989C245.193 173.904 245.635 173.875 246.075 173.903C247.198 173.989 248.255 174.468 249.06 175.257C249.864 176.045 250.365 177.093 250.473 178.214C250.568 179.183 250.363 180.157 249.885 181.004C249.407 181.852 248.679 182.532 247.801 182.951C247.253 183.207 246.654 183.336 246.049 183.33ZM236.291 182.465H246.049C246.524 182.47 246.995 182.369 247.426 182.169C248.198 181.795 248.826 181.177 249.212 180.41C249.598 179.643 249.72 178.77 249.56 177.927C249.4 177.083 248.966 176.316 248.326 175.744C247.686 175.172 246.875 174.827 246.019 174.763C245.532 174.732 245.044 174.789 244.577 174.929C244.519 174.946 244.459 174.951 244.4 174.944C244.34 174.937 244.283 174.917 244.231 174.887C244.18 174.857 244.135 174.816 244.101 174.768C244.066 174.72 244.041 174.665 244.029 174.607C243.852 173.798 243.455 173.055 242.883 172.457C242.31 171.86 241.584 171.432 240.784 171.22C239.984 171.009 239.141 171.023 238.348 171.26C237.555 171.497 236.843 171.948 236.29 172.563L236.291 182.465Z"
     fill="#323C6B"
     id="path236" />
  <path
     d="M228.991 142.688C228.876 142.688 228.766 142.643 228.685 142.562C228.604 142.48 228.559 142.371 228.559 142.256V134.631C228.559 134.516 228.604 134.406 228.685 134.325C228.766 134.244 228.876 134.199 228.991 134.199H232.508C232.622 134.199 232.732 134.244 232.813 134.325C232.894 134.406 232.94 134.516 232.94 134.631C232.94 134.746 232.894 134.856 232.813 134.937C232.732 135.018 232.622 135.064 232.508 135.064H229.423V142.256C229.423 142.371 229.378 142.48 229.297 142.562C229.216 142.643 229.106 142.688 228.991 142.688Z"
     fill="#323C6B"
     id="path238" />
  <path
     d="M235.859 135.064H234.958C234.843 135.064 234.733 135.018 234.652 134.937C234.571 134.856 234.525 134.746 234.525 134.631C234.525 134.516 234.571 134.406 234.652 134.325C234.733 134.244 234.843 134.199 234.958 134.199H235.859C235.974 134.199 236.084 134.244 236.165 134.325C236.246 134.406 236.291 134.516 236.291 134.631C236.291 134.746 236.246 134.856 236.165 134.937C236.084 135.018 235.974 135.064 235.859 135.064Z"
     fill="#323C6B"
     id="path240" />
  <path
     d="M286.618 160.455C286.503 160.455 286.393 160.409 286.312 160.328C286.231 160.247 286.186 160.137 286.186 160.022V159.013C286.186 158.898 286.231 158.788 286.312 158.707C286.393 158.626 286.503 158.581 286.618 158.581C286.733 158.581 286.843 158.626 286.924 158.707C287.005 158.788 287.05 158.898 287.05 159.013V160.022C287.05 160.137 287.005 160.247 286.924 160.328C286.843 160.409 286.733 160.455 286.618 160.455Z"
     fill="#323C6B"
     id="path242" />
  <path
     d="M286.618 172.382C286.503 172.382 286.393 172.336 286.312 172.255C286.231 172.174 286.186 172.064 286.186 171.95V163.409C286.186 163.294 286.231 163.184 286.312 163.103C286.393 163.022 286.503 162.977 286.618 162.977C286.733 162.977 286.843 163.022 286.924 163.103C287.005 163.184 287.05 163.294 287.05 163.409V171.95C287.05 172.064 287.005 172.174 286.924 172.255C286.843 172.336 286.733 172.382 286.618 172.382Z"
     fill="#323C6B"
     id="path244" />
  <path
     d="M262.552 172.773C262.409 172.773 262.271 172.716 262.17 172.614C262.069 172.513 262.012 172.375 262.012 172.232V171.678C262.012 171.534 262.069 171.397 262.17 171.296C262.271 171.194 262.409 171.137 262.552 171.137C262.696 171.137 262.833 171.194 262.934 171.296C263.036 171.397 263.093 171.534 263.093 171.678V172.232C263.093 172.375 263.036 172.513 262.934 172.614C262.833 172.716 262.696 172.773 262.552 172.773Z"
     fill="white"
     id="path246" />
  <path
     d="M262.552 181.687C262.409 181.687 262.271 181.63 262.17 181.528C262.069 181.427 262.012 181.289 262.012 181.146V174.368C262.012 174.225 262.069 174.087 262.17 173.986C262.271 173.885 262.409 173.828 262.552 173.828C262.696 173.828 262.833 173.885 262.934 173.986C263.036 174.087 263.093 174.225 263.093 174.368V181.144C263.093 181.215 263.079 181.285 263.052 181.351C263.025 181.417 262.986 181.477 262.935 181.527C262.885 181.578 262.825 181.618 262.76 181.645C262.694 181.673 262.623 181.687 262.552 181.687Z"
     fill="white"
     id="path248" />
  <path
     d="M210.755 281.419L219.175 281.433C219.175 281.433 218.951 284.68 215.255 284.79C210.756 284.901 210.755 281.419 210.755 281.419Z"
     fill="white"
     id="path250" />
  <path
     d="M626.938 515.333C626.938 515.333 626.96 515.653 626.96 516.201C626.96 517.846 626.694 521.457 624.501 524.131C621.578 527.695 621.556 532.128 624.656 532.883C627.757 533.637 635.11 532.631 635.11 532.631C635.11 532.631 636.771 529.249 635.642 520.2C634.512 511.151 633.848 501.211 633.848 501.211L625.454 499.68L626.938 515.333Z"
     fill="#FF7446"
     id="path252" />
  <path
     d="M625.279 519.173C625.279 519.173 622.156 524.131 621.425 526.188C620.694 528.245 620.849 533.386 621.425 533.912C626.452 538.573 636.02 534.369 636.02 534.369C636.02 534.369 636.685 530.964 637.017 526.759C637.349 522.577 637.172 518.67 636.02 518.67C634.891 518.67 634.691 520.864 632.1 520.247C629.531 519.653 627.936 518.556 625.279 519.173Z"
     fill="#422F7F"
     id="path254" />
  <path
     d="M636.816 528.861C634.867 529.753 632.232 530.781 629.796 531.192C627.182 531.626 623.661 530.255 621.003 528.907C620.87 531.101 621.07 533.569 621.446 533.911C626.474 538.573 636.041 534.368 636.041 534.368C636.041 534.368 636.484 532.038 636.816 528.861Z"
     fill="white"
     id="path256" />
  <path
     d="M602.688 509.369C603.773 513.39 602.71 517.801 599.897 520.452C598.923 521.366 597.815 522.234 596.553 522.874C591.658 525.387 585.324 524.816 584.438 529.958C583.552 535.099 615.467 528.518 615.467 528.518C615.467 528.518 613.252 516.018 613.119 513.916C612.986 511.814 613.318 504.136 613.318 504.136L601.004 503.107L602.688 509.369Z"
     fill="#FF7446"
     id="path258" />
  <path
     d="M614.181 519.653C614.181 519.653 614.58 521.641 615.466 525C616.352 528.359 615.798 531.536 615.798 531.536C615.798 531.536 585.921 533.204 584.703 532.084C583.485 530.987 584.105 526.943 584.415 526.577C584.725 526.211 588.512 525.023 590.461 523.606C592.41 522.212 599.054 516.888 601.291 517.094C603.528 517.299 604.569 519.242 608.844 519.47C613.096 519.722 613.118 518.67 614.181 519.653Z"
     fill="#422F7F"
     id="path260" />
  <path
     d="M584.705 532.083C585.924 533.18 615.801 531.535 615.801 531.535C615.801 531.535 616.177 529.455 615.823 526.873C600.231 530.255 584.417 526.576 584.417 526.576C584.107 526.942 583.487 530.986 584.705 532.083Z"
     fill="white"
     id="path262" />
  <path
     d="M615.821 526.873C605.168 529.364 593.363 528.838 584.416 526.576C600.672 529.455 613.805 527.216 612.897 527.33C612.942 527.33 616.02 526.85 615.821 526.873Z"
     fill="#9CB9BD"
     id="path264" />
  <path
     d="M639.275 386.43L636.463 513.048L623.041 511.06C623.041 511.06 618.789 409.441 616.286 406.425C613.806 403.408 612.809 406.607 612.809 406.607C612.809 406.607 602.09 448.882 604.083 457.314C606.076 465.746 614.98 510.923 614.98 510.923L602.09 511.517C602.09 511.517 587.384 476.875 587.384 452.79C587.384 428.704 596.464 388.646 596.464 388.646L639.275 386.43Z"
     fill="#422F7F"
     id="path266" />
  <path
     d="M615.478 511.463H599.975V507.738H615.478V511.463Z"
     fill="#021753"
     id="path268" />
  <path
     d="M637.656 513.051H621.998V508.343H637.656V513.051Z"
     fill="#021753"
     id="path270" />
  <path
     d="M633.583 510.191C633.561 510.191 633.517 510.191 633.494 510.168C633.273 510.099 633.14 509.848 633.184 509.597C635.665 496.183 635.82 409.051 635.82 408.183C635.82 407.909 635.997 407.703 636.219 407.703C636.44 407.703 636.617 407.909 636.617 408.183C636.617 411.771 636.462 496.297 633.959 509.802C633.937 510.031 633.76 510.191 633.583 510.191Z"
     fill="#021753"
     id="path272" />
  <path
     d="M612.787 510.192C612.632 510.192 612.477 510.078 612.411 509.872C611.813 507.884 597.661 461.108 598.458 454.664C599.255 448.288 608.292 408.207 608.668 406.493C608.734 406.242 608.934 406.082 609.155 406.151C609.377 406.219 609.487 406.493 609.443 406.745C609.355 407.156 600.031 448.494 599.255 454.801C598.48 461.016 613.031 509.05 613.164 509.53C613.23 509.781 613.142 510.055 612.92 510.147C612.876 510.192 612.832 510.192 612.787 510.192Z"
     fill="#021753"
     id="path274" />
  <path
     d="M598.855 297.744L580.096 323.269L602.199 331.587L598.855 297.744Z"
     fill="#DCD9DB"
     id="path276" />
  <path
     d="M647.648 289.517C644.791 286.57 638.168 284.422 633.85 283.256C631.369 282.593 628.778 282.434 626.231 282.799L616.508 284.17C616.508 284.17 603.862 292.557 599.122 297.447C594.383 302.337 590.086 332.958 590.086 332.958L592.235 344.635L589.754 396.004C590.839 396.004 623.462 400.117 641.601 394.519C641.601 394.519 641.601 367.12 642.111 350.484C644.259 337.802 651.435 293.402 647.648 289.517Z"
     fill="white"
     id="path278" />
  <path
     d="M647.449 289.312C645.965 287.872 643.662 286.707 641.779 285.907C641.779 285.907 638.191 283.874 634.935 297.744C631.68 311.615 635.821 328.479 634.36 329.964C632.92 331.45 601.183 329.759 601.183 329.759C601.183 329.759 619.72 340.773 628.778 348.794C632.411 352.016 642.045 353.707 642.045 353.593C642.067 352.496 642.111 351.445 642.133 350.439C643.152 344.338 651.834 293.517 647.449 289.312Z"
     fill="#DCD9DB"
     id="path280" />
  <path
     d="M567.384 318.538L583.33 349.615C583.707 350.347 584.46 350.781 585.235 350.735L604.171 349.593C605.522 349.501 606.43 348.084 605.965 346.759L596.198 318.401C595.932 317.601 595.223 317.052 594.404 317.007L569.289 315.453C567.694 315.316 566.631 317.075 567.384 318.538Z"
     fill="#F7CC7F"
     id="path282" />
  <path
     d="M607.449 346.577L597.549 318.47C597.261 317.671 596.553 317.122 595.733 317.076L594.759 317.008C595.335 317.213 595.8 317.693 595.999 318.287L605.899 346.646C606.32 347.857 605.611 349.159 604.437 349.434L605.633 349.365C607.006 349.297 607.914 347.903 607.449 346.577Z"
     fill="#DB9044"
     id="path284" />
  <path
     d="M643.15 327.313L641.644 332.889C641.644 332.889 609.596 324.365 605.831 322.491C602.797 320.983 590.704 317.647 586.186 317.967C585.455 318.012 585.367 319.087 586.076 319.269C588.91 319.978 594.558 321.44 594.558 322.034C594.558 322.811 588.888 323.954 589.287 324.914C590.106 326.833 592.897 327.93 593.429 329.735C593.96 331.518 599.718 330.124 601.69 330.124C603.661 330.124 640.226 353.021 651.278 347.582C662.329 342.143 655.641 318.058 655.641 318.058L643.15 327.313Z"
     fill="#F99662"
     id="path286" />
  <path
     d="M583.064 339.265C582.333 338.511 582.378 336.637 581.514 335.768C580.672 334.9 579.742 336.66 579.52 334.672C579.299 332.684 580.65 329.621 579.343 329.781C578.037 329.941 576.221 335.517 576.221 335.517C575.268 337.802 579.52 346.303 581.78 345.732C584.039 345.16 584.902 342.395 584.902 341.116C584.902 339.836 583.795 340.019 583.064 339.265Z"
     fill="#F99662"
     id="path288" />
  <path
     d="M616.508 284.171C616.486 284.171 616.486 284.194 616.464 284.194C616.464 284.194 616.441 284.194 616.441 284.217C616.419 284.217 616.419 284.239 616.397 284.239L616.375 284.262C616.353 284.285 616.331 284.285 616.309 284.308L616.286 284.331C616.264 284.354 616.22 284.376 616.198 284.399C616.198 284.399 616.198 284.399 616.176 284.399C616.176 284.399 616.153 284.399 616.153 284.422C616.153 284.422 616.131 284.422 616.131 284.445C616.109 284.445 616.109 284.468 616.087 284.468C616.087 284.468 616.065 284.468 616.065 284.491C615.998 284.536 615.932 284.582 615.866 284.628C615.843 284.628 615.843 284.651 615.821 284.651C614.625 285.45 612.056 287.21 609.199 289.289C609.199 289.289 608.025 294.202 608.579 297.333C609.133 300.487 610.329 301.469 612.012 300.761C613.695 300.052 616.884 295.414 617.615 295.665C618.346 295.916 623.241 302.269 625.61 301.286C627.205 300.624 631.989 289.838 634.381 283.417C634.204 283.371 634.049 283.325 633.871 283.28C631.391 282.617 628.8 282.457 626.253 282.823L616.508 284.171Z"
     fill="white"
     id="path290" />
  <path
     d="M611.414 276.218C612.167 280.331 612.544 284.787 611.857 287.37C611.857 287.37 613.43 294.431 617.372 294.773C621.314 295.116 628.756 282.639 628.756 282.639L620.561 269.363L611.414 276.218Z"
     fill="#F99662"
     id="path292" />
  <path
     opacity="0.4"
     d="M612.188 282.685C616.905 281.839 621.335 278.115 622.553 272.562L620.559 269.317L611.413 276.195C611.811 278.389 612.099 280.651 612.188 282.685Z"
     fill="#F26E5A"
     id="path294" />
  <path
     d="M603.02 251.264C603.02 251.264 599.167 276.218 606.055 279.097C612.942 281.976 622.267 277.361 622.975 268.883C623.684 260.428 621.912 243.175 603.02 251.264Z"
     fill="#F99662"
     id="path296" />
  <path
     d="M610.018 246.146C610.018 246.146 596.862 242.147 596.087 246.1C595.312 250.053 599.63 253.001 602.665 253.275C605.677 253.55 613.384 253.138 615.732 255.995C618.079 258.851 622.265 272.082 622.265 272.082L624.635 275.921C624.635 275.921 625.61 268.951 628.998 264.701C632.409 260.451 630.482 253.116 627.226 248.088C623.948 243.061 612.985 246.42 610.018 246.146Z"
     fill="#13375B"
     id="path298" />
  <path
     d="M618.389 262.896C618.389 262.896 619.63 259.4 621.49 259.902C625.698 261.022 622.62 268.746 621.224 268.974C618.434 269.386 617.282 267.101 618.389 262.896Z"
     fill="#F99662"
     id="path300" />
  <path
     d="M635.775 300.211C635.642 308.484 639.983 332.912 639.983 332.912C639.983 332.912 656.838 332.569 658.189 331.175C659.54 329.781 655.199 292.922 647.757 287.758C638.876 281.588 635.908 292.236 635.775 300.211Z"
     fill="#ECECEC"
     id="path302" />
  <path
     d="M610.995 271.82C610.309 269.387 605.464 271.231 605.61 272.078C605.757 272.925 605.824 274.142 608.217 274.099C611.081 274.013 611.682 274.253 610.995 271.82Z"
     fill="white"
     id="path304" />
  <path
     d="M301.927 519.849L311.188 521.236C311.188 521.236 313.097 512.609 315.488 501.151C311.439 500.99 307.349 501.133 303.223 501.231C302.608 512.026 301.927 519.849 301.927 519.849Z"
     fill="#FF8A63"
     id="path306" />
  <path
     d="M332.18 524.327L341.509 523.54C341.509 523.54 341.434 514.699 341.192 502.989C337.213 503.767 333.262 504.85 329.266 505.898C331.088 516.552 332.18 524.327 332.18 524.327Z"
     fill="#FF8A63"
     id="path308" />
  <path
     d="M405.517 355.769C400.955 355.598 401.049 356.388 400.474 356.312C399.769 356.252 392.607 350.536 392.607 350.536C392.607 350.536 371.371 333.826 370.256 332.868L357.576 307.564L343.218 311.022C343.218 311.022 357.732 338.118 358.741 339.396C359.75 340.674 391.19 359.704 393.916 361.465C393.916 361.465 396.32 364.83 397.926 366.916C399.499 368.953 401.951 370.187 402.484 370.682C402.557 370.74 404.473 372.334 407.337 373.61C409.814 374.72 408.022 372.51 408.022 372.51C408.022 372.51 403.842 369.592 404.15 369.313C404.37 369.059 406.553 370.794 409.296 372.045C409.992 372.36 410.688 372.674 411.303 372.973C412.97 373.702 413.938 372.874 412.345 371.775C411.787 371.403 410.816 370.774 410.08 370.451C409.262 370.111 408.664 369.517 408.034 369.087C406.764 368.269 405.866 367.698 405.915 367.666C406.012 367.6 405.868 367.271 406.604 367.594C407.494 367.991 409.233 369.206 410.617 369.663C411.411 369.913 413.013 370.543 413.013 370.543C413.013 370.543 415.872 371.432 415.994 371.03C416.216 370.134 414.542 369.232 413.399 369.039C412.785 368.527 411.053 367.912 411.053 367.912C411.053 367.912 407.923 365.854 408.233 365.361C408.355 365.173 410.354 365.928 412.516 366.502C414.792 367.143 416.452 367.485 416.664 367.058C417.015 366.36 415.202 365.729 415.202 365.729C415.202 365.729 413.631 365.148 413.13 364.916C412.547 364.668 410.848 363.675 410.848 363.675C410.848 363.675 405.081 360.045 405.375 359.635C405.708 359.233 406.919 358.455 407.364 358.547C407.81 358.639 408.488 359.25 408.934 359.342C409.379 359.434 410.327 359.544 410.524 358.985C410.72 358.426 408.481 356.765 408.481 356.765C408.481 356.765 406.855 355.831 405.517 355.769Z"
     fill="#FF8A63"
     id="path310" />
  <path
     d="M366.722 323.578C366.722 323.578 361.687 326.606 359.641 327.553C357.969 328.321 350.1 330.336 350.1 330.336C350.1 330.336 345.198 317.767 343.193 311.574C340.779 304.055 340.158 293.482 341.107 293.378C343.774 293.115 347.307 293.374 350.21 295.514C360.227 302.974 366.722 323.578 366.722 323.578Z"
     fill="#D6007E"
     id="path312" />
  <path
     d="M400.225 360.712C402.07 361.392 404.088 361.424 405.245 359.864C405.027 362.002 401.702 362.387 400.225 360.712Z"
     fill="#FE875E"
     id="path314" />
  <path
     d="M308.06 372.643C308.06 372.643 305.291 387.241 306.407 398.315C307.523 409.39 307.647 448.737 307.647 448.737L302.44 511.66L313.598 511.912C313.598 511.912 325.748 448.989 325.541 450.625C325.335 452.261 329.633 406.328 329.633 406.328L315.127 371.259L308.06 372.643Z"
     fill="#2BA14C"
     id="path316" />
  <path
     d="M311.945 363.204C311.945 363.204 299.34 376.669 304.051 391.393C305.952 397.308 323.475 453.771 323.723 458.385C323.929 462.999 329.674 514.008 329.674 514.008L341.617 513.631L344.18 456.917L340.75 380.529L333.517 367.651L311.945 363.204Z"
     fill="#8CD334"
     id="path318" />
  <path
     d="M351.206 299.95C345.354 297.944 336.584 291.709 336.584 291.709C336.584 291.709 327.418 295.174 325.144 295.604C321.787 296.218 315.557 296.353 314.534 310.937C313.796 321.414 304.365 378.754 299.998 383.023L342.576 380.217C339.198 371.894 347.628 347.747 348.487 343.649C350.416 334.466 356.72 301.86 351.206 299.95Z"
     fill="#FC008B"
     id="path320" />
  <path
     d="M352.831 284.995L349.05 297.088C349.05 297.088 346.4 306.717 345.954 306.969C341.642 309.378 331.4 293.703 331.4 293.703L343.36 278.994L352.831 284.995Z"
     fill="#FF8A63"
     id="path322" />
  <path
     opacity="0.68"
     d="M340.64 282.42L343.363 278.995L352.807 284.99L349.026 297.083C347.77 296.414 346.689 295.667 345.875 294.773C343.529 292.281 341.602 287.44 340.64 282.42Z"
     fill="#FF4900"
     id="path324" />
  <path
     d="M357.202 257.024C357.202 257.024 357.756 256.906 359.873 261.728C361.377 265.158 361.946 269.027 362.597 272.743C363.544 278.269 364.095 284.198 361.59 289.418C360.273 292.157 349.176 290.812 345.237 287.472C341.302 284.105 338.719 275.293 340.08 269.652C341.391 264.001 355.44 255.522 357.202 257.024Z"
     fill="#FF8A63"
     id="path326" />
  <path
     opacity="0.68"
     d="M361.43 266.693C361.037 264.978 360.552 263.329 359.841 261.749C359.228 260.358 358.747 259.388 358.373 258.693C354.91 259.431 350.242 260.64 347.471 261.371C346.639 261.972 345.828 262.605 345.068 263.248L344.935 274.47L348.07 269.571C348.07 269.571 350.763 266.026 355.41 265.915C357.851 265.798 359.974 266.24 361.43 266.693Z"
     fill="#FF4900"
     id="path328" />
  <path
     d="M344.71 283.384C343.754 284.78 342.548 284.969 339.097 284.381C334.672 283.603 330.985 279.21 331.087 272.504C331.437 251.999 350.047 250.598 354.967 249.608C356.793 249.229 358.018 250.061 358.847 251.297C360.153 253.247 362.182 254.462 364.434 254.506C365.413 254.527 367.987 254.973 368.385 256.661C369.517 261.488 368.69 266.131 361.23 264.676C344.334 261.381 346.575 280.696 344.71 283.384Z"
     fill="#2D2861"
     id="path330" />
  <path
     d="M347.562 272.268C347.562 272.268 345.683 266.193 344.191 269.435C342.704 272.649 342.187 279.585 345.805 278.171C349.418 276.784 347.562 272.268 347.562 272.268Z"
     fill="#FF8A63"
     id="path332" />
  <path
     d="M352.529 389.57C351.863 387.319 352.213 384.478 351.14 381.872C350.769 380.998 350.11 379.941 349.306 378.792C342.637 371.153 325.183 351.377 324.64 350.094C324.031 348.612 317.331 318.941 317.331 318.941L331.506 320.286L336.939 347.684C337.717 348.912 353.276 371.061 353.276 371.061C353.276 371.061 356.32 375.645 358.032 377.89C358.953 378.945 359.872 379.735 360.751 380.38C361.828 381.222 363.733 383.134 364.076 383.689C364.472 384.35 365.199 385.738 365.622 386.584C366.045 387.43 366.612 388.369 366.797 388.872C366.917 389.176 367.364 389.677 367.732 390.02C368.258 390.547 367.884 391.438 367.151 391.416C366.459 391.407 365.723 390.722 365.302 390.274C364.041 389.061 362.851 386.548 362.695 386.761C362.539 386.975 363.036 391.641 363.078 392.184C363.12 392.728 363.66 398.203 363.444 399.278C363.215 400.394 362.51 400.425 362.167 399.87C361.877 399.421 360.515 391.908 360.515 391.908C360.515 391.908 360.34 390.967 360.041 391.354C359.73 391.78 360.931 398.578 360.95 399.599C360.956 400.66 360.476 401.339 359.714 400.734C358.782 399.984 357.931 392.64 357.931 392.64C357.931 392.64 357.795 391.713 357.469 391.914C357.105 392.102 358.248 397.865 358.107 398.436C357.966 399.007 357.276 399.396 356.723 398.683C356.039 397.838 355.323 391.29 355.323 391.29C355.323 391.29 355.124 390.827 354.929 391.027C354.721 391.267 355.376 396.251 355.014 396.837C354.729 397.316 354.283 397.08 354.283 397.08C353.118 396.782 353.195 391.821 352.529 389.57Z"
     fill="#FF8A63"
     id="path334" />
  <path
     d="M316.72 333.256C316.72 333.256 321.452 333.28 324.652 332.929C326.781 332.664 336.144 331.266 336.144 331.266C336.144 331.266 337.479 315.248 336.844 309.123C334.562 286.654 320.426 296.928 318.075 299.635C312.803 305.743 316.72 333.256 316.72 333.256Z"
     fill="#D6007E"
     id="path336" />
  <path
     d="M359.978 283.074C359.291 280.642 354.447 282.485 354.593 283.332C354.739 284.18 354.807 285.396 357.2 285.353C360.063 285.267 360.665 285.507 359.978 283.074Z"
     fill="white"
     id="path338" />
  <path
     d="M343.932 521.515C343.932 521.515 339.3 522.795 336.925 523.137C334.549 523.457 331.429 520.738 329.75 521.469C327.902 522.269 328.094 530.221 328.094 530.221C328.094 530.221 352.787 531.615 359.77 529.467C362.53 528.622 353.387 524.508 343.932 521.515Z"
     fill="#184655"
     id="path340" />
  <path
     d="M313.46 519.736C313.46 519.736 308.656 519.644 306.281 519.295C303.913 518.925 301.697 515.43 299.879 515.652C297.88 515.893 295.798 523.57 295.798 523.57C295.798 523.57 319.071 531.941 326.377 531.871C329.263 531.847 321.671 525.299 313.46 519.736Z"
     fill="#184655"
     id="path342" />
  <path
     d="M501.805 333.549C503.796 330.493 513.517 314.907 514.726 312.934C516.172 306.679 514.577 298.065 509.463 293.625C507.284 291.734 502.933 285.834 495.971 297.724C495.971 297.724 485.891 323.824 483.539 330.061C476.119 347.645 481.274 350.531 484.142 351.181C486.741 351.769 497.761 339.752 501.805 333.549Z"
     fill="#CACED1"
     id="path344" />
  <path
     d="M553.271 502.312C553.271 502.312 554.323 512.938 556.997 514.881C559.695 516.823 563.283 524.044 561.477 527.952C560.906 529.163 559.786 529.871 558.529 530.26C554.757 531.425 550.734 529.46 549.111 525.849C548.22 523.838 547.42 521.142 547.26 517.76C546.848 509.122 544.174 504.735 544.174 504.735L553.271 502.312Z"
     fill="#F7A491"
     id="path346" />
  <path
     d="M511.944 506.653C511.944 506.653 511.098 517.371 511.784 520.844C512.15 522.718 514.207 526.557 513.27 528.293C512.333 530.053 511.258 530.487 511.258 530.487L486.869 530.876C485.543 530.898 486.412 530.053 487.486 529.253C489.246 527.973 490.663 527.105 496.263 524.409C496.629 524.226 497.955 523.38 498.435 523.106C499.646 522.375 500.881 521.21 501.932 520.021C503.692 518.079 503.829 508.641 503.829 508.641L511.944 506.653Z"
     fill="#F7A491"
     id="path348" />
  <path
     d="M492.88 364.223C492.88 364.223 489.817 381.613 491.829 393.015C493.84 404.418 495.931 511.657 495.931 511.657H518.943C518.943 511.657 519.354 450.21 518.943 444.086C518.531 437.939 516.527 422.569 516.527 422.569L513.636 408.371L500.058 361.526L492.88 364.223Z"
     fill="#DBDEE0"
     id="path350" />
  <path
     fill-rule="evenodd"
     clip-rule="evenodd"
     d="M451.94 375.162C451.937 375.167 451.934 375.172 451.931 375.177C450.925 376.729 449.926 378.27 449.284 378.118C449.284 378.118 448.844 378.125 448.816 377.618C448.789 377.26 449.6 375.87 450.285 374.695C450.797 373.819 451.238 373.062 451.21 372.942C451.139 372.699 450.8 372.992 450.8 372.992C450.8 372.992 447.62 378.005 446.751 378.406C446.036 378.755 445.657 378.153 445.777 377.631C445.829 377.407 446.451 376.5 447.126 375.517C448.019 374.216 449.004 372.78 448.886 372.607C448.714 372.309 448.237 373.005 448.237 373.005C448.237 373.005 444.633 378.606 443.61 378.828C442.778 379.003 442.678 378.253 443.108 377.395C443.265 377.091 443.865 376.213 444.554 375.203C445.728 373.485 447.162 371.385 447.118 371.086C447.041 370.649 446.528 371.339 446.528 371.339C446.528 371.339 442.461 376.866 442.056 377.11C441.568 377.417 441.034 377.1 441.303 376.1C441.533 375.261 443.548 371.952 444.228 370.835C444.328 370.671 444.399 370.554 444.431 370.499C444.481 370.416 444.608 370.211 444.779 369.933C445.481 368.798 446.931 366.452 446.902 366.261C446.887 366.158 446.52 366.387 445.99 366.717C445.29 367.153 444.306 367.765 443.474 368.027C442.968 368.216 442.123 368.466 441.583 368.186C441.006 367.9 441.074 367.023 441.693 366.813C442.115 366.688 442.663 366.467 442.877 366.27C443.086 366.069 443.468 365.798 443.885 365.501C444.156 365.308 444.442 365.104 444.705 364.903C445.372 364.392 446.492 363.568 447.064 363.196C447.552 362.888 449.795 362.129 450.967 361.893C451.907 361.735 452.936 361.476 454.073 361.002C454.674 360.702 455.48 360.401 456.335 360.12L475.746 343.461C475.746 343.461 479.324 343.838 481.317 341.767C483.591 342.271 483.737 341.912 484.105 341.005C484.318 340.479 484.607 339.767 485.432 338.931L485.684 343.604L486.449 343.665C486.449 343.665 490.223 341.582 485.791 345.595L485.985 349.196L461.418 363.684C460.01 365.227 458.48 366.903 457.817 367.09C457.773 367.129 457.73 367.169 457.687 367.209L452.003 375.44L451.94 375.162Z"
     fill="#F7A491"
     id="path352" />
  <path
     d="M471.573 345.026C468.592 347.421 462.812 350.99 460.964 352.562C459.638 353.692 456.146 355.075 453.592 356.027C452.647 356.849 457.669 364.418 461.385 370.784C461.385 370.784 479.906 357.024 487.651 351.057C508.394 335.076 489.23 340.594 486.583 339.01C484.996 338.061 476.57 341.012 471.573 345.026Z"
     fill="#CACED1"
     id="path354" />
  <path
     d="M527.651 362.407C527.651 362.407 534.6 371.969 536.612 382.481C538.624 393.015 538.796 424.808 542.682 438.587C544.785 446.059 551.663 459.113 552.875 468.756C554.086 478.399 561.338 507.054 561.338 507.054L537.695 511.131L518.893 443.059L499.281 386L494.252 356.613L527.651 362.407Z"
     fill="#F2F2F2"
     id="path356" />
  <path
     d="M517.635 288.174C517.635 288.174 525.064 289.019 529.499 293.841C539.133 300.746 537.283 340.125 535.383 349.451C530.943 359.558 528.127 364.063 528.127 364.063C528.127 364.063 500.4 369.181 492.88 364.223C492.88 364.223 485.991 342.716 492.88 315.664C493.68 311.276 500.4 293.43 502.023 291.67C503.623 289.933 517.635 288.174 517.635 288.174Z"
     fill="#F2F2F2"
     id="path358" />
  <path
     d="M513.91 273.23C513.91 273.23 513.979 273.55 514.07 274.121C514.573 276.818 516.493 285.73 517.796 288.197C519.373 291.168 512.425 300.629 505.727 299.463C503.738 299.12 507.419 290.78 507.236 289.888C506.893 288.197 506.436 285.889 505.979 283.513C505.704 282.188 505.453 280.816 505.201 279.56C504.493 275.949 503.898 272.979 503.898 272.979L513.91 273.23Z"
     fill="#F7A491"
     id="path360" />
  <path
     d="M514.705 277.611C514.59 277.04 514.545 276.72 514.545 276.72L504.51 276.469C504.51 276.469 505.104 279.417 505.813 283.05C506.064 284.307 506.338 285.655 506.59 286.98C508.144 286.752 509.767 285.998 511.39 284.581C513.15 283.027 514.316 281.176 515.025 279.188C514.887 278.571 514.773 278.023 514.705 277.611Z"
     fill="#F47458"
     id="path362" />
  <path
     d="M507.254 252.705C507.254 252.705 513.563 263.947 518.089 264.473C522.615 264.999 523.209 270.963 523.209 270.963C523.209 270.963 521.586 257.183 517.129 254.533C512.648 251.882 507.254 252.705 507.254 252.705Z"
     fill="#13375B"
     id="path364" />
  <path
     d="M548.381 523.952C554.233 525.026 558.141 521.598 560.176 519.039C561.661 521.941 562.576 525.552 561.479 527.951C560.519 530.053 557.89 530.625 555.673 530.716C553.318 530.807 551.124 529.573 549.958 527.54C549.432 526.557 548.861 525.369 548.381 523.952Z"
     fill="#2D2861"
     id="path366" />
  <path
     d="M498.411 523.107C504.857 524.752 509.634 523.633 512.309 522.559C512.994 524.501 513.909 526.946 513.429 528.363C512.834 530.077 511.988 530.465 511.257 530.488C505.36 530.648 489.679 530.854 485.176 530.922C484.559 530.922 484.193 530.191 484.604 529.711C485.702 528.386 497.931 523.404 498.411 523.107Z"
     fill="#2D2861"
     id="path368" />
  <path
     d="M533.334 359.134C533.334 359.134 531.681 362.334 531.056 363.305C530.431 364.276 519.814 365.808 511.982 365.529C504.151 365.251 492.692 365.251 491.233 364.278C491.233 364.278 487.9 359.895 491.233 358.086C494.567 356.276 533.334 359.134 533.334 359.134Z"
     fill="#2D2861"
     id="path370" />
  <path
     d="M531.058 363.304C531.384 362.799 533.1 361.281 532.716 360.372C533.1 359.335 523.963 363.125 520.462 363.057C520.462 363.057 523.966 363.521 529.889 361.965C529.889 361.965 527.124 367.129 491.23 364.276C492.689 365.249 504.151 365.249 511.979 365.528C519.808 365.807 530.433 364.276 531.058 363.304Z"
     fill="#67718E"
     id="path372" />
  <path
     d="M506.781 253.892C506.37 254.139 505.757 253.874 505.474 254.163C504.838 254.799 504.824 256.064 505.274 256.857C505.93 258.006 509.872 258.527 510.257 260.814C510.257 260.814 511.392 258.018 509.102 256.21C506.44 254.116 506.781 253.892 506.781 253.892Z"
     fill="#2D2861"
     id="path374" />
  <path
     d="M517.354 275.912C521.485 272.949 523.838 271.649 524.591 263.965C525.344 256.282 522.953 251.652 518.991 249.164C514.614 246.415 499.746 246.591 497.937 261.91L517.354 263.965L517.354 275.912Z"
     fill="#2D2861"
     id="path376" />
  <path
     d="M521.354 253.589C520.718 252.619 518.991 247.71 526.339 244.993C533.686 242.276 543.11 247.696 541.578 253.801C540.046 259.906 540.959 270.256 547.402 269.993C553.846 269.73 551.631 277.38 545.764 282.081C539.898 286.783 548.025 290.999 548.025 290.999C548.025 290.999 538.76 293.579 537.684 289.813C536.095 284.254 542.529 278.964 538.333 277.139C534.136 275.315 528.921 274.512 528.521 272.777C528.121 271.042 529.668 247.864 522.401 255.388L521.354 253.589Z"
     fill="#2D2861"
     id="path378" />
  <path
     d="M508.511 252.887C508.511 252.887 512.602 253.458 515.574 257.274C518.545 261.091 521.723 272.928 514.362 279.349C507.002 285.77 499.733 278.503 498.659 270.78C497.561 263.056 497.767 252.59 508.511 252.887Z"
     fill="#F7A491"
     id="path380" />
  <path
     d="M516.602 267.146C516.236 269.135 516.968 270.986 518.248 271.237C519.528 271.488 520.854 270.094 521.219 268.106C521.585 266.118 520.854 264.267 519.574 264.016C518.316 263.742 516.991 265.136 516.602 267.146Z"
     fill="#F7A491"
     id="path382" />
  <path
     d="M498.21 261.502C498.21 261.502 503.872 255.86 507.51 259.013C510.66 255.737 518.09 261.209 518.47 263.674C518.47 263.674 517.28 258.92 515.321 254.352C513.362 249.784 503.281 251.846 503.281 251.846L500.453 255.271L498.21 261.502Z"
     fill="#2D2861"
     id="path384" />
  <path
     d="M492.508 358.616C494.054 370.529 489.981 392.839 491.122 409.079C491.737 419.107 489.905 429.179 485.729 438.734C485.729 438.734 494.248 439.436 499.854 433.788C499.854 433.788 498.448 411.297 498.521 393.693C498.617 369.384 492.508 358.616 492.508 358.616Z"
     fill="#2D2861"
     id="path386" />
  <path
     d="M491.759 363.223C487.606 377.138 479.751 417.937 479.751 417.937L486.707 422.078L494.596 360.213L491.759 363.223Z"
     fill="#2D2861"
     id="path388" />
  <path
     d="M506.54 250.376C505.524 251.186 503.783 250.693 503.127 251.569C501.646 253.505 502.058 256.904 503.549 258.872C505.719 261.724 516.486 261.722 518.333 267.724C518.333 267.724 520.385 259.813 513.595 255.775C505.704 251.101 506.54 250.376 506.54 250.376Z"
     fill="#2D2861"
     id="path390" />
  <path
     d="M464.563 321.722C464.469 320.544 469.816 321.029 470.383 320.02C470.951 319.012 464.184 317.186 464.181 316.164C464.175 314.298 471.687 317.691 471.725 316.858C471.773 315.982 464.202 312.13 465.435 310.937C466.668 309.744 472.884 315.779 473.326 314.916C473.779 314.011 467.04 309.84 467.699 307.79C468.07 306.686 478.323 316.421 479.839 316.189C481.407 315.925 479.845 309.976 481.166 309.471C482.487 308.967 482.704 321.185 483.394 321.762C484.043 322.328 497.845 335.77 503.224 338.705C504.431 336.928 506.584 334.729 507.675 333.056C510.316 336.175 512.418 337.958 515.184 340.932C511.222 346.396 506.076 352.177 504.186 352.491C498.454 353.505 482.911 331.892 479.695 328.093C476.448 324.24 473.978 324.583 471.511 323.018C469.139 321.432 464.658 322.901 464.563 321.722Z"
     fill="#F7A491"
     id="path392" />
  <path
     d="M501.544 337.333C498.64 334.846 494.065 329.825 492.178 328.299C490.823 327.204 488.819 324.028 487.412 321.694C486.43 320.917 479.918 327.25 474.348 332.078C474.348 332.078 479.427 335.962 486.721 342.471C506.258 359.906 509.161 353.868 510.229 350.975C518.782 335.535 513.767 320.477 501.544 337.333Z"
     fill="#E0E3E6"
     id="path394" />
  <path
     d="M524.093 336.03C526.18 332.827 536.372 316.486 537.64 314.416C539.156 307.858 537.483 298.827 532.121 294.172C529.837 292.189 525.275 286.003 517.975 298.469C517.975 298.469 507.407 325.834 504.941 332.373C497.162 350.81 502.566 353.836 505.574 354.518C508.299 355.134 519.852 342.535 524.093 336.03Z"
     fill="#E0E3E6"
     id="path396" />
  <path
     d="M508.29 275.012C507.604 272.579 502.759 274.423 502.905 275.27C503.052 276.117 503.119 277.334 505.512 277.291C508.376 277.205 508.977 277.444 508.29 275.012Z"
     fill="white"
     id="path398" />
  <defs
     id="defs405">
    <linearGradient
       id="paint0_linear"
       x1="-71.4049"
       y1="309.809"
       x2="722.222"
       y2="309.809"
       gradientUnits="userSpaceOnUse">
      <stop
         stop-color="#BCE3F1"
         id="stop400" />
      <stop
         offset="1"
         stop-color="#D0F7FF"
         id="stop402" />
    </linearGradient>
  </defs>
</svg>
