<svg width="677" height="457" viewBox="0 0 677 457" fill="none" xmlns="http://www.w3.org/2000/svg">
<path d="M698.112 37.1154C619.017 -57.8152 532.869 66.0178 371.21 51.8471C71.8481 15.8982 179.52 215.78 109.469 233.741C79.7806 245.18 96.7121 236.93 65.9095 256.113C42.9004 270.442 12.0638 307.174 3.54196 350.133C-5.42179 395.196 5.65665 447.765 5.65665 447.765L747.95 454.363C767.961 404.893 760.953 112.514 698.112 37.1154Z" fill="url(#paint0_linear)"/>
<path d="M11.7833 436.784H745.211C751.701 436.784 756.953 442.555 756.953 449.686V456.486H0.0410156V449.686C0.0410156 442.555 5.29337 436.784 11.7833 436.784Z" fill="#FEE2BF"/>
<path d="M326.701 283.385C331.25 282.082 331.364 282.882 331.936 282.699C332.622 282.494 338.108 275.044 338.108 275.044C338.108 275.044 354.451 253.267 355.274 252.056L360.417 223.857L375.892 223.743C375.892 223.743 369.423 254.181 368.783 255.689C368.143 257.197 342.268 283.796 340.073 286.218C340.073 286.218 338.656 290.149 337.673 292.594C336.69 295.016 334.61 296.799 334.222 297.438C334.153 297.53 332.736 299.563 330.244 301.529C328.096 303.22 329.239 300.592 329.239 300.592C329.239 300.592 332.553 296.684 332.164 296.456C331.867 296.273 330.199 298.512 327.844 300.432C327.25 300.912 326.633 301.414 326.084 301.849C324.621 302.991 323.387 302.397 324.69 300.935C325.147 300.409 325.947 299.586 326.587 299.084C327.296 298.535 327.73 297.781 328.256 297.233C329.284 296.136 330.039 295.336 329.97 295.313C329.879 295.29 329.901 294.902 329.239 295.405C328.439 295.999 327.09 297.667 325.833 298.467C325.124 298.924 323.707 299.929 323.707 299.929C323.707 299.929 321.238 301.072 321.101 300.935C320.392 300.249 321.81 298.992 322.861 298.512C323.341 297.85 324.85 296.821 324.85 296.821C324.85 296.821 327.364 294.011 326.93 293.622C326.747 293.462 324.964 294.97 322.953 296.182C321.078 297.301 318.975 298.124 318.655 297.758C318.107 297.164 320.027 295.702 320.027 295.702C320.027 295.702 321.444 294.742 321.878 294.399C322.404 293.988 323.821 292.617 323.821 292.617C323.821 292.617 328.553 287.612 328.096 287.27C327.638 286.927 326.176 286.47 325.764 286.675C325.353 286.881 324.827 287.658 324.415 287.864C324.004 288.069 323.25 287.955 322.907 287.475C322.564 286.972 324.095 285.213 324.095 285.213C324.095 285.213 325.398 283.773 326.701 283.385Z" fill="#F48C7F"/>
<path d="M352.394 424.834C352.394 424.834 352.943 434.569 352.943 434.591C353.148 435.825 353.949 438.887 353.949 440.007C353.949 444.235 335.182 436.42 339.388 434.569C339.776 434.409 341.765 433.129 341.879 431.689C342.062 429.473 342.565 424.994 342.565 424.994L352.394 424.834Z" fill="#F7A491"/>
<path d="M339.433 434.499C339.433 434.499 343.845 435.779 346.108 436.122C348.371 436.442 351.343 433.722 352.943 434.454C354.703 435.253 354.52 443.206 354.52 443.206C354.52 443.206 330.999 444.599 324.347 442.451C321.718 441.606 330.427 437.493 339.433 434.499Z" fill="#184655"/>
<path d="M393.744 425.748C393.744 425.748 394.292 435.483 394.292 435.505C394.498 436.739 395.298 439.802 395.298 440.921C395.298 445.149 376.531 437.334 380.737 435.483C381.126 435.323 383.709 433.083 383.823 431.644C384.006 429.427 383.915 425.908 383.915 425.908L393.744 425.748Z" fill="#F7A491"/>
<path d="M380.783 435.413C380.783 435.413 385.195 436.693 387.458 437.036C389.721 437.356 392.692 434.636 394.292 435.368C396.053 436.167 396.121 443.434 396.121 443.434C396.121 443.434 370.977 445.262 365.057 443.548C362.382 442.794 371.777 438.43 380.783 435.413Z" fill="#184655"/>
<path d="M364.007 285.35L356.075 288.777L339.389 368.46L340.074 428.193L353.446 428.513C353.446 428.513 359.664 376.252 359.664 372.207C359.664 368.162 388.488 301.323 388.488 301.323L364.007 285.35Z" fill="#2BA14C"/>
<path d="M370.133 289.737C370.133 289.737 375.985 351.138 375.985 361.49C375.985 371.842 380.716 429.769 380.716 429.769L394.134 429.701C394.134 429.701 395.094 412.037 396.534 386.078C396.763 382.01 396.237 373.807 396.534 369.579C398.614 339.279 402.752 310.76 400.786 299.472C400.466 297.644 399.871 292.891 398.706 291.702C389.928 282.585 370.133 289.737 370.133 289.737Z" fill="#8DD041"/>
<path d="M353.766 241.27L369.995 240.173C369.995 240.173 370.795 225.662 370.795 218.761C370.795 210.375 373.355 197.989 372.349 198.218C369.538 198.881 364.692 201.463 362.452 204.593C354.657 215.448 353.766 241.27 353.766 241.27Z" fill="#D6007E"/>
<path d="M392.236 197.898C392.236 197.898 401.493 199.178 403.916 200.983C406.659 202.994 409.699 207.495 409.699 207.495C409.699 207.495 398.339 261.196 398.316 270.222C398.293 277.214 400.785 294.376 400.785 294.376C400.785 294.376 366.452 296.547 353.445 291.405C353.445 291.405 357.56 270.999 357.56 265.629C357.56 260.259 362.474 211.517 363.594 208.112C364.6 205.028 366.452 199.475 372.738 198.104C379.001 196.778 392.236 197.898 392.236 197.898Z" fill="#FC008B"/>
<path d="M389.699 183.456L391.985 198.447C391.985 198.447 383.619 216.293 378.613 214.762C374.43 213.46 376.99 197.67 376.99 197.67C376.99 197.67 379.276 189.192 378.59 184.942C377.927 180.691 389.699 183.456 389.699 183.456Z" fill="#F7A491"/>
<path d="M378.612 184.919C377.926 180.669 389.698 183.434 389.698 183.434L389.881 184.668C389.538 185.49 389.126 186.222 388.601 186.747C385.972 189.558 381.857 191.249 378.314 191.363C378.68 189.124 378.886 186.656 378.612 184.919Z" fill="#F47458"/>
<path d="M391.62 162.228C391.963 162.113 394.295 179.298 389.86 184.028C385.426 188.758 376.808 190.312 373.699 186.587C370.271 182.474 370.453 163.987 377.334 159.12C384.237 154.253 391.62 162.228 391.62 162.228Z" fill="#F7A491"/>
<path d="M379.962 149.933C385.288 151.007 388.74 154.229 389.997 155.623C392.42 155.897 395.689 157.223 399.095 162.798C403.255 169.654 400.192 177.24 395.323 180.988C390.477 184.713 390.523 189.032 390.523 189.032L389.769 186.792C389.197 185.101 388.968 183.319 389.151 181.536C389.266 180.485 389.494 179.32 389.929 178.383C391.094 175.892 387.414 174.247 386.386 172.167C385.585 170.568 385.563 166.935 384.305 164.284L382.82 162.273C382.82 162.273 379.368 159.622 376.008 160.353C372.671 161.108 373.151 148.539 379.962 149.933Z" fill="#13375B"/>
<path d="M386.636 175.23C386.591 177.332 387.551 179.046 388.785 179.069C389.996 179.092 391.025 177.401 391.048 175.298C391.094 173.196 390.134 171.482 388.899 171.459C387.688 171.436 386.682 173.127 386.636 175.23Z" fill="#F7A491"/>
<path d="M406.248 204.822C403.14 204.73 400.374 225.273 402.362 227.284C404.328 229.318 404.717 254.592 404.717 254.592L375.344 253.86C374.773 253.472 368.624 249.336 367.732 248.445C366.818 247.508 362.315 247.965 361.126 249.267C359.938 250.57 363.755 249.496 364.829 250.204C365.881 250.913 364.029 252.695 364.029 252.695C364.029 252.695 356.577 253.769 355.137 252.238C353.697 250.707 349.811 248.102 349.286 249.633C349.011 250.433 351.023 252.832 352.143 253.837C350.726 252.786 349.057 251.667 348.486 251.872C347.434 252.238 347.868 253.563 348.44 253.975C349.011 254.363 354.932 258.888 355.846 259.208C356.737 259.527 370.498 259.847 372.875 260.373C372.875 260.373 411.62 269.194 413.815 268.645C415.757 268.165 417.678 255.757 417.678 246.274C417.655 236.79 415.986 205.096 406.248 204.822Z" fill="#F7A491"/>
<path d="M402.202 200.138C402.202 200.138 407.62 201.395 413.22 207.679C418.317 213.391 421.518 245.429 421.518 245.429L403.94 248.262L402.545 232.769L397.859 225.685L402.202 200.138Z" fill="#D6007E"/>
<path d="M372.532 178.363L382.039 179.885C382.039 179.885 381.205 183.512 377.011 182.975C371.91 182.296 372.532 178.363 372.532 178.363Z" fill="white"/>
<path d="M249.959 425.542C249.959 425.542 249.936 425.862 249.936 426.41C249.936 428.055 250.21 431.666 252.47 434.34C255.484 437.904 255.507 442.337 252.311 443.092C249.114 443.846 241.534 442.84 241.534 442.84C241.534 442.84 239.821 439.458 240.986 430.409C242.15 421.36 242.835 411.42 242.835 411.42L251.489 409.889L249.959 425.542Z" fill="#FF7446"/>
<path d="M251.669 429.381C251.669 429.381 254.888 434.339 255.642 436.396C256.395 438.453 256.236 443.594 255.642 444.12C250.459 448.781 240.595 444.577 240.595 444.577C240.595 444.577 239.91 441.172 239.568 436.967C239.225 432.786 239.408 428.878 240.595 428.878C241.76 428.878 241.965 431.072 244.637 430.455C247.285 429.861 248.929 428.764 251.669 429.381Z" fill="#422F7F"/>
<path d="M239.773 439.07C241.783 439.962 244.5 440.99 247.011 441.401C249.706 441.835 253.336 440.464 256.076 439.116C256.213 441.31 256.007 443.778 255.619 444.12C250.436 448.782 240.573 444.577 240.573 444.577C240.573 444.577 240.116 442.247 239.773 439.07Z" fill="white"/>
<path d="M274.958 419.578C273.839 423.599 274.935 428.01 277.834 430.66C278.839 431.575 279.981 432.443 281.282 433.083C286.328 435.596 292.858 435.025 293.771 440.167C294.685 445.308 261.783 438.727 261.783 438.727C261.783 438.727 264.066 426.227 264.203 424.125C264.34 422.023 263.998 414.345 263.998 414.345L276.693 413.316L274.958 419.578Z" fill="#FF7446"/>
<path d="M263.111 429.861C263.111 429.861 262.7 431.849 261.786 435.208C260.873 438.567 261.444 441.744 261.444 441.744C261.444 441.744 292.245 443.412 293.5 442.292C294.756 441.195 294.117 437.151 293.797 436.785C293.478 436.419 289.573 435.231 287.564 433.814C285.555 432.42 278.705 427.096 276.399 427.302C274.093 427.507 273.02 429.45 268.613 429.678C264.229 429.93 264.206 428.878 263.111 429.861Z" fill="#422F7F"/>
<path d="M293.496 442.292C292.24 443.389 261.439 441.744 261.439 441.744C261.439 441.744 261.051 439.664 261.416 437.082C277.49 440.464 293.793 436.785 293.793 436.785C294.112 437.151 294.752 441.195 293.496 442.292Z" fill="white"/>
<path d="M261.42 437.082C272.402 439.573 284.572 439.047 293.796 436.785C277.037 439.664 263.497 437.425 264.434 437.539C264.388 437.539 261.214 437.059 261.42 437.082Z" fill="#9CB9BD"/>
<path d="M237.24 296.638L240.14 423.256L253.976 421.268C253.976 421.268 258.36 319.649 260.94 316.633C263.498 313.616 264.525 316.815 264.525 316.815C264.525 316.815 275.576 359.09 273.521 367.522C271.466 375.954 262.287 421.131 262.287 421.131L275.576 421.725C275.576 421.725 290.737 387.083 290.737 362.998C290.737 338.912 281.375 298.854 281.375 298.854L237.24 296.638Z" fill="#422F7F"/>
<path d="M261.773 421.671H277.756V417.946H261.773V421.671Z" fill="#021753"/>
<path d="M238.908 423.259H255.051V418.551H238.908V423.259Z" fill="#021753"/>
<path d="M243.109 420.4C243.131 420.4 243.177 420.4 243.2 420.377C243.428 420.308 243.565 420.057 243.519 419.806C240.962 406.392 240.802 319.26 240.802 318.392C240.802 318.118 240.62 317.912 240.391 317.912C240.163 317.912 239.98 318.118 239.98 318.392C239.98 321.98 240.14 406.506 242.72 420.011C242.743 420.24 242.926 420.4 243.109 420.4Z" fill="#021753"/>
<path d="M264.547 420.4C264.707 420.4 264.867 420.286 264.935 420.08C265.552 418.092 280.142 371.316 279.32 364.872C278.498 358.496 269.182 318.415 268.794 316.701C268.725 316.45 268.52 316.29 268.292 316.359C268.063 316.427 267.949 316.701 267.995 316.953C268.086 317.364 277.699 358.702 278.498 365.009C279.297 371.224 264.296 419.258 264.159 419.738C264.09 419.989 264.182 420.263 264.41 420.355C264.456 420.4 264.501 420.4 264.547 420.4Z" fill="#021753"/>
<path d="M278.911 207.952L298.25 233.477L275.463 241.795L278.911 207.952Z" fill="#DCD9DB"/>
<path d="M228.609 199.726C231.554 196.779 238.381 194.631 242.833 193.465C245.39 192.802 248.062 192.643 250.688 193.008L260.711 194.379C260.711 194.379 273.748 202.766 278.635 207.656C283.521 212.546 287.95 243.167 287.95 243.167L285.735 254.844L288.293 306.213C287.174 306.213 253.542 310.326 234.842 304.728C234.842 304.728 234.842 277.329 234.317 260.693C232.102 248.011 224.704 203.611 228.609 199.726Z" fill="white"/>
<path d="M228.814 199.52C230.344 198.081 232.718 196.915 234.659 196.115C234.659 196.115 238.358 194.082 241.714 207.952C245.071 221.823 240.801 238.687 242.308 240.172C243.792 241.658 276.511 239.967 276.511 239.967C276.511 239.967 257.4 250.981 248.062 259.002C244.317 262.224 234.385 263.915 234.385 263.801C234.362 262.704 234.316 261.653 234.294 260.647C233.243 254.546 224.293 203.725 228.814 199.52Z" fill="#DCD9DB"/>
<path d="M311.354 228.747L294.915 259.824C294.527 260.556 293.75 260.99 292.951 260.944L273.429 259.802C272.037 259.71 271.101 258.293 271.58 256.968L281.649 228.61C281.923 227.81 282.654 227.261 283.499 227.216L309.391 225.662C311.034 225.525 312.13 227.284 311.354 228.747Z" fill="#F7CC7F"/>
<path d="M270.049 256.785L280.255 228.678C280.552 227.879 281.282 227.33 282.127 227.284L283.132 227.216C282.538 227.421 282.058 227.901 281.853 228.495L271.647 256.854C271.213 258.065 271.944 259.367 273.154 259.642L271.921 259.573C270.505 259.505 269.569 258.111 270.049 256.785Z" fill="#DB9044"/>
<path d="M233.246 237.522L234.799 243.098C234.799 243.098 267.837 234.574 271.719 232.7C274.847 231.192 287.313 227.856 291.971 228.176C292.724 228.221 292.816 229.295 292.085 229.478C289.163 230.187 283.34 231.649 283.34 232.243C283.34 233.02 289.185 234.163 288.774 235.123C287.93 237.042 285.053 238.139 284.505 239.944C283.957 241.727 278.02 240.333 275.988 240.333C273.956 240.333 236.26 263.23 224.866 257.791C213.473 252.352 220.368 228.267 220.368 228.267L233.246 237.522Z" fill="#F99662"/>
<path d="M295.188 249.473C295.942 248.719 295.896 246.845 296.786 245.976C297.654 245.108 298.613 246.868 298.841 244.88C299.07 242.892 297.677 239.829 299.024 239.989C300.371 240.149 302.243 245.725 302.243 245.725C303.225 248.01 298.841 256.511 296.512 255.94C294.183 255.368 293.293 252.603 293.293 251.324C293.293 250.044 294.435 250.227 295.188 249.473Z" fill="#F99662"/>
<path d="M260.711 194.38C260.734 194.38 260.734 194.403 260.757 194.403C260.757 194.403 260.779 194.403 260.779 194.425C260.802 194.425 260.802 194.448 260.825 194.448L260.848 194.471C260.871 194.494 260.894 194.494 260.916 194.517L260.939 194.54C260.962 194.563 261.008 194.585 261.031 194.608C261.031 194.608 261.031 194.608 261.053 194.608C261.053 194.608 261.076 194.608 261.076 194.631C261.076 194.631 261.099 194.631 261.099 194.654C261.122 194.654 261.122 194.677 261.145 194.677C261.145 194.677 261.168 194.677 261.168 194.7C261.236 194.745 261.305 194.791 261.373 194.837C261.396 194.837 261.396 194.86 261.419 194.86C262.652 195.659 265.3 197.419 268.246 199.498C268.246 199.498 269.456 204.411 268.885 207.542C268.314 210.696 267.081 211.678 265.346 210.97C263.611 210.261 260.323 205.623 259.569 205.874C258.816 206.125 253.77 212.478 251.327 211.495C249.683 210.833 244.751 200.047 242.285 193.626C242.468 193.58 242.628 193.534 242.81 193.489C245.368 192.826 248.039 192.666 250.665 193.032L260.711 194.38Z" fill="white"/>
<path d="M265.962 186.427C265.185 190.54 264.797 194.996 265.505 197.578C265.505 197.578 263.884 204.639 259.82 204.982C255.756 205.325 248.084 192.848 248.084 192.848L256.532 179.571L265.962 186.427Z" fill="#F99662"/>
<path opacity="0.4" d="M265.164 192.893C260.301 192.048 255.734 188.323 254.479 182.77L256.533 179.525L265.963 186.404C265.552 188.597 265.255 190.86 265.164 192.893Z" fill="#F26E5A"/>
<path d="M274.616 161.473C274.616 161.473 278.589 186.427 271.488 189.306C264.387 192.185 254.775 187.57 254.044 179.092C253.314 170.637 255.14 153.384 274.616 161.473Z" fill="#F99662"/>
<path d="M267.402 156.354C267.402 156.354 280.965 152.355 281.764 156.309C282.563 160.262 278.111 163.21 274.983 163.484C271.877 163.758 263.932 163.347 261.511 166.203C259.091 169.06 254.776 182.291 254.776 182.291L252.333 186.13C252.333 186.13 251.328 179.16 247.835 174.91C244.319 170.659 246.305 163.324 249.661 158.297C253.041 153.27 264.343 156.629 267.402 156.354Z" fill="#13375B"/>
<path d="M258.771 173.104C258.771 173.104 257.492 169.608 255.574 170.111C251.236 171.231 254.41 178.954 255.848 179.183C258.725 179.594 259.912 177.309 258.771 173.104Z" fill="#F99662"/>
<path d="M240.847 210.42C240.984 218.693 236.509 243.121 236.509 243.121C236.509 243.121 219.134 242.778 217.741 241.384C216.348 239.99 220.823 203.131 228.495 197.967C237.651 191.797 240.71 202.445 240.847 210.42Z" fill="#ECECEC"/>
<path d="M265.191 182.097L273.264 182.609C273.264 182.609 272.857 185.709 269.307 185.596C264.986 185.436 265.191 182.097 265.191 182.097Z" fill="white"/>
<path d="M489.064 211.77L487.578 205.052C487.578 205.052 482.732 208.114 479.92 212.501C477.086 216.889 475.76 228.588 474.937 229.023C474.137 229.457 465.2 215.7 463.623 213.529C461.68 210.856 460.971 207.771 459.759 205.417C458.548 203.086 454.296 202.287 452.673 202.584C451.05 202.881 454.891 209.713 454.891 209.713C454.891 209.713 464.583 226.532 467.805 235.741C471.028 244.95 481.109 249.337 482.732 248.035C484.355 246.709 489.064 211.77 489.064 211.77Z" fill="#F48C7F"/>
<path d="M459.669 206.72C459.669 206.72 459.258 204.961 458.183 204.595C457.086 204.229 455.212 204.549 455.075 204.595C454.96 204.641 452.857 203.498 452.857 203.498L454.595 206.72C454.595 206.72 457.978 210.696 459.098 209.211C460.241 207.725 459.669 206.72 459.669 206.72Z" fill="#F7A491"/>
<path d="M474.804 244.408C476.732 242.293 490.34 224.995 491.526 223.618C494.604 215.142 491.275 203.842 488.274 204.734C475.092 208.651 480.968 217.162 473.886 226.88C473.886 226.88 467.333 215.204 465.45 214.677C464.395 216.711 457.013 225.6 457.692 227.779C459.631 228.562 470.888 248.704 474.804 244.408Z" fill="#CACED1"/>
<path d="M452.262 203.635C452.262 203.635 451.051 209.85 451.348 211.153C451.668 212.455 452.445 211.747 452.582 211.473C453.176 210.307 453.611 206.331 453.611 206.331L452.262 203.635Z" fill="#F48C7F"/>
<path d="M454.891 208.8C454.891 208.8 454.32 212.662 453.703 213.096C453.314 213.393 452.811 213.21 452.651 212.433C452.491 211.656 453.428 206.903 453.428 206.903L454.891 208.8Z" fill="#F48C7F"/>
<path d="M458.457 219.745L460.491 218.763L451.874 201.099C450.754 201.647 450.297 202.995 450.845 204.115L458.457 219.745Z" fill="#184655"/>
<path d="M538.85 415.672C538.85 415.672 539.901 426.298 542.575 428.24C545.273 430.182 548.861 437.403 547.056 441.311C546.484 442.522 545.364 443.23 544.107 443.619C540.335 444.784 536.312 442.819 534.689 439.209C533.798 437.198 532.998 434.501 532.838 431.119C532.426 422.482 529.752 418.094 529.752 418.094L538.85 415.672Z" fill="#F7A491"/>
<path d="M497.522 420.013C497.522 420.013 496.676 430.73 497.362 434.203C497.728 436.077 499.785 439.916 498.848 441.653C497.911 443.412 496.836 443.846 496.836 443.846L472.447 444.235C471.121 444.258 471.99 443.412 473.064 442.613C474.824 441.333 476.241 440.465 481.842 437.768C482.207 437.585 483.533 436.74 484.013 436.466C485.225 435.734 486.459 434.569 487.51 433.381C489.27 431.438 489.408 422.001 489.408 422.001L497.522 420.013Z" fill="#F7A491"/>
<path d="M478.459 277.582C478.459 277.582 475.396 294.972 477.407 306.375C479.419 317.777 481.51 425.017 481.51 425.017H504.521C504.521 425.017 504.932 363.569 504.521 357.445C504.109 351.298 502.105 335.928 502.105 335.928L499.214 321.731L485.636 274.886L478.459 277.582Z" fill="#DBDEE0"/>
<path d="M513.229 275.767C513.229 275.767 520.179 285.329 522.19 295.84C524.202 306.375 524.375 338.167 528.26 351.946C530.363 359.419 537.241 372.472 538.453 382.115C539.664 391.759 546.917 420.413 546.917 420.413L523.274 424.49L504.471 356.419L484.859 299.359L479.83 269.973L513.229 275.767Z" fill="#F2F2F2"/>
<path d="M503.213 201.533C503.213 201.533 510.642 202.379 515.077 207.2C524.711 214.105 522.861 253.485 520.961 262.81C516.521 272.918 513.705 277.422 513.705 277.422C513.705 277.422 485.978 282.541 478.458 277.582C478.458 277.582 471.57 256.075 478.458 229.023C479.258 224.636 485.978 206.789 487.601 205.029C489.201 203.293 503.213 201.533 503.213 201.533Z" fill="#F2F2F2"/>
<path d="M513.706 210.833C512.997 208.662 510.528 207.634 508.448 208.525C505.591 209.759 501.636 212.113 499.693 216.134C496.47 222.853 485.179 245.955 481.681 246.846C478.184 247.715 463.92 222.853 463.92 222.853C463.92 222.853 464.332 218.465 463.12 215.974C461.909 213.484 458.274 210.856 457.749 211.724C457.2 212.592 459.76 214.786 459.76 215.243C459.76 215.677 458.686 215.974 457.2 215.106C455.714 214.238 454.914 212.455 454.914 212.455C454.914 212.455 452.491 216.866 455.051 220.819C457.612 224.772 458.686 226.372 458.686 226.372C458.686 226.372 475.235 263.071 481.27 263.505C486.916 263.939 519.374 227.948 513.706 210.833Z" fill="#F7A491"/>
<path d="M499.488 186.588C499.488 186.588 499.557 186.908 499.648 187.479C500.151 190.176 502.071 199.088 503.374 201.556C504.952 204.527 498.003 213.987 491.305 212.821C489.317 212.479 492.997 204.138 492.814 203.247C492.471 201.556 492.014 199.248 491.557 196.871C491.282 195.546 491.031 194.175 490.779 192.918C490.071 189.308 489.477 186.337 489.477 186.337L499.488 186.588Z" fill="#F7A491"/>
<path d="M500.283 190.971C500.168 190.399 500.123 190.079 500.123 190.079L490.088 189.828C490.088 189.828 490.682 192.776 491.391 196.409C491.642 197.666 491.917 199.014 492.168 200.34C493.722 200.111 495.345 199.357 496.968 197.94C498.728 196.386 499.894 194.535 500.603 192.547C500.466 191.93 500.351 191.382 500.283 190.971Z" fill="#F47458"/>
<path d="M492.832 166.063C492.832 166.063 499.141 177.306 503.667 177.831C508.193 178.357 508.787 184.321 508.787 184.321C508.787 184.321 507.164 170.542 502.707 167.891C498.227 165.24 492.832 166.063 492.832 166.063Z" fill="#13375B"/>
<path d="M533.959 437.311C539.811 438.385 543.719 434.958 545.754 432.398C547.24 435.301 548.154 438.911 547.057 441.31C546.097 443.413 543.468 443.984 541.251 444.075C538.896 444.167 536.702 442.933 535.536 440.899C535.01 439.916 534.439 438.728 533.959 437.311Z" fill="#2D2861"/>
<path d="M483.989 436.466C490.435 438.112 495.212 436.992 497.887 435.918C498.572 437.86 499.487 440.305 499.007 441.722C498.412 443.436 497.567 443.824 496.835 443.847C490.938 444.007 475.257 444.213 470.754 444.282C470.137 444.282 469.771 443.55 470.183 443.07C471.28 441.745 483.509 436.763 483.989 436.466Z" fill="#2D2861"/>
<path d="M518.912 272.494C518.912 272.494 517.259 275.694 516.634 276.664C516.009 277.635 505.392 279.168 497.56 278.889C489.729 278.61 478.27 278.61 476.811 277.637C476.811 277.637 473.478 273.254 476.812 271.445C480.145 269.636 518.912 272.494 518.912 272.494Z" fill="#2D2861"/>
<path d="M516.636 276.663C516.962 276.158 518.678 274.641 518.294 273.732C518.678 272.694 509.542 276.484 506.04 276.416C506.04 276.416 509.544 276.88 515.467 275.324C515.467 275.324 512.702 280.488 476.809 277.636C478.267 278.609 489.729 278.609 497.558 278.888C505.386 279.166 516.011 277.636 516.636 276.663Z" fill="#67718E"/>
<path d="M492.359 167.251C491.948 167.498 491.335 167.233 491.052 167.522C490.416 168.159 490.402 169.423 490.852 170.216C491.508 171.365 495.45 171.887 495.835 174.173C495.835 174.173 496.97 171.377 494.68 169.569C492.018 167.476 492.359 167.251 492.359 167.251Z" fill="#2D2861"/>
<path d="M502.932 189.271C507.063 186.308 509.416 185.008 510.169 177.324C510.922 169.64 508.532 165.011 504.569 162.523C500.192 159.774 485.324 159.95 483.515 175.269L502.932 177.324L502.932 189.271Z" fill="#2D2861"/>
<path d="M506.932 166.947C506.296 165.977 504.569 161.068 511.917 158.351C519.265 155.634 528.688 161.055 527.156 167.16C525.624 173.264 526.537 183.615 532.981 183.352C539.425 183.089 537.209 190.739 531.342 195.44C525.476 200.141 533.603 204.358 533.603 204.358C533.603 204.358 524.338 206.937 523.263 203.172C521.673 197.612 528.107 192.322 523.911 190.498C519.715 188.673 514.499 187.871 514.099 186.135C513.7 184.4 515.246 161.223 507.979 168.746L506.932 166.947Z" fill="#2D2861"/>
<path d="M494.089 166.245C494.089 166.245 498.18 166.817 501.152 170.633C504.123 174.449 507.301 186.286 499.94 192.707C492.58 199.128 485.311 191.862 484.237 184.138C483.14 176.414 483.345 165.948 494.089 166.245Z" fill="#F7A491"/>
<path d="M502.18 180.506C501.814 182.494 502.546 184.345 503.826 184.596C505.106 184.848 506.432 183.454 506.797 181.466C507.163 179.478 506.432 177.627 505.152 177.375C503.894 177.101 502.569 178.495 502.18 180.506Z" fill="#F7A491"/>
<path d="M485.884 186.923L493.884 187.384C493.884 187.384 493.498 190.458 489.981 190.366C485.7 190.232 485.884 186.923 485.884 186.923Z" fill="white"/>
<path d="M483.788 174.861C483.788 174.861 489.45 169.218 493.088 172.372C496.238 169.096 503.668 174.568 504.048 177.033C504.048 177.033 502.858 172.279 500.899 167.711C498.94 163.143 488.859 165.205 488.859 165.205L486.032 168.63L483.788 174.861Z" fill="#2D2861"/>
<path d="M478.086 271.975C479.632 283.889 475.559 306.198 476.7 322.438C477.315 332.467 475.483 342.539 471.307 352.093C471.307 352.093 479.826 352.795 485.432 347.147C485.432 347.147 484.027 324.657 484.099 307.052C484.195 282.744 478.086 271.975 478.086 271.975Z" fill="#2D2861"/>
<path d="M477.337 276.582C473.185 290.498 465.329 331.297 465.329 331.297L472.286 335.437L480.174 273.572L477.337 276.582Z" fill="#2D2861"/>
<path d="M480.355 246.675C477.888 243.754 474.18 238.063 472.564 236.253C471.401 234.954 469.934 231.497 468.921 228.967C468.076 228.043 460.631 233.247 454.357 237.117C454.357 237.117 458.746 241.766 464.899 249.363C481.38 269.712 485.216 264.219 486.734 261.535C497.658 247.671 495.129 232.003 480.355 246.675Z" fill="#E0E3E6"/>
<path d="M492.118 163.735C491.102 164.545 489.361 164.052 488.705 164.927C487.225 166.864 487.636 170.263 489.127 172.231C491.297 175.083 502.064 175.081 503.911 181.083C503.911 181.083 505.964 173.172 499.173 169.134C491.282 164.459 492.118 163.735 492.118 163.735Z" fill="#2D2861"/>
<path d="M502.82 249.013C505.395 246.187 518.081 231.696 519.665 229.858C522.216 223.629 522.016 214.446 517.472 208.99C515.536 206.665 512.028 199.826 502.82 210.957C502.82 210.957 487.99 236.267 484.505 242.325C473.863 259.272 478.711 263.127 481.57 264.283C484.161 265.33 497.589 254.751 502.82 249.013Z" fill="#E0E3E6"/>
<defs>
<linearGradient id="paint0_linear" x1="-69.7924" y1="257.301" x2="699.112" y2="257.301" gradientUnits="userSpaceOnUse">
<stop stop-color="#BCE3F1"/>
<stop offset="1" stop-color="#D0F7FF"/>
</linearGradient>
</defs>
</svg>
