<svg width="717" height="550" viewBox="0 0 717 550" fill="none" xmlns="http://www.w3.org/2000/svg">
<path d="M721.19 44.3819C639.552 -70.054 550.634 79.2229 383.777 62.1405C74.7898 18.8053 185.924 259.756 113.62 281.408C82.9773 295.197 100.453 285.253 68.6602 308.377C44.9113 325.65 13.0832 369.93 4.28734 421.716C-4.96462 476.038 6.47002 539.408 6.47002 539.408L772.63 547.361C793.284 487.727 786.052 135.273 721.19 44.3819Z" fill="url(#paint0_linear)"/>
<path d="M12.7937 529.217H769.803C776.502 529.217 781.923 535.174 781.923 542.534V549.552H0.673828V542.534C0.673828 535.174 6.09506 529.217 12.7937 529.217Z" fill="#FEE2BF"/>
<path d="M546.642 303.276L545.156 296.558C545.156 296.558 540.31 299.62 537.498 304.007C534.664 308.394 533.338 320.094 532.515 320.528C531.715 320.963 522.778 307.206 521.201 305.035C519.258 302.362 518.549 299.277 517.338 296.923C516.126 294.592 511.874 293.793 510.252 294.09C508.629 294.387 512.469 301.219 512.469 301.219C512.469 301.219 522.161 318.038 525.384 327.247C528.607 336.456 538.687 340.843 540.31 339.541C541.933 338.215 546.642 303.276 546.642 303.276Z" fill="#F48C7F"/>
<path d="M517.247 298.226C517.247 298.226 516.836 296.466 515.762 296.101C514.664 295.735 512.79 296.055 512.653 296.101C512.538 296.146 510.436 295.004 510.436 295.004L512.173 298.226C512.173 298.226 515.556 302.202 516.676 300.717C517.819 299.231 517.247 298.226 517.247 298.226Z" fill="#F7A491"/>
<path d="M532.382 335.914C534.31 333.799 547.918 316.5 549.104 315.124C552.182 306.648 548.853 295.348 545.852 296.24C532.67 300.157 538.546 308.668 531.464 318.386C531.464 318.386 524.911 306.71 523.028 306.183C521.973 308.217 514.591 317.106 515.27 319.285C517.209 320.068 528.467 340.21 532.382 335.914Z" fill="#CACED1"/>
<path d="M509.84 295.141C509.84 295.141 508.629 301.356 508.926 302.659C509.246 303.961 510.023 303.253 510.16 302.979C510.754 301.813 511.189 297.837 511.189 297.837L509.84 295.141Z" fill="#F48C7F"/>
<path d="M512.469 300.306C512.469 300.306 511.898 304.168 511.281 304.602C510.892 304.899 510.389 304.716 510.229 303.939C510.069 303.162 511.006 298.409 511.006 298.409L512.469 300.306Z" fill="#F48C7F"/>
<path d="M516.035 311.251L518.069 310.269L509.452 292.604C508.332 293.153 507.875 294.501 508.423 295.621L516.035 311.251Z" fill="#184655"/>
<path d="M596.428 507.178C596.428 507.178 597.479 517.804 600.154 519.746C602.851 521.688 606.44 528.909 604.634 532.817C604.062 534.028 602.942 534.736 601.685 535.125C597.913 536.29 593.89 534.325 592.267 530.714C591.376 528.704 590.576 526.007 590.416 522.625C590.004 513.987 587.33 509.6 587.33 509.6L596.428 507.178Z" fill="#F7A491"/>
<path d="M555.1 511.519C555.1 511.519 554.255 522.236 554.94 525.709C555.306 527.583 557.363 531.422 556.426 533.159C555.489 534.918 554.415 535.352 554.415 535.352L530.025 535.741C528.699 535.764 529.568 534.918 530.642 534.118C532.402 532.839 533.819 531.97 539.42 529.274C539.785 529.091 541.111 528.246 541.591 527.971C542.803 527.24 544.037 526.075 545.088 524.887C546.849 522.944 546.986 513.507 546.986 513.507L555.1 511.519Z" fill="#F7A491"/>
<path d="M536.037 369.088C536.037 369.088 532.974 386.478 534.985 397.881C536.997 409.283 539.088 516.523 539.088 516.523H562.099C562.099 516.523 562.51 455.075 562.099 448.951C561.688 442.804 559.683 427.434 559.683 427.434L556.792 413.237L543.214 366.392L536.037 369.088Z" fill="#DBDEE0"/>
<path d="M570.807 367.272C570.807 367.272 577.757 376.834 579.768 387.346C581.78 397.88 581.953 429.673 585.839 443.452C587.942 450.924 594.819 463.978 596.031 473.621C597.242 483.264 604.495 511.919 604.495 511.919L580.852 515.996L562.049 447.925L542.437 390.865L537.408 361.479L570.807 367.272Z" fill="#F2F2F2"/>
<path d="M560.792 293.039C560.792 293.039 568.22 293.885 572.655 298.706C582.289 305.611 580.439 344.991 578.54 354.316C574.099 364.424 571.283 368.928 571.283 368.928C571.283 368.928 543.556 374.047 536.036 369.088C536.036 369.088 529.148 347.581 536.036 320.529C536.836 316.142 543.556 298.295 545.179 296.535C546.779 294.799 560.792 293.039 560.792 293.039Z" fill="#F2F2F2"/>
<path d="M571.284 302.339C570.575 300.168 568.106 299.14 566.026 300.031C563.169 301.265 559.215 303.618 557.272 307.64C554.049 314.358 542.757 337.461 539.259 338.352C535.762 339.221 521.499 314.358 521.499 314.358C521.499 314.358 521.91 309.971 520.698 307.48C519.487 304.989 515.853 302.362 515.327 303.23C514.778 304.098 517.338 306.292 517.338 306.749C517.338 307.183 516.264 307.48 514.778 306.612C513.292 305.744 512.492 303.961 512.492 303.961C512.492 303.961 510.069 308.371 512.63 312.325C515.19 316.278 516.264 317.878 516.264 317.878C516.264 317.878 532.813 354.577 538.848 355.011C544.494 355.445 576.952 319.454 571.284 302.339Z" fill="#F7A491"/>
<path d="M557.067 278.095C557.067 278.095 557.135 278.415 557.227 278.986C557.729 281.682 559.65 290.594 560.952 293.062C562.53 296.033 555.581 305.493 548.883 304.328C546.895 303.985 550.575 295.644 550.392 294.753C550.049 293.062 549.592 290.754 549.135 288.378C548.86 287.052 548.609 285.681 548.358 284.424C547.649 280.814 547.055 277.843 547.055 277.843L557.067 278.095Z" fill="#F7A491"/>
<path d="M557.861 282.477C557.746 281.905 557.701 281.585 557.701 281.585L547.666 281.334C547.666 281.334 548.26 284.282 548.969 287.915C549.22 289.172 549.495 290.52 549.746 291.846C551.3 291.617 552.923 290.863 554.546 289.446C556.306 287.892 557.472 286.041 558.181 284.053C558.044 283.436 557.929 282.888 557.861 282.477Z" fill="#F47458"/>
<path d="M550.41 257.569C550.41 257.569 556.719 268.812 561.245 269.338C565.771 269.863 566.365 275.828 566.365 275.828C566.365 275.828 564.742 262.048 560.285 259.397C555.805 256.747 550.41 257.569 550.41 257.569Z" fill="#13375B"/>
<path d="M591.537 528.817C597.389 529.891 601.297 526.464 603.332 523.904C604.818 526.806 605.732 530.417 604.635 532.816C603.675 534.919 601.046 535.49 598.829 535.581C596.474 535.673 594.28 534.439 593.114 532.405C592.589 531.422 592.017 530.234 591.537 528.817Z" fill="#2D2861"/>
<path d="M541.567 527.972C548.013 529.618 552.79 528.498 555.465 527.424C556.151 529.366 557.065 531.811 556.585 533.228C555.99 534.942 555.145 535.33 554.413 535.353C548.516 535.513 532.835 535.719 528.332 535.787C527.715 535.787 527.349 535.056 527.761 534.576C528.858 533.251 541.087 528.269 541.567 527.972Z" fill="#2D2861"/>
<path d="M386.932 373.675C391.481 372.372 391.595 373.172 392.166 372.989C392.852 372.784 398.338 365.334 398.338 365.334C398.338 365.334 414.682 343.557 415.504 342.346L420.648 314.147L436.123 314.033C436.123 314.033 429.654 344.471 429.014 345.979C428.374 347.487 402.498 374.086 400.304 376.508C400.304 376.508 398.887 380.439 397.904 382.884C396.921 385.306 394.841 387.089 394.452 387.728C394.384 387.82 392.966 389.854 390.475 391.819C388.326 393.51 389.469 390.882 389.469 390.882C389.469 390.882 392.783 386.974 392.395 386.746C392.098 386.563 390.429 388.802 388.075 390.722C387.48 391.202 386.863 391.704 386.315 392.139C384.852 393.281 383.617 392.687 384.92 391.225C385.377 390.699 386.177 389.876 386.817 389.374C387.526 388.825 387.96 388.071 388.486 387.523C389.515 386.426 390.269 385.626 390.2 385.603C390.109 385.58 390.132 385.192 389.469 385.695C388.669 386.289 387.32 387.957 386.063 388.757C385.355 389.214 383.937 390.219 383.937 390.219C383.937 390.219 381.469 391.362 381.331 391.225C380.623 390.539 382.04 389.282 383.092 388.802C383.572 388.14 385.08 387.111 385.08 387.111C385.08 387.111 387.595 384.301 387.16 383.912C386.977 383.752 385.195 385.26 383.183 386.472C381.309 387.591 379.206 388.414 378.886 388.048C378.337 387.454 380.257 385.992 380.257 385.992C380.257 385.992 381.674 385.032 382.109 384.689C382.634 384.278 384.052 382.907 384.052 382.907C384.052 382.907 388.783 377.902 388.326 377.56C387.869 377.217 386.406 376.76 385.995 376.965C385.583 377.171 385.057 377.948 384.646 378.154C384.234 378.359 383.48 378.245 383.137 377.765C382.794 377.263 384.326 375.503 384.326 375.503C384.326 375.503 385.629 374.063 386.932 373.675Z" fill="#F48C7F"/>
<path d="M412.625 515.124C412.625 515.124 413.173 524.859 413.173 524.881C413.379 526.115 414.179 529.177 414.179 530.297C414.179 534.525 395.412 526.71 399.618 524.859C400.007 524.699 401.996 523.419 402.11 521.979C402.293 519.763 402.796 515.284 402.796 515.284L412.625 515.124Z" fill="#F7A491"/>
<path d="M399.664 524.79C399.664 524.79 404.076 526.07 406.339 526.413C408.601 526.733 411.573 524.013 413.173 524.745C414.933 525.544 414.75 533.497 414.75 533.497C414.75 533.497 391.229 534.89 384.578 532.742C381.949 531.897 390.658 527.784 399.664 524.79Z" fill="#184655"/>
<path d="M453.974 516.038C453.974 516.038 454.523 525.773 454.523 525.796C454.729 527.029 455.529 530.092 455.529 531.211C455.529 535.439 436.762 527.624 440.968 525.773C441.356 525.613 443.939 523.373 444.054 521.934C444.237 519.717 444.145 516.198 444.145 516.198L453.974 516.038Z" fill="#F7A491"/>
<path d="M441.014 525.704C441.014 525.704 445.425 526.984 447.688 527.327C449.951 527.647 452.923 524.927 454.523 525.659C456.283 526.458 456.352 533.725 456.352 533.725C456.352 533.725 431.208 535.553 425.287 533.839C422.613 533.085 432.008 528.721 441.014 525.704Z" fill="#184655"/>
<path d="M424.237 375.641L416.306 379.068L399.619 458.751L400.305 518.484L413.677 518.804C413.677 518.804 419.894 466.543 419.894 462.498C419.894 458.453 448.719 391.614 448.719 391.614L424.237 375.641Z" fill="#2BA14C"/>
<path d="M430.363 380.027C430.363 380.027 436.215 441.428 436.215 451.78C436.215 462.132 440.947 520.059 440.947 520.059L454.364 519.991C454.364 519.991 455.325 502.327 456.765 476.368C456.993 472.3 456.467 464.097 456.765 459.869C458.845 429.569 462.982 401.05 461.016 389.762C460.696 387.934 460.102 383.181 458.936 381.992C450.159 372.875 430.363 380.027 430.363 380.027Z" fill="#8DD041"/>
<path d="M413.996 331.561L430.225 330.464C430.225 330.464 431.026 315.953 431.026 309.052C431.026 300.666 433.586 288.28 432.58 288.509C429.768 289.172 424.922 291.754 422.682 294.884C414.888 305.739 413.996 331.561 413.996 331.561Z" fill="#D6007E"/>
<path d="M452.466 288.189C452.466 288.189 461.724 289.469 464.147 291.274C466.89 293.285 469.93 297.786 469.93 297.786C469.93 297.786 458.569 351.487 458.546 360.513C458.524 367.506 461.015 384.667 461.015 384.667C461.015 384.667 426.682 386.838 413.676 381.696C413.676 381.696 417.79 361.29 417.79 355.92C417.79 350.55 422.705 301.808 423.825 298.403C424.831 295.319 426.682 289.766 432.968 288.395C439.231 287.069 452.466 288.189 452.466 288.189Z" fill="#FC008B"/>
<path d="M449.93 273.747L452.216 288.737C452.216 288.737 443.85 306.584 438.844 305.053C434.661 303.75 437.221 287.96 437.221 287.96C437.221 287.96 439.507 279.482 438.821 275.232C438.158 270.982 449.93 273.747 449.93 273.747Z" fill="#F7A491"/>
<path d="M438.842 275.21C438.156 270.959 449.928 273.724 449.928 273.724L450.111 274.958C449.768 275.781 449.357 276.512 448.831 277.038C446.202 279.848 442.088 281.539 438.545 281.654C438.911 279.414 439.116 276.946 438.842 275.21Z" fill="#F47458"/>
<path d="M451.851 252.518C452.194 252.403 454.525 269.588 450.091 274.318C445.656 279.048 437.039 280.602 433.93 276.877C430.501 272.764 430.684 254.277 437.564 249.41C444.467 244.543 451.851 252.518 451.851 252.518Z" fill="#F7A491"/>
<path d="M440.193 240.224C445.519 241.298 448.97 244.52 450.228 245.914C452.651 246.188 455.919 247.513 459.325 253.089C463.485 259.944 460.422 267.531 455.554 271.279C450.708 275.003 450.753 279.322 450.753 279.322L449.999 277.083C449.428 275.392 449.199 273.609 449.382 271.827C449.496 270.776 449.725 269.61 450.159 268.674C451.325 266.183 447.645 264.537 446.616 262.458C445.816 260.858 445.793 257.225 444.536 254.574L443.05 252.563C443.05 252.563 439.598 249.913 436.238 250.644C432.901 251.398 433.381 238.83 440.193 240.224Z" fill="#13375B"/>
<path d="M446.867 265.52C446.821 267.623 447.781 269.336 449.015 269.359C450.227 269.382 451.256 267.691 451.278 265.589C451.324 263.486 450.364 261.773 449.13 261.75C447.918 261.727 446.913 263.418 446.867 265.52Z" fill="#F7A491"/>
<path d="M466.479 295.113C463.37 295.021 460.604 315.564 462.593 317.575C464.559 319.609 464.947 344.883 464.947 344.883L435.575 344.151C435.003 343.763 428.854 339.627 427.963 338.736C427.048 337.799 422.545 338.256 421.357 339.558C420.168 340.861 423.985 339.787 425.06 340.495C426.111 341.204 424.26 342.986 424.26 342.986C424.26 342.986 416.808 344.06 415.368 342.529C413.928 340.998 410.042 338.393 409.516 339.924C409.242 340.724 411.253 343.123 412.373 344.129C410.956 343.077 409.288 341.958 408.716 342.163C407.665 342.529 408.099 343.854 408.67 344.266C409.242 344.654 415.162 349.179 416.076 349.499C416.968 349.818 430.729 350.138 433.106 350.664C433.106 350.664 471.851 359.485 474.045 358.936C475.988 358.456 477.908 346.048 477.908 336.565C477.885 327.081 476.216 295.387 466.479 295.113Z" fill="#F7A491"/>
<path d="M462.433 290.428C462.433 290.428 467.85 291.685 473.451 297.969C478.548 303.681 481.748 335.719 481.748 335.719L464.17 338.552L462.776 323.059L458.09 315.975L462.433 290.428Z" fill="#D6007E"/>
<path d="M576.49 364C576.49 364 574.837 367.199 574.212 368.17C573.587 369.141 562.97 370.674 555.138 370.395C547.307 370.116 535.848 370.116 534.39 369.143C534.39 369.143 531.056 364.76 534.39 362.951C537.723 361.141 576.49 364 576.49 364Z" fill="#2D2861"/>
<path d="M574.214 368.169C574.54 367.664 576.256 366.147 575.872 365.238C576.256 364.2 567.12 367.99 563.619 367.922C563.619 367.922 567.122 368.386 573.045 366.83C573.045 366.83 570.28 371.994 534.387 369.142C535.846 370.115 547.307 370.115 555.136 370.393C562.964 370.672 573.589 369.142 574.214 368.169Z" fill="#67718E"/>
<path d="M549.937 258.756C549.526 259.004 548.913 258.739 548.63 259.027C547.994 259.664 547.98 260.929 548.431 261.721C549.087 262.87 553.028 263.392 553.413 265.678C553.413 265.678 554.548 262.882 552.258 261.075C549.596 258.981 549.937 258.756 549.937 258.756Z" fill="#2D2861"/>
<path d="M560.51 280.777C564.642 277.814 566.994 276.514 567.747 268.83C568.5 261.146 566.11 256.517 562.148 254.029C557.77 251.28 542.902 251.456 541.093 266.775L560.51 268.83L560.51 280.777Z" fill="#2D2861"/>
<path d="M564.51 258.454C563.874 257.483 562.147 252.575 569.495 249.858C576.843 247.141 586.266 252.561 584.734 258.666C583.203 264.771 584.115 275.121 590.559 274.858C597.003 274.595 594.787 282.245 588.92 286.946C583.054 291.647 591.181 295.864 591.181 295.864C591.181 295.864 581.916 298.443 580.841 294.678C579.251 289.118 585.685 283.829 581.489 282.004C577.293 280.18 572.077 279.377 571.677 277.642C571.278 275.906 572.824 252.729 565.557 260.252L564.51 258.454Z" fill="#2D2861"/>
<path d="M551.667 257.752C551.667 257.752 555.758 258.323 558.73 262.139C561.702 265.955 564.879 277.792 557.518 284.214C550.158 290.635 542.889 283.368 541.815 275.644C540.718 267.921 540.923 257.455 551.667 257.752Z" fill="#F7A491"/>
<path d="M559.758 272.011C559.392 273.999 560.124 275.85 561.404 276.102C562.684 276.353 564.01 274.959 564.376 272.971C564.741 270.983 564.01 269.132 562.73 268.881C561.473 268.606 560.147 270 559.758 272.011Z" fill="#F7A491"/>
<path d="M543.462 278.429L551.462 278.891C551.462 278.891 551.076 281.964 547.559 281.872C543.278 281.738 543.462 278.429 543.462 278.429Z" fill="white"/>
<path d="M541.366 266.367C541.366 266.367 547.028 260.724 550.667 263.877C553.816 260.602 561.246 266.074 561.626 268.539C561.626 268.539 560.436 263.784 558.477 259.217C556.518 254.649 546.437 256.711 546.437 256.711L543.61 260.136L541.366 266.367Z" fill="#2D2861"/>
<path d="M535.664 363.481C537.211 375.395 533.137 397.704 534.279 413.944C534.893 423.972 533.061 434.045 528.885 443.599C528.885 443.599 537.404 444.301 543.01 438.653C543.01 438.653 541.605 416.163 541.677 398.558C541.773 374.25 535.664 363.481 535.664 363.481Z" fill="#2D2861"/>
<path d="M534.915 368.088C530.763 382.003 522.907 422.803 522.907 422.803L529.864 426.943L537.752 365.078L534.915 368.088Z" fill="#2D2861"/>
<path d="M432.763 268.653L442.269 270.175C442.269 270.175 441.435 273.802 437.242 273.265C432.141 272.586 432.763 268.653 432.763 268.653Z" fill="white"/>
<path d="M239.85 257.131C239.85 257.131 225.473 253.429 223.758 268.739C222.044 284.05 229.838 286.403 225.61 293.807C221.381 301.188 216.649 295.658 215.712 316.636C214.798 337.613 262.891 363.092 275.578 350.638C316.768 310.169 267.897 293.67 269.863 281.285C271.852 268.877 266.183 258.365 258.663 253.886C251.142 249.339 241.565 249.339 239.85 257.131Z" fill="#475B6F"/>
<path d="M288.698 517.224C288.698 517.224 288.447 521.223 290.481 523.485C292.516 525.747 300.082 526.958 301.088 529.54C302.093 532.123 293.476 532.283 290.573 531.483C287.67 530.683 280.127 530.066 278.229 529.975C276.332 529.883 280.652 517.315 281.041 516.972C281.43 516.607 288.698 517.224 288.698 517.224Z" fill="#FF7446"/>
<path d="M244.536 514.756C244.536 514.756 246.411 523.188 246.228 526.433C246.045 529.678 242.091 534.728 239.051 534.568C236.01 534.408 233.496 532.374 234.227 528.421C234.959 524.468 237.268 515.053 237.268 515.053L244.536 514.756Z" fill="#FF7446"/>
<path d="M221.975 372.53C221.975 372.53 220.032 308.364 223.072 305.324C224.284 304.113 234.273 300.823 241.084 299.703C251.279 298.035 259.28 298.743 259.28 298.743C259.28 298.743 269.68 311.197 269.68 315.813C269.68 320.429 270.343 373.032 270.343 373.032C278.389 376.003 290.847 429.269 291.761 443.003C292.698 456.737 290.687 520.583 290.687 520.583L278.96 519.303C272.56 509.271 269.68 456.462 267.806 449.904C265.223 440.832 253.108 413.068 253.108 413.068L246.868 410.349C246.868 410.349 248.308 452.212 247.782 461.878C247.256 471.521 247.85 518.275 247.85 518.275L236.101 517.635C226.912 501.136 220.329 425.042 220.558 421.066C220.786 417.09 216.718 410.554 215.872 399.129C215.209 390.079 221.975 372.53 221.975 372.53Z" fill="#02BBD0"/>
<path d="M242.532 373.078H263.379V370.862H242.532V373.078Z" fill="white"/>
<path d="M251.075 373.97H255.098C255.83 373.97 256.447 373.376 256.447 372.621V371.662C256.447 370.93 255.853 370.313 255.098 370.313H251.075C250.344 370.313 249.727 370.908 249.727 371.662V372.621C249.727 373.376 250.321 373.97 251.075 373.97Z" fill="#271798"/>
<path opacity="0.38" d="M221.974 372.53C221.974 372.53 220.26 315.562 222.591 306.444C225.631 304.387 235.346 300.754 237.723 300.571C237.289 305.256 241.541 331.603 245.907 345.131C248.65 353.678 248.261 364.143 247.21 372.301C246.57 377.374 245.564 382.264 244.421 386.538C244.169 386.606 237.701 390.08 226.454 390.08C225.974 390.057 221.768 389.782 216.945 389.028C218.751 380.871 221.974 372.53 221.974 372.53Z" fill="#001C41"/>
<path opacity="0.38" d="M256.515 387.155C256.263 386.355 258.183 377.078 258.778 372.279H258.801C262.755 340.196 259.189 299.338 259.143 298.721C259.372 298.949 260.058 299.726 260.972 300.823C263.761 304.388 269.11 311.586 269.635 315.265C269.635 315.379 269.658 315.494 269.658 315.585C269.658 315.608 269.658 315.653 269.658 315.676C269.658 316.248 269.658 317.413 269.681 319.013C269.681 319.333 269.704 319.652 269.727 319.972C269.864 333.5 270.367 373.033 270.367 373.033C272.973 373.993 276.013 380.208 279.007 388.617C269.292 389.212 257.2 389.394 256.515 387.155Z" fill="#001C41"/>
<path d="M210.592 380.893C210.569 388.937 232.239 389.508 242.525 384.892L241.405 350.021L237.862 300.343C237.862 300.343 224.855 302.925 220.421 305.941C220.421 305.941 218.981 357.585 217.724 368.097C216.466 378.585 210.592 377.237 210.592 380.893Z" fill="#F4CC1A"/>
<path d="M270.732 301.554C270.732 301.554 275.806 342.686 275.806 353.38C275.806 364.097 277.841 382.584 277.841 382.584C277.841 382.584 266.869 386.789 259.234 384.892C259.234 384.892 266.503 343.646 266.503 340.949C266.503 338.253 259.143 298.697 259.143 298.697C259.143 298.697 266.114 299.086 270.732 301.554Z" fill="#F4CC1A"/>
<path d="M277.521 520.08L291.738 520.994L291.761 517.338L276.949 516.516L277.521 520.08Z" fill="#271798"/>
<path d="M234.523 517.704L248.627 518.641L248.696 514.985L233.906 514.162L234.523 517.704Z" fill="#271798"/>
<path d="M279.029 522.686C280.149 524.102 283.807 527.004 294.504 525.725C297.293 526.844 300.448 527.918 301.088 529.518C302.093 532.1 293.476 532.26 290.573 531.46C287.67 530.661 280.127 530.044 278.229 529.952C277.201 529.907 278.024 526.159 279.029 522.686Z" fill="#001653"/>
<path d="M246.228 526.433C246.045 529.678 242.091 534.728 239.051 534.568C236.01 534.408 233.496 532.375 234.227 528.421C234.479 527.096 234.913 525.131 235.37 523.143C235.759 525.611 236.902 529.815 240.148 528.353C243.668 526.776 245.222 523.12 245.839 521.703C246.091 523.508 246.274 525.291 246.228 526.433Z" fill="#001653"/>
<path opacity="0.18" d="M276.584 369.124C272.469 368.919 267.235 368.644 262.092 368.393C262.389 366.611 262.709 364.783 263.029 362.932L276.195 363.64C276.31 365.445 276.447 367.319 276.584 369.124Z" fill="#001653"/>
<path opacity="0.18" d="M241.977 367.48C241.954 367.48 241.931 367.48 241.908 367.48C238.708 367.48 226.273 370.885 221.747 370.885C220.01 370.885 218.593 370.382 217.473 369.765C217.473 369.719 217.496 369.696 217.496 369.651C217.587 369.171 217.656 368.645 217.724 368.074C217.747 367.8 217.793 367.503 217.816 367.183C217.976 365.629 218.09 363.869 218.204 362.201H241.794L241.977 367.48Z" fill="#001653"/>
<path d="M270.639 301.646C270.639 301.646 274.479 302.445 279.919 320.635C285.337 338.824 281.748 362.178 277.999 364.601C274.251 367.023 237.883 366.132 237.883 366.132L237.746 353.038C237.746 353.038 265.29 348.742 268.01 345.383C268.673 344.56 267.53 341.041 267.759 337.042C268.468 324.748 270.639 301.646 270.639 301.646Z" fill="#FFBD00"/>
<path d="M269.291 343.44C269.291 343.44 273.063 340.858 274.48 339.121C275.897 337.384 278.731 335.053 278.846 336.287C278.983 337.521 277.68 339.304 277.68 339.304C277.68 339.304 282.823 335.716 283.509 336.265C284.195 336.813 284.857 340.675 284.4 344.925C283.92 349.176 271.874 352.26 271.874 352.26L269.291 343.44Z" fill="#FFA97A"/>
<path d="M221.2 368.165C234.32 370.359 262.001 360.602 273.225 357.082L269.019 342.526C269.019 342.526 235.966 351.667 231.623 349.724C229.474 348.765 223.988 338.573 221.977 328.221C219.92 317.641 220.422 305.941 220.422 305.941C220.422 305.941 210.913 318.372 213.611 344.651C215.645 364.715 215.416 367.183 221.2 368.165Z" fill="#FFBD00"/>
<path d="M224.511 338.276C224.511 338.276 227.597 340.904 230.02 342.869C232.443 344.835 236.215 350.136 236.215 350.136C236.215 350.136 231.734 351.21 230.157 351.37C228.58 351.53 223.414 348.651 221.608 348.834C219.802 349.016 220.328 346.343 222.545 346.8C224.74 347.257 226.934 347.485 226.934 347.485C226.934 347.485 221.768 344.103 219.345 342.115C216.922 340.15 218.888 338.665 220.854 340.264C222.82 341.864 224.968 342.778 224.968 342.778C224.968 342.778 218.02 336.905 219.025 335.671C220.031 334.437 224.511 338.276 224.511 338.276Z" fill="#FFA97A"/>
<path d="M253.017 284.347C253.017 284.347 253.749 294.744 254.732 297.006C255.006 297.646 255.486 298.126 256.012 298.492C258.755 300.32 253.863 323.468 251.371 322.942C248.697 322.394 242.045 308.043 239.919 303.382C239.279 302.011 239.851 300.342 241.245 299.725C241.245 299.725 241.245 299.725 241.268 299.725C243.577 298.697 241.885 279.662 241.885 279.662L253.017 284.347Z" fill="#FFA97A"/>
<path opacity="0.65" d="M243.314 278.908C243.314 278.908 242.829 279.205 242.89 280.028C242.991 281.628 243.738 283.616 244.363 285.055C247.29 291.682 251.529 294.881 254.435 295.338C253.708 291.979 253.184 283.616 253.184 283.616L243.314 278.908Z" fill="#DBA39A"/>
<path d="M241.473 271.481C241.473 271.481 245.26 272.707 248.81 261.747C254.433 259.53 259.599 261.198 261.542 268.534C263.485 275.869 260.674 287.523 257.245 291.11C253.816 294.698 241.884 288.711 241.473 271.481Z" fill="#FFA97A"/>
<path d="M243.165 273.858C243.165 273.858 240.354 269.494 238.616 272.007C236.879 274.544 238.411 280.576 241.702 280.873C244.948 281.216 243.165 273.858 243.165 273.858Z" fill="#F8A272"/>
<path d="M344.636 218.71H252.17C243.351 218.71 236.214 208.022 236.214 194.816V146.98C236.214 133.774 243.351 123.086 252.17 123.086H344.667C353.486 123.086 360.623 133.774 360.623 146.98V194.816C360.623 208.022 353.454 218.71 344.636 218.71Z" fill="white"/>
<path d="M272.771 209.86L268.607 256.607L309.551 208.612L272.771 209.86Z" fill="white"/>
<path d="M270.695 138.747H323.134V191.186H270.695V138.747Z" fill="#E7AA6C"/>
<path d="M323.133 191.617H270.694C270.579 191.617 270.469 191.572 270.388 191.491C270.307 191.41 270.262 191.3 270.262 191.185V138.746C270.262 138.632 270.307 138.522 270.388 138.441C270.469 138.36 270.579 138.314 270.694 138.314H323.133C323.247 138.314 323.357 138.36 323.438 138.441C323.52 138.522 323.565 138.632 323.565 138.746V191.185C323.565 191.3 323.52 191.41 323.438 191.491C323.357 191.572 323.247 191.617 323.133 191.617ZM271.126 190.752H322.7V139.179H271.127L271.126 190.752Z" fill="#323C6B"/>
<path d="M274.969 142.767H318.861V187.167H274.969V142.767Z" fill="#89C5CD"/>
<path d="M318.861 142.767V187.166H316.024V145.363H274.969V142.767H318.861Z" fill="#6EAAAD"/>
<path d="M267.51 191.185H326.321V194.804H267.51V191.185Z" fill="#E7AA6C"/>
<path d="M326.319 195.236H267.509C267.394 195.236 267.284 195.191 267.203 195.11C267.122 195.029 267.076 194.919 267.076 194.804V191.185C267.076 191.071 267.122 190.961 267.203 190.88C267.284 190.798 267.394 190.753 267.509 190.753H326.319C326.434 190.753 326.544 190.798 326.625 190.88C326.706 190.961 326.752 191.071 326.752 191.185V194.804C326.752 194.919 326.706 195.029 326.625 195.11C326.544 195.191 326.434 195.236 326.319 195.236ZM267.941 194.372H325.887V191.618H267.941V194.372Z" fill="#323C6B"/>
<path d="M291.251 151.979C291.136 151.979 291.026 151.934 290.945 151.852C290.864 151.771 290.818 151.661 290.818 151.547V150.722C290.818 150.608 290.864 150.498 290.945 150.417C291.026 150.336 291.136 150.29 291.251 150.29C291.365 150.29 291.475 150.336 291.557 150.417C291.638 150.498 291.683 150.608 291.683 150.722V151.547C291.683 151.661 291.638 151.771 291.557 151.852C291.475 151.934 291.365 151.979 291.251 151.979Z" fill="#323C6B"/>
<path d="M287.524 152.771C287.44 152.771 287.358 152.747 287.288 152.7C287.218 152.654 287.162 152.589 287.129 152.512L286.793 151.76C286.747 151.655 286.743 151.536 286.785 151.429C286.826 151.321 286.908 151.235 287.013 151.188C287.117 151.142 287.236 151.138 287.344 151.18C287.451 151.221 287.537 151.303 287.584 151.408L287.919 152.16C287.942 152.212 287.955 152.268 287.956 152.325C287.958 152.381 287.948 152.438 287.928 152.491C287.907 152.544 287.877 152.592 287.838 152.634C287.798 152.675 287.752 152.708 287.7 152.731C287.645 152.757 287.585 152.771 287.524 152.771Z" fill="#323C6B"/>
<path d="M284.436 155.013C284.329 155.013 284.225 154.974 284.146 154.902L283.534 154.351C283.448 154.274 283.397 154.166 283.391 154.052C283.385 153.937 283.425 153.825 283.502 153.74C283.579 153.654 283.686 153.603 283.801 153.597C283.916 153.591 284.028 153.631 284.113 153.708L284.725 154.26C284.79 154.318 284.836 154.395 284.857 154.48C284.877 154.566 284.871 154.655 284.84 154.737C284.809 154.818 284.753 154.889 284.681 154.938C284.609 154.988 284.523 155.014 284.436 155.014V155.013Z" fill="#323C6B"/>
<path d="M282.531 158.315C282.485 158.315 282.44 158.308 282.397 158.294L281.614 158.04C281.559 158.023 281.509 157.995 281.465 157.958C281.421 157.922 281.385 157.876 281.359 157.826C281.333 157.775 281.317 157.719 281.312 157.662C281.307 157.605 281.314 157.548 281.332 157.494C281.349 157.439 281.378 157.389 281.415 157.346C281.452 157.302 281.498 157.267 281.549 157.241C281.6 157.215 281.656 157.2 281.713 157.196C281.77 157.192 281.827 157.199 281.881 157.217L282.665 157.472C282.763 157.503 282.847 157.569 282.901 157.657C282.955 157.745 282.975 157.849 282.959 157.951C282.943 158.053 282.891 158.145 282.813 158.212C282.734 158.279 282.635 158.316 282.531 158.316L282.531 158.315Z" fill="#323C6B"/>
<path d="M281.311 162.192C281.196 162.198 281.084 162.158 280.999 162.081C280.913 162.004 280.862 161.896 280.856 161.782C280.85 161.667 280.89 161.555 280.967 161.469C281.044 161.384 281.151 161.333 281.266 161.327L282.085 161.24C282.142 161.234 282.199 161.238 282.254 161.254C282.309 161.27 282.36 161.296 282.404 161.332C282.449 161.368 282.485 161.413 282.512 161.463C282.539 161.513 282.556 161.568 282.561 161.625C282.573 161.739 282.539 161.853 282.467 161.942C282.395 162.031 282.291 162.088 282.177 162.1L281.358 162.187L281.311 162.192Z" fill="#323C6B"/>
<path d="M282.596 166.147C282.501 166.147 282.409 166.115 282.333 166.057C282.258 165.999 282.203 165.918 282.179 165.826C282.154 165.734 282.161 165.637 282.197 165.549C282.233 165.461 282.298 165.387 282.38 165.34L283.094 164.927C283.193 164.871 283.311 164.856 283.421 164.886C283.531 164.916 283.625 164.988 283.682 165.087C283.739 165.186 283.755 165.303 283.726 165.414C283.696 165.524 283.625 165.618 283.526 165.676L282.813 166.089C282.747 166.127 282.672 166.147 282.596 166.147Z" fill="#323C6B"/>
<path d="M298.067 155.013C297.98 155.013 297.894 154.986 297.822 154.937C297.75 154.887 297.695 154.817 297.663 154.735C297.632 154.654 297.626 154.564 297.647 154.479C297.667 154.394 297.713 154.317 297.778 154.259L298.391 153.707C298.476 153.63 298.588 153.59 298.703 153.596C298.817 153.602 298.925 153.653 299.002 153.739C299.078 153.824 299.118 153.936 299.112 154.051C299.106 154.165 299.055 154.273 298.97 154.35L298.358 154.901C298.278 154.973 298.174 155.013 298.067 155.013Z" fill="#323C6B"/>
<path d="M294.983 152.771C294.923 152.771 294.864 152.758 294.81 152.734C294.758 152.711 294.711 152.678 294.672 152.636C294.633 152.595 294.602 152.547 294.582 152.494C294.561 152.441 294.551 152.384 294.553 152.328C294.554 152.271 294.567 152.215 294.59 152.163L294.926 151.41C294.972 151.306 295.059 151.224 295.166 151.183C295.273 151.141 295.392 151.145 295.497 151.191C295.602 151.238 295.684 151.324 295.725 151.431C295.766 151.539 295.763 151.658 295.716 151.762L295.38 152.515C295.346 152.592 295.29 152.657 295.22 152.702C295.149 152.748 295.067 152.771 294.983 152.771Z" fill="#323C6B"/>
<path d="M296.012 155.807C294.823 154.64 293.249 153.948 291.585 153.861C289.922 153.774 288.284 154.297 286.979 155.333C285.674 156.368 284.793 157.845 284.501 159.485C284.208 161.125 284.525 162.815 285.391 164.238H296.012V155.807Z" fill="#FCD462"/>
<path d="M296.016 155.811V164.238H295.284V157.475C294.55 156.758 293.663 156.217 292.69 155.89C291.717 155.564 290.683 155.461 289.665 155.589C288.646 155.716 287.67 156.072 286.808 156.629C285.946 157.186 285.221 157.93 284.686 158.806C285.014 157.672 285.63 156.643 286.474 155.818C287.318 154.994 288.361 154.402 289.502 154.1C290.643 153.798 291.843 153.797 292.984 154.097C294.126 154.397 295.17 154.987 296.015 155.811H296.016Z" fill="#F7BE56"/>
<path d="M318.86 148.672V158.639H314.169C313.377 158.65 312.613 158.348 312.042 157.8C311.471 157.253 311.138 156.502 311.116 155.711C311.114 155.63 311.117 155.55 311.124 155.469C311.159 155 311.304 154.544 311.546 154.14C311.788 153.736 312.121 153.394 312.518 153.141C312.915 152.888 313.366 152.732 313.835 152.684C314.304 152.636 314.777 152.698 315.218 152.865C315.211 152.799 315.208 152.732 315.209 152.665C315.209 151.664 315.584 150.699 316.259 149.96C316.935 149.221 317.863 148.762 318.86 148.672Z" fill="#E0E0E0"/>
<path d="M318.859 159.072H314.167C313.261 159.084 312.387 158.738 311.734 158.109C311.082 157.48 310.703 156.619 310.682 155.713C310.681 155.618 310.684 155.522 310.693 155.426C310.731 154.941 310.871 154.47 311.103 154.043C311.336 153.616 311.656 153.242 312.042 152.947C312.429 152.652 312.873 152.442 313.347 152.33C313.82 152.218 314.311 152.207 314.789 152.298C314.871 151.254 315.321 150.272 316.06 149.529C316.798 148.786 317.777 148.33 318.821 148.242C318.881 148.237 318.941 148.244 318.998 148.263C319.055 148.283 319.108 148.314 319.152 148.354C319.196 148.395 319.231 148.444 319.256 148.5C319.28 148.555 319.292 148.614 319.292 148.674V158.639C319.292 158.754 319.246 158.864 319.165 158.945C319.084 159.026 318.974 159.072 318.859 159.072ZM314.142 153.104C313.989 153.104 313.836 153.118 313.685 153.144C313.119 153.245 312.603 153.531 312.217 153.958C311.831 154.384 311.598 154.927 311.555 155.5C311.548 155.571 311.545 155.642 311.547 155.713C311.567 156.39 311.853 157.032 312.344 157.499C312.835 157.967 313.49 158.221 314.167 158.209H318.427V149.176C317.633 149.351 316.924 149.794 316.417 150.429C315.91 151.063 315.635 151.853 315.639 152.666C315.638 152.714 315.64 152.763 315.645 152.811C315.654 152.885 315.644 152.96 315.616 153.029C315.588 153.098 315.543 153.159 315.484 153.205C315.426 153.251 315.357 153.282 315.283 153.293C315.209 153.305 315.134 153.297 315.064 153.271C314.77 153.16 314.457 153.102 314.142 153.102V153.104Z" fill="#323C6B"/>
<path d="M286.724 184.079C286.235 184.309 285.7 184.425 285.16 184.42H274.969V173.922C275.561 173.216 276.339 172.69 277.214 172.403C278.09 172.117 279.029 172.082 279.923 172.302C280.818 172.522 281.633 172.988 282.276 173.648C282.92 174.308 283.365 175.134 283.562 176.035C284.08 175.88 284.62 175.818 285.159 175.851C286.11 175.923 287.011 176.306 287.723 176.941C288.434 177.577 288.916 178.429 289.094 179.366C289.272 180.303 289.136 181.272 288.708 182.124C288.279 182.976 287.582 183.663 286.723 184.079L286.724 184.079Z" fill="#EEEFEE"/>
<path d="M287.364 183.696C287.7 182.993 287.838 182.21 287.763 181.434C287.665 180.415 287.211 179.463 286.48 178.747C285.749 178.03 284.789 177.594 283.769 177.515C283.229 177.482 282.689 177.544 282.171 177.699C281.93 176.6 281.321 175.617 280.445 174.912C279.569 174.207 278.479 173.823 277.355 173.822C276.518 173.82 275.696 174.035 274.967 174.446V173.922C275.559 173.216 276.337 172.69 277.213 172.403C278.088 172.117 279.027 172.082 279.921 172.302C280.816 172.522 281.631 172.988 282.275 173.648C282.918 174.308 283.363 175.134 283.56 176.035C284.078 175.88 284.618 175.818 285.158 175.851C286.045 175.917 286.891 176.255 287.58 176.819C288.269 177.382 288.768 178.144 289.009 179.001C289.25 179.858 289.221 180.769 288.926 181.609C288.632 182.449 288.085 183.178 287.362 183.696H287.364Z" fill="#E1E6E9"/>
<path d="M318.859 187.598H274.968C274.853 187.598 274.743 187.552 274.662 187.471C274.581 187.39 274.535 187.28 274.535 187.166V142.767C274.535 142.652 274.581 142.542 274.662 142.461C274.743 142.38 274.853 142.334 274.968 142.334H318.859C318.974 142.334 319.084 142.38 319.165 142.461C319.246 142.542 319.292 142.652 319.292 142.767V187.166C319.292 187.28 319.246 187.39 319.165 187.471C319.084 187.552 318.974 187.598 318.859 187.598ZM275.4 186.733H318.427V143.199H275.4V186.733Z" fill="#323C6B"/>
<path d="M296.013 164.67H285.392C285.318 164.67 285.244 164.651 285.179 164.614C285.114 164.578 285.06 164.525 285.021 164.461C284.11 162.948 283.78 161.155 284.094 159.417C284.409 157.679 285.345 156.114 286.728 155.016C288.112 153.918 289.847 153.361 291.611 153.45C293.376 153.538 295.047 154.266 296.314 155.497C296.355 155.537 296.388 155.585 296.411 155.638C296.434 155.692 296.445 155.749 296.445 155.807V164.239C296.445 164.353 296.399 164.463 296.318 164.544C296.237 164.625 296.127 164.67 296.013 164.67ZM285.642 163.805H295.58V155.994C294.463 154.959 293.012 154.357 291.491 154.295C289.969 154.234 288.475 154.717 287.277 155.659C286.08 156.6 285.257 157.938 284.957 159.431C284.658 160.924 284.901 162.476 285.642 163.806V163.805Z" fill="#323C6B"/>
<path d="M295.08 138.747H298.748V191.186H295.08V138.747Z" fill="#E7AA6C"/>
<path d="M298.748 191.617H295.081C294.966 191.617 294.856 191.572 294.775 191.491C294.694 191.41 294.648 191.3 294.648 191.185V138.746C294.648 138.632 294.694 138.522 294.775 138.441C294.856 138.36 294.966 138.314 295.081 138.314H298.748C298.863 138.314 298.973 138.36 299.054 138.441C299.135 138.522 299.18 138.632 299.18 138.746V191.185C299.18 191.3 299.135 191.41 299.054 191.491C298.973 191.572 298.863 191.617 298.748 191.617ZM295.513 190.752H298.315V139.179H295.513V190.752Z" fill="#323C6B"/>
<path d="M270.695 163.131H323.134V166.799H270.695V163.131Z" fill="#E7AA6C"/>
<path d="M323.133 167.232H270.694C270.579 167.232 270.469 167.187 270.388 167.105C270.307 167.024 270.262 166.914 270.262 166.8V163.133C270.262 163.018 270.307 162.908 270.388 162.827C270.469 162.746 270.579 162.7 270.694 162.7H323.133C323.247 162.7 323.357 162.746 323.438 162.827C323.52 162.908 323.565 163.018 323.565 163.133V166.801C323.565 166.915 323.519 167.025 323.438 167.106C323.357 167.187 323.247 167.232 323.133 167.232ZM271.126 166.367H322.7V163.565H271.127L271.126 166.367Z" fill="#323C6B"/>
<path d="M285.158 184.851H274.968C274.853 184.851 274.743 184.805 274.662 184.724C274.581 184.643 274.535 184.533 274.535 184.418V173.922C274.535 173.82 274.571 173.722 274.635 173.644C275.255 172.905 276.062 172.346 276.973 172.027C277.883 171.708 278.862 171.641 279.808 171.832C280.753 172.023 281.63 172.465 282.345 173.113C283.06 173.76 283.587 174.588 283.871 175.51C284.303 175.425 284.744 175.396 285.184 175.424C286.308 175.51 287.365 175.989 288.169 176.778C288.974 177.566 289.474 178.614 289.582 179.735C289.677 180.704 289.472 181.678 288.994 182.525C288.516 183.373 287.788 184.053 286.911 184.472C286.362 184.728 285.763 184.857 285.158 184.851ZM275.4 183.986H285.158C285.634 183.991 286.104 183.89 286.535 183.69C287.308 183.316 287.936 182.698 288.321 181.931C288.707 181.164 288.829 180.291 288.669 179.448C288.509 178.604 288.075 177.837 287.435 177.265C286.795 176.693 285.984 176.348 285.128 176.284C284.641 176.253 284.153 176.31 283.686 176.45C283.629 176.467 283.569 176.472 283.509 176.465C283.45 176.458 283.392 176.438 283.34 176.408C283.289 176.378 283.245 176.337 283.21 176.289C283.175 176.241 283.151 176.186 283.138 176.128C282.961 175.319 282.564 174.576 281.992 173.978C281.419 173.381 280.693 172.953 279.893 172.741C279.093 172.53 278.25 172.544 277.457 172.781C276.664 173.018 275.952 173.469 275.399 174.084L275.4 183.986Z" fill="#323C6B"/>
<path d="M268.1 144.209C267.986 144.209 267.876 144.164 267.795 144.083C267.714 144.001 267.668 143.891 267.668 143.777V136.152C267.668 136.037 267.714 135.927 267.795 135.846C267.876 135.765 267.986 135.72 268.1 135.72H271.617C271.732 135.72 271.842 135.765 271.923 135.846C272.004 135.927 272.049 136.037 272.049 136.152C272.049 136.267 272.004 136.377 271.923 136.458C271.842 136.539 271.732 136.585 271.617 136.585H268.533V143.777C268.533 143.891 268.487 144.001 268.406 144.083C268.325 144.164 268.215 144.209 268.1 144.209Z" fill="#323C6B"/>
<path d="M274.968 136.585H274.067C273.953 136.585 273.843 136.539 273.761 136.458C273.68 136.377 273.635 136.267 273.635 136.152C273.635 136.037 273.68 135.927 273.761 135.846C273.843 135.765 273.953 135.72 274.067 135.72H274.968C275.083 135.72 275.193 135.765 275.274 135.846C275.355 135.927 275.401 136.037 275.401 136.152C275.401 136.267 275.355 136.377 275.274 136.458C275.193 136.539 275.083 136.585 274.968 136.585Z" fill="#323C6B"/>
<path d="M325.727 161.976C325.613 161.976 325.503 161.93 325.422 161.849C325.34 161.768 325.295 161.658 325.295 161.543V160.534C325.295 160.419 325.34 160.309 325.422 160.228C325.503 160.147 325.613 160.102 325.727 160.102C325.842 160.102 325.952 160.147 326.033 160.228C326.114 160.309 326.16 160.419 326.16 160.534V161.543C326.16 161.658 326.114 161.768 326.033 161.849C325.952 161.93 325.842 161.976 325.727 161.976Z" fill="#323C6B"/>
<path d="M325.727 173.903C325.613 173.903 325.503 173.857 325.422 173.776C325.34 173.695 325.295 173.585 325.295 173.471V164.93C325.295 164.815 325.34 164.705 325.422 164.624C325.503 164.543 325.613 164.498 325.727 164.498C325.842 164.498 325.952 164.543 326.033 164.624C326.114 164.705 326.16 164.815 326.16 164.93V173.471C326.16 173.585 326.114 173.695 326.033 173.776C325.952 173.857 325.842 173.903 325.727 173.903Z" fill="#323C6B"/>
<path d="M301.662 174.294C301.518 174.294 301.381 174.237 301.279 174.135C301.178 174.034 301.121 173.896 301.121 173.753V173.199C301.121 173.055 301.178 172.918 301.279 172.817C301.381 172.715 301.518 172.658 301.662 172.658C301.805 172.658 301.942 172.715 302.044 172.817C302.145 172.918 302.202 173.055 302.202 173.199V173.753C302.202 173.896 302.145 174.034 302.044 174.135C301.942 174.237 301.805 174.294 301.662 174.294Z" fill="white"/>
<path d="M301.662 183.208C301.518 183.208 301.381 183.151 301.279 183.049C301.178 182.948 301.121 182.81 301.121 182.667V175.889C301.121 175.746 301.178 175.608 301.279 175.507C301.381 175.406 301.518 175.349 301.662 175.349C301.805 175.349 301.942 175.406 302.044 175.507C302.145 175.608 302.202 175.746 302.202 175.889V182.665C302.203 182.736 302.189 182.806 302.162 182.872C302.135 182.938 302.095 182.998 302.045 183.048C301.995 183.099 301.935 183.139 301.869 183.166C301.803 183.194 301.733 183.208 301.662 183.208Z" fill="white"/>
<path d="M249.865 282.939L258.284 282.954C258.284 282.954 258.06 286.2 254.364 286.311C249.865 286.421 249.865 282.939 249.865 282.939Z" fill="white"/>
<path d="M537.933 338.181C535.467 335.259 531.758 329.568 530.142 327.759C528.98 326.46 527.512 323.003 526.499 320.473C525.654 319.549 518.209 324.753 511.935 328.623C511.935 328.623 516.324 333.272 522.477 340.869C538.958 361.218 542.794 355.725 544.312 353.041C555.236 339.177 552.707 323.509 537.933 338.181Z" fill="#E0E3E6"/>
<path d="M549.696 255.241C548.68 256.051 546.94 255.558 546.283 256.433C544.803 258.369 545.214 261.769 546.705 263.737C548.875 266.588 559.643 266.587 561.489 272.588C561.489 272.588 563.542 264.678 556.751 260.64C548.86 255.965 549.696 255.241 549.696 255.241Z" fill="#2D2861"/>
<path d="M560.398 340.519C562.973 337.693 575.659 323.202 577.243 321.364C579.794 315.135 579.595 305.952 575.05 300.495C573.114 298.17 569.606 291.332 560.398 302.463C560.398 302.463 545.568 327.773 542.083 333.831C531.441 350.778 536.289 354.633 539.148 355.789C541.739 356.835 555.167 346.257 560.398 340.519Z" fill="#E0E3E6"/>
<defs>
<linearGradient id="paint0_linear" x1="-71.4049" y1="309.809" x2="722.222" y2="309.809" gradientUnits="userSpaceOnUse">
<stop stop-color="#BCE3F1"/>
<stop offset="1" stop-color="#D0F7FF"/>
</linearGradient>
</defs>
</svg>
