<?xml version="1.0" encoding="UTF-8" standalone="no"?>
<svg
   width="717"
   height="550"
   viewBox="0 0 717 550"
   fill="none"
   version="1.1"
   id="svg355"
   sodipodi:docname="stage_початок.svg"
   inkscape:version="1.1 (c68e22c387, 2021-05-23)"
   xmlns:inkscape="http://www.inkscape.org/namespaces/inkscape"
   xmlns:sodipodi="http://sodipodi.sourceforge.net/DTD/sodipodi-0.dtd"
   xmlns="http://www.w3.org/2000/svg"
   xmlns:svg="http://www.w3.org/2000/svg">
  <sodipodi:namedview
     id="namedview357"
     pagecolor="#ffffff"
     bordercolor="#666666"
     borderopacity="1.0"
     inkscape:pageshadow="2"
     inkscape:pageopacity="0.0"
     inkscape:pagecheckerboard="0"
     showgrid="false"
     inkscape:zoom="1.3690909"
     inkscape:cx="366.66667"
     inkscape:cy="325.39841"
     inkscape:window-width="1857"
     inkscape:window-height="1057"
     inkscape:window-x="-8"
     inkscape:window-y="-8"
     inkscape:window-maximized="1"
     inkscape:current-layer="svg355"
     inkscape:snap-global="false" />
  <path
     d="m 722.09384,43.489641 c -81.638,-114.4359 -170.556,34.841 -337.413,17.7587 -308.987202,-43.3353 -197.853,197.615299 -270.157,219.267299 -30.642702,13.789 -13.167,3.845 -44.959802,26.969 -23.7489,17.273 -55.577,61.553 -64.3728596,113.339 -9.25196,54.322 2.18268,117.692 2.18268,117.692 l 766.1599816,7.953 c 20.654,-59.634 13.422,-412.088 -51.44,-502.978999 z"
     fill="url(#paint0_linear)"
     id="path2"
     style="fill:url(#paint0_linear)" />
  <path
     d="M12.7937 528.712H769.803C776.502 528.712 781.923 534.669 781.923 542.029V549.047H0.673828V542.029C0.673828 534.669 6.09506 528.712 12.7937 528.712Z"
     fill="#FEE2BF"
     id="path4" />
  <path
     d="M596.428 506.673C596.428 506.673 597.479 517.299 600.154 519.241C602.851 521.183 606.44 528.404 604.634 532.312C604.062 533.523 602.942 534.231 601.685 534.62C597.913 535.785 593.89 533.82 592.267 530.21C591.376 528.199 590.576 525.502 590.416 522.12C590.004 513.483 587.33 509.095 587.33 509.095L596.428 506.673Z"
     fill="#F7A491"
     id="path18" />
  <path
     d="M555.1 511.014C555.1 511.014 554.255 521.731 554.94 525.204C555.306 527.078 557.363 530.917 556.426 532.654C555.489 534.413 554.415 534.847 554.415 534.847L530.025 535.236C528.699 535.259 529.568 534.413 530.642 533.614C532.402 532.334 533.819 531.465 539.42 528.769C539.785 528.586 541.111 527.741 541.591 527.467C542.803 526.735 544.037 525.57 545.088 524.382C546.849 522.439 546.986 513.002 546.986 513.002L555.1 511.014Z"
     fill="#F7A491"
     id="path20" />
  <path
     d="M536.037 368.583C536.037 368.583 532.974 385.973 534.985 397.376C536.997 408.778 539.088 516.018 539.088 516.018H562.099C562.099 516.018 562.51 454.57 562.099 448.446C561.688 442.299 559.683 426.929 559.683 426.929L556.792 412.732L543.214 365.887L536.037 368.583Z"
     fill="#DBDEE0"
     id="path22" />
  <path
     d="M570.807 366.768C570.807 366.768 577.757 376.33 579.768 386.841C581.78 397.375 581.953 429.168 585.839 442.947C587.942 450.42 594.819 463.473 596.031 473.116C597.242 482.759 604.495 511.414 604.495 511.414L580.852 515.491L562.049 447.42L542.437 390.36L537.408 360.974L570.807 366.768Z"
     fill="#F2F2F2"
     id="path24" />
  <path
     d="M560.792 292.534C560.792 292.534 568.22 293.38 572.655 298.201C582.289 305.106 580.439 344.486 578.54 353.811C574.099 363.919 571.283 368.423 571.283 368.423C571.283 368.423 543.556 373.542 536.036 368.583C536.036 368.583 529.148 347.076 536.036 320.024C536.836 315.637 543.556 297.79 545.179 296.03C546.779 294.294 560.792 292.534 560.792 292.534Z"
     fill="#F2F2F2"
     id="path26" />
  <path
     d="M557.067 277.589C557.067 277.589 557.135 277.909 557.227 278.48C557.729 281.177 559.65 290.089 560.952 292.557C562.53 295.527 555.581 304.988 548.883 303.822C546.895 303.48 550.575 295.139 550.392 294.248C550.049 292.557 549.592 290.249 549.135 287.872C548.86 286.547 548.609 285.176 548.358 283.919C547.649 280.309 547.055 277.338 547.055 277.338L557.067 277.589Z"
     fill="#F7A491"
     id="path30" />
  <path
     d="M557.861 281.972C557.746 281.4 557.701 281.08 557.701 281.08L547.666 280.829C547.666 280.829 548.26 283.777 548.969 287.41C549.22 288.667 549.495 290.015 549.746 291.341C551.3 291.112 552.923 290.358 554.546 288.941C556.306 287.387 557.472 285.536 558.181 283.548C558.044 282.931 557.929 282.383 557.861 281.972Z"
     fill="#F47458"
     id="path32" />
  <path
     d="M550.41 257.064C550.41 257.064 556.719 268.307 561.245 268.832C565.771 269.358 566.365 275.322 566.365 275.322C566.365 275.322 564.742 261.543 560.285 258.892C555.805 256.241 550.41 257.064 550.41 257.064Z"
     fill="#13375B"
     id="path34" />
  <path
     d="M591.537 528.312C597.389 529.386 601.297 525.959 603.332 523.399C604.818 526.302 605.732 529.912 604.635 532.311C603.675 534.414 601.046 534.985 598.829 535.076C596.474 535.168 594.28 533.934 593.114 531.9C592.589 530.917 592.017 529.729 591.537 528.312Z"
     fill="#2D2861"
     id="path36" />
  <path
     d="M541.567 527.467C548.013 529.113 552.79 527.993 555.465 526.919C556.151 528.861 557.065 531.306 556.585 532.723C555.99 534.437 555.145 534.825 554.413 534.848C548.516 535.008 532.835 535.214 528.332 535.282C527.715 535.282 527.349 534.551 527.761 534.071C528.858 532.746 541.087 527.764 541.567 527.467Z"
     fill="#2D2861"
     id="path38" />
  <path
     d="M386.932 373.17C391.481 371.867 391.595 372.667 392.166 372.484C392.852 372.279 398.338 364.829 398.338 364.829C398.338 364.829 414.682 343.052 415.504 341.841L420.648 313.643L436.123 313.528C436.123 313.528 429.654 343.966 429.014 345.474C428.374 346.982 402.498 373.581 400.304 376.004C400.304 376.004 398.887 379.934 397.904 382.379C396.921 384.801 394.841 386.584 394.452 387.223C394.384 387.315 392.966 389.349 390.475 391.314C388.326 393.005 389.469 390.377 389.469 390.377C389.469 390.377 392.783 386.469 392.395 386.241C392.098 386.058 390.429 388.298 388.075 390.217C387.48 390.697 386.863 391.2 386.315 391.634C384.852 392.776 383.617 392.182 384.92 390.72C385.377 390.194 386.177 389.371 386.817 388.869C387.526 388.32 387.96 387.566 388.486 387.018C389.515 385.921 390.269 385.121 390.2 385.098C390.109 385.075 390.132 384.687 389.469 385.19C388.669 385.784 387.32 387.452 386.063 388.252C385.355 388.709 383.937 389.714 383.937 389.714C383.937 389.714 381.469 390.857 381.331 390.72C380.623 390.034 382.04 388.777 383.092 388.297C383.572 387.635 385.08 386.606 385.08 386.606C385.08 386.606 387.595 383.796 387.16 383.407C386.977 383.247 385.195 384.756 383.183 385.967C381.309 387.086 379.206 387.909 378.886 387.543C378.337 386.949 380.257 385.487 380.257 385.487C380.257 385.487 381.674 384.527 382.109 384.184C382.634 383.773 384.052 382.402 384.052 382.402C384.052 382.402 388.783 377.397 388.326 377.055C387.869 376.712 386.406 376.255 385.995 376.461C385.583 376.666 385.057 377.443 384.646 377.649C384.234 377.854 383.48 377.74 383.137 377.26C382.794 376.758 384.326 374.998 384.326 374.998C384.326 374.998 385.629 373.558 386.932 373.17Z"
     fill="#F48C7F"
     id="path40" />
  <path
     d="M412.625 514.619C412.625 514.619 413.173 524.354 413.173 524.377C413.379 525.611 414.179 528.673 414.179 529.792C414.179 534.02 395.412 526.205 399.618 524.354C400.007 524.194 401.996 522.914 402.11 521.474C402.293 519.258 402.796 514.779 402.796 514.779L412.625 514.619Z"
     fill="#F7A491"
     id="path42" />
  <path
     d="M399.664 524.284C399.664 524.284 404.076 525.564 406.339 525.907C408.601 526.227 411.573 523.507 413.173 524.239C414.933 525.038 414.75 532.991 414.75 532.991C414.75 532.991 391.229 534.385 384.578 532.237C381.949 531.391 390.658 527.278 399.664 524.284Z"
     fill="#184655"
     id="path44" />
  <path
     d="M453.974 515.533C453.974 515.533 454.523 525.268 454.523 525.291C454.729 526.525 455.529 529.587 455.529 530.706C455.529 534.934 436.762 527.119 440.968 525.268C441.356 525.108 443.939 522.868 444.054 521.429C444.237 519.212 444.145 515.693 444.145 515.693L453.974 515.533Z"
     fill="#F7A491"
     id="path46" />
  <path
     d="M441.014 525.198C441.014 525.198 445.425 526.478 447.688 526.821C449.951 527.141 452.923 524.422 454.523 525.153C456.283 525.953 456.352 533.219 456.352 533.219C456.352 533.219 431.208 535.047 425.287 533.333C422.613 532.579 432.008 528.215 441.014 525.198Z"
     fill="#184655"
     id="path48" />
  <path
     d="M424.237 375.135L416.306 378.562L399.619 458.245L400.305 517.978L413.677 518.298C413.677 518.298 419.894 466.037 419.894 461.992C419.894 457.948 448.719 391.108 448.719 391.108L424.237 375.135Z"
     fill="#2BA14C"
     id="path50" />
  <path
     d="M430.363 379.522C430.363 379.522 436.215 440.924 436.215 451.275C436.215 461.627 440.947 519.555 440.947 519.555L454.364 519.486C454.364 519.486 455.325 501.822 456.765 475.863C456.993 471.796 456.467 463.592 456.765 459.364C458.845 429.064 462.982 400.545 461.016 389.257C460.696 387.429 460.102 382.676 458.936 381.488C450.159 372.37 430.363 379.522 430.363 379.522Z"
     fill="#8DD041"
     id="path52" />
  <path
     d="M413.996 331.055L430.225 329.958C430.225 329.958 431.026 315.447 431.026 308.546C431.026 300.16 433.586 287.775 432.58 288.003C429.768 288.666 424.922 291.248 422.682 294.379C414.888 305.233 413.996 331.055 413.996 331.055Z"
     fill="#D6007E"
     id="path54" />
  <path
     d="M452.466 287.683C452.466 287.683 461.724 288.963 464.147 290.768C466.89 292.779 469.93 297.281 469.93 297.281C469.93 297.281 458.569 350.981 458.546 360.007C458.524 367 461.015 384.161 461.015 384.161C461.015 384.161 426.682 386.332 413.676 381.19C413.676 381.19 417.79 360.784 417.79 355.414C417.79 350.044 422.705 301.302 423.825 297.898C424.831 294.813 426.682 289.26 432.968 287.889C439.231 286.563 452.466 287.683 452.466 287.683Z"
     fill="#FC008B"
     id="path56" />
  <path
     d="M449.93 273.241L452.216 288.232C452.216 288.232 443.85 306.079 438.844 304.548C434.661 303.245 437.221 287.455 437.221 287.455C437.221 287.455 439.507 278.977 438.821 274.727C438.158 270.476 449.93 273.241 449.93 273.241Z"
     fill="#F7A491"
     id="path58" />
  <path
     d="M438.842 274.704C438.156 270.454 449.928 273.219 449.928 273.219L450.111 274.453C449.768 275.276 449.357 276.007 448.831 276.532C446.202 279.343 442.088 281.034 438.545 281.148C438.911 278.909 439.116 276.441 438.842 274.704Z"
     fill="#F47458"
     id="path60" />
  <path
     d="M451.851 252.013C452.194 251.899 454.525 269.083 450.091 273.813C445.656 278.543 437.039 280.097 433.93 276.372C430.501 272.259 430.684 253.772 437.564 248.905C444.467 244.038 451.851 252.013 451.851 252.013Z"
     fill="#F7A491"
     id="path62" />
  <path
     d="M440.193 239.718C445.519 240.792 448.97 244.014 450.228 245.408C452.651 245.683 455.919 247.008 459.325 252.584C463.485 259.439 460.422 267.026 455.554 270.773C450.708 274.498 450.753 278.817 450.753 278.817L449.999 276.577C449.428 274.886 449.199 273.104 449.382 271.322C449.496 270.27 449.725 269.105 450.159 268.168C451.325 265.677 447.645 264.032 446.616 261.953C445.816 260.353 445.793 256.72 444.536 254.069L443.05 252.058C443.05 252.058 439.598 249.407 436.238 250.139C432.901 250.893 433.381 238.324 440.193 239.718Z"
     fill="#13375B"
     id="path64" />
  <path
     d="M446.867 265.015C446.821 267.117 447.781 268.831 449.015 268.854C450.227 268.877 451.256 267.186 451.278 265.083C451.324 262.981 450.364 261.267 449.13 261.244C447.918 261.222 446.913 262.913 446.867 265.015Z"
     fill="#F7A491"
     id="path66" />
  <path
     d="m 470.23186,314.913 c -0.092,3.109 -6.20803,15.91816 -4.19703,13.92916 2.033,-1.966 7.40328,16.4541 7.40328,16.4541 l -2.19282,35.94571 c -0.388,0.572 -4.524,6.721 -5.415,7.612 -0.937,0.915 -0.48,5.418 0.822,6.606 1.303,1.189 0.229,-2.628 0.937,-3.703 0.709,-1.051 2.491,0.8 2.491,0.8 0,0 1.074,7.452 -0.457,8.892 -1.531,1.44 -4.136,5.326 -2.605,5.852 0.8,0.274 3.199,-1.737 4.205,-2.857 -1.052,1.417 -2.171,3.085 -1.966,3.657 0.366,1.051 1.691,0.617 2.103,0.046 0.388,-0.572 4.913,-6.492 5.233,-7.406 0.32,-0.892 0.64,-14.653 1.165,-17.03 0,0 8.6384,-38.745 8.0894,-40.939 -0.48,-1.943 -1.38401,-13.90616 -10.86701,-13.90616 -9.483,0.023 -4.47482,-23.68981 -4.74882,-13.95281 z"
     fill="#f7a491"
     id="path68"
     sodipodi:nodetypes="cccccsccsccccccccc" />
  <path
     d="m 462.433,289.923 c 0,0 5.417,1.257 11.018,7.541 5.097,5.713 10.67084,38.11521 10.67084,38.11521 L 464.17,338.047 462.776,322.554 458.09,315.47 Z"
     fill="#d6007e"
     id="path70"
     sodipodi:nodetypes="ccccccc" />
  <path
     d="M576.49 363.495C576.49 363.495 574.837 366.695 574.212 367.665C573.587 368.636 562.97 370.169 555.138 369.89C547.307 369.611 535.848 369.611 534.39 368.638C534.39 368.638 531.056 364.255 534.39 362.446C537.723 360.637 576.49 363.495 576.49 363.495Z"
     fill="#2D2861"
     id="path72" />
  <path
     d="M574.214 367.664C574.54 367.159 576.256 365.642 575.872 364.733C576.256 363.695 567.12 367.485 563.619 367.417C563.619 367.417 567.122 367.881 573.045 366.325C573.045 366.325 570.28 371.489 534.387 368.637C535.846 369.61 547.307 369.61 555.136 369.888C562.964 370.167 573.589 368.637 574.214 367.664Z"
     fill="#67718E"
     id="path74" />
  <path
     d="M549.937 258.252C549.526 258.499 548.913 258.234 548.63 258.523C547.994 259.16 547.98 260.424 548.431 261.217C549.087 262.366 553.028 262.888 553.413 265.174C553.413 265.174 554.548 262.378 552.258 260.57C549.596 258.477 549.937 258.252 549.937 258.252Z"
     fill="#2D2861"
     id="path76" />
  <path
     d="M560.51 280.272C564.642 277.309 566.994 276.009 567.747 268.325C568.5 260.641 566.11 256.012 562.148 253.524C557.77 250.775 542.902 250.951 541.093 266.27L560.51 268.325L560.51 280.272Z"
     fill="#2D2861"
     id="path78" />
  <path
     d="M564.51 257.948C563.874 256.978 562.147 252.069 569.495 249.352C576.843 246.635 586.266 252.056 584.734 258.161C583.203 264.265 584.115 274.616 590.559 274.353C597.003 274.09 594.787 281.74 588.92 286.441C583.054 291.142 591.181 295.359 591.181 295.359C591.181 295.359 581.916 297.938 580.841 294.173C579.251 288.613 585.685 283.323 581.489 281.499C577.293 279.674 572.077 278.872 571.677 277.136C571.278 275.401 572.824 252.224 565.557 259.747L564.51 257.948Z"
     fill="#2D2861"
     id="path80" />
  <path
     d="M551.667 257.246C551.667 257.246 555.758 257.818 558.73 261.634C561.702 265.45 564.879 277.287 557.518 283.708C550.158 290.129 542.889 282.863 541.815 275.139C540.718 267.415 540.923 256.949 551.667 257.246Z"
     fill="#F7A491"
     id="path82" />
  <path
     d="M559.758 271.507C559.392 273.495 560.124 275.346 561.404 275.597C562.684 275.849 564.01 274.455 564.376 272.467C564.741 270.479 564.01 268.628 562.73 268.376C561.473 268.102 560.147 269.496 559.758 271.507Z"
     fill="#F7A491"
     id="path84" />
  <path
     d="m 544.37501,280.45601 8,-0.461 c 0,0 -0.386,-3.074 -3.903,-2.982 -4.281,0.134 -4.097,3.443 -4.097,3.443 z"
     fill="#ffffff"
     id="path86" />
  <path
     d="M541.366 265.862C541.366 265.862 547.028 260.219 550.667 263.373C553.816 260.097 561.246 265.569 561.626 268.034C561.626 268.034 560.436 263.279 558.477 258.712C556.518 254.144 546.437 256.206 546.437 256.206L543.61 259.631L541.366 265.862Z"
     fill="#2D2861"
     id="path88" />
  <path
     d="M535.664 362.976C537.211 374.89 533.137 397.199 534.279 413.439C534.893 423.468 533.061 433.54 528.885 443.094C528.885 443.094 537.404 443.796 543.01 438.148C543.01 438.148 541.605 415.658 541.677 398.053C541.773 373.745 535.664 362.976 535.664 362.976Z"
     fill="#2D2861"
     id="path90" />
  <path
     d="M534.915 367.583C530.763 381.499 522.907 422.298 522.907 422.298L529.864 426.438L537.752 364.573L534.915 367.583Z"
     fill="#2D2861"
     id="path92" />
  <path
     d="m 432.763,272.81424 9.506,-1.522 c 0,0 -0.834,-3.627 -5.027,-3.09 -5.101,0.679 -4.479,4.612 -4.479,4.612 z"
     fill="#ffffff"
     id="path94" />
  <path
     d="M239.85 256.626C239.85 256.626 225.473 252.924 223.758 268.234C222.044 283.544 229.838 285.898 225.61 293.302C221.381 300.683 216.649 295.153 215.712 316.13C214.798 337.108 262.891 362.587 275.578 350.133C316.768 309.663 267.897 293.165 269.863 280.779C271.852 268.371 266.183 257.86 258.663 253.381C251.142 248.833 241.565 248.833 239.85 256.626Z"
     fill="#475B6F"
     id="path96" />
  <path
     d="M288.698 516.719C288.698 516.719 288.447 520.718 290.481 522.98C292.516 525.242 300.082 526.453 301.088 529.036C302.093 531.618 293.476 531.778 290.573 530.978C287.67 530.178 280.127 529.561 278.229 529.47C276.332 529.378 280.652 516.81 281.041 516.467C281.43 516.102 288.698 516.719 288.698 516.719Z"
     fill="#FF7446"
     id="path98" />
  <path
     d="M244.536 514.25C244.536 514.25 246.411 522.682 246.228 525.927C246.045 529.172 242.091 534.222 239.051 534.062C236.01 533.902 233.496 531.868 234.227 527.915C234.959 523.962 237.268 514.547 237.268 514.547L244.536 514.25Z"
     fill="#FF7446"
     id="path100" />
  <path
     d="M221.975 372.025C221.975 372.025 220.032 307.859 223.072 304.819C224.284 303.608 234.273 300.318 241.084 299.198C251.279 297.53 259.28 298.238 259.28 298.238C259.28 298.238 269.68 310.692 269.68 315.308C269.68 319.924 270.343 372.528 270.343 372.528C278.389 375.498 290.847 428.764 291.761 442.498C292.698 456.232 290.687 520.078 290.687 520.078L278.96 518.798C272.56 508.767 269.68 455.957 267.806 449.399C265.223 440.327 253.108 412.563 253.108 412.563L246.868 409.844C246.868 409.844 248.308 451.707 247.782 461.373C247.256 471.016 247.85 517.77 247.85 517.77L236.101 517.13C226.912 500.632 220.329 424.537 220.558 420.561C220.786 416.585 216.718 410.049 215.872 398.624C215.209 389.575 221.975 372.025 221.975 372.025Z"
     fill="#02BBD0"
     id="path102" />
  <path
     d="M242.532 372.572H263.379V370.356H242.532V372.572Z"
     fill="white"
     id="path104" />
  <path
     d="M251.075 373.464H255.098C255.83 373.464 256.447 372.87 256.447 372.116V371.156C256.447 370.425 255.853 369.808 255.098 369.808H251.075C250.344 369.808 249.727 370.402 249.727 371.156V372.116C249.727 372.87 250.321 373.464 251.075 373.464Z"
     fill="#271798"
     id="path106" />
  <path
     opacity="0.38"
     d="M221.974 372.024C221.974 372.024 220.26 315.056 222.591 305.938C225.631 303.882 235.346 300.248 237.723 300.065C237.289 304.75 241.541 331.097 245.907 344.625C248.65 353.172 248.261 363.638 247.21 371.795C246.57 376.868 245.564 381.759 244.421 386.032C244.169 386.1 237.701 389.574 226.454 389.574C225.974 389.551 221.768 389.277 216.945 388.523C218.751 380.365 221.974 372.024 221.974 372.024Z"
     fill="#001C41"
     id="path108" />
  <path
     opacity="0.38"
     d="M256.515 386.649C256.263 385.849 258.183 376.572 258.778 371.773H258.801C262.755 339.69 259.189 298.832 259.143 298.215C259.372 298.443 260.058 299.22 260.972 300.317C263.761 303.882 269.11 311.08 269.635 314.759C269.635 314.873 269.658 314.988 269.658 315.079C269.658 315.102 269.658 315.148 269.658 315.17C269.658 315.742 269.658 316.907 269.681 318.507C269.681 318.827 269.704 319.147 269.727 319.466C269.864 332.994 270.367 372.527 270.367 372.527C272.973 373.487 276.013 379.702 279.007 388.112C269.292 388.706 257.2 388.889 256.515 386.649Z"
     fill="#001C41"
     id="path110" />
  <path
     d="M210.592 380.388C210.569 388.432 232.239 389.003 242.525 384.387L241.405 349.516L237.862 299.838C237.862 299.838 224.855 302.42 220.421 305.436C220.421 305.436 218.981 357.08 217.724 367.592C216.466 378.081 210.592 376.732 210.592 380.388Z"
     fill="#F4CC1A"
     id="path112" />
  <path
     d="M270.732 301.049C270.732 301.049 275.806 342.181 275.806 352.875C275.806 363.593 277.841 382.079 277.841 382.079C277.841 382.079 266.869 386.284 259.234 384.387C259.234 384.387 266.503 343.141 266.503 340.444C266.503 337.748 259.143 298.192 259.143 298.192C259.143 298.192 266.114 298.581 270.732 301.049Z"
     fill="#F4CC1A"
     id="path114" />
  <path
     d="M277.521 519.575L291.738 520.489L291.761 516.832L276.949 516.01L277.521 519.575Z"
     fill="#271798"
     id="path116" />
  <path
     d="M234.523 517.198L248.627 518.135L248.696 514.479L233.906 513.656L234.523 517.198Z"
     fill="#271798"
     id="path118" />
  <path
     d="M279.029 522.18C280.149 523.596 283.807 526.499 294.504 525.219C297.293 526.339 300.448 527.413 301.088 529.012C302.093 531.594 293.476 531.754 290.573 530.955C287.67 530.155 280.127 529.538 278.229 529.446C277.201 529.401 278.024 525.653 279.029 522.18Z"
     fill="#001653"
     id="path120" />
  <path
     d="M246.228 525.927C246.045 529.172 242.091 534.222 239.051 534.063C236.01 533.903 233.496 531.869 234.227 527.916C234.479 526.59 234.913 524.625 235.37 522.637C235.759 525.105 236.902 529.309 240.148 527.847C243.668 526.27 245.222 522.614 245.839 521.197C246.091 523.003 246.274 524.785 246.228 525.927Z"
     fill="#001653"
     id="path122" />
  <path
     opacity="0.18"
     d="M276.584 368.619C272.469 368.414 267.235 368.14 262.092 367.888C262.389 366.106 262.709 364.278 263.029 362.427L276.195 363.135C276.31 364.94 276.447 366.814 276.584 368.619Z"
     fill="#001653"
     id="path124" />
  <path
     opacity="0.18"
     d="M241.977 366.974C241.954 366.974 241.931 366.974 241.908 366.974C238.708 366.974 226.273 370.379 221.747 370.379C220.01 370.379 218.593 369.876 217.473 369.259C217.473 369.213 217.496 369.191 217.496 369.145C217.587 368.665 217.656 368.139 217.724 367.568C217.747 367.294 217.793 366.997 217.816 366.677C217.976 365.123 218.09 363.363 218.204 361.695H241.794L241.977 366.974Z"
     fill="#001653"
     id="path126" />
  <path
     d="M270.639 301.14C270.639 301.14 274.479 301.939 279.919 320.129C285.337 338.319 281.748 361.673 277.999 364.095C274.251 366.517 237.883 365.626 237.883 365.626L237.746 352.532C237.746 352.532 265.29 348.236 268.01 344.877C268.673 344.054 267.53 340.535 267.759 336.536C268.468 324.242 270.639 301.14 270.639 301.14Z"
     fill="#FFBD00"
     id="path128" />
  <path
     d="M269.291 342.935C269.291 342.935 273.063 340.353 274.48 338.616C275.897 336.879 278.731 334.549 278.846 335.783C278.983 337.017 277.68 338.799 277.68 338.799C277.68 338.799 282.823 335.211 283.509 335.76C284.195 336.308 284.857 340.17 284.4 344.42C283.92 348.671 271.874 351.756 271.874 351.756L269.291 342.935Z"
     fill="#FFA97A"
     id="path130" />
  <path
     d="M221.2 367.659C234.32 369.853 262.001 360.096 273.225 356.577L269.019 342.02C269.019 342.02 235.966 351.161 231.623 349.218C229.474 348.259 223.988 338.067 221.977 327.715C219.92 317.135 220.422 305.436 220.422 305.436C220.422 305.436 210.913 317.867 213.611 344.146C215.645 364.209 215.416 366.677 221.2 367.659Z"
     fill="#FFBD00"
     id="path132" />
  <path
     d="M224.511 337.77C224.511 337.77 227.597 340.398 230.02 342.363C232.443 344.329 236.215 349.63 236.215 349.63C236.215 349.63 231.734 350.704 230.157 350.864C228.58 351.024 223.414 348.145 221.608 348.328C219.802 348.51 220.328 345.837 222.545 346.294C224.74 346.751 226.934 346.979 226.934 346.979C226.934 346.979 221.768 343.597 219.345 341.609C216.922 339.644 218.888 338.159 220.854 339.758C222.82 341.358 224.968 342.272 224.968 342.272C224.968 342.272 218.02 336.399 219.025 335.165C220.031 333.931 224.511 337.77 224.511 337.77Z"
     fill="#FFA97A"
     id="path134" />
  <path
     d="m 572.20423,298.06428 c 0,0 3.22668,0.6376 8.66668,18.8276 5.418,18.19 1.829,41.544 -1.92,43.966 -3.748,2.422 -40.116,1.531 -40.116,1.531 l -0.137,-13.094 c 0,0 27.544,-4.296 30.264,-7.655 0.663,-0.823 -0.48,-4.342 -0.251,-8.341 0.709,-12.294 3.49332,-35.2346 3.49332,-35.2346 z"
     fill="#ffbd00"
     id="path128-9"
     style="fill:#f2f2f2;fill-opacity:1;stroke:#e7e7e7;stroke-width:0.4;stroke-miterlimit:4;stroke-dasharray:none;stroke-opacity:1"
     sodipodi:nodetypes="cccccccc" />
  <path
     d="m 570.24291,339.69788 c 0,0 3.772,-2.582 5.189,-4.319 1.417,-1.737 4.251,-4.067 4.366,-2.833 0.137,1.234 -1.166,3.016 -1.166,3.016 0,0 5.143,-3.588 5.829,-3.039 0.686,0.548 1.348,4.41 0.891,8.66 -0.48,4.251 -12.526,7.336 -12.526,7.336 z"
     fill="#ffa97a"
     id="path130-7" />
  <path
     d="m 529.97643,364.42188 c 11.14676,2.194 34.66456,-7.563 44.20048,-11.082 l -3.57342,-14.557 c 0,0 -28.08119,9.13972 -31.77167,7.198 -1.82513,-0.96028 -6.06894,-11.59177 -4.06342,-21.89036 2.20507,-11.32328 10.04141,-27.57291 10.04141,-27.57291 0,0 -23.57323,18.11227 -21.28101,44.39127 1.72809,20.063 1.53353,22.531 6.44763,23.513 z"
     fill="#ffbd00"
     id="path132-8"
     style="stroke-width:0.921738;fill:#dbdee0;fill-opacity:1"
     sodipodi:nodetypes="cccssccc" />
  <path
     d="m 525.46291,334.53288 c 0,0 3.086,2.628 5.509,4.593 2.423,1.966 6.195,7.267 6.195,7.267 0,0 -4.481,1.074 -6.058,1.234 -1.577,0.16 -6.743,-2.719 -8.549,-2.536 -1.806,0.182 -1.28,-2.491 0.937,-2.034 2.195,0.457 4.389,0.685 4.389,0.685 0,0 -5.166,-3.382 -7.589,-5.37 -2.423,-1.965 -0.457,-3.45 1.509,-1.851 1.966,1.6 4.114,2.514 4.114,2.514 0,0 -6.948,-5.873 -5.943,-7.107 1.006,-1.234 5.486,2.605 5.486,2.605 z"
     fill="#ffa97a"
     id="path134-9" />
  <path
     d="M253.017 283.842C253.017 283.842 253.749 294.239 254.732 296.501C255.006 297.141 255.486 297.621 256.012 297.987C258.755 299.815 253.863 322.963 251.371 322.437C248.697 321.889 242.045 307.538 239.919 302.877C239.279 301.506 239.851 299.838 241.245 299.221C241.245 299.221 241.245 299.221 241.268 299.221C243.577 298.192 241.885 279.157 241.885 279.157L253.017 283.842Z"
     fill="#FFA97A"
     id="path136" />
  <path
     opacity="0.65"
     d="M243.314 278.403C243.314 278.403 242.829 278.7 242.89 279.523C242.991 281.123 243.738 283.111 244.363 284.55C247.29 291.177 251.529 294.376 254.435 294.833C253.708 291.474 253.184 283.111 253.184 283.111L243.314 278.403Z"
     fill="#DBA39A"
     id="path138" />
  <path
     d="M241.473 270.975C241.473 270.975 245.26 272.201 248.81 261.241C254.433 259.024 259.599 260.692 261.542 268.028C263.485 275.363 260.674 287.017 257.245 290.605C253.816 294.192 241.884 288.205 241.473 270.975Z"
     fill="#FFA97A"
     id="path140" />
  <path
     d="M243.165 273.353C243.165 273.353 240.354 268.988 238.616 271.502C236.879 274.038 238.411 280.071 241.702 280.368C244.948 280.711 243.165 273.353 243.165 273.353Z"
     fill="#F8A272"
     id="path142" />
  <path
     d="M344.636 218.205H252.17C243.351 218.205 236.214 207.517 236.214 194.311V146.475C236.214 133.269 243.351 122.581 252.17 122.581H344.667C353.486 122.581 360.623 133.269 360.623 146.475V194.311C360.623 207.517 353.454 218.205 344.636 218.205Z"
     fill="white"
     id="path144" />
  <path
     d="M272.771 209.356L268.607 256.103L309.551 208.107L272.771 209.356Z"
     fill="white"
     id="path146" />
  <path
     d="M270.695 138.242H323.134V190.681H270.695V138.242Z"
     fill="#E7AA6C"
     id="path148" />
  <path
     d="M323.133 191.112H270.694C270.579 191.112 270.469 191.066 270.388 190.985C270.307 190.904 270.262 190.794 270.262 190.68V138.241C270.262 138.126 270.307 138.016 270.388 137.935C270.469 137.854 270.579 137.809 270.694 137.809H323.133C323.247 137.809 323.357 137.854 323.438 137.935C323.52 138.016 323.565 138.126 323.565 138.241V190.68C323.565 190.794 323.52 190.904 323.438 190.985C323.357 191.066 323.247 191.112 323.133 191.112ZM271.126 190.247H322.7V138.673H271.127L271.126 190.247Z"
     fill="#323C6B"
     id="path150" />
  <path
     d="M274.969 142.262H318.861V186.661H274.969V142.262Z"
     fill="#89C5CD"
     id="path152" />
  <path
     d="M318.861 142.262V186.66H316.024V144.857H274.969V142.262H318.861Z"
     fill="#6EAAAD"
     id="path154" />
  <path
     d="M267.51 190.68H326.321V194.298H267.51V190.68Z"
     fill="#E7AA6C"
     id="path156" />
  <path
     d="M326.319 194.731H267.509C267.394 194.731 267.284 194.686 267.203 194.605C267.122 194.524 267.076 194.414 267.076 194.299V190.68C267.076 190.566 267.122 190.456 267.203 190.375C267.284 190.294 267.394 190.248 267.509 190.248H326.319C326.434 190.248 326.544 190.294 326.625 190.375C326.706 190.456 326.752 190.566 326.752 190.68V194.299C326.752 194.414 326.706 194.524 326.625 194.605C326.544 194.686 326.434 194.731 326.319 194.731ZM267.941 193.867H325.887V191.113H267.941V193.867Z"
     fill="#323C6B"
     id="path158" />
  <path
     d="M291.251 151.474C291.136 151.474 291.026 151.429 290.945 151.348C290.864 151.266 290.818 151.156 290.818 151.042V150.218C290.818 150.103 290.864 149.993 290.945 149.912C291.026 149.831 291.136 149.785 291.251 149.785C291.365 149.785 291.475 149.831 291.557 149.912C291.638 149.993 291.683 150.103 291.683 150.218V151.042C291.683 151.156 291.638 151.266 291.557 151.348C291.475 151.429 291.365 151.474 291.251 151.474Z"
     fill="#323C6B"
     id="path160" />
  <path
     d="M287.524 152.266C287.44 152.266 287.358 152.241 287.288 152.195C287.218 152.149 287.162 152.084 287.129 152.007L286.793 151.254C286.747 151.149 286.743 151.03 286.785 150.923C286.826 150.816 286.908 150.73 287.013 150.683C287.117 150.636 287.236 150.633 287.344 150.674C287.451 150.715 287.537 150.797 287.584 150.902L287.919 151.655C287.942 151.707 287.955 151.762 287.956 151.819C287.958 151.876 287.948 151.933 287.928 151.986C287.907 152.039 287.877 152.087 287.838 152.128C287.798 152.169 287.752 152.202 287.7 152.225C287.645 152.251 287.585 152.265 287.524 152.266Z"
     fill="#323C6B"
     id="path162" />
  <path
     d="M284.436 154.508C284.329 154.508 284.225 154.469 284.146 154.398L283.534 153.846C283.448 153.769 283.397 153.661 283.391 153.547C283.385 153.432 283.425 153.32 283.502 153.235C283.579 153.149 283.686 153.098 283.801 153.092C283.916 153.086 284.028 153.126 284.113 153.203L284.725 153.755C284.79 153.813 284.836 153.89 284.857 153.975C284.877 154.061 284.871 154.15 284.84 154.232C284.809 154.313 284.753 154.384 284.681 154.433C284.609 154.483 284.523 154.509 284.436 154.509V154.508Z"
     fill="#323C6B"
     id="path164" />
  <path
     d="M282.531 157.811C282.485 157.811 282.44 157.804 282.397 157.79L281.614 157.536C281.559 157.518 281.509 157.491 281.465 157.454C281.421 157.417 281.385 157.372 281.359 157.321C281.333 157.27 281.317 157.215 281.312 157.158C281.307 157.101 281.314 157.044 281.332 156.989C281.349 156.935 281.378 156.885 281.415 156.841C281.452 156.798 281.498 156.762 281.549 156.737C281.6 156.711 281.656 156.696 281.713 156.692C281.77 156.687 281.827 156.695 281.881 156.713L282.665 156.967C282.763 156.999 282.847 157.065 282.901 157.152C282.955 157.24 282.975 157.345 282.959 157.446C282.943 157.548 282.891 157.641 282.813 157.708C282.734 157.775 282.635 157.812 282.531 157.811L282.531 157.811Z"
     fill="#323C6B"
     id="path166" />
  <path
     d="M281.311 161.687C281.196 161.693 281.084 161.653 280.999 161.576C280.913 161.499 280.862 161.392 280.856 161.277C280.85 161.162 280.89 161.05 280.967 160.965C281.044 160.879 281.151 160.828 281.266 160.822L282.085 160.735C282.142 160.729 282.199 160.733 282.254 160.749C282.309 160.765 282.36 160.791 282.404 160.827C282.449 160.863 282.485 160.908 282.512 160.958C282.539 161.008 282.556 161.064 282.561 161.12C282.573 161.234 282.539 161.348 282.467 161.437C282.395 161.526 282.291 161.583 282.177 161.595L281.358 161.682L281.311 161.687Z"
     fill="#323C6B"
     id="path168" />
  <path
     d="M282.596 165.642C282.501 165.642 282.409 165.611 282.333 165.553C282.258 165.495 282.203 165.414 282.179 165.322C282.154 165.23 282.161 165.132 282.197 165.044C282.233 164.956 282.298 164.883 282.38 164.835L283.094 164.423C283.193 164.366 283.311 164.351 283.421 164.381C283.531 164.411 283.625 164.484 283.682 164.582C283.739 164.681 283.755 164.799 283.726 164.909C283.696 165.02 283.625 165.114 283.526 165.172L282.813 165.584C282.747 165.622 282.672 165.642 282.596 165.642Z"
     fill="#323C6B"
     id="path170" />
  <path
     d="M298.067 154.508C297.98 154.508 297.894 154.482 297.822 154.432C297.75 154.382 297.695 154.312 297.663 154.23C297.632 154.149 297.626 154.059 297.647 153.974C297.667 153.889 297.713 153.812 297.778 153.754L298.391 153.202C298.476 153.125 298.588 153.085 298.703 153.091C298.817 153.097 298.925 153.149 299.002 153.234C299.078 153.319 299.118 153.431 299.112 153.546C299.106 153.66 299.055 153.768 298.97 153.845L298.358 154.397C298.278 154.469 298.174 154.508 298.067 154.508Z"
     fill="#323C6B"
     id="path172" />
  <path
     d="M294.983 152.267C294.923 152.266 294.864 152.254 294.81 152.229C294.758 152.206 294.711 152.173 294.672 152.132C294.633 152.091 294.602 152.042 294.582 151.989C294.561 151.936 294.551 151.88 294.553 151.823C294.554 151.766 294.567 151.71 294.59 151.659L294.926 150.906C294.972 150.801 295.059 150.719 295.166 150.678C295.273 150.637 295.392 150.64 295.497 150.687C295.602 150.734 295.684 150.82 295.725 150.927C295.766 151.034 295.763 151.153 295.716 151.258L295.38 152.011C295.346 152.087 295.29 152.152 295.22 152.198C295.149 152.243 295.067 152.267 294.983 152.267Z"
     fill="#323C6B"
     id="path174" />
  <path
     d="M296.012 155.302C294.823 154.135 293.249 153.443 291.585 153.356C289.922 153.269 288.284 153.792 286.979 154.828C285.674 155.863 284.793 157.34 284.501 158.98C284.208 160.62 284.525 162.31 285.391 163.733H296.012V155.302Z"
     fill="#FCD462"
     id="path176" />
  <path
     d="M296.016 155.306V163.733H295.284V156.97C294.55 156.253 293.663 155.712 292.69 155.385C291.717 155.059 290.683 154.956 289.665 155.084C288.646 155.212 287.67 155.567 286.808 156.124C285.946 156.681 285.221 157.425 284.686 158.301C285.014 157.167 285.63 156.138 286.474 155.313C287.318 154.489 288.361 153.897 289.502 153.595C290.643 153.293 291.843 153.293 292.984 153.592C294.126 153.892 295.17 154.482 296.015 155.306H296.016Z"
     fill="#F7BE56"
     id="path178" />
  <path
     d="M318.86 148.168V158.135H314.169C313.377 158.145 312.613 157.844 312.042 157.296C311.471 156.748 311.138 155.997 311.116 155.206C311.114 155.126 311.117 155.045 311.124 154.965C311.159 154.495 311.304 154.04 311.546 153.636C311.788 153.232 312.121 152.889 312.518 152.637C312.915 152.384 313.366 152.227 313.835 152.179C314.304 152.131 314.777 152.194 315.218 152.361C315.211 152.294 315.208 152.228 315.209 152.161C315.209 151.16 315.584 150.194 316.259 149.456C316.935 148.717 317.863 148.257 318.86 148.168Z"
     fill="#E0E0E0"
     id="path180" />
  <path
     d="M318.859 158.567H314.167C313.261 158.579 312.387 158.233 311.734 157.604C311.082 156.975 310.703 156.115 310.682 155.209C310.681 155.113 310.684 155.017 310.693 154.921C310.731 154.437 310.871 153.965 311.103 153.538C311.336 153.111 311.656 152.737 312.042 152.442C312.429 152.147 312.873 151.937 313.347 151.825C313.82 151.713 314.311 151.702 314.789 151.793C314.871 150.749 315.321 149.767 316.06 149.024C316.798 148.281 317.777 147.825 318.821 147.737C318.881 147.732 318.941 147.739 318.998 147.758C319.055 147.778 319.108 147.809 319.152 147.849C319.196 147.89 319.231 147.94 319.256 147.995C319.28 148.05 319.292 148.109 319.292 148.169V158.134C319.292 158.249 319.246 158.359 319.165 158.44C319.084 158.521 318.974 158.567 318.859 158.567ZM314.142 152.599C313.989 152.599 313.836 152.613 313.685 152.639C313.119 152.74 312.603 153.027 312.217 153.453C311.831 153.879 311.598 154.422 311.555 154.995C311.548 155.066 311.545 155.137 311.547 155.208C311.567 155.885 311.853 156.527 312.344 156.994C312.835 157.462 313.49 157.717 314.167 157.704H318.427V148.671C317.633 148.847 316.924 149.289 316.417 149.924C315.91 150.559 315.635 151.348 315.639 152.161C315.638 152.209 315.64 152.258 315.645 152.306C315.654 152.38 315.644 152.455 315.616 152.524C315.588 152.593 315.543 152.654 315.484 152.7C315.426 152.746 315.357 152.777 315.283 152.788C315.209 152.8 315.134 152.792 315.064 152.766C314.77 152.655 314.457 152.597 314.142 152.597V152.599Z"
     fill="#323C6B"
     id="path182" />
  <path
     d="M286.724 183.575C286.235 183.804 285.7 183.92 285.16 183.915H274.969V173.417C275.561 172.711 276.339 172.185 277.214 171.898C278.09 171.612 279.029 171.577 279.923 171.797C280.818 172.017 281.633 172.483 282.276 173.143C282.92 173.803 283.365 174.63 283.562 175.53C284.08 175.375 284.62 175.313 285.159 175.346C286.11 175.418 287.011 175.801 287.723 176.436C288.434 177.072 288.916 177.924 289.094 178.861C289.272 179.798 289.136 180.767 288.708 181.619C288.279 182.471 287.582 183.158 286.723 183.574L286.724 183.575Z"
     fill="#EEEFEE"
     id="path184" />
  <path
     d="M287.364 183.191C287.7 182.488 287.838 181.705 287.763 180.929C287.665 179.91 287.211 178.958 286.48 178.242C285.749 177.525 284.789 177.089 283.769 177.01C283.229 176.977 282.689 177.039 282.171 177.194C281.93 176.095 281.321 175.112 280.445 174.408C279.569 173.703 278.479 173.318 277.355 173.317C276.518 173.315 275.696 173.53 274.967 173.941V173.417C275.559 172.711 276.337 172.185 277.213 171.898C278.088 171.612 279.027 171.577 279.921 171.797C280.816 172.017 281.631 172.483 282.275 173.143C282.918 173.803 283.363 174.63 283.56 175.53C284.078 175.375 284.618 175.313 285.158 175.346C286.045 175.412 286.891 175.75 287.58 176.314C288.269 176.877 288.768 177.639 289.009 178.496C289.25 179.353 289.221 180.264 288.926 181.104C288.632 181.944 288.085 182.673 287.362 183.191H287.364Z"
     fill="#E1E6E9"
     id="path186" />
  <path
     d="M318.859 187.093H274.968C274.853 187.093 274.743 187.047 274.662 186.966C274.581 186.885 274.535 186.775 274.535 186.66V142.262C274.535 142.147 274.581 142.037 274.662 141.956C274.743 141.875 274.853 141.829 274.968 141.829H318.859C318.974 141.829 319.084 141.875 319.165 141.956C319.246 142.037 319.292 142.147 319.292 142.262V186.66C319.292 186.775 319.246 186.885 319.165 186.966C319.084 187.047 318.974 187.093 318.859 187.093ZM275.4 186.228H318.427V142.694H275.4V186.228Z"
     fill="#323C6B"
     id="path188" />
  <path
     d="M296.013 164.165H285.392C285.318 164.165 285.244 164.146 285.179 164.109C285.114 164.073 285.06 164.02 285.021 163.956C284.11 162.443 283.78 160.65 284.094 158.912C284.409 157.174 285.345 155.61 286.728 154.511C288.112 153.413 289.847 152.856 291.611 152.945C293.376 153.033 295.047 153.761 296.314 154.992C296.355 155.032 296.388 155.08 296.411 155.134C296.434 155.187 296.445 155.244 296.445 155.302V163.734C296.445 163.848 296.399 163.958 296.318 164.039C296.237 164.12 296.127 164.165 296.013 164.165ZM285.642 163.3H295.58V155.489C294.463 154.454 293.012 153.852 291.491 153.79C289.969 153.729 288.475 154.212 287.277 155.154C286.08 156.095 285.257 157.433 284.957 158.926C284.658 160.419 284.901 161.971 285.642 163.301V163.3Z"
     fill="#323C6B"
     id="path190" />
  <path
     d="M295.08 138.242H298.748V190.681H295.08V138.242Z"
     fill="#E7AA6C"
     id="path192" />
  <path
     d="M298.748 191.112H295.081C294.966 191.112 294.856 191.066 294.775 190.985C294.694 190.904 294.648 190.794 294.648 190.68V138.241C294.648 138.126 294.694 138.016 294.775 137.935C294.856 137.854 294.966 137.809 295.081 137.809H298.748C298.863 137.809 298.973 137.854 299.054 137.935C299.135 138.016 299.18 138.126 299.18 138.241V190.68C299.18 190.794 299.135 190.904 299.054 190.985C298.973 191.066 298.863 191.112 298.748 191.112ZM295.513 190.247H298.315V138.673H295.513V190.247Z"
     fill="#323C6B"
     id="path194" />
  <path
     d="M270.695 162.627H323.134V166.295H270.695V162.627Z"
     fill="#E7AA6C"
     id="path196" />
  <path
     d="M323.133 166.727H270.694C270.579 166.727 270.469 166.682 270.388 166.601C270.307 166.519 270.262 166.409 270.262 166.295V162.628C270.262 162.513 270.307 162.403 270.388 162.322C270.469 162.241 270.579 162.195 270.694 162.195H323.133C323.247 162.195 323.357 162.241 323.438 162.322C323.52 162.403 323.565 162.513 323.565 162.628V166.296C323.565 166.41 323.519 166.52 323.438 166.601C323.357 166.682 323.247 166.727 323.133 166.727ZM271.126 165.862H322.7V163.06H271.127L271.126 165.862Z"
     fill="#323C6B"
     id="path198" />
  <path
     d="M285.158 184.346H274.968C274.853 184.346 274.743 184.3 274.662 184.219C274.581 184.138 274.535 184.028 274.535 183.914V173.417C274.535 173.315 274.571 173.217 274.635 173.139C275.255 172.4 276.062 171.841 276.973 171.522C277.883 171.203 278.862 171.136 279.808 171.327C280.753 171.518 281.63 171.961 282.345 172.608C283.06 173.255 283.587 174.084 283.871 175.005C284.303 174.92 284.744 174.891 285.184 174.919C286.308 175.005 287.365 175.484 288.169 176.273C288.974 177.061 289.474 178.109 289.582 179.23C289.677 180.199 289.472 181.173 288.994 182.02C288.516 182.868 287.788 183.548 286.911 183.967C286.362 184.223 285.763 184.352 285.158 184.346ZM275.4 183.481H285.158C285.634 183.487 286.104 183.385 286.535 183.185C287.308 182.811 287.936 182.193 288.321 181.426C288.707 180.659 288.829 179.786 288.669 178.943C288.509 178.099 288.075 177.332 287.435 176.76C286.795 176.188 285.984 175.843 285.128 175.779C284.641 175.749 284.153 175.805 283.686 175.945C283.629 175.962 283.569 175.967 283.509 175.96C283.45 175.953 283.392 175.933 283.34 175.903C283.289 175.873 283.245 175.832 283.21 175.784C283.175 175.736 283.151 175.681 283.138 175.623C282.961 174.815 282.564 174.071 281.992 173.473C281.419 172.876 280.693 172.448 279.893 172.237C279.093 172.025 278.25 172.039 277.457 172.276C276.664 172.513 275.952 172.964 275.399 173.579L275.4 183.481Z"
     fill="#323C6B"
     id="path200" />
  <path
     d="M268.1 143.704C267.986 143.704 267.876 143.659 267.795 143.578C267.714 143.497 267.668 143.387 267.668 143.272V135.647C267.668 135.533 267.714 135.423 267.795 135.342C267.876 135.26 267.986 135.215 268.1 135.215H271.617C271.732 135.215 271.842 135.26 271.923 135.342C272.004 135.423 272.049 135.533 272.049 135.647C272.049 135.762 272.004 135.872 271.923 135.953C271.842 136.034 271.732 136.08 271.617 136.08H268.533V143.272C268.533 143.387 268.487 143.497 268.406 143.578C268.325 143.659 268.215 143.704 268.1 143.704Z"
     fill="#323C6B"
     id="path202" />
  <path
     d="M274.968 136.08H274.067C273.953 136.08 273.843 136.034 273.761 135.953C273.68 135.872 273.635 135.762 273.635 135.647C273.635 135.533 273.68 135.423 273.761 135.342C273.843 135.26 273.953 135.215 274.067 135.215H274.968C275.083 135.215 275.193 135.26 275.274 135.342C275.355 135.423 275.401 135.533 275.401 135.647C275.401 135.762 275.355 135.872 275.274 135.953C275.193 136.034 275.083 136.08 274.968 136.08Z"
     fill="#323C6B"
     id="path204" />
  <path
     d="M325.727 161.471C325.613 161.471 325.503 161.425 325.422 161.344C325.34 161.263 325.295 161.153 325.295 161.038V160.029C325.295 159.914 325.34 159.804 325.422 159.723C325.503 159.642 325.613 159.597 325.727 159.597C325.842 159.597 325.952 159.642 326.033 159.723C326.114 159.804 326.16 159.914 326.16 160.029V161.038C326.16 161.153 326.114 161.263 326.033 161.344C325.952 161.425 325.842 161.471 325.727 161.471Z"
     fill="#323C6B"
     id="path206" />
  <path
     d="M325.727 173.399C325.613 173.399 325.503 173.353 325.422 173.272C325.34 173.191 325.295 173.081 325.295 172.966V164.426C325.295 164.311 325.34 164.201 325.422 164.12C325.503 164.039 325.613 163.993 325.727 163.993C325.842 163.993 325.952 164.039 326.033 164.12C326.114 164.201 326.16 164.311 326.16 164.426V172.966C326.16 173.081 326.114 173.191 326.033 173.272C325.952 173.353 325.842 173.399 325.727 173.399Z"
     fill="#323C6B"
     id="path208" />
  <path
     d="M301.662 173.789C301.518 173.789 301.381 173.732 301.279 173.63C301.178 173.529 301.121 173.392 301.121 173.248V172.694C301.121 172.551 301.178 172.413 301.279 172.312C301.381 172.21 301.518 172.153 301.662 172.153C301.805 172.153 301.942 172.21 302.044 172.312C302.145 172.413 302.202 172.551 302.202 172.694V173.248C302.202 173.392 302.145 173.529 302.044 173.63C301.942 173.732 301.805 173.789 301.662 173.789Z"
     fill="white"
     id="path210" />
  <path
     d="M301.662 182.703C301.518 182.703 301.381 182.646 301.279 182.544C301.178 182.443 301.121 182.306 301.121 182.162V175.384C301.121 175.241 301.178 175.103 301.279 175.002C301.381 174.901 301.518 174.844 301.662 174.844C301.805 174.844 301.942 174.901 302.044 175.002C302.145 175.103 302.202 175.241 302.202 175.384V182.16C302.203 182.231 302.189 182.301 302.162 182.367C302.135 182.433 302.095 182.493 302.045 182.544C301.995 182.594 301.935 182.634 301.869 182.661C301.803 182.689 301.733 182.703 301.662 182.703Z"
     fill="white"
     id="path212" />
  <path
     d="m 249.865,285.8096 8.419,-0.015 c 0,0 -0.224,-3.246 -3.92,-3.357 -4.499,-0.111 -4.499,3.372 -4.499,3.372 z"
     fill="#ffffff"
     id="path214" />
  <path
     d="M549.696 254.736C548.68 255.546 546.94 255.053 546.283 255.928C544.803 257.865 545.214 261.264 546.705 263.232C548.875 266.084 559.643 266.082 561.489 272.084C561.489 272.084 563.542 264.173 556.751 260.135C548.86 255.46 549.696 254.736 549.696 254.736Z"
     fill="#2D2861"
     id="path218" />
  <path
     d="M630.38 213.945H501.352C489.051 213.945 479.096 202.539 479.096 188.448V137.402C479.096 123.311 489.051 111.905 501.352 111.905H630.38C642.681 111.905 652.637 123.311 652.637 137.402V188.448C652.637 202.539 642.681 213.945 630.38 213.945Z"
     fill="white"
     id="path222" />
  <path
     d="M537.852 182.105L540.814 254.39L500.543 180.382L537.852 182.105Z"
     fill="white"
     id="path224" />
  <path
     d="M510.876 138.927C510.826 137.853 514.176 132.84 517.447 131.931L517.305 134.648C517.305 134.648 514.249 138.717 514.161 138.764C514.074 138.811 511.528 139.913 511.528 139.913L510.876 138.927Z"
     fill="#DAE3E6"
     id="path226" />
  <path
     d="M507.624 184.297C507.811 185.982 506.86 189.507 506.969 192.905C507.062 195.886 508.05 196.047 508.091 197.022C508.143 198.237 507.53 198.987 504.536 198.612C501.542 198.236 497.146 198.991 496.771 198.425C496.553 198.09 496.634 197.284 497.409 196.829C497.944 196.515 498.512 196.758 499.848 196.491C503.123 195.836 504.181 195.15 504.274 193.934C504.367 192.718 501.355 181.023 501.355 181.023L507.624 184.297Z"
     fill="#FFBA94"
     id="path228" />
  <path
     d="M555.652 179.739C557.551 181.605 563.772 189.192 565.786 190.778C567.667 192.257 569.538 193.474 572.039 193.962C574.54 194.45 574.257 194.716 573.873 195.261C573.488 195.806 572.208 196.216 568.727 195.499C565.245 194.782 563.924 196.071 562.962 195.494C562 194.916 562.564 192.318 562.062 191.455C561.56 190.591 553.341 185.069 552.068 183.325L555.652 179.739Z"
     fill="#FFBA94"
     id="path230" />
  <path
     d="M533.491 164.675C533.491 164.675 538.383 168.675 541.232 170.602C544.413 172.754 548.602 174.574 551.969 176.631C555.337 178.689 557.114 180.187 557.114 180.187C557.114 180.187 555.243 186.643 550.191 189.357C550.191 189.357 545.556 187.299 543.804 185.522C542.052 183.745 535.129 180.656 533.819 179.909C532.509 179.161 527.589 178.45 523.734 178.708C519.88 178.965 518.755 179.525 516.135 180.556C513.516 181.586 509.869 183.554 509.495 183.928C509.121 184.302 508.372 187.108 508.372 187.108C508.372 187.108 503.787 186.453 500.139 183.46C500.139 183.46 500.139 176.91 501.543 175.508C502.946 174.107 511.936 170.601 516.137 165.859L533.491 164.675Z"
     fill="#F2F2F2"
     id="path232" />
  <path
     fill-rule="evenodd"
     clip-rule="evenodd"
     d="M540.93 171.049L540.93 171.049C539.488 170.073 537.54 168.581 535.96 167.34C535.168 166.718 534.466 166.156 533.962 165.75C533.71 165.547 533.507 165.383 533.367 165.269C533.349 165.254 533.332 165.24 533.316 165.227L516.391 166.382C514.221 168.758 510.936 170.799 508.053 172.407C507.096 172.941 506.168 173.436 505.336 173.878C504.886 174.118 504.464 174.342 504.082 174.55C503.531 174.849 503.058 175.114 502.683 175.345C502.299 175.582 502.051 175.762 501.924 175.89C501.688 176.125 501.451 176.662 501.255 177.469C501.066 178.245 500.938 179.167 500.851 180.062C500.765 180.953 500.721 181.804 500.7 182.433C500.689 182.747 500.683 183.005 500.681 183.184C500.681 183.19 500.68 183.197 500.68 183.203C502.387 184.55 504.289 185.389 505.795 185.895C506.575 186.157 507.244 186.328 507.715 186.432C507.814 186.454 507.903 186.473 507.983 186.489C508.06 186.221 508.163 185.865 508.278 185.497C508.397 185.119 508.53 184.72 508.659 184.387C508.723 184.221 508.79 184.064 508.857 183.931C508.916 183.813 509.001 183.66 509.114 183.547C509.206 183.455 509.349 183.355 509.486 183.266C509.637 183.168 509.829 183.051 510.051 182.922C510.496 182.663 511.076 182.346 511.725 182.009C513.019 181.337 514.604 180.579 515.938 180.054C516.148 179.971 516.35 179.891 516.545 179.814C517.55 179.414 518.386 179.082 519.328 178.822C520.465 178.508 521.748 178.3 523.698 178.17C525.668 178.038 527.897 178.154 529.799 178.396C530.751 178.517 531.629 178.671 532.357 178.845C533.072 179.014 533.688 179.213 534.086 179.44C534.395 179.616 535.052 179.94 535.923 180.367L535.951 180.381C536.806 180.8 537.842 181.309 538.892 181.85C539.954 182.396 541.036 182.978 541.967 183.538C542.886 184.091 543.698 184.646 544.188 185.143C545 185.967 546.528 186.892 547.909 187.63C548.589 187.994 549.215 188.303 549.672 188.521C549.874 188.617 550.042 188.696 550.167 188.753C552.442 187.451 554.037 185.338 555.077 183.49C555.612 182.539 555.994 181.671 556.241 181.041C556.348 180.769 556.429 180.542 556.487 180.374C556.475 180.364 556.463 180.354 556.45 180.345C556.236 180.176 555.914 179.928 555.487 179.616C554.632 178.993 553.358 178.112 551.688 177.092C550.232 176.202 548.62 175.357 546.984 174.499C546.75 174.376 546.515 174.253 546.28 174.129C544.415 173.149 542.548 172.144 540.93 171.049ZM557.114 180.187C557.114 180.187 555.243 186.643 550.191 189.357C550.191 189.357 545.556 187.299 543.804 185.522C542.495 184.193 538.297 182.133 535.712 180.864C534.839 180.436 534.15 180.097 533.819 179.909C532.509 179.161 527.589 178.45 523.734 178.708C520.195 178.944 518.958 179.436 516.751 180.312C516.554 180.39 516.35 180.472 516.135 180.556C513.516 181.586 509.869 183.554 509.495 183.928C509.121 184.302 508.372 187.108 508.372 187.108C508.372 187.108 503.787 186.453 500.139 183.46C500.139 183.46 500.139 176.91 501.543 175.508C502.017 175.034 503.36 174.32 505.091 173.398C508.479 171.594 513.357 168.998 516.137 165.859L533.491 164.675C533.491 164.675 538.383 168.675 541.232 170.602C543.022 171.813 545.131 172.919 547.234 174.021C548.867 174.877 550.497 175.732 551.969 176.631C555.337 178.689 557.114 180.187 557.114 180.187Z"
     fill="#323C6B"
     id="path234" />
  <path
     d="M517.446 131.925C517.446 131.925 520.735 131.824 525.773 129.917C530.811 128.01 530.545 130.123 535.316 129.281C540.088 128.44 539.432 127.785 535.316 126.849C531.201 125.914 532.266 127.421 528.985 127.118C525.703 126.814 513.771 127.979 513.069 129.053C512.611 129.754 512.493 134.21 514.051 139.907L518.111 134.482L517.446 131.925Z"
     fill="#FFBA94"
     id="path236" />
  <path
     d="M533.499 163.289C533.499 163.289 534.298 164.859 534.018 165.357C533.737 165.854 528.97 166.64 525.454 166.497C521.938 166.354 516.793 166.354 516.138 165.855C516.138 165.855 516.045 164.146 517.542 163.218C519.038 162.29 533.499 163.289 533.499 163.289Z"
     fill="#F7004A"
     id="path238" />
  <path
     d="M546.049 150.599C548.58 150.295 551.5 150.77 554.142 150.682C556.629 150.599 557.887 150.245 559.524 150.348C560.861 150.428 560.279 152.182 563.078 151.784C565.877 151.387 568.025 151.457 565.236 152.58C563.984 153.084 563.264 153.986 561.994 153.937C560.439 153.88 559.224 152.853 558.697 152.902C557.739 152.992 546.049 154.789 546.049 154.789V150.599Z"
     fill="#FFBA94"
     id="path240" />
  <path
     d="M525.775 143.091C526.149 143.519 529.329 143.882 532.979 143.882C536.63 143.882 539.519 147.558 542.523 149.028C544.58 150.036 548.975 149.842 548.975 150.311C548.975 150.779 550.098 155.577 544.859 158.945C544.859 158.945 538.404 157.167 534.754 153.705C534.754 153.705 534.705 157.815 533.498 163.435C533.498 163.435 533.101 164.277 528.595 164.465C524.09 164.653 522.218 163.343 520.16 163.81C518.103 164.277 516.886 164.09 516.886 164.09C516.886 164.09 516.021 163.028 516.136 161.619C516.511 157.016 514.656 149.127 513.33 145.572C511.553 140.8 510.875 138.934 510.875 138.934C511.251 138.904 511.62 138.813 511.967 138.665C514.212 137.742 517.124 134.168 517.441 131.938C517.441 131.938 519.802 137.714 520.363 138.665C520.925 139.616 521.322 140.881 523.149 141.518C525.85 142.451 525.775 143.091 525.775 143.091Z"
     fill="#F2F2F2"
     id="path242" />
  <path
     fill-rule="evenodd"
     clip-rule="evenodd"
     d="M525.223 143.162C525.203 143.138 525.17 143.104 525.121 143.062C524.879 142.851 524.297 142.485 522.973 142.027L522.972 142.027C521.22 141.417 520.596 140.238 520.133 139.366C520.052 139.213 519.976 139.069 519.899 138.939C519.595 138.424 518.847 136.697 518.195 135.155C517.947 134.568 517.709 133.998 517.508 133.515C517.113 134.393 516.516 135.308 515.845 136.132C514.773 137.449 513.417 138.651 512.175 139.163C511.989 139.242 511.798 139.306 511.604 139.356C511.689 139.59 511.801 139.895 511.942 140.277C512.334 141.34 512.947 142.998 513.835 145.383C514.511 147.196 515.314 150.086 515.9 153.099C516.486 156.105 516.867 159.286 516.673 161.663C516.626 162.248 516.781 162.771 516.958 163.159C517.038 163.333 517.119 163.475 517.184 163.577C517.314 163.585 517.501 163.591 517.74 163.586C518.268 163.575 519.05 163.509 520.041 163.284C521.133 163.036 522.175 163.237 523.336 163.46C523.411 163.474 523.486 163.488 523.561 163.503C524.835 163.746 526.382 164.017 528.573 163.926C530.8 163.833 531.966 163.58 532.557 163.371C532.799 163.286 532.935 163.211 533.004 163.165C533.581 160.446 533.884 158.093 534.042 156.412C534.123 155.555 534.166 154.874 534.189 154.408C534.201 154.175 534.207 153.996 534.211 153.876C534.213 153.816 534.214 153.771 534.214 153.741L534.215 153.708L534.215 153.7L534.042 153.172M534.729 154.412C534.752 153.953 534.754 153.705 534.754 153.705C534.924 153.865 535.099 154.022 535.28 154.176C538.989 157.328 544.859 158.945 544.859 158.945C549.627 155.88 549.126 151.632 548.997 150.538C548.984 150.43 548.975 150.353 548.975 150.311C548.975 150.108 548.155 150.03 547.058 149.924C545.614 149.785 543.691 149.6 542.523 149.028C541.471 148.513 540.433 147.728 539.372 146.925C537.402 145.434 535.352 143.882 532.979 143.882C529.329 143.882 526.149 143.519 525.775 143.091C525.775 143.091 525.85 142.451 523.149 141.518C521.611 140.982 521.086 140.001 520.624 139.136C520.537 138.974 520.452 138.816 520.363 138.665C519.937 137.942 518.47 134.431 517.791 132.788C517.577 132.27 517.441 131.938 517.441 131.938C517.402 132.209 517.325 132.501 517.215 132.806C516.423 135 513.938 137.854 511.967 138.665C511.789 138.741 511.605 138.802 511.417 138.847C511.239 138.89 511.058 138.919 510.875 138.934C510.875 138.934 510.935 139.099 511.066 139.457C511.376 140.302 512.082 142.22 513.33 145.572C514.656 149.127 516.511 157.016 516.136 161.619C516.021 163.028 516.886 164.09 516.886 164.09C516.886 164.09 518.103 164.277 520.16 163.81C521.138 163.588 522.074 163.767 523.271 163.996C524.592 164.249 526.231 164.563 528.595 164.465C533.101 164.277 533.498 163.435 533.498 163.435C534.408 159.198 534.66 155.818 534.729 154.412ZM535.28 153.423C546.796 161.168 544.859 158.058 548.355 153.423C548.635 152.168 548.527 151.206 548.466 150.664C548.465 150.655 548.464 150.646 548.463 150.636C548.39 150.621 548.296 150.605 548.18 150.588C547.87 150.544 547.476 150.506 547.02 150.462C546.844 150.445 546.659 150.428 546.467 150.408C545.132 150.274 543.417 150.067 542.285 149.512C541.49 149.123 540.715 148.594 539.958 148.038C539.644 147.807 539.338 147.575 539.033 147.345C538.587 147.007 538.144 146.672 537.682 146.344C536.141 145.251 534.625 144.421 532.979 144.421C531.139 144.421 529.411 144.33 528.089 144.183C527.43 144.11 526.86 144.021 526.424 143.92C526.206 143.87 526.009 143.814 525.845 143.75C525.702 143.694 525.506 143.603 525.369 143.446L525.211 143.266L525.223 143.162"
     fill="#352E73"
     id="path244" />
  <path
     d="M528.056 149.818C526.964 148.914 523.979 142.992 523.979 142.992L525.772 143.089L529.974 143.796L530.819 145.19L528.845 149.818H528.056Z"
     fill="#FFBA94"
     id="path246" />
  <path
     d="M529.479 143.089C531.147 143.556 531.394 143.744 531.394 143.744C531.394 143.744 531.184 148.465 529.526 150.646L528.055 149.819C528.055 149.819 530.482 146.342 529.981 144.716L529.479 143.089Z"
     fill="#C2D1D6"
     id="path248" />
  <path
     d="M534.704 157.813C534.704 157.812 534.704 157.81 534.704 157.808C534.348 156.666 532.435 152.959 529.53 150.646C526.625 148.333 524.29 143.015 524.29 143.015L525.207 142.452L525.232 142.436L524.586 141.453H523.905C523.699 141.471 523.498 141.525 523.311 141.614C522.826 141.883 521.537 142.328 521.326 142.469C521.29 142.493 525.839 149.649 528.626 151.932C531.568 154.341 534.162 158.096 534.177 159.831C534.177 159.831 534.177 159.837 534.177 159.841C534.177 159.844 535.056 158.949 534.704 157.813Z"
     fill="#E7E8E9"
     id="path250" />
  <path
     d="M524.096 138.657C524.447 139.849 524.621 142.333 524.292 143.015C524.178 143.254 525.965 144.709 527.699 145.052C528.88 145.287 529.925 145.251 529.985 144.716C530.041 144.209 529.052 142.655 529.503 142.167C529.953 141.679 524.787 138.68 524.787 138.68L524.096 138.657Z"
     fill="#FFBA94"
     id="path252" />
  <g
     style="mix-blend-mode:multiply"
     opacity="0.3"
     id="g256">
    <path
       d="M529.483 143.089C529.374 142.704 529.328 142.356 529.503 142.167C529.952 141.68 524.787 138.68 524.787 138.68L524.096 138.657C524.238 139.192 524.335 139.737 524.385 140.288V140.294C524.408 140.512 524.426 140.739 524.438 140.962C524.773 141.897 526.277 142.939 529.483 143.089Z"
       fill="#FACE94"
       id="path254" />
  </g>
  <path
     d="M531.682 133.101C532.114 133.53 533.67 133.639 533.727 134.534C533.727 134.534 534.096 134.326 534.118 134.081C534.14 133.837 534.009 132.779 533.886 132.256C533.764 131.733 532.855 130.909 532.222 130.156C531.589 129.402 529.95 128.778 528.707 128.291C527.463 127.804 524.578 128.141 523.735 129.864C523.735 129.864 521.752 130.251 521.393 132.714C521.034 135.178 522.199 138.075 523.169 139.076C524.138 140.078 525.01 139.9 525.01 139.9C525.01 139.9 529.071 134.131 529.144 134.068C529.218 134.005 531.682 133.101 531.682 133.101Z"
     fill="#0E2E35"
     id="path258" />
  <path
     d="M525.962 137.602C525.537 137.027 524.817 136.61 524.325 137.025C523.833 137.44 523.815 138.026 524.101 138.662C524.699 139.986 525.52 140.285 525.982 140.19C525.982 140.19 526.085 141 526.983 141.593C527.881 142.186 530.302 143.328 531.012 143.355C531.723 143.382 532.154 142.779 532.168 142.263C532.182 141.748 532.473 141.892 532.705 141.558C532.938 141.224 532.646 141.09 532.646 141.09C532.646 141.09 533.138 140.974 533.06 140.786C532.983 140.599 532.798 140.068 532.961 139.975C533.123 139.883 533.786 139.745 533.666 139.356C533.546 138.968 532.938 137.99 532.998 137.48C533.058 136.97 533.631 136.539 533.734 136.286C533.836 136.032 533.813 134.582 533.625 133.907C533.625 133.907 532.533 131.843 529.586 133.264C526.638 134.685 525.962 137.602 525.962 137.602Z"
     fill="#FFBA94"
     id="path260" />
  <path
     d="M534.019 165.355C534.165 165.097 534.019 164.553 533.846 164.087C533.841 164.087 530.833 165.264 529.261 165.229C529.261 165.229 530.834 165.467 533.494 164.669C533.494 164.669 532.253 167.317 516.137 165.854C516.792 166.353 521.938 166.353 525.453 166.496C528.968 166.639 533.738 165.854 534.019 165.355Z"
     fill="#B5107D"
     id="path262" />
  <path
     d="M525.049 166.271C526.826 170.31 527.115 187.932 527.401 187.857C527.687 187.783 529.729 184.018 529.755 183.646C529.781 183.274 527.674 167.948 526.462 166.289C525.251 164.63 525.049 166.271 525.049 166.271Z"
     fill="#EA1B66"
     id="path264" />
  <path
     d="M522.455 166.34C521.615 167.115 520.742 182.58 520.475 183.795C520.209 185.01 522.948 186.602 522.948 186.602C522.948 186.602 522.699 167.917 523.964 165.97L522.455 166.34Z"
     fill="#F7004A"
     id="path266" />
  <path
     d="M525.625 168.3C526.935 171.317 528.032 185.893 528.032 185.893C528.032 185.893 528.947 184.815 529.757 183.645C529.731 184.017 527.689 187.782 527.403 187.856C527.151 187.925 526.912 174.615 525.625 168.3Z"
     fill="#AF0F5C"
     id="path268" />
  <path
     d="M521.497 172.221C521.497 172.33 520.951 183.611 520.951 183.88C520.951 184.15 522.361 185.725 522.908 185.613C522.932 186.235 522.948 186.602 522.948 186.602C522.948 186.602 520.21 185.011 520.475 183.795C520.638 183.053 521.026 176.999 521.497 172.221Z"
     fill="#C6145C"
     id="path270" />
  <path
     d="M533.976 134.42C533.976 134.42 534.141 134.457 534.177 135.979C534.203 137.062 533.923 138.145 533.683 139.199C533.32 140.762 532.804 142.383 531.531 143.445C530.862 144.002 527.976 142.293 527.273 140.936C526.575 139.573 526.86 136.948 527.867 135.636C528.862 134.316 533.662 133.811 533.976 134.42Z"
     fill="#FFBA94"
     id="path272" />
  <path
     d="M533.735 134.041C533.623 133.41 532.986 133.152 532.446 132.494C532.446 132.494 532.334 133.576 530.897 134.002C528.696 134.657 525.993 135.978 525.759 137.104C525.759 137.104 525.054 133.772 526.354 132.321C527.654 130.87 530.313 130.247 531.622 130.356C532.931 130.465 533.915 132.705 533.915 132.705L533.735 134.041Z"
     fill="#0E2E35"
     id="path274" />
  <path
     d="M564.574 132.203C561.267 129.911 556.433 127.242 557.196 126.352C557.959 125.463 560.252 124.571 561.903 125.334C563.553 126.097 564.195 127.589 565.338 128.625C566.481 129.661 567.755 130.808 567.755 130.808L564.574 132.203Z"
     fill="#F8B785"
     id="path276" />
  <path
     d="M593.563 193.294C593.932 194.404 592.991 196.991 594.016 197.607C595.041 198.223 596.518 198.716 598.183 199.824C599.848 200.932 604.279 201.55 602.802 199.824C601.325 198.098 597.998 196.003 597.016 193.294C596.034 190.585 593.563 193.294 593.563 193.294Z"
     fill="#F8B785"
     id="path278" />
  <path
     d="M595.358 146.584L566.344 128.63C566.344 128.63 563.397 132.172 562.977 132.756C562.977 132.756 577.572 144.697 580.799 147.369C584.025 150.041 588.096 154.517 588.938 155.993C589.779 157.469 590.482 165.471 590.622 167.296C590.762 169.12 592.166 193.538 592.166 193.538C592.166 193.538 596.374 195.223 598.971 193.538C598.971 193.538 599.324 171.924 599.744 170.103C600.164 168.282 601.452 161.455 601.452 161.455L595.937 147.274C595.824 146.987 595.621 146.745 595.358 146.584Z"
     fill="#F2F2F2"
     id="path280" />
  <path
     fill-rule="evenodd"
     clip-rule="evenodd"
     d="M595.076 147.044L595.074 147.043L566.459 129.335C566.409 129.396 566.353 129.464 566.292 129.537C566.01 129.878 565.629 130.338 565.234 130.817C564.666 131.507 564.083 132.22 563.724 132.671L565.649 134.246C567.068 135.408 568.993 136.984 571.019 138.643C575.071 141.962 579.528 145.616 581.143 146.953C582.78 148.309 584.621 150.114 586.157 151.762C587.679 153.394 588.95 154.925 589.406 155.726C589.546 155.971 589.663 156.311 589.766 156.684C589.871 157.067 589.972 157.524 590.066 158.025C590.256 159.027 590.429 160.236 590.578 161.447C590.878 163.872 591.09 166.337 591.16 167.254C591.23 168.173 591.617 174.742 591.985 181.07C592.169 184.236 592.349 187.346 592.483 189.663C592.55 190.822 592.605 191.783 592.644 192.455L592.684 193.152C592.778 193.183 592.891 193.22 593.02 193.259C593.438 193.385 594.019 193.537 594.676 193.637C595.923 193.828 597.338 193.82 598.437 193.228C598.439 193.073 598.443 192.86 598.448 192.597C598.458 192.002 598.474 191.15 598.493 190.122C598.533 188.067 598.59 185.307 598.661 182.49C598.731 179.674 598.815 176.798 598.907 174.511C598.953 173.368 599.002 172.37 599.052 171.598C599.101 170.847 599.154 170.261 599.218 169.982C599.426 169.083 599.851 166.932 600.226 164.994C600.413 164.027 600.587 163.118 600.715 162.45C600.778 162.116 600.83 161.842 600.866 161.652L600.894 161.507L595.436 147.472C595.436 147.471 595.435 147.471 595.435 147.471C595.365 147.293 595.239 147.144 595.076 147.044ZM595.937 147.274L601.452 161.455C601.452 161.455 600.164 168.282 599.744 170.103C599.324 171.924 598.971 193.538 598.971 193.538C596.374 195.223 592.166 193.538 592.166 193.538C592.166 193.538 590.762 169.12 590.622 167.296C590.482 165.471 589.779 157.469 588.938 155.993C588.096 154.517 584.025 150.041 580.799 147.369C577.572 144.697 562.984 132.762 562.977 132.756C563.397 132.172 566.344 128.63 566.344 128.63L595.358 146.584C595.621 146.745 595.824 146.987 595.937 147.274Z"
     fill="#352E73"
     id="path282" />
  <path
     d="M597.721 145.321C595.989 145.602 594.469 146.514 594.469 148.218C594.469 149.339 595.63 156.917 596.707 158.882C597.783 160.847 600.007 163.447 604.239 161.564L597.721 145.321Z"
     fill="#2D2861"
     id="path284" />
  <path
     d="M623.036 142.41C623.713 143.925 625.456 147.041 625.456 148.218C625.456 148.936 614.962 155.187 613.6 155.841C612.237 156.495 605.501 163.231 602.792 161.173C600.084 159.116 594.84 153.409 596.711 145.549C596.711 145.549 599.049 145.137 603.447 143.475C607.846 141.812 611.67 136.665 611.67 136.665C611.67 136.665 615.208 137.963 616.999 138.951C618.79 139.939 623.036 142.41 623.036 142.41Z"
     fill="#F2F2F2"
     id="path286" />
  <path
     fill-rule="evenodd"
     clip-rule="evenodd"
     d="M596.711 145.549C594.84 153.409 600.084 159.116 602.792 161.173C604.843 162.731 609.202 159.248 611.79 157.181C612.621 156.517 613.269 156 613.6 155.841C614.962 155.187 625.456 148.936 625.456 148.218C625.456 147.347 624.501 145.414 623.73 143.854C623.46 143.306 623.212 142.804 623.036 142.41C623.036 142.41 618.79 139.939 616.999 138.951C615.208 137.963 611.67 136.665 611.67 136.665C611.67 136.665 607.846 141.812 603.447 143.475C599.049 145.137 596.711 145.549 596.711 145.549ZM611.852 137.309C611.914 137.333 611.983 137.359 612.058 137.387C612.416 137.523 612.91 137.715 613.46 137.938C614.568 138.385 615.874 138.946 616.739 139.423C617.629 139.914 619.134 140.777 620.42 141.518C621.062 141.889 621.648 142.228 622.074 142.475C622.287 142.599 622.459 142.699 622.579 142.768L622.616 142.79C622.782 143.15 622.993 143.578 623.216 144.03L623.246 144.092C623.497 144.599 623.764 145.139 624.011 145.669C624.269 146.221 624.5 146.752 624.666 147.21C624.804 147.592 624.881 147.885 624.907 148.085C624.853 148.141 624.771 148.216 624.657 148.31C624.386 148.536 623.986 148.831 623.488 149.177C622.494 149.866 621.148 150.73 619.754 151.595C616.955 153.333 614.016 155.043 613.366 155.354C613.139 155.463 612.844 155.674 612.529 155.912C612.222 156.146 611.857 156.437 611.456 156.757L611.381 156.818C610.514 157.51 609.474 158.338 608.395 159.08C607.311 159.825 606.221 160.461 605.258 160.79C604.277 161.124 603.577 161.092 603.119 160.744C600.51 158.762 595.588 153.381 597.16 146.007C597.192 146 597.227 145.993 597.263 145.985C597.559 145.918 597.997 145.813 598.572 145.655C599.723 145.34 601.423 144.816 603.638 143.979C605.944 143.107 608.065 141.341 609.588 139.829C610.355 139.068 610.981 138.36 611.416 137.842C611.595 137.63 611.741 137.449 611.852 137.309Z"
     fill="#352E73"
     id="path288" />
  <path
     d="M615.719 141.559L611.666 147.369L620.731 143.809L622.325 142.034L620.007 141.244L615.719 141.559Z"
     fill="#F8B785"
     id="path290" />
  <path
     d="M621.996 139.375C622.068 138.54 625.231 137.815 626.045 134.336C626.859 130.857 626.045 128.587 624.379 127.204C622.539 125.676 617.306 126.144 615.873 128.612L621.996 139.375Z"
     fill="#2D2861"
     id="path292" />
  <path
     d="M611.666 147.369L617.825 140.083L614.888 138.182L610.34 147.856L611.666 147.369Z"
     fill="#C1D0D5"
     id="path294" />
  <path
     d="M614.918 129.817C614.713 129.369 615.682 127.917 617.293 127.268C618.905 126.618 615.012 130.069 615.012 130.069L614.918 129.817Z"
     fill="#2D2861"
     id="path296" />
  <path
     d="M616.535 139.291C617.181 139.4 617.131 141.469 615.926 142.327C615.926 142.327 617.069 143.083 618.302 143.091C619.838 143.091 622.755 143.355 622.197 140.866C622.143 140.621 621.876 139.193 621.947 138.185C622.066 136.495 623.844 134.364 620.289 134.888C616.385 135.463 616.535 139.291 616.535 139.291Z"
     fill="#F8B785"
     id="path298" />
  <g
     style="mix-blend-mode:multiply"
     opacity="0.3"
     id="g302">
    <path
       d="M621.729 136.577C621.729 136.577 618.4 139.025 616.87 139.672C617.013 140.109 616.955 140.85 616.629 141.491C622.124 141.515 621.729 136.577 621.729 136.577Z"
       fill="#F8B785"
       id="path300" />
  </g>
  <path
     d="M621.109 137.536C621.147 139.669 617.445 140.047 615.784 140.083C614.064 140.119 613.928 139.53 614.068 138.96C614.207 138.39 614.056 138.066 613.777 138.023C613.499 137.981 613.735 137.978 613.653 137.283C613.653 137.283 613.489 136.888 613.571 136.588C613.653 136.287 613.527 135.904 613.527 135.904C613.987 135.521 614.027 135.619 613.777 135.281C613.527 134.943 613.631 134.93 613.97 134.342C614.308 133.753 614.311 133.456 614.284 132.878C614.257 132.301 614.122 131.842 614.576 130.596C615.031 129.349 616.037 128.333 616.642 128.046C617.247 127.759 620.322 128.325 621.174 129.838C622.027 131.351 621.508 134.804 621.508 134.804C621.508 134.804 622.037 134.03 622.818 134.621C623.332 135.009 622.78 136.065 622.556 136.602C622.332 137.139 622.338 137.794 621.625 137.835C621.095 137.865 621.109 137.536 621.109 137.536Z"
     fill="#F8B785"
     id="path304" />
  <path
     d="M625.579 128.98C625.409 128.625 625.047 126.897 627.64 126.312C630.233 125.727 633.159 127.972 632.371 129.956C631.583 131.941 631.427 135.462 633.606 135.662C635.785 135.862 634.697 138.336 632.514 139.654C630.331 140.973 632.875 142.754 632.875 142.754C632.875 142.754 629.644 143.207 629.451 141.893C629.165 139.952 631.565 138.461 630.236 137.66C628.906 136.859 627.188 136.355 627.131 135.754C627.074 135.152 628.631 127.427 625.851 129.632L625.579 128.98Z"
     fill="#2D2861"
     id="path306" />
  <path
     d="M615.865 128.611C615.865 128.611 615.833 129.625 617.481 130.748C619.129 131.87 621.485 133.649 621.509 134.803C621.509 134.803 623.767 133.081 623.146 130.867C622.526 128.652 617.306 127.436 617.306 127.436L616.31 128.167L615.865 128.611Z"
     fill="#2D2861"
     id="path308" />
  <path
     d="M611.665 136.662C609.992 136.382 596.802 136.771 595.27 138.181C593.058 140.217 595.939 143.716 597.721 145.321C599.502 146.926 610.34 140.124 610.34 140.124L611.665 136.662Z"
     fill="#F2F2F2"
     id="path310" />
  <path
     fill-rule="evenodd"
     clip-rule="evenodd"
     d="M595.635 138.578C595.195 138.983 595.019 139.441 595.009 139.941C594.998 140.46 595.169 141.049 595.48 141.671C596.104 142.917 597.216 144.14 598.082 144.92C598.136 144.97 598.311 145.05 598.737 145.02C599.141 144.992 599.662 144.873 600.277 144.673C601.503 144.274 602.995 143.59 604.453 142.844C605.906 142.1 607.307 141.306 608.346 140.696C608.865 140.392 609.292 140.134 609.59 139.953C609.719 139.874 609.824 139.809 609.901 139.762L610.905 137.141C610.365 137.118 609.578 137.11 608.62 137.122C607.133 137.141 605.289 137.207 603.449 137.326C601.607 137.445 599.781 137.616 598.326 137.842C597.597 137.956 596.974 138.082 596.493 138.218C595.984 138.363 595.724 138.496 595.635 138.578ZM611.107 136.611C608.087 136.446 596.687 136.877 595.27 138.181C593.058 140.217 595.939 143.716 597.721 145.321C599.502 146.926 610.34 140.124 610.34 140.124L611.665 136.662C611.54 136.641 611.351 136.624 611.107 136.611Z"
     fill="#352E73"
     id="path312" />
  <path
     d="M622.2 140.862C622.325 142.035 620.732 143.81 620.732 143.81L612.207 147.171L609.35 148.219C609.35 148.219 621.197 146.748 621.944 146.402C622.69 146.056 623.443 142.817 623.479 142.472C623.515 142.128 622.2 140.862 622.2 140.862Z"
     fill="#C1D0D5"
     id="path314" />
  <path
     d="M606.906 152.004C607.305 151.356 608.357 150.97 609.09 150.9C609.822 150.831 613.158 149.414 613.597 149.666C613.597 149.666 610.739 153.005 610.528 153.005H607.792L606.906 152.004Z"
     fill="#DAE3E6"
     id="path316" />
  <path
     d="M625.456 148.218C626.458 149.479 618.898 162.109 618 163.045C617.101 163.982 615.179 165.205 610.34 158.324L625.456 148.218Z"
     fill="#F2F2F2"
     id="path318" />
  <path
     fill-rule="evenodd"
     clip-rule="evenodd"
     d="M625.483 148.259C625.475 148.244 625.466 148.23 625.456 148.218L610.34 158.324C610.446 158.474 610.55 158.621 610.653 158.764C615.263 165.151 617.121 163.962 618 163.045C618.817 162.193 625.152 151.656 625.529 148.817C625.563 148.568 625.55 148.377 625.483 148.259ZM624.884 149.249L611.101 158.464C613.337 161.558 614.849 162.75 615.833 163.11C616.323 163.289 616.667 163.255 616.92 163.164C617.188 163.066 617.409 162.883 617.611 162.672C617.683 162.597 617.872 162.341 618.17 161.893C618.456 161.462 618.817 160.893 619.225 160.229C620.04 158.9 621.033 157.202 621.967 155.494C622.903 153.784 623.772 152.076 624.343 150.725C624.588 150.146 624.772 149.647 624.884 149.249Z"
     fill="#352E73"
     id="path320" />
  <path
     d="M612.734 150.592C612.915 147.219 609.617 147.33 608.21 148.954C607.555 149.685 608.288 150.94 608.479 150.81C609.444 150.155 608.681 149.657 609.2 149.859C609.26 149.886 609.314 149.925 609.359 149.973C609.403 150.022 609.437 150.079 609.459 150.141C609.568 150.687 608.862 151.592 609.373 152.14C609.373 152.144 612.552 153.966 612.734 150.592Z"
     fill="#F8B785"
     id="path322" />
  <path
     d="M608.685 144.539C608.794 145.028 605.002 150.735 602.697 149.625C600.875 148.752 603.761 144.841 603.761 144.841L608.685 144.539Z"
     fill="#DAE3E6"
     id="path324" />
  <path
     d="M603.766 147.111C604.011 147.818 605.14 147.618 605.573 147.971C605.989 148.311 605.235 149.812 606.036 149.63C608.133 149.149 609.77 146.287 606.714 144.868C603.657 143.449 603.766 147.111 603.766 147.111Z"
     fill="#F8B785"
     id="path326" />
  <path
     d="M615.866 155.02C615.19 153.562 614.646 151.347 614.191 150.435C613.863 149.78 613.645 149.757 613.601 149.671C613.361 149.202 609.9 152.946 606.906 152.009C606.906 152.009 608.56 155.993 610.342 158.328C615.181 165.206 617.089 163.97 618.002 163.05C618.828 162.216 617.241 157.979 615.866 155.02Z"
     fill="#E0E3E6"
     id="path328" />
  <path
     fill-rule="evenodd"
     clip-rule="evenodd"
     d="M607.176 152.631C607.003 152.243 606.906 152.009 606.906 152.009C607.119 152.075 607.334 152.118 607.549 152.141C609.416 152.335 611.36 151.005 612.529 150.205C613.13 149.794 613.526 149.523 613.601 149.671C613.613 149.694 613.637 149.712 613.672 149.739C613.769 149.814 613.95 149.954 614.191 150.435C614.404 150.863 614.637 151.578 614.895 152.367C615.185 153.259 615.507 154.246 615.866 155.02C617.241 157.979 618.828 162.216 618.002 163.05C617.089 163.97 615.181 165.206 610.342 158.328C608.992 156.559 607.716 153.844 607.176 152.631ZM607.797 152.698C607.967 153.072 608.185 153.54 608.439 154.054C609.072 155.335 609.912 156.876 610.77 158.001L610.777 158.01L610.783 158.018C613.195 161.446 614.801 162.732 615.829 163.106C616.317 163.284 616.663 163.252 616.918 163.16C617.188 163.063 617.411 162.88 617.619 162.67C617.618 162.671 617.618 162.671 617.618 162.671C617.618 162.671 617.65 162.632 617.671 162.499C617.694 162.361 617.698 162.166 617.673 161.911C617.624 161.402 617.472 160.741 617.243 159.988C616.788 158.488 616.059 156.714 615.377 155.247C615.023 154.484 614.708 153.534 614.433 152.69C614.419 152.648 614.405 152.606 614.392 152.564C614.125 151.747 613.903 151.066 613.708 150.676M607.797 152.698C609.188 152.739 610.543 152.089 611.563 151.478C612.048 151.188 612.492 150.884 612.846 150.642C612.966 150.559 613.076 150.484 613.174 150.419C613.281 150.348 613.367 150.292 613.437 150.25C613.492 150.309 613.585 150.43 613.708 150.675M613.611 150.158C613.611 150.158 613.61 150.158 613.607 150.159C613.61 150.158 613.611 150.158 613.611 150.158Z"
     fill="#352E73"
     id="path330" />
  <path
     d="M595.269 138.181C593.651 138.617 592.59 143.597 602.693 149.627C602.693 149.627 604.974 144.541 608.68 144.541C608.68 144.541 608.68 143.604 603.722 141.995C600.458 140.937 597.949 137.455 595.269 138.181Z"
     fill="#E0E3E6"
     id="path332" />
  <path
     fill-rule="evenodd"
     clip-rule="evenodd"
     d="M595.41 138.701L595.41 138.701C595.245 138.746 594.982 138.947 594.846 139.447C594.713 139.934 594.722 140.667 595.088 141.612C595.797 143.442 597.824 145.999 602.473 148.863C602.522 148.772 602.577 148.672 602.638 148.565C602.92 148.07 603.338 147.408 603.878 146.743C604.733 145.692 605.961 144.555 607.507 144.153C606.874 143.763 605.702 143.204 603.556 142.508M608.26 144.02C607.723 143.588 606.502 142.897 603.722 141.995C602.4 141.566 601.202 140.74 600.066 139.957C598.398 138.807 596.864 137.749 595.269 138.181C593.676 138.611 592.623 143.443 602.228 149.345C602.38 149.439 602.535 149.533 602.693 149.627C602.693 149.627 602.775 149.442 602.935 149.143C603.567 147.96 605.406 144.984 608.082 144.585C608.102 144.582 608.122 144.579 608.142 144.576C608.318 144.553 608.497 144.541 608.68 144.541C608.68 144.541 608.68 144.36 608.26 144.02ZM595.41 138.701C596.488 138.409 597.59 138.944 598.978 139.868L595.41 138.701ZM598.978 139.868C599.222 140.03 599.473 140.204 599.732 140.382L598.978 139.868ZM599.732 140.382C600.87 141.168 602.15 142.052 603.556 142.508L599.732 140.382Z"
     fill="#352E73"
     id="path334" />
  <path
     d="M614.766 130.356C614.766 130.356 614.606 130.323 613.995 131.696C613.561 132.673 613.396 133.775 613.208 134.833C612.935 136.407 612.775 138.095 613.499 139.582C613.879 140.362 617.085 139.979 618.223 139.028C619.359 138.069 620.106 135.559 619.712 133.953C619.334 132.343 615.276 129.928 614.766 130.356Z"
     fill="#F8B785"
     id="path336" />
  <path
     d="M615.866 128.165C615.488 128.392 614.925 128.149 614.665 128.414C614.081 128.999 614.068 130.161 614.481 130.889C615.084 131.944 618.705 132.424 619.059 134.524C619.059 134.524 620.101 131.955 617.998 130.295C615.552 128.371 615.866 128.165 615.866 128.165Z"
     fill="#2D2861"
     id="path338" />
  <path
     d="M606.03 149.628C605.074 149.87 604.311 148.631 604.516 148.521C605.567 147.97 605.632 148.92 605.698 148.31C605.765 147.699 607.111 147.833 607.111 147.833L606.03 149.628Z"
     fill="#F8B785"
     id="path340" />
  <path
     d="M599.435 174.895C596.231 175.887 594.229 175.6 594.229 175.6C594.229 175.6 596.067 176.317 598.79 176.029C598.79 176.029 597.129 176.863 595.603 176.652C595.603 176.652 596.488 177.235 599.353 177.225L599.435 174.895Z"
     fill="#E7E8E9"
     id="path342" />
  <path
     d="M597.236 156.065C597.564 159.231 596.698 165.126 596.939 169.437C597.069 172.098 596.68 174.76 595.793 177.273C595.793 177.273 597.601 177.5 598.791 176.029C598.791 176.029 598.494 170.06 598.51 165.393C598.532 158.95 597.236 156.065 597.236 156.065Z"
     fill="#2D2861"
     id="path344" />
  <path
     d="M596.109 153.844C595.481 157.593 594.555 168.517 594.555 168.517L596.1 169.5L596.655 153.001L596.109 153.844Z"
     fill="#2D2861"
     id="path346" />
  <defs
     id="defs353">
    <linearGradient
       id="paint0_linear"
       x1="-71.4049"
       y1="309.304"
       x2="722.222"
       y2="309.304"
       gradientUnits="userSpaceOnUse"
       gradientTransform="translate(0.90383835,-0.38735929)">
      <stop
         stop-color="#BCE3F1"
         id="stop348" />
      <stop
         offset="1"
         stop-color="#D0F7FF"
         id="stop350" />
    </linearGradient>
  </defs>
</svg>
