<?xml version="1.0" encoding="UTF-8" standalone="no"?>
<svg
   width="717"
   height="550"
   viewBox="0 0 717 550"
   fill="none"
   version="1.1"
   id="svg355"
   sodipodi:docname="stage_відвідини_деректора.svg"
   inkscape:version="1.1 (c68e22c387, 2021-05-23)"
   xmlns:inkscape="http://www.inkscape.org/namespaces/inkscape"
   xmlns:sodipodi="http://sodipodi.sourceforge.net/DTD/sodipodi-0.dtd"
   xmlns="http://www.w3.org/2000/svg"
   xmlns:svg="http://www.w3.org/2000/svg">
  <sodipodi:namedview
     id="namedview357"
     pagecolor="#ffffff"
     bordercolor="#666666"
     borderopacity="1.0"
     inkscape:pageshadow="2"
     inkscape:pageopacity="0.0"
     inkscape:pagecheckerboard="0"
     showgrid="false"
     inkscape:zoom="1.3690909"
     inkscape:cx="358.63214"
     inkscape:cy="275"
     inkscape:window-width="1857"
     inkscape:window-height="1057"
     inkscape:window-x="-8"
     inkscape:window-y="-8"
     inkscape:window-maximized="1"
     inkscape:current-layer="svg355" />
  <path
     d="M721.19 43.877C639.552 -70.5589 550.634 78.718 383.777 61.6357C74.7898 18.3004 185.924 259.251 113.62 280.903C82.9773 294.692 100.453 284.748 68.6602 307.872C44.9113 325.145 13.0832 369.425 4.28734 421.211C-4.96462 475.533 6.47002 538.903 6.47002 538.903L772.63 546.856C793.284 487.222 786.052 134.768 721.19 43.877Z"
     fill="url(#paint0_linear)"
     id="path2" />
  <path
     d="M12.7937 528.712H769.803C776.502 528.712 781.923 534.669 781.923 542.029V549.047H0.673828V542.029C0.673828 534.669 6.09506 528.712 12.7937 528.712Z"
     fill="#FEE2BF"
     id="path4" />
  <path
     d="m 500.14581,373.17 c 4.549,-1.303 4.663,-0.503 5.234,-0.686 0.686,-0.205 6.172,-7.655 6.172,-7.655 0,0 16.344,-21.777 17.166,-22.988 l 5.144,-28.198 15.475,-0.115 c 0,0 -6.469,30.438 -7.109,31.946 -0.64,1.508 -26.516,28.107 -28.71,30.53 0,0 -1.417,3.93 -2.4,6.375 -0.983,2.422 -3.063,4.205 -3.452,4.844 -0.068,0.092 -1.486,2.126 -3.977,4.091 -2.149,1.691 -1.006,-0.937 -1.006,-0.937 0,0 3.314,-3.908 2.926,-4.136 -0.297,-0.183 -1.966,2.057 -4.32,3.976 -0.595,0.48 -1.212,0.983 -1.76,1.417 -1.463,1.142 -2.698,0.548 -1.395,-0.914 0.457,-0.526 1.257,-1.349 1.897,-1.851 0.709,-0.549 1.143,-1.303 1.669,-1.851 1.029,-1.097 1.783,-1.897 1.714,-1.92 -0.091,-0.023 -0.068,-0.411 -0.731,0.092 -0.8,0.594 -2.149,2.262 -3.406,3.062 -0.708,0.457 -2.126,1.462 -2.126,1.462 0,0 -2.468,1.143 -2.606,1.006 -0.708,-0.686 0.709,-1.943 1.761,-2.423 0.48,-0.662 1.988,-1.691 1.988,-1.691 0,0 2.515,-2.81 2.08,-3.199 -0.183,-0.16 -1.965,1.349 -3.977,2.56 -1.874,1.119 -3.977,1.942 -4.297,1.576 -0.549,-0.594 1.371,-2.056 1.371,-2.056 0,0 1.417,-0.96 1.852,-1.303 0.525,-0.411 1.943,-1.782 1.943,-1.782 0,0 4.731,-5.005 4.274,-5.347 -0.457,-0.343 -1.92,-0.8 -2.331,-0.594 -0.412,0.205 -0.938,0.982 -1.349,1.188 -0.412,0.205 -1.166,0.091 -1.509,-0.389 -0.343,-0.502 1.189,-2.262 1.189,-2.262 0,0 1.303,-1.44 2.606,-1.828 z"
     fill="#f48c7f"
     id="path40" />
  <path
     d="m 525.83881,514.619 c 0,0 0.548,9.735 0.548,9.758 0.206,1.234 1.006,4.296 1.006,5.415 0,4.228 -18.767,-3.587 -14.561,-5.438 0.389,-0.16 2.378,-1.44 2.492,-2.88 0.183,-2.216 0.686,-6.695 0.686,-6.695 z"
     fill="#f7a491"
     id="path42" />
  <path
     d="m 512.87781,524.284 c 0,0 4.412,1.28 6.675,1.623 2.262,0.32 5.234,-2.4 6.834,-1.668 1.76,0.799 1.577,8.752 1.577,8.752 0,0 -23.521,1.394 -30.172,-0.754 -2.629,-0.846 6.08,-4.959 15.086,-7.953 z"
     fill="#184655"
     id="path44" />
  <path
     d="m 567.18781,515.533 c 0,0 0.549,9.735 0.549,9.758 0.206,1.234 1.006,4.296 1.006,5.415 0,4.228 -18.767,-3.587 -14.561,-5.438 0.388,-0.16 2.971,-2.4 3.086,-3.839 0.183,-2.217 0.091,-5.736 0.091,-5.736 z"
     fill="#f7a491"
     id="path46" />
  <path
     d="m 554.22781,525.198 c 0,0 4.411,1.28 6.674,1.623 2.263,0.32 5.235,-2.399 6.835,-1.668 1.76,0.8 1.829,8.066 1.829,8.066 0,0 -25.144,1.828 -31.065,0.114 -2.674,-0.754 6.721,-5.118 15.727,-8.135 z"
     fill="#184655"
     id="path48" />
  <path
     d="m 537.45081,375.135 -7.931,3.427 -16.687,79.683 0.686,59.733 13.372,0.32 c 0,0 6.217,-52.261 6.217,-56.306 0,-4.044 28.825,-70.884 28.825,-70.884 z"
     fill="#2ba14c"
     id="path50" />
  <path
     d="m 543.57681,379.522 c 0,0 5.852,61.402 5.852,71.753 0,10.352 4.732,68.28 4.732,68.28 l 13.417,-0.069 c 0,0 0.961,-17.664 2.401,-43.623 0.228,-4.067 -0.298,-12.271 0,-16.499 2.08,-30.3 6.217,-58.819 4.251,-70.107 -0.32,-1.828 -0.914,-6.581 -2.08,-7.769 -8.777,-9.118 -28.573,-1.966 -28.573,-1.966 z"
     fill="#8dd041"
     id="path52" />
  <path
     d="m 527.20981,331.055 16.229,-1.097 c 0,0 0.801,-14.511 0.801,-21.412 0,-8.386 2.56,-20.771 1.554,-20.543 -2.812,0.663 -7.658,3.245 -9.898,6.376 -7.794,10.854 -8.686,36.676 -8.686,36.676 z"
     fill="#d6007e"
     id="path54" />
  <path
     d="m 565.67981,287.683 c 0,0 9.258,1.28 11.681,3.085 2.743,2.011 5.783,6.513 5.783,6.513 0,0 -11.361,53.7 -11.384,62.726 -0.022,6.993 2.469,24.154 2.469,24.154 0,0 -34.333,2.171 -47.339,-2.971 0,0 4.114,-20.406 4.114,-25.776 0,-5.37 4.915,-54.112 6.035,-57.516 1.006,-3.085 2.857,-8.638 9.143,-10.009 6.263,-1.326 19.498,-0.206 19.498,-0.206 z"
     fill="#fc008b"
     id="path56" />
  <path
     d="m 563.14381,273.241 2.286,14.991 c 0,0 -8.366,17.847 -13.372,16.316 -4.183,-1.303 -1.623,-17.093 -1.623,-17.093 0,0 2.286,-8.478 1.6,-12.728 -0.663,-4.251 11.109,-1.486 11.109,-1.486 z"
     fill="#f7a491"
     id="path58" />
  <path
     d="m 552.05581,274.704 c -0.686,-4.25 11.086,-1.485 11.086,-1.485 l 0.183,1.234 c -0.343,0.823 -0.754,1.554 -1.28,2.079 -2.629,2.811 -6.743,4.502 -10.286,4.616 0.366,-2.239 0.571,-4.707 0.297,-6.444 z"
     fill="#f47458"
     id="path60" />
  <path
     d="m 565.06481,252.013 c 0.343,-0.114 2.674,17.07 -1.76,21.8 -4.435,4.73 -13.052,6.284 -16.161,2.559 -3.429,-4.113 -3.246,-22.6 3.634,-27.467 6.903,-4.867 14.287,3.108 14.287,3.108 z"
     fill="#f7a491"
     id="path62" />
  <path
     d="m 553.40681,239.718 c 5.326,1.074 8.777,4.296 10.035,5.69 2.423,0.275 5.691,1.6 9.097,7.176 4.16,6.855 1.097,14.442 -3.771,18.189 -4.846,3.725 -4.801,8.044 -4.801,8.044 l -0.754,-2.24 c -0.571,-1.691 -0.8,-3.473 -0.617,-5.255 0.114,-1.052 0.343,-2.217 0.777,-3.154 1.166,-2.491 -2.514,-4.136 -3.543,-6.215 -0.8,-1.6 -0.823,-5.233 -2.08,-7.884 l -1.486,-2.011 c 0,0 -3.452,-2.651 -6.812,-1.919 -3.337,0.754 -2.857,-11.815 3.955,-10.421 z"
     fill="#13375b"
     id="path64" />
  <path
     d="m 560.08081,265.015 c -0.046,2.102 0.914,3.816 2.148,3.839 1.212,0.023 2.241,-1.668 2.263,-3.771 0.046,-2.102 -0.914,-3.816 -2.148,-3.839 -1.212,-0.022 -2.217,1.669 -2.263,3.771 z"
     fill="#f7a491"
     id="path66" />
  <path
     d="m 579.69281,294.607 c -3.109,-0.092 -5.875,20.452 -3.886,22.463 1.966,2.033 2.354,27.307 2.354,27.307 l -29.372,-0.732 c -0.572,-0.388 -6.721,-4.524 -7.612,-5.415 -0.915,-0.937 -5.418,-0.48 -6.606,0.822 -1.189,1.303 2.628,0.229 3.703,0.937 1.051,0.709 -0.8,2.491 -0.8,2.491 0,0 -7.452,1.074 -8.892,-0.457 -1.44,-1.531 -5.326,-4.136 -5.852,-2.605 -0.274,0.8 1.737,3.199 2.857,4.205 -1.417,-1.052 -3.085,-2.171 -3.657,-1.966 -1.051,0.366 -0.617,1.691 -0.046,2.103 0.572,0.388 6.492,4.913 7.406,5.233 0.892,0.32 14.653,0.64 17.03,1.165 0,0 38.745,8.821 40.939,8.272 1.943,-0.48 3.863,-12.888 3.863,-22.371 -0.023,-9.483 -1.692,-41.178 -11.429,-41.452 z"
     fill="#f7a491"
     id="path68" />
  <path
     d="m 575.64681,289.923 c 0,0 5.417,1.257 11.018,7.541 5.097,5.713 8.297,37.75 8.297,37.75 l -17.578,2.833 -1.394,-15.493 -4.686,-7.084 z"
     fill="#d6007e"
     id="path70" />
  <path
     d="m 545.97681,268.148 9.506,1.522 c 0,0 -0.834,3.627 -5.027,3.09 -5.101,-0.679 -4.479,-4.612 -4.479,-4.612 z"
     fill="#ffffff"
     id="path94" />
  <path
     d="M239.85 256.626C239.85 256.626 225.473 252.924 223.758 268.234C222.044 283.544 229.838 285.898 225.61 293.302C221.381 300.683 216.649 295.153 215.712 316.13C214.798 337.108 262.891 362.587 275.578 350.133C316.768 309.663 267.897 293.165 269.863 280.779C271.852 268.371 266.183 257.86 258.663 253.381C251.142 248.833 241.565 248.833 239.85 256.626Z"
     fill="#475B6F"
     id="path96" />
  <path
     d="M288.698 516.719C288.698 516.719 288.447 520.718 290.481 522.98C292.516 525.242 300.082 526.453 301.088 529.036C302.093 531.618 293.476 531.778 290.573 530.978C287.67 530.178 280.127 529.561 278.229 529.47C276.332 529.378 280.652 516.81 281.041 516.467C281.43 516.102 288.698 516.719 288.698 516.719Z"
     fill="#FF7446"
     id="path98" />
  <path
     d="M244.536 514.25C244.536 514.25 246.411 522.682 246.228 525.927C246.045 529.172 242.091 534.222 239.051 534.062C236.01 533.902 233.496 531.868 234.227 527.915C234.959 523.962 237.268 514.547 237.268 514.547L244.536 514.25Z"
     fill="#FF7446"
     id="path100" />
  <path
     d="M221.975 372.025C221.975 372.025 220.032 307.859 223.072 304.819C224.284 303.608 234.273 300.318 241.084 299.198C251.279 297.53 259.28 298.238 259.28 298.238C259.28 298.238 269.68 310.692 269.68 315.308C269.68 319.924 270.343 372.528 270.343 372.528C278.389 375.498 290.847 428.764 291.761 442.498C292.698 456.232 290.687 520.078 290.687 520.078L278.96 518.798C272.56 508.767 269.68 455.957 267.806 449.399C265.223 440.327 253.108 412.563 253.108 412.563L246.868 409.844C246.868 409.844 248.308 451.707 247.782 461.373C247.256 471.016 247.85 517.77 247.85 517.77L236.101 517.13C226.912 500.632 220.329 424.537 220.558 420.561C220.786 416.585 216.718 410.049 215.872 398.624C215.209 389.575 221.975 372.025 221.975 372.025Z"
     fill="#02BBD0"
     id="path102" />
  <path
     d="M242.532 372.572H263.379V370.356H242.532V372.572Z"
     fill="white"
     id="path104" />
  <path
     d="M251.075 373.464H255.098C255.83 373.464 256.447 372.87 256.447 372.116V371.156C256.447 370.425 255.853 369.808 255.098 369.808H251.075C250.344 369.808 249.727 370.402 249.727 371.156V372.116C249.727 372.87 250.321 373.464 251.075 373.464Z"
     fill="#271798"
     id="path106" />
  <path
     opacity="0.38"
     d="M221.974 372.024C221.974 372.024 220.26 315.056 222.591 305.938C225.631 303.882 235.346 300.248 237.723 300.065C237.289 304.75 241.541 331.097 245.907 344.625C248.65 353.172 248.261 363.638 247.21 371.795C246.57 376.868 245.564 381.759 244.421 386.032C244.169 386.1 237.701 389.574 226.454 389.574C225.974 389.551 221.768 389.277 216.945 388.523C218.751 380.365 221.974 372.024 221.974 372.024Z"
     fill="#001C41"
     id="path108" />
  <path
     opacity="0.38"
     d="M256.515 386.649C256.263 385.849 258.183 376.572 258.778 371.773H258.801C262.755 339.69 259.189 298.832 259.143 298.215C259.372 298.443 260.058 299.22 260.972 300.317C263.761 303.882 269.11 311.08 269.635 314.759C269.635 314.873 269.658 314.988 269.658 315.079C269.658 315.102 269.658 315.148 269.658 315.17C269.658 315.742 269.658 316.907 269.681 318.507C269.681 318.827 269.704 319.147 269.727 319.466C269.864 332.994 270.367 372.527 270.367 372.527C272.973 373.487 276.013 379.702 279.007 388.112C269.292 388.706 257.2 388.889 256.515 386.649Z"
     fill="#001C41"
     id="path110" />
  <path
     d="M210.592 380.388C210.569 388.432 232.239 389.003 242.525 384.387L241.405 349.516L237.862 299.838C237.862 299.838 224.855 302.42 220.421 305.436C220.421 305.436 218.981 357.08 217.724 367.592C216.466 378.081 210.592 376.732 210.592 380.388Z"
     fill="#F4CC1A"
     id="path112" />
  <path
     d="M270.732 301.049C270.732 301.049 275.806 342.181 275.806 352.875C275.806 363.593 277.841 382.079 277.841 382.079C277.841 382.079 266.869 386.284 259.234 384.387C259.234 384.387 266.503 343.141 266.503 340.444C266.503 337.748 259.143 298.192 259.143 298.192C259.143 298.192 266.114 298.581 270.732 301.049Z"
     fill="#F4CC1A"
     id="path114" />
  <path
     d="M277.521 519.575L291.738 520.489L291.761 516.832L276.949 516.01L277.521 519.575Z"
     fill="#271798"
     id="path116" />
  <path
     d="M234.523 517.198L248.627 518.135L248.696 514.479L233.906 513.656L234.523 517.198Z"
     fill="#271798"
     id="path118" />
  <path
     d="M279.029 522.18C280.149 523.596 283.807 526.499 294.504 525.219C297.293 526.339 300.448 527.413 301.088 529.012C302.093 531.594 293.476 531.754 290.573 530.955C287.67 530.155 280.127 529.538 278.229 529.446C277.201 529.401 278.024 525.653 279.029 522.18Z"
     fill="#001653"
     id="path120" />
  <path
     d="M246.228 525.927C246.045 529.172 242.091 534.222 239.051 534.063C236.01 533.903 233.496 531.869 234.227 527.916C234.479 526.59 234.913 524.625 235.37 522.637C235.759 525.105 236.902 529.309 240.148 527.847C243.668 526.27 245.222 522.614 245.839 521.197C246.091 523.003 246.274 524.785 246.228 525.927Z"
     fill="#001653"
     id="path122" />
  <path
     opacity="0.18"
     d="M276.584 368.619C272.469 368.414 267.235 368.14 262.092 367.888C262.389 366.106 262.709 364.278 263.029 362.427L276.195 363.135C276.31 364.94 276.447 366.814 276.584 368.619Z"
     fill="#001653"
     id="path124" />
  <path
     opacity="0.18"
     d="M241.977 366.974C241.954 366.974 241.931 366.974 241.908 366.974C238.708 366.974 226.273 370.379 221.747 370.379C220.01 370.379 218.593 369.876 217.473 369.259C217.473 369.213 217.496 369.191 217.496 369.145C217.587 368.665 217.656 368.139 217.724 367.568C217.747 367.294 217.793 366.997 217.816 366.677C217.976 365.123 218.09 363.363 218.204 361.695H241.794L241.977 366.974Z"
     fill="#001653"
     id="path126" />
  <path
     d="M270.639 301.14C270.639 301.14 274.479 301.939 279.919 320.129C285.337 338.319 281.748 361.673 277.999 364.095C274.251 366.517 237.883 365.626 237.883 365.626L237.746 352.532C237.746 352.532 265.29 348.236 268.01 344.877C268.673 344.054 267.53 340.535 267.759 336.536C268.468 324.242 270.639 301.14 270.639 301.14Z"
     fill="#FFBD00"
     id="path128" />
  <path
     d="M269.291 342.935C269.291 342.935 273.063 340.353 274.48 338.616C275.897 336.879 278.731 334.549 278.846 335.783C278.983 337.017 277.68 338.799 277.68 338.799C277.68 338.799 282.823 335.211 283.509 335.76C284.195 336.308 284.857 340.17 284.4 344.42C283.92 348.671 271.874 351.756 271.874 351.756L269.291 342.935Z"
     fill="#FFA97A"
     id="path130" />
  <path
     d="M221.2 367.659C234.32 369.853 262.001 360.096 273.225 356.577L269.019 342.02C269.019 342.02 235.966 351.161 231.623 349.218C229.474 348.259 223.988 338.067 221.977 327.715C219.92 317.135 220.422 305.436 220.422 305.436C220.422 305.436 210.913 317.867 213.611 344.146C215.645 364.209 215.416 366.677 221.2 367.659Z"
     fill="#FFBD00"
     id="path132" />
  <path
     d="M224.511 337.77C224.511 337.77 227.597 340.398 230.02 342.363C232.443 344.329 236.215 349.63 236.215 349.63C236.215 349.63 231.734 350.704 230.157 350.864C228.58 351.024 223.414 348.145 221.608 348.328C219.802 348.51 220.328 345.837 222.545 346.294C224.74 346.751 226.934 346.979 226.934 346.979C226.934 346.979 221.768 343.597 219.345 341.609C216.922 339.644 218.888 338.159 220.854 339.758C222.82 341.358 224.968 342.272 224.968 342.272C224.968 342.272 218.02 336.399 219.025 335.165C220.031 333.931 224.511 337.77 224.511 337.77Z"
     fill="#FFA97A"
     id="path134" />
  <path
     d="M253.017 283.842C253.017 283.842 253.749 294.239 254.732 296.501C255.006 297.141 255.486 297.621 256.012 297.987C258.755 299.815 253.863 322.963 251.371 322.437C248.697 321.889 242.045 307.538 239.919 302.877C239.279 301.506 239.851 299.838 241.245 299.221C241.245 299.221 241.245 299.221 241.268 299.221C243.577 298.192 241.885 279.157 241.885 279.157L253.017 283.842Z"
     fill="#FFA97A"
     id="path136" />
  <path
     opacity="0.65"
     d="M243.314 278.403C243.314 278.403 242.829 278.7 242.89 279.523C242.991 281.123 243.738 283.111 244.363 284.55C247.29 291.177 251.529 294.376 254.435 294.833C253.708 291.474 253.184 283.111 253.184 283.111L243.314 278.403Z"
     fill="#DBA39A"
     id="path138" />
  <path
     d="M241.473 270.975C241.473 270.975 245.26 272.201 248.81 261.241C254.433 259.024 259.599 260.692 261.542 268.028C263.485 275.363 260.674 287.017 257.245 290.605C253.816 294.192 241.884 288.205 241.473 270.975Z"
     fill="#FFA97A"
     id="path140" />
  <path
     d="M243.165 273.353C243.165 273.353 240.354 268.988 238.616 271.502C236.879 274.038 238.411 280.071 241.702 280.368C244.948 280.711 243.165 273.353 243.165 273.353Z"
     fill="#F8A272"
     id="path142" />
  <path
     d="m 312.80844,218.205 h -65.32237 c -6.23015,0 -11.27207,-7.55051 -11.27207,-16.87985 v -33.79362 c 0,-9.32935 5.04192,-16.87986 11.27207,-16.87986 h 65.34427 c 6.23016,0 11.27208,7.55051 11.27208,16.87986 v 33.79362 c 0,9.32934 -5.06453,16.87985 -11.29398,16.87985 z"
     fill="#ffffff"
     id="path144"
     style="stroke-width:0.706447" />
  <path
     d="M272.771 209.356L268.607 256.103L309.551 208.107L272.771 209.356Z"
     fill="white"
     id="path146" />
  <path
     d="m 260.57301,161.71535 h 37.0454 v 37.04539 h -37.0454 z"
     fill="#e7aa6c"
     id="path148"
     style="stroke-width:0.706447" />
  <path
     d="m 297.6177,199.06522 h -37.04539 c -0.0812,0 -0.15895,-0.0325 -0.21618,-0.0897 -0.0572,-0.0572 -0.089,-0.13493 -0.089,-0.21546 v -37.0454 c 0,-0.0812 0.0318,-0.15895 0.089,-0.21617 0.0572,-0.0572 0.13494,-0.089 0.21618,-0.089 h 37.04539 c 0.0805,0 0.15825,0.0318 0.21547,0.089 0.0579,0.0572 0.0897,0.13493 0.0897,0.21617 v 37.0454 c 0,0.0805 -0.0318,0.15824 -0.0897,0.21546 -0.0572,0.0572 -0.13493,0.0897 -0.21547,0.0897 z m -36.74021,-0.61108 h 36.43432 V 162.01982 H 260.8782 Z"
     fill="#323c6b"
     id="path150"
     style="stroke-width:0.706447" />
  <path
     d="m 263.59237,164.55526 h 31.00739 v 31.36556 h -31.00739 z"
     fill="#89c5cd"
     id="path152"
     style="stroke-width:0.706447" />
  <path
     d="m 294.59976,164.55526 v 31.36486 h -2.00419 V 166.3885 h -29.0032 v -1.83324 z"
     fill="#6eaaad"
     id="path154"
     style="stroke-width:0.706447" />
  <path
     d="m 258.32298,198.76004 h 41.54688 v 2.55592 h -41.54688 z"
     fill="#e7aa6c"
     id="path156"
     style="stroke-width:0.706447" />
  <path
     d="m 299.86844,201.62185 h -41.54617 c -0.0812,0 -0.15895,-0.0318 -0.21617,-0.089 -0.0572,-0.0572 -0.0897,-0.13493 -0.0897,-0.21617 v -2.55663 c 0,-0.0805 0.0325,-0.15825 0.0897,-0.21547 0.0572,-0.0572 0.13493,-0.0897 0.21617,-0.0897 h 41.54617 c 0.0812,0 0.15895,0.0325 0.21618,0.0897 0.0572,0.0572 0.0897,0.13493 0.0897,0.21547 v 2.55663 c 0,0.0812 -0.0325,0.15895 -0.0897,0.21617 -0.0572,0.0572 -0.13493,0.089 -0.21618,0.089 z m -41.24098,-0.61037 h 40.9358 v -1.94555 h -40.9358 z"
     fill="#323c6b"
     id="path158"
     style="stroke-width:0.706447" />
  <path
     d="m 275.09475,171.06306 c -0.0812,0 -0.15895,-0.0318 -0.21618,-0.089 -0.0572,-0.0579 -0.0897,-0.13564 -0.0897,-0.21618 v -0.58211 c 0,-0.0812 0.0325,-0.15895 0.0897,-0.21617 0.0572,-0.0572 0.13493,-0.0897 0.21618,-0.0897 0.0805,0 0.15824,0.0325 0.21617,0.0897 0.0572,0.0572 0.089,0.13493 0.089,0.21617 v 0.58211 c 0,0.0805 -0.0318,0.15825 -0.089,0.21618 -0.0579,0.0572 -0.13564,0.089 -0.21617,0.089 z"
     fill="#323c6b"
     id="path160"
     style="stroke-width:0.706447" />
  <path
     d="m 272.46182,171.62256 c -0.0593,0 -0.11727,-0.0177 -0.16673,-0.0502 -0.0495,-0.0325 -0.089,-0.0784 -0.11232,-0.13282 l -0.23737,-0.53195 c -0.0325,-0.0742 -0.0353,-0.15824 -0.006,-0.23383 0.029,-0.0756 0.0869,-0.13635 0.16107,-0.16955 0.0735,-0.0332 0.15754,-0.0353 0.23384,-0.006 0.0756,0.029 0.13634,0.0869 0.16954,0.16107 l 0.23666,0.53195 c 0.0163,0.0367 0.0254,0.0756 0.0261,0.11586 10e-4,0.0403 -0.006,0.0805 -0.0198,0.11798 -0.0148,0.0374 -0.036,0.0713 -0.0636,0.10031 -0.0283,0.029 -0.0608,0.0523 -0.0975,0.0685 -0.0388,0.0184 -0.0812,0.0283 -0.12433,0.029 z"
     fill="#323c6b"
     id="path162"
     style="stroke-width:0.706447" />
  <path
     d="m 270.28031,173.20642 c -0.0756,0 -0.14906,-0.0276 -0.20487,-0.0777 l -0.43235,-0.38996 c -0.0607,-0.0544 -0.0968,-0.13069 -0.10102,-0.21123 -0.004,-0.0812 0.024,-0.16036 0.0784,-0.22041 0.0544,-0.0607 0.12998,-0.0968 0.21122,-0.10102 0.0812,-0.004 0.16037,0.024 0.22041,0.0784 l 0.43235,0.38995 c 0.0459,0.041 0.0784,0.0954 0.0933,0.15542 0.0141,0.0608 0.01,0.12363 -0.012,0.18156 -0.0219,0.0572 -0.0615,0.10738 -0.11232,0.142 -0.0509,0.0353 -0.11162,0.0537 -0.17308,0.0537 z"
     fill="#323c6b"
     id="path164"
     style="stroke-width:0.706447" />
  <path
     d="m 268.93452,175.53982 c -0.0325,0 -0.0643,-0.005 -0.0947,-0.0148 l -0.55315,-0.17944 c -0.0389,-0.0127 -0.0742,-0.0318 -0.10526,-0.0579 -0.0311,-0.0261 -0.0565,-0.0579 -0.0749,-0.094 -0.0184,-0.036 -0.0297,-0.0749 -0.0332,-0.11515 -0.004,-0.0403 0.001,-0.0805 0.0141,-0.11939 0.012,-0.0382 0.0325,-0.0735 0.0586,-0.10456 0.0261,-0.0304 0.0586,-0.0558 0.0947,-0.0735 0.036,-0.0184 0.0756,-0.029 0.11586,-0.0318 0.0403,-0.004 0.0805,0.002 0.11868,0.0148 l 0.55386,0.17943 c 0.0692,0.0226 0.12857,0.0692 0.16672,0.1307 0.0381,0.0622 0.0523,0.13634 0.041,0.20769 -0.0113,0.0721 -0.048,0.13776 -0.10314,0.18509 -0.0558,0.0473 -0.12574,0.0735 -0.19922,0.0728 z"
     fill="#323c6b"
     id="path166"
     style="stroke-width:0.706447" />
  <path
     d="m 268.07266,178.27801 c -0.0812,0.004 -0.16036,-0.024 -0.22041,-0.0784 -0.0608,-0.0544 -0.0968,-0.12999 -0.10102,-0.21123 -0.004,-0.0812 0.024,-0.16036 0.0784,-0.22041 0.0544,-0.0608 0.12999,-0.0968 0.21123,-0.10102 l 0.57858,-0.0615 c 0.0403,-0.004 0.0805,-10e-4 0.11939,0.01 0.0389,0.0113 0.0749,0.0297 0.10597,0.0551 0.0318,0.0254 0.0572,0.0572 0.0763,0.0926 0.0191,0.0353 0.0311,0.0749 0.0346,0.11444 0.008,0.0805 -0.0155,0.16107 -0.0664,0.22394 -0.0509,0.0629 -0.12433,0.10314 -0.20487,0.11162 l -0.57858,0.0615 z"
     fill="#323c6b"
     id="path168"
     style="stroke-width:0.706447" />
  <path
     d="m 268.98044,181.072 c -0.0671,0 -0.1321,-0.0219 -0.18579,-0.0629 -0.053,-0.041 -0.0918,-0.0982 -0.10879,-0.16319 -0.0177,-0.065 -0.0127,-0.13422 0.0127,-0.19639 0.0254,-0.0622 0.0713,-0.11374 0.12928,-0.14765 l 0.5044,-0.29105 c 0.0699,-0.0403 0.1533,-0.0509 0.23101,-0.0297 0.0777,0.0212 0.14412,0.0728 0.18439,0.142 0.0403,0.0699 0.0516,0.1533 0.0311,0.23101 -0.0212,0.0784 -0.0713,0.14482 -0.14129,0.18579 l -0.5037,0.29106 c -0.0466,0.0269 -0.0996,0.041 -0.1533,0.041 z"
     fill="#323c6b"
     id="path170"
     style="stroke-width:0.706447" />
  <path
     d="m 279.90989,173.20642 c -0.0615,0 -0.12221,-0.0184 -0.17308,-0.0537 -0.0509,-0.0353 -0.0897,-0.0848 -0.11232,-0.1427 -0.0219,-0.0572 -0.0261,-0.12081 -0.0113,-0.18085 0.0141,-0.0601 0.0466,-0.11445 0.0926,-0.15542 l 0.43305,-0.38996 c 0.06,-0.0544 0.13917,-0.0827 0.22041,-0.0784 0.0805,0.004 0.15683,0.041 0.21123,0.10103 0.0537,0.06 0.082,0.13917 0.0777,0.22041 -0.004,0.0805 -0.0403,0.15683 -0.10032,0.21122 l -0.43234,0.38996 c -0.0565,0.0509 -0.12999,0.0784 -0.20558,0.0784 z"
     fill="#323c6b"
     id="path172"
     style="stroke-width:0.706447" />
  <path
     d="m 277.73121,171.62327 c -0.0424,-7.1e-4 -0.0841,-0.009 -0.12222,-0.0268 -0.0367,-0.0162 -0.0699,-0.0396 -0.0975,-0.0685 -0.0276,-0.029 -0.0495,-0.0636 -0.0636,-0.10102 -0.0148,-0.0374 -0.0219,-0.077 -0.0205,-0.11727 7e-4,-0.0403 0.01,-0.0798 0.0261,-0.11586 l 0.23737,-0.53195 c 0.0325,-0.0742 0.094,-0.13211 0.16955,-0.16107 0.0756,-0.029 0.15965,-0.0268 0.23383,0.006 0.0742,0.0332 0.13211,0.094 0.16107,0.16955 0.029,0.0756 0.0269,0.15966 -0.006,0.23384 l -0.23736,0.53195 c -0.024,0.0537 -0.0636,0.0996 -0.11303,0.13211 -0.0502,0.0318 -0.10809,0.0487 -0.16743,0.0487 z"
     fill="#323c6b"
     id="path174"
     style="stroke-width:0.706447" />
  <path
     d="m 278.45814,173.76734 c -0.83996,-0.82443 -1.95191,-1.31329 -3.12744,-1.37475 -1.17482,-0.0615 -2.33198,0.30801 -3.2539,1.03989 -0.92191,0.73118 -1.54429,1.7746 -1.75057,2.93317 -0.20699,1.15858 0.017,2.35247 0.62873,3.35775 h 7.50318 z"
     fill="#fcd462"
     id="path176"
     style="stroke-width:0.706447" />
  <path
     d="m 278.46097,173.77016 v 5.95324 h -0.51712 v -4.77771 c -0.51853,-0.50652 -1.14515,-0.88871 -1.83253,-1.11972 -0.68737,-0.2303 -1.41784,-0.30306 -2.137,-0.21264 -0.71987,0.0904 -1.40936,0.34122 -2.01832,0.73471 -0.60896,0.39349 -1.12113,0.91909 -1.49908,1.53793 0.23171,-0.80111 0.66689,-1.52804 1.26313,-2.11086 0.59624,-0.58211 1.33306,-1.00033 2.13912,-1.21368 0.80606,-0.21334 1.65379,-0.21334 2.45985,-0.002 0.80676,0.21194 1.54429,0.62874 2.14124,1.21085 z"
     fill="#f7be56"
     id="path178"
     style="stroke-width:0.706447" />
  <path
     d="m 294.59905,168.72754 v 7.04116 h -3.31394 c -0.55951,0.007 -1.09923,-0.20557 -1.50262,-0.59271 -0.40338,-0.38713 -0.63862,-0.91767 -0.65417,-1.47647 -10e-4,-0.0565 7.1e-4,-0.11374 0.006,-0.17025 0.0247,-0.33203 0.12716,-0.65347 0.29812,-0.93887 0.17096,-0.28541 0.4062,-0.52772 0.68666,-0.70574 0.28046,-0.17873 0.59907,-0.28965 0.93039,-0.32356 0.33133,-0.0339 0.66548,0.0106 0.97702,0.12858 -0.005,-0.0473 -0.007,-0.094 -0.006,-0.14129 0,-0.70716 0.26492,-1.38958 0.74177,-1.91094 0.47756,-0.52207 1.13314,-0.84703 1.83747,-0.90991 z"
     fill="#e0e0e0"
     id="path180"
     style="stroke-width:0.706447" />
  <path
     d="m 294.59835,176.07389 h -3.31466 c -0.64004,0.008 -1.25747,-0.23595 -1.71878,-0.68031 -0.46061,-0.44435 -0.72835,-1.0519 -0.74318,-1.69194 -7.1e-4,-0.0678 10e-4,-0.13564 0.008,-0.20346 0.0268,-0.34192 0.12574,-0.67536 0.28964,-0.97701 0.1646,-0.30166 0.39067,-0.56587 0.66335,-0.77427 0.2734,-0.2084 0.58706,-0.35676 0.92192,-0.43588 0.33415,-0.0791 0.68101,-0.0869 1.0187,-0.0226 0.0579,-0.73753 0.37583,-1.43126 0.89789,-1.95615 0.52136,-0.52489 1.21297,-0.84703 1.9505,-0.9092 0.0424,-0.004 0.0848,0.001 0.12504,0.0148 0.0403,0.0141 0.0777,0.036 0.1088,0.0643 0.0311,0.029 0.0558,0.0643 0.0735,0.10314 0.017,0.0388 0.0254,0.0805 0.0254,0.12292 v 7.03975 c 0,0.0812 -0.0325,0.15895 -0.0897,0.21617 -0.0572,0.0572 -0.13493,0.0897 -0.21617,0.0897 z m -3.33232,-4.21608 c -0.10808,0 -0.21617,0.01 -0.32284,0.0283 -0.39985,0.0714 -0.76438,0.2741 -1.03707,0.57505 -0.27269,0.30094 -0.43729,0.68454 -0.46767,1.08934 -0.005,0.0502 -0.007,0.10031 -0.006,0.15047 0.0141,0.47827 0.21618,0.93181 0.56304,1.26172 0.34687,0.33062 0.80959,0.51076 1.28785,0.50158 h 3.00947 v -6.38134 c -0.56092,0.12433 -1.06179,0.43658 -1.41996,0.88517 -0.35817,0.4486 -0.55244,1.00599 -0.54961,1.58033 -7.1e-4,0.0339 7e-4,0.0685 0.004,0.10243 0.006,0.0523 -7e-4,0.10526 -0.0205,0.15401 -0.0198,0.0487 -0.0516,0.0918 -0.0933,0.12433 -0.041,0.0325 -0.0897,0.0544 -0.142,0.0622 -0.0523,0.008 -0.10526,0.003 -0.15471,-0.0155 -0.2077,-0.0784 -0.42882,-0.11939 -0.65135,-0.11939 z"
     fill="#323c6b"
     id="path182"
     style="stroke-width:0.706447" />
  <path
     d="m 271.89666,193.74073 c -0.34545,0.16177 -0.7234,0.24372 -1.10489,0.24019 h -7.1994 v -7.41629 c 0.41822,-0.49875 0.96783,-0.87034 1.58597,-1.07309 0.61885,-0.20204 1.28221,-0.22677 1.91377,-0.0713 0.63227,0.15542 1.20802,0.48462 1.66227,0.95088 0.45495,0.46625 0.76932,1.05048 0.90849,1.68629 0.36594,-0.1095 0.74742,-0.1533 1.1282,-0.12999 0.67183,0.0509 1.30834,0.32143 1.81133,0.77003 0.50228,0.4493 0.84279,1.05119 0.96854,1.71313 0.12575,0.66194 0.0297,1.34649 -0.27269,1.94839 -0.30307,0.60189 -0.79546,1.08722 -1.4023,1.3811 z"
     fill="#eeefee"
     id="path184"
     style="stroke-width:0.706447" />
  <path
     d="m 272.34878,193.46945 c 0.23737,-0.49663 0.33486,-1.04978 0.28188,-1.59798 -0.0692,-0.71987 -0.38996,-1.39241 -0.90637,-1.89823 -0.51642,-0.50652 -1.19461,-0.81453 -1.91518,-0.87034 -0.38149,-0.0233 -0.76297,0.0205 -1.12891,0.12999 -0.17025,-0.77639 -0.60048,-1.47083 -1.21932,-1.96817 -0.61885,-0.49804 -1.38888,-0.77002 -2.18293,-0.77073 -0.59129,-0.001 -1.17199,0.15047 -1.68699,0.44082 v -0.37018 c 0.41821,-0.49875 0.96783,-0.87034 1.58668,-1.07309 0.61814,-0.20204 1.28149,-0.22677 1.91306,-0.0713 0.63227,0.15542 1.20802,0.48462 1.66297,0.95088 0.45425,0.46625 0.76862,1.05048 0.90779,1.68629 0.36594,-0.1095 0.74742,-0.1533 1.1289,-0.12999 0.62662,0.0466 1.22428,0.28541 1.71102,0.68384 0.48674,0.39773 0.83926,0.93604 1.00951,1.54147 0.17025,0.60543 0.14977,1.249 -0.0586,1.84241 -0.2077,0.59342 -0.59413,1.10842 -1.10489,1.47436 z"
     fill="#e1e6e9"
     id="path186"
     style="stroke-width:0.706447" />
  <path
     d="m 294.59835,196.22601 h -31.00669 c -0.0812,0 -0.15895,-0.0325 -0.21617,-0.0897 -0.0572,-0.0572 -0.0897,-0.13493 -0.0897,-0.21617 v -31.36486 c 0,-0.0812 0.0325,-0.15895 0.0897,-0.21617 0.0572,-0.0572 0.13493,-0.0897 0.21617,-0.0897 h 31.00669 c 0.0812,0 0.15895,0.0325 0.21617,0.0897 0.0572,0.0572 0.0897,0.13493 0.0897,0.21617 v 31.36486 c 0,0.0812 -0.0325,0.15895 -0.0897,0.21617 -0.0572,0.0572 -0.13493,0.0897 -0.21617,0.0897 z m -30.7015,-0.61108 h 30.39631 v -30.75448 h -30.39631 z"
     fill="#323c6b"
     id="path188"
     style="stroke-width:0.706447" />
  <path
     d="m 278.45885,180.02858 h -7.50318 c -0.0523,0 -0.10455,-0.0134 -0.15047,-0.0396 -0.0459,-0.0254 -0.0841,-0.0629 -0.11162,-0.10809 -0.64357,-1.06885 -0.8767,-2.33551 -0.65488,-3.56332 0.22253,-1.2278 0.88377,-2.33269 1.86078,-3.10907 0.97773,-0.77568 2.20341,-1.16917 3.44959,-1.1063 1.24688,0.0622 2.42735,0.57646 3.32242,1.4461 0.029,0.0283 0.0523,0.0622 0.0685,0.10032 0.0163,0.0374 0.024,0.0777 0.024,0.11868 v 5.95676 c 0,0.0805 -0.0325,0.15825 -0.0897,0.21547 -0.0572,0.0572 -0.13494,0.089 -0.21547,0.089 z m -7.32657,-0.61107 h 7.02068 v -5.51807 c -0.7891,-0.73117 -1.81416,-1.15645 -2.88867,-1.20025 -1.07521,-0.0431 -2.13064,0.29812 -2.97697,0.96359 -0.84561,0.66477 -1.42702,1.61 -1.63895,2.66472 -0.21123,1.05473 -0.0396,2.15114 0.48391,3.09071 z"
     fill="#323c6b"
     id="path190"
     style="stroke-width:0.706447" />
  <path
     d="m 277.79973,161.71535 h 2.59125 v 37.04539 h -2.59125 z"
     fill="#e7aa6c"
     id="path192"
     style="stroke-width:0.706447" />
  <path
     d="m 280.39098,199.06522 h -2.59054 c -0.0812,0 -0.15895,-0.0325 -0.21617,-0.0897 -0.0572,-0.0572 -0.0897,-0.13493 -0.0897,-0.21546 v -37.0454 c 0,-0.0812 0.0325,-0.15895 0.0897,-0.21617 0.0572,-0.0572 0.13493,-0.089 0.21617,-0.089 h 2.59054 c 0.0812,0 0.15895,0.0318 0.21618,0.089 0.0572,0.0572 0.089,0.13493 0.089,0.21617 v 37.0454 c 0,0.0805 -0.0318,0.15824 -0.089,0.21546 -0.0572,0.0572 -0.13494,0.0897 -0.21618,0.0897 z m -2.28536,-0.61108 h 1.97947 v -36.43432 h -1.97947 z"
     fill="#323c6b"
     id="path194"
     style="stroke-width:0.706447" />
  <path
     d="m 260.57301,178.94207 h 37.0454 v 2.59125 h -37.0454 z"
     fill="#e7aa6c"
     id="path196"
     style="stroke-width:0.706447" />
  <path
     d="m 297.6177,181.8385 h -37.04539 c -0.0812,0 -0.15895,-0.0318 -0.21618,-0.089 -0.0572,-0.0579 -0.089,-0.13564 -0.089,-0.21617 v -2.59055 c 0,-0.0812 0.0318,-0.15895 0.089,-0.21617 0.0572,-0.0572 0.13494,-0.0897 0.21618,-0.0897 h 37.04539 c 0.0805,0 0.15825,0.0325 0.21547,0.0897 0.0579,0.0572 0.0897,0.13493 0.0897,0.21617 v 2.59125 c 0,0.0805 -0.0325,0.15825 -0.0897,0.21547 -0.0572,0.0572 -0.13493,0.089 -0.21547,0.089 z m -36.74021,-0.61108 h 36.43432 v -1.97946 H 260.8782 Z"
     fill="#323c6b"
     id="path198"
     style="stroke-width:0.706447" />
  <path
     d="m 270.79036,194.2854 h -7.1987 c -0.0812,0 -0.15895,-0.0325 -0.21617,-0.0897 -0.0572,-0.0572 -0.0897,-0.13493 -0.0897,-0.21547 v -7.41558 c 0,-0.072 0.0254,-0.14129 0.0707,-0.19639 0.43799,-0.52206 1.0081,-0.91697 1.65167,-1.14232 0.64287,-0.22536 1.33448,-0.27269 2.00278,-0.13776 0.66759,0.13493 1.28715,0.44789 1.79226,0.90496 0.50511,0.45707 0.8774,1.04271 1.07803,1.69335 0.30519,-0.0601 0.61673,-0.0805 0.92757,-0.0608 0.79405,0.0608 1.54076,0.39914 2.10875,0.95653 0.56869,0.55668 0.92191,1.29703 0.99821,2.08896 0.0671,0.68455 -0.0777,1.37263 -0.4154,1.97099 -0.33768,0.59907 -0.85197,1.07945 -1.47153,1.37545 -0.38784,0.18085 -0.811,0.27199 -1.2384,0.26775 z m -6.89351,-0.61108 h 6.89351 c 0.33627,0.004 0.6683,-0.0678 0.97278,-0.20911 0.54608,-0.26421 0.98973,-0.70079 1.26172,-1.24264 0.27268,-0.54184 0.35887,-1.15857 0.24584,-1.75411 -0.11303,-0.59624 -0.41963,-1.13808 -0.87176,-1.54217 -0.45212,-0.40409 -1.02505,-0.64782 -1.62977,-0.69303 -0.34404,-0.0212 -0.68879,0.0184 -1.0187,0.11727 -0.0403,0.012 -0.0827,0.0155 -0.12504,0.0106 -0.0417,-0.005 -0.0827,-0.0191 -0.11939,-0.0403 -0.036,-0.0212 -0.0671,-0.0502 -0.0918,-0.0841 -0.0247,-0.0339 -0.0417,-0.0728 -0.0509,-0.11373 -0.12504,-0.57081 -0.4055,-1.09641 -0.80959,-1.51887 -0.40479,-0.42174 -0.91768,-0.7241 -1.48283,-0.87316 -0.56516,-0.14977 -1.1607,-0.13988 -1.72091,0.0275 -0.56021,0.16743 -1.0632,0.48603 -1.45387,0.9205 z"
     fill="#323c6b"
     id="path200"
     style="stroke-width:0.706447" />
  <path
     d="m 258.73978,165.57396 c -0.0805,0 -0.15824,-0.0318 -0.21546,-0.089 -0.0572,-0.0572 -0.0897,-0.13493 -0.0897,-0.21617 v -5.38667 c 0,-0.0805 0.0325,-0.15824 0.0897,-0.21546 0.0572,-0.0579 0.13493,-0.0897 0.21546,-0.0897 h 2.48458 c 0.0812,0 0.15895,0.0318 0.21617,0.0897 0.0572,0.0572 0.089,0.13493 0.089,0.21546 0,0.0812 -0.0318,0.15896 -0.089,0.21618 -0.0572,0.0572 -0.13493,0.0897 -0.21617,0.0897 h -2.17869 v 5.08077 c 0,0.0812 -0.0325,0.15895 -0.0897,0.21617 -0.0572,0.0572 -0.13493,0.089 -0.21617,0.089 z"
     fill="#323c6b"
     id="path202"
     style="stroke-width:0.706447" />
  <path
     d="m 263.59166,160.18801 h -0.63651 c -0.0805,0 -0.15824,-0.0325 -0.21617,-0.0897 -0.0572,-0.0572 -0.089,-0.13493 -0.089,-0.21618 0,-0.0805 0.0318,-0.15824 0.089,-0.21546 0.0579,-0.0579 0.13564,-0.0897 0.21617,-0.0897 h 0.63651 c 0.0812,0 0.15895,0.0318 0.21618,0.0897 0.0572,0.0572 0.0897,0.13493 0.0897,0.21546 0,0.0812 -0.0325,0.15896 -0.0897,0.21618 -0.0572,0.0572 -0.13494,0.0897 -0.21618,0.0897 z"
     fill="#323c6b"
     id="path204"
     style="stroke-width:0.706447" />
  <path
     d="m 299.45023,178.12541 c -0.0805,0 -0.15825,-0.0325 -0.21547,-0.0897 -0.0579,-0.0572 -0.0897,-0.13493 -0.0897,-0.21617 v -0.7128 c 0,-0.0812 0.0318,-0.15896 0.0897,-0.21618 0.0572,-0.0572 0.13493,-0.089 0.21547,-0.089 0.0812,0 0.15895,0.0318 0.21617,0.089 0.0572,0.0572 0.0897,0.13493 0.0897,0.21618 v 0.7128 c 0,0.0812 -0.0325,0.15895 -0.0897,0.21617 -0.0572,0.0572 -0.13493,0.0897 -0.21617,0.0897 z"
     fill="#323c6b"
     id="path206"
     style="stroke-width:0.706447" />
  <path
     d="m 299.45023,186.55192 c -0.0805,0 -0.15825,-0.0325 -0.21547,-0.0897 -0.0579,-0.0572 -0.0897,-0.13493 -0.0897,-0.21617 v -6.03307 c 0,-0.0812 0.0318,-0.15895 0.0897,-0.21617 0.0572,-0.0572 0.13493,-0.0897 0.21547,-0.0897 0.0812,0 0.15895,0.0325 0.21617,0.0897 0.0572,0.0572 0.0897,0.13493 0.0897,0.21617 v 6.03307 c 0,0.0812 -0.0325,0.15895 -0.0897,0.21617 -0.0572,0.0572 -0.13493,0.0897 -0.21617,0.0897 z"
     fill="#323c6b"
     id="path208"
     style="stroke-width:0.706447" />
  <path
     d="m 282.44957,186.82743 c -0.10173,0 -0.19851,-0.0403 -0.27057,-0.11232 -0.0713,-0.0714 -0.11162,-0.16814 -0.11162,-0.26987 v -0.39137 c 0,-0.10102 0.0403,-0.19851 0.11162,-0.26986 0.0721,-0.0721 0.16884,-0.11233 0.27057,-0.11233 0.10102,0 0.19781,0.0403 0.26986,0.11233 0.0713,0.0713 0.11162,0.16884 0.11162,0.26986 v 0.39137 c 0,0.10173 -0.0403,0.19852 -0.11162,0.26987 -0.072,0.072 -0.16884,0.11232 -0.26986,0.11232 z"
     fill="#ffffff"
     id="path210"
     style="stroke-width:0.706447" />
  <path
     d="m 282.44957,193.1247 c -0.10173,0 -0.19851,-0.0403 -0.27057,-0.11232 -0.0713,-0.0713 -0.11162,-0.16814 -0.11162,-0.26986 v -4.7883 c 0,-0.10103 0.0403,-0.19852 0.11162,-0.26987 0.0721,-0.0713 0.16884,-0.11162 0.27057,-0.11162 0.10102,0 0.19781,0.0403 0.26986,0.11162 0.0713,0.0713 0.11162,0.16884 0.11162,0.26987 v 4.78688 c 7.1e-4,0.0502 -0.009,0.0996 -0.0283,0.14624 -0.0191,0.0466 -0.0473,0.089 -0.0827,0.12504 -0.0353,0.0353 -0.0777,0.0636 -0.12434,0.0827 -0.0466,0.0198 -0.0961,0.0297 -0.14623,0.0297 z"
     fill="#ffffff"
     id="path212"
     style="stroke-width:0.706447" />
  <path
     d="M249.865 282.435L258.284 282.45C258.284 282.45 258.06 285.696 254.364 285.807C249.865 285.918 249.865 282.435 249.865 282.435Z"
     fill="white"
     id="path214" />
  <path
     d="M 660.94327,213.945 H 505.84829 c -14.78612,0 -26.75229,-13.71031 -26.75229,-30.64805 v -61.35861 c 0,-16.93775 11.96617,-30.648054 26.75229,-30.648054 h 155.09498 c 14.78612,0 26.75349,13.710304 26.75349,30.648054 v 61.35861 c 0,16.93774 -11.96737,30.64805 -26.75349,30.64805 z"
     fill="#ffffff"
     id="path222"
     style="stroke-width:1.20203" />
  <path
     d="M537.852 182.105L540.814 254.39L500.543 180.382L537.852 182.105Z"
     fill="white"
     id="path224" />
  <path
     d="m 517.29638,123.77143 c -0.0601,-1.29098 3.96669,-7.31673 7.89851,-8.40937 l -0.17069,3.2659 c 0,0 -3.67339,4.89104 -3.77917,4.94754 -0.10457,0.0565 -3.16493,1.38113 -3.16493,1.38113 z"
     fill="#dae3e6"
     id="path226"
     style="stroke-width:1.20203" />
  <path
     d="m 513.38739,178.30734 c 0.22478,2.02541 -0.91835,6.26255 -0.78732,10.34704 0.11178,3.58324 1.29939,3.77676 1.34867,4.94874 0.0625,1.46046 -0.67434,2.36198 -4.2732,1.91122 -3.59887,-0.45196 -8.88297,0.45557 -9.33373,-0.22478 -0.26205,-0.40268 -0.16468,-1.37151 0.76689,-1.91843 0.64308,-0.37744 1.32583,-0.0854 2.93174,-0.40629 3.93663,-0.78733 5.20838,-1.61192 5.32017,-3.07358 0.11178,-1.46166 -3.50872,-15.51935 -3.50872,-15.51935 z"
     fill="#ffba94"
     id="path228"
     style="stroke-width:1.20203" />
  <path
     d="m 571.11829,172.82851 c 2.28264,2.24298 9.76045,11.36275 12.18133,13.26916 2.26101,1.77779 4.51,3.24066 7.51626,3.82725 3.00627,0.58659 2.6661,0.90633 2.20452,1.56143 -0.46278,0.6551 -2.00137,1.14793 -6.18562,0.28608 -4.18546,-0.86185 -5.77333,0.68756 -6.92968,-0.006 -1.15635,-0.69477 -0.47841,-3.81763 -1.08183,-4.85498 -0.60341,-1.03855 -10.48286,-7.67614 -12.01304,-9.77247 z"
     fill="#ffba94"
     id="path230"
     style="stroke-width:1.20203" />
  <path
     d="m 544.48019,154.72119 c 0,0 5.88031,4.8081 9.30489,7.12441 3.82364,2.58675 8.85893,4.77444 12.90615,7.24701 4.04842,2.47377 6.18442,4.2744 6.18442,4.2744 0,0 -2.24899,7.76028 -8.32163,11.02258 0,0 -5.57138,-2.47377 -7.67733,-4.60977 -2.10595,-2.136 -10.42758,-5.84906 -12.00223,-6.74697 -1.57466,-0.89912 -7.48862,-1.75376 -12.12243,-1.44363 -4.63261,0.30892 -5.98489,0.98205 -9.1342,2.22134 -3.1481,1.23809 -7.53189,3.60367 -7.98145,4.05323 -0.44956,0.44956 -1.34987,3.82244 -1.34987,3.82244 0,0 -5.51129,-0.78732 -9.89628,-4.38499 0,0 0,-7.87327 1.68764,-9.55851 1.68645,-1.68403 12.49266,-5.89834 17.54237,-11.59834 z"
     fill="#f2f2f2"
     id="path232"
     style="stroke-width:1.20203" />
  <path
     fill-rule="evenodd"
     clip-rule="evenodd"
     d="m 553.42206,162.3829 v 0 c -1.73332,-1.17318 -4.07486,-2.9666 -5.97406,-4.45831 -0.95201,-0.74766 -1.79583,-1.4232 -2.40165,-1.91122 -0.30291,-0.24402 -0.54692,-0.44115 -0.71521,-0.57818 -0.0216,-0.018 -0.0421,-0.0349 -0.0613,-0.0505 l -20.34429,1.38834 c -2.60839,2.85601 -6.55705,5.30934 -10.02249,7.2422 -1.15034,0.64188 -2.26582,1.23689 -3.2659,1.76818 -0.54091,0.28849 -1.04817,0.55774 -1.50734,0.80776 -0.66232,0.35941 -1.23088,0.67795 -1.68164,0.95561 -0.46158,0.28488 -0.75968,0.50125 -0.91233,0.65511 -0.28368,0.28247 -0.56856,0.92796 -0.80416,1.898 -0.22718,0.93277 -0.38104,2.04104 -0.48562,3.11685 -0.10337,1.071 -0.15626,2.09393 -0.1815,2.85 -0.0132,0.37744 -0.0204,0.68756 -0.0228,0.90272 0,0.007 -10e-4,0.0156 -10e-4,0.0228 2.05185,1.61913 4.33811,2.62763 6.14836,3.23586 0.93758,0.31493 1.74173,0.52047 2.30789,0.64548 0.119,0.0265 0.22598,0.0493 0.32214,0.0685 0.0926,-0.32214 0.21636,-0.75006 0.3546,-1.19241 0.14304,-0.45437 0.30291,-0.93397 0.45797,-1.33425 0.0769,-0.19954 0.15746,-0.38825 0.238,-0.54812 0.0709,-0.14184 0.17309,-0.32575 0.30892,-0.46158 0.11059,-0.11059 0.28248,-0.23079 0.44715,-0.33777 0.18151,-0.1178 0.4123,-0.25844 0.67915,-0.4135 0.5349,-0.31132 1.23208,-0.69236 2.01219,-1.09745 1.55542,-0.80776 3.46063,-1.71889 5.06413,-2.34996 0.25243,-0.0998 0.49524,-0.19593 0.72963,-0.28848 1.20804,-0.48081 2.21293,-0.87989 3.34524,-1.19241 1.36671,-0.37744 2.9089,-0.62746 5.25286,-0.78372 2.36799,-0.15867 5.0473,-0.0192 7.33355,0.27165 1.14433,0.14545 2.19971,0.33056 3.07479,0.53971 0.85945,0.20315 1.59989,0.44235 2.0783,0.71521 0.37143,0.21156 1.16116,0.60101 2.20812,1.11428 l 0.0337,0.0168 c 1.02773,0.50364 2.27303,1.11548 3.53516,1.76577 1.27655,0.65631 2.57714,1.35589 3.69622,2.02902 1.10467,0.66472 2.08071,1.33185 2.6697,1.92925 0.97605,0.99047 2.81274,2.10235 4.47274,2.98944 0.81738,0.43754 1.56985,0.80896 2.11917,1.07101 0.24281,0.11539 0.44475,0.21035 0.59501,0.27887 2.73461,-1.56504 4.65184,-4.10492 5.90194,-6.32627 0.64309,-1.14312 1.10226,-2.18648 1.39916,-2.94376 0.12862,-0.32695 0.22598,-0.59981 0.2957,-0.80175 -0.0144,-0.012 -0.0289,-0.024 -0.0445,-0.0349 -0.25723,-0.20314 -0.64428,-0.50124 -1.15755,-0.87627 -1.02773,-0.74887 -2.55911,-1.80785 -4.56649,-3.03392 -1.75015,-1.0698 -3.68782,-2.08551 -5.65433,-3.11685 -0.28128,-0.14785 -0.56375,-0.2957 -0.84623,-0.44475 -2.24178,-1.17798 -4.48596,-2.38602 -6.43084,-3.70224 z m 19.45359,10.98411 c 0,0 -2.24899,7.76028 -8.32163,11.02258 0,0 -5.57138,-2.47377 -7.67733,-4.60977 -1.57346,-1.59749 -6.61956,-4.07367 -9.7268,-5.59904 -1.04937,-0.51446 -1.87756,-0.92195 -2.27543,-1.14793 -1.57466,-0.89912 -7.48862,-1.75376 -12.12243,-1.44363 -4.25397,0.28367 -5.74088,0.87507 -8.39375,1.92805 -0.2368,0.0937 -0.48201,0.19232 -0.74045,0.29329 -3.1481,1.23809 -7.53189,3.60367 -7.98145,4.05323 -0.44956,0.44956 -1.34987,3.82244 -1.34987,3.82244 0,0 -5.51129,-0.78732 -9.89628,-4.38499 0,0 0,-7.87327 1.68764,-9.55851 0.56976,-0.56976 2.18408,-1.428 4.26479,-2.53627 4.07246,-2.16846 9.93595,-5.28891 13.27758,-9.06207 l 20.85995,-1.4232 c 0,0 5.88031,4.8081 9.30489,7.12441 2.15162,1.45565 4.68669,2.78509 7.21455,4.10972 1.96291,1.02894 3.92221,2.05667 5.6916,3.13729 4.04842,2.47377 6.18442,4.2744 6.18442,4.2744 z"
     fill="#323c6b"
     id="path234"
     style="stroke-width:1.20203" />
  <path
     d="m 525.19369,115.35484 c 0,0 3.95346,-0.1214 10.00927,-2.41366 6.0558,-2.29227 5.73607,0.24761 11.47093,-0.76449 5.73607,-1.01091 4.94754,-1.79823 0,-2.92333 -4.94634,-1.12389 -3.66618,0.68756 -7.61002,0.32335 -3.94505,-0.36542 -18.28763,1.03494 -19.13145,2.32592 -0.55053,0.84262 -0.69236,6.19884 1.18039,13.04678 l 4.88023,-6.52099 z"
     fill="#ffba94"
     id="path236"
     style="stroke-width:1.20203" />
  <path
     d="m 544.48981,153.05518 c 0,0 0.96042,1.88718 0.62385,2.48579 -0.33777,0.59741 -6.06782,1.5422 -10.29415,1.37031 -4.22632,-0.17189 -10.41074,-0.17189 -11.19807,-0.7717 0,0 -0.11179,-2.05426 1.68764,-3.16974 1.79823,-1.11548 19.18073,0.0853 19.18073,0.0853 z"
     fill="#f7004a"
     id="path238"
     style="stroke-width:1.20203" />
  <path
     d="m 559.57523,137.80147 c 3.04233,-0.36541 6.55225,0.20555 9.728,0.0998 2.98944,-0.0998 4.50159,-0.52528 6.4693,-0.40148 1.60711,0.0962 0.90753,2.20452 4.272,1.72611 3.36447,-0.4772 5.94642,-0.39306 2.59397,0.95682 -1.50493,0.60582 -2.37039,1.69004 -3.89696,1.63115 -1.86915,-0.0685 -3.32962,-1.303 -3.96308,-1.2441 -1.15154,0.10818 -15.20323,2.26822 -15.20323,2.26822 z"
     fill="#ffba94"
     id="path240"
     style="stroke-width:1.20203" />
  <path
     d="m 535.20536,128.77666 c 0.44956,0.51447 4.272,0.95081 8.6594,0.95081 4.38859,0 7.86125,4.41864 11.47213,6.18562 2.47257,1.21164 7.75547,0.97845 7.75547,1.5422 0,0.56255 1.34988,6.32987 -4.94754,10.37829 0,0 -7.75907,-2.1372 -12.14647,-6.29861 0,0 -0.0589,4.94032 -1.50974,11.69571 0,0 -0.47721,1.0121 -5.89353,1.23808 -5.41513,0.22598 -7.66532,-1.34867 -10.13909,-0.78732 -2.47257,0.56134 -3.93543,0.33656 -3.93543,0.33656 0,0 -1.03976,-1.27655 -0.90152,-2.9702 0.45076,-5.53293 -1.779,-15.01571 -3.37289,-19.28891 -2.136,-5.73607 -2.95097,-7.97905 -2.95097,-7.97905 0.45196,-0.0361 0.89551,-0.14544 1.31261,-0.32334 2.69855,-1.10947 6.19885,-5.40551 6.57989,-8.08603 0,0 2.83798,6.9429 3.51232,8.08603 0.67554,1.14312 1.15274,2.66369 3.34884,3.42938 3.24667,1.12149 3.15652,1.89078 3.15652,1.89078 z"
     fill="#f2f2f2"
     id="path242"
     style="stroke-width:1.20203" />
  <path
     fill-rule="evenodd"
     clip-rule="evenodd"
     d="m 534.54184,128.86201 c -0.024,-0.0289 -0.0637,-0.0697 -0.1226,-0.12021 -0.29089,-0.25362 -0.99047,-0.69356 -2.58195,-1.24409 h -0.001 c -2.10594,-0.73324 -2.85601,-2.15043 -3.41255,-3.19859 -0.0974,-0.18391 -0.18871,-0.357 -0.28127,-0.51327 -0.36542,-0.61904 -1.26453,-2.69494 -2.04825,-4.54846 -0.29811,-0.70559 -0.58419,-1.39075 -0.82579,-1.97133 -0.4748,1.05538 -1.19241,2.15524 -1.99897,3.14571 -1.28858,1.58306 -2.91852,3.0279 -4.41144,3.64334 -0.22358,0.095 -0.45316,0.17189 -0.68635,0.23199 0.10217,0.28127 0.23679,0.64789 0.40628,1.10706 0.47119,1.27776 1.20804,3.27071 2.27543,6.13755 0.81257,2.17927 1.7778,5.65312 2.48219,9.27483 0.70439,3.61329 1.16236,7.43693 0.92916,10.29415 -0.0565,0.70318 0.12982,1.33184 0.34258,1.79823 0.0962,0.20915 0.19353,0.37984 0.27166,0.50244 0.15626,0.01 0.38104,0.0168 0.66833,0.0108 0.63466,-0.0132 1.57465,-0.0926 2.76586,-0.36301 1.31261,-0.2981 2.56512,-0.0565 3.96067,0.21156 0.0901,0.0168 0.18031,0.0336 0.27046,0.0517 1.53138,0.2921 3.39091,0.61785 6.02455,0.50846 2.67691,-0.11179 4.07847,-0.4159 4.78887,-0.66712 0.29089,-0.10218 0.45437,-0.19233 0.53731,-0.24762 0.69357,-3.26831 1.05778,-6.09668 1.2477,-8.11728 0.0974,-1.03014 0.14905,-1.84872 0.1767,-2.40886 0.0144,-0.28007 0.0216,-0.49524 0.0264,-0.63948 0.002,-0.0721 0.004,-0.12621 0.004,-0.16227 l 10e-4,-0.0397 v -0.01 l -0.20795,-0.63467 m 0.82579,1.49051 c 0.0276,-0.55173 0.03,-0.84983 0.03,-0.84983 0.20435,0.19232 0.4147,0.38104 0.63227,0.56615 4.45831,3.78878 11.5142,5.73246 11.5142,5.73246 5.73126,-3.68421 5.12905,-8.79041 4.97399,-10.10543 -0.0156,-0.12982 -0.0265,-0.22238 -0.0265,-0.27286 0,-0.24401 -0.98566,-0.33777 -2.30428,-0.46518 -1.73573,-0.16709 -4.04722,-0.38946 -5.45119,-1.07702 -1.26453,-0.61904 -2.51223,-1.56263 -3.78758,-2.52786 -2.36799,-1.79222 -4.83215,-3.65776 -7.68455,-3.65776 -4.3874,0 -8.20984,-0.43634 -8.6594,-0.95081 0,0 0.0901,-0.76929 -3.15652,-1.89078 -1.84871,-0.64429 -2.47978,-1.82348 -3.03511,-2.86323 -0.10458,-0.19473 -0.20675,-0.38465 -0.31373,-0.56615 -0.51206,-0.86907 -2.27544,-5.08938 -3.09161,-7.06431 -0.25723,-0.62265 -0.42071,-1.02172 -0.42071,-1.02172 -0.0469,0.32575 -0.13944,0.67674 -0.27166,1.04336 -0.952,2.63724 -3.93904,6.06782 -6.30823,7.04267 -0.21396,0.0913 -0.43513,0.16467 -0.66111,0.21877 -0.21396,0.0517 -0.43153,0.0865 -0.6515,0.10457 0,0 0.0721,0.19834 0.22959,0.62866 0.37262,1.01571 1.22125,3.3212 2.72138,7.35039 1.59389,4.2732 3.82365,13.75598 3.37289,19.28891 -0.13824,1.69365 0.90152,2.9702 0.90152,2.9702 0,0 1.46286,0.22478 3.93543,-0.33656 1.17558,-0.26685 2.30068,-0.0517 3.7395,0.22357 1.58788,0.30412 3.558,0.68155 6.39959,0.56375 5.41632,-0.22598 5.89353,-1.23808 5.89353,-1.23808 1.09384,-5.09299 1.39675,-9.15583 1.47969,-10.84588 z m 0.66232,-1.18881 c 13.84253,9.30969 11.5142,5.57139 15.71649,0 0.33656,-1.50854 0.20674,-2.66489 0.13342,-3.31639 -0.001,-0.0108 -0.002,-0.0216 -0.004,-0.0337 -0.0877,-0.018 -0.20073,-0.0373 -0.34017,-0.0577 -0.37263,-0.0529 -0.84623,-0.0986 -1.39435,-0.15145 -0.21156,-0.0204 -0.43393,-0.0409 -0.66472,-0.0649 -1.6047,-0.16108 -3.66618,-0.40989 -5.02687,-1.07702 -0.95561,-0.46759 -1.88718,-1.10346 -2.79712,-1.77179 -0.37743,-0.27766 -0.74525,-0.55653 -1.11187,-0.833 -0.5361,-0.40628 -1.0686,-0.80896 -1.62394,-1.20323 -1.85232,-1.31381 -3.67459,-2.31149 -5.65312,-2.31149 -2.21173,0 -4.28883,-0.10939 -5.87791,-0.28608 -0.79213,-0.0877 -1.47729,-0.19473 -2.00137,-0.31614 -0.26204,-0.0601 -0.49884,-0.12741 -0.69598,-0.20434 -0.17189,-0.0673 -0.40748,-0.1767 -0.57216,-0.36542 l -0.18992,-0.21636 0.0144,-0.12501"
     fill="#352e73"
     id="path244"
     style="stroke-width:1.20203" />
  <path
     d="m 537.94718,136.86269 c -1.31261,-1.08663 -4.90066,-8.20503 -4.90066,-8.20503 l 2.15524,0.1166 5.05091,0.84983 1.01571,1.67563 -2.3728,5.56297 z"
     fill="#ffba94"
     id="path246"
     style="stroke-width:1.20203" />
  <path
     d="m 539.65767,128.77426 c 2.00498,0.56135 2.30188,0.78733 2.30188,0.78733 0,0 -0.25243,5.67476 -2.24539,8.29638 l -1.76818,-0.99408 c 0,0 2.91732,-4.17944 2.3151,-6.13393 z"
     fill="#c2d1d6"
     id="path248"
     style="stroke-width:1.20203" />
  <path
     d="m 545.93825,146.47289 c 0,-0.001 0,-0.004 0,-0.006 -0.42792,-1.37272 -2.7274,-5.82863 -6.21928,-8.60891 -3.49189,-2.78029 -6.29862,-9.17266 -6.29862,-9.17266 l 1.10226,-0.67674 0.03,-0.0192 -0.77651,-1.18159 h -0.81858 c -0.24761,0.0216 -0.48922,0.0865 -0.714,0.19352 -0.58298,0.32335 -2.13239,0.85825 -2.38602,1.02773 -0.0433,0.0289 5.42474,8.63055 8.77479,11.37477 3.53636,2.89568 6.65441,7.40929 6.67244,9.49481 0,0 0,0.007 0,0.012 0,0.004 1.05658,-1.07221 0.63347,-2.43771 z"
     fill="#e7e8e9"
     id="path250"
     style="stroke-width:1.20203" />
  <path
     d="m 533.18716,123.44688 c 0.42191,1.43282 0.63106,4.41865 0.2356,5.23843 -0.13703,0.28728 2.01099,2.03623 4.0953,2.44853 1.41959,0.28247 2.67571,0.2392 2.74783,-0.40388 0.0673,-0.60943 -1.12149,-2.47738 -0.57938,-3.06397 0.54092,-0.58659 -5.66875,-4.19146 -5.66875,-4.19146 z"
     fill="#ffba94"
     id="path252"
     style="stroke-width:1.20203" />
  <g
     style="mix-blend-mode:multiply"
     opacity="0.3"
     id="g256"
     transform="matrix(1.2020258,0,0,1.2020258,-96.789757,-43.222412)">
    <path
       d="m 529.483,143.089 c -0.109,-0.385 -0.155,-0.733 0.02,-0.922 0.449,-0.487 -4.716,-3.487 -4.716,-3.487 l -0.691,-0.023 c 0.142,0.535 0.239,1.08 0.289,1.631 v 0.006 c 0.023,0.218 0.041,0.445 0.053,0.668 0.335,0.935 1.839,1.977 5.045,2.127 z"
       fill="#face94"
       id="path254" />
  </g>
  <path
     d="m 542.30573,116.76843 c 0.51927,0.51566 2.38963,0.64669 2.45814,1.7225 0,0 0.44355,-0.25002 0.46999,-0.54452 0.0264,-0.29329 -0.13102,-1.56504 -0.27887,-2.1937 -0.14664,-0.62866 -1.23928,-1.61913 -2.00017,-2.52425 -0.76088,-0.90633 -2.731,-1.65639 -4.22512,-2.24178 -1.49532,-0.58539 -4.96316,-0.1803 -5.97647,1.89079 0,0 -2.38362,0.46518 -2.81514,3.42577 -0.43153,2.96179 0.96883,6.44406 2.13479,7.64729 1.16477,1.20443 2.21293,0.99047 2.21293,0.99047 0,0 4.88143,-6.93449 4.96918,-7.01022 0.0889,-0.0757 3.05074,-1.16235 3.05074,-1.16235 z"
     fill="#0e2e35"
     id="path258"
     style="stroke-width:1.20203" />
  <path
     d="m 535.43014,122.17874 c -0.51086,-0.69116 -1.37632,-1.19241 -1.96771,-0.69357 -0.5914,0.49885 -0.61304,1.20323 -0.26926,1.96772 0.71881,1.59148 1.70568,1.95089 2.26101,1.8367 0,0 0.12381,0.97364 1.20323,1.68644 1.07942,0.7128 3.98952,2.08551 4.84296,2.11797 0.85464,0.0325 1.37272,-0.69237 1.38954,-1.31261 0.0168,-0.61905 0.36662,-0.44596 0.64549,-0.84743 0.28007,-0.40148 -0.0709,-0.56255 -0.0709,-0.56255 0,0 0.5914,-0.13944 0.49764,-0.36542 -0.0926,-0.22478 -0.31493,-0.86305 -0.119,-0.97484 0.19473,-0.11059 0.99167,-0.27647 0.84743,-0.74405 -0.14424,-0.46639 -0.87508,-1.64197 -0.80295,-2.255 0.0721,-0.61304 0.76088,-1.13111 0.88469,-1.43522 0.1226,-0.30532 0.095,-2.04825 -0.13102,-2.85962 0,0 -1.31262,-2.48098 -4.85499,-0.7729 -3.54357,1.70807 -4.35614,5.21438 -4.35614,5.21438 z"
     fill="#ffba94"
     id="path260"
     style="stroke-width:1.20203" />
  <path
     d="m 545.11486,155.53857 c 0.1755,-0.31013 0,-0.96403 -0.20795,-1.52417 -0.006,0 -3.6217,1.41478 -5.51129,1.37271 0,0 1.89079,0.28608 5.08818,-0.67313 0,0 -1.49171,3.18296 -20.86356,1.4244 0.78732,0.59981 6.97295,0.59981 11.19807,0.7717 4.22512,0.17189 9.95878,-0.7717 10.29655,-1.37151 z"
     fill="#b5107d"
     id="path262"
     style="stroke-width:1.20203" />
  <path
     d="m 534.33269,156.63962 c 2.136,4.85498 2.48339,26.03708 2.82717,25.94693 0.34378,-0.0889 2.79831,-4.61458 2.82957,-5.06173 0.0312,-0.44715 -2.50142,-18.8694 -3.95828,-20.86356 -1.45565,-1.99416 -1.69846,-0.0216 -1.69846,-0.0216 z"
     fill="#ea1b66"
     id="path264"
     style="stroke-width:1.20203" />
  <path
     d="m 531.21464,156.72256 c -1.0097,0.93157 -2.05907,19.5209 -2.38001,20.98136 -0.31974,1.46046 2.97261,3.37409 2.97261,3.37409 0,0 -0.29931,-22.45985 1.22125,-24.8002 z"
     fill="#f7004a"
     id="path266"
     style="stroke-width:1.20203" />
  <path
     d="m 535.02506,159.07853 c 1.57465,3.62651 2.89327,21.14724 2.89327,21.14724 0,0 1.09986,-1.29578 2.0735,-2.70215 -0.0312,0.44715 -2.48579,4.97278 -2.82957,5.06173 -0.30291,0.0829 -0.59019,-15.91603 -2.1372,-23.50682 z"
     fill="#af0f5c"
     id="path268"
     style="stroke-width:1.20203" />
  <path
     d="m 530.0631,163.79168 c 0,0.13102 -0.65631,13.69107 -0.65631,14.01441 0,0.32455 1.69486,2.21774 2.35236,2.08311 0.0289,0.74766 0.0481,1.18881 0.0481,1.18881 0,0 -3.29115,-1.91242 -2.97261,-3.37409 0.19593,-0.8919 0.66231,-8.16897 1.22847,-13.91224 z"
     fill="#c6145c"
     id="path270"
     style="stroke-width:1.20203" />
  <path
     d="m 545.06318,118.3539 c 0,0 0.19833,0.0445 0.2416,1.87396 0.0313,1.30179 -0.30531,2.60358 -0.5938,3.87052 -0.43633,1.87877 -1.05658,3.82725 -2.58676,5.1038 -0.80415,0.66953 -4.2732,-1.38473 -5.11822,-3.01588 -0.83902,-1.63836 -0.49644,-4.79368 0.714,-6.37074 1.19602,-1.58667 6.96574,-2.1937 7.34318,-1.46166 z"
     fill="#ffba94"
     id="path272"
     style="stroke-width:1.20203" />
  <path
     d="m 544.77349,117.89833 c -0.13463,-0.75848 -0.90032,-1.0686 -1.54941,-1.85953 0,0 -0.13463,1.30059 -1.86194,1.81265 -2.64566,0.78733 -5.89474,2.3752 -6.17601,3.72868 0,0 -0.84743,-4.00515 0.71521,-5.74928 1.56263,-1.74414 4.75882,-2.49301 6.33227,-2.36199 1.57345,0.13103 2.75624,2.82356 2.75624,2.82356 z"
     fill="#0e2e35"
     id="path274"
     style="stroke-width:1.20203" />
  <path
     d="m 581.84276,115.68901 c -3.9751,-2.75505 -9.78569,-5.96325 -8.86854,-7.03306 0.91714,-1.0686 3.67339,-2.1408 5.65793,-1.22366 1.98334,0.91715 2.75504,2.71057 4.12896,3.95587 1.37392,1.2453 2.9053,2.62402 2.9053,2.62402 z"
     fill="#f8b785"
     id="path276"
     style="stroke-width:1.20203" />
  <path
     d="m 616.68829,189.12197 c 0.44355,1.33424 -0.68756,4.44388 0.54452,5.18433 1.23207,0.74045 3.00746,1.33305 5.00884,2.66489 2.00137,1.33185 7.32755,2.0747 5.55215,0 -1.77539,-2.07469 -5.77453,-4.59294 -6.95492,-7.84922 -1.18039,-3.25629 -4.15059,0 -4.15059,0 z"
     fill="#f8b785"
     id="path278"
     style="stroke-width:1.20203" />
  <path
     d="m 618.84592,132.97534 -34.87557,-21.58117 c 0,0 -3.54237,4.25757 -4.04722,4.95956 0,0 17.54356,14.35339 21.4225,17.5652 3.87774,3.21181 8.77118,8.59208 9.78329,10.36627 1.0109,1.77419 1.85593,11.3928 2.02421,13.5865 0.16828,2.19249 1.85593,31.54356 1.85593,31.54356 0,0 5.05812,2.02541 8.17978,0 0,0 0.42432,-25.98059 0.92917,-28.16948 0.50485,-2.18888 2.05306,-10.39511 2.05306,-10.39511 l -6.62917,-17.04593 c -0.13583,-0.34498 -0.37984,-0.63587 -0.69598,-0.8294 z"
     fill="#f2f2f2"
     id="path280"
     style="stroke-width:1.20203" />
  <path
     fill-rule="evenodd"
     clip-rule="evenodd"
     d="m 618.50695,133.52827 -0.002,-0.001 -34.39597,-21.28547 c -0.0601,0.0733 -0.12741,0.15506 -0.20074,0.24281 -0.33897,0.40989 -0.79694,0.96282 -1.27174,1.53859 -0.68275,0.8294 -1.38353,1.68644 -1.81506,2.22855 l 2.3139,1.8932 c 1.70567,1.39675 4.01957,3.29114 6.45488,5.2853 4.87061,3.98953 10.22804,8.38173 12.16931,9.98884 1.96771,1.62994 4.18064,3.7996 6.02696,5.78054 1.82948,1.96171 3.35725,3.80201 3.90538,4.76483 0.16828,0.2945 0.30892,0.70318 0.43273,1.15154 0.12621,0.46038 0.24761,1.0097 0.3606,1.61192 0.22839,1.20443 0.43634,2.65768 0.61544,4.11333 0.36061,2.91491 0.61544,5.87791 0.69958,6.98016 0.0841,1.10466 0.54933,9.00077 0.99167,16.60719 0.22117,3.80562 0.43754,7.54392 0.59861,10.32901 0.0805,1.39315 0.14665,2.54829 0.19353,3.35606 l 0.0481,0.83781 c 0.11299,0.0373 0.24882,0.0817 0.40388,0.12861 0.50245,0.15146 1.20082,0.33417 1.99055,0.45437 1.49893,0.22959 3.1998,0.21997 4.52082,-0.49163 0.002,-0.18631 0.007,-0.44234 0.0132,-0.75848 0.012,-0.7152 0.0313,-1.73933 0.0541,-2.97501 0.0481,-2.47016 0.11659,-5.78776 0.20194,-9.17386 0.0841,-3.38491 0.18511,-6.84193 0.29569,-9.59097 0.0553,-1.37391 0.1142,-2.57353 0.1743,-3.5015 0.0589,-0.90272 0.1226,-1.60711 0.19953,-1.94247 0.25003,-1.08062 0.76089,-3.66618 1.21165,-5.99571 0.22478,-1.16235 0.43393,-2.255 0.58779,-3.05795 0.0757,-0.40148 0.13823,-0.73083 0.1815,-0.95922 l 0.0337,-0.17429 -6.56066,-16.87043 c 0,-10e-4 -10e-4,-10e-4 -10e-4,-10e-4 -0.0841,-0.21396 -0.2356,-0.39307 -0.43153,-0.51327 z m 1.03495,0.27647 6.62917,17.04593 c 0,0 -1.54821,8.20623 -2.05306,10.39511 -0.50485,2.18889 -0.92917,28.16948 -0.92917,28.16948 -3.12166,2.02541 -8.17978,0 -8.17978,0 0,0 -1.68765,-29.35107 -1.85593,-31.54356 -0.16828,-2.1937 -1.01331,-11.81231 -2.02421,-13.5865 -1.01211,-1.77419 -5.90555,-7.15446 -9.78329,-10.36627 -3.87894,-3.21181 -21.41409,-17.55799 -21.4225,-17.5652 0.50485,-0.70199 4.04722,-4.95956 4.04722,-4.95956 l 34.87557,21.58117 c 0.31614,0.19353 0.56015,0.48442 0.69598,0.8294 z"
     fill="#352e73"
     id="path282"
     style="stroke-width:1.20203" />
  <path
     d="m 621.68631,131.45718 c -2.08191,0.33777 -3.90899,1.43402 -3.90899,3.48227 0,1.34747 1.39556,10.45642 2.69014,12.8184 1.29338,2.36198 3.96668,5.48725 9.05366,3.22384 z"
     fill="#2d2861"
     id="path284"
     style="stroke-width:1.20203" />
  <path
     d="m 652.11559,127.95808 c 0.81378,1.82107 2.90891,5.56659 2.90891,6.98137 0,0.86305 -12.61406,8.37692 -14.25122,9.16304 -1.63836,0.78613 -9.73521,8.88297 -12.9915,6.4092 -3.25508,-2.47256 -9.5585,-9.33252 -7.30951,-18.78045 0,0 2.81033,-0.49523 8.09684,-2.493 5.28771,-1.99897 9.88426,-8.18579 9.88426,-8.18579 0,0 4.25277,1.56022 6.4056,2.74783 2.15282,1.1876 7.25662,4.1578 7.25662,4.1578 z"
     fill="#f2f2f2"
     id="path286"
     style="stroke-width:1.20203" />
  <path
     fill-rule="evenodd"
     clip-rule="evenodd"
     d="m 620.47227,131.73124 c -2.24899,9.44793 4.05443,16.30789 7.30951,18.78045 2.46536,1.87276 7.70499,-2.3139 10.81583,-4.79848 0.99889,-0.79815 1.7778,-1.4196 2.17567,-1.61072 1.63716,-0.78612 14.25122,-8.29999 14.25122,-9.16304 0,-1.04696 -1.14794,-3.37048 -2.0747,-5.24564 -0.32455,-0.65871 -0.62265,-1.26213 -0.83421,-1.73573 0,0 -5.1038,-2.9702 -7.25662,-4.1578 -2.15283,-1.18761 -6.4056,-2.74783 -6.4056,-2.74783 0,0 -4.59655,6.18682 -9.88426,8.18579 -5.28651,1.99777 -8.09684,2.493 -8.09684,2.493 z m 18.19987,-9.90469 c 0.0745,0.0289 0.15746,0.0601 0.24762,0.0938 0.43032,0.16347 1.02412,0.39426 1.68524,0.66231 1.33184,0.53731 2.90169,1.21165 3.94144,1.78501 1.0698,0.5902 2.87885,1.62755 4.42466,2.51825 0.7717,0.44595 1.47608,0.85344 1.98815,1.15034 0.25603,0.14905 0.46278,0.26925 0.60702,0.35219 l 0.0445,0.0264 c 0.19954,0.43273 0.45317,0.9472 0.72122,1.49052 l 0.0361,0.0745 c 0.30171,0.60943 0.62265,1.25852 0.91955,1.8956 0.31012,0.66351 0.58779,1.30179 0.78733,1.85232 0.16588,0.45917 0.25843,0.81137 0.28969,1.05177 -0.0649,0.0673 -0.16348,0.15747 -0.30051,0.27046 -0.32575,0.27165 -0.80656,0.62625 -1.40517,1.04215 -1.19481,0.8282 -2.81274,1.86675 -4.48836,2.9065 -3.36447,2.08912 -6.89723,4.14459 -7.67854,4.51842 -0.27286,0.13102 -0.62746,0.38464 -1.0061,0.67073 -0.36902,0.28127 -0.80776,0.63106 -1.28977,1.01571 l -0.0902,0.0733 c -1.04215,0.8318 -2.29226,1.82708 -3.58924,2.71898 -1.303,0.89551 -2.61321,1.66 -3.77076,2.05547 -1.17919,0.40147 -2.02061,0.36301 -2.57113,-0.0553 -3.13609,-2.38241 -9.05246,-8.85051 -7.16287,-17.71425 0.0385,-0.008 0.0805,-0.0168 0.1238,-0.0264 0.3558,-0.0805 0.88229,-0.20675 1.57346,-0.39667 1.38353,-0.37864 3.42697,-1.0085 6.08946,-2.0146 2.77187,-1.04816 5.32137,-3.17094 7.15205,-4.9884 0.92196,-0.91475 1.67442,-1.76578 2.19731,-2.38843 0.21516,-0.25483 0.39065,-0.4724 0.52408,-0.64068 z"
     fill="#352e73"
     id="path288"
     style="stroke-width:1.20203" />
  <path
     d="m 643.32037,126.93516 -4.87181,6.98377 10.89637,-4.27921 1.91602,-2.1336 -2.78629,-0.9496 z"
     fill="#f8b785"
     id="path290"
     style="stroke-width:1.20203" />
  <path
     d="m 650.86549,124.30994 c 0.0865,-1.0037 3.88855,-1.87516 4.867,-6.05701 0.97845,-4.18185 0,-6.91045 -2.00257,-8.57285 -2.21173,-1.8367 -8.50193,-1.27415 -10.22444,1.69245 z"
     fill="#2d2861"
     id="path292"
     style="stroke-width:1.20203" />
  <path
     d="m 638.44856,133.91893 7.40328,-8.75796 -3.53035,-2.28505 -5.46681,11.6284 z"
     fill="#c1d0d5"
     id="path294"
     style="stroke-width:1.20203" />
  <path
     d="m 642.35755,112.82097 c -0.24642,-0.5385 0.91835,-2.28385 2.85481,-3.06396 1.93767,-0.78132 -2.74182,3.36687 -2.74182,3.36687 z"
     fill="#2d2861"
     id="path296"
     style="stroke-width:1.20203" />
  <path
     d="m 644.30123,124.20897 c 0.7765,0.13102 0.7164,2.61801 -0.73204,3.64935 0,0 1.37392,0.90873 2.85601,0.91834 1.84632,0 5.35263,0.31734 4.6819,-2.6745 -0.0649,-0.2945 -0.38585,-2.01099 -0.30051,-3.22264 0.14304,-2.03142 2.28024,-4.59294 -1.99296,-3.96307 -4.69271,0.69116 -4.5124,5.29252 -4.5124,5.29252 z"
     fill="#f8b785"
     id="path298"
     style="stroke-width:1.20203" />
  <g
     style="mix-blend-mode:multiply"
     opacity="0.3"
     id="g302"
     transform="matrix(1.2020258,0,0,1.2020258,-96.789757,-43.222412)">
    <path
       d="m 621.729,136.577 c 0,0 -3.329,2.448 -4.859,3.095 0.143,0.437 0.085,1.178 -0.241,1.819 5.495,0.024 5.1,-4.914 5.1,-4.914 z"
       fill="#f8b785"
       id="path300" />
  </g>
  <path
     d="m 649.79929,122.09941 c 0.0457,2.56392 -4.40422,3.01829 -6.40079,3.06156 -2.06748,0.0433 -2.23096,-0.66472 -2.06267,-1.34988 0.16708,-0.68515 -0.0144,-1.07461 -0.34979,-1.12629 -0.33417,-0.0505 -0.0505,-0.0541 -0.14905,-0.8895 0,0 -0.19714,-0.4748 -0.0986,-0.83541 0.0986,-0.36181 -0.0529,-0.82219 -0.0529,-0.82219 0.55293,-0.46037 0.60101,-0.34257 0.30051,-0.74886 -0.30051,-0.40628 -0.1755,-0.42191 0.23199,-1.1287 0.40628,-0.70799 0.40989,-1.065 0.37744,-1.75977 -0.0325,-0.69357 -0.19473,-1.2453 0.35099,-2.74302 0.54692,-1.49893 1.75616,-2.72018 2.48338,-3.06516 0.72723,-0.34499 4.42346,0.33536 5.44758,2.15403 1.02533,1.81866 0.40148,5.96926 0.40148,5.96926 0,0 0.63587,-0.93037 1.57465,-0.21998 0.61784,0.46639 -0.0457,1.73573 -0.31493,2.38122 -0.26925,0.64549 -0.26204,1.43281 -1.11908,1.4821 -0.63708,0.0361 -0.62025,-0.35941 -0.62025,-0.35941 z"
     fill="#f8b785"
     id="path304"
     style="stroke-width:1.20203" />
  <path
     d="m 655.17235,111.81488 c -0.20435,-0.42672 -0.63948,-2.50382 2.47737,-3.20701 3.11685,-0.70318 6.63398,1.99537 5.68679,4.38018 -0.9472,2.38603 -1.13472,6.61836 1.4845,6.85876 2.61921,0.24041 1.31141,3.21422 -1.31261,4.79849 -2.62403,1.58547 0.43393,3.72628 0.43393,3.72628 0,0 -3.88375,0.54452 -4.11574,-1.03494 -0.34378,-2.33314 2.54108,-4.12536 0.94359,-5.08818 -1.59869,-0.96282 -3.66377,-1.56864 -3.73229,-2.29106 -0.0685,-0.72362 1.80304,-10.00927 -1.53859,-7.3588 z"
     fill="#2d2861"
     id="path306"
     style="stroke-width:1.20203" />
  <path
     d="m 643.49587,111.37133 c 0,0 -0.0385,1.21885 1.94247,2.56873 1.98094,1.34867 4.81291,3.48708 4.84176,4.87421 0,0 2.71418,-2.06989 1.96772,-4.73117 -0.74526,-2.66249 -7.01983,-4.12415 -7.01983,-4.12415 l -1.19722,0.87868 z"
     fill="#2d2861"
     id="path308"
     style="stroke-width:1.20203" />
  <path
     d="m 638.44736,121.04884 c -2.01099,-0.33657 -17.86571,0.13102 -19.70721,1.82588 -2.65888,2.44732 0.80415,6.65321 2.94616,8.58246 2.14081,1.92925 15.16837,-6.24693 15.16837,-6.24693 z"
     fill="#f2f2f2"
     id="path310"
     style="stroke-width:1.20203" />
  <path
     fill-rule="evenodd"
     clip-rule="evenodd"
     d="m 619.17889,123.35192 c -0.5289,0.48682 -0.74045,1.03735 -0.75247,1.63836 -0.0132,0.62385 0.19232,1.33185 0.56615,2.07951 0.75007,1.49772 2.08672,2.9678 3.12767,3.90538 0.0649,0.0601 0.27527,0.15626 0.78733,0.1202 0.48562,-0.0337 1.11187,-0.1767 1.85112,-0.4171 1.47368,-0.47961 3.26711,-1.3018 5.01966,-2.19851 1.74654,-0.8943 3.43058,-1.84871 4.67949,-2.58195 0.62385,-0.36541 1.13711,-0.67554 1.49532,-0.8931 0.15506,-0.095 0.28127,-0.1731 0.37383,-0.22959 l 1.20683,-3.15051 c -0.64909,-0.0277 -1.59509,-0.0373 -2.74663,-0.0228 -1.78741,0.0228 -4.00395,0.10217 -6.21567,0.24521 -2.21414,0.14305 -4.40904,0.34859 -6.15798,0.62025 -0.87628,0.13703 -1.62514,0.28849 -2.20332,0.45196 -0.61183,0.1743 -0.92435,0.33416 -1.03133,0.43273 z m 18.59774,-2.36438 c -3.63012,-0.19834 -17.33321,0.31973 -19.03648,1.88718 -2.65888,2.44732 0.80415,6.65321 2.94616,8.58246 2.14081,1.92925 15.16837,-6.24693 15.16837,-6.24693 l 1.59268,-4.16141 c -0.15025,-0.0252 -0.37744,-0.0457 -0.67073,-0.0613 z"
     fill="#352e73"
     id="path312"
     style="stroke-width:1.20203" />
  <path
     d="m 651.1107,126.09735 c 0.15025,1.40997 -1.76457,3.54357 -1.76457,3.54357 l -10.24727,4.04001 -3.43419,1.25972 c 0,0 14.2404,-1.76818 15.13831,-2.18408 0.89671,-0.4159 1.80184,-4.30926 1.84511,-4.72396 0.0433,-0.4135 -1.53739,-1.93526 -1.53739,-1.93526 z"
     fill="#c1d0d5"
     id="path314"
     style="stroke-width:1.20203" />
  <path
     d="m 632.72692,139.49032 c 0.47961,-0.77891 1.74414,-1.2429 2.62522,-1.32704 0.87989,-0.0829 4.88984,-1.78621 5.41753,-1.4833 0,0 -3.43539,4.01357 -3.68901,4.01357 h -3.28875 z"
     fill="#dae3e6"
     id="path316"
     style="stroke-width:1.20203" />
  <path
     d="m 655.0245,134.93945 c 1.20443,1.51575 -7.88289,16.69734 -8.96231,17.82244 -1.08062,1.12629 -3.39091,2.59637 -9.20751,-5.67477 z"
     fill="#f2f2f2"
     id="path318"
     style="stroke-width:1.20203" />
  <path
     fill-rule="evenodd"
     clip-rule="evenodd"
     d="m 655.05695,134.98873 c -0.01,-0.018 -0.0204,-0.0349 -0.0325,-0.0493 l -18.16982,12.14767 c 0.12741,0.18031 0.25242,0.357 0.37623,0.52889 5.54134,7.67734 7.7747,6.24813 8.83128,5.14588 0.98206,-1.02413 8.59689,-13.68988 9.05006,-17.10243 0.0409,-0.2993 0.0252,-0.52889 -0.0553,-0.67073 z m -0.72001,1.19001 -16.56752,11.07667 c 2.68773,3.71906 4.50519,5.15188 5.68798,5.58461 0.589,0.21516 1.00249,0.17429 1.30661,0.0649 0.32214,-0.1178 0.58779,-0.33777 0.83059,-0.5914 0.0865,-0.0901 0.31373,-0.39787 0.67194,-0.93638 0.34378,-0.51807 0.77771,-1.20202 1.26813,-2.00017 0.97966,-1.59749 2.17327,-3.63853 3.29596,-5.69159 1.1251,-2.05546 2.16966,-4.10852 2.85601,-5.73246 0.2945,-0.69597 0.51567,-1.29579 0.6503,-1.77419 z"
     fill="#352e73"
     id="path320"
     style="stroke-width:1.20203" />
  <path
     d="m 639.73233,137.79306 c 0.21756,-4.05443 -3.74672,-3.92101 -5.43797,-1.96892 -0.78733,0.87868 0.0938,2.38722 0.32335,2.23096 1.15995,-0.78733 0.2428,-1.38594 0.86666,-1.14313 0.0721,0.0325 0.13703,0.0793 0.19112,0.13703 0.0529,0.0589 0.0938,0.12742 0.1202,0.20195 0.13102,0.6563 -0.71761,1.74413 -0.10337,2.40284 0,0.005 3.82124,2.1949 4.04001,-1.86073 z"
     fill="#f8b785"
     id="path322"
     style="stroke-width:1.20203" />
  <path
     d="m 634.86532,130.5172 c 0.13102,0.58779 -4.42706,7.44775 -7.19773,6.1135 -2.19009,-1.04937 1.27896,-5.75049 1.27896,-5.75049 z"
     fill="#dae3e6"
     id="path324"
     style="stroke-width:1.20203" />
  <path
     d="m 628.95256,133.60881 c 0.29449,0.84983 1.65158,0.60942 2.17206,1.03374 0.50004,0.40869 -0.40629,2.21293 0.55654,1.99416 2.52064,-0.57817 4.48836,-4.01837 0.81497,-5.72405 -3.67459,-1.70567 -3.54357,2.69615 -3.54357,2.69615 z"
     fill="#f8b785"
     id="path326"
     style="stroke-width:1.20203" />
  <path
     d="m 643.49707,143.11563 c -0.81257,-1.75255 -1.46647,-4.41504 -2.01339,-5.51129 -0.39427,-0.78733 -0.65631,-0.81497 -0.7092,-0.91835 -0.28848,-0.56375 -4.4487,3.93664 -8.04756,2.81034 0,0 1.98815,4.78887 4.13016,7.5956 5.8166,8.26753 8.11007,6.78183 9.20752,5.67597 0.99287,-1.00249 -0.91474,-6.09548 -2.56753,-9.65227 z"
     fill="#e0e3e6"
     id="path328"
     style="stroke-width:1.20203" />
  <path
     fill-rule="evenodd"
     clip-rule="evenodd"
     d="m 633.05147,140.24399 c -0.20795,-0.46639 -0.32455,-0.74766 -0.32455,-0.74766 0.25603,0.0793 0.51447,0.13102 0.7729,0.15867 2.24418,0.23319 4.58092,-1.3655 5.98609,-2.32713 0.72242,-0.49403 1.19842,-0.81978 1.28857,-0.64188 0.0144,0.0276 0.0433,0.0493 0.0853,0.0817 0.11659,0.0901 0.33416,0.25844 0.62385,0.83661 0.25603,0.51447 0.5361,1.37392 0.84622,2.32231 0.34859,1.07221 0.73564,2.25861 1.16717,3.18898 1.65279,3.55679 3.5604,8.64978 2.56753,9.65227 -1.09745,1.10586 -3.39092,2.59156 -9.20752,-5.67597 -1.62274,-2.12638 -3.15652,-5.38988 -3.80561,-6.84794 z m 0.74645,0.0805 c 0.20435,0.44955 0.46639,1.0121 0.7717,1.62994 0.76089,1.5398 1.77059,3.39212 2.80193,4.7444 l 0.008,0.0108 0.007,0.01 c 2.89929,4.12055 4.82974,5.66635 6.06542,6.11591 0.58659,0.21396 1.00249,0.1755 1.30901,0.0649 0.32455,-0.1166 0.5926,-0.33657 0.84262,-0.58899 -10e-4,0.001 -10e-4,0.001 -10e-4,0.001 0,0 0.0385,-0.0469 0.0637,-0.20675 0.0276,-0.16588 0.0324,-0.40027 0.002,-0.70679 -0.0589,-0.61183 -0.24161,-1.40637 -0.51687,-2.3115 -0.54692,-1.80304 -1.4232,-3.93543 -2.24298,-5.6988 -0.42552,-0.91715 -0.80416,-2.05907 -1.13471,-3.07358 -0.0168,-0.0505 -0.0337,-0.10097 -0.0493,-0.15146 -0.32094,-0.98205 -0.58779,-1.80063 -0.82218,-2.26942 m -7.10518,2.4305 c 1.67202,0.0493 3.30077,-0.73204 4.52683,-1.46648 0.58299,-0.34858 1.11668,-0.714 1.5422,-1.00489 0.14425,-0.0998 0.27647,-0.18992 0.39427,-0.26805 0.12861,-0.0853 0.23199,-0.15266 0.31613,-0.20314 0.0661,0.0709 0.1779,0.21636 0.32575,0.51086 m -0.1166,-0.62145 c 0,0 -10e-4,0 -0.005,0.001 0.004,-0.001 0.005,-0.001 0.005,-0.001 z"
     fill="#352e73"
     id="path330"
     style="stroke-width:1.20203" />
  <path
     d="m 618.73894,122.87472 c -1.94487,0.52408 -3.22022,6.51017 8.92384,13.75838 0,0 2.74182,-6.1135 7.19653,-6.1135 0,0 0,-1.1263 -5.95964,-3.06036 -3.92341,-1.27174 -6.9393,-5.45719 -10.16073,-4.58452 z"
     fill="#e0e3e6"
     id="path332"
     style="stroke-width:1.20203" />
  <path
     fill-rule="evenodd"
     clip-rule="evenodd"
     d="m 618.90843,123.49977 v 0 c -0.19833,0.0541 -0.51447,0.2957 -0.67794,0.89671 -0.15987,0.58539 -0.14905,1.46647 0.29089,2.60239 0.85223,2.1997 3.28874,5.27328 8.87696,8.71589 0.0589,-0.10939 0.12501,-0.22959 0.19833,-0.35821 0.33897,-0.595 0.84142,-1.39074 1.49051,-2.19009 1.02774,-1.26333 2.50382,-2.63003 4.36216,-3.11325 -0.76089,-0.46879 -2.16966,-1.14072 -4.74921,-1.97733 m 5.65433,1.81747 c -0.64549,-0.51928 -2.11316,-1.34988 -5.45479,-2.43411 -1.58908,-0.51567 -3.02911,-1.50854 -4.39461,-2.44973 -2.00498,-1.38233 -3.84888,-2.65407 -5.76612,-2.13479 -1.91482,0.51687 -3.18056,6.32506 8.3649,13.41941 0.18271,0.11299 0.36902,0.22598 0.55894,0.33897 0,0 0.0986,-0.22237 0.29089,-0.58178 0.75968,-1.42199 2.97021,-4.99922 6.18683,-5.47883 0.024,-0.004 0.0481,-0.007 0.0721,-0.0108 0.21156,-0.0276 0.42672,-0.0421 0.64669,-0.0421 0,0 0,-0.21757 -0.50485,-0.62625 z m -15.44603,-6.39358 c 1.29578,-0.35099 2.62042,0.29209 4.28883,1.40276 z m 4.28883,1.40276 c 0.29329,0.19473 0.595,0.40388 0.90633,0.61785 z m 0.90633,0.61785 c 1.3679,0.94479 2.90649,2.00738 4.59654,2.5555 z"
     fill="#352e73"
     id="path334"
     style="stroke-width:1.20203" />
  <path
     d="m 642.17484,113.46886 c 0,0 -0.19232,-0.0397 -0.92676,1.61072 -0.52168,1.17438 -0.72001,2.49901 -0.94599,3.77075 -0.32816,1.89199 -0.52048,3.92101 0.34978,5.70842 0.45677,0.93758 4.31047,0.47721 5.67837,-0.66592 1.36551,-1.15274 2.26342,-4.16983 1.78982,-6.10028 -0.45436,-1.93526 -5.33219,-4.83815 -5.94522,-4.32369 z"
     fill="#f8b785"
     id="path336"
     style="stroke-width:1.20203" />
  <path
     d="m 643.49707,110.83523 c -0.45437,0.27286 -1.13111,-0.0192 -1.44363,0.2993 -0.70199,0.70319 -0.71761,2.09994 -0.22118,2.97501 0.72483,1.26814 5.07736,1.84511 5.50288,4.36937 0,0 1.25251,-3.08801 -1.27535,-5.08337 -2.94016,-2.3127 -2.56272,-2.56031 -2.56272,-2.56031 z"
     fill="#2d2861"
     id="path338"
     style="stroke-width:1.20203" />
  <path
     d="m 631.67394,136.63431 c -1.14913,0.29089 -2.06628,-1.19842 -1.81986,-1.33065 1.26333,-0.66231 1.34146,0.47961 1.42079,-0.25362 0.0805,-0.73444 1.69846,-0.57337 1.69846,-0.57337 z"
     fill="#f8b785"
     id="path340"
     style="stroke-width:1.20203" />
  <path
     d="m 623.74658,167.00589 c -3.85129,1.19241 -6.25774,0.84743 -6.25774,0.84743 0,0 2.20932,0.86185 5.48244,0.51567 0,0 -1.99657,1.00249 -3.83086,0.74886 0,0 1.06379,0.70078 4.5076,0.68876 z"
     fill="#e7e8e9"
     id="path342"
     style="stroke-width:1.20203" />
  <path
     d="m 621.10333,144.37175 c 0.39426,3.80561 -0.64669,10.89155 -0.357,16.07349 0.15626,3.19859 -0.31133,6.39838 -1.37752,9.41907 0,0 2.17326,0.27286 3.60367,-1.49532 0,0 -0.357,-7.17489 -0.33777,-12.78475 0.0264,-7.74465 -1.53138,-11.21249 -1.53138,-11.21249 z"
     fill="#2d2861"
     id="path344"
     style="stroke-width:1.20203" />
  <path
     d="m 619.74865,141.70205 c -0.75488,4.50639 -1.86795,17.63732 -1.86795,17.63732 l 1.85713,1.18159 0.66712,-19.83222 z"
     fill="#2d2861"
     id="path346"
     style="stroke-width:1.20203" />
  <defs
     id="defs353">
    <linearGradient
       id="paint0_linear"
       x1="-71.4049"
       y1="309.304"
       x2="722.222"
       y2="309.304"
       gradientUnits="userSpaceOnUse">
      <stop
         stop-color="#BCE3F1"
         id="stop348" />
      <stop
         offset="1"
         stop-color="#D0F7FF"
         id="stop350" />
    </linearGradient>
  </defs>
</svg>
