<svg width="96" height="96" viewBox="0 0 96 96" fill="none" xmlns="http://www.w3.org/2000/svg">
<path d="M47.5627 95.1253C38.1557 95.1253 28.9599 92.3358 21.1383 87.1095C13.3166 81.8833 7.2204 74.455 3.62049 65.7641C0.0205916 57.0732 -0.921285 47.5099 0.91393 38.2836C2.74914 29.0574 7.27905 20.5825 13.9308 13.9308C20.5826 7.27904 29.0574 2.74914 38.2836 0.913923C47.5099 -0.921292 57.0732 0.0206109 65.7641 3.62051C74.455 7.22042 81.8833 13.3166 87.1095 21.1383C92.3358 28.9599 95.1253 38.1557 95.1253 47.5627C95.1102 60.1724 90.0944 72.2614 81.1779 81.1779C72.2614 90.0943 60.1724 95.1102 47.5627 95.1253Z" fill="#38816F"/>
<path d="M47.5627 2.97128H47.5514C22.9242 2.97128 2.95996 22.9355 2.95996 47.5627V47.5741C2.95996 72.2012 22.9242 92.1654 47.5514 92.1654H47.5627C72.1899 92.1654 92.1541 72.2012 92.1541 47.5741V47.5627C92.1541 22.9355 72.1899 2.97128 47.5627 2.97128Z" fill="url(#paint0_radial)"/>
<path style="mix-blend-mode:color-dodge" d="M57.4102 4.67889C52.4104 3.51624 47.2611 3.13225 42.1441 3.54048C23.349 5.63515 6.64862 21.3224 4.90685 40.311C4.46288 45.0013 5.00932 50.1013 8.01472 53.7215C10.4623 56.6585 14.1621 58.2182 17.7708 59.4135C24.8062 61.8041 34.3233 57.4554 41.0285 55.19C48.394 52.6969 53.9722 48.4848 60.4839 44.2727C63.4146 42.1766 66.6162 40.4877 70.0009 39.2523C71.6986 38.6432 73.5013 38.3808 75.3021 38.4806C77.103 38.5803 78.8656 39.0401 80.4857 39.8329C88.9441 44.5345 87.7373 57.057 83.9692 64.3769C88.7733 58.8898 89.7751 51.0803 89.7865 43.7945C89.7865 31.9779 84.0944 18.9773 74.5546 11.7256C70.2514 8.52671 63.8763 6.07913 57.4102 4.67889Z" fill="url(#paint1_linear)"/>
<path style="mix-blend-mode:color-burn" d="M11.4187 66.6309C11.2 65.5434 11.0781 64.4386 11.0544 63.3296C10.952 62.4686 11.1533 61.599 11.6236 60.8706C13.0352 59.0492 15.9154 60.5746 17.5319 62.2025C28.028 72.767 39.4235 77.5027 53.2893 69.2493C59.1407 65.7658 64.8213 59.5273 68.931 54.1654C70.8093 51.7064 72.8585 49.1906 75.6818 47.9042C78.505 46.6178 82.3073 46.9479 84.106 49.4751C95.2396 65.151 75.3061 81.6124 61.9867 86.6214C51.637 90.4661 40.2346 90.3689 29.9519 86.3481C21.209 82.8874 13.206 75.6357 11.4187 66.6309Z" fill="url(#paint2_radial)"/>
<path style="mix-blend-mode:color-dodge" d="M43.3738 88.1924C30.8513 86.5531 18.6134 79.3925 11.4984 69.4087C10.5763 68.1223 6.61464 60.4153 11.931 62.4075C16.3139 64.0582 18.9094 68.5549 23.0532 70.7748C35.3594 77.3548 50.375 79.3128 62.0095 70.16C62.8871 69.3893 63.8496 68.721 64.8783 68.1678C67.9406 66.7334 72.5056 68.6915 73.2683 72.1067C74.0311 75.5219 70.354 80.4057 68.0886 82.4321C65.6123 84.5152 62.7213 86.048 59.6074 86.9288C54.3528 88.527 48.8125 88.9582 43.3738 88.1924Z" fill="url(#paint3_linear)"/>
<path style="mix-blend-mode:color-dodge" d="M42.7815 1.55967C40.6234 1.81067 38.4881 2.22935 36.395 2.81192C30.7713 4.38292 24.1457 6.6142 19.558 10.3026C16.8817 12.657 14.5071 15.3337 12.4885 18.2715L6.55738 26.1265C4.95223 28.2667 3.29013 30.5207 2.83477 33.1618C1.99235 38.0228 5.87431 42.918 10.6556 44.1133C17.93 45.9348 24.1002 40.6981 29.7239 37.0552C36.5179 32.5758 43.8258 28.9295 51.4903 26.1948C59.5161 23.4171 68.259 22.1876 76.5352 24.0318C79.5462 24.6459 82.4201 25.8032 85.0163 27.447C89.0423 30.137 91.9391 34.2129 93.156 38.8994C90.1392 27.1055 84.0487 13.9797 72.5736 8.43566C62.6922 3.69988 53.3459 0.364342 42.7815 1.55967Z" fill="url(#paint4_radial)"/>
<path style="mix-blend-mode:color-dodge" d="M86.1203 27.7203C86.1886 26.8209 86.2569 22.0282 84.0143 23.1666C82.8758 23.7472 83.8321 26.8323 84.0143 27.7203C84.1622 28.3691 84.5835 29.166 85.2438 29.0636C85.904 28.9611 86.0748 28.3122 86.1203 27.7203Z" fill="url(#paint5_radial)"/>
<path style="mix-blend-mode:color-dodge" d="M41.4266 7.09229C40.1174 7.11493 38.8102 7.20613 37.5105 7.36552C32.6381 7.99164 28.7903 9.93831 24.6237 12.3176C19.407 15.2902 14.9403 19.4181 11.5662 24.3847C5.27083 33.7424 2.92571 46.1966 7.01259 56.8748C7.38827 57.888 8.07132 59.0492 9.1528 59.0264C8.91597 56.9026 8.83226 54.7644 8.90235 52.6286C8.86814 51.2023 9.35824 49.813 10.2798 48.7238C13.0689 46.0486 17.8502 51.9569 20.4686 52.9132C25.2271 54.6663 29.4051 53.2433 32.2397 49.0995C33.5602 47.187 34.5165 45.0582 35.6549 43.066C38.2596 38.7433 41.9179 35.1517 46.2876 32.6268C48.1664 31.4654 50.1434 30.4712 52.196 29.6555C54.4045 28.8473 56.8293 29.1318 59.0264 28.2894C67.0522 25.3068 63.9215 15.2205 58.3092 11.0653C56.2821 9.69853 54.0024 8.75029 51.604 8.27625C48.2748 7.45491 44.8554 7.05711 41.4266 7.09229Z" fill="url(#paint6_radial)"/>
<path style="mix-blend-mode:color-dodge" d="M13.5697 19.797C19.5577 12.625 27.6745 7.34279 36.5541 6.46622C29.3594 20.2751 25.079 35.7119 30.0766 51.0576C35.3702 67.2913 48.4732 77.48 64.1263 82.7736C61.7357 81.9653 55.0191 84.5723 52.321 84.8911C47.6321 85.4788 42.8982 85.6237 38.1821 85.3236C30.9759 84.7772 22.9046 81.9084 17.5427 77.0247C10.3823 70.4136 5.77261 61.4965 4.51936 51.8317C3.14188 40.9258 6.47739 28.2895 13.5697 19.797Z" fill="url(#paint7_radial)"/>
<path d="M21.3231 18.465C20.8466 18.363 20.3498 18.4231 19.9114 18.6358C16.3937 20.1385 16.0864 23.7586 15.4375 26.9803C14.6854 30.6636 14.4364 34.4319 14.6975 38.1822C14.8608 34.9771 15.3451 31.7964 16.1433 28.6879C17.0426 24.5669 18.7844 24.1343 21.2775 21.3566C21.9719 20.5824 22.4728 19.2277 21.6304 18.613C21.5351 18.55 21.4317 18.5002 21.3231 18.465Z" fill="white"/>
<path d="M23.3376 16.4842C23.0093 16.6635 22.7603 16.9596 22.6401 17.3139C22.5199 17.6681 22.5372 18.0546 22.6887 18.3967C22.9805 18.5702 23.3044 18.6828 23.6409 18.7278C23.9774 18.7728 24.3196 18.7493 24.6467 18.6585C24.8958 18.4427 25.049 18.1367 25.0725 17.8079C25.0959 17.4791 24.9879 17.1545 24.772 16.9054C24.5561 16.6563 24.2501 16.5032 23.9213 16.4797C23.5926 16.4562 23.2679 16.5643 23.0188 16.7802L23.3376 16.4842Z" fill="white"/>
<path d="M69.1665 23.375H37.2082V20.9167H34.7498C34.0108 20.9982 33.3047 21.2667 32.6983 21.6968C32.0918 22.1269 31.6049 22.7045 31.2836 23.375H24.9165V28.2917H29.1694C24.9165 42.0092 24.9165 70.0833 24.9165 70.0833H37.2082V28.2917H69.1665V23.375ZM74.0832 36.8958C74.0597 35.7385 73.7099 34.6114 73.0741 33.6441C72.4382 32.6769 71.5421 31.9089 70.4889 31.4285C69.4357 30.9482 68.2683 30.7751 67.1211 30.929C65.9738 31.083 64.8934 31.5579 64.0041 32.2989C63.1149 33.0399 62.453 34.017 62.0947 35.1177C61.7363 36.2184 61.6961 37.3979 61.9787 38.5204C62.2612 39.6429 62.855 40.6628 63.6917 41.4627C64.5285 42.2626 65.5741 42.8099 66.7082 43.0417V70.0833H69.1665V43.0417C70.5756 42.7543 71.8393 41.982 72.7377 40.859C73.636 39.7361 74.1122 38.3336 74.0832 36.8958ZM56.8748 44.2708V55.3333H54.4165V70.0833H50.729V57.7917H48.2707V70.0833H44.5832V55.3333H42.1248V44.2708C42.1248 43.2928 42.5133 42.3549 43.2049 41.6634C43.8964 40.9718 44.8344 40.5833 45.8123 40.5833H53.1873C54.1653 40.5833 55.1033 40.9718 55.7948 41.6634C56.4863 42.3549 56.8748 43.2928 56.8748 44.2708ZM49.4998 31.9792C48.7705 31.9792 48.0576 32.1954 47.4512 32.6006C46.8448 33.0058 46.3721 33.5817 46.093 34.2555C45.8139 34.9293 45.7409 35.6707 45.8832 36.3861C46.0255 37.1014 46.3767 37.7584 46.8924 38.2741C47.4081 38.7898 48.0651 39.141 48.7804 39.2833C49.4957 39.4256 50.2372 39.3526 50.911 39.0735C51.5848 38.7944 52.1607 38.3217 52.5659 37.7153C52.9711 37.1089 53.1873 36.396 53.1873 35.6667C53.1873 34.6887 52.7988 33.7507 52.1073 33.0592C51.4158 32.3677 50.4778 31.9792 49.4998 31.9792Z" fill="white"/>
<defs>
<radialGradient id="paint0_radial" cx="0" cy="0" r="1" gradientUnits="userSpaceOnUse" gradientTransform="translate(47.5514 47.5627) scale(44.5914)">
<stop stop-color="#2D985E"/>
<stop offset="1" stop-color="#2D5A0A"/>
</radialGradient>
<linearGradient id="paint1_linear" x1="33163.4" y1="12546.3" x2="32111.8" y2="8882.88" gradientUnits="userSpaceOnUse">
<stop stop-color="white"/>
<stop offset="0.08" stop-color="#E5E5E5"/>
<stop offset="0.26" stop-color="#ABA9AA"/>
<stop offset="0.44" stop-color="#7A7878"/>
<stop offset="0.61" stop-color="#545152"/>
<stop offset="0.76" stop-color="#393637"/>
<stop offset="0.9" stop-color="#292526"/>
<stop offset="1" stop-color="#231F20"/>
</linearGradient>
<radialGradient id="paint2_radial" cx="0" cy="0" r="1" gradientUnits="userSpaceOnUse" gradientTransform="translate(29593.8 12749.9) scale(9975.92 5523.8)">
<stop stop-color="#231F20"/>
<stop offset="0.1" stop-color="#292526"/>
<stop offset="0.24" stop-color="#393637"/>
<stop offset="0.39" stop-color="#545152"/>
<stop offset="0.56" stop-color="#7A7878"/>
<stop offset="0.74" stop-color="#ABA9AA"/>
<stop offset="0.92" stop-color="#E5E5E5"/>
<stop offset="1" stop-color="white"/>
</radialGradient>
<linearGradient id="paint3_linear" x1="23616.5" y1="5817.34" x2="23616.5" y2="5055.5" gradientUnits="userSpaceOnUse">
<stop stop-color="white"/>
<stop offset="0.08" stop-color="#E5E5E5"/>
<stop offset="0.26" stop-color="#ABA9AA"/>
<stop offset="0.44" stop-color="#7A7878"/>
<stop offset="0.61" stop-color="#545152"/>
<stop offset="0.76" stop-color="#393637"/>
<stop offset="0.9" stop-color="#292526"/>
<stop offset="1" stop-color="#231F20"/>
</linearGradient>
<radialGradient id="paint4_radial" cx="0" cy="0" r="1" gradientUnits="userSpaceOnUse" gradientTransform="translate(35569.7 7971.23) scale(5843.12 2789.32)">
<stop stop-color="white"/>
<stop offset="0.08" stop-color="#E5E5E5"/>
<stop offset="0.26" stop-color="#ABA9AA"/>
<stop offset="0.44" stop-color="#7A7878"/>
<stop offset="0.61" stop-color="#545152"/>
<stop offset="0.76" stop-color="#393637"/>
<stop offset="0.9" stop-color="#292526"/>
<stop offset="1" stop-color="#231F20"/>
</radialGradient>
<radialGradient id="paint5_radial" cx="0" cy="0" r="1" gradientUnits="userSpaceOnUse" gradientTransform="translate(1189.64 913.428) scale(28.9542 65.7217)">
<stop stop-color="white"/>
<stop offset="0.08" stop-color="#E5E5E5"/>
<stop offset="0.26" stop-color="#ABA9AA"/>
<stop offset="0.44" stop-color="#7A7878"/>
<stop offset="0.61" stop-color="#545152"/>
<stop offset="0.76" stop-color="#393637"/>
<stop offset="0.9" stop-color="#292526"/>
<stop offset="1" stop-color="#231F20"/>
</radialGradient>
<radialGradient id="paint6_radial" cx="0" cy="0" r="1" gradientUnits="userSpaceOnUse" gradientTransform="translate(22217.7 5894.62) scale(2314.34 2040.59)">
<stop stop-color="white"/>
<stop offset="0.08" stop-color="#E5E5E5"/>
<stop offset="0.26" stop-color="#ABA9AA"/>
<stop offset="0.44" stop-color="#7A7878"/>
<stop offset="0.61" stop-color="#545152"/>
<stop offset="0.76" stop-color="#393637"/>
<stop offset="0.9" stop-color="#292526"/>
<stop offset="1" stop-color="#231F20"/>
</radialGradient>
<radialGradient id="paint7_radial" cx="0" cy="0" r="1" gradientUnits="userSpaceOnUse" gradientTransform="translate(23144 13618.2) scale(1596.65 2105.6)">
<stop stop-color="white"/>
<stop offset="0.08" stop-color="#E5E5E5"/>
<stop offset="0.26" stop-color="#ABA9AA"/>
<stop offset="0.44" stop-color="#7A7878"/>
<stop offset="0.61" stop-color="#545152"/>
<stop offset="0.76" stop-color="#393637"/>
<stop offset="0.9" stop-color="#292526"/>
<stop offset="1" stop-color="#231F20"/>
</radialGradient>
</defs>
</svg>
