<?xml version="1.0" encoding="UTF-8" standalone="no"?>
<svg
   width="85"
   height="105"
   viewBox="0 0 85 105"
   fill="none"
   version="1.1"
   id="svg4"
   sodipodi:docname="громадський_бюджет_in.svg"
   inkscape:version="1.1 (c68e22c387, 2021-05-23)"
   xmlns:inkscape="http://www.inkscape.org/namespaces/inkscape"
   xmlns:sodipodi="http://sodipodi.sourceforge.net/DTD/sodipodi-0.dtd"
   xmlns="http://www.w3.org/2000/svg"
   xmlns:svg="http://www.w3.org/2000/svg">
  <defs
     id="defs8">
    <filter
       id="filter0_d"
       x="0.0625"
       y="0.060546901"
       width="84.733101"
       height="76.030296"
       filterUnits="userSpaceOnUse"
       color-interpolation-filters="sRGB">
      <feFlood
         flood-opacity="0"
         result="BackgroundImageFix"
         id="feFlood29509" />
      <feColorMatrix
         in="SourceAlpha"
         type="matrix"
         values="0 0 0 0 0 0 0 0 0 0 0 0 0 0 0 0 0 0 127 0"
         result="hardAlpha"
         id="feColorMatrix29511" />
      <feOffset
         id="feOffset29513" />
      <feGaussianBlur
         stdDeviation="5"
         id="feGaussianBlur29515" />
      <feComposite
         in2="hardAlpha"
         operator="out"
         id="feComposite29517" />
      <feColorMatrix
         type="matrix"
         values="0 0 0 0 0 0 0 0 0 0 0 0 0 0 0 0 0 0 0.3 0"
         id="feColorMatrix29519" />
      <feBlend
         mode="normal"
         in2="BackgroundImageFix"
         result="effect1_dropShadow"
         id="feBlend29521" />
      <feBlend
         mode="normal"
         in="SourceGraphic"
         in2="effect1_dropShadow"
         result="shape"
         id="feBlend29523" />
    </filter>
    <filter
       inkscape:collect="always"
       style="color-interpolation-filters:sRGB"
       id="filter1221"
       x="-0.067646493"
       y="-0.053387894"
       width="1.1371322"
       height="1.1082255">
      <feGaussianBlur
         inkscape:collect="always"
         stdDeviation="1.6485224"
         id="feGaussianBlur1223" />
    </filter>
  </defs>
  <sodipodi:namedview
     id="namedview6"
     pagecolor="#0f0f0f"
     bordercolor="#666666"
     borderopacity="1.0"
     inkscape:pageshadow="2"
     inkscape:pageopacity="0"
     inkscape:pagecheckerboard="0"
     showgrid="false"
     inkscape:snap-global="false"
     inkscape:zoom="5.6568543"
     inkscape:cx="21.213203"
     inkscape:cy="80.698561"
     inkscape:window-width="1857"
     inkscape:window-height="1057"
     inkscape:window-x="-8"
     inkscape:window-y="-8"
     inkscape:window-maximized="1"
     inkscape:current-layer="svg4"
     width="105px" />
  <g
     id="g839"
     transform="translate(-9.8847789,0.97357152)">
    <path
       id="path1183"
       style="fill:none;fill-opacity:1;stroke:#f70064;stroke-width:1.92604;stroke-linecap:round;stroke-miterlimit:4;stroke-dasharray:none;stroke-opacity:1;filter:url(#filter1221)"
       d="m 67.494458,29.183931 c -3.361917,-0.508296 -5.726255,-3.651712 -5.167635,-7.003023 0.656641,-3.939384 2.548533,-3.499151 3.335898,-7.257955 0.938716,-4.481336 -2.43342,-8.7524125 -6.964003,-9.437402 -4.530579,-0.6849891 -8.834713,2.4187893 -9.442685,6.956836 -0.44771,3.341824 1.392041,4.896646 1.012161,7.915348 -0.507909,3.359371 -3.645027,5.670639 -7.00694,5.16232 L 23.129281,22.476122 16.184156,68.414965 c -1.603437,10.60601 5.597082,20.48911 16.083064,22.074472 l 46.558979,7.039192 2.970494,-19.647112 c 0.441872,-2.922586 -1.609152,-5.656068 -4.581106,-6.105405 -3.7012,-0.522457 -3.562727,1.437428 -7.489586,0.79355 -5.234983,-0.791488 -8.837633,-5.673691 -8.046743,-10.904703 0.790888,-5.231011 5.675822,-8.829954 10.910807,-8.038465 3.671092,0.56907 3.52239,2.424221 6.925388,2.938086 3.403003,0.513866 5.739396,-1.55563 6.181269,-4.478217 l 2.97852,-19.700192 z"
       sodipodi:nodetypes="cscssccssccccscscccc"
       transform="matrix(1.0388978,0,0,1.037902,-2.0377548,-1.9530554)" />
    <path
       id="ellipse19963"
       style="fill:#f70064;fill-opacity:1;stroke:#ffffff;stroke-width:2;stroke-linecap:round;stroke-miterlimit:4;stroke-dasharray:none;stroke-opacity:1"
       d="m 67.494458,29.183931 c -3.361917,-0.508296 -5.726255,-3.651712 -5.167635,-7.003023 0.656641,-3.939384 2.548533,-3.499151 3.335898,-7.257955 0.938716,-4.481336 -2.43342,-8.7524125 -6.964003,-9.437402 -4.530579,-0.6849891 -8.834713,2.4187893 -9.442685,6.956836 -0.44771,3.341824 1.392041,4.896646 1.012161,7.915348 -0.507909,3.359371 -3.645027,5.670639 -7.00694,5.16232 L 23.129281,22.476122 16.184156,68.414965 c -1.603437,10.60601 5.597082,20.48911 16.083064,22.074472 l 46.558979,7.039192 2.970494,-19.647112 c 0.441872,-2.922586 -1.609152,-5.656068 -4.581106,-6.105405 -3.7012,-0.522457 -3.562727,1.437428 -7.489586,0.79355 -5.234983,-0.791488 -8.837633,-5.673691 -8.046743,-10.904703 0.790888,-5.231011 5.675822,-8.829954 10.910807,-8.038465 3.671092,0.56907 3.52239,2.424221 6.925388,2.938086 3.403003,0.513866 5.739396,-1.55563 6.181269,-4.478217 l 2.97852,-19.700192 z"
       sodipodi:nodetypes="cscssccssccccscscccc" />
    <g
       style="fill:none;fill-opacity:1;stroke-width:1.49551"
       id="g933"
       transform="matrix(0.66814629,-0.02635485,0.02635486,0.66814636,24.194117,37.361115)">
      <path
         d="M 50.5495,5.50003 15.7405,4.0389 15.8529,1.36129 13.1753,1.24889 C 12.3666,1.30391 11.5853,1.56407 10.9051,2.00484 10.2248,2.4456 9.66812,3.05242 9.28748,3.76803 L 2.35245,3.47693 2.12766,8.83217 6.75994,9.02661 C 1.5005,23.7733 0.216962,54.3516 0.216962,54.3516 L 13.605,54.9136 15.5157,9.39414 50.3248,10.8553 Z m 4.7371,14.95167 c 0.0274,-1.2616 -0.3021,-2.5053 -0.9504,-3.5879 -0.6484,-1.0826 -1.5893,-1.96 -2.7145,-2.5314 -1.1252,-0.5713 -2.3888,-0.8133 -3.6454,-0.698 -1.2566,0.1152 -2.4552,0.583 -3.4576,1.3495 -1.0025,0.7665 -1.7681,1.8005 -2.2087,2.983 -0.4406,1.1825 -0.5383,2.4653 -0.2819,3.7009 0.2564,1.2356 0.8566,2.3736 1.7314,3.2831 0.8748,0.9095 1.9886,1.5534 3.2133,1.8577 l -1.2364,29.4537 2.6777,0.1124 1.2363,-29.4537 c 1.5479,-0.2486 2.9597,-1.0321 3.9895,-2.2141 1.0298,-1.1821 1.6126,-2.6878 1.6467,-4.2552 z m -19.0805,7.2461 -0.5058,12.0493 -2.6776,-0.1124 -0.6743,16.0657 -4.0165,-0.1686 0.562,-13.3881 -2.6776,-0.1124 -0.562,13.3881 -4.0164,-0.1686 0.6744,-16.0657 -2.6777,-0.1124 0.5058,-12.0493 c 0.0447,-1.0652 0.5108,-2.069 1.2956,-2.7906 0.7849,-0.7216 1.8242,-1.1019 2.8894,-1.0572 l 8.0329,0.3372 c 1.0652,0.0447 2.069,0.5107 2.7906,1.2956 0.7216,0.7848 1.1019,1.8242 1.0572,2.8894 z M 28.7352,13.9725 c -0.7943,-0.0333 -1.5808,0.1697 -2.2598,0.5833 -0.679,0.4136 -1.2201,1.0192 -1.5549,1.7404 -0.3348,0.7211 -0.4483,1.5254 -0.326,2.311 0.1223,0.7856 0.4748,1.5173 1.0129,2.1026 0.5381,0.5853 1.2377,0.9978 2.0103,1.1855 0.7726,0.1877 1.5835,0.1421 2.3302,-0.1311 0.7467,-0.2732 1.3956,-0.7617 1.8646,-1.4037 0.4691,-0.6419 0.7372,-1.4086 0.7706,-2.203 0.0447,-1.0652 -0.3356,-2.1045 -1.0572,-2.8894 -0.7216,-0.7848 -1.7254,-1.2509 -2.7907,-1.2956 z"
         fill="#ffffff"
         id="path924"
         style="stroke-width:2.29933" />
    </g>
  </g>
</svg>
