<?xml version="1.0" encoding="UTF-8" standalone="no"?>
<svg
   width="96"
   height="96"
   viewBox="0 0 96 96"
   fill="none"
   version="1.1"
   id="svg187"
   sodipodi:docname="story_1.svg"
   inkscape:version="1.1 (c68e22c387, 2021-05-23)"
   xmlns:inkscape="http://www.inkscape.org/namespaces/inkscape"
   xmlns:sodipodi="http://sodipodi.sourceforge.net/DTD/sodipodi-0.dtd"
   xmlns="http://www.w3.org/2000/svg"
   xmlns:svg="http://www.w3.org/2000/svg">
  <sodipodi:namedview
     id="namedview189"
     pagecolor="#ffffff"
     bordercolor="#666666"
     borderopacity="1.0"
     inkscape:pageshadow="2"
     inkscape:pageopacity="0.0"
     inkscape:pagecheckerboard="0"
     showgrid="false"
     inkscape:zoom="3.3918919"
     inkscape:cx="-8.8446215"
     inkscape:cy="89.772908"
     inkscape:window-width="1857"
     inkscape:window-height="1057"
     inkscape:window-x="-8"
     inkscape:window-y="-8"
     inkscape:window-maximized="1"
     inkscape:current-layer="svg187"
     width="96px" />
  <g
     id="g1021"
     transform="translate(-13.562496,-13.562506)">
    <path
       opacity="0.3"
       d="m 28.367,49.507 c -3.3982,5.0918 -6.0796,10.6271 -7.9688,16.4499 -1.1384,3.5063 -2.0036,7.3541 -0.8197,10.8604 1.184,3.5063 5.0318,6.341 8.5381,5.1684 1.3478,-0.5445 2.5658,-1.3668 3.5746,-2.4134 7.6045,-6.9785 15.9377,-14.3212 26.5931,-16.154 8.151,-1.4003 15.5507,1.867 23.2008,3.825 3.4984,0.8886 7.1519,0.9781 10.6896,0.2619 0.9917,-0.0501 1.923,-0.492 2.589,-1.2284 0.6661,-0.7365 1.0124,-1.7074 0.9628,-2.6991 C 96.6145,56.1211 93.3473,48.6304 88.3952,42.9953 83.1927,37.0983 79.5953,34.4117 71.5354,33.3871 64.8302,32.5447 57.9656,32.2487 51.3514,33.6376 41.976,35.869 33.776,41.5306 28.367,49.507 Z"
       fill="#ffffff"
       id="path2" />
    <path
       d="M 61.5513,109.125 C 52.1448,109.123 42.9501,106.332 35.13,101.104 27.3099,95.8764 21.2154,88.4473 17.6172,79.7562 14.0191,71.0651 13.0788,61.5022 14.9153,52.2767 16.7518,43.0512 21.2826,34.5774 27.9348,27.9268 34.587,21.2762 43.0619,16.7474 52.2878,14.9131 c 9.226,-1.8343 18.7886,-0.8917 27.4789,2.7085 8.6903,3.6002 16.1179,9.6965 21.3433,17.5178 5.226,7.8214 8.015,17.0167 8.015,26.4233 -0.015,12.6117 -5.032,24.7024 -13.9511,33.6192 -8.919,8.9171 -21.0109,13.9311 -33.6226,13.9431 z"
       fill="#005e8f"
       id="path4" />
    <path
       d="M 61.5627,16.9713 H 61.5513 C 36.9242,16.9713 16.96,36.9355 16.96,61.5627 v 0.0114 c 0,24.6271 19.9642,44.5909 44.5913,44.5909 h 0.0114 c 24.6272,0 44.5913,-19.9638 44.5913,-44.5909 v -0.0114 c 0,-24.6272 -19.9641,-44.5914 -44.5913,-44.5914 z"
       fill="url(#paint0_radial)"
       id="path6"
       style="fill:url(#paint0_radial)" />
    <path
       style="mix-blend-mode:color-dodge;fill:url(#paint1_linear)"
       d="M 71.41,18.6788 C 66.4093,17.5219 61.2609,17.138 56.144,17.5404 37.3489,19.544 20.6484,35.3223 18.8839,54.311 c -0.444,4.6902 0.1025,9.7903 3.1079,13.4218 2.4475,2.9371 6.136,4.4853 9.7561,5.692 7.024,2.3907 16.5524,-1.958 23.2463,-4.2235 7.3768,-2.4931 12.955,-6.6938 19.4667,-10.9173 2.9308,-2.0961 6.1323,-3.7849 9.5171,-5.0204 1.6978,-0.6084 3.5003,-0.8705 5.3011,-0.7707 1.8008,0.0997 3.5634,0.5592 5.1836,1.3513 8.4583,4.7017 7.2513,17.2355 3.4836,24.5555 4.8037,-5.4985 5.8057,-13.308 5.8177,-20.5938 C 103.764,45.9892 98.0715,33 88.5202,25.7483 84.2512,22.538 77.8761,20.0791 71.41,18.6788 Z"
       fill="url(#paint1_linear)"
       id="path8" />
    <path
       style="mix-blend-mode:color-burn;fill:url(#paint2_radial)"
       d="m 25.4181,80.631 c -0.2199,-1.0874 -0.3418,-2.1923 -0.3643,-3.3014 -0.1001,-0.8593 0.0967,-1.7269 0.5578,-2.4589 1.4116,-1.8215 4.3032,-0.296 5.9197,1.3319 10.4961,10.5644 21.8916,15.3002 35.7574,7.0467 5.84,-3.4835 11.532,-9.7106 15.6417,-15.0839 1.8783,-2.4589 3.9275,-4.9748 6.7507,-6.2612 2.8233,-1.2864 6.6255,-0.9563 8.4242,1.5824 11.1337,15.6645 -8.7998,32.1258 -22.1192,37.1344 -10.3469,3.852 -21.7494,3.763 -32.0348,-0.25 C 35.2084,96.8874 27.2054,89.6358 25.4181,80.631 Z"
       fill="url(#paint2_radial)"
       id="path10" />
    <path
       style="mix-blend-mode:color-dodge;fill:url(#paint3_linear)"
       d="M 57.3733,102.192 C 44.8508,100.564 32.6016,93.3925 25.4979,83.4087 c -0.9221,-1.2864 -4.8838,-8.9934 0.4326,-7.0012 4.3829,1.6507 6.9784,6.1474 11.1222,8.3673 12.3062,6.58 27.3218,8.5494 38.9563,-0.6148 0.8731,-0.7745 1.8318,-1.4467 2.8574,-2.0036 3.0737,-1.423 7.6273,0.5237 8.4015,3.9503 0.7285,3.2331 -2.9144,8.2876 -5.1798,10.314 -2.4684,2.1076 -5.3606,3.6603 -8.4811,4.5533 -5.258,1.583 -10.7983,1.999 -16.2337,1.218 z"
       fill="url(#paint3_linear)"
       id="path12" />
    <path
       style="mix-blend-mode:color-dodge;fill:url(#paint4_radial)"
       d="m 56.7815,15.5596 c -2.1593,0.2495 -4.295,0.672 -6.3865,1.2636 -5.6237,1.5597 -12.2493,3.7909 -16.837,7.4794 -2.6737,2.357 -5.048,5.0333 -7.0695,7.9688 l -5.9311,7.8892 c -1.571,2.1516 -3.2673,4.4284 -3.7226,7.0126 -0.8425,4.861 3.0395,9.7561 7.8208,10.9514 7.2744,1.8215 13.4446,-3.4152 19.0683,-7.0581 6.793,-4.4811 14.1011,-8.1275 21.7664,-10.8604 8.0257,-2.7777 16.7687,-4.0072 25.0449,-2.1516 3.0111,0.6136 5.8851,1.7709 8.4811,3.4152 4.0237,2.6924 6.9197,6.7673 8.1397,11.4524 C 104.139,41.1282 98.0487,28.0138 86.5736,22.4584 76.6922,17.6998 67.3459,14.3643 56.7815,15.5596 Z"
       fill="url(#paint4_radial)"
       id="path14" />
    <path
       style="mix-blend-mode:color-dodge;fill:url(#paint5_radial)"
       d="m 100.121,41.7202 c 0.068,-0.8993 0.125,-5.692 -2.1063,-4.5536 -1.1384,0.5919 -0.1936,3.677 0,4.5536 0.148,0.6489 0.5692,1.4458 1.2294,1.3433 0.6603,-0.1024 0.8309,-0.7513 0.8769,-1.3433 z"
       fill="url(#paint5_radial)"
       id="path16" />
    <path
       style="mix-blend-mode:color-dodge;fill:url(#paint6_radial)"
       d="m 55.4151,21.0923 c -1.3092,0.0234 -2.6163,0.1146 -3.9161,0.2732 -4.8724,0.6261 -8.7088,2.5728 -12.8754,4.9521 -5.2194,2.9739 -9.6866,7.1062 -13.0575,12.0785 -6.2954,9.3463 -8.6405,21.8004 -4.6106,32.4787 0.3871,1.0132 1.0701,2.1744 2.1516,2.163 -0.2423,-2.1273 -0.326,-4.2696 -0.2504,-6.4093 -0.0396,-1.4271 0.4511,-2.8183 1.3774,-3.9047 2.7777,-2.6753 7.5704,3.2331 10.2457,4.2007 2.0917,0.8936 4.4362,0.9996 6.6,0.2985 2.1639,-0.701 4.0008,-2.1617 5.1711,-4.1121 1.3092,-1.9239 2.2768,-4.0528 3.4152,-6.045 2.6048,-4.3226 6.263,-7.9143 10.6328,-10.4392 1.8812,-1.1568 3.8578,-2.1509 5.9083,-2.9712 2.2085,-0.8083 4.6333,-0.5237 6.8304,-1.3547 7.9689,-2.994 4.8952,-13.0803 -0.7172,-17.2355 -2.016,-1.3565 -4.2786,-2.3041 -6.6597,-2.7891 -3.3514,-0.8261 -6.7941,-1.2239 -10.2456,-1.1839 z"
       fill="url(#paint6_radial)"
       id="path18" />
    <path
       style="mix-blend-mode:color-dodge;fill:url(#paint7_radial)"
       d="M 27.5697,33.7969 C 33.5577,26.6249 41.6745,21.3541 50.5541,20.4662 43.3594,34.275 39.079,49.7118 44.031,65.0803 c 5.2936,16.2337 18.3853,26.4224 34.0498,31.716 -2.3907,-0.8082 -9.1073,1.7987 -11.8053,2.1175 -4.689,0.5877 -9.4229,0.7326 -14.139,0.4326 C 44.9304,98.7999 36.8591,95.9311 31.4858,91.0474 24.3326,84.4322 19.7278,75.5165 18.4738,65.8544 17.1419,54.9143 20.4774,42.3122 27.5697,33.7969 Z"
       fill="url(#paint7_radial)"
       id="path20" />
    <path
       d="m 35.3221,32.465 c -0.4764,-0.102 -0.9732,-0.0419 -1.4116,0.1708 -3.5177,1.5027 -3.825,5.1228 -4.4739,8.3559 -0.7522,3.6794 -1.0012,7.444 -0.74,11.1905 0.1633,-3.2051 0.6476,-6.3858 1.4458,-9.4943 0.8993,-4.121 2.6411,-4.5536 5.1342,-7.3313 0.6944,-0.7742 1.1384,-2.1289 0.3529,-2.7322 -0.095,-0.0664 -0.1984,-0.12 -0.3074,-0.1594 z"
       fill="#ffffff"
       id="path22" />
    <path
       d="m 37.3375,30.4955 c -0.3303,0.1774 -0.581,0.4734 -0.7014,0.8284 -0.1205,0.355 -0.1017,0.7425 0.0525,1.0842 0.5934,0.3395 1.2962,0.4335 1.958,0.2618 0.2451,-0.2227 0.3957,-0.5307 0.4211,-0.8608 0.0254,-0.3302 -0.0764,-0.6576 -0.2845,-0.9151 -0.2238,-0.2418 -0.5326,-0.3875 -0.8616,-0.4066 -0.329,-0.0191 -0.6525,0.0899 -0.9029,0.3041 z"
       fill="#ffffff"
       id="path24" />
    <g
       clip-path="url(#clip0)"
       filter="url(#filter0_d)"
       id="g30">
      <g
         filter="url(#filter1_d)"
         id="g28">
        <path
           d="m 68.5539,40.3727 c 2.7041,0 4.9166,-2.2125 4.9166,-4.9167 0,-2.7042 -2.2125,-4.9167 -4.9166,-4.9167 -2.7042,0 -4.9167,2.2125 -4.9167,4.9167 0,2.7042 2.2125,4.9167 4.9167,4.9167 z M 42.7414,56.3518 c -6.8834,0 -12.2917,5.4084 -12.2917,12.2917 0,6.8833 5.4083,12.2917 12.2917,12.2917 6.8833,0 12.2916,-5.4084 12.2916,-12.2917 0,-6.8833 -5.4083,-12.2917 -12.2916,-12.2917 z m 0,20.8959 c -4.6709,0 -8.6042,-3.9334 -8.6042,-8.6042 0,-4.6708 3.9333,-8.6042 8.6042,-8.6042 4.6708,0 8.6041,3.9334 8.6041,8.6042 0,4.6708 -3.9333,8.6042 -8.6041,8.6042 z m 14.2583,-24.5834 5.9,-5.9 1.9667,1.9667 c 3.1958,3.1958 7.375,5.1625 12.5375,5.1625 v -4.9167 c -3.6875,0 -6.6375,-1.475 -8.85,-3.6875 L 63.883,40.6185 c -1.2291,-0.9833 -2.4583,-1.475 -3.9333,-1.475 -1.475,0 -2.7042,0.4917 -3.4417,1.475 l -6.8833,6.8833 c -0.9833,0.9834 -1.475,2.2125 -1.475,3.4417 0,1.475 0.4917,2.7042 1.475,3.4417 l 7.8667,6.8833 V 73.5602 H 62.408 V 58.3185 Z m 20.1583,3.6875 c -6.8833,0 -12.2916,5.4084 -12.2916,12.2917 0,6.8833 5.4083,12.2917 12.2916,12.2917 6.8834,0 12.2917,-5.4084 12.2917,-12.2917 0,-6.8833 -5.4083,-12.2917 -12.2917,-12.2917 z m 0,20.8959 c -4.6708,0 -8.6041,-3.9334 -8.6041,-8.6042 0,-4.6708 3.9333,-8.6042 8.6041,-8.6042 4.6709,0 8.6042,3.9334 8.6042,8.6042 0,4.6708 -3.9333,8.6042 -8.6042,8.6042 z"
           fill="#ffffff"
           id="path26" />
      </g>
    </g>
  </g>
  <defs
     id="defs185">
    <filter
       id="filter0_d"
       x="0.449707"
       y="-3.14816"
       width="119"
       height="119"
       filterUnits="userSpaceOnUse"
       color-interpolation-filters="sRGB">
      <feFlood
         flood-opacity="0"
         result="BackgroundImageFix"
         id="feFlood32" />
      <feColorMatrix
         in="SourceAlpha"
         type="matrix"
         values="0 0 0 0 0 0 0 0 0 0 0 0 0 0 0 0 0 0 127 0"
         result="hardAlpha"
         id="feColorMatrix34" />
      <feOffset
         id="feOffset36" />
      <feGaussianBlur
         stdDeviation="15"
         id="feGaussianBlur38" />
      <feComposite
         in2="hardAlpha"
         operator="out"
         id="feComposite40" />
      <feColorMatrix
         type="matrix"
         values="0 0 0 0 0 0 0 0 0 0 0 0 0 0 0 0 0 0 0.25 0"
         id="feColorMatrix42" />
      <feBlend
         mode="normal"
         in2="BackgroundImageFix"
         result="effect1_dropShadow"
         id="feBlend44" />
      <feBlend
         mode="normal"
         in="SourceGraphic"
         in2="effect1_dropShadow"
         result="shape"
         id="feBlend46" />
    </filter>
    <filter
       id="filter1_d"
       x="20.449699"
       y="20.539301"
       width="79"
       height="70.395798"
       filterUnits="userSpaceOnUse"
       color-interpolation-filters="sRGB">
      <feFlood
         flood-opacity="0"
         result="BackgroundImageFix"
         id="feFlood49" />
      <feColorMatrix
         in="SourceAlpha"
         type="matrix"
         values="0 0 0 0 0 0 0 0 0 0 0 0 0 0 0 0 0 0 127 0"
         result="hardAlpha"
         id="feColorMatrix51" />
      <feOffset
         id="feOffset53" />
      <feGaussianBlur
         stdDeviation="5"
         id="feGaussianBlur55" />
      <feComposite
         in2="hardAlpha"
         operator="out"
         id="feComposite57" />
      <feColorMatrix
         type="matrix"
         values="0 0 0 0 0 0 0 0 0 0 0 0 0 0 0 0 0 0 0.3 0"
         id="feColorMatrix59" />
      <feBlend
         mode="normal"
         in2="BackgroundImageFix"
         result="effect1_dropShadow"
         id="feBlend61" />
      <feBlend
         mode="normal"
         in="SourceGraphic"
         in2="effect1_dropShadow"
         result="shape"
         id="feBlend63" />
    </filter>
    <radialGradient
       id="paint0_radial"
       cx="0"
       cy="0"
       r="1"
       gradientUnits="userSpaceOnUse"
       gradientTransform="matrix(44.5914,0,0,44.5914,61.5513,61.5627)">
      <stop
         stop-color="#58ABDF"
         id="stop66" />
      <stop
         offset="1"
         stop-color="#013B71"
         id="stop68" />
    </radialGradient>
    <linearGradient
       id="paint1_linear"
       x1="80.403397"
       y1="103.467"
       x2="54.891701"
       y2="39.671101"
       gradientUnits="userSpaceOnUse">
      <stop
         stop-color="white"
         id="stop71" />
      <stop
         offset="0.08"
         stop-color="#E5E5E5"
         id="stop73" />
      <stop
         offset="0.26"
         stop-color="#ABA9AA"
         id="stop75" />
      <stop
         offset="0.44"
         stop-color="#7A7878"
         id="stop77" />
      <stop
         offset="0.61"
         stop-color="#545152"
         id="stop79" />
      <stop
         offset="0.76"
         stop-color="#393637"
         id="stop81" />
      <stop
         offset="0.9"
         stop-color="#292526"
         id="stop83" />
      <stop
         offset="1"
         stop-color="#231F20"
         id="stop85" />
    </linearGradient>
    <radialGradient
       id="paint2_radial"
       cx="0"
       cy="0"
       r="1"
       gradientUnits="userSpaceOnUse"
       gradientTransform="matrix(147.291,0,0,148.778,72.1017,211.502)">
      <stop
         stop-color="#231F20"
         id="stop88" />
      <stop
         offset="0.1"
         stop-color="#292526"
         id="stop90" />
      <stop
         offset="0.24"
         stop-color="#393637"
         id="stop92" />
      <stop
         offset="0.39"
         stop-color="#545152"
         id="stop94" />
      <stop
         offset="0.56"
         stop-color="#7A7878"
         id="stop96" />
      <stop
         offset="0.74"
         stop-color="#ABA9AA"
         id="stop98" />
      <stop
         offset="0.92"
         stop-color="#E5E5E5"
         id="stop100" />
      <stop
         offset="1"
         stop-color="white"
         id="stop102" />
    </radialGradient>
    <linearGradient
       id="paint3_linear"
       x1="55.290001"
       y1="116.787"
       x2="55.290001"
       y2="84.034798"
       gradientUnits="userSpaceOnUse">
      <stop
         stop-color="white"
         id="stop105" />
      <stop
         offset="0.48"
         stop-color="#908E8E"
         id="stop107" />
      <stop
         offset="0.84"
         stop-color="#423E3F"
         id="stop109" />
      <stop
         offset="1"
         stop-color="#231F20"
         id="stop111" />
    </linearGradient>
    <radialGradient
       id="paint4_radial"
       cx="0"
       cy="0"
       r="1"
       gradientUnits="userSpaceOnUse"
       gradientTransform="matrix(5843.12,0,0,2790.05,7180.21,7861.23)">
      <stop
         stop-color="white"
         id="stop114" />
      <stop
         offset="0.08"
         stop-color="#E5E5E5"
         id="stop116" />
      <stop
         offset="0.26"
         stop-color="#ABA9AA"
         id="stop118" />
      <stop
         offset="0.44"
         stop-color="#7A7878"
         id="stop120" />
      <stop
         offset="0.61"
         stop-color="#545152"
         id="stop122" />
      <stop
         offset="0.76"
         stop-color="#393637"
         id="stop124" />
      <stop
         offset="0.9"
         stop-color="#292526"
         id="stop126" />
      <stop
         offset="1"
         stop-color="#231F20"
         id="stop128" />
    </radialGradient>
    <radialGradient
       id="paint5_radial"
       cx="0"
       cy="0"
       r="1"
       gradientUnits="userSpaceOnUse"
       gradientTransform="matrix(28.9761,0,0,65.7217,362.617,909.736)">
      <stop
         stop-color="white"
         id="stop131" />
      <stop
         offset="0.08"
         stop-color="#E5E5E5"
         id="stop133" />
      <stop
         offset="0.26"
         stop-color="#ABA9AA"
         id="stop135" />
      <stop
         offset="0.44"
         stop-color="#7A7878"
         id="stop137" />
      <stop
         offset="0.61"
         stop-color="#545152"
         id="stop139" />
      <stop
         offset="0.76"
         stop-color="#393637"
         id="stop141" />
      <stop
         offset="0.9"
         stop-color="#292526"
         id="stop143" />
      <stop
         offset="1"
         stop-color="#231F20"
         id="stop145" />
    </radialGradient>
    <radialGradient
       id="paint6_radial"
       cx="0"
       cy="0"
       r="1"
       gradientUnits="userSpaceOnUse"
       gradientTransform="matrix(2314.5,0,0,2041.05,3731.93,5758.26)">
      <stop
         stop-color="white"
         id="stop148" />
      <stop
         offset="0.08"
         stop-color="#E5E5E5"
         id="stop150" />
      <stop
         offset="0.26"
         stop-color="#ABA9AA"
         id="stop152" />
      <stop
         offset="0.44"
         stop-color="#7A7878"
         id="stop154" />
      <stop
         offset="0.61"
         stop-color="#545152"
         id="stop156" />
      <stop
         offset="0.76"
         stop-color="#393637"
         id="stop158" />
      <stop
         offset="0.9"
         stop-color="#292526"
         id="stop160" />
      <stop
         offset="1"
         stop-color="#231F20"
         id="stop162" />
    </radialGradient>
    <radialGradient
       id="paint7_radial"
       cx="0"
       cy="0"
       r="1"
       gradientUnits="userSpaceOnUse"
       gradientTransform="matrix(1596.19,0,0,2106.2,4340.19,13405.3)">
      <stop
         stop-color="white"
         id="stop165" />
      <stop
         offset="0.08"
         stop-color="#E5E5E5"
         id="stop167" />
      <stop
         offset="0.26"
         stop-color="#ABA9AA"
         id="stop169" />
      <stop
         offset="0.44"
         stop-color="#7A7878"
         id="stop171" />
      <stop
         offset="0.61"
         stop-color="#545152"
         id="stop173" />
      <stop
         offset="0.76"
         stop-color="#393637"
         id="stop175" />
      <stop
         offset="0.9"
         stop-color="#292526"
         id="stop177" />
      <stop
         offset="1"
         stop-color="#231F20"
         id="stop179" />
    </radialGradient>
    <clipPath
       id="clip0">
      <rect
         width="59"
         height="59"
         fill="#ffffff"
         transform="translate(30.4497,26.8518)"
         id="rect182"
         x="0"
         y="0" />
    </clipPath>
  </defs>
</svg>
