<?xml version="1.0" encoding="UTF-8" standalone="no"?>
<svg
   width="105"
   height="105"
   viewBox="0 0 105 105"
   fill="none"
   version="1.1"
   id="svg4"
   sodipodi:docname="зберігання_велосипеда.svg"
   inkscape:version="1.1 (c68e22c387, 2021-05-23)"
   xmlns:inkscape="http://www.inkscape.org/namespaces/inkscape"
   xmlns:sodipodi="http://sodipodi.sourceforge.net/DTD/sodipodi-0.dtd"
   xmlns="http://www.w3.org/2000/svg"
   xmlns:svg="http://www.w3.org/2000/svg">
  <defs
     id="defs8">
    <filter
       id="filter0_d"
       x="0.0625"
       y="0.060546901"
       width="84.733101"
       height="76.030296"
       filterUnits="userSpaceOnUse"
       color-interpolation-filters="sRGB">
      <feFlood
         flood-opacity="0"
         result="BackgroundImageFix"
         id="feFlood29509" />
      <feColorMatrix
         in="SourceAlpha"
         type="matrix"
         values="0 0 0 0 0 0 0 0 0 0 0 0 0 0 0 0 0 0 127 0"
         result="hardAlpha"
         id="feColorMatrix29511" />
      <feOffset
         id="feOffset29513" />
      <feGaussianBlur
         stdDeviation="5"
         id="feGaussianBlur29515" />
      <feComposite
         in2="hardAlpha"
         operator="out"
         id="feComposite29517" />
      <feColorMatrix
         type="matrix"
         values="0 0 0 0 0 0 0 0 0 0 0 0 0 0 0 0 0 0 0.3 0"
         id="feColorMatrix29519" />
      <feBlend
         mode="normal"
         in2="BackgroundImageFix"
         result="effect1_dropShadow"
         id="feBlend29521" />
      <feBlend
         mode="normal"
         in="SourceGraphic"
         in2="effect1_dropShadow"
         result="shape"
         id="feBlend29523" />
    </filter>
  </defs>
  <sodipodi:namedview
     id="namedview6"
     pagecolor="#0f0f0f"
     bordercolor="#666666"
     borderopacity="1.0"
     inkscape:pageshadow="2"
     inkscape:pageopacity="0"
     inkscape:pagecheckerboard="0"
     showgrid="false"
     inkscape:snap-global="false"
     inkscape:zoom="5.6568543"
     inkscape:cx="16.440233"
     inkscape:cy="57.364037"
     inkscape:window-width="1857"
     inkscape:window-height="1057"
     inkscape:window-x="-8"
     inkscape:window-y="-8"
     inkscape:window-maximized="1"
     inkscape:current-layer="g29543" />
  <g
     id="g1429"
     transform="translate(4,4.0000001)">
    <path
       id="ellipse19963"
       style="fill:#2ba04b;fill-opacity:1;stroke:#f2f2f2;stroke-width:2;stroke-linecap:round;stroke-miterlimit:4;stroke-dasharray:none;stroke-opacity:1"
       d="m 74.723676,51.298656 c -0.880017,-3.284269 1.054078,-6.709241 4.348772,-7.538897 3.872832,-0.975243 4.226755,0.934679 7.986436,0.151517 4.482383,-0.933704 7.046412,-5.733618 5.860484,-10.159558 -1.185927,-4.425941 -5.753155,-7.127688 -10.155107,-5.868194 -3.241602,0.927492 -3.929939,3.235814 -6.848286,4.096119 -3.281779,0.879351 -6.655599,-1.070216 -7.535595,-4.354491 L 63.110748,7.9581032 18.23312,19.983516 C 7.8721137,22.759852 1.6978831,33.314567 4.4427343,43.558344 L 16.630191,89.041909 35.823524,83.899071 c 2.855086,-0.765018 4.538948,-3.738776 3.761008,-6.642088 -1.00286,-3.60085 -2.743427,-2.689394 -3.725351,-6.545638 -1.370312,-5.114074 1.661462,-10.369864 6.771656,-11.739136 5.110192,-1.369272 10.363681,1.666489 11.733993,6.780563 0.948092,3.591919 -0.811459,4.198287 0.0799,7.522432 0.891361,3.324147 3.723087,4.636731 6.578173,3.871713 L 80.26809,71.990185 Z"
       sodipodi:nodetypes="cscssccssccccscscccc" />
    <g
       style="fill:#f2f2f2;fill-opacity:1;stroke-width:1.60061"
       id="g29543"
       transform="matrix(0.62148313,-0.12508318,0.12179112,0.60354945,5.9147625,21.383106)">
      <path
         d="m 50.8193,21.4273 c 2.8602,-0.125 5.098,-2.5674 4.973,-5.4276 -0.125,-2.8602 -2.5674,-5.098 -5.4275,-4.973 -2.8602,0.125 -5.0981,2.5674 -4.973,5.4276 0.125,2.8601 2.5674,5.098 5.4275,4.973 z M 24.2564,39.5214 c -7.2804,0.3182 -12.7507,6.2885 -12.4325,13.569 0.3182,7.2804 6.2885,12.7507 13.5689,12.4325 C 32.6732,65.2047 38.1436,59.2344 37.8254,51.954 37.5072,44.6736 31.5368,39.2032 24.2564,39.5214 Z m 0.966,22.1013 c -4.9403,0.2159 -9.2824,-3.7625 -9.4983,-8.7028 -0.2159,-4.9403 3.7625,-9.2823 8.7028,-9.4983 4.9403,-0.2159 9.2823,3.7625 9.4982,8.7028 0.216,4.9403 -3.7625,9.2824 -8.7027,9.4983 z m 13.9444,-26.6606 5.9676,-6.5131 2.1711,1.9892 c 3.5279,3.2325 8.0391,5.1194 13.4994,4.8808 l -0.2273,-5.2003 c -3.9002,0.1704 -7.0886,-1.2533 -9.531,-3.4911 L 45.8904,21.9032 C 44.5449,20.92 43.2221,20.4567 41.662,20.5249 40.1019,20.5931 38.8246,21.17 38.09,22.2441 l -6.9623,7.5986 c -0.9946,1.0855 -1.4578,2.4083 -1.4009,3.7084 0.0681,1.5601 0.645,2.8374 1.7191,3.572 l 8.6387,6.9168 0.5682,13.0007 5.2003,-0.2273 -0.7046,-16.1209 z m 21.4917,2.9684 c -7.2804,0.3182 -12.7507,6.2885 -12.4326,13.5689 0.3182,7.2804 6.2886,12.7507 13.569,12.4325 C 69.0753,63.6138 74.5456,57.6434 74.2274,50.363 73.9092,43.0826 67.9389,37.6123 60.6585,37.9305 Z m 0.9659,22.1012 c -4.9403,0.2159 -9.2823,-3.7625 -9.4982,-8.7028 -0.2159,-4.9402 3.7625,-9.2823 8.7027,-9.4982 4.9403,-0.2159 9.2824,3.7625 9.4983,8.7028 0.2159,4.9403 -3.7625,9.2823 -8.7028,9.4982 z"
         fill="#ffffff"
         id="path29505"
         style="fill:#f2f2f2;fill-opacity:1;stroke-width:3.23916;filter:url(#filter0_d)" />
    </g>
  </g>
</svg>
