<?xml version="1.0" encoding="UTF-8" standalone="no"?>
<svg
   width="105"
   height="105"
   viewBox="0 0 105 105"
   fill="none"
   version="1.1"
   id="svg4"
   sodipodi:docname="зберігання_велосипеда_in.svg"
   inkscape:version="1.1 (c68e22c387, 2021-05-23)"
   xmlns:inkscape="http://www.inkscape.org/namespaces/inkscape"
   xmlns:sodipodi="http://sodipodi.sourceforge.net/DTD/sodipodi-0.dtd"
   xmlns="http://www.w3.org/2000/svg"
   xmlns:svg="http://www.w3.org/2000/svg">
  <defs
     id="defs8">
    <filter
       id="filter0_d"
       x="0.0625"
       y="0.060546901"
       width="84.733101"
       height="76.030296"
       filterUnits="userSpaceOnUse"
       color-interpolation-filters="sRGB">
      <feFlood
         flood-opacity="0"
         result="BackgroundImageFix"
         id="feFlood29509" />
      <feColorMatrix
         in="SourceAlpha"
         type="matrix"
         values="0 0 0 0 0 0 0 0 0 0 0 0 0 0 0 0 0 0 127 0"
         result="hardAlpha"
         id="feColorMatrix29511" />
      <feOffset
         id="feOffset29513" />
      <feGaussianBlur
         stdDeviation="5"
         id="feGaussianBlur29515" />
      <feComposite
         in2="hardAlpha"
         operator="out"
         id="feComposite29517" />
      <feColorMatrix
         type="matrix"
         values="0 0 0 0 0 0 0 0 0 0 0 0 0 0 0 0 0 0 0.3 0"
         id="feColorMatrix29519" />
      <feBlend
         mode="normal"
         in2="BackgroundImageFix"
         result="effect1_dropShadow"
         id="feBlend29521" />
      <feBlend
         mode="normal"
         in="SourceGraphic"
         in2="effect1_dropShadow"
         result="shape"
         id="feBlend29523" />
    </filter>
    <filter
       inkscape:collect="always"
       style="color-interpolation-filters:sRGB"
       id="filter31312"
       x="-0.065125035"
       y="-0.074499181"
       width="1.1302593"
       height="1.1489982">
      <feGaussianBlur
         inkscape:collect="always"
         stdDeviation="2.0819863"
         id="feGaussianBlur31314" />
    </filter>
  </defs>
  <sodipodi:namedview
     id="namedview6"
     pagecolor="#0f0f0f"
     bordercolor="#666666"
     borderopacity="1.0"
     inkscape:pageshadow="2"
     inkscape:pageopacity="0"
     inkscape:pagecheckerboard="0"
     showgrid="false"
     inkscape:snap-global="false"
     inkscape:zoom="5.6568543"
     inkscape:cx="16.440233"
     inkscape:cy="57.364037"
     inkscape:window-width="1857"
     inkscape:window-height="1057"
     inkscape:window-x="-8"
     inkscape:window-y="-8"
     inkscape:window-maximized="1"
     inkscape:current-layer="svg4" />
  <path
     id="path31292"
     style="fill:none;fill-opacity:1;stroke:#2ba04b;stroke-width:1.97897;stroke-linecap:round;stroke-miterlimit:4;stroke-dasharray:none;stroke-opacity:1;filter:url(#filter31312);opacity:1"
     d="m 79.451245,55.376487 c -0.904433,-3.375602 1.083322,-6.89582 4.469425,-7.748548 3.980281,-1.002364 4.344023,0.960672 8.208013,0.155731 4.606743,-0.95967 7.241909,-5.893066 6.023079,-10.442089 -1.21883,-4.549023 -5.912772,-7.325904 -10.436853,-6.031384 -3.331537,0.953285 -4.038972,3.3258 -7.038286,4.210029 -3.372829,0.903805 -6.840253,-1.099978 -7.744664,-4.475586 L 67.516125,10.830664 21.393403,23.190495 C 10.74494,26.044039 4.3994099,36.892273 7.2204148,47.420923 L 19.746002,94.169354 39.471839,88.883497 c 2.934298,-0.786292 4.664878,-3.842749 3.865354,-6.8268 -1.030683,-3.700987 -2.819541,-2.764184 -3.828708,-6.727667 -1.40833,-5.256293 1.707558,-10.658243 6.959531,-12.065593 5.25197,-1.407351 10.651213,1.712832 12.059543,6.969125 0.974396,3.691808 -0.833972,4.315039 0.08212,7.731626 0.916091,3.416589 3.826381,4.765675 6.760679,3.979382 l 19.779129,-5.300137 z"
     sodipodi:nodetypes="cscssccssccccscscccc"
     transform="matrix(1.0105753,0,0,1.0106805,-0.55520035,-0.5607316)" />
  <path
     id="ellipse19963"
     style="fill:#2ba04b;fill-opacity:1;stroke:#ffffff;stroke-width:2;stroke-linecap:round;stroke-miterlimit:4;stroke-dasharray:none;stroke-opacity:1"
     d="m 78.723689,55.298657 c -0.880017,-3.284269 1.054078,-6.709241 4.348772,-7.538897 3.872832,-0.975243 4.226755,0.934679 7.986436,0.151517 4.482383,-0.933704 7.046412,-5.733618 5.860484,-10.159558 -1.185927,-4.425941 -5.753155,-7.127688 -10.155107,-5.868194 -3.241602,0.927492 -3.929939,3.235814 -6.848286,4.096119 -3.281779,0.879351 -6.655599,-1.070216 -7.535595,-4.354491 L 67.110761,11.958104 22.233133,23.983517 C 11.872127,26.759853 5.6978964,37.314568 8.4427476,47.558345 L 20.630204,93.04191 39.823537,87.899072 c 2.855086,-0.765018 4.538948,-3.738776 3.761008,-6.642088 -1.00286,-3.60085 -2.743427,-2.689394 -3.725351,-6.545638 -1.370312,-5.114074 1.661462,-10.369864 6.771656,-11.739136 5.110192,-1.369272 10.363681,1.666489 11.733993,6.780563 0.948092,3.591919 -0.811459,4.198287 0.0799,7.522432 0.891361,3.324147 3.723087,4.636731 6.578173,3.871713 l 19.245187,-5.156732 z"
     sodipodi:nodetypes="cscssccssccccscscccc" />
  <path
     d="m 50.8193,21.4273 c 2.8602,-0.125 5.098,-2.5674 4.973,-5.4276 -0.125,-2.8602 -2.5674,-5.098 -5.4275,-4.973 -2.8602,0.125 -5.0981,2.5674 -4.973,5.4276 0.125,2.8601 2.5674,5.098 5.4275,4.973 z M 24.2564,39.5214 c -7.2804,0.3182 -12.7507,6.2885 -12.4325,13.569 0.3182,7.2804 6.2885,12.7507 13.5689,12.4325 C 32.6732,65.2047 38.1436,59.2344 37.8254,51.954 37.5072,44.6736 31.5368,39.2032 24.2564,39.5214 Z m 0.966,22.1013 c -4.9403,0.2159 -9.2824,-3.7625 -9.4983,-8.7028 -0.2159,-4.9403 3.7625,-9.2823 8.7028,-9.4983 4.9403,-0.2159 9.2823,3.7625 9.4982,8.7028 0.216,4.9403 -3.7625,9.2824 -8.7027,9.4983 z m 13.9444,-26.6606 5.9676,-6.5131 2.1711,1.9892 c 3.5279,3.2325 8.0391,5.1194 13.4994,4.8808 l -0.2273,-5.2003 c -3.9002,0.1704 -7.0886,-1.2533 -9.531,-3.4911 L 45.8904,21.9032 C 44.5449,20.92 43.2221,20.4567 41.662,20.5249 40.1019,20.5931 38.8246,21.17 38.09,22.2441 l -6.9623,7.5986 c -0.9946,1.0855 -1.4578,2.4083 -1.4009,3.7084 0.0681,1.5601 0.645,2.8374 1.7191,3.572 l 8.6387,6.9168 0.5682,13.0007 5.2003,-0.2273 -0.7046,-16.1209 z m 21.4917,2.9684 c -7.2804,0.3182 -12.7507,6.2885 -12.4326,13.5689 0.3182,7.2804 6.2886,12.7507 13.569,12.4325 C 69.0753,63.6138 74.5456,57.6434 74.2274,50.363 73.9092,43.0826 67.9389,37.6123 60.6585,37.9305 Z m 0.9659,22.1012 c -4.9403,0.2159 -9.2823,-3.7625 -9.4982,-8.7028 -0.2159,-4.9402 3.7625,-9.2823 8.7027,-9.4982 4.9403,-0.2159 9.2824,3.7625 9.4983,8.7028 0.2159,4.9403 -3.7625,9.2823 -8.7028,9.4982 z"
     fill="#ffffff"
     id="path29505"
     style="stroke-width:3.23914;filter:url(#filter0_d);fill:#ffffff;fill-opacity:1;stroke:none;stroke-opacity:1"
     transform="matrix(0.62148313,-0.12508486,0.12179112,0.60355758,9.9147758,25.383603)" />
</svg>
