<?xml version="1.0" encoding="UTF-8" standalone="no"?>
<svg
   width="105"
   height="105"
   viewBox="0 0 105 105"
   fill="none"
   version="1.1"
   id="svg4"
   sodipodi:docname="зберігання_велосипеда_locked.svg"
   inkscape:version="1.1 (c68e22c387, 2021-05-23)"
   xmlns:inkscape="http://www.inkscape.org/namespaces/inkscape"
   xmlns:sodipodi="http://sodipodi.sourceforge.net/DTD/sodipodi-0.dtd"
   xmlns="http://www.w3.org/2000/svg"
   xmlns:svg="http://www.w3.org/2000/svg">
  <defs
     id="defs8">
    <filter
       id="filter0_d"
       x="0.0625"
       y="0.060546901"
       width="84.733101"
       height="76.030296"
       filterUnits="userSpaceOnUse"
       color-interpolation-filters="sRGB">
      <feFlood
         flood-opacity="0"
         result="BackgroundImageFix"
         id="feFlood29509" />
      <feColorMatrix
         in="SourceAlpha"
         type="matrix"
         values="0 0 0 0 0 0 0 0 0 0 0 0 0 0 0 0 0 0 127 0"
         result="hardAlpha"
         id="feColorMatrix29511" />
      <feOffset
         id="feOffset29513" />
      <feGaussianBlur
         stdDeviation="5"
         id="feGaussianBlur29515" />
      <feComposite
         in2="hardAlpha"
         operator="out"
         id="feComposite29517" />
      <feColorMatrix
         type="matrix"
         values="0 0 0 0 0 0 0 0 0 0 0 0 0 0 0 0 0 0 0.3 0"
         id="feColorMatrix29519" />
      <feBlend
         mode="normal"
         in2="BackgroundImageFix"
         result="effect1_dropShadow"
         id="feBlend29521" />
      <feBlend
         mode="normal"
         in="SourceGraphic"
         in2="effect1_dropShadow"
         result="shape"
         id="feBlend29523" />
    </filter>
  </defs>
  <sodipodi:namedview
     id="namedview6"
     pagecolor="#0f0f0f"
     bordercolor="#666666"
     borderopacity="1.0"
     inkscape:pageshadow="2"
     inkscape:pageopacity="0"
     inkscape:pagecheckerboard="0"
     showgrid="false"
     inkscape:snap-global="false"
     inkscape:zoom="5.6568543"
     inkscape:cx="16.440233"
     inkscape:cy="57.364037"
     inkscape:window-width="1857"
     inkscape:window-height="1057"
     inkscape:window-x="-8"
     inkscape:window-y="-8"
     inkscape:window-maximized="1"
     inkscape:current-layer="svg4"
     width="105px" />
  <g
     id="g31070"
     transform="rotate(-15,67.390097,11.041246)">
    <path
       id="ellipse19963"
       style="fill:#2ba04b;fill-opacity:1;stroke:#1a612d;stroke-width:2;stroke-linecap:round;stroke-miterlimit:4;stroke-dasharray:none;stroke-opacity:1"
       d="m 66.882833,56.723967 c 0,-3.400125 2.75464,-6.207813 6.151801,-6.15647 3.99328,0.06035 3.84082,1.996795 7.67509,2.213396 4.57131,0.258237 8.29028,-3.714504 8.29028,-8.296575 0,-4.582071 -3.71234,-8.373844 -8.29028,-8.296575 -3.3712,0.0569 -4.63352,2.108413 -7.67509,2.18408 -3.397548,10e-7 -6.151823,-2.756345 -6.151801,-6.15647 l 1.33e-4,-20.360792 -46.460865,4.72e-4 C 9.6955685,11.855142 0.9999585,20.452205 0.9999965,31.057354 l 1.66e-4,47.088096 H 20.870563 c 2.955803,0 5.351954,-2.436614 5.351954,-5.442344 -0.03672,-3.737713 -1.953881,-3.307806 -1.904277,-7.286792 0,-5.294479 4.288767,-9.586502 9.579229,-9.586502 5.290461,0 9.579228,4.292023 9.579228,9.586502 -0.01387,3.714912 -1.870405,3.845213 -1.869769,7.286792 6.36e-4,3.44158 2.396152,5.442344 5.351954,5.442344 h 19.924084 z"
       sodipodi:nodetypes="cscssccssccccscscccc" />
    <g
       style="fill:none;stroke-width:1.6006"
       id="g29543"
       transform="matrix(0.63268095,0.04002897,-0.03857101,0.61451371,8.161112,10.019187)">
      <path
         d="m 50.8193,21.4273 c 2.8602,-0.125 5.098,-2.5674 4.973,-5.4276 -0.125,-2.8602 -2.5674,-5.098 -5.4275,-4.973 -2.8602,0.125 -5.0981,2.5674 -4.973,5.4276 0.125,2.8601 2.5674,5.098 5.4275,4.973 z M 24.2564,39.5214 c -7.2804,0.3182 -12.7507,6.2885 -12.4325,13.569 0.3182,7.2804 6.2885,12.7507 13.5689,12.4325 C 32.6732,65.2047 38.1436,59.2344 37.8254,51.954 37.5072,44.6736 31.5368,39.2032 24.2564,39.5214 Z m 0.966,22.1013 c -4.9403,0.2159 -9.2824,-3.7625 -9.4983,-8.7028 -0.2159,-4.9403 3.7625,-9.2823 8.7028,-9.4983 4.9403,-0.2159 9.2823,3.7625 9.4982,8.7028 0.216,4.9403 -3.7625,9.2824 -8.7027,9.4983 z m 13.9444,-26.6606 5.9676,-6.5131 2.1711,1.9892 c 3.5279,3.2325 8.0391,5.1194 13.4994,4.8808 l -0.2273,-5.2003 c -3.9002,0.1704 -7.0886,-1.2533 -9.531,-3.4911 L 45.8904,21.9032 C 44.5449,20.92 43.2221,20.4567 41.662,20.5249 40.1019,20.5931 38.8246,21.17 38.09,22.2441 l -6.9623,7.5986 c -0.9946,1.0855 -1.4578,2.4083 -1.4009,3.7084 0.0681,1.5601 0.645,2.8374 1.7191,3.572 l 8.6387,6.9168 0.5682,13.0007 5.2003,-0.2273 -0.7046,-16.1209 z m 21.4917,2.9684 c -7.2804,0.3182 -12.7507,6.2885 -12.4326,13.5689 0.3182,7.2804 6.2886,12.7507 13.569,12.4325 C 69.0753,63.6138 74.5456,57.6434 74.2274,50.363 73.9092,43.0826 67.9389,37.6123 60.6585,37.9305 Z m 0.9659,22.1012 c -4.9403,0.2159 -9.2823,-3.7625 -9.4982,-8.7028 -0.2159,-4.9402 3.7625,-9.2823 8.7027,-9.4982 4.9403,-0.2159 9.2824,3.7625 9.4983,8.7028 0.2159,4.9403 -3.7625,9.2823 -8.7028,9.4982 z"
         fill="#ffffff"
         id="path29505"
         style="stroke-width:3.23914;filter:url(#filter0_d)" />
    </g>
  </g>
</svg>
