<?xml version="1.0" encoding="UTF-8" standalone="no"?>
<svg
   width="105"
   height="105"
   viewBox="0 0 105 105"
   fill="none"
   version="1.1"
   id="svg4"
   sodipodi:docname="освітлення_парку.svg"
   inkscape:version="1.1 (c68e22c387, 2021-05-23)"
   xmlns:inkscape="http://www.inkscape.org/namespaces/inkscape"
   xmlns:sodipodi="http://sodipodi.sourceforge.net/DTD/sodipodi-0.dtd"
   xmlns="http://www.w3.org/2000/svg"
   xmlns:svg="http://www.w3.org/2000/svg">
  <defs
     id="defs8">
    <filter
       id="filter0_d"
       x="0.0625"
       y="0.060546901"
       width="84.733101"
       height="76.030296"
       filterUnits="userSpaceOnUse"
       color-interpolation-filters="sRGB">
      <feFlood
         flood-opacity="0"
         result="BackgroundImageFix"
         id="feFlood29509" />
      <feColorMatrix
         in="SourceAlpha"
         type="matrix"
         values="0 0 0 0 0 0 0 0 0 0 0 0 0 0 0 0 0 0 127 0"
         result="hardAlpha"
         id="feColorMatrix29511" />
      <feOffset
         id="feOffset29513" />
      <feGaussianBlur
         stdDeviation="5"
         id="feGaussianBlur29515" />
      <feComposite
         in2="hardAlpha"
         operator="out"
         id="feComposite29517" />
      <feColorMatrix
         type="matrix"
         values="0 0 0 0 0 0 0 0 0 0 0 0 0 0 0 0 0 0 0.3 0"
         id="feColorMatrix29519" />
      <feBlend
         mode="normal"
         in2="BackgroundImageFix"
         result="effect1_dropShadow"
         id="feBlend29521" />
      <feBlend
         mode="normal"
         in="SourceGraphic"
         in2="effect1_dropShadow"
         result="shape"
         id="feBlend29523" />
    </filter>
  </defs>
  <sodipodi:namedview
     id="namedview6"
     pagecolor="#0f0f0f"
     bordercolor="#666666"
     borderopacity="1.0"
     inkscape:pageshadow="2"
     inkscape:pageopacity="0"
     inkscape:pagecheckerboard="0"
     showgrid="false"
     inkscape:snap-global="false"
     inkscape:zoom="5.6568543"
     inkscape:cx="16.617009"
     inkscape:cy="57.364037"
     inkscape:window-width="1857"
     inkscape:window-height="1057"
     inkscape:window-x="-8"
     inkscape:window-y="-8"
     inkscape:window-maximized="1"
     inkscape:current-layer="svg4" />
  <path
     id="ellipse19963"
     style="fill:#f4cc1a;fill-opacity:1;stroke:#ffffff;stroke-width:2;stroke-linecap:round;stroke-miterlimit:4;stroke-dasharray:none;stroke-opacity:1"
     d="m 47.584568,78.410463 c 3.344802,-0.610859 6.601699,1.594539 7.161518,4.945649 0.658055,3.939149 -1.274274,4.137066 -0.798494,7.947863 0.567236,4.543325 5.143479,7.488052 9.650995,6.664847 4.507518,-0.823204 7.570645,-5.156362 6.672171,-9.645934 -0.661636,-3.306125 -2.906555,-4.179336 -3.527432,-7.157823 -0.610397,-3.342267 1.606274,-6.546926 4.951081,-7.157763 L 91.723936,70.34946 83.37642,24.644635 C 81.449209,14.092652 71.429793,7.0830555 60.997206,8.9883895 l -46.321904,8.4599015 3.56987,19.547093 c 0.531032,2.90771 3.358488,4.827117 6.315312,4.287114 3.670301,-0.707631 2.902956,-2.516362 6.826112,-3.182421 5.208334,-0.951194 10.201032,2.496697 11.151504,7.701079 0.950472,5.20438 -2.501207,10.194461 -7.70954,11.145655 -3.656959,0.653768 -4.118681,-1.149151 -7.504148,-0.53022 -3.385469,0.618932 -4.923305,3.334923 -4.392273,6.242632 l 3.579515,19.599903 z"
     sodipodi:nodetypes="cscssccssccccscscccc" />
  <g
     style="fill:none"
     id="g980"
     transform="matrix(0.74684005,0,0,0.74684005,43.012611,17.02529)">
    <path
       d="M 28.4932,49.3562 25.7904,20.6736 M 13.2893,17.3997 C 13.2635,11.1617 18.005,5.82563 24.335,5.22914 30.665,4.63265 36.3199,8.98907 37.4599,15.1221 l 0.0496,-0.0047 c 2.6332,-0.2481 5.2572,0.5599 7.2946,2.2465 2.0374,1.6865 3.3215,4.1133 3.5696,6.7465 0.2481,2.6332 -0.56,5.2572 -2.2465,7.2946 -1.6865,2.0374 -4.1133,3.3215 -6.7465,3.5696 l -24.2699,2.287 C 12.4776,37.5097 9.85363,36.7016 7.8162,35.0151 5.77877,33.3286 4.49475,30.9018 4.24662,28.2686 3.99848,25.6354 4.80656,23.0114 6.49307,20.974 8.17959,18.9366 10.6064,17.6525 13.2396,17.4044 Z m 13.5406,14.3057 4.9961,-6.0357 z m -0.3118,-3.3095 -7.2428,-5.9954 z"
       stroke="#ffffff"
       stroke-width="4"
       stroke-linecap="round"
       stroke-linejoin="round"
       id="path971" />
  </g>
  <g
     style="fill:none"
     id="g1079"
     transform="matrix(0.7106914,0,0,0.7106914,38.610937,49.235134)">
    <path
       d="m 22.4644,24.8012 3.9565,-4.7797 m -4.2035,2.1588 -5.7357,-4.7478 m 6.312,10.8632 -1.1526,-12.2307 m -9.8998,-2.5927 c -0.0204,-4.93997 3.7345,-9.16571 8.7473,-9.63808 5.0129,-0.47238 9.491,2.97755 10.3938,7.83438 l 0.0393,-0.0037 c 2.0853,-0.1965 4.1633,0.4434 5.7767,1.779 1.6135,1.3356 2.6304,3.2574 2.8269,5.3427 0.1965,2.0853 -0.4435,4.1633 -1.779,5.7768 -1.3356,1.6134 -3.2575,2.6303 -5.3428,2.8268 L 13.1838,29.2013 C 11.0985,29.3978 9.02054,28.7578 7.40707,27.4223 5.79359,26.0867 4.77676,24.1649 4.58026,22.0796 4.38375,19.9943 5.02368,17.9163 6.35926,16.3028 7.69484,14.6894 9.61667,13.6725 11.702,13.476 Z"
       stroke="#ffffff"
       stroke-width="4"
       stroke-linecap="round"
       stroke-linejoin="round"
       id="path1070" />
  </g>
</svg>
